<?xml version="1.0" encoding="utf-8"?>
<!-- Generator: Adobe Illustrator 19.0.0, SVG Export Plug-In . SVG Version: 6.00 Build 0)  -->
<!DOCTYPE svg PUBLIC "-//W3C//DTD SVG 1.1//EN" "http://www.w3.org/Graphics/SVG/1.1/DTD/svg11.dtd">
<svg version="1.1" id="Layer_2" xmlns="http://www.w3.org/2000/svg" xmlns:xlink="http://www.w3.org/1999/xlink" x="0px" y="0px"
	 viewBox="312 -257.5 674.1 565.5" style="enable-background:new 312 -257.5 674.1 565.5;" xml:space="preserve">
<style type="text/css">
	.st0{fill:#FED234;}
</style>
<g>
	<g>
		<path class="st0" d="M379.9-54.3v-33.1c0-0.6,0-1.4,0-2.2c0-0.8,0.1-1.6,0.2-2.4c0.1-0.9,0.2-1.8,0.3-2.7l-8.7,34.2h-5.1L358-94.7
			c0.1,0.9,0.1,1.8,0.3,2.7c0.1,0.8,0.2,1.5,0.3,2.4c0.1,0.8,0.1,1.6,0.1,2.2v33.1H349v-67.1h9.5L369-84.4c0.1,0.2,0.1,0.4,0.1,0.7
			c0,0.3,0,0.7,0.1,1c0,0.4,0,0.8,0.1,1.3c0-0.5,0-0.9,0.1-1.3c0-0.7,0.1-1.3,0.2-1.8l10.6-37.1h9.5v67.1H379.9z"/>
		<path class="st0" d="M421.6-54.3l-2-12.7H407l-2,12.7h-9.9v-0.2l13-67h10.5l12.9,67v0.2H421.6z M413.2-105.9l-4.9,30.3h9.8
			L413.2-105.9z"/>
		<path class="st0" d="M461-54.3l-11.1-31.2v-6.1h9.8v-21.3h-12.7v58.6h-10v-67.1h26.6c4,0,6.1,2.1,6.1,6.1v24.4c0,4-2,6-6,6.1h-3.4
			l11.1,30v0.4H461z"/>
		<path class="st0" d="M477.8-54.3v-67.1h10v67.1H477.8z"/>
		<path class="st0" d="M521.3-54.3l-16-42.2c0.1,0.6,0.1,1.2,0.3,1.8c0.1,0.5,0.2,1,0.3,1.5c0.1,0.6,0.1,1.1,0.1,1.5v37.4H496v-67.1
			h8.8l16,41.4c-0.1-0.6-0.2-1.2-0.4-1.7c-0.1-0.5-0.2-1-0.2-1.5c0-0.6-0.1-1.1-0.1-1.5v-36.5h9.8v67.1H521.3z"/>
		<path class="st0" d="M538.1-54.3v-67.1h27.6v8.9h-17.6V-93h15.1v8.7h-15.1v21.1h17.8v8.9H538.1z"/>
		<path class="st0" d="M617.7-54.3h-20.9c-4,0-6-2.1-6-6.1v-54.8c0-4.1,2-6.1,6-6.1h20.9c4.1,0,6.1,2,6.1,6.1v15.7h-10v-13.3h-13v50
			h13V-77h10v16.6C623.9-56.3,621.8-54.3,617.7-54.3z"/>
		<path class="st0" d="M664-55.9c-1.1,1-2.6,1.6-4.5,1.6h-21.8c-4,0-6-2.1-6-6.1v-54.8c0-4.1,2-6.1,6-6.1h21.8
			c1.9,0,3.4,0.5,4.5,1.6c1.1,1.1,1.6,2.6,1.6,4.6v54.8C665.6-58.5,665.1-57,664-55.9z M655.6-112.9h-13.8v50h13.8V-112.9z"/>
		<path class="st0" d="M697.5-54.3l-11.1-31.2v-6.1h9.8v-21.3h-12.6v58.6h-10v-67.1h26.6c4,0,6.1,2.1,6.1,6.1v24.4c0,4-2,6-6,6.1
			h-3.4l11.1,30v0.4H697.5z"/>
		<path class="st0" d="M745-80.3c-1,1.1-2.6,1.6-4.5,1.6h-16.3v24.3h-10v-67.1h26.3c4.1,0,6.1,2.1,6.1,6.1v30.4
			C746.6-82.9,746-81.3,745-80.3z M736.4-112.9h-12.3v25.7h12.3V-112.9z"/>
		<path class="st0" d="M784.2-55.9c-1.1,1.1-2.5,1.6-4.5,1.6h-20.2c-1.9,0-3.4-0.5-4.5-1.6c-1.1-1.1-1.6-2.6-1.6-4.6v-16h10v13.7
			h12.3V-76l-20.1-19c-0.8-0.8-1.4-1.5-1.7-2.3c-0.3-0.8-0.5-1.8-0.5-3.1v-14.9c0-2,0.5-3.5,1.6-4.6c1-1.1,2.5-1.6,4.5-1.6h20.2
			c1.9,0,3.4,0.5,4.5,1.6c1,1.1,1.6,2.6,1.6,4.5v15h-10v-12.7h-12.3v12.1l20.1,18.9c0.8,0.8,1.4,1.6,1.7,2.4
			c0.3,0.8,0.5,1.8,0.5,3.1v16C785.8-58.5,785.3-57,784.2-55.9z"/>
	</g>
	<polygon class="st0" points="361.4,172 393,172 393,-43.5 365.6,-43.5 349,15.7 349,20 361.4,20 	"/>
	<polygon class="st0" points="434.7,15.5 403.7,15.5 403.7,-43.5 510.3,-43.5 510.3,-22.9 507.7,-12.8 506,-10.6 507.2,-10.6 
		488.5,62.7 483.2,72.1 486.1,72.1 478.4,102.6 463.2,128.4 471.8,128.4 460.7,172 427.7,172 475.9,-16.1 434.7,-16.1 	"/>
	<polygon class="st0" points="539.2,-40.6 556.6,-18 546.9,-18 565.3,17.2 557.4,17.2 582.5,65.1 572,65.1 602.7,121.1 544.9,121.1 
		544.9,172 533.6,172 533.2,121.5 475.4,121.5 508.4,65.1 495.2,65.1 522.2,17.2 512.9,17.2 531.5,-17.5 520.6,-17.5 	"/>
	<polygon class="st0" points="637.5,-16.1 596.4,-16.1 596.4,15.5 572.2,15.5 565.3,2.2 565.3,-11 570.7,-11 565.3,-18 565.3,-43.5 
		671.9,-43.5 671.9,-22.9 622.3,172 589.3,172 600.6,128 614.5,128 605,110.8 	"/>
	<path class="st0" d="M679.6,102.9v52.8c0,0,0.8,16.2,17.3,16.3c16.5,0,68.2,0,68.2,0s17.2,1.1,17.7-18c0.5-19.1,0-95.3,0-95.3
		l-14.5-24.2l-57.4-0.4l2-49.4h68.5v-28.2H683l-3.4,104.9h71.6v83.2h-40v-41.7H679.6z"/>
	<polygon class="st0" points="861.2,25.8 948.6,-121.1 860.8,-121.1 773.1,25.8 861.1,172 949.1,172 	"/>
</g>
</svg>
