<?xml version="1.0" encoding="utf-8"?>
<!-- Generator: Adobe Illustrator 19.0.0, SVG Export Plug-In . SVG Version: 6.00 Build 0)  -->
<svg version="1.1" id="Layer_1" xmlns="http://www.w3.org/2000/svg" xmlns:xlink="http://www.w3.org/1999/xlink" x="0px" y="0px"
	 viewBox="-419.9 795.9 329.6 262.8" style="enable-background:new -419.9 795.9 329.6 262.8;" xml:space="preserve">
<style type="text/css">
	.st0{fill:#FED130;}
</style>
<g>
	<polygon class="st0" points="-328.7,1037.7 -332.1,1032 -334.5,1038.1 -340.9,1039.6 -335.9,1043.8 -336.5,1050.4 -330.9,1046.9 
		-324.8,1049.4 -326.5,1043 -322.1,1038.1 	"/>
	<polygon class="st0" points="-290.2,1043.9 -293.6,1038.2 -296,1044.3 -302.5,1045.8 -297.4,1050 -298,1056.6 -292.4,1053 
		-286.4,1055.6 -288,1049.2 -283.6,1044.3 	"/>
	<polygon class="st0" points="-253.8,1045.9 -257.2,1040.3 -259.6,1046.4 -266,1047.9 -260.9,1052.1 -261.5,1058.7 -256,1055.1 
		-249.9,1057.7 -251.5,1051.3 -247.2,1046.4 	"/>
	<polygon class="st0" points="-219.2,1037.4 -222.6,1031.7 -225,1037.8 -231.4,1039.3 -226.4,1043.5 -227,1050.1 -221.4,1046.6 
		-215.3,1049.2 -216.9,1042.8 -212.6,1037.8 	"/>
	<polygon class="st0" points="-184.6,1022.3 -188,1016.6 -190.4,1022.8 -196.9,1024.2 -191.8,1028.4 -192.4,1035 -186.8,1031.5 
		-180.8,1034.1 -182.4,1027.7 -178,1022.7 	"/>
	<path class="st0" d="M-382.8,878.7c-6.2-0.7-12.3-1.7-18.5-3c-1.4-0.3-2.4-0.4-2.9-0.2s-0.8,0.6-0.8,1.2c0,0.6,0.2,1.1,0.6,1.5
		s1.3,0.8,2.8,1.1c5.7,1.2,11.4,2.1,17.1,2.8c1.8,0.2,2.9,0.6,3.5,1.1c0.5,0.5,0.8,1.2,0.8,2c0.1,7.8,0.1,9.6,0.2,17.4
		c0,1.8-0.3,2.9-0.8,3.4c-0.6,0.5-1.3,0.7-2.2,0.8c-0.9,0-1.5,0.1-1.8,0.3c-0.3,0.2-0.5,0.6-0.5,1.2c0,1.1,0.9,1.8,2.8,2
		c0.6,0.1,1.5,0.1,2.9,0s4.7,0.2,6.2,0.6s2.6,0.6,3.2,0.6c0.8,0.1,1.5-0.1,2.1-0.4c0.5-0.3,0.8-0.6,0.8-1s-0.1-0.8-0.4-1.1
		c-0.3-0.3-1.1-0.7-2.4-1.1c-1.3-0.4-2.2-1-2.7-1.8c-0.4-0.7-0.7-1.5-0.7-2.4c-0.1-13.6-0.2-27.2-0.3-40.8c0-1.9,0.3-3.1,0.9-3.6
		s1.3-0.9,2.2-0.9c0.9-0.1,1.5-0.2,1.8-0.4s0.5-0.6,0.5-1.3c0-1-0.6-1.6-1.9-1.7c-1.2-0.1-2.4-0.1-3.7,0c-1.3,0.1-5.2-0.3-6.7-0.7
		s-2.7-0.6-3.7-0.8c-0.5-0.1-1,0-1.4,0.3c-0.4,0.3-0.6,0.5-0.6,0.9c0,0.5,0.1,0.9,0.4,1.3c0.2,0.4,0.9,0.8,2,1.2
		c2,0.8,3.1,1.8,3.3,3c0.1,1.2,0.2,10.7,0.3,16.4c0,0.9-0.1,1.5-0.4,1.8C-381.2,878.7-381.8,878.8-382.8,878.7z"/>
	<path class="st0" d="M-416.9,850.6c1.3,0.7,2.1,1.5,2.5,2.3s0.6,1.7,0.6,2.6c0.1,13.7,0.2,27.4,0.3,41c0,1.8-0.3,2.8-0.8,3.2
		c-0.6,0.4-1.3,0.5-2.1,0.4c-0.9-0.1-2.2,1.5-2.2,2.2c0,1.1,0.9,2,2.8,2.5c0.6,0.2,1.5,0.3,2.9,0.5c1.4,0.1,5,0.3,6.2,0.6
		c1.6,0.4,2.6,1,3.2,1.1c0.8,0.2,1.5,0.2,2.1-0.1c0.5-0.2,0.8-0.5,0.8-0.9s-0.1-0.8-0.4-1.2s-1.1-0.9-2.4-1.6
		c-1.3-0.7-2.2-1.5-2.6-2.2s-0.6-1.5-0.7-2.3c-0.1-13.6-0.2-27.3-0.3-40.9c0-1.8,0.3-2.9,0.8-3.3c0.6-0.5,1.3-0.7,2.2-0.7
		s1.5-0.1,1.8-0.2c0.3-0.2,0.5-0.6,0.5-1.2c0-1-0.6-1.7-1.9-1.9c-1.2-0.3-2.4-0.4-3.7-0.5c-1.3-0.2-5.3-1.2-6.7-1.8
		s-2.7-1.1-3.7-1.4c-0.5-0.2-1-0.1-1.4,0c-0.4,0.2-0.6,0.4-0.6,0.8c0,0.5,0.1,0.9,0.4,1.3C-419,849.3-418.2,849.9-416.9,850.6z"/>
	<path class="st0" d="M-362.4,908.2c-1.3,0.2-2,0.4-2.2,0.6c-0.2,0.3-0.3,0.6-0.3,0.9c0,1.2,1,1.9,2.9,2c0.7,0,1.7,0,3.1-0.2
		s4.9-0.1,6.3,0.1c1.4,0.2,2.5,0.4,3.2,0.4c1.6,0,2.4-0.5,2.4-1.5c0-0.5-0.1-0.9-0.4-1.2c-0.3-0.4-1-0.7-2.2-1
		c-1.2-0.3-2-0.8-2.3-1.3c-0.4-0.6-0.5-1.2-0.5-2c-0.1-13.4-0.2-26.9-0.3-40.3c0-1.7,0.2-3,0.7-3.9s1.2-1.4,2.2-1.6
		c1-0.2,1.7-0.4,2.1-0.7c0.3-0.2,0.5-0.7,0.5-1.3c0-1.1-0.7-1.6-2-1.6c-0.8,0-1.9,0.1-3.4,0.4c-1.5,0.2-5.5,0.2-7.2-0.1
		c-1.6-0.3-2.9-0.5-3.7-0.5c-0.5,0-0.9,0.1-1.2,0.3s-0.5,0.6-0.5,1c0,0.7,0.2,1.2,0.5,1.4c0.4,0.3,1,0.6,1.9,0.9s1.7,0.7,2.3,1.3
		c0.6,0.6,0.9,1.6,0.9,3.1c0.1,13.4,0.2,26.8,0.3,40.3c0,1.1-0.2,2.1-0.6,3C-360.3,907.5-361.1,908-362.4,908.2z"/>
	<path class="st0" d="M-343.7,906.5c0,1.5,1.7,2.8,5.1,4c3.4,1.2,6.7,1.7,9.9,1.4c4.5-0.3,8.7-2.1,12.5-5.2
		c3.8-3.1,5.7-7.2,5.6-12.1c0-3.5-1.2-6.6-3.6-9.4c-2.4-2.8-7.1-6.4-14.2-10.8c-3.7-2.4-6-4.2-6.9-5.5s-1.4-2.6-1.4-3.9
		c0-1.9,1-3.6,3-5.3s4.4-2.6,7.2-2.8c2.5-0.2,4.6,0.3,6.3,1.5s2.6,3,2.6,5.6c0,0.5,0.2,0.9,0.6,1.2c0.4,0.4,0.8,0.5,1.2,0.5
		c1.2-0.1,1.8-1,1.7-2.7c-0.1-0.7-0.2-1.2-0.2-1.5c0-1,0-1.7,0-2.2s0-0.9,0-1.1c0-1.7-1.4-2.9-4.3-3.9s-5.5-1.3-8-1.2
		c-4.4,0.3-8.2,1.8-11.6,4.4c-3.3,2.6-5,5.7-5,9.4c0,2.3,0.5,4.3,1.6,6.1c1,1.8,2.3,3.2,3.9,4.5c1.5,1.2,3.6,2.7,6.3,4.4
		c6.5,4.1,10.4,7.1,12,9c1.5,2,2.3,3.9,2.3,5.7c0,3.1-1.1,5.7-3.3,7.9c-2.2,2.1-5.1,3.3-8.5,3.6c-3.4,0.2-6.1-0.5-8-2.2
		c-1.9-1.7-3.1-4.1-3.4-7.2c-0.2-1.9-0.9-2.8-2.1-2.8c-1.1,0-1.7,0.5-1.7,1.5c0,0.2,0.1,0.7,0.1,1.5c0.1,0.7,0.1,1.4,0.2,1.9
		c0,1.5,0,2.8-0.1,3.8C-343.7,905.5-343.7,906.2-343.7,906.5z"/>
	<path class="st0" d="M-282.9,852.7c1.2-0.2,2.4-0.1,3.4,0.2c1.1,0.3,1.9,1.2,2.4,2.5s1,2.1,1.3,2.3c0.3,0.2,0.6,0.2,1,0.2
		c1-0.2,1.5-1,1.5-2.6s-0.3-3.3-0.9-5c-0.6-1.8-1.3-2.6-2.2-2.4c-9.1,1.4-18.3,2.8-27.4,3.9c-1,0.1-1.9,0.2-2.9,0.3
		c-0.9,0.1-1.6,1-2.1,2.6c-0.5,1.7-0.7,3.9-0.7,6.7c0,0.3,0.2,0.6,0.6,0.8c0.4,0.2,0.8,0.2,1.2,0.2s0.7-0.2,1-0.5s0.5-1,0.8-2.2
		c0.2-1.2,0.7-2.2,1.2-2.8c0.9-1.1,2.5-1.8,4.7-2.1c3.4-0.4,5.1,0.6,5.1,3.1c0.1,13.9,0.2,27.8,0.3,41.6c0,0.9-0.2,1.8-0.6,2.5
		c-0.4,0.8-1.2,1.4-2.3,1.9c-1.2,0.5-1.8,0.9-2,1.2c-0.2,0.3-0.3,0.6-0.3,0.9c0,0.7,0.3,1.1,0.9,1.4c0.6,0.3,1.3,0.4,2.1,0.3
		c0.7-0.1,7.7-1.5,9.2-1.5s2.6,0,3.4-0.2c1.4-0.2,2.1-1,2.1-2.3c0-0.3-0.1-0.6-0.4-0.8s-1-0.4-2.2-0.6s-2-0.5-2.4-0.9
		s-0.6-0.9-0.6-1.6c-0.1-13.7-0.2-27.5-0.3-41.2c0-1.8,0.4-3.2,1.2-4.2C-285.9,853.6-284.6,853-282.9,852.7z"/>
	<path class="st0" d="M-243,841.3c-5.8,0.9-10.9,3.1-15.4,6.4c-4.4,3.3-7.8,7.5-10.2,12.4s-3.6,9.7-3.6,14.3
		c0.1,8.9,2.9,15.7,8.4,20.6c5.5,4.9,12.4,6.6,20.7,5.2c5.1-0.8,9.9-2.6,14.4-5.2c4.5-2.6,8.2-6.5,10.9-11.6
		c2.8-5.1,4.1-10.6,4.1-16.3c-0.1-7.7-2.7-14.4-7.9-19.9C-226.7,841.9-233.9,839.8-243,841.3z M-223.6,882.4c-1.4,3.4-3.7,6.4-6.9,9
		c-3.2,2.7-7.3,4.4-12.2,5.2c-14.1,2.3-21.2-5.5-21.3-23.4c-0.1-6.7,1.8-12.9,5.5-18.4c3.7-5.5,8.9-8.9,15.6-9.9
		c6.5-1,11.6,0.5,15.5,4.8c3.8,4.2,5.8,10.9,5.8,19.9C-221.6,874.7-222.3,879-223.6,882.4z"/>
	<path class="st0" d="M-192.2,859.4c-0.6,0.1-1.2,0.1-1.7,0c-0.6,0-1,0-1.1,0c-1.3,0.1-2,0.8-2,1.9c0,0.5,0.1,0.8,0.2,0.9
		c0.1,0.1,0.3,0.2,0.7,0.3c1.4,0.4,2.7,1.6,4.2,3.5c0.4,0.5,1.9,2.8,4.6,6.9c5.7,8.8,11.7,16.5,13.5,17.3c1.7,0.8,3.2,1.2,4.4,1.2
		c0.5,0,1.1-0.3,1.9-0.7s1.2-1,1.2-1.6c0-0.5-0.2-0.9-0.5-1.2c-0.3-0.4-1-0.7-2.1-1.1c-1.1-0.3-4.5-4.7-8.5-11.2s-6.7-10.6-8.2-12.6
		c-0.3-0.4-0.5-0.8-0.5-1c0-0.3,0.4-0.6,1.1-1c4-1.9,6.8-3.7,8.5-5.7c1.7-2,2.4-4.3,2.4-7.1c0-4.4-1.7-7.9-5.1-10.4
		c-3.4-2.5-7.7-3.6-13-3.1c-1.4,0.1-3.4,0.5-6,1.2c-2.6,0.6-4.2,1-4.7,1.1c-0.9,0.1-1.9,0.1-3.1,0.1s-2.3,0-3.3,0.1
		c-2.1,0.3-3.2,1-3.2,2.2c0,1.1,0.9,1.6,2.8,1.5c2.7-0.2,4.1,0.7,4.1,2.7c0.1,14.8,0.2,29.5,0.3,44.3c0,0.6-0.3,1.1-0.9,1.6
		s-1.4,0.8-2.3,0.9c-1.6,0.2-2.5,0.5-2.9,0.8c-0.4,0.3-0.6,0.8-0.6,1.3c0,1.5,1.2,2.1,3.6,1.8c0.8-0.1,12.9-1.4,13.9-1.5
		c1.1-0.1,1.9-0.4,2.5-0.9s0.8-1,0.8-1.6s-0.2-1.1-0.7-1.4c-0.4-0.3-1.3-0.4-2.6-0.2c-1.2,0.1-2.2,0-2.9-0.5c-0.7-0.5-1.1-1.1-1.1-2
		c-0.1-14.5-0.2-29-0.3-43.6c0-0.8,0.1-1.4,0.2-1.9c0.2-0.5,0.6-0.9,1.2-1.3c0.7-0.4,1.7-0.7,3.1-0.8c3.8-0.4,6.8,0.5,9,2.6
		s3.3,4.4,3.3,6.7c0,3.3-0.9,5.9-2.8,7.9C-186.9,858-189.3,859.2-192.2,859.4z"/>
	<path class="st0" d="M-163,887.1c-1.3,0.2-2,0.5-2.2,0.8s-0.3,0.6-0.3,0.9c0,1.2,1,1.8,2.9,1.8c0.7,0,11.8,0.2,12.6,0.2
		c1.6,0,2.4-0.4,2.4-1.3c0-0.5-0.1-0.9-0.4-1.3c-0.3-0.4-1-0.7-2.2-1.1s-2-0.8-2.3-1.4c-0.4-0.6-0.5-1.3-0.5-2
		c-0.1-13.4-0.2-26.9-0.3-40.3c0-1.7,0.2-3,0.7-3.9s1.2-1.4,2.2-1.6c1-0.2,1.7-0.4,2.1-0.6c0.3-0.2,0.5-0.7,0.5-1.3
		c0-1.1-0.7-1.6-2-1.7c-0.8,0-1.9,0.1-3.4,0.3s-5.5,0.2-7.2-0.1c-1.6-0.2-2.8-0.4-3.7-0.3c-0.5,0-0.9,0.1-1.2,0.4
		c-0.3,0.3-0.5,0.6-0.5,1c0,0.7,0.2,1.2,0.5,1.4c0.4,0.3,1,0.5,1.9,0.8c0.9,0.3,1.7,0.7,2.3,1.2c0.6,0.5,0.9,1.6,0.9,3.1
		c0.1,13.4,0.2,26.8,0.3,40.3c0,1.1-0.2,2.1-0.6,3C-161,886.3-161.8,886.9-163,887.1z"/>
	<path class="st0" d="M-141.6,876.5c2.4,4.9,5.9,8.8,10.4,11.9c4.5,3.1,9.8,5.1,15.8,6.1c3.8,0.7,7.3,0.7,10.7,0
		c3.4-0.6,6.1-1.6,8.1-3.1c2.1-1.4,3.1-2.6,3.1-3.5c0-0.2-0.1-0.5-0.4-0.9c-0.3-0.4-0.6-0.6-1-0.7c-0.4-0.1-1,0.1-1.8,0.6
		c-3.5,2.3-7.1,3.6-10.7,4s-6.3,0.4-7.9,0.1c-6.6-1.1-11.8-4.1-15.7-9.2c-3.9-5.1-5.9-11.5-5.9-19.6c-0.1-7.4,1.7-13.3,5.2-17.6
		s8.5-6.1,14.9-5c5,0.8,8.9,2.9,11.7,5.9c1.6,1.7,3.1,4.3,4.5,7.7c0.7,1.6,1.2,2.6,1.5,3c0.3,0.4,0.7,0.6,1,0.7
		c1.1,0.3,1.6,0,1.6-0.9c0-0.5-0.1-1.2-0.3-1.8c-0.2-0.7-0.3-1.2-0.3-1.5c0-0.2,0-0.7,0.1-1.6c0-0.9,0.1-1.9,0.1-2.9
		c0-0.7-0.9-2-2.7-3.8s-4.2-3.5-7.3-5.2c-3.1-1.6-6.4-2.7-10.1-3.3c-5.7-0.9-10.7-0.3-15,1.8c-4.3,2.1-7.6,5.3-9.9,9.6
		s-3.4,9-3.4,14.1C-145.3,866.7-144,871.7-141.6,876.5z"/>
	<path class="st0" d="M-330,1022.6c0.9-0.7,1.4-1.3,1.4-2s-0.2-1.3-0.7-1.8s-1.8-0.9-4.2-1.4c-2.3-0.5-3.9-1.4-4.7-2.6
		c-0.8-1.2-1.2-2.6-1.2-4.1c-0.2-23.8-0.4-47.6-0.5-71.4c0-3.3,0.5-5.4,1.5-6.5s2.3-1.8,3.9-2.1c1.5-0.4,2.6-0.7,3.1-1.1
		s0.8-1.2,0.8-2.3c0-1.8-1.1-2.6-3.3-2.5c-2,0.1-4.2,0.4-6.4,0.8s-9.2,0.5-11.7,0.2c-2.5-0.4-4.7-0.6-6.5-0.6c-1,0-1.8,0.2-2.4,0.7
		c-0.7,0.5-1,1-1,1.6c0,0.8,0.2,1.5,0.7,2.1c0.4,0.6,1.6,1.2,3.4,1.8c3.5,1,5.4,2.5,5.7,4.6c0.3,2.1,0.4,19.2,0.5,29.2
		c0,1.6-0.2,2.7-0.7,3.2c-0.5,0.6-1.6,0.9-3.4,0.8c-10.8-0.1-21.5-0.8-32.3-2.3c-2.5-0.3-4.1-0.4-5.1,0c-0.9,0.3-1.4,1-1.4,2.1
		s0.4,1.9,1.1,2.6c0.7,0.7,2.3,1.2,4.9,1.6c10,1.4,19.9,2.2,29.9,2.4c3.1,0.1,5.1,0.5,6,1.3c0.9,0.8,1.3,1.9,1.4,3.4
		c0.1,13.6,0.2,16.3,0.3,29.9c0,3.1-0.5,5.1-1.4,6c-1,0.9-2.2,1.5-3.8,1.8c-1.5,0.2-2.6,0.5-3.1,0.9c-0.6,0.4-0.8,1.1-0.8,2.3
		c0,2,1.7,3,4.9,3.1c1,0,20.4-0.3,21.5-0.4C-332.1,1023.7-330.9,1023.3-330,1022.6z"/>
	<path class="st0" d="M-391.7,1014.7c-2.3-1.1-3.9-2.3-4.6-3.6c-0.8-1.3-1.1-2.6-1.1-4c-0.2-23.8-0.4-47.7-0.5-71.5
		c0-3.1,0.5-5.1,1.5-5.9c1-0.8,2.3-1.3,3.8-1.4s2.6-0.3,3.2-0.6s0.8-1,0.8-2.1c0-1.8-1.1-2.8-3.3-3.1c-2-0.3-4.2-0.5-6.4-0.6
		s-9.2-1.6-11.7-2.7c-2.5-1-4.7-1.8-6.5-2.3c-1-0.3-1.8-0.3-2.4,0.1c-0.7,0.3-1,0.8-1,1.3c0,0.8,0.2,1.6,0.7,2.3s1.8,1.7,4.1,3
		c2.2,1.2,3.7,2.5,4.4,4c0.7,1.4,1,2.9,1,4.5c0.2,23.9,0.4,47.9,0.5,71.8c0,3.1-0.5,7-1.4,7.7c-1,0.7-2.2,1-3.7,0.8s-3.9,1-3.9,2.1
		c0,2,1.6,3.7,4.9,4.4c9.9,2,20.4,2.5,21.5,2.7c1.5,0.2,2.6,0.1,3.6-0.4c0.9-0.5,1.4-1,1.4-1.7s-0.3-1.4-0.7-2
		C-388,1016.7-389.4,1015.8-391.7,1014.7z"/>
	<path class="st0" d="M-156.5,985c-0.7-0.7-1.4-1.1-2.1-1.1c-1,0-1.8,0.3-2.4,0.9c-0.7,0.6-1.3,2.2-1.8,4.9s-1.4,4.5-2.6,5.3
		c-1.2,0.8-2.7,1.3-4.4,1.3c-8.4,0.3-16.9,1-25.3,1.8c-2,0.2-3.6-0.3-4.7-1.5c-1.1-1.2-1.6-3.5-1.7-6.9c-0.2-22.7-0.3-45.4-0.5-68
		c0-3.6,0.8-6.2,2.6-7.9c1-1,2.8-1.9,5.4-2.6c2-0.6,3.2-1.2,3.7-1.7c0.5-0.6,0.7-1.2,0.7-2c0-0.9-0.4-1.7-1.2-2.4s-1.7-1-2.8-0.8
		c-1,0.1-3.1,0.8-6.3,2c-3.3,1.3-16.1,3-18.5,2.5s-4-0.7-4.6-0.6c-1,0.1-1.8,0.5-2.4,1.1c-0.7,0.6-1,1.2-1,1.8c0,1,0.3,1.8,0.9,2.4
		c0.6,0.7,2.2,1.2,5,1.7c2.8,0.5,4.6,1.3,5.4,2.5s1.3,2.7,1.3,4.4c0.2,23.8,0.4,47.5,0.5,71.3c0,1.8-0.3,3.4-1.1,4.9
		c-0.7,1.5-2.6,2.5-5.5,3.1c-1.5,0.3-2.7,0.7-3.4,1.1c-0.6,0.4-0.9,1-1,1.9c-0.1-0.3-0.3-0.5-0.6-0.7c-0.6-0.4-1.7-0.7-3.3-1
		s-3-0.8-4.2-1.7c-1.2-0.9-2.7-3-4.5-6.4c-1.8-3.4-6.3-12.3-13.2-26.7c-6.4-13.2-12.8-26.3-19.2-39.5c-2.4-5-4.3-8.4-5.7-10.1
		c-1.4-1.7-3.3-2.4-5.6-2.1c-1.4,0.2-2.1,1-2.1,2.3c0,0.6,0.2,1.6,0.6,3c0.4,1.4,0.6,2.3,0.6,2.9c0,1.6-0.5,3.9-1.7,7
		c-1.1,3.1-3.7,9.3-7.7,18.7c-5.4,13-10.8,26-16.2,38.9c-5.4,13.2-8.8,20.9-10.1,23.1c-1.3,2.2-3.7,3.8-7.2,4.6
		c-1.2,0.3-2,0.6-2.5,1c-0.4,0.4-0.7,1.2-0.7,2.3c0,0.8,0.4,1.5,1.1,2.1c0.7,0.6,1.7,0.8,2.8,0.7c0.8-0.1,12.9-0.6,19.9-2
		c2.7-0.6,4.1-1.6,4.1-3.7c0-0.7-0.3-1.3-0.8-1.7c-0.5-0.5-1.7-0.9-3.7-1.2s-3.2-0.7-3.7-1.2s-0.8-1.1-0.8-1.7
		c0-0.6,0.2-1.4,0.5-2.3c4.1-9.8,8.2-19.7,12.3-29.6c4.8-11.7,9.5-23.5,14.3-35.3c1.1-3.1,1.9-4.6,2.4-4.7s1.1,0.9,2.1,2.8
		c5.1,10.5,10.2,21,15.3,31.5c0.6,1.3,1,2.1,1,2.5c0,0.6-0.8,1-2.4,1.3c-9.7,1.6-19.5,3.1-29.2,4.5c-1,0.1-1.8,0.6-2.5,1.2
		c-0.7,0.7-1.1,1.4-1.1,2.2c0,1,0.5,1.8,1.4,2.4c1,0.6,2,0.9,3.2,0.7c10.1-1.4,20.3-3.1,30.4-4.7c1.8-0.3,3-0.3,3.7-0.1
		c0.6,0.3,2.3,3,4.9,8.4c2.6,5.3,4,8.6,4,9.9c0,1.2-0.3,2.2-1,3.1c-0.7,0.9-2.2,1.7-4.6,2.3s-3.9,1.2-4.4,1.8s-0.8,1.3-0.8,2.1
		c0,0.9,0.5,1.6,1.4,1.9c0.9,0.4,2.1,0.4,3.7,0.2c1-0.2,2.9-0.6,5.6-1.4c2.7-0.8,5.3-1.4,7.8-1.8c2.5-0.4,58.3-6.8,76-7.2
		c3.2-0.1,5.6,0,7.2,0.2c2.4,0.2,3.5-0.9,3.5-3.3c-0.6-4-0.9-7.9-0.9-11.9C-155.4,986.7-155.7,985.7-156.5,985z"/>
	<path class="st0" d="M-90.9,920.7c-0.3-1.5-0.5-3-0.7-4.6c-0.2-1.6-0.6-2.7-1-3.3c-0.4-0.6-1.5-1.2-3.3-1.6
		c-17.5-4.8-35-7.1-52.4-7.7c-1.2,0-2.2,0.2-2.9,0.8c-0.8,0.6-1.1,1.3-1.1,2.1c0,0.9,0.5,1.6,1.3,2.2c0.9,0.6,2.2,0.9,3.8,1
		c2.4,0.1,4.1,0.5,5,1.2c0.9,0.7,1.5,2.2,1.8,4.6c0.3,2.4,0.5,6.8,0.5,13.1c0.2,20.7,0.3,41.5,0.5,62.2c0,1.4-0.4,2.6-1.2,3.6
		s-2.4,1.7-4.8,2.2c-2.4,0.5-3.8,0.9-4.3,1.4c-0.5,0.4-0.7,1-0.7,1.6c0,2.4,1.3,3.2,4.1,3.3c0.8,0,3.3-0.2,6.2-0.2
		c5.2-0.1,11.3,0.7,14,1c2.7,0.3,11.3,2,11.4,0c0-0.9-0.3-1.3-0.8-2.1c-0.6-0.8-2.2-1.8-5-3c-2.8-1.2-4.6-2.5-5.5-4
		c-0.9-1.5-1.4-3.1-1.4-4.8c-0.1-13.5-0.2-22.1-0.3-35.6c0-1.3,0.4-2.3,1.1-2.9c0.8-0.6,2.3-0.7,4.6-0.4c6,0.9,7,1,13,2.4
		c3.9,0.9,5.9,3.1,5.9,6.3c0,1.4,0.3,2.5,0.9,3.5c0.6,0.9,1.3,1.5,2.1,1.8c0.8,0.2,1.4,0.1,1.9-0.4s0.8-1.2,0.8-2.2
		c0-0.4-0.1-1.6-0.4-3.6c-0.2-2-0.3-8.1-0.2-9.9c0.1-1.8,0.2-3.1,0.2-4.1s-0.3-1.9-0.8-2.6c-0.6-0.7-1.2-1.2-2-1.4
		c-0.7-0.2-1.3-0.1-1.8,0.2s-0.7,0.9-0.7,1.7c0,1.6-0.4,2.9-1.1,3.9c-0.8,1-1.9,1.3-3.3,1c-6-1.4-7.1-1.6-13.1-2.5
		c-3.3-0.5-5.4-1.4-6.3-2.8c-0.9-1.4-1.3-8.6-1.3-11.6c0-4.8-0.1-9.6-0.1-14.4c0-1.8,0.5-3,1.5-3.8s3.1-1,6.3-0.5
		c6.2,0.9,12.4,2.1,18.7,3.6c0.9,0.2,1.7,0.7,2.5,1.6c0.8,0.8,1.5,2.4,2.3,4.7s1.4,3.8,1.9,4.4s1,1,1.5,1.1c2.2,0.6,3.3-0.4,3.3-3.1
		C-90.5,923.3-90.6,922.1-90.9,920.7z"/>
	<path class="st0" d="M-379.4,812.1c0.6,0.2,1,0.5,1.3,0.9c0.3,0.4,0.5,0.8,0.5,1.3c0.3,6.2,0.5,12.3,0.8,18.5
		c0.1,1.4-0.5,1.9-1.6,1.7c-0.4-0.1-0.7,0-0.9,0.1c-0.3,0.1-0.4,0.3-0.4,0.5s0.1,0.4,0.4,0.7c0.2,0.2,0.6,0.4,0.9,0.5
		c0.3,0,0.7,0,1.3,0c0.6,0,1.1,0,1.4,0c0.3,0,0.7,0.2,1.4,0.4c0.7,0.2,1.1,0.3,1.2,0.4c0.9,0.1,1.3-0.1,1.2-0.6
		c0-0.6-0.5-0.9-1.5-1.1c-0.4,0-0.7-0.2-1.1-0.6c-0.4-0.3-0.6-0.7-0.6-1.2c-0.2-5-0.4-10-0.6-15c0-0.6,0-0.9,0-0.9
		c0.1,0,0.3,0.3,0.6,1c2.4,4.7,4.8,9.3,7.1,14c0.3,0.5,0.5,0.7,0.8,0.8c0.2,0,0.3,0,0.4-0.1s0.1-0.2,0.2-0.3c0.1-0.1,0.5-1,1.4-2.6
		c0.9-1.6,1.8-3.5,2.8-5.7c0.8-1.7,1.7-3.4,2.5-5.1c0.3-0.6,0.5-0.9,0.6-0.9s0.1,0.3,0.1,1c0.2,5,0.4,10.1,0.7,15.1
		c0,0.8,0,1.4-0.3,1.6c-0.2,0.2-0.7,0.3-1.6,0.4c-0.4,0-0.6,0.1-0.8,0.1c-0.2,0.1-0.2,0.3-0.2,0.5c0,0.6,0.4,0.9,1.2,0.9
		c0.4,0,1,0,1.8,0c0.8-0.1,1.4-0.1,1.7-0.1c0.5,0,1.1,0.1,1.8,0.3s1.2,0.2,1.5,0.2s0.6,0,0.8-0.2c0.1,0,0.1-0.1,0.1-0.1
		c0,0.1,0.1,0.1,0.2,0.2c0.2,0.2,0.4,0.3,0.7,0.3c0.2,0,0.5,0,1-0.1s0.9-0.1,1.3-0.1s1,0.1,1.6,0.2c0.6,0.1,1,0.2,1.2,0.2
		c0.7,0,1-0.3,1-0.8c0-0.2-0.1-0.3-0.2-0.5c-0.1-0.1-0.5-0.3-1-0.4s-0.8-0.3-1-0.4c-0.1-0.1-0.2-0.3-0.2-0.5s0-0.4,0.1-0.6
		c1-2.4,1.9-4.8,2.9-7.2c1.1-2.9,2.2-5.7,3.4-8.6c0.3-0.8,0.5-1.1,0.6-1.1c0.1,0,0.3,0.3,0.6,0.8c1.4,2.9,2.8,5.8,4.3,8.7
		c0.2,0.4,0.3,0.6,0.3,0.7c0,0.2-0.2,0.2-0.6,0.2c-2.5,0.1-5,0.1-7.6,0.1c-0.2,0-0.5,0.1-0.6,0.2c-0.2,0.2-0.3,0.3-0.3,0.5
		c0,0.3,0.1,0.5,0.4,0.7s0.5,0.3,0.8,0.3c2.6,0,5.2,0,7.8-0.1c0.5,0,0.8,0,1,0.1s0.6,0.9,1.3,2.3c0.7,1.4,1.1,2.3,1.1,2.7
		c0,0.3-0.1,0.6-0.2,0.8c-0.2,0.2-0.6,0.4-1.2,0.4c-0.6,0.1-1,0.2-1.1,0.3c-0.1,0-0.1,0.2-0.1,0.4s0.1,0.4,0.4,0.6
		c0.2,0.1,0.6,0.2,1,0.2c0.3,0,0.7-0.1,1.4-0.2c0.7-0.1,1.4-0.2,2-0.2c0.6,0,1.3,0,2,0c0.7,0,3.1,0.1,3.9,0c0.4,0,2.8-0.4,3.1-0.5
		c0.4,0,2.7,0.1,3.1,0.1c0.5,0,0.9-0.2,1.1-0.4c0.2-0.2,0.4-0.5,0.3-0.7c0-0.3-0.1-0.5-0.3-0.6c-0.2-0.1-0.6-0.2-1.2-0.1
		c-0.5,0-1,0-1.3-0.3c-0.3-0.2-0.5-0.5-0.5-0.9c-0.3-6.6-0.6-13.1-0.9-19.7c0-0.4,0-0.6,0.1-0.9c0.1-0.2,0.2-0.4,0.5-0.6
		c0.3-0.2,0.8-0.3,1.4-0.3c1.7-0.1,3.1,0.3,4.1,1.2c1,1,1.5,2,1.6,3c0.1,1.5-0.3,2.7-1.1,3.6c-0.8,0.9-1.9,1.4-3.2,1.5
		c-0.3,0-0.5,0-0.8,0c-0.3,0-0.4,0-0.5,0c-0.6,0-0.9,0.3-0.9,0.8c0,0.2,0,0.4,0.1,0.4c0,0.1,0.2,0.1,0.3,0.2
		c0.6,0.2,1.3,0.7,1.9,1.6c0.2,0.2,0.9,1.3,2.2,3.1c2.7,3.9,4.3,6.2,4.8,6.7c0.3,0.3,0.8,0.6,1.6,0.9s1.5,0.5,2,0.4
		c0.2,0,0.5-0.1,0.8-0.4c0.3-0.2,0.5-0.5,0.5-0.7s-0.1-0.4-0.2-0.5c-0.1-0.2-0.5-0.3-1-0.4c-0.5-0.1-0.8-0.2-1-0.4
		c-0.1-0.1-1.1-1.6-3.1-4.4c-1.9-2.8-3.2-4.7-3.9-5.6c-0.2-0.2-0.2-0.3-0.2-0.4c0-0.1,0.2-0.3,0.5-0.5c1.8-0.9,3-1.8,3.7-2.7
		s1-2,1-3.3c-0.1-2-0.9-3.5-2.5-4.6s-3.5-1.5-5.9-1.3c-0.6,0.1-1.5,0.2-2.7,0.5c-1.2,0.3-1.9,0.4-2.1,0.4c-0.4,0-0.9,0-1.4,0
		c-0.6,0-1.1-0.1-1.5,0c-1,0.1-1.4,0.3-1.4,0.9c0,0.5,0.5,0.7,1.3,0.7c1.2,0,1.8,0.4,1.9,1.3c0.3,6.7,0.6,13.3,0.9,20
		c0,0.3-0.1,0.5-0.4,0.7c-0.5,0.4-1.7,0.6-2.3,0.7c-0.6,0.1-2-0.5-2.3-0.8s-0.7-0.9-1.2-1.8s-1.7-3.3-3.7-7.3
		c-1.8-3.6-3.6-7.2-5.3-10.9c-0.7-1.4-1.2-2.3-1.6-2.8c-0.4-0.5-0.9-0.7-1.5-0.7c-0.4,0-0.5,0.2-0.5,0.5c0,0.2,0.1,0.4,0.2,0.8
		c0.1,0.4,0.2,0.6,0.2,0.8c0,0.4-0.1,1-0.4,1.7c-0.3,0.7-0.9,2.3-1.8,4.5c-1.3,3.2-2.6,6.3-3.8,9.5c-1.3,3.2-2.1,5.1-2.4,5.6
		s-0.9,0.8-1.8,1c-0.3,0-0.5,0.1-0.6,0.2c0,0,0,0.1-0.1,0.1c0,0,0,0,0-0.1c-0.1-0.1-0.5-0.3-1.2-0.5c-0.7-0.2-1.1-0.4-1.4-0.8
		c-0.2-0.4-0.4-0.8-0.4-1.3c-0.3-6-0.5-12-0.8-18.1c0-0.6,0-1,0.1-1.1c0.1-0.2,0.3-0.4,0.6-0.7c0.4-0.3,0.8-0.5,1.3-0.5
		c0.6,0,0.9-0.2,0.9-0.6c0-0.5-0.4-0.8-1-0.8c-0.1,0-0.2,0-0.5,0.1c-0.3,0-0.5,0.1-0.7,0.1s-0.5-0.1-0.9-0.1
		c-0.4-0.1-0.7-0.1-0.8-0.1c-0.4,0-0.7,0.1-1,0.3c-0.3,0.2-0.6,0.7-1,1.5c-1.3,2.8-3.6,7.4-7,13.9c-0.1,0.2-0.2,0.4-0.3,0.4
		s-0.2-0.2-0.3-0.5c-1.2-2.4-2.4-4.7-3.6-7.1c-1.4-2.9-2.9-5.8-4.3-8.7c-0.3-0.7-0.6-1.2-0.8-1.5c-0.2-0.3-0.4-0.4-0.7-0.4
		c-0.2,0-0.5,0-0.8,0c-0.3,0-0.6,0.1-0.8,0c-0.2,0-0.5-0.1-0.9-0.3s-0.7-0.3-0.9-0.3s-0.5,0-0.7,0.1c-0.2,0.1-0.3,0.2-0.3,0.4
		c0,0.3,0.1,0.5,0.3,0.7C-380.4,811.7-380,811.9-379.4,812.1z"/>
	<path class="st0" d="M-304.9,812.8c0.4,0.1,0.8,0.2,1,0.4c0.3,0.2,0.4,0.7,0.5,1.3c0.3,6,0.5,12.1,0.8,18.1c0,0.5-0.1,1-0.2,1.4
		c-0.2,0.4-0.5,0.7-1.1,0.9s-0.9,0.3-1,0.4c-0.1,0.1-0.1,0.3-0.1,0.4c0,0.6,0.5,0.8,1.3,0.7c0.3,0,0.8-0.1,1.4-0.3
		c0.6-0.2,1.1-0.3,1.4-0.3c0.3,0,0.8,0,1.4,0c0.6,0,1.1,0,1.4,0c0.7-0.1,1.1-0.3,1.1-0.8c0-0.2-0.1-0.4-0.2-0.5
		c-0.1-0.1-0.5-0.3-1-0.3c-0.6-0.1-0.9-0.2-1.1-0.5c-0.2-0.2-0.3-0.5-0.3-0.9c-0.3-6-0.5-12.1-0.8-18.1c0-0.8,0-1.4,0.2-1.8
		c0.2-0.4,0.5-0.7,1-0.9c0.5-0.1,0.8-0.3,0.9-0.4c0.1-0.1,0.2-0.3,0.2-0.6c0-0.5-0.3-0.7-0.9-0.6c-0.3,0-0.8,0.2-1.5,0.3
		c-0.7,0.2-1.2,0.3-1.5,0.3c-0.4,0-0.9,0.1-1.7,0c-0.7,0-1.3,0-1.6,0c-0.2,0-0.4,0.1-0.5,0.2c-0.2,0.1-0.2,0.3-0.2,0.5
		c0,0.3,0.1,0.5,0.3,0.6C-305.6,812.6-305.3,812.7-304.9,812.8z"/>
	<path class="st0" d="M-296.9,811.6c0.2,0.1,0.6,0.1,1.2,0c0.4-0.1,0.8,0.1,1.1,0.4c0.3,0.3,0.5,0.7,0.5,1.3
		c0.3,6.2,0.5,12.4,0.8,18.6c0,0.6-0.1,1.1-0.5,1.4c-0.3,0.4-0.8,0.6-1.4,0.7c-0.7,0.1-1,0.4-1,0.8c0,0.6,0.3,0.8,0.9,0.7
		c0.2,0,0.6-0.1,1.4-0.3c0.7-0.2,1.2-0.3,1.5-0.4c0.2,0,0.7,0,1.5,0s1.3,0,1.7-0.1c0.4-0.1,0.6-0.1,0.7-0.3c0.1-0.1,0.1-0.3,0.1-0.5
		c0-0.6-0.5-0.9-1.4-0.7c-0.4,0.1-0.8,0-1.2-0.3c-0.4-0.2-0.7-0.6-0.7-1.1c-0.2-5.4-0.5-10.8-0.7-16.1c0-0.4,0.1-0.7,0.2-0.7
		s0.3,0.1,0.4,0.2c5.2,5.8,10.3,11.5,15.5,17.1c0.2,0.3,0.4,0.5,0.6,0.5c0.1,0.1,0.3,0.1,0.5,0.1c0.3,0,0.5-0.3,0.4-0.6
		c0-0.4-0.2-0.9-0.5-1.5s-0.5-1.5-0.5-2.6c-0.3-5.8-0.5-11.6-0.8-17.4c0-0.4,0-0.7,0.1-1c0.1-0.3,0.2-0.5,0.5-0.8
		c0.3-0.2,0.7-0.4,1.3-0.5c0.7-0.1,1-0.4,1-0.8c0-0.6-0.4-0.8-1.1-0.7c-0.3,0-0.7,0.2-1.2,0.3c-0.6,0.2-1,0.3-1.4,0.4
		c-0.3,0-0.8,0.1-1.6,0c-0.8,0-1.3,0-1.4,0c-0.3,0-0.5,0.2-0.7,0.3c-0.2,0.2-0.3,0.4-0.3,0.7c0,0.2,0.1,0.4,0.4,0.5
		c0.3,0.1,0.6,0.1,1,0.1c0.5-0.1,0.9,0,1.3,0.2c0.3,0.2,0.5,0.6,0.6,1.1c0.2,4.7,0.4,9.3,0.6,14c0,0.6-0.1,1-0.3,1
		c-0.1,0-0.2-0.1-0.4-0.2c-2.7-3-5.5-6.1-8.2-9.2c-3.1-3.5-4.9-5.4-5.4-5.9s-1-0.7-1.3-0.7c-0.2,0-0.4,0.1-0.7,0.2s-0.5,0.2-0.7,0.2
		c-0.3,0-0.6,0.1-1.1,0c-0.4,0-0.7,0-0.8,0c-0.6,0.1-0.9,0.4-0.9,0.8C-297.2,811.3-297.1,811.5-296.9,811.6z"/>
	<path class="st0" d="M-272.8,807.9c0.2,0.1,0.6,0.2,1,0.1c0.7-0.1,1.2-0.1,1.4,0c0.2,0.1,0.4,0.5,0.5,1c0.1,0.6,0.2,1.7,0.2,3.4
		c0.2,5.3,0.5,10.7,0.7,16c0,0.6-0.1,1-0.3,1.4c-0.2,0.3-0.8,0.5-1.7,0.7c-0.7,0.1-1,0.4-1,0.9c0,0.3,0.2,0.5,0.6,0.6
		c0.4,0.1,1.1,0.1,2.1-0.1c4.7-0.7,9.5-1.5,14.2-2.2c0.6-0.1,0.9-0.2,1-0.4s0.2-0.5,0.2-1c0-0.2,0-0.5-0.1-1
		c-0.1-0.5-0.1-0.9-0.1-1.3s-0.1-0.7-0.3-0.9s-0.4-0.3-0.7-0.3c-0.3,0-0.5,0.2-0.7,0.5s-0.3,0.7-0.2,1.1c0,0.5-0.1,0.9-0.4,1.3
		c-0.3,0.4-0.7,0.6-1.3,0.7c-2,0.3-4,0.6-6.1,1c-0.7,0.1-1.2,0.1-1.6-0.1c-0.3-0.2-0.5-0.5-0.5-1.1c-0.2-3.7-0.3-7.4-0.5-11.2
		c0-0.3,0.1-0.6,0.4-0.8s0.6-0.4,1-0.4c1.6-0.2,3.1-0.5,4.7-0.7c0.5-0.1,0.9-0.1,1.2,0.1c0.2,0.1,0.4,0.4,0.4,0.9
		c0,0.4,0.1,0.7,0.3,0.8c0.2,0.2,0.4,0.3,0.6,0.2c0.2,0,0.4-0.2,0.6-0.4c0.2-0.2,0.2-0.4,0.2-0.7c0-0.1-0.1-0.4-0.2-0.9
		c-0.1-0.5-0.2-0.9-0.2-1.4c0-0.3,0-0.7,0.1-1.1c0.1-0.5,0.1-0.8,0.1-1.1s-0.1-0.5-0.3-0.6s-0.4-0.2-0.6-0.1c-0.2,0-0.4,0.1-0.6,0.3
		c-0.2,0.2-0.2,0.3-0.2,0.5c0,0.4-0.1,0.7-0.3,1.1c-0.2,0.3-0.5,0.5-0.9,0.6c-1.6,0.2-3.1,0.5-4.7,0.7c-0.7,0.1-1.2,0.1-1.5-0.2
		c-0.2-0.2-0.4-0.8-0.4-1.7c-0.1-1.2-0.1-2.5-0.2-3.7c0-0.5,0.1-0.8,0.3-1.1c0.2-0.3,0.7-0.5,1.5-0.6c1.6-0.3,3.2-0.5,4.8-0.8
		c0.3,0,0.5,0,0.8,0.1c0.2,0.1,0.5,0.4,0.7,1c0.2,0.5,0.4,0.8,0.6,0.9c0.2,0.1,0.4,0.1,0.6,0.1c0.4-0.1,0.6-0.3,0.6-0.8
		c0-1-0.1-1.7-0.2-2.1c-0.1-0.4-0.2-0.7-0.4-0.9c-0.1,0-0.5,0-1,0c-4.5,0.7-9,1.4-13.5,2.1c-0.3,0-0.6,0.2-0.7,0.4
		c-0.2,0.2-0.3,0.4-0.3,0.6C-273.1,807.6-273,807.8-272.8,807.9z"/>
	<path class="st0" d="M-241.3,825.8c2.1,0.9,4.5,1.1,7.2,0.8c1.7-0.2,3.3-0.8,4.8-1.6s2.7-1.8,3.6-2.8c0.9-1,1.3-1.7,1.3-2.1
		c0-0.1-0.1-0.2-0.2-0.3c-0.1-0.1-0.3-0.2-0.5-0.1c-0.2,0-0.5,0.2-0.8,0.6c-1.5,1.7-3.1,2.9-4.7,3.6c-1.6,0.7-2.8,1.1-3.6,1.3
		c-3,0.4-5.4-0.3-7.2-2.1c-1.8-1.8-2.8-4.6-3-8.2c-0.1-3.3,0.5-6.1,2.1-8.5c1.5-2.3,3.7-3.7,6.6-4.1c2.3-0.3,4,0,5.3,0.9
		c0.7,0.5,1.5,1.4,2.1,2.7c0.3,0.6,0.6,1,0.7,1.1c0.2,0.1,0.3,0.2,0.5,0.2c0.5-0.1,0.7-0.3,0.7-0.7c0-0.2-0.1-0.5-0.2-0.8
		c-0.1-0.3-0.2-0.5-0.2-0.6s0-0.3,0-0.7s0-0.8,0-1.3c0-0.3-0.4-0.7-1.3-1.2c-0.8-0.5-1.9-0.9-3.3-1.1c-1.4-0.2-2.9-0.2-4.6,0
		c-2.6,0.4-4.8,1.3-6.7,2.7c-1.9,1.4-3.3,3.2-4.3,5.4s-1.4,4.4-1.3,6.7s0.7,4.4,1.9,6.4C-245,823.5-243.4,824.9-241.3,825.8z"/>
	<path class="st0" d="M-219.9,821.1c2.6,2.3,5.8,3.3,9.5,2.9c2.3-0.2,4.4-0.8,6.5-1.9c2-1,3.6-2.7,4.8-4.9c1.2-2.2,1.7-4.6,1.6-7.2
		c-0.2-3.5-1.5-6.6-3.9-9.2c-2.5-2.6-5.7-3.8-9.8-3.4c-2.6,0.3-4.9,1.1-6.9,2.5s-3.4,3.2-4.5,5.4c-1,2.2-1.5,4.3-1.4,6.4
		C-223.9,815.6-222.5,818.8-219.9,821.1z M-218.2,803.1c1.6-2.4,3.9-3.8,6.9-4.1c2.9-0.3,5.3,0.6,7.1,2.6s2.8,5.1,3,9.2
		c0.1,2.4-0.1,4.3-0.7,5.8s-1.6,2.7-3,3.8s-3.3,1.7-5.5,1.9c-6.4,0.6-9.7-3-10.1-11.1C-220.6,808.2-219.8,805.5-218.2,803.1z"/>
	<path class="st0" d="M-196.4,798.4c1.2,0,1.8,0.5,1.9,1.4c0.3,6.7,0.6,13.4,0.9,20c0,0.3-0.1,0.5-0.4,0.7s-0.6,0.3-1,0.3
		c-0.7,0-1.1,0.1-1.3,0.2c-0.2,0.1-0.2,0.3-0.2,0.6c0,0.7,0.6,1,1.7,0.9c0.4,0,0.9-0.2,1.5-0.4c0.6-0.3,1.1-0.4,1.5-0.4
		c0.4,0,0.9,0.1,1.6,0.3s1.2,0.4,1.7,0.3c0.5,0,0.9-0.1,1.1-0.3c0.2-0.2,0.4-0.4,0.3-0.7c0-0.3-0.1-0.5-0.3-0.7
		c-0.2-0.1-0.6-0.2-1.2-0.2c-0.5,0-1-0.1-1.3-0.3c-0.3-0.2-0.5-0.5-0.5-0.9c-0.3-6.6-0.6-13.1-0.9-19.7c0-0.4,0-0.6,0.1-0.9
		c0.1-0.2,0.2-0.4,0.5-0.6c0.3-0.2,0.8-0.2,1.4-0.3c1.7-0.1,3.1,0.4,4.1,1.5c1,1,1.5,2.1,1.6,3.1c0.1,1.5-0.3,2.7-1.1,3.5
		c-0.8,0.8-1.9,1.3-3.2,1.3c-0.3,0-0.5,0-0.8,0c-0.3,0-0.4,0-0.5,0c-0.6,0-0.9,0.3-0.9,0.8c0,0.2,0,0.4,0.1,0.4
		c0,0.1,0.2,0.1,0.3,0.2c0.6,0.2,1.3,0.8,1.9,1.7c0.2,0.2,0.9,1.3,2.2,3.3c2.7,4.1,4.3,6.5,4.8,7.1c0.3,0.3,0.8,0.6,1.6,1.1
		c0.8,0.4,1.5,0.6,2,0.6c0.2,0,0.5-0.1,0.8-0.3s0.5-0.4,0.5-0.7c0-0.2-0.1-0.4-0.2-0.6c-0.1-0.2-0.5-0.3-1-0.5s-0.8-0.3-1-0.5
		c-0.1-0.1-1.1-1.7-3.1-4.8c-1.9-3-3.2-5-3.9-5.9c-0.2-0.2-0.2-0.4-0.2-0.5s0.2-0.3,0.5-0.4c1.8-0.7,3-1.5,3.7-2.3
		c0.7-0.8,1-1.9,1-3.2c-0.1-2-0.9-3.6-2.5-4.9c-1.6-1.2-3.5-1.8-5.9-1.8c-0.6,0-1.5,0.1-2.7,0.4c-1.2,0.2-1.9,0.3-2.1,0.4
		c-0.4,0-0.9,0-1.4-0.1c-0.6-0.1-1.1-0.1-1.5,0c-1,0.1-1.4,0.3-1.4,0.9C-197.6,798.2-197.2,798.4-196.4,798.4z"/>
	<path class="st0" d="M-175.8,798.1c1.3,0,1.9,0.5,2,1.5c0.3,6.4,0.6,12.7,0.8,19.1c0,0.5-0.1,1-0.3,1.3c-0.2,0.4-0.6,0.6-1.3,0.6
		c-0.7,0-1,0.1-1.1,0.2s-0.2,0.2-0.1,0.4c0,0.6,0.5,0.9,1.5,0.9c0.3,0,0.7-0.1,1.4-0.3s1.2-0.3,1.5-0.3c0.2,0,0.8,0.1,1.6,0.4
		c0.8,0.3,1.4,0.4,1.7,0.4c1,0.1,1.4-0.2,1.4-0.6c0-0.3-0.1-0.5-0.3-0.7c-0.2-0.2-0.6-0.3-1.2-0.3c-1.2-0.1-1.8-0.5-1.8-1.5
		c-0.3-6.2-0.5-12.5-0.8-18.7c0-0.7,0-1.2,0-1.6c0-0.3,0.2-0.6,0.5-0.7c0.3,0,0.7-0.1,1.3,0c1.7,0.1,3.1,0.7,4.2,1.8
		c1.1,1.1,1.6,2.3,1.7,3.6c0.1,1.4-0.3,2.5-1.1,3.2c-0.8,0.7-1.8,1-3.1,1c-0.3,0-0.6,0-0.9-0.1c-0.3,0-0.5-0.1-0.6-0.1
		c-0.3,0-0.5,0-0.6,0.1c-0.2,0.1-0.2,0.2-0.2,0.4c0,0.7,0.6,1,1.8,1.1c2,0.1,3.5-0.1,4.7-0.5c1.2-0.5,2.1-1.1,2.8-1.7
		c0.7-0.7,1-1.7,0.9-3.1c-0.1-1.8-0.9-3.4-2.4-4.8c-1.5-1.4-3.7-2.2-6.5-2.4c-1.1-0.1-2.1,0-2.9,0.1s-1.4,0.2-1.7,0.1
		c-0.4,0-0.9-0.1-1.4-0.2c-0.6-0.1-1.1-0.2-1.5-0.2c-0.8,0-1.2,0.2-1.2,0.7C-177.1,797.8-176.7,798.1-175.8,798.1z"/>
	<path class="st0" d="M-155.5,808.1c0.7,0.7,1.7,1.5,2.9,2.5c3,2.5,4.8,4.3,5.6,5.3c0.7,1.1,1.1,2,1.1,2.9c0.1,1.4-0.4,2.5-1.4,3.2
		s-2.2,1-3.8,0.7c-1.5-0.2-2.8-0.8-3.6-1.7c-0.9-0.9-1.5-2.1-1.7-3.5c-0.1-0.9-0.4-1.4-1-1.4c-0.5-0.1-0.8,0.1-0.7,0.6
		c0,0.1,0,0.3,0.1,0.7c0.1,0.3,0.1,0.6,0.1,0.9c0,0.7,0,1.2,0,1.7s0,0.8,0,0.9c0,0.7,0.8,1.4,2.4,2.2s3.1,1.3,4.5,1.5
		c2,0.3,3.9,0,5.6-1c1.7-0.9,2.5-2.5,2.4-4.8c-0.1-1.6-0.7-3.2-1.8-4.8s-3.3-3.8-6.6-6.5c-1.7-1.4-2.8-2.4-3.2-3.1
		c-0.4-0.7-0.7-1.3-0.7-1.9c0-0.8,0.4-1.6,1.3-2.2c0.9-0.6,2-0.8,3.2-0.6c1.1,0.2,2.1,0.6,2.9,1.3c0.8,0.7,1.2,1.7,1.3,2.8
		c0,0.2,0.1,0.4,0.3,0.6c0.2,0.2,0.4,0.3,0.6,0.4c0.5,0.1,0.8-0.3,0.7-1c-0.1-0.4-0.1-0.6-0.1-0.7c0-0.4,0-0.8,0-1s0-0.4,0-0.5
		c0-0.8-0.7-1.5-2-2.3c-1.3-0.8-2.5-1.2-3.6-1.4c-2-0.3-3.7,0.1-5.2,1s-2.2,2.3-2.1,3.9c0,1,0.3,2,0.8,2.8
		C-156.8,806.6-156.2,807.4-155.5,808.1z"/>
</g>
</svg>
