<?xml version="1.0" encoding="utf-8"?>
<!-- Generator: Adobe Illustrator 19.2.0, SVG Export Plug-In . SVG Version: 6.00 Build 0)  -->
<!DOCTYPE svg PUBLIC "-//W3C//DTD SVG 1.1//EN" "http://www.w3.org/Graphics/SVG/1.1/DTD/svg11.dtd">
<svg version="1.1" id="Layer_2" xmlns="http://www.w3.org/2000/svg" xmlns:xlink="http://www.w3.org/1999/xlink" x="0px" y="0px"
	 viewBox="0 0 674.1 565.5" style="enable-background:new 0 0 674.1 565.5;" xml:space="preserve">
<style type="text/css">
	.st0{fill-rule:evenodd;clip-rule:evenodd;fill:#FED234;}
	.st1{fill:#FED234;}
</style>
<g>
	<path class="st0" d="M446.8,477.1c-21.6-36.3-43.2-72.7-64.9-108.9c-1.2-2.1-1.3-3.5-0.1-5.6c32.2-55.7,64.2-111.4,96.3-167.1
		c20.3-35.3,40.7-70.5,61-105.8c0.4-0.8,0.7-1.6,1.1-2.5c25.9,0,51.8,0,77.7,0c-0.3,4.6-3.5,7.8-5.6,11.4
		c-14.7,25.6-29.5,51.1-44.2,76.7c-26.5,45.9-53,91.8-79.5,137.8c-9.2,15.9-18.5,31.9-27.6,47.8c-1.9,3.4-1.6,6,0.2,9
		c11,18.4,21.6,37,32.5,55.4c9.4,15.9,18.7,31.8,27.9,47.7c0.7,1.2,1.6,2.4,1.2,4c-0.7,1.6-2.2,1.1-3.4,1.1c-22.9,0-45.9,0-68.9,0
		C449.1,478.2,447.7,478.4,446.8,477.1z"/>
	<path class="st0" d="M609.4,476.5c-0.1,2.3-1.9,1.7-3.2,1.7c-23.8,0-47.7,0-71.5,0c-13.7-23-27.4-46-41.1-68.9
		c-8-13.5-16-26.9-24-40.4c-0.9-1.5-1.5-2.6-0.4-4.5c16.9-29,33.6-58.1,50.4-87.1c6.7-11.6,13.5-23.3,20.1-35c1-1.8,2.2-2.5,4.3-2.5
		c23.4,0.1,46.8,0.1,70.2,0c3.2,0,3.2,0.9,1.8,3.3c-20,34.4-39.9,68.9-59.8,103.4c-3.3,5.8-6.6,11.5-10,17.3c-1,1.6-1.2,3-0.2,4.7
		c20.8,35.5,41.5,71,62.3,106.5C608.5,475.5,609,476,609.4,476.5z"/>
	<g>
		<path class="st0" d="M56.2,310.9c7-14.4,14-28.9,20.9-43.3c2.1-4.3,4.2-8.7,6.2-13.1c0.9-2.1,2.1-2.9,4.5-2.9
			c18,0.1,36.1,0.1,54.1,0c2.6,0,3.3,0.9,3.3,3.4c-0.1,73.6,0,147.2,0,220.8c0,0.6-0.1,1.3-0.2,2.2c-1.2,0.1-2.4,0.3-3.5,0.3
			c-19.7,0-39.5-0.1-59.2,0.1c-3.6,0-4.2-1.2-4.2-4.5c0.1-50.2,0-100.4,0.2-150.6c0-3.8-1-5-4.8-4.9c-5.7,0.2-11.5-0.2-17.2-0.4
			C56.2,315.6,56.2,313.2,56.2,310.9z"/>
		<path class="st0" d="M160.3,364.6c0-27.7,0-55.4,0-83.1c0-3.4,0-6.8,0.7-10.1c2.4-12.6,10.6-19.5,24.1-20.5
			c1.7-0.1,3.4-0.1,5.1-0.1c48.4,0,96.7-0.1,145.1,0.1c4.8,0,9.7,0.6,14.2,2.1c11.1,3.7,14.3,13.2,15.5,23.7
			c0.2,1.6,0.1,3.1,0.1,4.7c0,55.6,0,111.1-0.1,166.7c0,4.5-0.7,9.1-2,13.5c-3,10.3-10.2,15.8-20.9,16.6c-2.2,0.2-4.4,0.2-6.7,0.2
			c-48.8,0-97.5,0-146.3,0c-3.1,0-6.3,0-9.4-0.5c-11.1-2.1-17.9-9.8-19.2-21.3c-0.3-3.1-0.4-6.3-0.4-9.4
			C160.3,419.5,160.3,392,160.3,364.6z M312.8,364.6c0-17,0-34,0-51c0-10.8,0-11-11-11c-28.2,0-56.4,0.3-84.7,0.3
			c-4.1,0-4.9,1.3-4.9,5.2c0.1,35.8,0.1,71.6,0.1,107.4c0,10.8,0,11.1,11,11.1c28.5,0,57-0.3,85.5-0.3c3.4,0,4.1-1.3,4.1-4.4
			C312.7,402.8,312.8,383.7,312.8,364.6z"/>
	</g>
	<path class="st1" d="M284,360.1l-2.9,1.3c-0.1,0.1-0.2,0.1-0.2-0.1c-0.1-0.3,0.1-0.7,0.3-0.9l0,0l1.3-0.6c0.1-0.1,0.2-0.2,0.2-0.2
		l-0.4-0.5c0-0.1-0.2-0.1-0.3,0l-2.2,1c-0.1,0.1-0.2,0.1-0.2,0.2c0,0,0.1,0.6,0.1,0.6c0.1,0.3,0,1.1-0.5,1.4c0,0,0,0,0,0
		c0,0,0,0,0,0c-0.1,0.1-0.2,0.2-0.2,0.3l0.5,1c0,0.1,0.3,0.1,0.6,0l4.6-2.2c0.3-0.1,0.4-0.3,0.4-0.4l-0.5-1
		C284.5,360,284.2,360,284,360.1L284,360.1z"/>
	<path class="st1" d="M289.5,381.9c0-0.1,0.1-0.2,0.2-0.2l2.5-1.2c0.1-0.1,0.3-0.1,0.3,0l0.1,0.7c0,0.1-0.1,0.2-0.2,0.2l-2.2,1
		c-0.1,0.1-0.3,0.1-0.3,0L289.5,381.9L289.5,381.9z"/>
	<path class="st1" d="M259.2,338.5c0,0-2.2,1.6-1.9,3c0.1,0.6,1.9,0.6,1.9,0.6l0.4-3.3L259.2,338.5L259.2,338.5z"/>
	<path class="st1" d="M247.1,405.3c0.2,0.1,0.5,0.3,0.6,0.6c0.2,0.8,0.3,0.9,0.5,1c0,0,0.2,0.1,0.2,0.1c0,0,0,0.2,0.1,0.2
		c-0.2,0.1-1.3,0.5-1.8,0.3c-0.2-0.1-0.3-0.3-0.3-0.5l0-0.2c-0.2-0.9-0.3-1.4-0.7-1.6c0,0,0-0.2-0.1-0.2
		C245.8,405,246.5,405,247.1,405.3L247.1,405.3z"/>
	<path class="st1" d="M244.8,405.3c0.2,0.2,0.5,0.4,0.5,0.8c0,0.8,0,0.9,0.2,1.1c0,0,0.2,0.2,0.2,0.2c0,0,0,0.2,0,0.2
		c-0.2,0-1.4,0.2-1.8-0.2c-0.1-0.1-0.2-0.3-0.2-0.5c0,0,0,0,0-0.1l0-0.2c0-0.3,0-0.6,0-0.8c0-0.4-0.1-0.7-0.3-0.9c0,0,0-0.2,0-0.2
		C243.6,404.7,244.3,405,244.8,405.3L244.8,405.3z"/>
	<path class="st1" d="M231.7,375.7c0.2,0,0.4,0,0.6,0.1l0.1,0c0.9,0.7,1.2,0.9,1.7,0.7c0,0,0.1,0.1,0.2,0.1
		c-0.2,0.2-1.2,1.2-1.9,0.8c-0.9-0.6-0.9-0.6-1.4-0.5c0,0-0.1,0-0.1,0c0,0-0.1-0.1-0.2-0.1C230.6,376.7,231.1,375.8,231.7,375.7
		L231.7,375.7z"/>
	<path class="st1" d="M239.9,369c0.3,0.8,1.3,1.3,2.2,0.9c0.3-0.1,0.6-0.4,0.8-0.7c0-0.1,0-0.1,0-0.2c0,0,0,0,0,0
		c-0.7,0.3-1.5,0-1.7-0.6c-0.2-0.6,0.1-1.3,0.9-1.6c0,0,0-0.1,0-0.1c0,0-0.1-0.1-0.1-0.1h0c-0.4-0.1-0.7,0-1,0.1
		C240,367.2,239.5,368.1,239.9,369L239.9,369z M241.2,371.1c-0.3-0.4-0.6-0.4-0.8-0.4c-1.1-0.1-2.1,0.5-2.2,0.5c-0.1,0-0.3,0-0.3,0
		c-1.2-0.5-2.6-1.1-2.7-1.2c0.1-0.3,0.5-0.8,0.5-0.8c0.1-0.1,3.7-5.1,11.5-5c0.9,0,1.2,0,1.8,0.1c-0.1,0.2-0.4,0.6-0.5,0.7
		c-2.5,3.2-4.7,10.1-4.7,10.2C241.5,373.4,242,372.3,241.2,371.1L241.2,371.1z"/>
	<path class="st1" d="M239,402.8c0.3,0.1,0.8,0.6,1.1,1.1c0.1,0.2,0.2,0.4,0.2,0.6c0,0.1,0,0.2,0,0.3c-0.2,0.5-0.3,0.7-0.3,0.8
		c0,0.1,0,0.2,0.1,0.3c0,0,0.1,0.2,0.1,0.3c0,0-0.1,0.2-0.1,0.2c-0.2-0.1-1.3-0.3-1.6-0.9c0-0.1-0.1-0.2-0.1-0.3
		c0-0.1,0-0.2,0.1-0.3l0.1-0.2c0.3-0.6,0.5-1,0.5-1.3c0-0.1,0-0.2-0.1-0.4C239,402.9,239,402.8,239,402.8L239,402.8z"/>
	<path class="st1" d="M237.2,401.3c0.4,0.2,0.8,0.6,0.9,1.1c0.1,0.1,0.1,0.3,0.1,0.5c0,0.1,0,0.3-0.1,0.4c-0.3,0.6-0.4,0.8-0.4,1
		c0,0.1,0,0.2,0,0.3c0,0,0,0.1,0,0.2c0,0-0.1,0.1-0.1,0.2c-0.2-0.1-1.2-0.7-1.3-1.3c0-0.1,0-0.1,0-0.2c0-0.1,0-0.2,0.1-0.3l0,0
		c0.4-0.7,0.7-1,0.7-1.4c0-0.1,0-0.2-0.1-0.3C237.1,401.4,237.2,401.3,237.2,401.3L237.2,401.3z"/>
	<path class="st1" d="M235.7,399.3c0.3,0.2,0.7,0.7,0.8,1.2c0,0.1,0,0.2,0,0.3c0,0.2,0,0.4-0.2,0.5c-0.5,0.7-0.6,0.8-0.6,1.1
		c0,0.1,0,0.1,0,0.2c0,0,0,0.1,0,0.2c0,0-0.1,0.1-0.1,0.2c-0.2-0.1-1.1-0.8-1.1-1.5c0,0,0-0.1,0-0.1c0-0.1,0.1-0.3,0.2-0.4l0,0
		c0.6-0.7,0.9-1,0.9-1.4c0-0.1,0-0.1,0-0.2C235.6,399.5,235.7,399.4,235.7,399.3L235.7,399.3z"/>
	<path class="st1" d="M234.4,397.3c0.1,0.2,0.6,0.9,0.6,1.5c0,0.2-0.1,0.4-0.2,0.6c-0.7,0.7-0.7,0.8-0.7,1.1c0,0,0,0.1,0,0.1
		c0,0,0,0.1,0,0.1c0,0-0.1,0.1-0.2,0.2c-0.2-0.1-0.9-0.8-1-1.3c0,0,0,0,0,0c0-0.2,0.1-0.4,0.2-0.5l0,0c0.7-0.7,1-1,1-1.4
		c0,0,0-0.1,0-0.1C234.3,397.4,234.3,397.3,234.4,397.3L234.4,397.3z"/>
	<path class="st1" d="M233.3,395.1c0.1,0.2,0.5,0.8,0.5,1.4c0,0.3-0.1,0.5-0.3,0.7c-0.8,0.7-0.8,0.8-0.8,1.2c0,0,0,0.1,0,0.1
		c0,0-0.1,0.1-0.2,0.1c-0.2-0.1-0.8-0.8-0.8-1.4c0,0,0,0,0,0c0-0.2,0.1-0.4,0.3-0.5l0,0c0.9-0.7,1.2-0.9,1.2-1.4c0,0,0,0,0-0.1
		C233.1,395.3,233.2,395.2,233.3,395.1L233.3,395.1z"/>
	<path class="st1" d="M228.1,386.3c0-0.4,0.1-1,0.4-1.3c0.2-0.2,0.4-0.3,0.7-0.3l0.1,0c0.9,0,1.2-0.1,1.4-0.4c0,0,0.2,0,0.2,0
		c0,0,0,0,0,0c0,0.3-0.1,1.6-1,1.7l-0.4,0c-0.7,0-0.9,0-1.2,0.5c0,0-0.2,0-0.2,0C228.1,386.4,228.1,386.4,228.1,386.3L228.1,386.3z"
		/>
	<path class="st1" d="M230.8,386.3c0,0.1,0.1,0.4,0.1,0.7c0,0.5-0.1,1.1-0.7,1.2l-0.4,0.1c-0.6,0.2-0.8,0.2-1.1,0.8c0,0-0.2,0-0.2,0
		c0-0.1-0.1-0.5-0.1-0.9c0-0.3,0-0.5,0.2-0.7c0.1-0.2,0.3-0.4,0.6-0.5l0.1,0c0.9-0.2,1.2-0.3,1.3-0.7
		C230.6,386.4,230.7,386.3,230.8,386.3L230.8,386.3z"/>
	<path class="st1" d="M231.5,379.9c0,0,0.2,0,0.2,0.1c-0.1,0.3-0.4,1.6-1.4,1.4l-0.4-0.1c-0.7-0.1-0.9-0.2-1.3,0.3
		c0,0-0.2,0-0.2-0.1c0-0.2,0.2-1.1,0.7-1.4c0.2-0.2,0.5-0.2,0.7-0.2l0.1,0C230.9,380.1,231.2,380.2,231.5,379.9L231.5,379.9z"/>
	<path class="st1" d="M230.9,382c0,0,0.2,0,0.2,0c0,0.3-0.2,1.6-1.2,1.6l-0.4,0c-0.7,0-0.9,0-1.3,0.4c0,0-0.2,0-0.2,0
		c0-0.2,0.1-1.1,0.5-1.5c0.2-0.2,0.4-0.3,0.7-0.2l0.1,0C230.3,382.3,230.6,382.3,230.9,382L230.9,382z"/>
	<path class="st1" d="M231.5,390.8c0.1,0.2,0.2,0.7,0.2,1.1c0,0.4-0.1,0.8-0.4,0.9c-0.9,0.6-0.9,0.6-1.1,1c0,0,0,0.1,0,0.1
		c0,0-0.1,0.1-0.2,0.1c-0.1-0.2-0.6-0.8-0.6-1.4c0-0.1,0-0.1,0-0.2c0-0.2,0.2-0.4,0.4-0.5c0,0,0,0,0,0c1-0.5,1.4-0.7,1.5-1.2
		C231.4,390.9,231.5,390.8,231.5,390.8L231.5,390.8z"/>
	<path class="st1" d="M231,388.6c0,0.1,0.2,0.5,0.2,0.9c0,0.4-0.1,0.8-0.6,1l-0.4,0.1c-0.6,0.2-0.8,0.3-1,0.9c0,0-0.1,0-0.2,0.1
		c-0.1-0.1-0.2-0.6-0.2-1.1c0-0.2,0-0.4,0.1-0.5c0.1-0.2,0.3-0.4,0.5-0.5l0.1,0c0.9-0.3,1.1-0.4,1.2-0.8
		C230.8,388.7,230.9,388.6,231,388.6L231,388.6z"/>
	<path class="st1" d="M232.3,393c0.1,0.2,0.4,0.8,0.4,1.3c0,0.3-0.1,0.6-0.3,0.8c-0.8,0.6-0.9,0.7-0.9,1.1c0,0,0,0.1,0,0.1
		c0,0-0.1,0.1-0.2,0.1c-0.1-0.2-0.7-0.8-0.7-1.4c0,0,0-0.1,0-0.1c0-0.2,0.1-0.4,0.3-0.5l0.1,0c0.9-0.6,1.3-0.8,1.3-1.3
		C232.2,393.1,232.3,393,232.3,393L232.3,393z"/>
	<path class="st1" d="M230.1,377.7c0.2-0.1,0.4-0.1,0.6,0l0,0c1,0.5,1.4,0.6,1.8,0.4c0,0,0.1,0,0.2,0.1c-0.2,0.3-0.9,1.5-1.7,1.2
		c-1-0.4-1.1-0.4-1.5-0.2c0,0-0.1,0-0.1,0c0,0-0.2-0.1-0.2-0.1C229.3,378.9,229.6,377.9,230.1,377.7L230.1,377.7z"/>
	<path class="st1" d="M241,404c0.3,0,0.9,0.4,1.3,0.8c0.2,0.2,0.3,0.5,0.3,0.7c0,0,0,0.1,0,0.1c-0.1,0.4-0.1,0.6-0.1,0.7
		c0,0.2,0,0.3,0.1,0.4c0,0,0.1,0.2,0.1,0.2c0,0,0,0.2,0,0.2c-0.2,0-1.4,0-1.8-0.5c-0.1-0.1-0.1-0.2-0.1-0.4c0-0.1,0-0.1,0-0.2l0-0.2
		c0.1-0.5,0.2-0.9,0.2-1.2c0-0.2-0.1-0.4-0.2-0.6C241,404.2,241,404.1,241,404L241,404z"/>
	<path class="st1" d="M276.6,380.3c-0.1,0-0.2,0-0.1-0.4c0-0.2,0.1-0.2,0.2-0.2c0,0,2.1,0,4.3,0.4c0.3,0.1,0.7,0.2,1.1,0.3
		c0-1.3-0.2-2.6-0.5-3.8c-0.9-0.2-2.9-0.8-3.9-1c-1.5-0.3-4.2-0.5-4.2-0.5c-0.1,0-0.2,0-0.1-0.4c0-0.2,0.1-0.2,0.2-0.2
		c0,0,2.1-0.1,4.3,0.3c0.9,0.1,2.4,0.5,3.4,0.7c-0.4-1.3-0.9-2.5-1.6-3.7c-1-0.3-2.5-0.7-3.2-0.8c-1.5-0.3-4.2-0.5-4.2-0.5
		c-0.1,0-0.2,0-0.1-0.4c0-0.2,0.1-0.2,0.2-0.2c0,0,2.2-0.1,4.4,0.3c0.6,0.1,1.4,0.3,2.2,0.4c-0.9-1.3-1.9-2.4-3-3.4
		c-0.7-0.2-1.5-0.4-2-0.5c-1.5-0.3-4.2-0.6-4.2-0.6c-0.1,0-0.2,0-0.1-0.4c0-0.2,0.1-0.2,0.2-0.2c0,0,2-0.1,4.1,0.2
		c-2.8-1.9-6.3-3-9.9-3c-2.6,0-5.1,0.5-7.3,1.5l0.4,0.5c0.5-0.1,3.6-0.8,3.8-0.8c0.1,0,0.1,0,0.3,0.1c0.1,0,0.1,0,0.2,0
		c0.8-0.1,2-0.2,2.3-0.2c0.1,0,0.6,0.3,0.8,0.4c0,0,0.1,0.1,0,0.1c-0.1,0-2,0.9-2.1,1c-0.1,0.2,0.1,0.5,0.1,0.5
		c0.5,0.3,1.1,0.6,1.5,0.7c0.1,0.1,0.2,0.2,0.9,0.8c0.1,0.1,0.2,0,0.3,0c0.1,0,0.1-0.1,0.1-0.1c0,0-0.1-0.2-0.1-0.2c0,0,0,0,0.1-0.1
		l0.8-0.3c0.1,0,0.1-0.1,0-0.2c-0.1-0.3-0.5-1-0.5-1.1c0.1,0,0.2-0.1,0.4-0.1c0.2,0,0.4,0.1,0.5,0.1c0.6,0.3,3.1,1.6,3.1,1.6
		c-0.1,0-0.5,0.3-0.7,0.3c-0.2,0-0.2-0.1-0.3,0l-2.5,2.5c-0.4,0.4,0.1,0.7-0.2,1.1c0,0.1-0.1,0.1-0.2,0.2c-0.1,0.2-0.5,0.6-0.8,0.9
		c-0.1,0.1-0.1,0.1-0.1,0.2c-0.1,0.1-0.1,0.4,0.1,0.7c0.3,0.4,0.6,0.9,0.8,1.4c0.1,0.2,0.1,0.7,0.1,0.8c0,0.1-0.1,0.3-0.2,0.3
		c-0.3,0-0.7-0.3-0.7-0.4c0,0-0.2-0.3-0.4-0.7c0,0,0-0.2-0.1-0.3c-0.1-0.1-0.4-0.5-0.5-0.6c-0.3-0.2-1.2,0.1-1.5,0.2
		c-0.2-0.1-0.2-0.1-0.3-0.1c-0.8,0.2-1.1,0.3-1.5,0.5c-0.3,0.1-0.3,0.9-0.3,1.5c0,1,0.3,1.7,0.4,1.9c0.1,0,1.5,0,1.6-0.2
		c0.2-0.3,0.2-0.4,0.3-0.5c0.2-0.1,0.4,0,0.7,0c-0.1,0.2-0.1,0.5-0.2,0.8c0,0.2-0.1,0.4,0.2,0.4c0.2,0,0.4,0,0.6,0
		c0.1,0.2,0.2,0.6,0.3,0.9c0,0.3,1.1,0,1.2,0c0.2,0,0.7-0.1,0.9-0.4c0.3-0.6,0.5-0.7,1.1-0.7c0.2,0,2.3,0,3,0.3
		c0.5,0.2,3.6,2,3.9,2.3c0.7,0.5,0.7,0.5,0.8,0.9c0,0.1,0.2,0.2,0.5,0.5c0.2-0.1,0.4,0,0.6,0.1c0.3,0.1,1.5,1.3,1.7,1.5
		c0.1,0.1,0.4,0.3,0.2,0.6l-2.5,3.7c-0.3,0.4-0.9,0.7-1.1,0.7l-1.8,2.5c-0.1,0.1-0.4,0.1-0.6,0.1l-3.3,4.7c-0.8-0.3-0.8-1-0.3-3.1
		c-0.1-0.1-0.2-0.3-0.2-0.5c0.3-1.7,0.6-3.3,0.7-4c0.1-1.2-0.3-1.3-1.1-1.7c-2.1-1-2-1.3-2.6-2.6c0-0.1-0.1-0.2-0.1-0.3
		c0.1-0.5,0.8-2.1,0.6-2.5c0-0.1-0.4-0.7-0.5-0.8c-0.1-0.1-0.2-0.2-0.5-0.2c-0.5,0.1-0.6,0.1-1.1,0.2c-0.4,0-0.4-0.2-0.5-0.5
		c0-0.3,0-0.4-0.3-0.5c-0.3-0.2-0.7-0.3-1.4-0.5c-0.5-0.2-0.6,0-0.8,0.1c-0.6-0.2-1.8-0.6-2.6-1c-0.6-0.1-0.4-1-0.8-1.5l-1.3-1.6
		c-0.2-0.3-0.7-0.1-0.8,0c0.1,0.1,1.1,1.9,1.2,2c-0.1,0-0.4,0.2-0.5,0.2c-0.1,0-0.2-0.1-0.3-0.2c-1-1.1-3.2-2.9-3.5-3.3
		c-0.2-0.3-0.2-0.5-0.5-2c-0.2-1.2,0.2-1.6,0.7-2.3c0.1-0.1,0.1-0.2,0.1-0.3c0-0.1,0-0.3,0-0.4l-0.2-1.5c-1.1,0.9-2,1.9-2.9,3
		c0.9,0,1.5,0,1.5,0c0.2,0,0.2,0.1,0.2,0.2c0.1,0.3,0,0.3-0.1,0.4c0,0-1.2,0.2-2.4,0.5c-0.7,1.1-1.3,2.3-1.8,3.6
		c0.2,0,0.4-0.1,0.6-0.1c2.1-0.4,4.3-0.2,4.3-0.2c0.2,0,0.2,0.1,0.2,0.2c0.1,0.3,0,0.3-0.1,0.4c0,0-2.6,0.2-4.2,0.5
		c-0.3,0.1-0.8,0.2-1.2,0.3c-0.3,1.2-0.6,2.6-0.6,3.9c0.9-0.2,2.8-0.5,3.8-0.7c2.1-0.3,4.3-0.1,4.3-0.1c0.2,0,0.2,0.1,0.2,0.2
		c0,0.3,0,0.3-0.1,0.3c0,0-2.7,0-4.2,0.3c-1,0.2-3.2,0.7-4,0.9c0,1.3,0.2,2.6,0.4,3.8c1-0.2,2.6-0.5,3.5-0.6
		c2.1-0.3,4.3-0.1,4.3-0.1c0.2,0,0.2,0.1,0.2,0.3c0,0.3,0,0.3-0.1,0.3c0,0-2.6,0-4.2,0.3c-0.9,0.2-2.6,0.6-3.5,0.8
		c0.4,1.4,1,2.8,1.7,4.1c0.9-0.2,2-0.4,2.7-0.5c2.1-0.3,4.3-0.1,4.3-0.1c0.2,0,0.2,0.1,0.2,0.3c0,0.3,0,0.3-0.1,0.3
		c0,0-2.7,0.1-4.2,0.4c-0.6,0.1-1.5,0.3-2.3,0.5c1,1.5,2.1,2.8,3.5,3.9c0.4-0.1,0.7-0.1,0.9-0.2c2.1-0.3,4.3-0.2,4.3-0.2
		c0.1,0,0.2,0,0.2,0.3c0,0.3,0,0.3-0.1,0.4c0,0-2.7,0.3-4.2,0.5c0,0,0,0-0.1,0c3,2.1,6.6,3.4,10.6,3.4c3.7,0,7.2-1.1,10-3
		c-1.5-0.3-3.7-0.7-3.7-0.7c-0.1,0-0.2-0.1-0.1-0.4c0-0.2,0.1-0.2,0.2-0.2c0,0,2.1-0.1,4.3,0.4c0.1,0,0.2,0.1,0.4,0.1
		c1.4-1.1,2.6-2.4,3.6-3.8c-1.5-0.4-4.1-0.9-4.1-0.9c-0.1,0-0.2-0.1-0.1-0.4c0-0.2,0.1-0.2,0.2-0.2c0,0,2.1,0,4.2,0.5
		c0.1,0,0.2,0,0.3,0.1c0.8-1.3,1.4-2.6,1.9-4c-1.3-0.3-2.7-0.7-2.7-0.7c-0.1,0-0.2-0.1-0.1-0.4c0-0.2,0.1-0.2,0.2-0.2
		c0,0,1.3,0,2.9,0.3c0.3-1.2,0.5-2.5,0.6-3.8c-0.5-0.2-1-0.3-1.4-0.4C279.2,380.7,276.6,380.3,276.6,380.3L276.6,380.3z"/>
	<path class="st1" d="M232.6,375.1c0.4,0,0.5,0.1,1.2,0.7c0.2,0.2,0.6,0.3,0.8,0.2c0.2,0,0.3-0.1,0.5-0.1c0.1-0.2,0.2-0.5,0.3-0.7
		c-0.3-0.1-0.6-0.4-1.1-1l0,0c-0.1-0.1-0.3-0.2-0.4-0.2c-0.6,0-1.4,0.7-1.6,0.9c0,0,0.1,0.1,0.2,0.2
		C232.5,375.1,232.6,375.1,232.6,375.1L232.6,375.1z"/>
	<path class="st1" d="M292.9,378c0-0.1-0.3-0.1-0.6,0l-1.6,0.8c0,0-0.1-0.1-0.1-0.2c-0.1-0.2-0.1-0.6,0.7-0.9l0.5-0.2l-0.9-2
		c-0.4,0-1.7-0.2-2.2-0.9l-0.4-0.1c-0.1,0-1.1-0.3-1.7-1l-0.6-0.2c-0.5-0.2-1.3-0.6-1.7-1.2l-0.2,0c-0.6,0-1.3-0.3-1.8-0.8l-0.4,0
		c-0.4,0-0.9-0.1-1.4-0.4l-0.2,0.1c0.8,1.3,1.5,2.8,2,4.3l2.7-1.3l2.9,6.3l-0.1,0c-0.3,0.1-0.4,0.3-0.4,0.4l0.5,1
		c0,0.1,0.3,0.1,0.6,0l4.6-2.2c0.3-0.1,0.4-0.3,0.4-0.4L292.9,378L292.9,378z"/>
	<path class="st1" d="M281.3,367.7c0.1,0.1,0.2,0.3,0.2,0.5c0,0,0,0.1,0,0.1l0,0.2c0,0.4-0.1,0.7-0.1,0.9c0,0.3,0.1,0.6,0.3,0.8
		c0,0,0,0.2,0,0.2c-0.3,0-1-0.3-1.4-0.7c-0.2-0.2-0.4-0.5-0.4-0.8c0,0,0,0,0,0c0-0.2,0-0.3,0-0.4c0-0.4,0-0.5-0.2-0.7
		c0,0-0.2-0.2-0.2-0.2c0,0,0-0.2,0-0.2C279.7,367.4,280.9,367.3,281.3,367.7L281.3,367.7z"/>
	<path class="st1" d="M282.2,368c0.2,0,1.3,0.2,1.7,0.7c0.1,0.1,0.1,0.2,0.1,0.3c0,0,0,0.1,0,0.1l0,0c-0.1,0.5-0.2,0.9-0.2,1.2
		c0,0.3,0.1,0.4,0.2,0.6c0,0,0,0.2,0,0.2c-0.4,0-0.9-0.3-1.3-0.7c-0.2-0.2-0.3-0.4-0.3-0.7c0,0,0-0.1,0-0.1c0-0.3,0.1-0.6,0.1-0.7
		c0-0.3-0.1-0.4-0.2-0.6c0,0-0.1-0.1-0.1-0.2C282.2,368.2,282.2,368,282.2,368L282.2,368z"/>
	<path class="st1" d="M284.7,369.1c0.2,0,1.2,0.2,1.5,0.7c0.1,0.1,0.1,0.2,0.1,0.4c0,0.1,0,0.1,0,0.2l0,0c-0.2,0.7-0.3,1.1-0.3,1.4
		c0,0.2,0.1,0.4,0.2,0.5c0,0,0,0.1,0,0.2c-0.3-0.1-1.4-0.6-1.4-1.4c0-0.1,0-0.1,0-0.2c0.1-0.5,0.2-0.8,0.2-1c0-0.2-0.1-0.3-0.2-0.5
		c0,0,0-0.1-0.1-0.1C284.7,369.3,284.7,369.2,284.7,369.1L284.7,369.1z"/>
	<path class="st1" d="M287,370.2c0.2,0,1.1,0.2,1.4,0.8c0.1,0.1,0.1,0.3,0.1,0.5c0,0.1,0,0.2,0,0.3l0,0.1c-0.2,0.6-0.3,0.9-0.3,1.1
		c0,0.2,0.1,0.3,0.2,0.4c0,0-0.1,0.2-0.1,0.2c-0.2-0.1-1-0.3-1.3-0.8c-0.1-0.1-0.1-0.3-0.1-0.4c0-0.1,0-0.2,0-0.3l0.1-0.4
		c0.1-0.3,0.2-0.5,0.2-0.7c0-0.2-0.1-0.4-0.3-0.6C287,370.4,287,370.3,287,370.2L287,370.2z"/>
	<path class="st1" d="M289.3,371.3c0.3,0.1,0.9,0.5,1.2,0.9c0.1,0.2,0.3,0.4,0.3,0.7c0,0.1,0,0.1,0,0.2c-0.1,0.4-0.1,0.6-0.1,0.8
		c0,0.1,0,0.2,0.1,0.3c0,0,0.1,0.2,0.1,0.2c0,0,0,0.2-0.1,0.2c-0.2,0-1.4-0.1-1.7-0.6c-0.1-0.1-0.1-0.2-0.1-0.4c0-0.1,0-0.2,0-0.2
		l0.1-0.2c0.2-0.6,0.3-0.9,0.3-1.2c0-0.2-0.1-0.3-0.2-0.5C289.3,371.5,289.3,371.3,289.3,371.3L289.3,371.3z"/>
	<path class="st1" d="M294.1,374c0.1,0.2,0.2,0.4,0.3,0.7l0.1,0.2c0.1,0.2,0.2,0.4,0.4,0.4c0.6,0.2,1.6-0.5,1.7-0.6c0,0,0,0,0,0
		C295.8,374.6,294.9,374.4,294.1,374L294.1,374z"/>
	<path class="st1" d="M293.5,374.7c-0.2-0.2-0.2-0.3-0.3-1.1c-0.7-0.4-1.3-0.8-1.8-1.4c0,0-0.1,0-0.1,0c0,0.1,0,0.2,0,0.2
		c0.3,0.2,0.3,0.5,0.3,1c0,0.2,0,0.4,0,0.7l0,0.2c0,0,0,0,0,0c0,0.2,0.1,0.4,0.2,0.5c0.5,0.4,1.6,0.2,1.8,0.2c0-0.1,0-0.2,0-0.2
		C293.7,374.9,293.5,374.7,293.5,374.7L293.5,374.7z"/>
	<path class="st1" d="M279.1,369.3c0-0.2,0-0.4-0.1-0.6l-0.1-0.7c0-0.2-0.1-0.4-0.3-0.5c-0.3-0.2-0.8-0.1-1.2,0
		C278,368,278.5,368.6,279.1,369.3L279.1,369.3z"/>
	<path class="st1" d="M296.9,366.7c0.1,0.2,0.5,0.9,0.5,1.5c0,0.1,0,0.2-0.1,0.3c-0.1,0.2-0.2,0.3-0.5,0.4l-0.2,0.1
		c-0.9,0.3-1.3,0.4-1.5,0.8c0,0-0.1,0.1-0.2,0.1c0-0.1-0.1-0.3-0.1-0.6c0-0.3,0-0.7,0.2-1c0.1-0.2,0.3-0.6,0.6-0.7
		c0.8-0.3,0.8-0.3,0.9-0.6c0,0,0.1-0.2,0.1-0.2C296.7,366.7,296.8,366.7,296.9,366.7L296.9,366.7z"/>
	<path class="st1" d="M299.7,365.3c0.1,0.2,0.7,0.9,0.7,1.5c0,0.1,0,0.1,0,0.2c-0.1,0.2-0.2,0.3-0.4,0.4l-0.2,0.1
		c-0.9,0.4-1.3,0.5-1.4,1c0,0-0.1,0.1-0.2,0.1c-0.1-0.2-0.2-0.5-0.2-0.9c0-0.2,0-0.4,0.1-0.6c0.1-0.3,0.2-0.6,0.5-0.7
		c0.7-0.4,0.8-0.4,0.9-0.7c0,0,0.1-0.2,0.1-0.2C299.5,365.4,299.6,365.4,299.7,365.3L299.7,365.3z"/>
	<path class="st1" d="M297.5,369.4c0,0-0.2,0.2-0.2,0.2c-0.2,0.2-0.2,0.2-1.1,0.3c-0.3,0-0.5,0.2-0.7,0.4c0.1,0,0.2,0.1,0.2,0.1
		c0.7,0.3,1.4,0.3,2,0.2c0-0.1,0-0.2,0-0.3c0-0.4-0.1-0.9-0.1-1C297.6,369.4,297.5,369.4,297.5,369.4L297.5,369.4z"/>
	<path class="st1" d="M300.5,368.1c-0.1,0.2-0.3,0.2-0.7,0.4l-0.4,0.2c-0.3,0.1-0.5,0.4-0.6,0.7c-0.1,0.3-0.2,0.7-0.2,1c0,0,0,0,0,0
		C299.5,369.9,300.2,369.1,300.5,368.1L300.5,368.1z"/>
	<path class="st1" d="M294.7,361.9c0.1,0.1,0.4,0.7,0.4,1.2c0,0.1,0,0.1,0,0.2c0,0.2-0.2,0.4-0.4,0.6l-0.3,0.2
		c-0.6,0.4-0.8,0.5-0.8,1.1c0,0-0.2,0.1-0.2,0.1c-0.1-0.2-0.5-0.8-0.5-1.4c0-0.1,0-0.1,0-0.2c0-0.3,0.2-0.5,0.4-0.6l0.1-0.1
		c0.8-0.5,1.1-0.7,1.1-1.1C294.5,362,294.6,362,294.7,361.9L294.7,361.9z"/>
	<path class="st1" d="M294.2,359.6c0.1,0.1,0.1,0.4,0.1,0.7c0,0.3,0,0.6-0.1,0.9c-0.1,0.2-0.2,0.6-0.5,0.7c-0.8,0.4-0.8,0.4-0.9,0.7
		c0,0-0.1,0.2-0.1,0.2c0,0-0.2,0.1-0.2,0.1c-0.1-0.2-0.6-0.9-0.6-1.5c0-0.1,0-0.2,0-0.3c0.1-0.2,0.2-0.3,0.4-0.4l0.2-0.1
		c0.9-0.3,1.3-0.5,1.5-0.9C294,359.7,294.1,359.6,294.2,359.6L294.2,359.6z"/>
	<path class="st1" d="M297.7,360.8c0.1,0.1,0.5,0.7,0.5,1.2c0,0.1,0,0.1,0,0.2c0,0.2-0.2,0.4-0.4,0.6l-0.3,0.2
		c-0.6,0.4-0.7,0.5-0.8,1.1c0,0-0.2,0.1-0.2,0.1c-0.1-0.2-0.6-0.8-0.6-1.4c0,0,0-0.1,0-0.1c0-0.3,0.2-0.5,0.4-0.6l0.1-0.1
		c0.8-0.5,1.1-0.7,1.1-1.1c0,0,0,0,0,0C297.5,360.9,297.6,360.8,297.7,360.8L297.7,360.8z"/>
	<path class="st1" d="M298.4,363c0.2,0.2,0.9,0.9,0.9,1.5c0,0,0,0.1,0,0.1c0,0.2-0.1,0.4-0.3,0.5l-0.2,0.1c-0.8,0.5-1.2,0.7-1.2,1.2
		c0,0-0.1,0.1-0.2,0.1c-0.1-0.2-0.3-0.8-0.3-1.3c0-0.1,0-0.1,0-0.2c0-0.3,0.1-0.6,0.4-0.8c0.7-0.5,0.7-0.5,0.8-0.8
		c0,0,0.1-0.2,0.1-0.3C298.2,363.1,298.3,363,298.4,363L298.4,363z"/>
	<path class="st1" d="M295.4,364.2c0.2,0.2,0.8,0.9,0.8,1.5c0,0,0,0.1,0,0.1c0,0.2-0.1,0.4-0.4,0.5l-0.2,0.1
		c-0.8,0.4-1.2,0.7-1.3,1.2c0,0-0.1,0.1-0.2,0.1c-0.1-0.2-0.3-0.7-0.3-1.2c0-0.1,0-0.2,0-0.3c0-0.3,0.1-0.6,0.4-0.8
		c0.7-0.5,0.7-0.5,0.8-0.8c0,0,0.1-0.2,0.1-0.3C295.3,364.3,295.4,364.2,295.4,364.2L295.4,364.2z"/>
	<path class="st1" d="M294.6,358.5c0-0.5,0.2-1,0.6-1.3c0.2-0.2,0.5-0.2,0.7-0.3l0.2,0c0.2-0.1,0.4,0,0.6,0.1
		c0.1,0.1,0.2,0.2,0.3,0.3c0,0.1,0.1,0.2,0.1,0.3c0,0.2-0.1,0.3-0.5,0.4l0,0c-1,0.3-1.4,0.4-1.5,0.9c0,0-0.1,0.1-0.2,0.1
		C294.7,358.9,294.6,358.7,294.6,358.5L294.6,358.5z"/>
	<path class="st1" d="M291.7,359.6c0-0.5,0.2-1,0.6-1.3c0.2-0.2,0.5-0.2,0.7-0.3l0.2,0c0.2-0.1,0.4,0,0.6,0.1
		c0.1,0.1,0.2,0.2,0.3,0.3c0,0.1,0.1,0.2,0.1,0.3c0,0.2-0.1,0.3-0.5,0.4l0,0c-1,0.3-1.4,0.4-1.5,0.9c0,0-0.1,0.1-0.2,0.1
		C291.7,360,291.7,359.8,291.7,359.6L291.7,359.6z"/>
	<path class="st1" d="M231.9,389.3C231.9,389.3,231.9,389.3,231.9,389.3C231.9,389.3,231.9,389.3,231.9,389.3L231.9,389.3z"/>
	<path class="st1" d="M235.1,373.9c0.3,0.1,0.3,0.1,0.7,0.8c0.3-0.6,0.6-1.1,0.9-1.6c-0.1-0.1-0.2-0.2-0.3-0.2
		c-0.6-0.1-1.5,0.5-1.7,0.7c0,0.1,0.1,0.2,0.1,0.2C234.8,373.8,235.1,373.9,235.1,373.9L235.1,373.9z"/>
	<path class="st1" d="M239.7,381.6c0.3-2.2,0.8-4.8,1.2-6.8c0-0.1,0-0.1,0-0.2c0,0,0-0.1,0-0.1c0-0.1,0-0.2,0-0.2c0,0,0,0,0,0
		c0,0,0-0.1,0-0.3l0,0c0-0.2,0-0.4,0-0.5c-0.1-0.5-0.2-1.5-0.6-1.8c-0.4-0.3-1.7-0.1-1.9,0c-0.2,0.1-0.5,0.6-0.5,0.6
		c-0.2,0.2-0.3,0.5-0.5,0.7l0,0c-0.7,1.1-1.3,2.3-1.9,3.5l0,0c-2.1,4.4-3.3,8.9-3.9,11.8c0.1,0.2,0.2,0.5,0.2,0.7c0,0,0,0,0,0
		c0.1,0,0.2-0.1,0.3-0.1c0.1,0,0.2,0,0.3,0l0.1-0.2c0.2-0.5,1.1-1,1.8-1.2c0.1,0,0.1,0,0.2,0l0-0.1c0.2-0.5,1-1.1,1.7-1.4
		c0.2-0.1,0.3-0.1,0.5-0.1c0.2-0.5,0.8-1.1,1.4-1.5c0.1-0.1,0.2-0.1,0.3-0.1c0.1-0.5,0.5-1.3,1-1.8c0,0,0,0,0,0L239.7,381.6
		L239.7,381.6z"/>
	<path class="st1" d="M242.9,377.1c0.1,0.2,0.4,0.9,0.4,1.4c0,0.1,0,0.3-0.1,0.4c-0.1,0.2-0.2,0.3-0.5,0.4l-0.2,0.1
		c-0.9,0.2-1.4,0.3-1.5,0.8c0,0-0.2,0.1-0.2,0.1c0-0.1-0.1-0.2-0.1-0.4c0-0.3,0.1-0.8,0.2-1.1c0.1-0.2,0.3-0.6,0.6-0.7
		c0.8-0.3,0.8-0.3,1-0.6c0,0,0.1-0.2,0.1-0.2C242.7,377.1,242.9,377.1,242.9,377.1L242.9,377.1z"/>
	<path class="st1" d="M238.6,385.1c0.2-0.1,0.6-0.3,0.9-0.2c0.8,0.3,0.8,0.3,1.1,0.1c0,0,0.2-0.1,0.2-0.1c0,0,0.2,0.1,0.2,0.1
		c0,0.2-0.3,1.4-0.8,1.7c-0.2,0.1-0.4,0.1-0.6,0l-0.2-0.1c-0.9-0.4-1.3-0.6-1.7-0.3c0,0-0.2-0.1-0.2-0.1
		C237.7,386,238.1,385.4,238.6,385.1L238.6,385.1z"/>
	<path class="st1" d="M236.7,386.8c0.2-0.1,0.6-0.2,0.9,0c0.7,0.4,0.8,0.4,1.1,0.3c0,0,0.2-0.1,0.3-0.1c0,0,0.1,0.1,0.2,0.1
		c-0.1,0.2-0.5,1.3-1.1,1.5c-0.2,0.1-0.4,0-0.6-0.1l-0.2-0.1c-0.8-0.5-1.1-0.8-1.6-0.6c0,0-0.1-0.1-0.2-0.1
		C235.6,387.5,236.1,387,236.7,386.8L236.7,386.8z"/>
	<path class="st1" d="M234.6,388.3c0.4-0.1,0.7-0.1,0.9,0.1c0.7,0.5,0.7,0.5,1,0.4c0,0,0.2,0,0.3,0c0,0,0.1,0.1,0.2,0.1
		c-0.1,0.2-0.6,1.2-1.3,1.4c-0.2,0-0.4,0-0.6-0.2L235,390c-0.7-0.6-1.1-0.9-1.5-0.7c0,0-0.1-0.1-0.2-0.1
		C233.5,388.9,234.1,388.5,234.6,388.3L234.6,388.3z"/>
	<path class="st1" d="M242,382.7c0,0,0.2-0.1,0.2-0.2c0,0,0.2,0,0.2,0c0,0,0,0.1,0,0.2c0,0.4,0,1.3-0.5,1.6
		c-0.2,0.1-0.3,0.2-0.6,0.1l-0.2,0c-0.9-0.2-1.4-0.3-1.7,0c0,0-0.2,0-0.2,0c0-0.3,0.4-0.9,0.8-1.3c0.2-0.2,0.5-0.4,0.8-0.3
		C241.7,382.9,241.7,382.9,242,382.7L242,382.7z"/>
	<path class="st1" d="M243.2,379.9c0,0.1,0.1,0.5,0.1,0.9c0,0.3-0.1,0.7-0.2,0.9c-0.1,0.2-0.3,0.2-0.6,0.2c0,0-0.2,0-0.2,0
		c-0.9,0-1.4,0-1.7,0.3c0,0-0.2,0-0.2,0c0,0,0,0,0,0c0-0.3,0.2-1,0.6-1.4c0.2-0.3,0.5-0.5,0.7-0.5c0.8-0.1,0.9-0.1,1.1-0.3
		c0,0,0.2-0.2,0.2-0.2C243,379.9,243.1,379.9,243.2,379.9L243.2,379.9z"/>
	<path class="st1" d="M241.5,375.9c-0.1,0.5-0.2,1-0.3,1.5c0.2-0.2,0.5-0.4,1-0.7l0.2-0.1c0.2-0.1,0.3-0.3,0.3-0.5c0,0,0,0,0-0.1
		c0-0.6-0.7-1.4-0.9-1.5L241.5,375.9L241.5,375.9z"/>
	<path class="st1" d="M232.7,391.6c0.2,0.2,0.3,0.2,0.6,0.2c0.6-0.1,1.2-1,1.4-1.2c0,0-0.2-0.1-0.2-0.1c0,0-0.3,0-0.3,0
		c-0.3,0-0.3,0-1-0.5c-0.3-0.2-0.6-0.2-0.9-0.2c-0.1,0-0.2,0.1-0.4,0.1l0.2,0.6c0,0.1,0.2,0.4,0.2,0.9c0,0,0.1,0.1,0.1,0.1
		L232.7,391.6L232.7,391.6z"/>
	<path class="st1" d="M248.8,393.9c0.2,0.1,1.1,0.7,1.2,1.3c0,0,0,0.1,0,0.1c0,0.1,0,0.2-0.1,0.4l0,0c-0.5,0.7-0.8,1-0.8,1.4
		c0,0.1,0,0.2,0,0.2c0,0-0.1,0.1-0.1,0.2c-0.3-0.2-0.7-0.7-0.8-1.1c0-0.1-0.1-0.2-0.1-0.4c0-0.2,0-0.3,0.1-0.5
		c0.4-0.6,0.5-0.8,0.5-1c0-0.1,0-0.2,0-0.3c0,0,0-0.1,0-0.2C248.7,394.1,248.7,394,248.8,393.9L248.8,393.9z"/>
	<path class="st1" d="M245.8,390.5c0.3,0.2,0.6,0.7,0.7,1.2c0,0.1,0,0.2,0,0.3c0,0.2,0,0.4-0.2,0.6c-0.6,0.7-0.6,0.8-0.6,1.2
		c0,0,0,0.1,0,0.2c0,0-0.1,0.1-0.1,0.2c-0.2-0.2-1-0.9-1.1-1.5c0,0,0,0,0,0c0-0.2,0.1-0.3,0.2-0.4l0,0c0.6-0.7,0.9-1,0.9-1.4
		c0,0,0-0.1,0-0.1C245.7,390.7,245.8,390.6,245.8,390.5L245.8,390.5z"/>
	<path class="st1" d="M245.1,388.5c0.2,0.3,0.4,0.7,0.4,1.2c0,0.1,0,0.1,0,0.2c0,0.2-0.1,0.6-0.4,0.8c-0.7,0.5-0.8,0.6-0.9,1
		c0,0,0,0.1,0,0.2c0,0-0.1,0.1-0.2,0.1c-0.1-0.2-0.7-0.9-0.7-1.5c0-0.1,0-0.1,0-0.2c0-0.2,0.1-0.3,0.3-0.4l0,0
		c0.9-0.5,1.2-0.7,1.3-1.2C244.9,388.6,245,388.5,245.1,388.5L245.1,388.5z"/>
	<path class="st1" d="M245,386.3c0,0.1,0,0.2,0,0.4c0,0.3-0.1,0.8-0.2,1.2c-0.1,0.2-0.3,0.5-0.6,0.6c-0.8,0.3-0.8,0.3-1,0.5
		c0,0-0.1,0.2-0.1,0.2c0,0-0.2,0-0.2,0.1c-0.1-0.2-0.4-0.8-0.4-1.4c0-0.1,0-0.3,0.1-0.4c0.1-0.2,0.2-0.3,0.5-0.3l0.2,0
		c0.9-0.2,1.4-0.3,1.6-0.7C244.8,386.4,245,386.4,245,386.3L245,386.3z"/>
	<path class="st1" d="M247.1,392.3c0.2,0.1,1,0.6,1.2,1.1c0,0.1,0,0.1,0,0.2c0,0.1,0,0.3-0.1,0.4l0,0c-0.5,0.7-0.8,1.1-0.8,1.4
		c0,0.1,0,0.2,0.1,0.3c0,0-0.1,0.1-0.1,0.2c-0.2-0.2-0.9-0.9-0.9-1.5c0-0.1,0-0.3,0.1-0.4c0.4-0.6,0.5-0.8,0.5-1.1
		c0-0.1,0-0.2,0-0.3c0,0,0-0.1,0-0.1C247,392.5,247.1,392.4,247.1,392.3L247.1,392.3z"/>
	<path class="st1" d="M245.2,382.2L245.2,382.2c-0.3-0.2-0.5-0.2-0.7-0.1c-0.6,0.3-0.9,1.3-0.9,1.6c0.1,0,0.2,0.1,0.2,0.1
		c0,0,0.2-0.1,0.2-0.1c0.3-0.1,0.3-0.1,1.1,0.2c0.1,0,0.2,0.1,0.3,0.1C245.4,383.4,245.3,382.8,245.2,382.2L245.2,382.2z"/>
	<path class="st1" d="M245.6,384.4c-0.4,0.3-0.8,0.2-1.7,0l-0.2,0c-0.2,0-0.4,0-0.6,0.1c-0.4,0.3-0.4,1.2-0.4,1.6c0,0.1,0,0.1,0,0.1
		c0.1,0,0.2,0,0.2,0c0,0,0.2-0.2,0.2-0.2c0.2-0.2,0.3-0.2,1.1-0.1c0.3,0,0.6-0.2,0.8-0.3c0.3-0.3,0.5-0.6,0.6-0.9
		C245.6,384.7,245.6,384.6,245.6,384.4L245.6,384.4z"/>
	<path class="st1" d="M252.2,400.4c0.1,0,0.1-0.1,0.1-0.1c0.2-0.1,0.3-0.3,0.4-0.5c0,0,0-0.1,0-0.1c0-0.6-0.7-1.4-0.8-1.5
		c-0.1,0-0.2,0.1-0.2,0.1c0,0-0.1,0.3-0.1,0.3c-0.1,0.3-0.1,0.3-0.8,0.8c0,0-0.1,0.1-0.1,0.1C251.3,399.8,251.8,400.1,252.2,400.4
		L252.2,400.4z"/>
	<path class="st1" d="M249.8,398.9c0.2,0.1,0.3,0.2,0.5,0.3c0-0.4,0.4-0.7,1-1.2l0.1-0.1c0.2-0.1,0.2-0.3,0.2-0.5c0,0,0,0,0,0
		c0-0.6-1-1.3-1.1-1.4c0,0-0.1,0.1-0.2,0.2c0,0,0,0.3,0,0.3c0,0,0,0,0,0c0,0.3,0,0.3-0.6,0.9c-0.2,0.2-0.2,0.4-0.2,0.7
		c0,0.1,0,0.1,0,0.2C249.6,398.4,249.7,398.7,249.8,398.9L249.8,398.9z"/>
	<path class="st1" d="M245.7,386.1c0.1,0.2,0.1,0.4,0.1,0.6c0,0.4-0.1,0.9-0.2,1.2c0.4,0.4,0.7,1.2,0.6,1.9c0.4,0.2,0.7,0.7,0.9,1.3
		l0.9-0.4c-1-1.5-1.7-3.2-2.2-5c0,0,0,0,0,0.1C245.8,385.9,245.8,386,245.7,386.1L245.7,386.1z"/>
	<g>
		<path class="st1" d="M295.1,349.7c0,0,0.1-0.3-0.4-0.6c0,0-0.1-0.1-0.3-0.2c-3.4-1.5-12.3-6.1-16.4-8.3c-1.4-0.7-2.3-1.2-2.3-1.2
			c-0.1,0-1.1-0.4-1.7,0c-0.1,0-1.9,1.3-1.9,1.3s-0.1,0.1-0.1,0.2c0.1,0.4,0.2,1.6-0.1,1.9c-0.4,0.3-4.1,1-4.1,1l-0.5,0.7l-1-0.4
			c-0.2-0.1-0.4-0.1-0.8,0l-1.6,0.8l-1.6-0.8c-0.4-0.2-0.6-0.1-0.8,0l-1,0.4l-0.5-0.7c0,0-3.7-0.7-4.1-1c-0.4-0.3-0.2-1.5-0.1-1.9
			c0-0.1-0.1-0.2-0.1-0.2s-1.8-1.2-1.9-1.3c-0.6-0.4-1.6-0.1-1.7,0c0,0-0.9,0.5-2.3,1.2c-4.1,2.2-13,6.8-16.4,8.3
			c-0.2,0.1-0.3,0.1-0.3,0.2c-0.4,0.2-0.4,0.6-0.4,0.6l0,0.1c2.3,1.6,3.2,2.2,6.1,2.2h0.8c0.7,0,1.5,0,2.4-0.1
			c0.2,0,0.3-0.1,0.5-0.2c1-0.6,7.6-5.2,7.7-5.3c0.2-0.1,0.4-0.2,0.5-0.2c0,0,0.2,0.1,0.3,0.1c0,0,0.3,0.2,0.2,0.4
			c-0.1,0.1-5.7,5.2-5.7,5.2s2.4,0,2.5,0c0,0,1,0.1,1.7-0.5c0.6-0.5,3-2.9,3.1-3c0.2-0.2,0.4-0.1,0.5-0.1c0.2,0,0.5,0.3,0.5,0.3
			s0.2,0.1,0.1,0.2c-0.1,0.1-2.9,3.9-2.9,3.9s0.1,0.8,2.3,1.3c0.8,0.2,2.1,0.1,3.6,0.1c0,0,1-2.7,1-2.9c0.1-0.2,0.2-0.1,0.2-0.1
			c0,0,0.2,0,0.6,0.1c0.2,0.1,0.2,0.3,0.2,0.5l0.9,3.3c0,0.1,0,0.6-0.5,1.4c-0.6,0.9-3.8,5.2-4,5.4c-0.2,0.2,0.1,0.5,0.2,0.6
			l0.4,0.5c0.3,0.4,0.5,0.4,0.7,0.4c0,0,0,0,0,0c0,0,0,0,0.1,0c0.7-0.3,1.5-0.5,2.2-0.7l1.9-3.3c0.1-0.2,0.3-0.1,0.3-0.1
			s0.4,0.1,0.6,0.2c0.1,0.1,0.1,0.3,0.1,0.4c0,0.1-0.3,1.3-0.5,2.3c0.7-0.1,1.4-0.1,2.1-0.2c0.9,0,1.8,0,2.7,0.2
			c-0.1-0.4-0.5-2.2-0.5-2.3c0-0.2,0-0.4,0.1-0.4c0.2-0.1,0.6-0.2,0.6-0.2s0.2-0.1,0.3,0.1l1.9,3.3c0.7,0.2,1.4,0.4,2.1,0.7
			c0.1,0,0.1,0,0.2,0.1c0,0,0,0,0,0c0.2,0,0.4,0,0.7-0.4l0.4-0.5c0.1-0.1,0.4-0.4,0.2-0.6c-0.1-0.1-3.3-4.5-4-5.4
			c-0.5-0.8-0.6-1.3-0.5-1.4l0.9-3.3c0-0.2,0.1-0.5,0.2-0.5c0.4-0.1,0.6-0.1,0.6-0.1c0,0,0.2,0,0.2,0.1c0.1,0.2,1,2.9,1,2.9
			c1.5,0,2.8,0.1,3.6-0.1c2.2-0.4,2.3-1.3,2.3-1.3s-2.8-3.7-2.9-3.9c-0.1-0.2,0.1-0.2,0.1-0.2s0.3-0.2,0.5-0.3c0.1,0,0.3,0,0.5,0.1
			c0.1,0.1,2.5,2.5,3.1,3c0.7,0.6,1.7,0.5,1.7,0.5c0,0,2.5,0,2.5,0s-5.6-5.1-5.7-5.2c-0.1-0.1,0.2-0.3,0.2-0.4c0,0,0.2-0.1,0.3-0.1
			c0.1,0,0.3,0,0.5,0.2c0.1,0.1,6.7,4.6,7.7,5.3c0.1,0.1,0.3,0.1,0.5,0.2c0.9,0,1.7,0.1,2.4,0.1h0.8c2.9,0,3.9-0.5,6.1-2.2
			L295.1,349.7L295.1,349.7z"/>
		<path class="st1" d="M264.4,402.7c-4-0.3-8-2.3-10.4-3.3c-0.1,0-0.2-0.1-0.3-0.1c0,0.2,0.1,0.7,0.1,0.9c0.1,0.3,0.6,2.1,1,2.2
			c0.5,0.1,3.3,0.8,5.2,0.6c0.1,0.4-0.1,0.7-1.6,0.9s-4.6,0.1-4.7,0c0-0.2-0.1-1.8-0.5-2.1c-0.3-0.2-0.6-0.4-1-0.6l0,0
			c-0.2-0.1-0.3-0.2-0.5-0.3c-0.1,0-0.1-0.1-0.2-0.1c0,0,0,0-0.1,0c-3.6-2.2-8.2-5-8.4-6.5c-0.1-0.5,0.2-1.2,0.6-1.5l-0.3-0.3
			c-0.2-0.2-0.9-1.3-0.8-2.2c0,0,0,0,0-0.1h0l-0.3-0.5c-0.1-0.2-0.7-1.5-0.4-2.4l-0.4,0.2c-0.3,0.1-0.6,0-0.9-0.1
			c-0.3,0.1-0.5,0.2-0.8,0.1c-0.2,0.5-0.7,1.5-1.5,1.8c-0.2,0.1-0.4,0.1-0.6,0.1c-0.2,0.4-0.8,1.5-1.7,1.7c-0.2,0.1-0.5,0-0.7,0
			c-0.2,0.4-1,1.4-1.9,1.5c-0.2,0-0.3,0-0.5,0l0,0c0.1,0.1,0.4,0.8,0.5,1.5l0.4,0.6c0.1,0.1,0.5,0.7,0.6,1.5l0.5,0.6
			c0.3,0.4,0.7,1,0.8,1.7l0.3,0.2c0.3,0.2,0.6,0.5,0.8,0.9c2.5,1.4,6.2,3.3,10.4,4.6c1.4,0.4,2.8,0.8,4.2,1.1l0,0
			c0.8,0.2,1.7,0.3,2.5,0.4c0,0,0.1,0,0.1,0.3c-0.1,0.5-0.6,2.3-0.6,2.4c0.2,0,5.2,1.4,10.6-4.2c0.7-0.8,0.9-1,1.1-1.4
			C264.8,402.7,264.5,402.7,264.4,402.7L264.4,402.7z"/>
	</g>
	<g>
		<path class="st1" d="M228.6,236.3v-72.9c0-1.4,0-3,0.1-4.8c0.1-1.8,0.2-3.5,0.5-5.2c0.3-1.9,0.5-3.9,0.8-6l-19.2,75.5h-11.2
			l-19.2-75.5c0.1,2.1,0.3,4.1,0.6,6c0.3,1.7,0.5,3.4,0.6,5.2c0.1,1.8,0.2,3.4,0.2,4.8v72.9h-21.3V88.5h20.9l23.2,81.6
			c0.1,0.4,0.2,0.9,0.2,1.6c0,0.7,0.1,1.5,0.2,2.2c0,0.9,0.1,1.9,0.2,2.9c0-1,0.1-2,0.2-2.9c0-1.5,0.1-2.8,0.4-3.9L229,88.5h20.9
			v147.8H228.6z"/>
		<path class="st1" d="M321.8,236.3h-46c-8.8,0-13.2-4.5-13.2-13.5V102c0-9,4.4-13.5,13.2-13.5h46c9,0,13.5,4.5,13.5,13.4v34.6
			h-22.1v-29.2h-28.6v110.3h28.6v-31.2h22.1v36.5C335.4,231.8,330.9,236.3,321.8,236.3z"/>
		<path class="st1" d="M416.1,236.3v-72.9c0-1.4,0-3,0.1-4.8c0.1-1.8,0.2-3.5,0.5-5.2c0.3-1.9,0.5-3.9,0.8-6l-19.2,75.5h-11.2
			l-19.2-75.5c0.1,2.1,0.3,4.1,0.6,6c0.3,1.7,0.5,3.4,0.6,5.2c0.1,1.8,0.2,3.4,0.2,4.8v72.9H348V88.5h20.9l23.2,81.6
			c0.1,0.4,0.2,0.9,0.2,1.6c0,0.7,0.1,1.5,0.2,2.2c0,0.9,0.1,1.9,0.2,2.9c0-1,0.1-2,0.2-2.9c0-1.5,0.1-2.8,0.4-3.9l23.2-81.6h20.9
			v147.8H416.1z"/>
	</g>
</g>
</svg>
