<?xml version="1.0" encoding="utf-8"?>
<!-- Generator: Adobe Illustrator 19.0.0, SVG Export Plug-In . SVG Version: 6.00 Build 0)  -->
<svg version="1.1" id="Layer_1" xmlns="http://www.w3.org/2000/svg" xmlns:xlink="http://www.w3.org/1999/xlink" x="0px" y="0px"
	 viewBox="-720 1029.8 129.1 106.8" style="enable-background:new -720 1029.8 129.1 106.8;" xml:space="preserve">
<style type="text/css">
	.st0{fill:#FED130;}
</style>
<g>
	<path class="st0" d="M-651.3,1029.8h-4.5c0,0-4,14.2-4,14l-4-14h-4.5v27.5h4.7v-12.2l2.5,9.7h2.7l2.5-9.8v12.2h4.7L-651.3,1029.8z
		 M-635.9,1047.5h-4.8v5.6h-4.3v-19h4.3v5.3h4.8v-7c0-1.6-0.8-2.5-2.4-2.5h-9.1c-1.6,0-2.4,0.8-2.4,2.5v22.6c0,1.6,0.8,2.4,2.4,2.4
		h9.1c1.6,0,2.4-0.8,2.4-2.4V1047.5z"/>
	<path class="st0" d="M-617.8,1029.8h-4.5c0,0-4,14.2-4,14l-4-14h-4.5v27.5h4.7v-12.2l2.5,9.7h2.7l2.5-9.8v12.2h4.7L-617.8,1029.8z"
		/>
</g>
<path class="st0" d="M-674.1,1098.3v-35.2h10.4v35.1L-674.1,1098.3L-674.1,1098.3z"/>
<path class="st0" d="M-638,1098.3h-20.8v-35.2h20.8c6.9,0,11.1,3.8,11.1,10.8v13.8C-626.9,1094.7-631.1,1098.3-638,1098.3z
	 M-637.4,1075c0-2.7-1.5-3.6-4.2-3.6h-6.9v18.5h6.9c2.7,0,4.2-0.9,4.2-3.6V1075z"/>
<path class="st0" d="M-597,1098.3h-22.3c-2.7,0-4.2-1.6-4.2-4.4v-7.8h10.5v4.5h9.8v-3.3l-18.4-7.7c-1.5-0.6-1.9-1.6-1.9-3.3v-8.9
	c0-2.8,1.5-4.4,4.2-4.4h22.3c2.7,0,4.2,1.5,4.2,4.3v7.3h-10.4v-3.9h-9.8v3.2l18.3,7.7c1.5,0.6,2,1.6,2,3.3v8.9
	C-592.7,1096.7-594.3,1098.3-597,1098.3z"/>
<path class="st0" d="M-673.4,1136.5l-8.9-13.1v-5.9h8.4v-8h-9.8v27.1h-10.4v-35.3h26.4c2.7,0,4.2,1.6,4.2,4.4v13.9
	c0,2.8-1.5,4.3-4.2,4.3h-2.2l8.1,12.2v0.4C-661.8,1136.5-673.4,1136.5-673.4,1136.5z"/>
<path class="st0" d="M-631.1,1136.5h-23.5c-2.7,0-4.2-1.6-4.2-4.4v-30.8h10.4v26.8h11v-26.8h10.4v30.8
	C-626.9,1134.8-628.4,1136.5-631.1,1136.5z"/>
<path class="st0" d="M-601.1,1136.5l-11.5-17.5v17.5h-10.5v-35.2h10.3l11.5,17.5v-17.5h10.4v35.1h-10.2L-601.1,1136.5L-601.1,1136.5
	z"/>
<polygon class="st0" points="-689.6,1080 -678.8,1063.4 -678.8,1063.1 -691.7,1063.1 -702.4,1080 -689.7,1098.3 -676.9,1098.3 
	-676.9,1097.9 "/>
<polygon class="st0" points="-707.1,1080 -676,1029.8 -689.9,1029.8 -720,1080 -707.2,1098.3 -694.5,1098.3 -694.5,1097.9 "/>
</svg>
