<?xml version="1.0" encoding="utf-8"?>
<!-- Generator: Adobe Illustrator 19.0.0, SVG Export Plug-In . SVG Version: 6.00 Build 0)  -->
<!DOCTYPE svg PUBLIC "-//W3C//DTD SVG 1.1//EN" "http://www.w3.org/Graphics/SVG/1.1/DTD/svg11.dtd">
<svg version="1.1" id="Layer_1" xmlns="http://www.w3.org/2000/svg" xmlns:xlink="http://www.w3.org/1999/xlink" x="0px" y="0px"
	 viewBox="-37 62.4 323.7 277.6" enable-background="new -37 62.4 323.7 277.6" xml:space="preserve">
<path fill="#FED130" d="M90.5,189.3h19v93.6h18.7V301H65.6v-18.1h19.1v-65.4c-5.6,5.7-12,10.4-19.1,13.9v-21.7
	C75.7,204.6,84,197.8,90.5,189.3z"/>
<path fill="#FED130" d="M75.9,186.8h-9.8v-15.4H56c-2.7,0-4.9-0.8-6.5-2.3s-2.4-3.6-2.4-6.2v-26.2c0-2.4,0.7-4.3,2.1-5.7
	s3.3-2.1,5.8-2.1c1.2,0,4.9,0.6,11.1,1.7V129h9.8V186.8z M66.1,163.4v-26c-3.6-0.3-5.6-0.5-6.2-0.5c-2.1,0-3.1,1-3.1,3.1v20.3
	c0,2.1,1.1,3.2,3.2,3.2L66.1,163.4L66.1,163.4z"/>
<path fill="#FED130" d="M110.3,171.3h-9.8v-1.5c-2.3,0.4-4.5,0.7-6.8,1.1c-2.8,0.4-5.1,0.6-6.9,0.6c-3.6,0-5.3-1.7-5.3-5.2V129h9.7
	v34.4l9.3-0.2V129h9.8V171.3z"/>
<path fill="#FED130" d="M144,171.3h-9.4v-1.5c-2.2,0.3-4.4,0.7-6.7,1c-2.9,0.4-5.1,0.6-6.6,0.6c-3.6,0-5.4-1.7-5.4-5.1v-15.2
	c0-3.5,1.8-5.2,5.5-5.2h13.2v-9.7h-9.4v6h-8.9v-7.9c0-3.5,1.8-5.2,5.5-5.2h16.6c3.6,0,5.4,1.7,5.4,5.2v37H144z M134.7,163.7v-11.4
	h-9.4V164L134.7,163.7z"/>
<path fill="#FED130" d="M178.5,171.3h-9.8V137l-9.2,0.2v34.1h-9.8V129h9.8v1.6c2.3-0.4,4.5-0.7,6.8-1c2.8-0.4,5.1-0.7,6.9-0.7
	c3.6,0,5.4,1.7,5.4,5.2L178.5,171.3L178.5,171.3z"/>
<path fill="#FED130" d="M204,171.3h-10.9c-3.6,0-5.4-1.8-5.4-5.2v-28.9H183V129h4.6v-11.5h9.8V129h6.3v8.2h-6.3v26h6.5L204,171.3
	L204,171.3z"/>
<rect x="209" y="129" fill="#FED130" width="9.6" height="42.3"/>
<path fill="#FED130" d="M252.3,166.1c0,3.5-1.8,5.2-5.4,5.2h-17c-3.7,0-5.5-1.8-5.5-5.2v-31.9c0-3.5,1.8-5.2,5.5-5.2h17
	c3.6,0,5.4,1.7,5.4,5.2v10.1h-9.5V137H234v26.4h8.8v-8.1h9.5V166.1z"/>
<path fill="#FED130" d="M286.4,166.1c0,3.5-1.8,5.2-5.4,5.2h-17.5c-3.7,0-5.5-1.8-5.5-5.2v-31.9c0-3.5,1.8-5.2,5.5-5.2H281
	c3.6,0,5.4,1.7,5.4,5.2V166.1z M276.9,163.4V137h-9.3v26.4H276.9z"/>
<path fill="#FED130" d="M159,229.3l-22.6-4.5c3.7-24.2,16.2-36.2,37.4-36.2c11.5,0,20.2,3.1,26.2,9.4c6,6.2,9,13.9,9,22.9
	c0,9.3-3.3,18.4-9.9,27.3c-6.6,8.9-19.1,19.3-37.4,31.2h48.9l-1.8,21.7h-72.4v-21.7c20.7-17.4,33.6-29.6,38.8-36.8
	c5.1-7.2,7.7-14,7.7-20.4c0-9.2-3.5-13.8-10.6-13.8c-4.3,0-7.4,1.8-9.3,5.4C161,217.4,159.7,222.6,159,229.3z"/>
<path fill="#FED130" d="M216.1,192.2l23.5-8.3v66.5l23.6-31.8h21.3l-21.3,27.6l23.3,54.7h-25.4L248,262.7l-8.6,11.5l-1.5,26.7h-20.5
	L216.1,192.2z"/>
<path fill="#FED130" d="M5.6,197.6C4.5,209.4-6,218-17.8,216.8c-11.7-1.1-20.3-11.6-19.1-23.4c1.2-11.8,11.7-20.4,23.4-19.3
	C-1.7,175.3,6.8,185.8,5.6,197.6"/>
<path fill="#FED130" d="M16.5,260.1C15.4,271,5.7,279-5.2,277.9c-10.9-1-18.8-10.7-17.7-21.7c1.2-10.8,10.9-18.8,21.8-17.7
	C9.7,239.5,17.6,249.2,16.5,260.1"/>
<path fill="#FED130" d="M49.5,305.9c-0.9,8.9-8.8,15.4-17.7,14.6c-8.9-0.9-15.3-8.8-14.4-17.7c0.9-8.9,8.8-15.4,17.7-14.6
	C43.9,289.1,50.4,297,49.5,305.9"/>
<path fill="#FED130" d="M94.5,328.1c-0.7,7.2-7.1,12.4-14.3,11.7c-7.1-0.7-12.4-7.1-11.6-14.2c0.7-7.2,7.1-12.4,14.2-11.7
	C90,314.6,95.2,320.9,94.5,328.1"/>
<path fill="#FED130" d="M136.5,331.5c-0.5,5.1-5.1,8.9-10.2,8.4c-5.1-0.5-8.9-5.1-8.3-10.2c0.5-5.1,5.1-8.9,10.2-8.4
	C133.3,321.8,137,326.4,136.5,331.5"/>
<path fill="#FED130" d="M173.5,322c-0.4,3.7-3.7,6.4-7.4,6.1c-3.7-0.4-6.4-3.6-6-7.3s3.7-6.4,7.4-6.1S173.8,318.3,173.5,322"/>
<path fill="#FED130" d="M24.8,135.8c-1.1,10.9-10.8,18.9-21.7,17.8c-10.9-1-18.8-10.7-17.7-21.6c1.1-10.9,10.8-18.9,21.7-17.8
	C17.9,115.2,25.9,124.9,24.8,135.8"/>
<path fill="#FED130" d="M65.5,93.4c-0.9,9.2-9.1,15.9-18.2,15s-15.8-9-14.9-18.2s9.1-15.9,18.2-15C59.8,76.1,66.4,84.3,65.5,93.4"/>
<path fill="#FED130" d="M114.5,76.7c-0.7,7.2-7.1,12.4-14.3,11.7c-7.1-0.7-12.4-7.1-11.6-14.2c0.7-7.2,7.1-12.4,14.3-11.7
	C110,63.2,115.2,69.5,114.5,76.7"/>
<path fill="#FED130" d="M158.5,79.8c-0.5,5.4-5.3,9.4-10.7,8.8c-5.4-0.5-9.3-5.3-8.8-10.7s5.3-9.3,10.7-8.8
	C155.1,69.6,159.1,74.4,158.5,79.8"/>
<path fill="#FED130" d="M192.5,95.7c-0.4,3.7-3.6,6.4-7.3,6c-3.7-0.4-6.3-3.6-5.9-7.3c0.4-3.7,3.6-6.3,7.3-6
	C190.2,88.7,192.8,92,192.5,95.7"/>
<path fill="#FED130" d="M219.2,118.5c-0.3,3.1-3.1,5.4-6.1,5.1c-3.1-0.3-5.3-3-5-6.1s3.1-5.4,6.1-5.1
	C217.3,112.6,219.5,115.4,219.2,118.5"/>
</svg>
