<svg id="Layer_1" data-name="Layer 1" xmlns="http://www.w3.org/2000/svg" viewBox="0 0 526.36 114.61"><defs><style>.cls-1{fill:#FED130;}.cls-2{fill:#FED130;}</style></defs><title>Quantico100</title><g id="_Group_" data-name="&lt;Group&gt;"><g id="_Group_2" data-name="&lt;Group&gt;"><path id="_Compound_Path_" data-name="&lt;Compound Path&gt;" class="cls-1" d="M61.87,107.73l-6.71-5.13-.26.66q-1.85,4.35-7.9,4.34H14.35q-9,0-9-9.21V16.23Q5.4,7,14.48,7H47q9.08,0,9.08,9.21V89l6.84,4.87v13.82ZM41.07,91.26l-8.82-6.74V70.78h.92l7.9,5.94V19.79H20.4v75H41.07Z"/><path id="_Compound_Path_2" data-name="&lt;Compound Path&gt;" class="cls-1" d="M106.76,107.59h-32q-9.08,0-9.08-9.21V7h15V94.83H101V7h15V98.38Q116,107.59,106.76,107.59Z"/><path id="_Compound_Path_3" data-name="&lt;Compound Path&gt;" class="cls-1" d="M159.68,107.59l-3-19.09H137.83l-3,19.09H119.93v-.26L139.41,6.89h15.8l19.35,100.44v.26ZM147.18,30.32,139.8,75.74h14.74Z"/><path id="_Compound_Path_4" data-name="&lt;Compound Path&gt;" class="cls-1" d="M216.34,107.59l-24-63.32a26.5,26.5,0,0,0,.39,2.63,17,17,0,0,1,.4,2.3,22.55,22.55,0,0,1,.13,2.3v56.08H178.51V7h13.12l24,62-.53-2.63a11.92,11.92,0,0,1-.33-2.3c0-.83-.07-1.6-.07-2.3V7h14.74V107.59Z"/><polygon id="_Path_" data-name="&lt;Path&gt;" class="cls-1" points="280.79 7.02 232.74 7.02 232.74 20.32 249.2 20.32 249.2 107.59 264.2 107.59 264.2 20.32 274.93 20.32 280.79 8.02 280.79 7.02"/></g><g id="_Group_3" data-name="&lt;Group&gt;"><path id="_Compound_Path_5" data-name="&lt;Compound Path&gt;" class="cls-2" d="M283.35,107.59V36.77H274V33L286.37,7h26.86V107.59Z"/><path id="_Compound_Path_6" data-name="&lt;Compound Path&gt;" class="cls-2" d="M405.51,107.59h-67.4c-7.64,0-11.72-4.61-11.72-12.51V19.52c0-7.9,4.08-12.51,11.72-12.51h67.4c7.77,0,12.11,4.61,12.11,12.51V53H387.74V30.19H356.15V84.42h31.59V61.5h29.88V95.09C417.62,103,413.28,107.59,405.51,107.59Z"/><path id="_Compound_Path_7" data-name="&lt;Compound Path&gt;" class="cls-2" d="M509.11,107.59h-67c-7.64,0-11.72-4.61-11.72-12.51V19.52c0-7.9,4.34-12.51,12-12.51h66.74C516.88,7,521,11.63,521,19.52V95.09C521,103,516.88,107.59,509.11,107.59ZM491.47,30.19h-31.6V84.42h31.6Z"/></g></g></svg>