<?xml version="1.0" encoding="utf-8"?>
<!-- Generator: Adobe Illustrator 19.0.0, SVG Export Plug-In . SVG Version: 6.00 Build 0)  -->
<svg version="1.1" id="Layer_2" xmlns="http://www.w3.org/2000/svg" xmlns:xlink="http://www.w3.org/1999/xlink" x="0px" y="0px"
	 viewBox="-411.1 843.9 336.1 231.7" style="enable-background:new -411.1 843.9 336.1 231.7;" xml:space="preserve">
<style type="text/css">
	.st0{fill:#FED130;}
</style>
<g>
	<g>
		<path class="st0" d="M-226.7,871.9c2.8-6.1,22.2-31.1,38.8-21.4c6.2,3.6,5.6,10.2,7.3,10.1c1.4-0.1,3.3-7.7,1.3-11.7
			c-1.6-3.3-10.1-5.5-16.5-4.9c0,0-18-0.1-32.2,16.6c-10.8,12.8-25.1,49.9-28.6,58.4s-18.7,50.6-18.7,50.6s-17.3,43.3-23.7,53.9
			c-6.7,11.3-28.9,46.7-69.9,47c-14.2,0.2-37.5-11.4-38.1-32.4c-0.7-25.7,23.4-35.9,40.5-25.1c4.6,2.9,4.2,5.8,5.7,5.1
			c-7.5-18.8-43.3-11.5-49,9.9c0,0-9.6,31.8,23.5,43.8c38.4,13.9,78.8-10.7,104.3-66.6c15.9-35,30.5-80.3,37.1-96.5
			C-238.1,892.6-226.7,871.9-226.7,871.9z"/>
		<path class="st0" d="M-226.5,979.4c0,0,4.4-5.5,3.9-7.7c-0.6-2.2-5-3.2-7.2-2.8c-6.2,1.2-13.2,8.5-19,26.7
			c-6.1,19.1,6.5-27.7,5.6-28.4c-1-0.8-42.7,4.9-45.9,5.4c-9.8,1.5-13.6,13.2-6.1,18.1c7.6,4.9,13-6.1,11.7-8
			c-1.4-1.9-1.1,6.1-6.9,5.3s-5.2-8-1.2-9.9s43.4-7.7,43.4-7.7s-8.3,40.8-10.6,43.5c1.1,1,5.7,0.1,6.8-0.8c0,0,5.2-21.3,10.3-29.3
			c4-6.3,8.7-8.6,11.9-7.5C-226.7,977.5-226.5,979.4-226.5,979.4z"/>
	</g>
	<g>
		<path class="st0" d="M-94.1,902.5c-0.9-2.6-3.1-3.9-6.4-3.9c-4.3,0-8.6,1.4-12.8,4.2c-12.1,8-21.1,18.8-28.4,33.8
			c-1.3,2.7-12.7,26.1-15.4,33.8c-0.7-0.5-1.5-0.8-2.3-1.1c-1.1-0.4-2.3-0.6-3.7-0.6c-4.1,0-8,1-11.6,3c-3.6,2-6.7,4.6-9.4,7.9
			c-2.7,3.2-4.9,7.1-6.4,11.3c-1.6,4.3-2.4,8.7-2.4,13.3c0,3.9,1,6.9,2.9,8.7c1.9,1.8,4,2.7,6.1,2.7h0.1h0.1c1.4-0.4,3-1.2,4.9-2.5
			c1.9-1.3,3.8-2.9,5.7-4.8c1.9-1.9,3.8-4.1,5.6-6.4c0.9-1.2,1.8-2.5,2.5-3.7c-0.1,0.6-0.3,1.2-0.4,1.8c-0.4,1.8-0.6,3.8-0.7,5.8
			c-0.2,2.8,0,5.1,0.8,6.9c0.9,1.9,2.4,2.9,4.7,2.9c1.2,0,2.4-0.4,3.8-1.2c1.3-0.8,2.6-1.8,3.9-2.9c1.3-1.1,2.4-2.4,3.5-3.7
			c0,0,2.9-3.6,2.7-4.7c0-0.2-0.1-0.3-0.3-0.4c-0.3-0.2-0.6-0.2-0.8-0.2c-0.3,0-0.6,0.1-0.8,0.3l0,0l0,0c-1,1.5-1.6,2.1-2.7,3.3
			l-0.2,0.3c-1.2,1.3-3.5,2.5-4.6,2.5c-0.7,0-1.7-0.3-2-2.7c-0.2-2-0.1-4.4,0.4-7.1c1.7-9.1,3.8-18.3,6.5-27.4
			c2.5-8.6,7.5-21.2,11.2-29.2c6.6-14.7,14.3-25.1,23.3-32c3.8-2.9,8.1-4.4,12.7-4.4c2,0,3.6,0.4,4.7,1.3c1,0.8,1.5,2,1.2,3.5v0.1
			v0.1c0.3,1.2,0.9,1.4,1.3,1.4c0.4,0,0.8-0.2,1.3-0.5l0.1-0.1l0.1-0.1C-93.7,908.1-93.2,905-94.1,902.5z M-165.8,972.5
			c1.6,0,3,0.3,4.2,0.9c1.2,0.6,1.9,1.5,2.4,2.7c-0.2,1-0.5,2-0.9,3c-0.4,1.1-0.7,2.3-1.1,3.4c-1.2,3.3-2.6,6.5-4.3,9.6
			s-3.5,5.9-5.3,8.2c-1.8,2.3-3.6,4.3-5.5,5.7c-1.8,1.4-3.2,2.1-4.4,2.1s-2.2-0.5-3.1-1.6c-0.9-1.1-1.4-2.8-1.4-5.2
			c0-4.2,0.6-8.1,1.7-11.6s2.6-6.6,4.4-9.2c1.8-2.5,3.9-4.6,6.2-6C-170.5,973.2-168.1,972.5-165.8,972.5z M-147.7,1002.9
			c0.2,0,0.4,0.1,0.6,0.2c-0.4-0.2-0.7-0.2-1,0C-148,1002.9-147.9,1002.9-147.7,1002.9z M-97.3,911.7
			C-97.3,911.8-97.3,911.8-97.3,911.7C-97.3,911.8-97.3,911.8-97.3,911.7z M-97.5,911.4C-97.5,911.4-97.5,911.5-97.5,911.4
			C-97.5,911.5-97.5,911.5-97.5,911.4z M-96.9,912C-96.8,912-96.8,912-96.9,912C-96.8,912-96.8,912-96.9,912
			C-96.8,912-96.8,912-96.9,912z M-97.1,911.9C-97.1,911.9-97.1,912-97.1,911.9C-97.1,912-97.1,911.9-97.1,911.9z M-96.3,911.9
			C-96.3,911.9-96.4,911.9-96.3,911.9C-96.4,911.9-96.3,911.9-96.3,911.9z"/>
		<path class="st0" d="M-196.1,971.4c-1.7-1.7-3.6-2.5-5.9-2.5c-3.2,0-6.2,1.1-9.1,3.3c-2.8,2.2-5.4,5-7.6,8.4s-4,7.2-5.3,11.2
			c-1.3,4.1-2,8-2,11.6c0,4,1,7.1,3,9.2c2,2.1,4.6,3.1,7.8,3.1c3.6,0,8.6-1.3,11.3-3.8c4.5-4.1,6.5-7.9,7.8-11.1
			c0.3-0.5,0.3-1,0-1.4c-0.2-0.2-0.4-0.4-0.6-0.4s-0.4,0.1-0.6,0.2l0,0l0,0c-0.3,0.4-0.7,0.9-1.2,1.7c-2.2,3.4-6.3,9.6-12.3,9.6
			c-0.2,0-0.3,0-0.5,0c-2.5-0.1-4.3-1.1-5.6-3c-1.2-1.9-1.9-4.3-2-7.6c-0.1-2.9,0.3-5.3,0.6-6.8c0.1-0.3,0.1-0.6,0.1-0.8
			c2-0.5,4-1.3,5.9-2c1.2-0.4,2.3-0.9,3.4-1.2c3-1,5.6-2,7.9-3.2c0,0,4-1.5,8-5.2l0,0l0,0C-192.9,980.4-193.7,973.8-196.1,971.4z
			 M-205.3,985c-2.7,1.6-6.9,2.9-12.6,3.7c1-5.1,2.5-8.9,4.7-11.3c2.1-2.4,3.8-3.6,6.5-3.6c1.4,0,2.5,0.5,3.4,1.6
			c0.8,1.1,1.3,2.5,1.3,4.1C-202.1,981.7-202.6,983.4-205.3,985z M-210.8,1010.7c0.4,0,0.8,0,1.2-0.1
			C-209.9,1010.6-210.4,1010.7-210.8,1010.7z M-209.4,1010.6c0.4-0.1,0.8-0.2,1.1-0.3C-208.6,1010.4-209,1010.5-209.4,1010.6z
			 M-208.1,1010.2c0.4-0.1,0.7-0.3,1.1-0.4C-207.4,1010-207.7,1010.1-208.1,1010.2z M-206.9,1009.8c0.3-0.2,0.7-0.3,1-0.5
			C-206.2,1009.4-206.5,1009.6-206.9,1009.8z M-205.7,1009.1c0.3-0.2,0.6-0.4,1-0.6C-205.1,1008.7-205.4,1008.9-205.7,1009.1z
			 M-204.7,1008.4c0.3-0.2,0.6-0.5,0.9-0.7C-204,1007.9-204.3,1008.2-204.7,1008.4z M-202.7,1006.7c0.3-0.3,0.5-0.6,0.8-0.9
			C-202.2,1006.1-202.4,1006.4-202.7,1006.7z M-196.4,999.3L-196.4,999.3L-196.4,999.3z M-196.7,999.2c-0.1,0-0.1,0-0.2,0
			C-196.8,999.2-196.8,999.2-196.7,999.2L-196.7,999.2z M-196.9,999.2c-0.1,0-0.2,0.1-0.3,0.1C-197.1,999.3-197,999.3-196.9,999.2z
			 M-198.5,1001.1c-0.2,0.3-0.4,0.5-0.5,0.8C-198.8,1001.7-198.6,1001.4-198.5,1001.1z M-197.6,999.8L-197.6,999.8L-197.6,999.8z
			 M-198,1000.4L-198,1000.4L-198,1000.4z M-201.8,1005.7c0.3-0.3,0.5-0.6,0.7-0.9C-201.3,1005.1-201.6,1005.4-201.8,1005.7z
			 M-201,1004.7c0.2-0.3,0.5-0.6,0.7-0.9C-200.5,1004.1-200.8,1004.4-201,1004.7z M-200.3,1003.8c0.2-0.3,0.4-0.6,0.6-0.9
			C-199.8,1003.2-200.1,1003.5-200.3,1003.8z M-199.6,1002.8c0.2-0.3,0.4-0.6,0.6-0.8C-199.2,1002.3-199.4,1002.5-199.6,1002.8z
			 M-202.8,1006.8c-0.3,0.3-0.6,0.5-0.8,0.8C-203.3,1007.3-203.1,1007-202.8,1006.8z"/>
	</g>
</g>
<g>
	<g>
		<path class="st0" d="M-217.7,937.5h-9.3v-1.9c0-1.6-0.1-2.6-0.3-3c-0.2-0.4-0.6-0.6-1.4-0.6c-0.6,0-1,0.2-1.3,0.6
			c-0.3,0.4-0.4,1-0.4,1.8c0,1.1,0.1,1.8,0.2,2.3c0.1,0.5,0.6,1,1.3,1.6s2.3,1.5,4.6,2.6c3.1,1.5,5.1,2.9,6,4.2
			c1,1.3,1.4,3.2,1.4,5.8c0,2.8-0.4,4.9-1.1,6.4c-0.7,1.4-2,2.5-3.7,3.3s-3.8,1.2-6.2,1.2c-2.7,0-5-0.4-6.9-1.3
			c-1.9-0.8-3.2-2-3.9-3.4s-1.1-3.6-1.1-6.5v-1.7h9.3v2.2c0,1.9,0.1,3.1,0.4,3.6c0.2,0.6,0.7,0.8,1.4,0.8s1.3-0.2,1.6-0.6
			c0.3-0.4,0.4-1.2,0.4-2.4c0-1.7-0.2-2.7-0.6-3.1c-0.4-0.4-2.4-1.7-6.1-3.7c-3.1-1.7-5-3.3-5.7-4.7s-1-3.1-1-5.1
			c0-2.8,0.4-4.8,1.1-6.1s2-2.3,3.7-3s3.8-1.1,6.1-1.1c2.3,0,4.3,0.3,5.9,0.9c1.6,0.6,2.8,1.4,3.7,2.3c0.9,1,1.4,1.8,1.6,2.7
			c0.2,0.8,0.3,2.1,0.3,3.8V937.5z"/>
		<path class="st0" d="M-190.3,944.4H-204v7.5c0,1.6,0.1,2.6,0.3,3c0.2,0.5,0.7,0.7,1.3,0.7c0.8,0,1.3-0.3,1.6-0.9
			c0.3-0.6,0.4-1.8,0.4-3.5v-3h10v2.6c0,2.1-0.1,2.2-0.4,3.4c-0.3,1.1-0.9,2.4-1.9,3.7s-2.2,2.3-3.8,2.9c-1.5,0.7-3.4,1-5.7,1
			c-2.2,0-4.2-0.3-5.9-1c-1.7-0.6-3-1.5-4-2.7c-0.9-1.1-1.6-2.4-2-3.7c-0.4-1.3-0.5-3.3-0.5-5.9v-10.1c0-3,0.4-5.4,1.2-7.2
			c0.8-1.7,2.2-3.1,4-4c1.9-0.9,4-1.4,6.4-1.4c3,0,5.4,0.6,7.3,1.7c1.9,1.1,3.3,2.6,4,4.5c0.8,1.9,1.2,4.5,1.2,7.8v4.6L-190.3,944.4
			L-190.3,944.4z M-200.9,938.7v-2.5c0-1.8-0.1-3-0.3-3.5s-0.6-0.8-1.2-0.8c-0.7,0-1.2,0.2-1.4,0.7c-0.2,0.4-0.3,1.6-0.3,3.6v2.5
			C-204.1,938.7-200.9,938.7-200.9,938.7z"/>
		<path class="st0" d="M-176.8,926.4l-0.2,3.3c0.8-1.3,1.8-2.3,2.9-2.9c1.1-0.7,2.4-1,3.9-1c2.8,0,5,1.3,6.7,3.9
			c0.9-1.3,1.9-2.3,3-2.9c1.1-0.7,2.4-1,3.7-1c1.8,0,3.3,0.4,4.5,1.3c1.2,0.9,1.9,1.9,2.3,3.2c0.3,1.3,0.5,3.3,0.5,6.2v24.6h-10.2
			v-22.6c0-3-0.1-4.8-0.3-5.5c-0.2-0.7-0.7-1.1-1.4-1.1s-1.2,0.4-1.5,1c-0.2,0.7-0.3,2.5-0.3,5.5V961h-10.2v-22
			c0-3.4-0.1-5.4-0.2-6.1c-0.2-0.7-0.6-1-1.4-1c-0.5,0-0.9,0.2-1.2,0.5c-0.3,0.4-0.5,0.8-0.5,1.3s-0.1,1.6-0.1,3.3v24H-187v-34.6
			H-176.8L-176.8,926.4z"/>
		<path class="st0" d="M-135.5,926.4l-0.2,3.1c0.9-1.2,2-2.2,3.1-2.8c1.1-0.6,2.4-0.9,3.7-0.9c1.6,0,3,0.4,4.2,1.3
			c1.2,0.9,1.9,1.9,2.2,3c0.3,1.1,0.4,3.1,0.4,5.9v14.6c0,3.2-0.2,5.4-0.6,6.7s-1.1,2.4-2.3,3.2c-1.2,0.8-2.6,1.2-4.2,1.2
			c-1.3,0-2.5-0.3-3.6-0.9c-1.1-0.6-2.1-1.5-3.1-2.7v7.9h-10.6v-39.6H-135.5L-135.5,926.4z M-132.5,936.5c0-2.1-0.1-3.4-0.2-3.9
			c-0.2-0.5-0.6-0.7-1.3-0.7s-1.1,0.3-1.3,0.8c-0.2,0.5-0.3,1.8-0.3,3.8v14.4c0,2.1,0.1,3.4,0.3,3.9c0.2,0.5,0.7,0.8,1.4,0.8
			s1.1-0.2,1.3-0.7c0.2-0.5,0.3-1.6,0.3-3.5v-14.9L-132.5,936.5L-132.5,936.5z"/>
		<path class="st0" d="M-94.9,944.4h-13.7v7.5c0,1.6,0.1,2.6,0.3,3c0.2,0.5,0.7,0.7,1.3,0.7c0.8,0,1.3-0.3,1.6-0.9
			c0.3-0.6,0.4-1.8,0.4-3.5v-3h10v2.6c0,2.1-0.1,2.2-0.4,3.4c-0.3,1.1-0.9,2.4-1.9,3.7s-2.2,2.3-3.8,2.9c-1.5,0.7-3.4,1-5.7,1
			c-2.2,0-4.2-0.3-5.9-1c-1.7-0.6-3-1.5-4-2.7c-0.9-1.1-1.6-2.4-2-3.7c-0.4-1.3-0.5-3.3-0.5-5.9v-10.1c0-3,0.4-5.4,1.2-7.2
			c0.8-1.7,2.2-3.1,4-4c1.9-0.9,4-1.4,6.4-1.4c3,0,5.4,0.6,7.3,1.7c1.9,1.1,3.3,2.6,4.1,4.5c0.8,1.9,1.2,4.5,1.2,7.8L-94.9,944.4
			L-94.9,944.4z M-105.5,938.7v-2.5c0-1.8-0.1-3-0.3-3.5s-0.6-0.8-1.2-0.8c-0.7,0-1.2,0.2-1.4,0.7c-0.2,0.4-0.3,1.6-0.3,3.6v2.5
			C-108.7,938.7-105.5,938.7-105.5,938.7z"/>
		<path class="st0" d="M-81.3,926.4l-0.4,4.6c1.5-3.3,3.8-5,6.7-5.2V938c-1.9,0-3.4,0.3-4.3,0.8c-0.9,0.5-1.5,1.2-1.7,2.2
			c-0.2,0.9-0.3,3.1-0.3,6.4v13.7h-10.6v-34.7H-81.3z"/>
	</g>
</g>
<g>
	<g>
		<path class="st0" d="M-109.8,969.4v7.1h-13.8v7.6c1.7-2,3.9-3.1,6.7-3.1c3.1,0,5.4,0.9,7,2.6c1.6,1.7,2.4,5,2.4,9.9v6.4
			c0,3.2-0.2,5.5-0.5,7c-0.3,1.5-1,2.8-1.9,4.1c-1,1.3-2.4,2.2-4.1,2.9c-1.8,0.7-3.9,1-6.5,1c-2.9,0-5.4-0.5-7.6-1.5
			c-2.2-1-3.7-2.5-4.7-4.5c-0.9-2-1.4-3.1-1.4-7.2v-2.4h11.1v2.8c0,2.9,0.1,2.9,0.3,4.1c0.2,1.2,0.9,1.8,2.1,1.8
			c0.5,0,1-0.2,1.3-0.5c0.3-0.3,0.5-0.7,0.6-1.1c0-0.4,0.1-2.2,0.1-5.3v-8.8c0-1.7-0.2-2.8-0.5-3.4c-0.3-0.6-0.9-0.9-1.7-0.9
			c-0.5,0-0.9,0.2-1.3,0.5c-0.3,0.3-0.6,0.6-0.7,1s-0.2,1.2-0.2,2.5h-11l0.5-22.5L-109.8,969.4L-109.8,969.4L-109.8,969.4z"/>
	</g>
	<g>
		<path class="st0" d="M-75.9,969.4l-6.7,20.1l7.3,24.5h-12l-4.7-19.1v19.1h-11.6v-44.6H-92v17.3l5.2-17.3H-75.9z"/>
	</g>
</g>
</svg>
