<?xml version="1.0" encoding="utf-8"?>
<!-- Generator: Adobe Illustrator 19.0.0, SVG Export Plug-In . SVG Version: 6.00 Build 0)  -->
<!DOCTYPE svg PUBLIC "-//W3C//DTD SVG 1.1//EN" "http://www.w3.org/Graphics/SVG/1.1/DTD/svg11.dtd">
<svg version="1.1" id="Layer_1" xmlns="http://www.w3.org/2000/svg" xmlns:xlink="http://www.w3.org/1999/xlink" x="0px" y="0px"
	 viewBox="-107 139.4 184.8 122.6" enable-background="new -107 139.4 184.8 122.6" xml:space="preserve">
<path fill="#FED130" d="M-103.2,201.9c0,1.4,0,2.5-0.1,3.4c-0.1,0.9-0.1,1.5-0.1,1.9c0,1.3,1.5,2.6,4.6,3.8c3.1,1.2,6.1,1.8,9,1.8
	c4.1,0,7.9-1.2,11.4-3.7s5.2-6,5.2-10.5c0-3.2-1.1-6.1-3.2-8.9c-2.1-2.8-6.4-6.5-12.9-11c-3.3-2.4-5.4-4.2-6.2-5.4s-1.2-2.4-1.2-3.6
	c0-1.7,0.9-3.3,2.8-4.7c1.8-1.4,4-2.1,6.6-2.1c2.3,0,4.2,0.6,5.7,1.9c1.6,1.2,2.3,3,2.3,5.3c0,0.4,0.2,0.8,0.6,1.2s0.7,0.5,1.1,0.5
	c1.1,0,1.6-0.8,1.6-2.3c-0.1-0.7-0.1-1.1-0.1-1.4c0-0.9,0-1.6,0-2c0-0.5,0-0.8,0-1c0-1.5-1.3-2.8-3.9-4c-2.6-1.1-5-1.7-7.3-1.7
	c-4,0-7.5,1.1-10.6,3.3c-3.1,2.2-4.6,5-4.6,8.4c0,2.1,0.5,3.9,1.4,5.6c0.9,1.6,2.1,3,3.5,4.2c1.4,1.2,3.3,2.6,5.7,4.3
	c5.8,4.2,9.5,7.2,10.8,9.1c1.4,1.9,2.1,3.7,2.1,5.4c0,2.8-1,5.1-3.1,6.9c-2,1.8-4.6,2.6-7.7,2.6s-5.5-0.8-7.3-2.4
	c-1.7-1.6-2.8-3.9-3-6.7c-0.1-1.7-0.8-2.6-1.9-2.6c-1,0-1.5,0.4-1.5,1.3c0,0.2,0,0.7,0.1,1.3C-103.3,200.9-103.2,201.5-103.2,201.9z
	"/>
<path fill="#FED130" d="M-67,212.1h20c0.8,0,1.3-0.1,1.5-0.3c0.2-0.2,0.3-0.6,0.3-1.3c0-0.2,0-0.7-0.1-1.4c0-0.7-0.1-1.3-0.1-1.9
	s-0.1-1-0.4-1.4c-0.3-0.3-0.6-0.5-1-0.5s-0.7,0.2-1,0.6s-0.4,0.9-0.4,1.5c0,0.7-0.2,1.3-0.7,1.7c-0.4,0.4-1.1,0.7-1.9,0.7h-8.5
	c-1,0-1.8-0.1-2.2-0.4c-0.3-0.4-0.5-1-0.5-1.8v-15.8c0-0.5,0.2-0.8,0.6-1.1c0.4-0.2,0.9-0.4,1.5-0.4h6.6c0.8,0,1.3,0.1,1.6,0.4
	s0.5,0.7,0.5,1.3c0,0.5,0.1,0.9,0.3,1.3c0.2,0.3,0.5,0.5,0.9,0.5c0.3,0,0.6-0.1,0.9-0.4c0.2-0.2,0.4-0.6,0.4-0.9
	c0-0.1-0.1-0.6-0.2-1.3c-0.1-0.7-0.2-1.4-0.2-2c0-0.4,0.1-0.9,0.2-1.6c0.1-0.7,0.2-1.2,0.2-1.5c0-0.4-0.1-0.7-0.3-0.9
	s-0.5-0.3-0.8-0.3s-0.6,0.1-0.8,0.3s-0.3,0.4-0.3,0.7c0,0.5-0.1,1-0.4,1.5c-0.3,0.4-0.7,0.7-1.2,0.7h-6.6c-1,0-1.7-0.2-2-0.6
	c-0.3-0.4-0.5-1.2-0.5-2.4v-5.2c0-0.6,0.1-1.1,0.4-1.5c0.3-0.3,1-0.5,2.2-0.5h6.8c0.4,0,0.8,0.1,1.1,0.3s0.6,0.7,0.9,1.5
	c0.3,0.8,0.6,1.3,0.8,1.4c0.2,0.2,0.5,0.3,0.8,0.3c0.5,0,0.8-0.3,0.8-1c0-1.4-0.1-2.4-0.2-3c-0.1-0.6-0.3-1.1-0.5-1.4
	c-0.2-0.3-0.7-0.5-1.5-0.5h-19.5c-0.4,0-0.8,0.1-1.1,0.4c-0.2,0.2-0.4,0.5-0.4,0.8c0,0.4,0.2,0.6,0.5,0.9c0.3,0.2,0.8,0.3,1.4,0.3
	c1,0,1.7,0.1,2,0.3s0.5,0.7,0.6,1.5s0.1,2.4,0.1,4.9v22.8c0,0.8-0.2,1.5-0.5,1.8c-0.4,0.4-1.1,0.6-2.4,0.6c-0.9,0-1.4,0.3-1.4,1
	c0,0.4,0.3,0.7,0.8,1C-69.4,212-68.4,212.1-67,212.1z"/>
<path fill="#FED130" d="M-42.8,178.1c0.8,0.1,1.4,0.4,1.8,0.9s0.6,1.1,0.6,1.7v25.9c0,1.9-0.8,2.8-2.4,2.8c-0.5,0-1,0.1-1.4,0.3
	c-0.4,0.2-0.6,0.5-0.6,0.8c0,0.3,0.2,0.6,0.5,0.9s0.8,0.4,1.3,0.4c0.4,0,1-0.1,1.8-0.3c0.9-0.2,1.6-0.3,2-0.3s1,0.1,1.9,0.3
	c0.9,0.2,1.5,0.3,1.7,0.3c1.2,0,1.8-0.4,1.8-1.1c0-0.8-0.7-1.2-2.1-1.2c-0.5,0-1-0.2-1.5-0.6c-0.5-0.4-0.6-0.8-0.6-1.5v-21
	c0-0.9,0-1.3,0.1-1.3s0.4,0.4,0.8,1.3l9.3,18.3c0.3,0.6,0.7,1,1.1,1c0.2,0,0.4-0.1,0.5-0.2s0.2-0.3,0.3-0.4c0.1-0.2,0.8-1.5,2.1-3.9
	c1.3-2.4,2.8-5.2,4.4-8.4l3.8-7.5c0.4-0.9,0.7-1.3,0.8-1.3c0.1,0,0.1,0.5,0.1,1.4v21.3c0,1.2-0.2,1.9-0.5,2.3
	c-0.3,0.3-1.1,0.5-2.3,0.7c-0.5,0-0.9,0.1-1.1,0.3c-0.2,0.1-0.3,0.4-0.3,0.8c0,0.8,0.5,1.2,1.6,1.2c0.5,0,1.4-0.1,2.5-0.2
	c1.2-0.2,2-0.2,2.5-0.2c0.7,0,1.6,0.1,2.6,0.2c1,0.2,1.7,0.2,2.1,0.2c0.5,0,0.8-0.1,1.1-0.3c0.3-0.2,0.4-0.5,0.4-0.8
	s-0.1-0.5-0.3-0.7c-0.2-0.2-0.7-0.4-1.7-0.6c-1-0.2-1.6-0.5-1.9-1.1c-0.3-0.5-0.5-1.1-0.5-1.8v-25.6c0-0.8,0.1-1.4,0.2-1.6
	c0.1-0.2,0.4-0.6,1-1.1c0.5-0.5,1.2-0.8,1.9-0.8c0.9,0,1.3-0.3,1.3-0.9c0-0.7-0.4-1.1-1.3-1.1c-0.1,0-0.4,0-0.8,0.1s-0.7,0.1-1,0.1
	s-0.7,0-1.2-0.1s-0.9-0.1-1.2-0.1c-0.5,0-1,0.2-1.4,0.5c-0.4,0.3-1,1.1-1.6,2.3c-2,4-5.6,10.9-10.7,20.4c-0.2,0.4-0.3,0.5-0.4,0.5
	s-0.2-0.2-0.4-0.6l-4.7-9.5l-5.6-11.4c-0.4-0.9-0.8-1.6-1-1.9s-0.6-0.5-1-0.5c-0.3,0-0.7,0.1-1.2,0.2c-0.5,0.1-0.9,0.2-1.2,0.2
	c-0.3,0-0.7-0.1-1.2-0.2c-0.5-0.1-0.9-0.2-1.3-0.2c-0.3,0-0.7,0.1-1,0.3s-0.5,0.4-0.5,0.7s0.1,0.6,0.4,0.9
	C-44.1,177.8-43.6,178-42.8,178.1z"/>
<path fill="#FED130" d="M-3.5,178c1.8,0,2.7,0.7,2.7,2v26.9c0,0.7-0.2,1.4-0.5,1.9s-0.9,0.8-1.8,0.9s-1.5,0.2-1.6,0.3
	c-0.2,0.2-0.2,0.3-0.2,0.6c0,0.8,0.7,1.2,2.1,1.2c0.4,0,1.1-0.2,2-0.5c1-0.3,1.7-0.5,2.2-0.5c0.3,0,1.1,0.2,2.3,0.5
	c1.2,0.3,2,0.5,2.4,0.5c1.4,0,2-0.3,2-1c0-0.4-0.1-0.7-0.4-0.9c-0.3-0.2-0.8-0.3-1.6-0.3c-1.7,0-2.5-0.6-2.5-1.9v-26.4
	c0-1,0-1.7,0.1-2.2s0.3-0.8,0.7-1c0.4-0.2,1-0.4,1.9-0.4c2.4,0,4.4,0.7,5.8,2.1s2.2,3.1,2.2,4.9c0,2-0.6,3.5-1.8,4.6
	c-1.2,1.1-2.6,1.7-4.4,1.7c-0.4,0-0.8,0-1.3,0s-0.7,0-0.8,0c-0.4,0-0.7,0.1-0.9,0.2c-0.2,0.2-0.3,0.4-0.3,0.6c0,0.9,0.8,1.4,2.4,1.4
	c2.8,0,5-0.4,6.7-1.2c1.7-0.8,3.1-1.7,4-2.8c1-1,1.5-2.5,1.5-4.5c0-2.5-1-4.6-3.1-6.4c-2.1-1.8-5.1-2.7-9-2.7c-1.6,0-3,0.1-4.1,0.3
	c-1.1,0.2-1.9,0.3-2.4,0.3s-1.2-0.1-2-0.2c-0.8-0.1-1.5-0.2-2.2-0.2c-1.1,0-1.7,0.4-1.7,1.1C-5.2,177.6-4.6,178-3.5,178z"/>
<path fill="#FED130" d="M20.6,177.6c0.3,0.2,0.8,0.3,1.4,0.3c1,0,1.7,0.1,2,0.3s0.5,0.7,0.6,1.5s0.1,2.4,0.1,4.9v22.8
	c0,0.8-0.2,1.5-0.5,1.8c-0.4,0.4-1.1,0.6-2.4,0.6c-0.9,0-1.4,0.3-1.4,1c0,0.4,0.3,0.7,0.8,1c0.5,0.2,1.5,0.3,2.9,0.3h20.1
	c0.8,0,1.3-0.1,1.5-0.3c0.2-0.2,0.3-0.6,0.3-1.3c0-0.2,0-0.7-0.1-1.4c0-0.7-0.1-1.3-0.1-1.9c0-0.6-0.1-1-0.4-1.4
	c-0.3-0.3-0.6-0.5-1-0.5s-0.7,0.2-1,0.6c-0.3,0.4-0.4,0.9-0.4,1.5c0,0.7-0.2,1.3-0.7,1.7c-0.4,0.4-1.1,0.7-1.9,0.7h-8.5
	c-1,0-1.8-0.1-2.2-0.4s-0.6-0.8-0.6-1.7v-15.9c0-0.5,0.2-0.8,0.6-1.1c0.4-0.2,0.9-0.4,1.5-0.4h6.6c0.8,0,1.3,0.1,1.6,0.4
	s0.5,0.7,0.5,1.3c0,0.5,0.1,0.9,0.3,1.3c0.2,0.3,0.5,0.5,0.9,0.5c0.3,0,0.6-0.1,0.9-0.4c0.2-0.2,0.4-0.6,0.4-0.9
	c0-0.1-0.1-0.6-0.2-1.3c-0.1-0.7-0.2-1.4-0.2-2c0-0.4,0.1-0.9,0.2-1.6c0.1-0.7,0.2-1.2,0.2-1.5c0-0.4-0.1-0.7-0.3-0.9
	s-0.5-0.3-0.8-0.3s-0.6,0.1-0.8,0.3s-0.3,0.4-0.3,0.7c0,0.5-0.1,1-0.4,1.5c-0.3,0.4-0.7,0.7-1.2,0.7H32c-1,0-1.7-0.2-2-0.6
	c-0.3-0.4-0.5-1.2-0.5-2.4v-5.2c0-0.6,0.1-1.1,0.4-1.5c0.3-0.3,1-0.5,2.2-0.5h6.8c0.4,0,0.8,0.1,1.1,0.3s0.6,0.7,0.9,1.5
	c0.3,0.8,0.6,1.3,0.8,1.4c0.2,0.2,0.5,0.3,0.8,0.3c0.5,0,0.8-0.3,0.8-1c0-1.4-0.1-2.4-0.2-3c-0.1-0.6-0.3-1.1-0.5-1.4
	c-0.2-0.3-0.7-0.5-1.5-0.5H22c-0.4,0-0.8,0.1-1.1,0.4c-0.3,0.2-0.4,0.5-0.4,0.8C20.1,177.1,20.2,177.4,20.6,177.6z"/>
<path fill="#FED130" d="M48.3,177.9c1.7,0.1,2.6,0.8,2.6,2v28.3c0,0.4-0.2,0.7-0.6,1c-0.4,0.3-0.9,0.4-1.5,0.4c-1,0-1.6,0.1-1.8,0.3
	c-0.2,0.2-0.4,0.4-0.4,0.8c0,1,0.8,1.4,2.3,1.4c0.5,0,1.3-0.2,2.2-0.5c0.9-0.4,1.6-0.5,2.1-0.5s1.3,0.2,2.2,0.6
	c0.9,0.4,1.7,0.6,2.4,0.6s1.2-0.1,1.6-0.4c0.4-0.3,0.5-0.6,0.5-1c0-0.4-0.1-0.7-0.4-0.9c-0.3-0.2-0.8-0.3-1.7-0.3
	c-0.8,0-1.4-0.2-1.9-0.5s-0.7-0.8-0.7-1.3v-28.1c0-0.5,0.1-0.9,0.2-1.2s0.4-0.6,0.8-0.8c0.4-0.2,1.1-0.3,2-0.3
	c2.4,0,4.3,0.7,5.7,2.2s2.1,3,2.1,4.4c0,2.1-0.6,3.7-1.8,4.9s-2.7,1.8-4.6,1.8c-0.4,0-0.7,0-1.1-0.1c-0.4-0.1-0.6-0.1-0.7-0.1
	c-0.9,0-1.3,0.4-1.3,1.1c0,0.3,0,0.5,0.1,0.6c0.1,0.1,0.2,0.2,0.4,0.3c0.9,0.4,1.7,1.2,2.6,2.5c0.2,0.3,1.2,1.9,2.9,4.7
	c3.6,5.9,5.7,9.3,6.3,10.1c0.3,0.4,1.1,0.9,2.2,1.5c1.1,0.6,2,0.9,2.8,0.9c0.3,0,0.7-0.1,1.2-0.4c0.5-0.3,0.7-0.6,0.7-1
	c0-0.3-0.1-0.6-0.3-0.8c-0.2-0.2-0.6-0.5-1.4-0.7c-0.7-0.2-1.2-0.5-1.3-0.6c-0.2-0.2-1.5-2.4-4-6.7c-2.5-4.3-4.2-7.1-5.1-8.4
	c-0.2-0.3-0.3-0.5-0.3-0.6c0-0.2,0.2-0.4,0.7-0.6c2.6-1,4.4-2.1,5.4-3.2c1.1-1.2,1.6-2.6,1.6-4.4c0-2.8-1.1-5.1-3.2-6.8
	c-2.1-1.8-4.9-2.6-8.3-2.6c-0.9,0-2.2,0.1-3.8,0.3c-1.7,0.2-2.7,0.3-3,0.3c-0.5,0-1.2-0.1-2-0.2c-0.8-0.1-1.5-0.2-2.1-0.2
	c-1.4,0-2,0.4-2,1.1C46.5,177.4,47.1,177.8,48.3,177.9z"/>
<path fill="#FED130" d="M-48.9,226.5c-2.5-1.1-4.6-1.6-6.4-1.6c-1.4,0-2.9,0.2-4.3,0.7c-1.4,0.5-2.7,1.1-3.7,1.9
	c-0.1,0.1-0.3,0.2-0.4,0.2c-0.3,0-0.4-0.2-0.4-0.6V221c0-0.4,0.1-0.6,0.4-0.6c0.1,0,0.8,0.1,2,0.4c1.2,0.2,2.4,0.4,3.6,0.4
	c2.9,0,5.3-0.6,7.1-1.7s2.8-2.1,2.8-3c0-0.3-0.1-0.5-0.3-0.7s-0.4-0.3-0.6-0.3c-0.5,0-1,0.1-1.5,0.4c-0.5,0.3-1,0.4-1.5,0.4h-12.8
	c-1.5,0-2.2,0.7-2.2,2.1v7.7c0,2.8-0.1,4.9-0.4,6.1c-0.1,0.5-0.2,0.9-0.2,1.3c0,0.9,0.3,1.4,1,1.4c0.3,0,0.6-0.1,0.8-0.2
	c0.3-0.2,0.7-0.6,1.2-1.3c2.6-3.6,5.4-5.3,8.4-5.3c2.2,0,4.5,1.3,6.8,4c2.3,2.7,3.5,6,3.5,10.1s-0.7,7.4-2.1,9.7
	c-1.4,2.3-3.1,4.1-5.2,5.2c-2,1.2-4,1.8-5.8,1.8c-1.2,0-2.4-0.2-3.6-0.7c-1.2-0.5-2.8-1.4-4.5-2.9c-1.1-0.9-1.8-1.4-2.2-1.4
	c-0.3,0-0.6,0.1-0.8,0.4c-0.2,0.3-0.3,0.5-0.3,0.8c0,0.5,0.5,1.3,1.6,2.5c1.1,1.2,2.6,2.2,4.5,3c1.9,0.8,4.1,1.3,6.5,1.3
	c2.6,0,5.4-0.8,8.4-2.4s5.5-3.9,7.3-6.8c1.8-3,2.7-6.4,2.7-10.4c0-4.5-1-8-2.9-10.5C-44.2,229.4-46.4,227.6-48.9,226.5z"/>
<polygon fill="#FED130" points="30.4,156.5 32.1,160.1 33.9,156.6 37.9,156.1 35.1,153.3 35.9,149.3 32.3,151.1 28.8,149.2 
	29.4,153.1 26.4,155.8 "/>
<polygon fill="#FED130" points="7.6,150.3 9.2,154 11.1,150.4 15.1,149.9 12.3,147.1 13.1,143.1 9.5,144.9 6,143 6.5,146.9 
	3.6,149.7 "/>
<polygon fill="#FED130" points="-14.3,146.8 -12.6,150.4 -10.8,146.8 -6.8,146.4 -9.6,143.5 -8.8,139.6 -12.4,141.3 -15.9,139.4 
	-15.3,143.4 -18.3,146.1 "/>
<polygon fill="#FED130" points="-35.7,149.7 -34.1,153.4 -32.2,149.8 -28.2,149.3 -31,146.5 -30.2,142.5 -33.8,144.3 -37.3,142.4 
	-36.8,146.3 -39.7,149.1 "/>
<polygon fill="#FED130" points="-57.6,156.6 -55.9,160.3 -54,156.7 -50,156.2 -52.8,153.4 -52.1,149.5 -55.7,151.2 -59.2,149.3 
	-58.6,153.2 -61.5,156 "/>
<path fill="#FED130" d="M-30.5,228.9c0.3-0.6,0.8-0.9,1.4-1c0.7-0.1,1.1-0.3,1.3-0.4c0.2-0.2,0.3-0.4,0.3-0.9c0-0.7-0.4-1-1.2-1
	c-0.5,0-1.2,0.1-2.2,0.2s-1.7,0.2-2.2,0.2s-1.3-0.1-2.4-0.2c-1-0.2-1.8-0.2-2.3-0.2c-0.3,0-0.6,0.1-0.8,0.3
	c-0.2,0.2-0.3,0.4-0.3,0.6c0,0.4,0.1,0.7,0.3,0.9c0.2,0.2,0.6,0.3,1.2,0.5s1.1,0.4,1.4,0.8c0.4,0.4,0.6,1,0.6,2v25.7
	c0,0.7-0.1,1.3-0.4,1.9c-0.3,0.6-0.8,0.9-1.6,1.1c-0.8,0.1-1.3,0.3-1.4,0.5s-0.2,0.4-0.2,0.6c0,0.8,0.6,1.2,1.9,1.2
	c0.4,0,1.1-0.1,2-0.2c0.9-0.1,1.5-0.2,2-0.2s1.1,0.1,2,0.2c0.9,0.2,1.6,0.2,2,0.2c1,0,1.5-0.3,1.5-0.9c0-0.3-0.1-0.6-0.2-0.8
	c-0.2-0.2-0.6-0.4-1.4-0.6c-0.8-0.2-1.3-0.5-1.5-0.9c-0.2-0.4-0.3-0.8-0.3-1.3v-25.8C-30.9,230.3-30.8,229.5-30.5,228.9z"/>
<path fill="#FED130" d="M8,225.7c-0.3-0.3-0.8-0.4-1.3-0.4s-1.1,0.1-1.8,0.2c-0.7,0.2-1.4,0.2-2,0.2c-0.9,0-1.7-0.1-2.6-0.2
	c-0.8-0.2-1.5-0.2-1.9-0.2c-0.5,0-1,0.1-1.2,0.3c-0.3,0.2-0.4,0.5-0.4,0.8c0,0.5,0.1,0.9,0.4,1c0.3,0.2,0.8,0.3,1.5,0.3
	c1.3,0.1,1.9,0.5,1.9,1.2c0,0.3-0.1,0.8-0.3,1.3l-7.7,22.1l-0.3,0.5l-0.3-0.6l-8.3-21.7c-0.2-0.5-0.3-0.9-0.3-1.3
	c0-0.9,0.8-1.4,2.3-1.4c0.7,0,1.2-0.1,1.6-0.3c0.3-0.2,0.5-0.6,0.5-1.1c0-0.9-0.9-1.4-2.7-1.4c-0.3,0-1.1,0.1-2.4,0.4
	c-1.3,0.2-2.1,0.4-2.5,0.4s-1.1-0.1-2.2-0.3c-1.1-0.2-2-0.3-2.7-0.3c-1.1,0-1.6,0.4-1.6,1.1c0,0.5,0.2,0.9,0.6,1.2s1,0.4,1.7,0.4
	c1.3,0,2.3,0.8,3,2.5l11,29.8c0,0.1,0.1,0.3,0.2,0.7s0.3,0.7,0.5,0.8c0.2,0.2,0.4,0.2,0.6,0.2s0.4-0.1,0.6-0.2
	c0.2-0.1,0.3-0.4,0.4-0.7c0.1-0.4,0.2-0.6,0.2-0.7l10-28.7c0.5-1.4,1.1-2.4,1.7-2.9s1.3-0.8,2.1-0.8c0.6,0,1.2-0.1,1.6-0.3
	c0.4-0.2,0.6-0.5,0.6-1.1C8.4,226.3,8.3,225.9,8,225.7z"/>
<path fill="#FED130" d="M34.2,256.8c0-0.6-0.1-1-0.4-1.4c-0.3-0.3-0.6-0.5-1-0.5s-0.7,0.2-1,0.6c-0.3,0.4-0.4,0.9-0.4,1.5
	c0,0.7-0.2,1.3-0.7,1.7c-0.4,0.4-1.1,0.7-1.9,0.7h-8.5c-1,0-1.8-0.1-2.2-0.4c-0.4-0.3-0.6-0.8-0.6-1.7v-15.9c0-0.5,0.2-0.8,0.6-1.1
	c0.4-0.2,0.9-0.4,1.5-0.4h6.6c0.8,0,1.3,0.1,1.6,0.4c0.3,0.3,0.5,0.7,0.5,1.3c0,0.5,0.1,0.9,0.3,1.3c0.2,0.3,0.5,0.5,0.9,0.5
	c0.3,0,0.6-0.1,0.9-0.4c0.2-0.2,0.4-0.6,0.4-0.9c0-0.1-0.1-0.6-0.2-1.3c-0.1-0.7-0.2-1.4-0.2-2c0-0.4,0.1-0.9,0.2-1.6
	c0.1-0.7,0.2-1.2,0.2-1.5c0-0.4-0.1-0.7-0.3-0.9c-0.2-0.2-0.5-0.3-0.8-0.3s-0.6,0.1-0.8,0.3c-0.2,0.2-0.3,0.4-0.3,0.7
	c0,0.5-0.1,1-0.4,1.5c-0.3,0.4-0.7,0.7-1.2,0.7h-7c-1,0-1.7-0.2-2-0.6s-0.5-1.2-0.5-2.4v-5.3c0-0.6,0.1-1.1,0.4-1.5
	c0.3-0.3,1-0.5,2.2-0.5h6.8c0.4,0,0.8,0.1,1.1,0.3s0.6,0.7,0.9,1.5c0.3,0.8,0.6,1.3,0.8,1.4c0.2,0.2,0.5,0.3,0.8,0.3
	c0.5,0,0.8-0.3,0.8-1c0-1.4-0.1-2.4-0.2-3c-0.1-0.6-0.3-1.1-0.5-1.4s-0.7-0.5-1.5-0.5H10c-0.4,0-0.8,0.1-1.1,0.4
	c-0.3,0.2-0.4,0.5-0.4,0.8c0,0.4,0.2,0.6,0.5,0.9c0.3,0.2,0.8,0.3,1.4,0.3c1,0,1.7,0.1,2,0.3c0.3,0.2,0.5,0.7,0.6,1.5
	s0.1,2.4,0.1,4.9v22.7c0,0.8-0.2,1.5-0.5,1.8c-0.4,0.4-1.1,0.6-2.4,0.6c-0.9,0-1.4,0.3-1.4,1c0,0.4,0.3,0.7,0.8,1
	c0.5,0.2,1.5,0.3,2.9,0.3h20.1c0.8,0,1.3-0.1,1.5-0.3c0.2-0.2,0.3-0.6,0.3-1.3c0-0.2,0-0.7-0.1-1.4C34.2,258,34.2,257.4,34.2,256.8z
	"/>
<rect x="-41.8" y="217.4" fill="#FED130" width="119.6" height="1.3"/>
<rect x="-107" y="217.4" transform="matrix(1 1.407381e-03 -1.407381e-03 1 0.3068 0.1254)" fill="#FED130" width="36.1" height="1.3"/>
</svg>
