<?xml version="1.0" encoding="utf-8"?>
<!-- Generator: Adobe Illustrator 19.0.0, SVG Export Plug-In . SVG Version: 6.00 Build 0)  -->
<svg version="1.1" id="tower" xmlns="http://www.w3.org/2000/svg" xmlns:xlink="http://www.w3.org/1999/xlink" x="0px" y="0px"
	 viewBox="12 512.4 620.3 453.3" style="enable-background:new 12 512.4 620.3 453.3;" xml:space="preserve">
<style type="text/css">
	.st0{fill:#FED130;}
</style>
<g id="text">
	<path class="st0" d="M104.2,904.8c0,6.1,1.2,11.2,3.6,15.4c2.4,4.3,7.8,7.3,16.1,9.2s13.4,4.1,15.2,6.5s2.7,5.3,2.7,8.7
		c0,3.2-1.3,6-4,8.4s-6.3,3.6-11,3.6c-2.7,0-8.6-0.7-17.7-2.1c-9.2-1.4-18-2.1-26.4-2.1c-13.6,0-23.9,0.7-30.9,2.1
		c-7,1.4-11.2,2.1-12.6,2.1c-10.2,0-15.3-5.5-15.3-16.5c0-2.8,0.8-5.1,2.4-7s6.5-3.4,14.7-4.6c8.2-1.2,13.7-4.3,16.5-9.2
		c2.7-4.9,4.1-10.9,4.1-17.9l0.5-266.5c0-6.4-1.3-11.3-3.9-14.7c-2.6-3.4-5-5.1-7.2-5.1c-3.3,0-8,2.7-14.2,8.1S26,631.3,23,631.3
		c-7.3-0.2-11-4.8-11-14c0-3.4,2.5-7.6,7.5-12.5c5-4.9,14.1-12.7,27.4-23.5l27.6-23.2c12.6-10.4,20.9-16.9,24.7-19.6
		c3.9-2.6,7.4-4,10.6-4c5.2,0,7.8,3.2,7.8,9.6c0,4.5-1.6,9.8-4.9,15.9c-6,11-8.9,23.3-8.9,37.1l1.4,228.2L104.2,904.8z"/>
	<path class="st0" d="M289.5,652.1c-1.1,2.1-1.6,3.6-1.6,4.5c0,0.9,1,1.4,3.1,1.4c8-0.8,12.9-1.1,14.6-1.1c29,0,52.6,13.2,70.8,39.6
		s27.3,57.3,27.3,92.6c0,30.8-9.2,61-27.5,90.6c-18.4,29.6-39.8,51.4-64.4,65.2c-24.6,13.9-49.1,20.8-73.5,20.8
		c-11,0-23.5-2.5-37.6-7.6s-26.7-13.5-37.8-25.3s-16.6-22-16.6-30.7c0-3.3,1-6,2.9-8.1s4-3.2,6.2-3.2c3.7,0,8.6,4.2,14.7,12.5
		c10.7,14.4,21.5,23.7,32.6,27.9c11,4.2,22.3,6.3,33.7,6.3c17.9,0,36.2-6.4,54.7-19.1c18.6-12.8,33.2-30.9,44-54.5
		s16.2-51.3,16.2-83c0-10-2.6-23-7.8-38.8c-5.2-15.9-12.6-28.8-22.3-38.7c-9.7-9.9-21-14.9-34.1-14.9c-9.6,0-18.6,2.5-27,7.4
		s-13.6,7.4-15.4,7.4c-3.8,0-5.7-2.4-5.7-7.3c0-4.3,1.7-9.4,5.2-15.2l42.8-75.2c1.7-3,2.6-6.3,2.6-9.9c0-3.8-1.5-5.6-4.5-5.6h-68
		c-4.2,0-8.4,3.2-12.6,9.5c-4.2,6.3-7.8,9.5-10.9,9.5c-5.8,0-8.7-7.4-8.7-22.1c0-6.2,0.5-12,1.4-17.4s1.4-9.3,1.4-11.7
		c0-11.1,5.2-16.7,15.5-16.7h139.3c12.4,0,18.6,3.1,18.6,9.4c0,2.8-0.7,5.4-2.1,7.7c-1.4,2.3-6.2,5.5-14.4,9.8
		c-8.2,4.3-14.1,9.9-17.9,16.9L289.5,652.1z"/>
	<path class="st0" d="M419.9,898.6c6.7,0,12.5,2.7,17.3,8.2s7.3,12.6,7.3,21.2c0,8.9-2.3,15.8-7,20.8s-10.2,7.5-16.6,7.5
		c-5.6,0-11.2-2.9-16.9-8.6c-5.6-5.8-8.4-12.3-8.4-19.7c0-7.9,2.4-14.8,7.3-20.7C407.7,901.5,413.4,898.6,419.9,898.6z"/>
</g>
<path class="st0" d="M532,579.7c0,0.6,0,1.3,0,1.9c-1,0.4-1.8,1.1-2.8,0.6c0-0.8-0.2-1.5-0.6-1.9C529.3,578.7,530.3,579.4,532,579.7
	z"/>
<path class="st0" d="M526.7,584.4c1.1-0.2,1.5,0.4,2.2,0.6c0.3,1.7-0.6,2.3-1.9,2.5C526.5,586.9,526,585.2,526.7,584.4z"/>
<path class="st0" d="M520.7,606.6c1.2-0.2,1.2,1.5,0,1.3C520.7,607.5,520.7,607.1,520.7,606.6z"/>
<path class="st0" d="M536.1,691.7c0,0.7-0.8,0.7-1.6,0.6C534.3,691.2,535.6,691.2,536.1,691.7z"/>
<path class="st0" d="M515.4,708c0.5,0,1,0,1.6,0c-0.8,0.8-1.9,0.6-1.3,2.2c-0.6,0-0.7,0.4-1.3,0.3C514.8,709.7,515.2,709,515.4,708z
	"/>
<path class="st0" d="M506.9,717.1c0.2,0.7,0.5-0.4,0.9,0.3c0.1,0.7-1.1,0.1-1.6,0.3c0-0.3,0-0.6,0-0.9c0.3,0,0.6,0,0.9,0
	C507.3,717,507.1,717,506.9,717.1z"/>
<path class="st0" d="M580.3,737.1c0.5-0.5,1.6,0,1.6,0.9C581.1,738,580.2,738,580.3,737.1z"/>
<path class="st0" d="M520.1,746.2c-0.1,0.4-0.6,0.3-0.9,0.3c0.2,0.3,0.3,0.5,0.3,0.9C517.9,747.5,519.3,745,520.1,746.2z"/>
<path class="st0" d="M521.9,775.7c-0.2,0.9-0.6,1.7-0.9,2.5c-1.2-0.5,0.9-2.7-0.6-2.5C520.6,774.6,521.5,775.4,521.9,775.7z"/>
<path class="st0" d="M523.5,777.9c0,0.1-0.4,1.7-1.3,0.6c-1.3,0,0.2,2.9-1.6,2.5c-0.1-1.5,0.5-2.5,1.3-3.8c0.5,1,1,0.2,2.2,0.3
	c0,0.5,0,1,0,1.6c-0.4-0.1-0.6,0.1-0.6,0.3C522.3,779.1,524.9,778.4,523.5,777.9z"/>
<path class="st0" d="M586.6,805.2c-0.6-0.1-0.6-0.9-1.6-0.6c0.6-0.3,0.3-1.6,1.3-1.6C585.9,804.4,586.3,804,586.6,805.2z"/>
<path class="st0" d="M591.9,809.9c0.8,0.4,0.6,1.1,0.3,1.9C591.6,811.5,591.4,810.4,591.9,809.9z"/>
<path class="st0" d="M509.1,817.8c0.9,0.5-0.3,1.4,0,2.2c-0.6,0-0.7-0.4-1.3-0.3C508.2,819,509.4,819.1,509.1,817.8z"/>
<path class="st0" d="M554.3,819.6c-0.3,0.9-0.3,2.2-0.6,3.1c-0.8-1-1.3-0.2-2.8-0.3c0-0.8,0-1.7,0-2.5
	C551.8,819.3,552.9,819.3,554.3,819.6z"/>
<path class="st0" d="M506.3,822.8c1,0.3-0.1,1.1-0.3,1.3c0,0.3,0.4,0.2,0.6,0.3C505.4,825.6,505.4,823,506.3,822.8z"/>
<path class="st0" d="M509.1,829.4c0.6-0.1,0.6,0.3,0.3,0.3c0.1,0.4,0.4,0.6,0.9,0.6c-0.5,1.4-0.8-0.3-1.9,0
	C508.7,830,509.2,830,509.1,829.4z"/>
<path class="st0" d="M509.1,835.3c-0.5-0.3-0.8-1.1-0.3-1.6c0.6,0.3,0.9,0.8,1.6,0.9C510.1,835.6,509.2,834.1,509.1,835.3z"/>
<path class="st0" d="M552.7,837.8c0.8,1.4,0.1,2,0.3,3.5c-1.6,0-3.1,0-4.7,0c-0.4-0.8-0.2-2.1-1.3-2.2
	C547.9,836.6,550.8,839.1,552.7,837.8z"/>
<path class="st0" d="M584.7,837.8c0,1-1.1,0.8-1.9,0.9C583,838,583.5,838.2,584.7,837.8z"/>
<path class="st0" d="M543.3,841.9c0.8,0.2,1,0.8,1.9,0.9C544.9,843.4,543.1,842.9,543.3,841.9z"/>
<path class="st0" d="M543.3,847.2c0.4,0.3,0.8,0.4,1.6,0.3c-0.1,0.5-1,0.3-0.6,1.3C543.7,848.5,543.1,848.2,543.3,847.2z"/>
<path class="st0" d="M510,849.4c-0.7,0.1-0.8-0.2-1.3-0.3c0.2-0.3,0.3-0.5,0.3-0.9C509.5,848.5,510.3,848.4,510,849.4z"/>
<path class="st0" d="M512.2,849.1c-0.3,0.6-0.9,0.8-0.6,1.9C510,851.2,511,848.9,512.2,849.1z"/>
<path class="st0" d="M485.2,936.3c0.2,1.6-1.8-0.6-1.9,0.3c-0.5-0.1-1.3-2.1,0-1.9C482.5,935.8,484,936.5,485.2,936.3z"/>
<path class="st0" d="M492.1,936.3c0.3-0.4,0.4-0.8,0.3-1.6c0.7-0.1,0.8,0.2,1.3,0.3c-0.7,0.1-0.7,1.5,0,0.6c1.1,0.5-0.7,0.5-0.3,1.3
	C492.9,936.8,492.6,936.5,492.1,936.3z"/>
<path class="st0" d="M500,935.4c1-0.3,0.8-0.1,1.6,0.3c-0.1,0.4-0.6,0.3-0.6,0c-0.3,0.3-0.6,0.6-0.9,0.9
	C499,936.4,500.3,936,500,935.4z"/>
<path class="st0" d="M511.3,936c-0.1,0.5,0.2,0.6,0.6,0.6c-0.6,0.8-1.7,1-2.8,1.3C509.5,936.9,510.5,936.6,511.3,936z"/>
<path class="st0" d="M535.4,515.1c0.7-0.4,0.6-1.7,0.9-2.5c9.2-0.7,11.6,8.1,11.3,16c-0.6,0.5-0.8,1.3-1.6,1.6
	c-0.2,2.8-0.1,5.2-1.6,7.2c2.7,5,12.1,3.2,17.6,3.8c1.3,2.1,4.4,2.9,4.4,6.6c0,2.7,1,6.5,2.2,9.7c1.7,4.6,4.8,8.4,6.6,11.9
	c1.6,3.2-0.2,7-1.9,9.7c-5.8,2-10.2-2.2-15.1-3.1c-3.7,8,1.2,16.8,2.2,24.2c-0.9,7.6,2.3,16.2,3.8,24.2c-0.3-0.1-0.3-0.3-0.6-0.3
	c0.5,8.8,1,17.6,3.8,24.2c1.4-4.9,2.8-9.8,3.5-15.4c1.3,0.4,1-0.7,1.9-0.6c0.7,0.5-0.4,0.8,0.3,0.9c-1.1-2.5-1-5-0.3-9.4
	c1.2,0.6,2.9,0.6,4.4,0.9c-0.5,3.4-1.7,5.7-1.3,9.1c-2.3,5.3-3,12.9-5,19.4c-1,3.3-2.9,6.4-3.1,8.8c-0.8,6.7,2.5,14.1,2.2,22.3
	c1.5,1.5,1.4,4.4,3.5,5.3c-1.8,0.8-3-0.8-5-1.3c0.2-0.3,0.6-0.5,0.9-0.6c-0.3-0.8-0.8-1.5-1.6-1.9c-1,0.5-2.2,0.7-3.1,1.3
	c-1.1,2.3,1.4,3.2,0.6,5c1.4,0,2.7,0,3.5,0.6c-0.3,1.2-1.6,1.5-3.1,1.6c0,0.4,0.1,0.9-0.3,0.9c0,0.7,0.8-0.4,1.6,0
	c0.2-0.7,2.1-1.6,3.5-2.2c-0.1-0.4-0.4-0.6-0.9-0.6c1.3-1,2.5-1.1,3.5-1.9c1.5,0.3,2.6,1.2,3.8,1.9c-0.2,1.2,0.5,1.3,0.3,2.5
	c0.7,0,1.5,0,2.2,0c1.9,3.1,5.4,3.5,4.4,7.8c-0.4,1.6-0.3,4.1,0.3,6.9c0.8,0.8,1.9,1.4,2.2,2.8c-3.2-0.4-2.5-3.8-5.6-5
	c-0.2,2,0.6,1.1,0.6,1.9c-0.9,0.8-1.5-0.8-0.9-1.9c-9.2-0.8-16.1,0-23.8,0c-0.7,0.9,0.4,1.5-0.3,2.2c-1.1,0,0-0.8-1.3-0.9
	c-0.7,0.2,0.4,0.5-0.3,0.9c-4.8,0.2-10.5,0.7-14.1-0.3c-0.9,0,0.7,0.9-0.6,0.6c0.1-1-2.1,0.5-1.3-1.3c-1.2,1-0.9,1.4-3.1,1.3
	c0.4-1.9-0.2-0.3-1.3,0c-2.2,0.6-5.2-1-7.8,0.3c-0.2-0.3-0.3-0.7-0.3-1.3c-0.5,1-2.9,2-3.1,0.3c-2.8,1-2.6-0.7-5.6-0.3
	c1.5-3,0.2-7.9,0.6-12.5c3.2,0.1,7.1-0.2,9.4,0c1.9-2.3,5.2-3.2,9.4-3.1c0.5-1.4-0.8-2.4,0.9-3.8c-1-0.5-2.1-0.3-2.5,0.6
	c-0.7-1.3,1.9-2.4,3.5-1.6c-0.3-0.8-1.8-0.3-1.6-1.6c1-0.4,0.8,0.5,1.3,0.6c0.5-0.4,0.5-1.2,0.9-1.6c0.1-0.8-0.5-1-0.9-1.3
	c-1.3-0.1-0.7,1.8-1.9,1.9c-1.2-10.9-6.6-21-5-32.6c-2.6-0.6-5.8,0.8-9.1,0.6c1.2-7.4-1-14.8-2.2-20.7c-0.7,0.1-1.2,0.5-2.2,0.3
	c-0.5-0.5-0.3-1.6-0.3-2.5c-6.4,6.2-11.7,13.4-22,15.7c-0.7-0.5-1.9-2.1-1.6-2.5c1.3-2.2,4-1.3,6-1.9c8.1-2.3,13.2-9.5,17.9-15.4
	c-1-0.1-1.5,0.4-1.6,1.3c-1-0.6-1.2-1.9-1.9-2.8c0.3-0.6,0.4-1.3,0.9-1.6c0.2-1.7-2.2-2-1.3-3.5c0.2,0,0.4,0,0.6,0
	c1.5-0.3-0.2,1,0.6,0.9c1.1,0.1,0.5-1.4,0.9-1.9c0.7,0,1.5,0,2.2,0c0.1-1-1-0.7-1.6-0.9c0.2-1.8,0.6-2.8-0.6-3.1c0-0.7,0-1.5,0-2.2
	c1.1-0.1,1.5-0.5,2.5,0c-0.3-0.5-1-0.7-1.9-0.6c0-4.6,0.1-7.5-0.6-11c0-1.5,0.5,0.3,1.3,0c0.3-1-0.4-1-1.3-0.9
	c0.2-1.6-0.4-2.3-0.3-3.8c1-0.1,1.2,1,1.9,0.3c-0.3-0.6-1.4-0.5-0.6-1.3c-0.5-0.1-0.6,0.2-0.6,0.6c-0.6-0.3-0.7-1.2-0.6-2.2
	c0.5,0,1,0,1.6,0c0-0.6-0.4-0.7-0.3-1.3c0.1-1-0.9,0.8-0.9-0.3c0-2.3,2.2-1.8,3.5-2.2c-0.4-0.8-2-0.5-2.5-1.3
	c-1.1,0.2,1.4,1,0.3,1.3c-2.5-0.6-0.7-4,0.6-3.8c-0.9-2-0.9-4.5-0.6-6.3c0.4-3.1,1.2-6.3,2.8-8.5c0.1-2,0.4-3-0.6-4.4
	c-0.3,1.2-0.5,1.3-0.9,2.8c-0.8-3.3-1.3-5.4-1.3-9.1c-0.4-0.1-1.3-0.3-1.9-0.9c-0.4-1.8,0.2-3.5,0.9-5c0.4,0.1,0.3,0.6,0.3,0.9
	c0.7-1.4,0.1-3.3,2.8-4.4c-1.7,1.5-1.7,3.1-1.9,5.6c0.9-1.8,1.4-4,2.2-6c2.4,0,3.1-1.7,5-2.2c0-4.1,4.5-3.6,6.3-6
	c-1.4-1.5,0.4-2,0.3-3.8c1.4,0.4,0.3,3.9,2.5,3.1c-0.4,0.9-0.1,1.1,0.3,1.9c0.9,0.1-0.3-1.9,0.6-1.9c-3-0.9-1.2-4.9-3.8-6
	c-0.5,0.2,0.8,1.2,0.3,2.5c-2.2-0.3-3-2-4.4-3.1c-0.1-0.5,0.2-0.6,0.6-0.6c-0.9-0.4-1.4-1.3-2.2-1.9c2.2-2.9-1.4-3.6-1.3-6.9
	c1.6,0.3,3.4-0.7,4.4-1.9c-0.3-0.7-0.8,0.9-1.9,0.3c0.5-2.4,2.3-2.6,3.1-4.1c0.8,2-0.5,3.4-0.9,6.3c0.5-1.4,3,1.9,4.1,2.8
	c1-1.1,0-2.2,0.6-3.5c0.9,0.1,1.6-0.1,1.9-0.6c0.8,0.4,1,1,0.6,1.9c1.2-0.4,1.8-1.3,3.1-1.6c-0.7-0.7-0.5-2.3-1.3-2.8
	c-0.8,1.4-2.2,2.2-3.8,2.8c-1,0.1-0.7-1.2-1.6-1.3c0.1,0.4-0.1,0.6-0.3,0.6c-1.2,0.4,1.8,0.9,0.6,1.3c-1.2-0.3-1.7-1.2-2.8-1.6
	c0.4-3.7,5.2-2,6.6-4.1c-0.1-0.5-0.4,0.1-0.9,0c-0.1-0.7,0.9-0.3,0.9-0.9c0.2-1.2-1.7-0.2-1.3-1.6c1.5,1.2,0.3-1.6,2.2-1.6
	c-3.1-1.5-7.9,0-8.8,2.8c-1.6,0.4-0.3-2.2-1.6-2.2c1-1,1.7-2.3,3.1-2.8c0.1-0.7-0.4-0.6-0.9-0.6c0.3-0.9,1.3-0.4,1.9-0.3
	c-0.2-1.6,1.4,0.3,1.3-1.9C534.2,513.6,535.7,512,535.4,515.1z M538.3,522.9c-0.3-0.9,0.5-2.2,0-2.2
	C537.7,520.7,537,523,538.3,522.9z M538.9,521.6c-0.1,0.8,0.5,1,0.9,1.3c-0.3-1-0.1-0.8,0.3-1.6
	C539.6,521.3,539.2,521.4,538.9,521.6z M534.8,531.7c1.1-0.7,3.7,0.2,3.1-2.2C535.9,529,534.6,531,534.8,531.7z M528.8,531.4
	c0.1-0.9,0-1.7-0.9-1.6C527.8,530.7,527.9,531.5,528.8,531.4z M529.5,531.7c0.4,0,0.7,0.1,0.9,0.3c-0.2-0.6,0.5-2.2-0.6-1.9
	C529.9,530.9,529.2,530.8,529.5,531.7z M534.5,534.8c1.5,1.4,3.1-0.3,4.1-1.3c-0.7-0.7-1.4,0.4-1.9-0.6c0.2-0.3,1.6-1.4,0.3-1.3
	C535.6,532.2,534.5,533,534.5,534.8z M527.6,533.9c1,0.3,2.6-0.5,1.6-1.3C529.3,533.7,527.3,532.6,527.6,533.9z M534.5,541.1
	c0.9,0.4,1.3-1.3,0.6-1.6C535,540.1,534.2,540.1,534.5,541.1z M543.6,542.3c2,0.1,3.5-0.3,4.1-1.6
	C546.1,541.1,544.3,541.1,543.6,542.3z M558.6,542.7c-0.2,0-0.4,0-0.6,0c0.1-0.4,0.4-0.6,0.3-1.3
	C556.8,541.3,558.1,544.7,558.6,542.7z M539.5,543.6c0.3-0.8,1.2-1.1,1.6-1.9C540.1,541.7,539,543.2,539.5,543.6z M550.2,543.9
	c-0.5-0.7-1.6-0.6-2.2-0.3c2.1,1.7,5.1,1.9,8.2,1.9c-0.4-1.6,0.8-1.5,0.6-2.8c-1,0.4-2.3,0.4-3.1,0.9c0.2,0.3,1.3,1.2,0.6,1.3
	c-0.9-0.4-2.3-3.4-2.5-2.5C552.5,542.9,550.3,543.2,550.2,543.9z M546.1,546.7c-1.2-1.3,0.1-2.2,0.3-3.1c-0.6,0-1.3,0-1.9,0
	c-0.3,3-1.7,5-3.8,6.3c1,0.4,1.3-0.2,2.2,0.6c-0.5,1.2-0.5,0.4,0,1.6c-0.5,0-2.6-0.1-1.6,0.3c2,0-0.3,1.5-0.9,0.3
	c0.8,1.7-1,2.8-0.6,3.8c0.2-0.4,0.7-0.6,1.3-0.6c-0.4,1.4,1.9,0,1.9,0.9c0.4,2.3-3.3,0.5-2.8,2.8c3.3,0.6,3.5-1.9,4.7-3.5
	c3-0.1,2.6-3.5,4.1-5c0.8-0.1-0.3,1.8,0.9,1.3c0.1-2,0.3-4.1,0.6-6c-1.1,0.4-2.1,0.8-3.8,0.6c-0.7,2-1.7,3.7-2.2,6
	c0.9,0,0.8,2,0.3,2.8c-0.6-0.2-1.3-0.2-1.6-0.6c1.4-3.4-0.6-7.1,2.5-8.5C545.8,546.9,546,547.1,546.1,546.7z M537.6,547
	c0.2-0.7,0.9-0.9,1.6-1.3c-0.2-0.6,0.4-1.8-0.3-1.9C538.9,545.2,536.7,545.9,537.6,547z M538.6,548.9c1.1,0.3,0.7-2.4,0.3-2.5
	C539,547.5,538.8,548.2,538.6,548.9z M555.5,550.5c1-0.2,0.9,0.5,1.9,0.3c0.1-0.4,0.3-0.5,0.6-0.6c-0.1-1-0.2-1.9-1.3-1.9
	c0.1,0.7-0.1,1.2-0.6,1.3c0.1-1.1-0.6-1.5-0.6-2.5c-0.5,0-1-0.1-1.3-0.3c-0.3,0.4-0.3,1.2-0.9,1.3c-1.1-1.1-2.1-0.2-2.5-1.3
	c0.2,1-0.3,1.1-0.3,1.9C552.7,549.2,555.4,549.6,555.5,550.5z M531.4,558.7c0.5-1,0.9,0.8,0.9,1.3c2.4-0.4,1.9-1.7,1.6-3.5
	c0-0.2-1.2-3.8-2.5-3.1c-1-2-2.7-5-5-4.7c0.5,0.8-0.5,0.5-0.6-0.3c-0.1,1.4,0.4,2.3,1.3,2.8c-0.9,1.7-2.1,3.1-2.8,5
	c1.8-0.1,2.6,0.7,3.1,1.9c-1.9-0.8-3.6-2.5-5-2.8c0.9-1.5,3.3-1.5,2.8-4.4c-5.6,2.9-7.8,9.6-5.6,16.6c0.6-0.2-0.1-1.8,0.6-1.9
	c1.4,0.7,1.8-0.5,2.8-0.9c0.2,0.5-0.4,1.6,0.3,1.6c0.8-1.9,2.1,1.4,3.5-0.3c0.9,0,0.6,1.3,0.6,2.2c-1.4,0.6-2.3-0.5-4.7-0.3
	c-0.5,4.3,3.9,2.5,6.3,4.1c-1.9,0.9-5.4,0.3-5.3,3.1c1.7,0-0.6,2.1,0.6,2.5c0.6-0.4,1.2-0.9,0.9-2.2c0.6,0.1,0.7-0.4,1.3-0.3
	c1.8,2.3-5.2,5.4-1.3,6.9c-2.9,3.1-2.2,10.3-3.8,14.1c0.5-1.1,6.7-6,3.5-3.8c-0.2-0.6-0.5-1.1-0.6-1.9c0.7-1.6,2.8,0.1,3.1,0
	c2-0.6,2.3-3.3,4.1-4.4c0,0.4-0.5,0.5,0,0.6c0.5-0.6,1.3-0.8,1.6-1.6c-1-2.2,2.6-4.1,1.9-6c-1,1.5-1.6,3.4-2.8,4.7
	c0.1-0.8-0.6-0.7-0.3-1.6c2,0.6,1.7-3.9,0.3-4.7c-0.3,1.3-0.9,0.5-2.2,0.9c-0.3-2.2,0.1-3.8,1.3-4.7c0.1,0.9,1.5,2,1.9,1.6
	c-1.2-0.7-1.8-2-2.8-2.8c-0.2,1-0.5,2-1.9,1.9c1.8-2.1,1.7-6.2,6-6c0.5-1.2-0.9-0.6-0.6-1.6c0.6,0,0.4,0.9,1.3,0.6
	c0.2-0.4,0.3-0.7,0.6-0.9c-2-2.9-4.2-5.5-7.8-6c0.9,0.3,0.8-0.4,1.6-0.3c0-1-1.9-1.6-1.3-2.2c1.5,1.5,2.9,3.2,5,4.1
	c0-1.2-0.4-0.9,0-1.9c-1.2-0.3-1,0.7-1.6,0.9c-1.5-1.8,0-3.7-0.6-5.3c-0.3,0.5-1.1,2-1.6,1.3c0.5-0.9,1.3-3,2.2-2.5
	C531,555.5,531.4,558,531.4,558.7z M530.7,549.9c0.1-0.2,0-0.6,0.3-0.6c0.3,0.9-0.4,0.8-0.3,1.6c0.3,0,0.6,0,0.9,0
	c-1.3-1.8,1.6-0.7,1.6-2.2C532,548.7,529.2,548.1,530.7,549.9z M532,552.4c1.2,0.1,1.7-0.6,1.6-1.9
	C532.3,550.4,531.9,551.1,532,552.4z M534.8,554.6c0.9-0.5-1.4-2.6-1.6-0.9c0.4,0,0.7-0.1,0.9-0.3
	C534.2,553.9,534.4,554.4,534.8,554.6z M537,554.3c0.6,0,1.3,0,1.9,0c-0.2,0.2-0.7,1.5,0,1.6C539.9,552.9,538.5,552.8,537,554.3z
	 M549.9,558c1.1-0.2,1.1,0.5,1.3,1.3c-1.3,0.5-1.5,0.6-2.8,0.3c0.9,1.4,1.1,3.5,2.5,4.4c0.2-1,1.4-2.2,2.5-1.3c0.1-1-0.7-1-1.6-0.9
	c-0.6,0-0.2,1-0.9,0.9c-1.2-1.5,0.2-2.3,1.3-3.1c0.3-1.7-1.3-2.1,0-3.1C551.1,556.1,549.5,556.2,549.9,558z M533.2,560.8
	c2.1-0.2-0.7,1.6,1.3,0.6c0.6,1.2-1.5,1.2-0.6,1.6c1-1,1.1,0.7,2.2,0.6c-0.2-0.6,0.9-1.3,0-1.6c-0.1,0.3-0.6-1.9-1.6-2.5
	c0.4,0,0.7-0.1,0.6-0.6C534.2,559.3,533.9,560.2,533.2,560.8z M540.5,561.2c0,1,0.8,1.1,1.6,1.3c-0.3-1.7,1.3,0.1,0.9-1.9
	C541.7,560.3,541.9,561.5,540.5,561.2z M555.5,569.6c-0.3-2.4,2.7-4.8,1.3-6.3C556.3,565.2,554.8,567.7,555.5,569.6z M558,561.8
	c-0.7-0.4-1.6-1.4-2.5-0.6c-0.5,1.4,1.7,1.1,0.6,2.2C557.2,563.2,557.5,562.4,558,561.8z M534.5,568.1c1.9-0.5,6.3-0.1,6-1.9
	C538.8,567.2,536,567,534.5,568.1z M553.3,572.1c1-0.2,1.3-1.2,1.9-1.9C554,570.4,553.8,571.3,553.3,572.1z M535.7,571.5
	c-0.3,1.2,0.8,0.9,0.6,1.9c-1.1,0.9-1.5,0.5-2.2,0.6c0.7,0.2-0.8,0.8-0.9,1.3c0.9-0.2,0.6,0.6,1.3,0.6c0.9-0.6,1.6-1.5,2.8-1.9
	c0,0.3,0.3,0.4,0.3,0.6c-0.7,0.4-1.2,0.9-1.6,1.6c1.6,0.1,0,0.3,0.6,1.3c0.1-1.1,1.2,0.8,1.3-0.3c-0.4,0-0.7-0.1-0.6-0.6
	c1.1-0.2,1.4,0.3,1.6,0.9c0.6,0.1,1.6-0.8,0.9-0.9C538.4,576.2,537.5,572.6,535.7,571.5z M539.2,574.7c0.4-1.5,0.3-2.4,0.6-3.5
	c-1.3,0.1-1.7-0.6-3.1-0.3C537,572.7,537.9,573.8,539.2,574.7z M533.6,574c0.5-0.8,1.9-0.8,1.6-2.5c-1,0-1.4,1.1-2.2,0.3
	c0.1,1-0.8,0.8-0.9,1.6c0.6-0.1,0.7,0.4,1.3,0.3c0-0.5,0-1.1,0.6-0.9C534,573.3,532.9,574.8,533.6,574z M552.7,576.5
	c1.1,0,1.6-1.1,0.6-1.6C553.2,575.6,552.6,575.8,552.7,576.5z M537.9,581.2c0-0.5,0.2-0.8,0.6-0.9c0.1,0.2,0.3,0.4,0.6,0.3
	c-0.1-1.1-1-1.3-1.9-1.6C537.4,579.9,537.5,580.8,537.9,581.2z M525.7,593.5c1.3,0.4,0,1.8,0.6,2.5c-0.6,0.3-1.7,0.2-1.3,1.6
	c0.7-0.5,2.3-1.3,1.6-2.2c2.2-1,3.4-3.1,4.4-5.3c-1.6,0.7-1.6-1.9-2.2-0.3C529.8,590.5,526.4,592.2,525.7,593.5z M532,590.6
	c1.1-2.2,2.7-4,4.1-6c-2.3,1.2-3.7,3.2-5.6,4.7C531.4,589.3,531.1,590.6,532,590.6z M532.9,595c1.1-0.3,1.5-1.4,2.2-2.2
	C533.9,593.1,533.5,594.1,532.9,595z M524.8,603.2c0.4,0.4,2.5,0.6,2.8,0c-0.5-0.1-0.3-0.8-0.3-1.3c2.3-1.7,5.3-2.6,6.3-5.6
	c-0.8-0.2-1.1-0.4-1.6,0.3c0.5,0.1,1.2-0.1,1.3,0.3C529.3,597.9,527.3,600.8,524.8,603.2z M521,596.6c0.2,2.5-2,4.3-1.9,5.6
	c1-0.8,0.9-2.6,2.2-3.1c-0.7,3.8-1,6.1-1.3,10.4c1-0.4,0.8-2.1,1.6-0.3c0.2-2.6,2.3-4.7,1.9-6.9c0.3,0,0.4,0.3,0.6,0.3
	c0.1-0.6-0.4-0.6-0.6-0.9c0.9,0,1.3-1.2,0.6-1.9c-2,0-0.7,3.2-2.5,3.5c0-2.4,1-4.3,3.1-5.6c-0.7,0.1-1.3,0.4-1.9,0.6
	C522.4,597.5,522,596.7,521,596.6z M527.3,607.3c0.7-0.2,1.5-0.4,1.6-1.3c-0.5,0-1-0.1-1.3-0.3C527.9,606.6,527.1,606.5,527.3,607.3
	z M553.3,616.4c-0.1,0.5,0.4,0.8,0.6,0.3c-0.5-0.1-0.2-0.7,0-0.9c-1.6,0.3-2.4,1.9-1.3,2.5c-0.4,0-0.4,0.4-0.9,0.3
	c-0.2-1.2-1-2.4,0-3.1c-1.6-0.3,0-0.7-1.3-1.9c0.6-0.7,1.2-1.3,1.6-2.2c-1.1,0.4-1.5,1.4-2.2,2.2c0-0.5,0-1.1-0.6-0.9
	c-0.3,0.6,0.9,1,0,1.3c-1.5-0.5-2.4,2.1-4.7,1.9c0,0.4-0.1,0.7-0.3,0.9c1.3,1,4.2-0.2,4.7,2.2c-1.2,0-0.9-0.4-1.9,0
	c0.6,1.1-0.4,1.2-0.6,2.2c1.1,0.4,1.4,1.6,2.5,1.9c-1.1-0.3-0.5,1-0.3,1.3c-1.2-0.2-1.2,1.6-2.2,0.6c0,1.3,2.1,0.4,2.5,1.3
	c-0.6,0.2,0.1,0.3,0.3,0.6c-0.4,0.4-1.5,0.4-1.9,0c0.3,1.2,1,0.8,0.9,1.9c1.1-0.2,2.4,1.1,1.6,1.9c-0.5-0.1-0.9-2-1.3-1.3
	c0.8,1,0.4,1.1,0,2.2c0.6,1.4,2.7,1.3,2.8,3.1c-0.4-0.1-0.5-0.4-0.9,0c0.1,1.5,2,5.4,0.6,6c0.3,1.3,2,1.3,1.9,3.1
	c1.4,0.2,0.9-2.6,1.9-0.9c-0.4-1.6,0.7-0.9,0.9-1.3c-0.7-0.8-1.4-1.5-2.2-2.2c0-0.4,0-0.8,0-1.3c1.8,0.5,1.2-1.3,2.2-1.6
	c0.1-0.8-1.1-1.8-0.3-2.2c0.1,0.8,0.6,1.3,1.3,1.6c0.7,1.2-0.1,2,0,3.5c1.5-0.3,0.5,1.5,0.9,1.6c0.8-0.9,0.5-1.6,1.9-1.6
	c0.8-2.1-1-5.5-1.3-3.5c-0.2,0-0.4,0-0.6,0c0.1-2.2-0.2-4-1.6-4.7c0.6,0,0.2-1.1,0.6-1.3c-1.5-0.5-1.2-3.5-1.3-6.9
	c-0.5-0.7-0.8,0.4-0.9-0.3c0.6-0.2-0.1-0.3-0.3-0.6c0.4,0,0.9,0.1,0.9-0.3c-0.8,0-0.1-1.1,0-1.3c-1.2-0.1-0.7,2.8-2.2,0.9
	c2.1,0-0.9-0.6,0-2.2c0.4,0,0.4,0.4,0.9,0.3c0.5-1.1-1.1-0.2-0.9-0.9c0.1-0.4,1.7-0.8,0.6-1.3c-0.1,0.4-0.3,0.5-0.6,0.6
	C553.2,617,552.3,616.7,553.3,616.4z M519.4,623.9c0.2-3.2,2-6.5,1.3-9.7C520.3,617.2,518.8,620.8,519.4,623.9z M519.1,633
	c1,0.4,0.8-2.1,0.3-2.2C519,631.2,519.1,632.2,519.1,633z M553.3,648.1c0.8-0.1,1.1-0.8,1.3-1.6c-0.3,0-0.6,0-0.9,0
	C553.9,647.4,553.2,647.3,553.3,648.1z M546.4,687.6c-0.4,1.1-0.7,2.2-0.6,3.8c1.5,0-0.2-3.1,1.6-2.8c0.4,0.9,0.1,1.1,0.3,2.5
	c4.4-4.9,7.5-11.1,10.7-17.3c-2.6-6-5.3-12.1-5.3-20.7c0.4-0.5,1.2-0.5,1.6-0.9c-4,0.2-7.8,0.6-11.6,0.9c0.2,3.4,2.2,8.1,1.6,11.9
	c-1.1,6.6,0.6,17.1,0.6,21c0-0.2-1-1-0.9-0.3C544.9,686.3,546.3,686.4,546.4,687.6z M562.4,679.4c-1.5-0.5-2.3,2-3.8,2.5
	c-1.5,5.2-5.6,7.8-7.2,12.9c1.5-0.3-0.2,1,0.6,0.9c2.2-0.1,6.3-0.5,9.7-0.3c-0.6-4.9-0.9-9.1-0.9-13.2c1.4-1,3.1-4.6,1.9-5.3
	c0.3-0.1,0.8-0.5,0.3-0.6C561.6,677.2,562.9,678.1,562.4,679.4z M564.6,678.5c1,0.3,0.4-1,0.9-1.3c-0.4,0-0.7-0.1-0.9-0.3
	C564.6,677.4,564.6,678,564.6,678.5z M563.4,684.8c-0.1,0.7-1.4,1.7-0.6,2.2c0.9-1.4,0.1,0.3,0.6,0.6c1-1.8,3.1-2.6,5-3.5
	c-0.9-0.2-0.8-1.3-1.9-1.3C564.8,683.4,564.8,685.4,563.4,684.8z M539.8,694.8c0.6,0.2,1.2,1,1.9,0.3
	C541,693.3,540.6,694.9,539.8,694.8z"/>
<path class="st0" d="M535.1,517.9c0.4,1.4-1.9,0-1.9,0.9C532.5,518.4,534,517.6,535.1,517.9z"/>
<path class="st0" d="M524.1,527c-1.6-0.7,0.3-1.8,0-3.1c1.9-0.2,2.5-2.6,4.4-1.9c-1.4,0.7-1.2,3-2.8,3.5c0-0.5,0-1,0-1.6
	c-1,0.6,0.2,1.6-0.9,1.9c0.1,0.6,1.2,0.2,0.9,1.3C525,527,524.2,524.9,524.1,527z"/>
<path class="st0" d="M528.5,543.9c0.4,0.6-0.9,2.1-1.9,2.2C527,545.1,527.9,544.7,528.5,543.9z"/>
<path class="st0" d="M527.9,552.7c-0.3,1.2-0.7,2.2-1.9,2.5C526.1,555,527.1,553.2,527.9,552.7z"/>
<path class="st0" d="M528.8,566.8c1.9,0.3,2.6-1.1,1.9-2.5c1.3-0.1,1,1.5,1.9,1.9C531.9,567.1,527.9,569.8,528.8,566.8z"/>
<path class="st0" d="M564.9,625.2c1.1,1.5,4.6,3.3,4.4,7.5C567.2,630.8,566,628.1,564.9,625.2z"/>
<path class="st0" d="M538.3,748.7c1-0.6-0.5-1.3,1.6-0.6c-0.8-0.7-2.1-0.8-2.8-1.6c-0.3-0.6,0.9-1,0-1.3c0.9-1.7,5.3,0.5,6.3-2.5
	c1.5-0.6,1.3,0.6,3.1,0.3c0.6,0.6-0.4,0.9,0.3,1.6c3.1,0.3,6.1-2.1,7.8-0.3c0.3-0.1,0.3-0.3,0.6-0.3c0.5-0.1-0.1-0.4,0-0.9
	c0.8,0,1.3-0.2,1.6-0.6c0.9,1.5,2.7,0,3.8-0.9c1.2,1.6,2.8-0.9,3.8-1.6c0.9-0.1,1,0.7,1.9,0.6c-0.1-1,0.9-2.6,3.1-2.2
	c-0.7-1.6,0.6,0.1,0.3-1.9c-1.6,0.3-1,0-1.9-1.3c-0.6,0.4,0.4,1.4-0.3,2.2c-0.6-0.3-1-1-1.3,0c-0.7,0.1-0.1-1.1-0.3-1.6
	c-0.5,0.3-0.7,0.8-0.6,1.6c-0.4-0.3-0.8-0.4-1.6-0.3c0-0.8,1.2-0.5,1.6-0.9c-0.1,0-1.7-0.4-1.9,0c-0.8-0.3,0.7-0.8,0.9-0.9
	c-1.4-0.3-1.9-0.8-1.6,0.3c-0.7,0.6-0.3-0.1-0.9-0.3c-0.5,0.1,0.1,0.4,0,0.9c-0.4-0.4-0.6-0.3-0.6,0.3c-0.8-0.5-0.5-1,0-1.6
	c-1.4,0.8-0.6,2.3-0.3,3.5c-0.4,0.6-0.8-1.3-1.3-1.6c-0.6,0.2-0.7,1-1.3,1.3c0.3-0.6-4.4-1.2-2.8-1.9c-0.5-0.9-1.5-0.1-1.9-1.6
	c-0.3,0.1-0.2,0.6-0.6,0.6c0.8,0.2-0.1,0.3-0.9,0.3c-1,1.1-4.4,1.5-4.4,0.9c-0.6-0.6-1.7,0.8-2.8,0.6c0.7-0.7-0.2-0.9,0-1.9
	c-0.5-0.1-0.5,0.3-0.9,0.3c0.3,0.3-2.2,0.2-0.6,0.3c-0.3-0.6-2.2,0.7-2.2-0.9c-0.7,0.7-2.7,0.7-3.1,0c-0.9-0.2-1.2,0.1-1.9,0
	c-0.6-0.1-1.2,0.8-1.3,0.3c-0.4,1.7-0.7,0.2-1.6-0.6c-0.3,0.3-0.4,1.1-0.6,1.6c-0.7-0.7-0.6-1.2-1.6,0.3c-0.4-0.1-0.3-0.8-0.3-1.3
	c-1.3,0.9-1.5-0.1-3.1-0.3c0.9,1.1-5.1-0.3-5.3-0.3c-0.4,0.3-1.6-0.9-3.5-0.6c0.1,0.5-4.7,1.4-4.7,0.9c-0.2,0.5-1.5,0-1.6,0.6
	c0.5-5.9-6.1-9.4-11.6-11.3c15.7-1.2,32.2-0.6,47.4-0.9c0.5-0.3,1.2-0.7,0.6-1.3c-0.4,0.1-0.3,0.6-0.3,0.9c-0.7-0.2-0.7-0.5-0.3-0.9
	c-1.2-0.3-2,0.8-2.2-0.3c-0.4,0.1-9.3,0.6-10.4,0.3c-0.5,0.1-4.8,0.1-5.3-0.3c-0.9-0.1-5.3,0.9-6.6,0.3c-0.5,0.1-6.8-0.2-8.2,0.3
	c-1.4-0.8-3.4,1.7-3.8-0.3c-0.2,0.5-1.6,0.9-2.2,0.9c0.1-0.3-2.5-0.6-3.5-0.9c-0.7,0.1-0.9,0.6-0.9,0c-0.6,0.4-1.9,0.7-1.9,0.3
	c-0.3-0.5-0.8-0.7-1.3-0.3c-0.5,0.1,0.1,0.4,0,0.9c-0.6,0-0.4-0.9-1.3-0.6c0.3-2-0.4-3-1.6-3.5c3.8-1.2,4.9-0.1,9.4-0.6
	c1-0.2,0.4-0.8,0.3-1.6c8.6,0.2,16.1-0.4,23.8-0.3c-0.1,0.5-0.9,0.1-0.9,0.6c0.4,0.9,1.6,0,1.6-0.6c19.1-0.3,41-0.8,60.5-0.6
	c1,2.3,7.9,4,7.2,7.2c0.1-0.5-1.7,4.9-1.9,5c-1.3,1-2.9-0.1-4.7,0.3c-1.8,2.3-5,3.2-4.7,7.5c-0.4,0.4-0.5,0.1-0.9,0
	c0.7,3.1,0.6,11.6-0.3,16c-1.8-1.2-3.2-1.5-5-3.1c-16.2,1.1-34.1-0.2-51.8,0.6c-6.2,0.3-13,1-18.8-0.3
	C515.2,749.2,537.8,747.7,538.3,748.7z M558.3,736.5c-0.5-1.2,1.4-0.1,0.9-1.3c-0.5,0-1-0.1-1.3-0.3
	C557.9,735.7,557.6,736,558.3,736.5z M571.2,722.4c-0.7,0.1-1.2-1.7-1.9-0.6c0.7,0.3-0.9-0.1-0.9,0.9c-0.6,0-0.4-0.9-1.3-0.6
	c0,0.4-0.1,0.7-0.3,0.9c0.6,0.1,0.6-0.4,0.9-0.6C568.4,723.7,570.2,722.3,571.2,722.4z M587.8,722.7c0.9-0.1,2.2,0.3,2.2-0.6
	c-1,0.9-1.6-0.8-2.2,0C588.2,722.1,588,722.4,587.8,722.7z M592.2,722.4c-0.4,0-0.3-0.5-0.6-0.6c0.1,1.3-0.8,0-1.3,0
	C589.7,723.1,592,722.9,592.2,722.4z M587.2,723c-0.9-1.3-2.6-0.8-3.8-0.3C585.2,722.9,585.9,722.5,587.2,723z M579.3,737.5
	c-2.1,0.4,0.2,1.5,0.9,2.2c0.2,0.2-0.7,0.8,0.3,0.6c-0.8-1.5,2.8-0.3,2.8-1.9c-0.8-0.4-1,1.2-1.3,0.3c0.2-1.2-0.4-1.5-0.3-2.5
	c-0.5,0-1,0-1.6,0c-0.1,1.1-0.6,1.7-0.9,2.5C579,738.2,579,737.9,579.3,737.5z M580.3,742.8c0.4,0.1,0.5,0.5,0.9,0.6
	c0-0.8,0.2-1.8-0.6-1.9C580.9,742.5,580.9,742.2,580.3,742.8z M581.5,741.5c0,0.6,0.2,1,0.6,1.3c0.1-0.7,0.8,0.4,1.3,0.3
	c-0.1-0.5,0.5-0.8,0-0.9C583,743,582.1,741.7,581.5,741.5z M582.2,746.2c0.5-0.2,1.7-2.4,0.9-1.9
	C582.9,744.9,581.5,745.8,582.2,746.2z M580.3,747.8c0.8,0,1.8-1.3,0.9-1.9c-0.5,0.1-2.1,1.5-1.3,0.9c0.5-0.4,0.8-0.3,0.9,0.3
	C580.6,747.2,580.4,747.5,580.3,747.8z M560.8,747.5c0.5,0.5,2,1.7,2.5,0.3c-3.3-1-5.2-1.5-7.2,0.6c1.5-0.9,1.4-0.2,2.2,0.3
	c-0.3-1.2,0.7-1.2,1.3-1.6C559.7,748.5,561,748.6,560.8,747.5z M552.1,747.8c0.7,1.3,2.3,0,3.5,0.3c0-0.4,0.1-0.9-0.3-0.9
	C554.8,747.9,553.2,748,552.1,747.8z M541.4,748.7c1.4-0.8,3.1-0.4,5,0c-1-1.9-4.6-0.9-6.3-0.9C540.7,747.9,540.4,749,541.4,748.7z
	 M548.3,748.4c-0.4-0.1-0.2-0.3,0-0.6c-0.4,0-0.7-0.1-0.9-0.3C546.1,747.7,547.7,749.3,548.3,748.4z M550.5,748.4
	c-0.2,0-0.4,0-0.3,0.3c0.7-0.1,1.4-0.3,1.6-0.9c-0.8,0-1.5,0-1.9-0.3C549.8,748.1,550.3,748.1,550.5,748.4z"/>
<path class="st0" d="M532.6,747.2c-0.2-0.4-1.3-1.6-1.9-0.6c-0.8-1,0.5-0.7,1.3-0.9C531.7,746.8,533.5,746.3,532.6,747.2z"/>
<path class="st0" d="M540.1,737.8c-0.4-0.1-0.3-0.6-0.3-0.9c0.9,0.1,1.5,0.3,1.9,0C543,738.2,539.5,736.5,540.1,737.8z"/>
<path class="st0" d="M536.1,746.9c0.9-0.2,0.6,0.6,1.3,0.6c1,1-1.9-1-0.9,0c-0.1,0.4-0.8,0.3-1.3,0.3
	C534.6,746.7,536.2,747.6,536.1,746.9z"/>
<path class="st0" d="M574.6,752.5c-2.1,0.7-4.1,1.3-5.6,0c-1.3,1.1-4.3-0.4-6.6,1.3c0-0.9-0.5-0.6,0-1.3c-1,0-3.5,1.3-3.1,0
	c-5.9,1.8-8.3-0.8-13.8,1.6c0.8-1.3-1.6,0.4-1.6-1.3c-0.9,0.7-2.8,0.5-3.5,0.6c-1,0.2-1.8,1-1.9-0.3c-7.3,0.3-13.8,0.4-20.7,0
	c-0.4,0.1-0.3,0.6-0.3,0.9c-1.1-1.6-4.7,0.3-5.6-1.9c21.2-1.8,47.3,0,69-1.6c2.6-0.2,5.6,1.8,7.8,3.1c0.2,1-0.2,1.5-0.3,2.2
	c-1.6-1.2-3.5-2.1-5-3.5c-0.7-0.2-0.4,0.6-0.9,0.6c-1.4-1-3.6,0.9-2.8,0C577.5,751.9,576.2,754.2,574.6,752.5z"/>
<path class="st0" d="M526.7,768.8"/>
<path class="st0" d="M524.1,775.1c-0.7,0.8,0.6,1.8,0,2.2C523.6,777.5,523.1,775.1,524.1,775.1z"/>
<path class="st0" d="M586.6,797.4c1.5,0.1,0.1,1.9,1.9,2.2c-1.4,0.8-0.3,1.7,0,2.8c-1.4-0.2,0.8,4.9-0.3,5c0.3,0.6,0.5,1.3,1.3,1.6
	c-1.5,0.2,0.9,2-0.3,3.8c0.5,0.3,1.3,1.8,1.6,1.3c1.2,0.9-2.1,1.2-0.9,0.3c-0.5-0.1-0.6,0.2-0.6,0.6c0.3,0.5,1.3,0.3,1.9,0.6
	c-0.1,0.7-1.4,0.2-1.6,0c1,1,0.6,0.4,0.3,1.9c1.6-1.3-0.2,1.1,0.9,1.6c0.2-0.5,0.6-1.9-0.3-2.2c0.3-0.8,1.4-0.5,2.2-0.3
	c0.2-0.1,0.6-1.1-0.3-0.9c-0.4,0.4-0.1,0,0-0.3c1.7-0.1-0.1,1.3,1.6,0.9c-0.5,1.5-2.6-0.1-2.5,1.6c0.3,0,0.2-0.4,0.3-0.6
	c0.6-0.1,0.6,1.8-0.3,1.3c0.3,0.4,0.8,0.6,1.3,0.9c-0.5-0.8,0.4-1.1-0.3-1.6c-0.2-0.4,1.4,0,1.6,0.3c0.1,1.2-0.3,0.1-0.9,0.3
	c0.5,0.7,1.3,0.6,1.6,0.3c1-0.3-1.4,1.3-0.3,1.6c-0.7,0.3-0.9,0.2-1.6,0.9c1-0.2,0.8-0.2,0.6,1.9c0.4-0.4,1.1-0.4,1.9-0.3
	c0,1.3-0.7,0.7-1.3,0.3c0.7,1.2,0.2,0.4,0,1.9c0.3-0.2,0.5-0.6,0.6-0.9c0.9,0.2-0.3,0.7,0,1.3c0.9,0.5,0.9-1.4,0.3-1.3
	c0.8-0.1,1.1,2.2,1.3,3.1c1.9,11.4,3.4,30.3,5,43c0.2,1.4,0.1,5.2,0.9,6.3c0.9,1.3,5.9,3.1,2.2,2.2c-1.3-0.3-0.8-1.7-2.5-0.6
	c1,0.7,2.6,0.8,3.8,1.3c-3.3,0.6-9-0.5-11.6-3.1l-7.2,0.3c-19.4,0.1-83,1-85.6,0c0.5-1.2,0.5-1,0-2.2c0.7,0.7,1,0,1.6-0.3
	c0-0.6-0.9-0.4-0.6-1.3c1.3-0.3,1.2,0.8,1.9,1.3c1.1-0.1-1.1-0.8,0-0.9c-0.1-0.6-0.5-0.7-1.3-0.6c0-0.7,0-1.5,0-2.2
	c0.4,0.5,0.9,1,1.3,1.6c1-0.7,0.6,0,0.9,0.3c0.8-0.3-0.1-1.3-0.9-0.9c0.3-0.5,0.5-1,1.3-0.9c0,0.3,0,0.6,0,0.9
	c0.8,0.1,0.2-1.2,1.3-0.9c-0.1,0.4-0.6,0.5-0.6,0.9c0.9,0.2,0.6-0.6,1.3-0.6c-0.8-1.7-1.9-0.1-2.8-1.3c-0.2,0-1,1-0.3,0.9
	c-0.3,0.9-1.2-0.3-1.3-0.6c0.1-0.6,2.6-33.6,2.8-35.1c0.7-0.1,1,0.3,0.9,0.9c0.6,0,0.2-1.1,0.6-1.3c0.4,0.1,0.3,0.6,0.3,0.9
	c0.4-0.1,0.6-0.4,0.6-0.9c-0.3-0.9-0.5-0.4-1.3-0.3c-0.4-1.6,1.1-1.2,1.3-2.2c0.3,0,0.6,1.4,0.9,0.3c0.5,0.9-1.7,3.5-0.3,3.8
	c-0.1,0.7-0.8,0.7-1.3,0.3c0.4,0.5,0.5,1.2-0.6,0.9c0.3,0.5,1.3,0.3,1.9,0.6c0.1,0.7-0.4,0.6-0.9,0.6c0.1,0.9,1.3,0.4,1.6,0.3
	c0.7,0.6-0.8,2.7,0.9,2.5c-0.3,0.7-1.8,0.1-1.9,0.9c0.1,1.1,0.8-1.1,0.9,0c-0.2,0.7-2.3,1.4-0.6,2.2c-0.5,0.3-0.5,1.2-1.6,0.9
	c0.3,0.4,0.3,1.2,0.6,1.6c0.9,0.3,0.8-0.4,1.6-0.3c-0.1,1-1.1,1-1.6,1.6c-0.3-0.2-0.5-0.6-0.6-0.9c-1,0.2-2,0.5-1.9,1.9
	c0.5-0.5,1-0.8,1.3-1.6c0.7,1,1.2,0.6,2.2,0.9c-0.2,0.3-0.6,0.5-0.9,0.6c0.4,0.9,2.5,1.4,3.1,0.3c0.7,0.6-0.9,1.5-1.6,0.9
	c0.6,0.7,1.8,0.8,1.9,1.9c0.3-0.1,0.6-0.3,0.6-0.6c0.4,0.2,0.6,0.7,0.6,1.3c-0.4,0-0.9-0.1-0.9,0.3c-0.5-0.4-0.5-1.2-0.9-1.6
	c-1.1,0.7,0.6,2.4-1.6,2.2c0.6-1.4-1.2-0.4-0.9-1.6c0.6-0.6,0.6,0.2,1.6,0c-0.2-0.3-0.3-0.7-0.3-1.3c-0.3,0.8-1.5,0.6-1.9,1.3
	c0.9,1,0.8,1.4,1.9,1.9c0.2,1.5-0.7,1.8-1.3,2.5c0.4,0.2,0.6,0.3,1.6,0.6c0-0.3-0.4-0.2-0.6-0.3c0.3-0.5,0.5-1,1.3-0.9
	c-1.1-0.3-0.7-0.1-0.6-1.9c1.5,1.3,1.4-1.1,3.1-1.3c0.3,0.2,0.3,0.7,0.9,0.6c0,0.6-0.4,0.7-0.3,1.3c0.6-0.2,0.9-1.5,0-1.6
	c0.2-0.8,1.2-0.7,1.9-0.9c-1.6-0.6-3.2,1.2-2.8-2.2c0.4,0.1,0.6-0.1,0.6-0.3c0.5,0-0.2,1.5-0.3,1.9c0.3-0.3,2.2-0.5,1.3-0.9
	c-0.1-1,0.9,0.8,0.9-0.3c1.2,0.2,0,1.1,0.6,1.6c0.9-0.2,0.8-1.3,1.9-1.3c0,1,1,1.1,0.9,2.2c-0.4,0.4-0.5,0.1-0.9,0
	c-0.1,1.3,1.6,0.3,1.9,0c1.1,1.1-1.9,1.1-2.5,0.6c-0.1,0.5,0.2,0.6,0.6,0.6c-0.2,0.4-0.7,0.6-1.3,0.6c0.1-0.3,0.3-0.3,0.3-0.6
	c-0.1-0.4-0.8-0.3-1.3-0.3c0.1,0.9,1,0.9,1.3,1.6c0.3-1.3,1.8,0.6,1.6-1.3c0.6,0,1.3,0,1.9,0c0,0.3-0.4,0.2-0.6,0.3
	c-0.1,0.8,0.4,1,1.3,0.9c0.4,1-0.5,0.8-0.6,1.3c0.2,0.9,0.7-0.3,1.3,0c0-0.6,0-1.3,0-1.9c0.9,1.1,1.1,0.2,0.9-1.3
	c0.6,0.1,0.6-0.3,0.3-0.3c0.1-0.5,0.4,0.1,0.9,0c0.5,1.1-1.1,0.2-0.9,0.9c0.5,1,0.8-0.7,1.6-0.3c0,0.9,0.5,0.6,0,1.3
	c0.6-0.6,0.8,0,1.6,0c0.1-1-1.1-0.8-1.6-1.3c0.2-0.9,0.7,0.3,1.3,0c0.4-1-1-0.2-0.6-1.3c0.7-0.6,2.1-0.5,2.2-1.6
	c0.4,0.1-0.1,2-0.3,2.8c1.2-0.5,0.6-1,1.9-1.3c0.3,1.4-1.6,0.7-1.3,2.2c-1.2-0.8-0.7-1.5-1.6-2.2c-0.8,0.9,1.4,1.8,0.6,2.8
	c0.7-0.1,2.8-1.3,1.6-1.3c0.6-1.1,1.8,0.8,0.9,1.3c0.9,0.5,0.9-1.4,0.3-1.3c0.5-0.1,1.5,0.2,1.9,0c0.1,1.3-0.8-0.3-0.9,0.9
	c0.4,0.9,1.1-0.6,1.9-0.3c-0.5-1,0.2-1.6,1.3-1.9c-0.1,0.6-0.8,0.6-0.9,1.3c0.9-0.9,0.3,0.5,0.9,0.6c-0.2,0.6-0.6,0-0.9,0
	c0,1,1.1,0.8,1.9,0.9c0-0.8-1-0.7-0.9-1.6c1,0.2,0.7-1,1.9-0.6c-0.3-0.6-0.7-1-1.3-1.3c-1.7-0.1-2.8,1.1-4.1,0
	c1.6,0.5-0.1-2.6,0.9-0.9c0.8-0.3-0.6-1.4,0.9-1.3c0.1-0.8-1.4,0.2-0.9-0.9c0.7,0.2,1.2,0.7,2.2,0.6c-0.3-1-2.1-0.4-1.9-1.9
	c0.8,1.2,1.2,0.1,0.6-0.9c-0.6,0.6-0.8-0.3-1.9,0c0.7-0.7-0.3-1,0.3-1.6c-0.4,0-0.8,0-1.3,0c0.9,1.4-0.6,0-0.3,1.6
	c-0.9,0.2-2.5-0.4-2.8,0.3c-0.8-0.9,0.2-1.7-0.3-2.8c2.3,0,1.8-1,3.5,0.3c0.8-1.3,2.7-0.8,4.1-0.3c0.1-1.5,2.9,0.5,6-0.3
	c0.2-0.1,0.5-1,0-1.3c0.1-0.8,0.5,0.4,1.3,0c-0.2,0.3-0.6,0.5-0.9,0.6c0.2,0.3,0.3,0.5,0.3,0.9c0.5,0.1,0.5-0.3,0.9-0.3
	c0-0.3-0.4-0.2-0.6-0.3c0.1-0.3,0.3-0.6,0.6-0.6c0.2,0,0.4,0,0.6,0c-0.7,1.5,3.1,0.6,3.1,0.3c0.4,0.1,0.3,0.6,0.3,0.9
	c0.2-0.8,1.9-0.2,1.9-1.3c2.3,1.8,2.8-0.9,4.7,1.6c-0.1,0.4-1.8,0.9-0.3,0.9c0.1,0.4-1.8,0.4-0.6,0.9c-0.5,0.7-2.4,0.1-3.5,0.3
	c0.2,0.3,0.7,0.3,0.6,0.9c-1.3-0.7-0.9-2.6-0.3-3.5c-0.1-0.3-0.3-0.3-0.3-0.6c-0.6,0.8-1.1,1.8-1.9,3.1c-1.4,0,0.1-0.9-0.6-1.3
	c-0.4,0.1-0.3,0.8-0.3,1.3c-1.3-0.3-1.5,0.6-2.5,0.6c1.4-1.5-4.9,0.6-5-1.3c-0.9,1.2-3.2,1-4.1,0.6c-0.6,0.4,0.7,1.6,0.6,2.5
	c1.9,0.5,1.8-2.2,3.1-1.3c-1.9,0.4,0,1.3-1.6,1.3c0.3,0.7,1.6,0,1.9-0.3c0.3,0.2,0.5,0.9,0.6,0.3c0.8,0.3-0.4,1.2,0,2.2
	c0.4,0.7,1.3,1,1.6,1.9c1.3-0.4,2.4-0.1,3.1,0.9c0.8-1.3,2.2,0.3,1.9-1.3c0.9,0,0.6,1.3-0.3,1.3c0.2,1.1,1.6-0.8,1.3,0.6
	c0.6-0.6,0.1-1.2,1.3-0.6c0.2-0.8-0.6-0.6-0.9-0.9c0.7-1,1.4,0.7,2.5,0.3c0.7-1.1,1.2-1.7,2.8-0.6c0.3-0.2,0.5-0.6,0.6-0.9
	c-0.8,0.3-2,0.5-2.2-0.6c-0.8-0.4-0.8,1.5-1.3,0.3c-0.6,0,0.5,1.2-0.3,1.6c-0.9-0.3,0.5-0.8-0.3-1.3c-1.3,1.1-2.5-0.8-4.1,0.9
	c0.1-0.4,0.6-0.5,0.6-0.9c-1.8,1.2-2.3,0.1-4.7,0c0.2,0.3,0.7,0.3,0.6,0.9c-1.7-0.6,0.5-2.1-1.3-3.1c1.3-1.2,2.7-0.3,3.5-1.9
	c-0.8,0.8,0.6,0.4,0.6,1.3c0.4-0.3,0.4-1.1,0.9-1.3c1,0.3-0.4,0.8-0.3,1.3c0.7,0,1.5,0,2.2,0c0.7-0.2-0.4-0.5,0.3-0.9
	c0.5,0,1.2,0.2,1.3-0.3c0.3,0.3,0.2,0.7,0,1.3c0.7,0.1,0.6-0.4,0.6-0.9c0.3,0.6,0.8,0.9,0.9,1.6c-0.8-0.2-0.6,0.6-0.9,0.9
	c0.1,0.3,0.3,0.3,0.3,0.6c0.6-0.1,1.4-0.1,1.3-0.9c-1.8,0.7,0.1-1.5,1.3-2.2c-0.7,0.7,0,1.1,0.6,1.3c-0.2-0.7-0.8-2.3,0.6-2.2
	c-1.5,0.5,0.5,1.7,0.9,0.9c0.6,0.2,0,0.6,0,0.9c1.2-0.2,0.8-0.5,0.6,0.6c0.8,0.2,0.6-0.6,0.9-0.9c0.5,0.8,2.8,0.5,1.9-0.6
	c0.9,0.9,2.5,0.7,3.5,0c-0.1,0.5,0.3,0.5,0.3,0.9c1.4,0,2.3-0.5,2.8-1.3c2,0.1,1.3,1,2.8,1.3c0,0.8-0.5,1-0.6,1.6
	c0.1,0.7,1.7,0,1.9,0.6c-0.4,0.5-0.6,1.2-1.6,1.3c-1.5-0.9-3.4,0-6-0.6c-0.1,0.4,0.1,0.6,0.3,0.6c-2.7-0.6-7.7-1.3-8.8,0.6
	c0.6,0.2,4.3-1,4.4,1.3c0.4-0.4,1.2-0.4,1.3,0.3c0.2-0.5,0.4-1.8,0.6,0c0.5,0.1,0.5-0.3,0.9-0.3c-1-0.8-0.4-1.4-1.3-1.9
	c0.1-0.5,0.4,0.1,0.9,0c0.1,0.5-0.3,0.5-0.3,0.9c1.1-0.4,2.3,1.4,4.1,1.3c-0.3-0.4-0.3-1.2-0.9-1.3c-0.4-1.1,1.4,1.6,1.9,0
	c0.1-0.8-1.8,0.3-1.3-0.9c1.1,0.4,2.6,0.6,2.8,1.9c0.2-0.5,0.9-0.5,1.3-0.9c0.7,0.2,0.7,0.5,0.3,0.9c0.7,0.1,0.6-0.4,0.6-0.9
	c0.4,0.2,0.6,0.7,0.6,1.3c2.8,0.3,5.4-0.7,7.2,0c0.4-0.1,0-0.6-0.3-0.6c0.3-0.4,1.5-0.1,2.5,0.3c-0.2-0.4-0.2-1.6,1.6-0.9
	c0,0.3,0,0.6,0,0.9c0.9-0.5,2.7-0.2,3.8-0.6c-0.1-1.2-1.1,0.4-0.9-0.9c2.9,0.8,3-0.3,4.4-1.3c-1.4,1.2,0.1,2.7,0.9,4.1
	c-0.9-0.1-1.2-0.8-1.6-1.6c-0.9,0.3,0.5,0.8-0.3,1.3c1.5,0.8,1.2,1.6,2.8,2.2c0.5-0.1-0.3-0.6,0.3-0.6c-0.1-0.4-0.9-0.4-0.9,0
	c-0.1-0.2-0.2-2.6,0.3-1.6c1.2-0.8-1-0.9-0.6-1.9c0.9,0.2,1.8,1.5,1.3,2.2c0.5,0.1,0.5-0.3,0.9-0.3c-0.6-0.7-0.9-1.6-1.3-2.5
	c-0.8-0.1-0.7,0.6-1.6,0.3c-0.1-0.9,1.1-0.6,0.6-1.9c1.7,1,0.1-1.2,1.3-1.6c-0.2-0.7-0.5,0.4-0.9-0.3c0.5-1.1,1-1.5,0.9-2.5
	c0-0.3-0.4-0.2-0.6-0.3c0.4-0.9,1.4,0,0.9,0.9c0.2,0,0.4,0,0.6,0c0.5-0.7,0.1-1.5,0-2.8c-0.4,0.4-0.6,0.3-0.6-0.3
	c-0.6,0.1-0.6,0.8-0.9,1.3c-0.8,0.6,0.4-1,0.3-1.6c1.3,0.1,1.3-1,2.5-0.3c-0.5-0.4-0.9-0.8-1.3-1.3c-1.1,0.8-1.3,1.3-3.1,0.3
	c0.7-0.4,2.6,0.2,2.5-0.9c0.4,0.5,1.9,0,1.9,0.9c0.7-0.1-0.3-0.8-0.6-0.9c0.1-0.4,0.6-0.3,0.9-0.3c-0.9-0.8,0.4-2.2-0.3-2.8
	c-0.8-0.1,0.8,1.2-0.6,0.9c0.1-0.9,0-1.7-0.9-1.6c0.8-0.6,0.7-3.3,2.2-2.2c0-0.8-0.9-0.8-1.3-1.3c-0.1-1.2,0.3-0.1,0.9-0.3
	c-0.9-1-1.6-2.4-2.5-1.9c-0.6-0.3-0.5-1.2-1.3-1.3c0.2-0.8,1.6-0.2,1.3,0.6c1-0.1,2.3-0.7,1.6-1.6c-1.1,1.6-2.4-0.8-1.9-1.6
	c1.4,0,0,0.8,0.3,1.6c0.9-0.1,1.6-0.5,2.2-0.9c-0.3-0.7-1-0.9-0.9-1.9c-1.2-0.5-0.1,1.4-1.3,0.9c0-0.6,0.4-0.7,0.3-1.3
	c-0.6-0.1-1,0.1-0.9,0.6c-1.1,0,0.7-1-0.3-0.9c0.9-0.6,2,0.7,3.5,0c-0.3-1.4-1.3-0.2-2.2-0.9c0.4-1.7,1.8-1.8,1.6-3.5
	c-0.2,0-0.4,0-0.6,0c-0.8,0.1,0.4,0.5,0,1.3c-0.6-0.1-0.6,0.3-0.3,0.3c-0.1,0.4-0.3,0.2-0.3,0c-0.2,0-0.4,0-0.6,0
	c-0.1-0.7,0.9-0.3,0.9-0.9c-0.1-0.3-0.3-0.3-0.3-0.6c-0.4,0.1-0.2,0.3,0,0.3c-0.4,0.9-1-0.4-0.9-0.9c0.4-0.4,1.4-0.3,2.2-0.3
	c-0.4-0.9,0.1-1.1,0-2.5c-0.2,0.9-1.6,0.4-2.2,0.9c0.2,0.3,1.6,1.1,1.3,0c0.8,0.2,0.2,1.6-0.6,1.3c-0.1-0.8-1-0.9-1.6-1.3
	c0.3-0.5,2.4-1.9,1.6-0.6c0.9-0.1,1.3-0.5,1.3-1.6c-0.5,0-0.8,0.2-0.9,0.6c-0.3-0.2-0.4-0.9,0-1.6c0.4,0.1,0.2,0.3,0,0.3
	c-0.1,0.7,1.1,0.1,1.6,0.3c0.3-2.4-0.8-2.1-0.3-3.8c-0.5-0.5-1.8-0.3-1.6-1.6c0.6,0.6,0.8,0,1.6,0c-0.2-0.6-0.9-0.6-0.3-1.3
	c-1.1-0.2-0.9,1-1.9,0.9c0-0.3,0-0.6,0-0.9c1,0.2,1.1-0.3,1.9-0.3c-0.2-1.3-2.1-0.8-2.2-2.2c0.4,0.3,0.8,0.4,1.6,0.3
	c-0.1,0.7,0.2,0.8,0.3,1.3c0.8-0.9,0.6-3.4-1.3-4.1c0-0.6,1.1-0.2,1.3-0.6c-0.1-0.6-1.2-0.2-0.9-1.3c1.1,0.2,1.1-1.1,0-0.9
	c0.9-1.3,0.9-4.7-0.6-5c-0.7-0.2,0.6-1,0.9-1.3 M592.5,820.9c-0.3-0.3-0.7-2.2-0.9-1.6c-0.1,0.2,0,0.6-0.3,0.6c0-0.5-0.9-0.2-0.3,0
	C591.8,820,591.3,821.3,592.5,820.9z M515,852.6c0.8-0.4,1.3,0.9,1.6,0c-1.4-0.9,1.5-0.2,0.9-1.3C516.3,851.3,515.7,852,515,852.6z
	 M536.1,852.9c0.9-0.1,1.7,0,1.6,0.9c-1.2-0.5-0.6-0.3-0.3,0.6c-1.1,0.2-2.1-0.1-1.3-0.9c-0.8-0.1-1,0.4-0.9,1.3
	c2.1-0.2,3.1,0.4,3.1-0.9c0.6,0.1,0.1,1.4,0.9,1.3c1.6-1.6,1.9,1.7,2.5,2.5c-0.5-0.8,0.4-1.6-0.3-2.5c0.7,0.1,1.2-0.1,1.3-0.6
	c-0.3-0.1-0.8-0.4-0.3,0c0,0.7-1.3,0.1-1.9,0.3c0.8-0.8-0.5-0.2-0.3-1.3c-1-0.3-0.4,1-1.3,0.9C538.7,853.3,536.7,851.6,536.1,852.9z
	 M563,855.1c1.1,0.3,0.2,0.6,0.3,1.6c0.6,0,1-0.2,1.3-0.6c-1.3-0.4,0.4-1.4-0.9-1.9C563.6,854.6,563.1,854.7,563,855.1z
	 M585.6,849.1c1.2-0.5,0.6,0.9,1.6,0.6c0-0.8,0.1-1.5-0.6-1.6C586.5,848.8,585.5,848.4,585.6,849.1z M589.1,825.6
	c0.1-0.8-0.6-0.7-0.3-1.6c-0.9,0-1.8,1.5-1.3,1.9c0.3-0.5,0.5-1,1.3-0.9C588.8,825.2,588.8,825.6,589.1,825.6z M505.3,850.4
	c1-0.5,1.7,0.4,2.8,0.6C507.9,850.2,505.7,849.1,505.3,850.4z M558.6,856.3c0.1-0.2,0.3-0.4,0.6-0.3c0-0.6-0.2-1-0.6-1.3
	c-0.7,2.4-0.6,2.1-1.6,4.1c0.9-0.2,0.9-1.4,2.2-1.3c0.4,1,0.2,1.1,0.9,1.9c-1-0.5-1.1,1.6-0.6,0.6c0.5-0.4,2.4-0.9,1.6-1.6
	C559.5,859.8,559.6,855.7,558.6,856.3z M568.1,856.6c0-0.8,1.1-0.1,1.3,0c-0.1-0.5,0.1-1.2-0.3-1.3
	C568.8,856.2,567.3,855.7,568.1,856.6z M587.5,856.3c0.5,0.8,2.7-0.2,1.6-0.9C588.8,856.6,588,855.8,587.5,856.3z M567.1,857.9
	c-0.3,0.8,1,1.5,0,1.9c-0.3-0.6-0.9-1.6-1.3-0.3c0.6,0,0.7,0.3,0.6,0.9c0.9,0.1,1-0.7,1.9-0.6c-0.2,0.5-0.5,0.8-0.6,1.3
	c1.3,0,0.1,0.2,0,0.6c1.1,0,1.7,0.6,2.2-0.3c-0.4,0-0.7,0.1-0.9,0.3c0.1-0.5-0.9-1.6,0-1.9c0.2,1.4,0.9,1.3,1.6,0.3
	c-0.1,0.9-0.4,1.2,0,1.6c0-0.4,0.5-0.3,0.6-0.6c-1.4-0.6,1.7-0.7,0.3-1.3c-0.3,0.6-2.4-0.4-1.6-0.9c-0.6-0.1-0.6,0.4-0.9,0.6
	c0.4-1.2-1.2-1.1-0.3-0.3c-0.4,0-0.7,0.1-0.9,0.3c0.4-0.7-0.2-1.2,0.6-1.9c-1.5,0.3-2.3-0.1-3.1,0.3c1.1-0.3,0.5,1,0,0.9
	c-0.1-0.9-0.5-1.5-1.3-1.9c0,0.6-1,0.2-0.9,0.9c0.8,0.5,1.1-0.4,1.6,0.3c-0.7,0.6-0.9,1.1-1.9,0.6c0.5,1.2-1.4,0.1-0.9,1.3
	c0.8,0,1-0.6,1.3,0.3c-0.7-0.1-1.2,0.1-1.3,0.6c1.1,0.1-0.1,2.3,1.3,1.3c-1.1-1.1,0.8,0.2,0.9-0.6c-0.7-0.4-1.2,0.1-1.6-0.9
	c1.1-0.8,1,1,1.6-0.3c-0.5,0-0.8-0.2-0.9-0.6c0.6-0.5,1.1-0.8,1.6,0c-1,0.1,0.5,1.8-0.3,2.5c1.1-0.4,2,0.9,2.5,0
	c-1.5-0.3,0.6-1.1,0.6-0.9c-0.6-0.1,0.2-0.5-0.3-0.6c-1.4,0-1,0.7-2.2,1.3c0-0.4-0.1-0.7-0.3-0.9c1,0.2,0.4-1.1,1.6-0.6
	c0.1-0.6-0.4-0.6-0.6-0.9C565.8,858.6,566.5,858.3,567.1,857.9z M575.6,857.6c-0.9,0.2-1.6,0.7-2.2,1.3c-0.1-0.7-1.7,0-1.6-0.9
	c0.5-0.1,1.2,0.1,1.3-0.3c-1-0.8-3,1-3.8-0.3c0.1,0.6-0.4,0.6-0.6,0.9c1.6,0.6,3.1-0.2,4.4,0.9c-0.8,0.4-1-0.2-1.3,0.3
	c1.3,0.1-0.2,1.3,0.6,1.6c0.1-0.6,1.4-0.1,1.3-0.9c-0.4-0.2-0.7-0.3-0.9-0.6c0.4,0,0.4-0.4,0.9-0.3c0.4,1.2-0.1,1.5,0.6,2.5
	c0.6,0,1-0.2,1.3-0.6c-0.4-0.8-0.9,0.6-1.3-0.3c0.9,0.2,0.6-0.6,1.3-0.6c0.1,0.6,0.7,0.8,0.6,1.6c-2.5,1.3-1.9,1.4,0,0.6
	c0,0.6,0.2,1,0.6,1.3c0.7-0.5-0.6-1,0.6-0.9c-0.6,1.2,0.5,1.8,0.9,2.8c0-0.4,0.5-0.3,0.6-0.6c-0.8,0.1-0.8-0.7-1.3-0.9
	c-0.6-2.2,3.1-0.3,2.2-2.2c0.9-0.3,1.5-0.5,1.9,0.3c0-0.2,0-0.4,0.3-0.3c0.8-0.2-1.1-0.7,0.3-0.9c0.9,0.7,1.8,0.1,1.3,0.3
	c-0.6-0.3-1-0.7-1.3-1.3c0.4,0,0.3-0.5,0.6-0.6c0.2,0.6,1.8,1,1.9,0c-1.8,0.1-0.7-0.6-1.6-0.6c-0.2-0.9,1.5,0.2,1.3-0.6
	c-2-0.7-2.3,0.7-3.1,0.3c0.3,0.1,1.1,1.2,0.3,1.3c-0.1-0.6-0.8-2.1-1.3-1.3c0.6,0.7,0.9,1.6,1.6,2.2c-0.4,0-0.3,0.5-0.6,0.6
	c-1-0.2-1.5,0.2-2.2,0.3c0-0.3-0.3-0.4-0.3-0.6c0.8-0.8,0.5-1-0.3-1.6c1.4-0.1,1.4,0.6,1.6,0.9c0-1.1,1,0.7,0.9-0.3
	c-0.6-0.6-1.8-0.5-1.9-1.6c0.5,0,1.1,0,0.9-0.6c-1-0.3-1,0.5-1.6,0.6c0-0.4,0.6-0.7,0-0.9c-0.8,0.6-1.6-0.2-2.2,0.9
	c0.4,0,0.9-0.1,0.9,0.3c-0.4,0-0.9-0.1-0.9,0.3c0.4-0.1,1.1,0.9,0.3,0.9c0-1.6-1.8,1.3-2.5,0C575,859.1,574.6,858.4,575.6,857.6z
	 M535.1,858.2c1.2-0.5,3.2,0.9,4.7-0.3C538.6,858.5,537,857.2,535.1,858.2z M549.5,858.2c0,1,1.3,0.6,1.6,1.3
	c-0.1-1.1-0.8-0.4-0.3-1.6c-0.4,0-0.9-0.1-0.9,0.3C550.3,858.3,549.9,858.6,549.5,858.2z M538.6,860.1c0.6,0.1,0.8,0.6,1.3,0.9
	c-0.3-0.8,1.1-1.8,0.3-2.8C540.7,859.9,539.2,859.6,538.6,860.1z M518.8,860.4c-0.2-0.7-0.2-1.7-0.9-1.9c0,0.4-0.1,0.7-0.3,0.9
	C518.4,859.2,519.2,861.4,518.8,860.4z M550.8,860.4c-0.3-0.5-0.5-1-1.3-0.9c-0.3,1.2,1.5,0.7,0.6,1.6c0.5,0,1,0.1,1.3,0.3
	c0.4-1.4,0.4-1.2,0.9-2.5C551.2,858.7,551.8,860.4,550.8,860.4z M554.9,859.5c-0.1,0.9,0.1,1.6,0.6,1.9c0.6-0.6-0.3-0.8,0-1.9
	c0.4,0,0.7-0.1,0.9-0.3c0,0.4,0.1,0.7,0.6,0.6C557.1,858.2,555.6,859.2,554.9,859.5z M514.7,861.4c0.9,1.2,1.8-2.7,1.3-1.9
	C515.7,860.2,515.3,860.9,514.7,861.4z M554.9,861.7c-0.3-0.7-0.7-1.4-1.3-1.9C553.4,860.9,554.7,862.1,554.9,861.7z M534.5,860.1
	c-0.5,0.6-1.9,0.9-2.2,0c-0.3,1.3-1.5,0.6-2.5,0.6c0.5,1.2,1.8,0.2,3.5,0.3c0,0.4,0.1,0.7,0.3,0.9c-0.2,0.1-0.6,0-0.6,0.3
	c0.3,0,0.6,0,0.9,0c-1.2-1.9,2.6,0.1,1.3-1.6c-0.1,0.2,0,0.6-0.3,0.6c0-0.4-0.4-0.4-0.3-0.9C534.7,860.4,534.8,860.2,534.5,860.1z
	 M547.7,862c0.7-0.7-0.2-1.4-0.6-1.9c0.3,0.7-1.6-0.5-0.6,0.3C547.3,860.5,547,861.7,547.7,862z M553,861c-1.3-0.1-0.4,1.8,0.6,1.3
	c0-0.3,0-0.6,0-0.9c-0.5-0.1-0.8,0.5-0.9,0C552.9,861.3,553.1,861.3,553,861z M538.9,861.7c-0.2,1.4-0.7,1.5-1.6,1.6
	c0.8,0.4,2.1,0.2,2.2,1.3c0.1-0.7,1.4-0.2,1.6,0c0.3-1.1-1-0.5-1.6-0.6c-0.8-1.3,0.3-1.7,0.9-2.5
	C539.6,861.1,539.6,861.8,538.9,861.7z M527,862.9c-0.2-1.1,1.2-0.5,1.3-1.3c-0.5,0-1,0-1.6,0C526.7,862.1,526.5,862.8,527,862.9z
	 M511.9,863.5c-1.2-0.3,2,0.7,1.3,0c-0.9,0.2-0.9-2-1.3-1.3C511.6,862.9,512.8,863.3,511.9,863.5z M547,863.9c1-0.5,0.9-1.5,1.6,0
	c0.7-0.6,0-1.3-0.6-1.6C547.6,862.8,547,862.9,547,863.9z M543.6,863.2c-0.4-0.1-1.2-1.3-1.6-0.3c0.9,0.5-0.8,1.7,0.9,1.6
	C543.3,863.4,542.4,863.3,543.6,863.2z M566.5,863.9c-1.4,0.6-2.6-2-2.5-0.9C564.4,863.5,565.7,865.4,566.5,863.9z M533.6,864.2
	c0.1-0.2,0.3-0.4,0.6-0.3c0.1-0.8-0.4-1-1.3-0.9c-0.1,0.6,0.4,0.6,0.6,0.9C533.4,863.9,533.2,864.1,533.6,864.2z M553.6,865.7
	c-1,0.5-1.2,0.3-1.9,0.6c1.1,0.6,1.1-0.1,2.2-0.3c-0.1,0.4-0.5,0.5-0.6,0.9c0.4,0.4,1.9,0.5,1.9-0.3c-1.7,0.7-0.7-0.6-1.6-1.6
	c0.3-0.2,1.6-1,0.9-1.3c0,0.4-0.9,0.4-0.9,0c0.4-0.1,0.6-0.4,0.6-0.9c-1.7-0.2-0.2,1.6-0.9,1.9c-1.2-0.4,0.2-1.4-0.6-1.9
	c0.2,0.9-0.6,0.6-0.6,1.3C552.9,864.4,553,865.3,553.6,865.7z M580.3,863.9c0.2-0.9,0.7,0.3,1.3,0c0.1-0.8-0.4-1-1.3-0.9
	C580.4,863.5,579.8,863.7,580.3,863.9z M507.8,863.9c0.2,1.1-0.3,1.3-0.6,1.9c0.9-0.3,1.4-0.6,0.9-1.6c0.3-0.1,0.8-0.5,0.3-0.6
	C508.4,863.8,508.2,863.9,507.8,863.9z M523.8,864.8c-0.4-0.1-0.3-0.5-0.3-0.9c-0.8,0-1-0.6-1.3,0.3
	C523,864,523.4,865.7,523.8,864.8z M567.4,866.1c0-1.7,1.5,1.2,1.9-0.6c-1.1,0.6-1-0.2-1.9-0.6C567.3,865.2,566.8,866.9,567.4,866.1
	z M567.1,863.5c0.2,0.8-1.4,1.3-0.3,1.9C567.1,864.8,568.5,864,567.1,863.5z M513.5,865.1c0.2,0.1,0.4,0.3,0.3,0.6
	c1-0.9,1.5,1.1,2.5,0c-0.2-0.1-0.6,0-0.6-0.3c0.2,0,0.4,0,0.3-0.3c-0.9,0.2-1.5,0.4-1.9,0c0-0.4,0.5-0.3,0.6-0.6
	c-0.4,0-1.7-0.6-0.9,0C514.3,864.6,513.7,864.8,513.5,865.1z M547.7,865.1c0.1,0.4,1.5,0.4,0.6,0c-0.2,0-0.4,0-0.3-0.3
	c0.5,0,1-0.1,1.3-0.3c0.1,0.2,0,0.6,0.3,0.6c0-0.3,0-0.6,0-0.9c-0.9-0.3-0.8,0.4-1.6,0.3c0-0.2-0.3-0.4-0.3,0
	C548,864.6,547.9,864.8,547.7,865.1z M516.9,865.7c0.9-0.9,0.7,0.6,1.9,0.3c0.1-0.9-1.2-0.7-0.3-1.6
	C517.4,864.1,516.4,866.5,516.9,865.7z M539.2,864.8c0,0.2,0,0.4-0.3,0.3c-0.1-0.2,0-0.6-0.3-0.6c-0.5,0.7-0.9,0.6-1.3,0
	c-0.7,0.7-0.3,0.8-0.6,1.6C538.7,865.8,539,865.2,539.2,864.8z M584.7,866.1c-1.2,0.5-1.4-1.5-1.9-0.6
	C583.1,866,584.1,867.6,584.7,866.1z M539.8,868.3c1.2,0.2,1.8,0.5,2.2-0.6c-0.8-0.4-0.8,1.5-1.3,0.3c-0.1-0.7,0.9-0.3,0.9-0.9
	c-0.5-0.1-1.2,0.1-1.3-0.3c0.2-0.5,1.5,0.1,1.3-0.9C539.5,865.7,540.9,867.5,539.8,868.3z M547.7,870.1c0.7-0.1,1,0.3,0.9,0.9
	c-0.4,0-0.7,0.6-0.9,0c0.4,0,0.7-0.1,0.6-0.6c-0.8,0.1-1.4,0.4-1.9,0.9c0.8,0.3,1.5,0.6,1.9,1.3c-0.6,0-1.8-0.8-2.2,0
	c0.4,0.1,0.3,0.5,0.3,0.9c1.9,0.1,1.4-0.3,3.1,0.3c-0.5-1.9-0.1-0.4,0.6-0.9c-0.1-0.7-1.4-0.3-1.3-1.3c0.4,0,0.7,0.1,0.9,0.3
	c-1.4-1.5-1.4-3.8-0.3-4.1c0.5-1.2-1.4-0.1-1.3-0.9c0.4-0.1,0.5-0.4,0.9,0c0.4-1-0.9-1.8-1.3-0.9
	C548.5,867.4,548.1,868.9,547.7,870.1z M534.2,867c0-0.6-0.7-1.3-1.3,0c0.3,0,0.4,0.5,0,0.6c0-0.2,0-0.4-0.3-0.3
	c-0.3,0.6,1,1.2,0.9,0.6c-0.6,0.1,0.1-0.9,0.3-0.9C533.9,867.2,534.1,867.4,534.2,867z M522.3,868.3c0.6,0,1-0.2,1.3-0.6
	c-0.4,0-0.7,0.1-0.9,0.3c0.6-1.5-0.3-0.4-0.6-0.9c0-0.4,0.5-0.5,0-0.6C521.3,867,521.9,867.8,522.3,868.3z M537,866.4
	c-0.8-0.1-1,0.5-1.3,0.9c0.7-0.1,1.5-0.8,1.3,0.6c0.7,0,1.6-1.3,0.9-1.6C537.9,867.7,537.1,867.2,537,866.4z M516.9,867.9
	c0.5-1.1-1.1-0.2-0.9-0.9c0.4,0,2.3,0,1.3-0.3C515.4,866.3,515.5,867.9,516.9,867.9z M508.1,870.1c-0.1-0.9,1.7,0.2,1.6-0.6
	c-1.1,0.1-1.4-2.1-2.5-0.9C509.2,868.6,507.6,869.6,508.1,870.1z M550.8,869.5c0.8-0.4,1,1.2,1.3,0.3c-0.4-0.5,0.9,0.2,0.6-0.6
	c0.6,0.3,0.5,1.4,1.3,0.6c0,0.5,0.1,1,0.3,1.3c-1,0.3-1-0.5-1.6-0.6c0.1,0.9,0.8,1.2,1.6,1.6c0-0.9,0.9-0.8,1.3-1.3
	c-0.2,1,2.1,0.6,0.9,0c-0.7,1.1-1.1-1.7-2.2-0.3c1.2-1.7-1.5-0.5,0-1.9c-0.8,0.4-1.5-0.7-1.6,0C553.2,869.5,551.1,868.5,550.8,869.5
	z M553,873.9c1.3-0.8,1.1-1,2.2,0c-1-1.5,0.7-1.2,0.9-2.2c-0.5,0-1-0.1-1.3-0.3C554.5,872.4,553.5,872.9,553,873.9z M520.7,870.1
	c0.6,0.3,1.1,0.5,1.9,0.6c0.5-1.1,0-2.7-0.9-1.9c0.5,0.2,0.8,0.5,0.9,0.9C521.5,869.9,521,869.8,520.7,870.1z M528.8,869.5
	c0.2,0.2,1.5,0.7,1.6,0c-0.4-0.1-0.2-0.3,0-0.6C529.9,869.1,529.1,869,528.8,869.5z M534.2,870.8c-1.3,0.1-0.3-1.1,0-1.3
	c-0.4,0-0.7-0.1-0.9-0.3c-0.1,0.2,0,0.6-0.3,0.6c0,0.8,0.5,1,0.6,1.6c-0.4-0.1-0.5-0.5-0.9-0.6c-0.4,1.4,0.7,1.1,0.9,1.9
	c-0.2,0-0.4,0.3,0,0.3c0.1-0.4,0.5-0.3,0.9-0.3c0-0.3,0-0.6,0-0.9c-1.4-0.2,0.3,0.6-0.6,0.6C533,872,534.2,871.2,534.2,870.8z
	 M559.3,871.1c-0.1-1,0.8-1.6-0.3-1.9c0.1,0.7-0.1,1.2-0.6,1.3c0-0.2-0.3-0.4-0.3,0C558.6,870.5,558.4,871.3,559.3,871.1z
	 M510.7,871.4c0.9,0.2,2.2-0.7,1.3-1.3c-0.3,0.3-0.6,0.6-0.9,0.9c0-0.5-0.9-1.6-1.3-0.6C510.4,870.4,510.7,870.7,510.7,871.4z
	 M543.9,871.4c1.4,0-0.1,0.9,0.6,1.3c0.4,0,0.9,0.1,0.9-0.3c-0.6,0-0.7-0.3-0.6-0.9c0.4,0,0.8,0,1.3,0c0.6-1.1-1.5-1.6-0.6-0.9
	C546.6,871.8,543.8,870,543.9,871.4z M569.9,871.7c-1.3,0.1-0.4-0.8-0.9-0.9c-0.8,1,0.6-0.7-0.3-0.6c-0.2,0.7-1.1,0.8-1.6,1.3
	c0-0.5-0.9-0.2-0.3,0C568.1,871.5,568.8,871.9,569.9,871.7z M508.8,872c0-0.8,1.2-0.4,1.3-1.3c-0.5,0-1-0.1-1.3-0.3
	C509,871,507.9,871.8,508.8,872z M550.2,872.3c1.4,0.4,1.1-0.7,1.9-0.9c0.1,0.6,0.1,1.4,0.9,1.3c0.4-1.3-1.6-1.9-1.9-1.6
	C552.2,871.7,549.7,871.3,550.2,872.3z M574,872.3c0-0.5,0.9-0.2,0.9-0.6c-0.2-0.1-0.4-0.3-0.3-0.6c0.2-0.1,0.6,0,0.6-0.3
	C574.4,870.6,573.2,871.8,574,872.3z M540.8,873c0.2-1,1.8-0.2,1.9-0.6c-1.1-0.3,0.9-0.1,0.3-0.9c-1,0.4-1.2,0.2-1.9-0.3
	C542.6,872.3,539.8,871.8,540.8,873z M561.8,871.4c-0.2,0.8,0.6,0.6,0.9,0.9c0.1-0.2,0.8-1.2,0-1.3
	C562.7,871.4,562.2,871.4,561.8,871.4z M579,871.1c-0.5,0.5-2.4-0.4-1.9,0.3c0.2,0.1,0.6,0,0.6,0.3c-0.2,0.1-0.4,0.3-0.3,0.6
	c0.7,0.2,2.1-0.3,1.3-0.6C578.1,872.5,578.6,871.1,579,871.1z M538.6,873c0.6-1.1-1.6-2.2-2.2-0.9c0.5,0.2,0.8,0.5,1.3,0.6
	c0-0.4,0.1-0.7,0.6-0.6C538.3,872.4,538.2,872.9,538.6,873z M566.8,872c0,0.4,0,0.8,0,1.3c1,0.1,0.8-0.8,1.6-0.9
	c0,0.3,0.1,0.8,0.3,0.3C568.5,871.4,567.5,872.9,566.8,872z M549.2,875.8c0.2-0.5,0.5-0.8,0.6-1.3c-1,0.6-0.8,0.6-1.6-0.3
	c0.1,0.7-0.9,0.3-0.9,0.9C548.1,875.8,548.8,874.7,549.2,875.8z M512.8,875.8c1.2-0.2,3.1,0.4,3.8-0.3
	C515.3,875.3,512.9,875.2,512.8,875.8z"/>
<path class="st0" d="M585,840c0.6,0.1,1.5-0.4,2.2-0.9c-0.3,1,0.5,1,0.9,1.3c-0.1,0.3-0.6,0.2-0.6,0.6c-0.4-0.1-0.6-0.4-0.6-0.9
	c-1,0.4,0.4,1.5-0.3,1.9C586,840.7,585.8,840.5,585,840z"/>
<path class="st0" d="M523.5,851c1.3,0.5,1-0.5,2.5,0C525.5,851.6,523.8,852.1,523.5,851z"/>
<path class="st0" d="M509.4,835c0.6,0.9,0,1.3,0.9,2.8c-0.2,0-0.4,0-0.6,0c0.1-0.3-0.1-0.3-0.3-0.3c0-0.3,0.4-0.2,0.6-0.3
	c-0.5-0.9-1.4,0.3-2.2,0C508.7,836.2,509,836.5,509.4,835z"/>
<path class="st0" d="M507.2,829.7c0.2,0.3,0,1.3,1.6,0.9c-0.8,0.9-1.7,1.7-3.1,1.9c0.1,0.6,0.9,0.6,0.6,1.6c-0.5,0-1.2-0.2-1.3,0.3
	c-0.2-1.8,1-3,0.3-4.4C505.7,830.4,507.2,830.5,507.2,829.7z"/>
<path class="st0" d="M548,795.5c-0.8,1.2-0.4,2.1-1.6,2.5c0.2,1.2,1.8-1,1.6,0.6c0.5-0.8,0.5-2,0.6-3.1c2.6-0.7,2.5,2.3,1.9,3.8
	c-2.1-0.3-3,0.3-4.7-0.3c0.5-0.9-0.1-1.6,0.3-2.2c-0.1-0.8-0.5,0.4-1.3,0c-0.1,1.5,0.6,1.8-0.3,2.5c-1.3-0.3,0.1-1.5-0.3-2.8
	c-1.7-0.1-0.2,2.9-1.9,2.8c0-0.7,0-1.5,0-2.2c-0.7,0.1-0.1,1.5-0.3,2.2c-1.2-0.5-1.2-0.7-2.2,0c-0.6-0.6,0.3-0.8,0-1.9
	c-1.1-0.3-0.4,1.2-0.6,1.9c-1.1,0.1-1.8-0.1-2.5-0.3c0.5-1.1-0.1-2.6,0.3-3.1c1.3-0.1,0.3,2,0.6,2.8c1.5-0.4,0.5-2.2,0.9-2.8
	c0.9-0.3,0.6,0.7,0.6,1.3c0.7,0,0.7-0.8,0.6-1.6C540.6,796.8,544.1,795.1,548,795.5z M549.2,796.7c0.2,0.5-0.4,1.6,0.3,1.6
	c0.1-0.6,0.6-0.8,0.9-1.3c-0.5,0-0.2-0.9-0.6-0.9C549.8,796.5,549.8,796.9,549.2,796.7z"/>
<path class="st0" d="M575.6,804.3c-1.2-1-1.2,1.9-2.5,1.9c-1.1-0.7,0.7-1.1,0.6-1.9c-0.5-1.1-2.1,1-1.3,1.3c-1.4,0.7-3.1,0-4.7,0.6
	c-0.6-0.2,0.2-1.9-0.9-1.6c-0.9,0.2,0.3,0.7,0,1.3c-0.5,0.1-0.6-0.2-0.6-0.6c-2.4,1.9-6.9,0-11,0.9c-0.2-0.7-0.9-1-0.3-1.6
	c0.7-0.2,0.4,0.6,0.9,0.6c1-0.2-0.4-2,0.3-1.9c0.6-1,1.3,1.9,1.3-0.3c1-0.1,1.4,1.1,0.9,1.6c1.1,0.3,0.5-1,0.6-1.6
	c1.6,0.2,1.2,0.2,2.8,0c0,0.4,0,0.8,0,1.3c0.6,0,0.2-1.1,0.6-1.3c0.4,0.2,0.6,0.7,0.6,1.3c0.5-0.1,0.1-0.9,0.6-0.9
	c1.2-0.3,0.6,1.1,1.3,1.3c0.5,0.1,0-1.2-0.3-1.3c1.4-0.4,2.2,0.2,4.1-0.3c0.2,1.1-0.3,1.3-0.6,1.9c0.1,0.7,1.7,0,1.9,0.6
	c0.7-0.2,0.1-1.8,0.3-2.5c2.2,0,4.4,0,6.6,0c0.1,1.7-1.1,1.7,0,2.8c-0.5,0.6-1.1-0.3-2.2,0c0,0.2,0,0.4,0,0.6
	C573.8,805.8,575.4,804.9,575.6,804.3z M570.9,805.2c0.8,0.1,1-0.4,0.9-1.3C571,803.9,570.8,804.4,570.9,805.2z"/>
<path class="st0" d="M530.1,803.3c0.5,0.4,0.2,1.7,0.6,2.5c-2.6,1.2-4.1,0-7.2,0.6c0.6-0.7,0.8-1.8,0.3-2.8
	C525.7,803.4,527.9,804,530.1,803.3z"/>
<path class="st0" d="M551.1,803c0.3-0.1,0.3,0.1,0.3,0.3c1,0.7,1.8-0.8,2.8,0c0,1.3-1,1.5-0.9,2.8c-1-0.5-1.2,0.1-2.5,0
	C550.2,805.4,550.4,803.4,551.1,803z"/>
<path class="st0" d="M508.5,805.2c0.8-0.1,0.8,0.7,0.9,1.3c-0.6,0.6-1.5,0.2-2.2,0c0.3-0.9,1,0.2,1.6,0c0.3,0.1,0.3-0.1,0.3-0.3
	C508.9,805.8,508.4,805.8,508.5,805.2z"/>
<path class="st0" d="M551.1,808c0.4,0.3,0,0.7,0.6,1.3c0.3-0.8,2.4-0.9,2.8-0.6c-0.6,1.5-0.6,1.4,0,2.8c-2.4,0.3-2.7-0.8-4.1,0
	C551.6,810.7,550.3,809.2,551.1,808z"/>
<path class="st0" d="M570.9,809.6c-0.5,1.4-1.7,2.3-4.1,1.9c-0.4-0.4-0.1-0.5,0-0.9c-1.1,0.6-2,1.5-1.6-0.6c-0.8,0-0.5,1.2-0.9,1.6
	c-2.2-0.1-6.3-0.2-8.5,0c0.1-0.4-0.1-0.6-0.3-0.6c0.7-0.9,0.9-0.8,0.3-2.2c2.2,0.7,4.4-0.7,6-0.6c0.5,0,1.2,0.9,1.9,0.9
	C565.2,809.1,569.8,807.2,570.9,809.6z"/>
<path class="st0" d="M528.5,814.3c0.1-0.4,0.3-0.2,0.3,0c3-0.2,3.4,0.1,5.6,0c-0.6,1.1-0.7,1.7,0.3,2.5c-0.4,0.6-4.2,0.7-2.8-0.6
	c-0.8,0-0.3,1.3-1.6,0.9c0.6-0.6,0.1-1.1,0-1.9c-0.8,0.6,0.9,2-1.3,1.9C529.6,815.8,529.4,815.4,528.5,814.3z"/>
<path class="st0" d="M527.9,814.6c0.4,1-0.8,1.9,0,2.2c-0.8,0.7-3,0.1-4.4,0.3C522.7,814.3,525.9,813.8,527.9,814.6z"/>
<path class="st0" d="M559.6,815.9c0.1,0.5,1.1-0.4,0.9,0.9c-1.8,0.1-3.8,0.7-5-0.3c-0.7,0.5-1.5,0.8-2.8,0.6
	c-0.3-0.3-0.2-0.9-0.6-0.9c0.8-0.6,0.3-0.4,0.3-1.6c0.6-0.1,0.8-0.7,1.6-0.6c0.2,0.3,0.3,0.7,0.3,1.3c0.4-0.2,0.6-0.7,0.6-1.3
	c1,0.7,2.2-0.7,2.5,0.6c0.7-1.1,2.4-1,3.5-0.3C559.9,815,560.4,815.3,559.6,815.9z"/>
<path class="st0" d="M506.9,815.9c0.5-0.1,0.5,0.3,0.9,0.3c-0.2,0.6-0.6,0-0.9,0c1.1,1.6,1,0.6-0.6,0.9
	C506.4,816.7,506.7,816.3,506.9,815.9z"/>
<path class="st0" d="M574.3,821.8c-0.5,1.3-3.2,0.9-4.1,0.3c-2.5,0.5-4.7,0.1-7.8,0.3c0.1-0.5-0.2-0.6-0.6-0.6
	c0.1-1.4,1.9-1,1.9-2.5c1.9,0.7,2.9-1.1,4.1,0.6c0.2-1,2.5,0,2.5-1.3c0.7,0.9,3.1,1.1,3.8,0.3C574.8,819.7,572.3,821.6,574.3,821.8z
	 M571.5,821.5c0.1-0.2,0.3-0.4,0.6-0.3c0.1,0.5-0.1,1.2,0.3,1.3c-0.3-0.9,0.4-0.8,0.3-1.6C572,820.6,570.7,821.2,571.5,821.5z"/>
<path class="st0" d="M507.5,820.3c0.6,0.2-0.2,0.3-0.6,0.3c0,0.4,0.6,0.3,0.9,0.3c0,0.5-0.2,1.2,0.3,1.3c-0.1,0.5-0.9,0.1-0.9,0.6
	c-1-0.3,0.1-1.1,0.3-1.3c-0.5-0.7-0.8-0.5-1.6-0.3C506.4,820.8,506.7,820.3,507.5,820.3z"/>
<path class="st0" d="M508.8,823.4c0.1,0.6-0.3,0.6-0.3,0.3c-0.4,0.1-0.3,0.6,0,0.6c-0.5,0.3-1.1,1.2,0.3,0.9
	c-0.3,0.5-0.8,0.7-1.6,0.6c0.2-1-0.3-1.1-0.3-1.9C507.8,824.1,507.9,823.3,508.8,823.4z"/>
<path class="st0" d="M567.7,828.1c0.5,0-0.3,1.3-0.9,1.3c-0.3-2.2-4.2-1.2-5-1.3c-0.6-0.7,0.1-2.6-1.3-2.5c0.3-0.7,1.6-0.5,1.6-1.6
	c1.6,1.7,3.6,0.1,5,1.3C566.1,826,567,828.6,567.7,828.1z"/>
<path class="st0" d="M560.2,827.5c-4,0.8-8.1,0.5-11.9,0.3c0.2-0.6,0.5-1.1,0.6-1.9c-0.9,0.4-0.9,1.6-1.6,2.2
	c-1.9-0.2-2.6,0.1-4.4-0.3c0.5-1.1-0.3-2.1,0.6-3.1c1.8,0.7,4.8,0,6.3,0.3c0.8,0.3-0.6,1.4,0.3,1.9c1.1-0.3,0-0.8,0.3-1.9
	c4.1-0.8,5,0.4,8.8-0.3c0.8,1.2,0,2.1,1.3,2.8C560.5,827.8,560.2,827.7,560.2,827.5z"/>
<path class="st0" d="M536.7,827.2c-2.5,1.6-4.5,0.4-7.8,0.9c-0.7-1.1,0.1-1.1-0.3-2.8c1,0.3,3.8-1.3,4.1,0.6
	c0.6-0.4,2.2-1.8,2.8-0.3c1.7-1.4,3.8-0.5,6.3-0.3c0,1.8-0.7,1.1-0.6,2.8C538.8,827.1,537.6,829.4,536.7,827.2z"/>
<path class="st0" d="M506.6,826.2c0.7,0.2-0.5,1.2-0.3,1.9c-1.2-0.1,0.4-1.1-0.9-0.9c0.6-0.4-0.2-2,1.3-1.6
	C506.2,825.7,506.2,827.1,506.6,826.2z"/>
<path class="st0" d="M506.3,829.4c-0.4,1-0.9-0.3-0.6-0.9c0.8,0,1.5,0,1.9,0.3C507.4,829.2,505.6,828.4,506.3,829.4z"/>
<path class="st0" d="M508.1,830.3c-0.4-0.1-0.3-0.8-0.3-1.3c0.2-0.4,1.2,0,1.3-0.6C509.7,829.7,507.8,828.6,508.1,830.3z"/>
<path class="st0" d="M527,830c0.4,0.1,0.2,0.3,0,0.3c1.7,1,1.3-1.2,2.8,0.6c-0.1-0.6,0.7-0.3,0.9-1.3c0,0.9,1.7,0.2,1.6,1.3
	c0.4-0.2,0.6-0.7,0.6-1.3c1.1,1.8,4.7-0.3,5.3,1.3c0.3-0.2,0.7-0.3,1.3-0.3c0.1-0.5-0.5-0.8,0-0.9c0.7,0.1,1.1,0.6,1.3,1.3
	c0.7-0.4,1.4-0.9,2.8-0.6c-0.3,1.4,0.7,2-0.3,3.8c-2-0.5-5.2,1.2-4.4-0.9c-0.8,0-0.3,1.3-1.6,0.9c0.4-1-0.2-1.4,0.3-1.9
	c-0.1-0.3-0.6-0.2-0.6-0.6c-0.9,0.7,0.8,2.6-1.3,2.5c0.5-0.9-0.1-1.6,0.3-2.2c-0.2,0-0.4,0-0.6,0c-0.9,0,0.7,0.9-0.6,0.6
	c-0.3,0.9,0.4,0.8,0.3,1.6c-0.8,0.1-1.6,0.1-1.3-0.9c-0.4,0.1-0.3,0.8-0.3,1.3c-2.2-0.1-4.1-0.2-5.6,0.3c-0.5-0.1,0-0.3,0-0.6
	c-2.2,0.1-2.2,1.1-3.8,0c0.3-1-0.8-3.5,0.9-3.1c-0.4,1.6,0.8,1.7,1.3,2.5C526.8,832.7,525.4,830.4,527,830z M531.7,832.8
	c0.8-0.4,0.8,1.5,1.3,0.3c-0.8-0.4-0.1-1.5-0.6-1.6C532.1,832,531.8,832.3,531.7,832.8z M539.8,833.1c0.5,0,1,0,1.6,0
	c0.2-0.7-0.8-1.9-1.3-0.9C541.2,832.5,539.8,832.8,539.8,833.1z"/>
<path class="st0" d="M563,829.7c0.9,1.3,4.7,0.9,7.2,0.6c0.2,2.3,1.2,1.8,2.2,3.8c-1.2,0.3-2.2,0.1-3.1-0.6
	c-0.4,0.1-0.6,0.4-0.6,0.9c-5.1-0.8-10.9-0.3-15.4-0.3c0-2.1,0.6-1.7,0.6-3.5c0.4,0.1,0.6-0.1,0.6-0.3c1.1-0.1,0.9,0.9,1.6,1.3
	c0.9-0.3-0.5-0.8,0.3-1.3c0.4,0,0.8,0,1.3,0c-0.1,0.3-0.3,0.3-0.3,0.6c0.8-0.8,2.6-0.5,3.5-1.3C560.2,830.7,562.6,829.9,563,829.7z"
	/>
<path class="st0" d="M551.1,830c0.3,0.3,0.1,0.6,0.3,1.6c-1.4-0.1-0.4,1.8-1.6,2.5c-1.2-0.1-3,0.3-3.8-0.3c0.2-0.7,1-2.4,0-2.5
	c0.3-0.8,1.3-0.8,1.9-1.3c0.4,0.3,0.6,0.8,0.9,1.3c0.5-0.1-0.1-0.4,0-0.9C549.6,830.1,551,830.7,551.1,830z"/>
<path class="st0" d="M586.6,836.3c0.1-0.5-0.2-0.6-0.6-0.6c0.1-0.4,0.8-0.3,1.3-0.3c-0.2,0.3-0.4,0.6,0,0.6c-0.5,0.2-0.5,1-1.3,0.9
	C585.8,836.4,586.2,836.3,586.6,836.3z"/>
<path class="st0" d="M565.2,838.1c1,0-1.4,1.3,0.3,1.3c-0.1,0.4-1.3,0.6,0,0.6c0.1,0.8-1.2,0.2-0.9,1.3c-2.8,0.1-4.5-0.3-6.6-0.3
	c-1.6,0-4.3,1.2-4.1-2.2c2.3-2,8.6,0.7,9.7-1.9c0.5-0.2,0.5,1.5,0,1.3C563.8,838.2,565,838.6,565.2,838.1z"/>
<path class="st0" d="M532.9,837.2c0.7,0.1-0.3,0.8-0.6,0.9c1.9,0.7,3.8-0.2,6.3-0.3c0,0.3,0,0.6,0,0.9c2.5-2.1,2.8,1.2,3.1,1.9
	c-1,1.5-5.3-0.3-6.3,1.3c-2.7-1-4.5-0.6-6.6,0c-1.4-0.7-1.8-0.5-3.8-0.6c0-1.8-0.3-2,0.3-3.1c0.7,0.1,1.4,0.7,1.6-0.3
	c0.5,0.1-0.1,0.4,0,0.9c0.6-1,1.9-0.9,1.6,0c0.9-0.3,2.2-1,2.5,0C531.6,837.7,531.9,838,532.9,837.2z"/>
<path class="st0" d="M575.3,840.7c-2.6,0.9-6.7,0.3-9.1,0.3c-0.3-0.6,0.4-1.1,0-2.5c2.1-1.1,6.5,0.6,7.8-1.3c0.8,1,2.4,0.9,3.5,0.6
	c0.5,0.4-0.8,1.6-0.3,3.1c-1.4-0.4-1.1,0.7-1.9,0.9C574.4,842.6,576.2,841.1,575.3,840.7z"/>
<path class="st0" d="M544.5,837.8c1.5-0.8,1.5,1.4,2.2,1.9c-0.7,1.1-1.7,1.8-3.8,1.6c-0.9-0.7-0.1-1.3-0.9-2.2
	C542.2,838.2,545,838.3,544.5,837.8z"/>
<path class="st0" d="M523.5,838.1c0,0.8,0.2,1.3,0.6,1.6c-0.2,0.9-0.5-0.5-0.9-0.3c0.2,0.6,0.2,1.3,0.6,1.6
	c-0.3,1.2-3.4-0.6-3.5,0.9c-0.9-0.6-1.1-0.4-1.9-0.6c0.2-1.2,0.5-1.8-0.9-1.9c-0.2-0.9,0.6-0.6,0.6-1.3
	C521.5,838.8,521.1,838.5,523.5,838.1z"/>
<path class="st0" d="M581.2,838.5c-1.1-0.6,1.1,0.1,0,0.3c0.2,0.4,0.7,0.6,1.3,0.6c-0.5,1.2-1.8-0.8-1.9,0
	C579.8,840,580.8,838.5,581.2,838.5z"/>
<path class="st0" d="M510.3,839.1c0.3,0.2,0.7,0.3,1.3,0.3c-0.8,0.9-0.5,0.7,0.3,1.3c0,0.2,0,0.4,0,0.6
	C511,840.9,510.4,840.3,510.3,839.1z"/>
<path class="st0" d="M581.5,841c0.4-0.5,1.1-0.6,1.9-0.6c0,0.3-0.4,0.2-0.6,0.3c0,0.3,0.4,0.2,0.6,0.3
	C583,841.4,582.1,841.1,581.5,841z"/>
<path class="st0" d="M561.5,842.8c0.2,0.7,4.9,1,5,0c1.5,1.5,2,0,3.8,0.9c-0.4,2.5,1,1.2,1.3,3.1c-0.2-0.2-1.5-0.8-1.3,0.3
	c-4.5-2.5-11.3,1.9-13.5-2.8c-0.3,0.1-0.3,0.3-0.6,0.3c1.6-0.2-0.1,1.1,1.3,1.6c-1.4,0.7-4.1,0.1-6,0.3c-0.4-1.1,0.2-1.3-0.3-1.9
	c0.7-1.8,3.3-0.7,4.4-1.6c0.1,0.6,0.8,0.6,1.3,0.9c0.6-0.8-0.2-0.7,0.6-0.9C558.2,844.4,560.1,843.6,561.5,842.8z"/>
<path class="st0" d="M511,844.4c-0.1,0.4-0.8,0.3-1.3,0.3c0-0.3,0.4-0.2,0.6-0.3c-0.1-0.4-0.9-0.4-0.9,0c-0.5-0.1-0.1-0.9-0.6-0.9
	c0.5-0.2,1.8-0.3,2.5,0C510.8,843.8,509.7,843.6,511,844.4z"/>
<path class="st0" d="M508.8,845.7c0.2-0.3,0.4-0.6,0-0.6c0.5-0.2,3.1,0.3,3.1,1.6C510.7,845.8,510.6,845.7,508.8,845.7z"/>
<path class="st0" d="M582.5,846.6c-0.9-0.4,0.5-0.4,0.6,0c-0.4,0.4-0.3,0.6,0.3,0.6c0,0.2,0,0.4,0,0.6c-0.3-0.1-0.3,0.1-0.3,0.3
	c-0.4-0.1-0.2-0.3,0-0.3c-0.5-1-1.4-0.1-1.9-0.6C581,846,583.2,847.5,582.5,846.6z"/>
<path class="st0" d="M515,847.6c0,0.6-0.9,0.4-0.6,1.3c-0.5,0-1-0.9,0-0.6c0-0.6-0.9-0.4-0.6-1.3C514.6,846.7,514.4,847.5,515,847.6
	z"/>
<path class="st0" d="M512.5,849.1c-0.2-0.9,0.6-0.6,0.6-1.3c0.5,0.4,0.5,1.2,0.9,1.6c0.6,0,0.4-0.9,1.3-0.6c0,0.9-0.8,0.9-1.6,0.9
	C514.1,848.8,513.1,849.2,512.5,849.1z"/>
<path class="st0" d="M584.7,848.8c0.6,0.5-0.1,2.7-1.3,1.9c0.1-0.4,0.6-0.3,0.9-0.3C583.8,849.2,584.6,849.9,584.7,848.8z"/>
<path class="st0" d="M527.3,850.1c0.1-0.4,0.8-0.3,1.3-0.3c0.2,1.4-1,0.7-0.3,1.9c-0.3,0-0.6,0-0.9,0c0-0.3,0.4-0.2,0.6-0.3
	C527.3,850.8,527.6,850.3,527.3,850.1z"/>
<path class="st0" d="M520.4,850.7c0.3,0.2,0.3,0.7,0.9,0.6c-0.5,1.2,0.2,0.5,0.3,1.6c-0.5-0.9-1.3,0.5-1.6-0.3
	c-0.8-0.5,0.9,0.3,0.9-0.6C521,851.3,520.1,851.5,520.4,850.7z"/>
<path class="st0" d="M577.5,860.7c-0.2,0-0.4,0-0.6,0c-0.8-0.6,0.9-0.1,1.3,0c-0.1,0.3-0.3,0.3-0.3,0.6c0.2,0.6,0.9,0.2,0.3,0.9
	C577.6,862,577.4,861.5,577.5,860.7z"/>
<path class="st0" d="M495.9,915c-0.2-0.7-1.5-1-0.6-1.9c0.3,0.5,1,1,1.3,0c-0.2-0.5-0.3,0-0.3,0.3c-0.6,0.3-0.2-1.8-0.6-0.6
	c0.4-3.4,2.6-9.8,2.5-15.7c-1.3-1.9-3.1-3.4-3.8-6c-0.8-1.1-2.6-1.1-4.1-1.6c0.2-1.3-0.8-7.8-2.2-7.5c3.3-2.3,12.4-0.9,19.1-0.9
	c39.4,0,71.8-1.4,106-0.6c-0.1,2.8-0.7,4.9-0.9,7.5c-1.6-0.2-1.6,1.3-3.5,0.9c-4.2,5.7-6.3,13.1-3.5,21.6c1.8,5.5,5.2,11.4,8.5,15.7
	c4.3,5.8,12.3,10.2,18.2,15.4c0.1,6.6,0.1,10.5,0.3,17.9c-0.3,0-0.2,0.4-0.3,0.6c-6.9,6.6-21.8,5.3-36.4,4.7
	c-15.6-0.7-34.9,0.5-51.8,0c-23.3-0.7-52.5,0.5-74.7,0.3c0.4-5.7-1-11.3,0-14.4c0.2-0.7,0-0.4,0.6-0.3c-0.7-1.6-0.7-2.7-1.3-3.8
	c2-2.9,4-5.4,7.5-5.3c-0.1-0.4-0.8-0.3-1.3-0.3c1.2-3,6.6-2.8,11.3-2.8c5.7,0,11.6,0.8,17.3,0.3c-0.3-0.8-0.5-1.8-1.9-1.6
	c0.9-1.3,2.2,0.6,3.1,0.3c1-1,1.7-1.7,3.1-1.6c0-0.6-1.1-0.2-1.3-0.6c0.3-0.4,0.5,0.1,0.9-0.6c-0.1-0.8-0.5,0.4-1.3,0
	c-0.2,1.9-1.5,0.7-1.6,2.5c-1.6-0.7,0.6-1.7,0.6-2.8c-0.9-0.2-0.9,0.4-1.9-0.6c1.3-0.5,2.7-0.3,3.5,0.6c0-1.1,0.4-3.3-2.5-3.5
	c0,0.9,1.8,0.3,1.9,1.9c-0.4-0.1-0.6,0.1-0.6,0.3c-1.6,0.1,1-1.1-0.6-1.3c-0.1,0.8-0.5,0-0.9,1.3c-0.8-0.4-3.7-0.1-3.5-1.3
	c0.2-0.5,0.7-0.2,0.6,0.3c0.3-0.2,0.3-0.7,0.9-0.6c-0.6-0.6-1.1-0.5-1.9-0.3c0.8-0.9-0.4-1.4-1.3-0.9c0.1,0.9,1,0.9,1.3,1.6
	c-0.4,0.3-2-0.9-2.2-1.9c-0.5,0.1,0.5,1.5-0.9,1.3c0.2,0.3,0.6,0.5,0.9,0.6c-1.9,0.4-1.9,0.2-4.1,0.9c1.7-0.7,2.8,1.5,3.8,0.6
	c0.9,1.2-1.1,1-1.3,0.9c-0.3-0.2,0.2-1.2-0.9-1.3c-0.6,0.5,0.2,1-0.6,1.6c-0.7-0.4-0.7,0.2-1.3-0.6c-1.7-0.2-1.4,2.4-2.8,1.6
	c-0.2,0.8,0.6,0.6,0.9,0.9c-0.2,0.8-2.1-0.5-0.9,0.6c-1.2,0.1-3.3,0.4-4.1,0.6c-0.1-0.9,0.5-1.1,0.9-0.6c-0.7-0.6-0.8-1.6-0.9-1.9
	c-1.1,0.3,0.7,1.8-0.3,1.9c-1-0.4-1.5-1.2-2.8-1.3c0.4-0.8,1.6,0.2,2.2,0.3c0.8-0.2-2.2-2.1-0.6-2.2c0.7,0.3,0.3,0,0.6,1.3
	c1.3-1.2-0.9-1.6-0.9-2.5c0.4-0.1,0.6-0.4,0.6-0.9c0.7-0.2,0.4,0.6,0.9,0.6c0.7-0.5,1.1-2.4,2.2-1.6c-0.2-1.2-0.9,0.1-1.6-0.6
	c0.8-1.3,0.5-1.2,0.9-2.5c0.5,0.1-0.3,0.6,0.3,0.6c0.9-0.1,0.2-1.3,1.3-1.9c0-0.7-0.9,0.1-0.6,0.6c-0.9-0.5,0.7-1.2,0.6-1.9
	c0.5,0.1,0.3,1,1.3,0.6c-1.3-0.6,0.6-1.1,1.3-1.6c-1-0.1,0-1.9-0.9-0.9c-0.7-0.7,0.6-2.1,1.6-1.3c-1.6-0.5-0.3-2.1,0-3.5
	C495.2,918.8,493.7,915.6,495.9,915z M493.7,932.9c0.5-0.4,0.5-1.2,0.9-1.6c0.2,0,0.4,0,0.3-0.3c-1.7,0.3,0-0.8-1.3-0.9
	c-0.7,1.1,0.9,1.4-0.3,2.2c0-0.5-0.9-0.2-0.3,0C493.5,932.2,493.4,932.8,493.7,932.9z M496.9,929.7c-0.1-0.7,0.1-1.2,0.3-1.6
	c-1.5-0.2-0.4,1.2-0.9,1.3c-0.4,0-0.5-0.5-0.6,0C496,929.5,496.2,929.9,496.9,929.7z M498.7,929.4c0-0.2-0.3-0.4-0.3,0
	c0.8,0.6,1.8-0.9,2.5,0.3c-0.1-0.9-0.5-1.3-1.6-1.3C499.2,928.9,499,929.2,498.7,929.4z M500.9,930.4c0.7-0.1,1.2,0,1.6,0.3
	c0-0.4,0.6-1.7,0-0.9C502.5,930.3,500.9,929.1,500.9,930.4z M514.1,930.7c0.4-0.5,1.6,0.3,1.9-0.9
	C515,929.9,513.5,929.7,514.1,930.7z M509.1,931.6c-1.1,0.2-0.4-1.3-1.6-0.9C506.6,931.8,508.4,932.7,509.1,931.6z M512.2,933.2
	c-0.5,0.1-1.2-0.1-1.3,0.3c1.7-0.1-0.7,1.2,0.3,1.3c1.1-0.6,1.4-2.3,0.9-3.1C511.6,932.2,512.4,932.2,512.2,933.2z M514.1,934.4
	c0.3-0.4,0.4-0.8,0.3-1.6c-1,0.6-1.4,0.1-1.9,0.9c0.6,0.1,1.6-0.3,1.3,0.6c-1-0.4-0.7,0-1.9,0c-0.4,0.9,0.9,1.5,0.9,0.9
	c-0.3,0-0.4-0.5,0-0.6c0.4,1.4,1.3,0.5,2.2,1.6c-1.5,0-0.8,1.1,0,1.3c-1-0.3-1.2,0.3-1.6,0.6c0.1-0.7-0.9-0.3-0.9-0.9
	c0.8,0,1,0.6,1.3-0.3c-1.1,0,0.7-1-0.3-0.9c-0.8,1-2-1.3-2.8-0.3c-0.4-1-0.2-1.2,0.3-1.9c-0.8,0.3-1.3,0.8-1.6,1.6
	c0.9,0.2,0.4,0.4,0.9,1.3c-1.7,0.2-2,0.8-3.5,0.6c0,0.4,0.1,0.9-0.3,0.9c0.5-0.8-1.1-0.9-0.9-0.3c0.4,0.1,0.2,0.3,0,0.6
	c2.9-0.3,6.4,0.6,7.2-0.6c1.1,0.7,1.8,0.4,4.4,0.6c-0.3-1.4,0.7-1.4,1.3-1.9c0.1-1-0.7-1.5,0-2.2c-1-0.3-0.4,1-1.3,0.9
	c0.3-0.9-0.4-0.8-0.3-1.6c0.4,0,0.4,0.4,0.9,0.3c0-0.3,0-0.6,0-0.9C516.4,933.6,515.7,933.9,514.1,934.4z M597.5,934.1
	c0.7,0,0.9-0.5,1.9-0.3c-0.2-0.8-1.6-0.2-0.3-1.6c-1.9-0.2-0.4,1-1.6,1.3c0-0.5-0.9-0.2-0.3,0C597.5,933.6,597.6,933.8,597.5,934.1z
	 M584.1,933.8C580.6,933.4,581.4,935.2,584.1,933.8L584.1,933.8z M588.8,933.8c-0.6-0.1-0.6,0.4-0.9,0.6c0.2-0.6-1.6-1.1-1.3,0
	C587.7,933.8,588.1,935.4,588.8,933.8z M489,935.7c-0.3-0.4-1.1-0.4-1.3-0.9c0,0.4,0,0.8,0,1.3c0.8,0.4,1-0.2,1.3,0.3
	c-0.2,0-0.4,0-0.3,0.3c0.6-0.2,1.3-0.2,1.6-0.6c-1.3-1.7,0.6,0.4,0.6-1.6c-0.9,0-0.6,0.5-1.3,0C489.6,935,489.4,935.5,489,935.7z
	 M597.2,934.4c-0.6,0.6,0.3,1.1,0.6,1.6c0.5-0.3,1.6-1.2,0.3-1.6C598.8,936,597.6,935.1,597.2,934.4z M518.5,935.4
	c0.8,0.1,0.5,1.4,1.3,1.6c-0.3,0.7-1.2,0.7-2.2,0.6c0.1,1.7,5.4,1.2,3.5,0c1,0.5,1,0.9,1.9,0.9c0-0.6-0.2-1-0.6-1.3
	c-0.6,1.1-0.9-0.6-1.6-0.3c-0.6,0.1-0.1,1.4-0.9,1.3c0.1-1.1,0.6-2,1.3-2.5c0,1.3,1.8-0.2,1.9-0.9c-1.1,0.5-2.2,0.9-3.8,0.9
	C519,935.4,518.6,934.9,518.5,935.4z M539.2,938.2c-1.2,0.2-0.4-1.7-1.9-1.3c-0.1,0.6,0.4,0.6,0.6,0.9c-0.9-0.3-1.5-0.4-1.9-0.6
	c0.5-0.7,1.9-0.1,0.6-0.9c0.4,0,0.7,0.1,0.9,0.3c-0.1-0.5,0.5-0.8,0-0.9c-0.7,1.1-1.4-0.5-1.9-0.6c0.1,0.6-0.4,0.6-0.6,0.9
	c1.5-0.1-0.3,1.1,0.6,1.6c-0.6-0.1-0.6,0.4-0.9,0.6c-0.1-0.4-0.7-0.4-0.9-0.6c0,0.4-0.1,0.7-0.3,0.9c2.3-0.5,4.7,0.8,6.3-0.6
	c-0.5,0.1-0.8-0.5-0.9,0C539.1,937.9,539.3,937.9,539.2,938.2z M595,937.9c1,0.5,0.7-2,0.9-0.3c0.3-0.2,2.4-0.3,1.6-0.6
	c-1.1,0.3-1.1-0.5-0.6-0.9c-1.4-0.2-2.5,0.7-3.5-0.9C593.6,936.4,595.1,936.4,595,937.9z M592.2,936c0.6,1.5-0.7,1.1,0.3,1.9
	c-4.6-0.2,1.4,2.1,1.9-0.9c-0.4,0-0.8,0-1.3,0c-0.3,0.6,0.9,1,0,1.3c-1.3-0.7,0.7-3.2-0.6-2.5c0.2,0,0.4,0,0.3,0.3
	C592.6,936,592.4,936,592.2,936z M554.9,937.9c0-0.2,0-0.4,0.3-0.3c0,0.4,0.1,0.7,0.6,0.6c0.5-1-0.1-1.2-0.6-1.9
	C556.3,937.5,553.9,937.1,554.9,937.9z M556.5,936.6c-0.1,1.5,1.7,0.8,1.6-0.3C556.9,936.5,557.6,937.2,556.5,936.6z M604.1,938.5
	c0.5-1.2-0.8-0.6-0.9-1.3c1,0-0.7-1.3-0.6-0.3c1.4,1.1-1.7,0-0.6,0.6C602.8,937.8,603.2,938.4,604.1,938.5z M580,937.6
	c0.6-0.1,1,1.5,1.3,0.6c-0.2,0-1-1-0.3-0.9c0.5,0.2,0.8,0.5,1.3,0.6C582.4,936.5,580.2,936.9,580,937.6z M591.3,936.9
	c0,0.8-1.1,0.1-1.3,0c-0.1,0.4-0.9,1.5-0.3,1.6c0.2-0.4,0.3-0.7,0.6-0.9C591,937.8,592.1,937.1,591.3,936.9z M524.1,937.9
	c-0.1,1.3,2,0.4,2.5,0.3c0.2-0.5-0.6-1.4-0.6-0.6C527,938.1,524.4,938.5,524.1,937.9z M529.5,938.5c1.2-0.3,0.8-0.7,2.2-0.3
	c0-0.4,0.1-0.9-0.3-0.9c-0.1,0.2,0,0.6-0.3,0.6c-0.1-0.4-0.5-0.3-0.9-0.3C530.2,938.2,529.7,938.2,529.5,938.5z M559.3,938.2
	c-1,0.2-0.4-1.1-1.6-0.6c0,0.4-0.1,0.7-0.3,0.9C558.2,937.9,558.8,938.8,559.3,938.2z M476.8,942.6c-1.9-0.1-1.9-0.2-3.1,0.9
	c1.6-0.6,4,0.6,5.3-0.6c-0.3-1.1-1,0.2-1.6-0.6c1.3-0.3,2.7-0.6,3.1-1.9C480,941.7,474.4,941.4,476.8,942.6z M529.8,941
	c0,0.9,0.5,0.6,0,1.3c1.5-0.6,1.1-0.9,2.2-0.6c-0.4-0.1-0.3-0.5-0.3-0.9c0.4,0,1.2-0.1,0.6-0.3C531.2,940.3,530.6,941.7,529.8,941z
	 M481.8,941.7c0.2,1.2-1.2,0.7-1.3,1.6c0.5-0.1,1.2,0.1,1.3-0.3c-0.2,0-0.4,0-0.3-0.3c0.8-0.2,1.1-0.4,1.6,0.3
	c-0.4,0-0.7-0.1-0.9-0.3c0.3,1.2,0.2,1.8-0.6,2.5c1.4,0,2.3-0.5,2.8-1.3c-0.7,0.1-1.2-0.1-1.3-0.6c0.6-0.3,1.3-0.5,1.6-1.3
	c-0.5-0.1-0.8,0.5-0.9,0c0-0.5,2-0.6,0.9-1.3C484.3,941.6,483.1,941.7,481.8,941.7z M486.8,942.6c0.8,0.4,1.8-0.6,1.9,0
	c-1.1,1.3-2.7,0.5-3.5,1.9c1.8-0.4,4.4,0,5.3-1.9c-0.5-0.1-1.2,0.1-1.3-0.3c0.7-0.4,1.8-0.9,0.6-1.6
	C490.5,942.3,487.3,941.2,486.8,942.6z M494.3,944.5c0-0.2,0-0.4,0-0.6c0.6,0,1.3,0,1.9,0c0.5-1.1-1.1-0.2-0.9-0.9
	c0.6-0.3,1.3-0.5,1.6-1.3c-0.5-0.1-0.2-0.7,0-0.9c-1.9,0.2-0.2,1.2-2.2,0.6c0.3,1.2-1.2,0.9-2.2,1.6c1,0.4,0.7,0,1.9,0
	c0,0.3,0.3,0.4,0.3,0.6C494.3,943.4,493.6,944.4,494.3,944.5z M498.4,941.3c0,0.3,0,0.6,0,0.9c1.8-0.3,2.8,0.2,4.1-0.9
	c-0.4,0-0.7-0.1-0.6-0.6C499.5,940.9,501,941.8,498.4,941.3z M509.4,943.5c-0.3-1,1-0.4,0.9-1.3c-1-0.2-0.7,1-1.9,0.6
	c-0.9-0.5,0.5-1.3-0.3-1.6c-0.5,1.8-1.7-0.9-2.5,0.3C507.4,941.8,507.9,943.2,509.4,943.5z M517.9,942.9c0.3-0.2,1.7-0.1,2.2-0.9
	C519.5,941.2,517.1,942.4,517.9,942.9z M499.7,944.2c1.1-0.1,1.7-0.6,2.2-1.3c-0.9,0.3-2.2-0.5-2.2,0
	C500.5,943,499.8,944,499.7,944.2z M513.5,943.9c0-0.4,0.1-0.9-0.3-0.9c-0.1,0.4-0.5,0.3-0.9,0.3c0,0.4-0.1,0.7-0.3,0.9
	C513.6,944.3,511.8,943.2,513.5,943.9z M477.7,944.5c0.1-0.5-1.7-0.5-1.6,0C476.2,944.9,477.9,945.8,477.7,944.5z M486.5,944.8
	c-0.1,1.5,2.9,0,1.9-0.3C487.8,945.1,487.3,945,486.5,944.8z M499.7,945.4c-0.1-0.7,1.7,0.7,1.9-0.3
	C501.3,944.4,498.7,944.9,499.7,945.4z"/>
<path class="st0" d="M501.6,935.4c-0.2-1,0.6-0.5,0.6,0c0.4-0.1,0.3-0.8,0.3-1.3c0.7,0.2,0.9,0.8,1.9,0.6c-0.1,0.6-0.1,1.4-0.9,1.3
	c0.8-0.5-0.5-1.1-0.3,0C502.2,936.2,502.5,935.1,501.6,935.4z"/>
<path class="st0" d="M525.7,780.7c1.2-1.2-1.4-4.2,0.9-5.6"/>
<path class="st0" d="M565.9,796.4c0.8,1.2,0.9-1,1.9-0.6c-0.7,1.2-0.6,1.9,0.9,1.3c-0.2,0.6,0.4,2.1-0.3,2.2c-1.3,0.1,0-0.5,0-0.9
	c-0.1-0.3-0.3-0.6-0.6-0.6c-0.1,1.8-3.3,1-5,1.3c0.6-1.7-0.4-1.2,0-2.8c-1.3,0.2-0.9,2.3-0.6,2.5c-0.7,0.8-3,0.5-2.2-0.6
	c-1.2,0.9-1.6,1.2-3.1,1.3c0.1-1.5,0.3-1.5,0-2.8c-0.6,0-0.7,0.4-1.3,0.3c-0.2,1,0.9,0.6,0.6,1.6c-1.1,0.8-1.8,1.2-2.8,0.3
	c0.7-1.1,0.3-1.3,0.3-3.1c1.7,1.1,4.3-1.2,4.7,0.6c2.1-1.6,4.8,0.1,6.6-0.9c0.1,0.8,0.1,1.6-0.9,1.3c0.4,0.4,0.4,1.2-0.3,1.3
	c0,0.7,1.3,0.1,1.9,0.3c0.3-1.1-0.5-1.2-0.3-2.2c0.4-0.4,1.1-0.4,1.9-0.3C566.8,795.9,566.6,796.5,565.9,796.4z"/>
<path class="st0" d="M531,798c-0.8-1-0.7,1.6-1.9,1.3c0.5-1.1-0.2-1.4,0.3-2.5c-1.6-0.4-1.2,1.3-1.3,2.5c-1.6-0.7-0.5-2.4,0-3.5
	c0.6,0,1.3,0,1.9,0c0,0.4,0,0.8,0,1.3c0.6-0.1,0.7-0.5,0.6-1.3c0.8-0.1,1,0.4,0.9,1.3c0.4-0.1,0.3-0.8,0.3-1.3c0.7,0,1.5,0,2.2,0
	c0.1,1-0.7,1-1.6,0.9c1.4,0.4,0.6,1.1,0,1.9c0.8,0.1,0.7-0.6,1.6-0.3c-0.2,1.9-2.5,0.3-3.5,0.9C530.8,798.7,530.6,798,531,798z"/>
<path class="st0" d="M542.3,803.3c-0.4,1.4-0.2,1.8,0.3,2.8c-1.9,0.2-2.8-0.3-4.1,0c0.1-0.2,0.8-1.2,0-1.3c-0.5,0.1,0.3,1-0.6,1.3
	c-0.7-0.4,0.2-1.7-1.3-2.5C538.7,803.1,539.9,803.6,542.3,803.3z"/>
<path class="st0" d="M549.2,803.6c0,1.4-0.5,2.3-1.6,2.5c-0.4-0.2,0-1.2-0.6-1.3c-0.9,0.3,0.5,0.8-0.3,1.3c-0.9,0-1.9,0-2.8,0
	c-0.5-0.7,0.7-1.6,0-2.2C545.5,803,547.3,802.9,549.2,803.6z"/>
<path class="st0" d="M532.3,803.3c1.2,0.7,2.8-0.1,3.8,0.3c-0.6,1,0.1,1.3-0.3,2.5c-2.3-0.3-2.3,0.8-3.8,0
	C532,805.2,531.8,803.8,532.3,803.3z"/>
<path class="st0" d="M518.8,803.6c0.7-0.1,1,0.3,0.9,0.9c0.4-1.2,1.6-1.1,2.8-0.6c-0.2,0.7-1.3,1.5,0,1.9c-0.2,1-2.6,1.3-2.5-0.3
	c-1.1-0.5-0.2,1.1-0.9,0.9C518.1,806.4,519.7,804.8,518.8,803.6z"/>
<path class="st0" d="M535.7,809.3c-0.7,0.7-0.7,0.8,0,2.2c-1.6,1.1-2.8-0.6-4.1,0c0.3-0.4,0.4-0.8,0.3-1.6c-0.7,0.3-0.5,1.4-0.9,1.9
	c-0.3-1.1-0.7-2-1.3-2.8C532.1,809.6,533.7,808.2,535.7,809.3z"/>
<path class="st0" d="M537,808.7c1.1,0.3,2.8,0.4,5,0.3c0,0.6,0,1.3,0,1.9c0.6-0.6,0.6-1.4,0.3-2.2c2,0.3,4.2,0.2,6.3,0
	c1,0.2,0,2.5,1.3,2.5c-4.8,0.7-9.1,0.2-12.5,0.3C537.6,810.2,536.8,809.9,537,808.7z"/>
<path class="st0" d="M528.2,808.3c1.3,0.8-0.3,2.1-0.3,3.5c-1.1,0.1-2,0-2.8-0.3c0-0.8,0-1.7,0-2.5
	C526.6,808.6,527.9,810,528.2,808.3z"/>
<path class="st0" d="M536.1,814c1.1,0.2,2.4,0,3.5,0.9c0,0.7-0.5,0.9-0.3,1.9c-1.4-0.2-2.4,0.8-3.5,0
	C536.1,815.4,535.7,815.2,536.1,814z"/>
<path class="st0" d="M540.5,814.3c1.5-0.1,3-0.6,4.1,0.3c-0.8,0.4-0.8,1.7-1.3,2.5c-0.9,0-1.9,0-2.8,0
	C540.2,816.1,540.8,814.4,540.5,814.3z"/>
<path class="st0" d="M551.1,814.3c-0.8,1.3,0.2,1.7,0.3,2.8c-2.6,0.1-3.6-0.5-5.3,0c0-0.9-0.1-2-0.9-2.8
	C547.8,813.9,548.7,814.1,551.1,814.3z"/>
<path class="st0" d="M571.8,813.7c-0.4,1.9,0.8,2.1,0.9,3.5c-1.5,0.2-2-0.5-3.5-0.3c0.1-0.4,0.6-0.5,0.6-0.9c-0.9,0.8-2-0.2-1.9,1.3
	c-2-0.4-4.2,0.2-6.9-0.6c0.5-0.1,1.1-1.5,0.3-1.9C563.5,813.2,568.2,814.6,571.8,813.7z"/>
<path class="st0" d="M533.2,821.5c-0.7-0.7-1,1.5-2.5,0.9c0.2-1.6,0.2-1.5,0-3.1c8.2,0.4,9.4,0.1,18.5,0.3c0,0.5,0.2,0.8,0.6,0.9
	c-1.3,0.7,0.2,0.9,0.6,1.6c-2.1,0.7-5.5,0.1-8.5,0.3c-0.2-0.5,0.4-1.6-0.3-1.6c-0.9,0.3,0.6,1.1-0.3,1.6c-3.7-0.2-5.4,0.4-8.8,0
	C532.9,822.2,532.8,821.6,533.2,821.5z"/>
<path class="st0" d="M555.2,819.3c3,0.2,3.5,0.3,6.3,0c0.1,1.3-0.7,1.8-0.3,3.1c-1.8-0.3-4.6,0.5-6-0.3
	C555.2,821.2,555.2,820.3,555.2,819.3z"/>
<path class="st0" d="M527.3,820.9c0.6,0.1-0.1-0.9-0.3-0.9c1-0.8,1.8-0.4,2.5,0.3c0.3,0.8-1,1.5,0,1.9c-2,1-5.7,0-7.8,0.6
	c-0.3-0.7,0.2-2.3-0.3-3.5c1.2,0.7,2.3,0.1,3.5,0.3c1.2,0.8-0.4,1.1,0.3,2.2c0.6-0.4,0.7-1.4,0.9-2.2
	C526.9,819.6,526.8,820.5,527.3,820.9z"/>
</svg>
