<?xml version="1.0" encoding="utf-8"?>
<!-- Generator: Adobe Illustrator 19.0.0, SVG Export Plug-In . SVG Version: 6.00 Build 0)  -->
<svg version="1.1" id="Layer_1" xmlns="http://www.w3.org/2000/svg" xmlns:xlink="http://www.w3.org/1999/xlink" x="0px" y="0px"
	 viewBox="-509.9 864.6 270.8 217.7" style="enable-background:new -509.9 864.6 270.8 217.7;" xml:space="preserve">
<style type="text/css">
	.st0{fill:#FED130;}
</style>
<g>
	<path class="st0" d="M-468.1,905.5c2.2-0.5,4.3-1.1,6.2-1.9c2.4-0.9,3.4-4.1,3.2-7c-0.2-2.7-1.4-5-3.5-4.5
		c-3.3,0.7-7.1,2.3-11.1,3.1c-6.4,1.4-13.4,2.4-20,3.8c-3.8,0.8-7.6,1.7-11,3c-2.8,1-5.8,6.4-5.6,9.2c0.1,1.1,0.8,1.8,2.3,1.5
		c3.5-0.7,6.9-2,10.5-2.8c3.8-0.8,7.7-1.5,11.6-2c-2.2,1.5-3.8,3.5-4.3,5.7c-6.4,31-9.9,66.3-9.6,70.2c0.2,3.1,3.1,4.2,5.7,3.7
		c1.9-0.4,3.8-1.8,4.2-4.2c2.4-17,5.3-36.4,12.3-74c0.2-0.8,0.1-1.9-0.3-2.4C-474.4,906.6-471.1,906.1-468.1,905.5z"/>
	<path class="st0" d="M-239.1,905.8c-0.1-0.9-0.3-1.2-0.9-1.1c-0.6,0.1-1.6,1.2-2.2,2.7c-3.4,8.5-7.7,15.2-12.6,20.9
		c5.3-47.2,7.2-49,7-52.3c-0.2-2.8-3.9-4.1-7.1-3.4c-2.2,0.5-4.2,1.9-4.5,4.1c0,0-1.1,6.9-2.6,16.6c-4.3,22.4-5.9,37.3-12.8,38.8
		c-1.9,0.4-2.8-1.2-3-4.1c-0.3-4.8,1.6-17,3.5-28.5c1.1-7,2.8-13.8,2.5-18.1c-0.2-3.1-4.2-4.6-7.5-3.9c-2.3,0.5-4.2,1.9-4.4,4.5
		c-1.8,15.8-7,36.3-6.2,48.8c0.5,7.8,3.4,12.4,11.1,10.8c5.4-1.2,9.5-5.9,12.4-13.3c-0.5,4.5-0.9,8.7-1.1,12.5
		c-12.4,10.5-25.7,18.5-24.8,32.1c0.4,6.8,7.6,10.7,13.9,9.3c10.1-2.2,19-15,22.9-45.6c6.2-7,12.1-15.9,16.1-28.4
		C-239.2,907-239.1,906.2-239.1,905.8z M-281.7,978.9c-0.5,0.1-0.9,0.2-1.3,0.1c-2-0.7-3.6-2-3.8-4.7c-0.6-9.9,10-18.2,18.7-25.7
		C-268.6,957-269.7,976.3-281.7,978.9z"/>
	<path class="st0" d="M-415.7,999.6c2.2-0.5,4.4-1.1,6.3-1.9c2.4-0.9,3.4-4.1,3.2-7c-0.2-2.7-1.4-5-3.6-4.5
		c-3.4,0.7-7.2,2.3-11.2,3.2c-6.4,1.4-13.4,2.4-20.1,3.8c-3.9,0.8-7.6,1.8-11,3c-2.8,1-5.9,6.4-5.7,9.3c0.1,1.1,0.8,1.9,2.3,1.5
		c3.5-0.7,6.9-2,10.5-2.8c3.9-0.8,7.7-1.5,11.6-2c-2.3,1.5-3.8,3.5-4.3,5.7c-6.5,31.2-9.9,66.6-9.7,70.6c0.2,3.1,3.1,4.2,5.7,3.7
		c1.9-0.4,3.8-1.8,4.2-4.2c2.4-17,5.3-36.6,12.3-74.4c0.2-0.8,0.1-1.9-0.3-2.5C-422,1000.7-418.6,1000.2-415.7,999.6z"/>
	<path class="st0" d="M-308,989.6c1.1-5.3,2.7-11.2,2.5-14.3c-0.3-4.2-3.9-5.5-7.1-4.8c-2.4,0.5-4.6,2-5.1,4.2
		c-1.3,5.5-2.5,11.1-3.7,17.1c-2.1,0.3-4.1,0.8-6.1,1.2c-1.4,0.3-2.2,2.5-2.1,4.3c0.1,1.6,0.9,3.1,2.4,2.9l4.1-0.5
		c-2,10.9-3.5,21.7-4.3,30.4c-0.3,0.4-0.5,0.9-0.8,1.5c-2.7,6.3-7.5,9.4-12.1,10.6c3.7-9.2,5.7-19.8,5.1-28.3
		c-0.7-10.7-5.5-18.2-15.8-16c-8.1,1.7-13,8.9-15,17.2c-3.3,0.2-5.3,3.7-6.1,6.1c-0.6,1.5-1.1,3.1-1.6,4.8c-2.3,5.4-6,12.3-9.5,13
		c-1.9,0.4-3-0.4-3.1-2.1c-0.3-4.4,5.2-17.3,4.7-24.2c-0.3-5.3-2.3-7.7-7.1-6.7c-6.3,1.4-11.5,9.5-15.6,20.1
		c0.5-2.4,1.8-5.8,1.7-7.9c-0.2-3.5-3.7-4.8-6.7-4.1c-2.2,0.5-4.2,1.9-4.7,4.2c-4.6,20.4-7.4,45.9-6.8,54.6c0.2,3.7,2.8,4.9,5.2,4.4
		c2.2-0.5,4.3-2.3,4.5-5.1l1.2-13.6c2-21.7,11.4-41.8,15.8-42.7c0.9-0.2,1.3,0.3,1.4,1.2c0.2,3.9-4.9,13.4-4.4,20.2
		c0.5,7.5,5.5,8.5,10.7,7.4c4-0.9,7.5-3.9,10.4-7.7c-0.4,3.5-0.6,7.1-0.3,10.6c0.7,11.4,5.6,19.9,15.9,17.6
		c7.3-1.6,13.8-9.1,18.2-18.8c6.3-1.4,11.4-5.5,14.3-9.6c-0.2,3.3-0.2,6.2-0.1,8.3c0.6,9.3,5.1,11.9,10.1,10.8
		c10.8-2.3,18.4-24.6,19.9-29.4c0.3-1,0.4-1.7,0.4-2.2c-0.1-0.9-0.5-1.3-1-1.2c-0.6,0.1-1.2,1-2,2.7c-3.2,6.4-8.9,21.5-14,22.5
		c-1.9,0.4-2.8-1.4-3-4.6c-0.6-9,4.2-29.5,8.1-47c9.3-3,14-5.3,13.9-7C-295.7,987.8-301.7,988.7-308,989.6z M-357.3,1058.2
		c-0.4,0.2-0.8,0.3-1.2,0.4c-4.2,0.9-6.2-3.7-6.7-10.3c-0.2-3.6,0-7.8,0.7-12c2.4,5.5,6.6,9.8,13.6,10.6
		C-352.7,1052.9-354.9,1057.3-357.3,1058.2z M-349.6,1042.1c-6.3-2.2-9.1-9-9.5-16.4c-0.7-10.8,3.3-22.1,7.7-23.1
		c3.1-0.7,4.6,3.8,5,10.3C-346,1021.1-347.3,1032.7-349.6,1042.1z"/>
	<path class="st0" d="M-290.6,910.4c-1.2,0-2.4,0.6-3.4,1.3c-0.1-0.1-0.3-0.1-0.4-0.2c-3.2-0.9-7,0.2-10.2,1.7c0,0,0,0-0.1,0h-0.1
		c-1.8,0.3-3.5,1-5.1,1.7c-0.8-0.2-1.8-0.1-2.7,0.3c-1,0.4-1.8,0.9-2.6,1.3c-1.3,0.6-2.6,1-3.9,1.4c-0.1-0.2-0.1-0.4-0.1-0.6
		c1-1.6,1.7-3.4,2.1-5.1c0.6-1.1,0.5-2.1,0-3.1c0.1-0.1,0.2-0.2,0.3-0.4c0.6-0.1,1.1-0.3,1.6-0.8c1.8-2,3.3-5.1,3-7.8
		c0.1,0,0.1,0,0.2-0.1c0.5-0.3,0.8-0.6,1.1-1.1c0.1-0.2,0.1-0.2,0.1-0.3c0.7-0.9,0.8-1.9,0.5-2.7c0.3-0.4,0.6-0.8,1-1.1l0,0
		c0.4-0.4,0.8-0.6,1.1-1.1c0.1-0.2,0.1-0.3,0.2-0.5l0,0c0.2-0.3,0.3-0.5,0.3-0.8c0.1-0.2,0.1-0.5,0.2-0.7c0.3-0.9,0.6-2.3,0.6-3.2
		c0-1.1-1.5-1.8-2.2-0.9c-0.5,0.6-0.9,1.3-1.6,1.7c-0.8,0.4-1.3,1.4-1.7,2.1c-0.3,0.7-0.4,1.4-0.1,2.1c-0.1,0.2-0.2,0.5-0.3,0.7
		c-0.8-0.1-1.6,0.1-2.4,0.7c-1,0.8-1.4,2.3-1.2,3.5c-1.7,1.2-2.8,3.4-3.4,5.5c-0.8,0.7-1.3,1.6-2.1,2.5c-1.6,0.1-3.1,1.3-3.5,4.1
		c0.2-1.5-0.1-0.1-0.2,0.2c-0.2,0.8-0.5,1.5-0.8,2.3c-0.1,0.4-0.2,0.7-0.3,1c-1.5,0.4-2.7,1.4-3.5,2.9c-0.6,0.4-1.2,0.8-1.7,1.3
		c-2.1,2-2.8,4.7-2.9,7.5c-0.1,1.8,1.2,3.6,2.9,4.3c-4,9.8-8.1,18.1-13.5,19.3c-3.9,0.9-5-2.3-10.4-13c12-6.8,19.2-25.3,18.4-37.4
		c-0.5-7.4-3.8-12.4-10.9-10.8c-5.9,1.3-10.6,8.3-14.5,17.5c2.3-13,5.1-26.1,7.5-36c0.1-0.4,0.1-0.7,0.1-1.1c-0.2-3-4.3-4.4-7.7-3.7
		c-2.2,0.5-4,1.7-4.6,4c-3.3,14.6-6.4,33.4-8.7,50.1c-2.1,5.5-6.4,14.3-10.3,15.2c-1.9,0.4-3-0.4-3.1-2.1
		c-0.3-4.3,5.1-17.2,4.7-24.1c-0.3-5.3-2.3-7.7-7.1-6.6c-6.3,1.4-11.5,9.5-15.5,20c0.5-2.4,1.8-5.8,1.7-7.9
		c-0.2-3.5-3.7-4.7-6.6-4.1c-2.2,0.5-4.2,1.9-4.7,4.1c-2.2,10-4.1,21.3-5.3,31.2c-0.4,0.4-0.8,1.1-1.1,2c-1.2,3-8,20.6-12.6,21.5
		c-1.2,0.2-1.7-0.8-1.9-3c-0.6-8.7,8-45.6,7.6-50.6c-0.2-3.2-3-4.5-5.8-3.9c-3.1,0.7-6,3.2-6.7,7.5c-4.1,26.9-7.4,51.8-14.8,53.4
		c-1.9,0.4-2.9-1.2-3.2-4.6c-0.5-8,3.2-25.5,6-46.1c0.1-0.4,0.1-0.9,0-1.3c-0.2-3-3-4-5.8-3.4c-2.9,0.6-6.2,3.1-6.6,7.1
		c-1.6,15.4-5.8,34.5-5.1,46.5c0.5,7.9,3.3,12.7,10.5,11.2c5.3-1.1,9.2-6,12.3-13.2c0.8,8.4,5.5,9.3,9.4,8.5
		c7.7-1.7,13.5-13.5,16.8-21.8c-0.5,5.7-0.7,10.3-0.5,13.2c0.2,3.7,2.8,4.9,5.2,4.4c2.2-0.5,4.3-2.3,4.5-5.1l1.2-13.6
		c2-21.6,11.4-41.6,15.7-42.5c0.9-0.2,1.3,0.3,1.4,1.2c0.2,3.8-4.9,13.3-4.4,20.1c0.5,7.4,5.5,8.5,10.6,7.4c4.8-1,9-5.3,12.1-10.2
		c-1.8,14.4-2.8,25.6-2.7,28.4c0.2,3.2,3.8,4.7,6.6,4c1.6-0.4,2.9-1.4,3.1-3.5c0.2-3.2,1-9.9,2.3-18.6l0.1-0.2
		c6.8,13.2,9.7,19.6,19.6,17.5c9.8-2.1,15.9-15.4,19.7-26.6c0.2,0,0.3,0,0.5,0c0.2,0.4,0.6,0.7,1.1,0.9c0.6,0.3,1.2,0.7,1.8,1.1
		c1.5,1.9,3.5,3.3,5.4,4.8c0.9,0.7,1.9,0.7,2.9,0.4c1.2,1,2.4,1.9,3.8,2.6c0.5,0.5,1,0.7,1.6,0.8c1.8,1.3,4.1,2.3,6.1,2.2
		c0.3,0.4,0.6,0.8,1,1.2c0.6,0.8,1.5,1.2,2.4,1.6c2.7,1.5,5-2.5,2.4-4.1c-0.8-0.5-1.6-1.1-2.6-1.3c-0.5-0.1-1.1-0.1-1.6-0.2
		c-1.2-2.2-3.4-4.5-5.9-5.5c-1.9-1.4-3.8-2.1-5.1-4.2c-0.7-1.1-2-1.7-3.3-1.6c-0.9-0.7-1.7-1.4-2.6-2.1c-0.1-0.1-0.2-0.1-0.3-0.1
		c0.2-0.2,0.3-0.5,0.5-0.7h0.1c1.1-0.1,3.9-0.2,4.5-0.3c2.7-0.6,5.3-2,7.6-3.4c0.6-0.4,1.1-0.8,1.4-1.3c1-0.6,2-1,3.1-1.1
		c0.7,0.1,1.2,0,1.7-0.3c0.5-0.2,0.9-0.6,1.2-1c2.7-0.1,5.4-0.4,7.4-1.8c0.7-0.5,1.1-1.2,1.3-2c1.2-0.2,2.3-0.6,3.1-1.4
		C-288.3,912.4-289,910.4-290.6,910.4z M-364.1,932.4c-1.4,0.3-2.8,1.2-3.9,2.3c3.2-17.2,8.4-31.4,13.5-32.5
		c2.6-0.6,3.9,1.9,4.1,5.5c0.5,7.5-3.3,20.7-9.1,26.3C-360.9,932.4-362.5,932-364.1,932.4z"/>
	<path class="st0" d="M-298.5,945.4c0.2,0,0.2-0.4,0-0.4C-298.8,945.1-298.8,945.4-298.5,945.4z"/>
</g>
</svg>
