<?xml version="1.0" encoding="utf-8"?>
<!-- Generator: Adobe Illustrator 18.1.1, SVG Export Plug-In . SVG Version: 6.00 Build 0)  -->
<svg version="1.1" id="Layer_1" xmlns:sketch="http://www.bohemiancoding.com/sketch/ns"
	 xmlns="http://www.w3.org/2000/svg" xmlns:xlink="http://www.w3.org/1999/xlink" x="0px" y="0px" viewBox="-297.5 380.5 13 31.2"
	 enable-background="new -297.5 380.5 13 31.2" xml:space="preserve">
<title>Fill 3 + Fill 4</title>
<desc>Created with Sketch.</desc>
<g>
	<rect x="-297.5" y="390.9" fill="#FFFFFF" width="13" height="10.4"/>
	<g id="Page-1" sketch:type="MSPage">
		<g id="Race-Landing-Page" transform="translate(-424.000000, -2321.000000)" sketch:type="MSArtboardGroup">
			<g id="Fill-3-_x2B_-Fill-4" transform="translate(424.000000, 2320.000000)" sketch:type="MSLayerGroup">
				
					<g id="Fill-3" transform="translate(7.000000, 6.000000) rotate(-270.000000) translate(-7.000000, -6.000000) translate(1.400000, -0.705882)" sketch:type="MSShapeGroup">
					<path fill="#CF222B" d="M396.9,311.2l2.5-6.5l-2.5-6.5h2.5l2.5,6.5l-2.5,6.5H396.9z M391.5,311.2l2.5-6.5l-2.5-6.5h2.5l2.5,6.5
						l-2.5,6.5H391.5z"/>
				</g>
			</g>
		</g>
	</g>
	<g id="Page-1_1_" sketch:type="MSPage">
		<g id="Race-Landing-Page_1_" transform="translate(-424.000000, -2321.000000)" sketch:type="MSArtboardGroup">
			<g id="Fill-3-_x2B_-Fill-4_1_" transform="translate(424.000000, 2320.000000)" sketch:type="MSLayerGroup">
				
					<g id="Fill-3_1_" transform="translate(7.000000, 6.000000) rotate(-270.000000) translate(-7.000000, -6.000000) translate(1.400000, -0.705882)" sketch:type="MSShapeGroup">
					<path fill="#CF222B" d="M391.5,304.7 M386.5,298.2h2.5 M381.1,298.2h2.5"/>
				</g>
			</g>
		</g>
	</g>
	<rect x="-297.5" y="380.5" fill="#FFFFFF" width="13" height="10.4"/>
	<rect x="-297.5" y="401.4" fill="#FFFFFF" width="13" height="10.4"/>
</g>
</svg>
