<?xml version="1.0" encoding="utf-8"?>
<!-- Generator: Adobe Illustrator 19.0.0, SVG Export Plug-In . SVG Version: 6.00 Build 0)  -->
<svg version="1.1" id="Layer_1" xmlns:sketch="http://www.bohemiancoding.com/sketch/ns"
	 xmlns="http://www.w3.org/2000/svg" xmlns:xlink="http://www.w3.org/1999/xlink" x="0px" y="0px" viewBox="-293 385 23.1 23.1"
	 style="enable-background:new -293 385 23.1 23.1;" xml:space="preserve">
<style type="text/css">
	.st0{fill:#FFFFFF;}
</style>
<title>Imported Layers</title>
<desc>Created with Sketch.</desc>
<g id="Page-1" sketch:type="MSPage">
	<g id="Race-Landing-Page" transform="translate(-968.000000, -70.000000)" sketch:type="MSArtboardGroup">
		<g id="Group" transform="translate(239.000000, 67.000000)" sketch:type="MSLayerGroup">
			<path id="Imported-Layers" sketch:type="MSShapeGroup" class="st0" d="M458.8,407.9l-5.5-5.7c-0.4-0.4-0.9-0.6-1.1-0.4
				c-0.2,0.2-0.7,0-1.1-0.4l-0.1-0.1c2.5-3.3,2.2-7.9-0.7-10.9c-3.3-3.2-8.5-3.2-11.8,0c-3.3,3.2-3.3,8.5,0,11.8
				c3,3,7.8,3.2,11.1,0.6l0,0c0.4,0.4,0.5,0.9,0.3,1.1c-0.2,0.2-0.1,0.7,0.3,1.1l5.5,5.7c0.4,0.4,1.1,0.4,1.5,0l1.6-1.5
				C459.2,408.9,459.2,408.3,458.8,407.9L458.8,407.9z M448.4,400.4c-2.2,2.2-5.9,2.2-8.1,0c-2.2-2.2-2.2-5.9,0-8.1
				c2.2-2.2,5.9-2.2,8.1,0C450.6,394.5,450.6,398.1,448.4,400.4L448.4,400.4z"/>
		</g>
	</g>
</g>
</svg>
