<?xml version="1.0" encoding="utf-8"?>
<!-- Generator: Adobe Illustrator 19.2.0, SVG Export Plug-In . SVG Version: 6.00 Build 0)  -->
<!DOCTYPE svg PUBLIC "-//W3C//DTD SVG 1.1//EN" "http://www.w3.org/Graphics/SVG/1.1/DTD/svg11.dtd">
<svg version="1.1" id="Capa_1" xmlns="http://www.w3.org/2000/svg" xmlns:xlink="http://www.w3.org/1999/xlink" x="0px" y="0px"
	 viewBox="0 0 50 50" style="enable-background:new 0 0 50 50;" xml:space="preserve">
<style type="text/css">
	.st0{fill:#FED130;}
</style>
<path class="st0" d="M41.8,8.6h-5.5V6.1c0-0.7-0.6-1.3-1.3-1.3s-1.3,0.6-1.3,1.3v2.5h-7.6V6.1c0-0.7-0.6-1.3-1.3-1.3
	s-1.3,0.6-1.3,1.3v2.5h-7.6V6.1c0-0.7-0.6-1.3-1.3-1.3s-1.3,0.6-1.3,1.3v2.5H8.2c-1.9,0-3.4,1.5-3.4,3.4v29.8c0,1.9,1.5,3.4,3.4,3.4
	h33.6c1.9,0,3.4-1.5,3.4-3.4V12C45.2,10.1,43.7,8.6,41.8,8.6z M42.7,41.8c0,0.5-0.4,0.8-0.8,0.8H8.2c-0.5,0-0.8-0.4-0.8-0.8V12
	c0-0.5,0.4-0.8,0.8-0.8h5.5v2.5c0,0.7,0.6,1.3,1.3,1.3s1.3-0.6,1.3-1.3v-2.5h7.6v2.5c0,0.7,0.6,1.3,1.3,1.3s1.3-0.6,1.3-1.3v-2.5
	h7.6v2.5c0,0.7,0.6,1.3,1.3,1.3s1.3-0.6,1.3-1.3v-2.5h5.5c0.5,0,0.8,0.4,0.8,0.8V41.8z"/>
<rect x="13.7" y="20" class="st0" width="5" height="3.8"/>
<rect x="13.7" y="26.3" class="st0" width="5" height="3.8"/>
<rect x="13.7" y="32.6" class="st0" width="5" height="3.8"/>
<rect x="22.5" y="32.6" class="st0" width="5" height="3.8"/>
<rect x="22.5" y="26.3" class="st0" width="5" height="3.8"/>
<rect x="22.5" y="20" class="st0" width="5" height="3.8"/>
<rect x="31.3" y="32.6" class="st0" width="5" height="3.8"/>
<rect x="31.3" y="26.3" class="st0" width="5" height="3.8"/>
<rect x="31.3" y="20" class="st0" width="5" height="3.8"/>
</svg>
