<?xml version="1.0" encoding="utf-8"?>
<!-- Generator: Adobe Illustrator 19.0.0, SVG Export Plug-In . SVG Version: 6.00 Build 0)  -->
<svg version="1.1" id="Layer_3" xmlns="http://www.w3.org/2000/svg" xmlns:xlink="http://www.w3.org/1999/xlink" x="0px" y="0px"
	 viewBox="-356 649.6 254.4 145.2" style="enable-background:new -356 649.6 254.4 145.2;" xml:space="preserve">
<g>
	<g>
		<path d="M-147.3,794.7c-0.3,0-0.4-0.4-0.4-0.7c0-2,0.6-4.4,1.9-7.1c-3.1-1.2-4.6-3.7-4.1-7c0.4-2.7,1.8-5.1,3.3-7.3
			c0.3-0.4,0.6-0.8,0.9-1.2c1.3-1.9,2.5-3.5,3.1-5.1c0.5-1.1,0.3-2.3-0.1-3c-0.8,0.2-1.7,0.2-2.8,0.2c-1,0-2.4-0.2-3-0.9
			c-0.2-0.3-0.3-0.6-0.2-0.9c0.2-0.8,1-1.2,2.4-1.2c0.4,0,0.8,0,1.2,0.1c1.3,0.3,2.4,0.8,3.3,1.5c3.4-1.3,6.3-4.9,12.4-12.7
			c0.9-1.1,1.9-2.4,2.9-3.7c6.3-7.7,12-14.1,18.8-14.1c3.1,0,5.6,1.7,5.9,4.1c0.1,0.5,0,0.7-0.1,0.8l0,0h-0.1
			c-0.2,0-0.2-0.3-0.3-0.6v-0.1c-0.4-2.4-3-3.5-5.4-3.5c-5.2,0-9.9,6.2-14,11.7c-0.8,1-1.5,2-2.2,2.9c-7.8,9.8-12.2,14.4-17.2,15.9
			c1,1.3,1.3,2.8,1,4.5c-0.4,2-1.7,4.2-3.1,6.3l-0.4,0.6c-1.3,2.1-2.7,4.2-3.1,6.7c-0.4,2.3,0.2,3.8,1.7,4.7
			c1.8-3.3,4.1-6.2,5.5-7.6c3.9-4,7.8-6.2,11-6.2c0.1,0,0.3,0,0.4,0c1.1,0.1,2,0.4,2.6,1.1c0.5,0.6,0.7,1.4,0.6,2.3
			c-0.7,5.1-9.3,12.1-16.8,12.1c-1,0-1.9-0.1-2.8-0.4c-1.5,2.6-2.2,4.8-2.2,6.7C-147,794.3-147,794.7-147.3,794.7z M-144.3,786.3
			c0.6,0.2,1.5,0.4,2.6,0.4c7,0,14.8-6.4,15.5-11.1c0.1-0.8,0-1.5-0.4-2s-1-0.8-1.7-0.8c-0.1,0-0.2,0-0.2,0c-2.7,0-6.1,2.1-10.2,6.3
			C-140.3,780.4-142.5,783.2-144.3,786.3z M-146.5,761.5c-0.8,0-1.4,0.2-1.5,0.5c0,0.1,0,0.3,0.1,0.4c0.4,0.4,1.5,0.6,2.4,0.6
			c0.6,0,1.5,0,2.2-0.2c-0.5-0.6-1.2-1-2.2-1.1C-145.9,761.5-146.2,761.5-146.5,761.5z"/>
		<path d="M-107.8,731.9c2.9,0,5.5,1.5,5.7,4c0.1,0.5,0.1,0.8-0.1,0.8c-0.1,0-0.2-0.4-0.2-0.6c-0.4-2.4-2.9-3.6-5.5-3.6
			c-6.2,0-11.7,8.7-16.4,14.6c-8.1,10.1-12.3,14.5-17.3,16c0.8,1,1.5,2.5,1.1,4.5c-0.4,2.1-1.8,4.3-3.1,6.3
			c-1.5,2.3-3.1,4.6-3.5,7.3c-0.4,2.6,0.5,4.1,1.9,4.9c1.7-3.1,3.9-6,5.6-7.7c3.7-3.8,7.6-6.2,10.9-6.2c0.1,0,0.3,0,0.4,0
			c2,0.1,3.3,1.2,3,3.3c-0.7,5.1-9.3,12-16.7,12l0,0c-1,0-2-0.2-2.8-0.4c-1.2,2.2-2.2,4.6-2.2,6.9c0,0.3,0,0.6-0.2,0.6
			c-0.2,0-0.3-0.3-0.3-0.6c-0.1-2.3,0.8-4.8,2-7.1c-2.8-1.1-4.6-3.5-4.2-6.9c0.4-2.6,1.8-5,3.3-7.2c1.7-2.4,3.3-4.4,3.9-6.3
			c0.5-1.2,0.3-2.4-0.2-3.2c-1,0.2-1.9,0.3-2.9,0.3c-1.4,0-3.3-0.5-3.1-1.7c0.2-0.8,1.2-1.1,2.2-1.1c0.4,0,0.8,0,1.2,0.1
			c1.3,0.3,2.4,0.8,3.3,1.5c4-1.4,7.1-5.9,15.5-16.5C-120.6,738.7-114.8,731.9-107.8,731.9 M-145.5,763c0.9,0,1.7-0.1,2.4-0.3
			c-0.6-0.7-1.4-1.1-2.4-1.3c-0.3-0.1-0.7-0.1-1-0.1c-0.8,0-1.5,0.2-1.6,0.6C-148.3,762.8-146.5,763-145.5,763 M-141.7,786.8
			c6.9,0,14.9-6.2,15.6-11.2c0.3-1.7-0.6-2.9-2.3-3c-0.1,0-0.2,0-0.3,0c-3.1,0-6.8,2.7-10.3,6.3c-1.5,1.4-3.8,4.3-5.5,7.5
			C-143.8,786.7-142.7,786.8-141.7,786.8 M-107.8,731.6c-6.9,0-12.6,6.4-18.9,14.2c-1.1,1.3-2,2.6-2.9,3.7
			c-6.1,7.7-9,11.3-12.3,12.6c-0.9-0.8-2-1.3-3.3-1.5c-0.4-0.1-0.8-0.1-1.2-0.1c-1.4,0-2.3,0.5-2.5,1.3c-0.1,0.4,0,0.7,0.3,1
			c0.6,0.7,2,1,3.1,1c1.1,0,1.9-0.1,2.8-0.2c0.3,0.7,0.5,1.7,0.1,2.8c-0.5,1.5-1.7,3.1-3,5c-0.3,0.4-0.6,0.8-0.9,1.2
			c-1.5,2.2-2.9,4.6-3.3,7.3c-0.4,3.2,1,5.8,4.1,7c-1.3,2.6-1.9,5-1.9,7c0,0.4,0.2,0.9,0.5,0.9c0.5,0,0.5-0.6,0.5-0.9
			c0-1.9,0.7-4,2.1-6.6c0.9,0.2,1.8,0.4,2.7,0.4h0.1c3.5,0,7.5-1.5,11-4.1c3.4-2.5,5.6-5.5,5.9-8.1c0.1-1-0.1-1.8-0.6-2.4
			c-0.6-0.7-1.5-1.1-2.7-1.2c-0.1,0-0.3,0-0.4,0c-3.2,0-7.2,2.2-11.1,6.2c-1.4,1.4-3.7,4.2-5.5,7.5c-1.3-0.9-1.9-2.4-1.5-4.5
			c0.3-2.4,1.6-4.5,3.1-6.6l0.4-0.6c1.4-2.1,2.8-4.3,3.1-6.4c0.3-1.6,0-3.1-0.9-4.5c5-1.6,9.4-6.3,17.1-15.9
			c0.7-0.9,1.5-1.9,2.2-2.9c4.1-5.4,8.8-11.6,13.9-11.6c2.4,0,4.9,1,5.3,3.4v0.1c0.1,0.4,0.1,0.7,0.4,0.7c0.1,0,0.2,0,0.3-0.1
			c0.1-0.2,0.1-0.5,0.1-0.9C-102.1,733.4-104.6,731.6-107.8,731.6L-107.8,731.6z M-145.5,762.8c-0.9,0-2-0.2-2.3-0.5
			c-0.1-0.1-0.1-0.2-0.1-0.3c0-0.2,0.5-0.4,1.3-0.4c0.3,0,0.6,0,1,0.1c0.9,0.2,1.5,0.5,2,1C-144.2,762.8-145,762.8-145.5,762.8
			L-145.5,762.8z M-144.1,786.2c1.8-3.1,3.9-5.8,5.3-7.2c4.1-4.1,7.5-6.2,10.2-6.2c0.1,0,0.2,0,0.2,0c0.7,0,1.3,0.3,1.6,0.8
			c0.4,0.5,0.5,1.2,0.4,1.9c-0.7,4.7-8.4,11-15.3,11C-142.7,786.5-143.5,786.4-144.1,786.2L-144.1,786.2z"/>
	</g>
	<g>
		<path d="M-201.9,790.7c-12.3,0-25.1-5.4-26-17.6c-0.5-6.6,2.3-12.1,8.4-16.5c0.1,0,0.6-0.3,0.9-0.3c0.2,0,0.2,0.1,0.2,0.1
			c0.1,0.1,0,0.3-0.2,0.5c0,0-0.4,0.3-0.6,0.5c-5.4,4-8.4,9.8-8,15.6c0.9,11.5,13.7,16.8,25.3,16.8c17.7,0,31.2-7.9,46.4-27.4
			c1.2-1.5,4.1-5,7.2-8.7c3.2-3.9,6.9-8.2,8-9.7c-5,3.3-12.1,7.5-18.1,7.5c-0.7,0-1.4-0.1-2-0.2h-0.1l0.1-0.7h0.1c0.2,0,0.4,0,0.6,0
			c8.5,0,19.2-8.9,22.3-11.7c0.1-0.1,0.1-0.1,0.1-0.1l4.4-2l0.6-0.6l-0.5,0.8c-0.1,0.2-11.5,15.9-19,25.6
			C-167.3,782.6-181.8,790.7-201.9,790.7z"/>
		<path d="M-132.7,736.9L-132.7,736.9L-132.7,736.9C-132.7,736.9-132.8,736.9-132.7,736.9c0,0-11.4,15.7-19,25.6
			c-17,21.8-31.9,28.1-50.1,28.1c-11.8,0-25-5-25.9-17.5c-0.5-6.7,2.4-12.1,8.3-16.4c0,0,0.5-0.3,0.8-0.3c0.2,0,0.2,0.1,0,0.4
			c0,0-0.4,0.3-0.6,0.4c-5.2,3.8-8.5,9.7-8.1,15.7c0.9,12,14.4,16.9,25.4,16.9c17.9,0,31.2-8,46.5-27.4c2.7-3.5,15.1-18,15.6-19
			c-4.6,3.1-12.3,7.8-18.5,7.8c-0.7,0-1.3-0.1-2-0.2l0.1-0.5c0.2,0,0.4,0,0.7,0c9.7,0,22.4-11.7,22.5-11.8L-132.7,736.9
			 M-131.6,735.4l-1.3,1.3l-4.3,2c-0.1,0-0.1,0.1-0.2,0.2c-3.1,2.7-13.8,11.6-22.2,11.6c-0.2,0-0.4,0-0.6,0h-0.2v0.2l-0.1,0.5v0.2
			h0.2c0.6,0.1,1.3,0.2,2,0.2c5.7,0,12.5-3.8,17.5-7.1c-1.5,1.9-4.7,5.7-7.6,9.1c-3.1,3.7-6,7.2-7.2,8.7
			c-15.3,19.4-28.7,27.3-46.4,27.3c-11.5,0-24.3-5.2-25.2-16.7c-0.4-5.7,2.6-11.5,8-15.5c0.2-0.1,0.6-0.4,0.6-0.4l0,0l0,0
			c0.1-0.2,0.3-0.4,0.2-0.6c0-0.1-0.1-0.2-0.4-0.2s-0.8,0.2-0.9,0.3c-6.2,4.5-9,10.1-8.5,16.7c0.9,12.3,13.8,17.7,26.2,17.7
			c20.1,0,34.7-8.2,50.3-28.2c7.4-9.4,18.3-24.5,19-25.5l0,0v-0.1L-131.6,735.4L-131.6,735.4z"/>
	</g>
</g>
<g>
	<g>
		<g>
			<path d="M-219.4,719.1c0-1.4-0.3-2.2-2.4-2.5c-0.3,0-0.4-0.1-0.4-0.3v-0.4c0-0.1,0.1-0.2,0.3-0.3c1.4-0.5,3-1.2,4.6-2.1
				c0.3-0.2,0.5-0.3,0.8-0.3c0.2,0,0.3,0.2,0.2,0.5c-0.1,0.7-0.1,3.4-0.1,6.9v4.6c0,1.6,0,3.2,0,3.6c0.1,0.8,0.2,1.1,0.7,1.1h1.9
				c0.3,0,0.4,0.1,0.4,0.4v0.7c0,0.3-0.1,0.4-0.4,0.4s-2.3-0.1-4.1-0.1c-2.4,0-4.1,0.1-4.6,0.1c-0.2,0-0.3-0.1-0.3-0.3v-0.8
				c0-0.3,0.1-0.3,0.4-0.3h2.1c0.5,0,0.6-0.2,0.7-0.8c0-1.3,0-2.6,0-3.8v-6.3L-219.4,719.1L-219.4,719.1z M-221.3,706.3
				c0-1.1,0.9-2.2,2.6-2.2c1.5,0,2.2,1.1,2.2,2.1c0,1.1-0.8,2.3-2.4,2.3C-219.9,708.5-221.3,707.6-221.3,706.3z"/>
			<path d="M-210.2,730.7c-0.2-0.1-0.2-0.4-0.3-0.6l-0.7-4c0-0.2,0.1-0.3,0.3-0.3l0.5-0.1c0.2,0,0.3,0,0.4,0.2l1.1,2.1
				c0.8,1.6,1.4,2.6,3.7,2.6c1.5,0,3.3-0.9,3.3-2.9c0-1.9-0.9-3-4.1-3.9c-2.5-0.7-5-2-5-5.4c0-2.9,2.7-5.1,5.9-5.1
				c2,0,3.1,0.5,3.9,0.9c0.6,0.3,0.7,0.5,0.8,0.8l0.6,3c0,0.2-0.1,0.3-0.3,0.4l-0.5,0.2c-0.2,0-0.3,0-0.4-0.2l-1.4-1.9
				c-0.5-0.8-1.3-1.6-3-1.6c-1.6,0-3.2,1-3.2,2.8c0,2.4,2,2.9,4,3.5c3.1,0.9,5,2.2,5.1,5.4c0,3.4-2.8,5.6-6.4,5.6
				C-208,731.9-209.7,731.1-210.2,730.7z"/>
			<path d="M-191.4,726.1c0,3.2,1.4,3.7,2.2,3.7c1,0,2.2-0.2,2.8-0.6c0.2-0.1,0.4-0.1,0.5,0.1l0.2,0.4c0.1,0.2,0,0.3-0.1,0.5
				c-0.4,0.4-2.2,1.7-4.7,1.7c-2.1,0-4.1-2-4.1-3.6c0-1.7,0.1-5.4,0.1-6v-0.9c0-0.8,0-3.6,0.1-5.4h-2.6c-0.4,0-0.6-0.2-0.6-0.5
				s0.3-0.5,0.8-0.8c1-0.6,4.3-3.9,4.8-5.3c0.1-0.3,0.3-0.4,0.6-0.4s0.4,0.3,0.4,0.6l-0.2,4.2h5.9c0.3,0,0.4,0.2,0.3,0.4l-0.4,1.5
				c0,0.2-0.1,0.3-0.4,0.3h-5.4c-0.1,1.9-0.1,4-0.1,5.9L-191.4,726.1L-191.4,726.1L-191.4,726.1z"/>
			<path d="M-182.2,729c-1.9-2.3-2.3-3.9-2.3-6.9c0-2.2,1.1-4.9,3.6-6.8c2.2-1.7,4.3-2,5.7-2c2.3,0,4.6,1.2,5.9,2.4
				c1.9,1.9,2.9,4.1,2.9,6.9c0,4.6-4.1,9.3-9.3,9.3C-177.8,731.9-180.5,731.1-182.2,729z M-170,722.2c0-4.7-3.4-7.6-5.6-7.6
				c-1.1,0-2.2,0.3-3.2,1.4c-1.6,1.7-2.2,3.4-2.2,6.6c0,2.4,0.3,4,1.6,5.9c1,1.4,2.2,2.2,4.2,2.2C-172.1,730.6-170,726.7-170,722.2z
				"/>
			<path d="M-161.9,720.2c0-2.2-0.3-2.6-1.5-3.2l-0.8-0.4c-0.3-0.1-0.3-0.1-0.3-0.3V716c0-0.2,0.1-0.3,0.3-0.4l4.2-2.2
				c0.3-0.1,0.4-0.2,0.6-0.2c0.3,0,0.3,0.3,0.3,0.5l0.2,2.9h0.2c1.3-1.9,3.2-3.7,5.1-3.7c1.4,0,2.2,0.9,2.2,1.9c0,1.2-1,2.1-1.8,2.1
				c-0.5,0-0.9-0.2-1.2-0.3c-0.3-0.2-0.8-0.3-1.4-0.3c-0.7,0-1.8,0.4-2.5,1.8c-0.3,0.5-0.4,1.2-0.4,1.3v8.9c0,1.3,0.3,1.7,1.2,1.7h2
				c0.3,0,0.3,0.1,0.3,0.4v0.8c0,0.3,0,0.4-0.2,0.4c-0.3,0-2.2-0.1-4.5-0.1c-2.6,0-4.4,0.1-4.6,0.1c-0.2,0-0.3-0.1-0.3-0.4v-0.7
				c0-0.3,0.1-0.4,0.5-0.4h1.6c0.6,0,0.9-0.3,0.9-0.8c0-1.4,0-2.9,0-5.1v-4H-161.9L-161.9,720.2z"/>
			<path d="M-146.9,719.1c0-1.4-0.3-2.2-2.4-2.5c-0.3,0-0.4-0.1-0.4-0.3v-0.4c0-0.1,0.1-0.2,0.3-0.3c1.3-0.5,3-1.2,4.6-2.1
				c0.3-0.2,0.5-0.3,0.8-0.3c0.2,0,0.3,0.2,0.2,0.5c-0.1,0.7-0.1,3.4-0.1,6.9v4.6c0,1.6,0,3.2,0,3.6c0.1,0.8,0.2,1.1,0.7,1.1h1.9
				c0.3,0,0.4,0.1,0.4,0.4v0.7c0,0.3-0.1,0.4-0.4,0.4s-2.3-0.1-4-0.1c-2.4,0-4.1,0.1-4.6,0.1c-0.2,0-0.3-0.1-0.3-0.3v-0.8
				c0-0.3,0.1-0.3,0.4-0.3h2.1c0.5,0,0.6-0.2,0.7-0.8c0-1.3,0-2.6,0-3.8L-146.9,719.1L-146.9,719.1L-146.9,719.1z M-148.8,706.3
				c0-1.1,0.9-2.2,2.6-2.2c1.5,0,2.2,1.1,2.2,2.1c0,1.1-0.8,2.3-2.4,2.3C-147.4,708.5-148.8,707.6-148.8,706.3z"/>
			<path d="M-136.4,721.2c0,2.3,1,4.8,2.2,6.4c1.4,1.8,3.2,2.2,4.6,2.2c2.1,0,3.2-0.5,4.6-1.8c0.1-0.1,0.2-0.1,0.3,0l0.4,0.4
				c0.2,0.2,0.2,0.3,0,0.5c-1.2,1.4-3.9,3-6.8,3c-2.2,0-4.6-0.5-6.5-3c-1.6-2.1-1.9-3.8-1.9-5.7c0-4.9,3.5-9.9,9-9.9
				c4.4,0,5.7,2.5,5.7,3.4c0,1-0.7,1.5-1.6,1.5c-1,0-1.7-0.5-2.3-1.7c-0.9-1.7-1.8-1.9-2.8-1.9
				C-133.8,714.7-136.4,716.8-136.4,721.2z"/>
		</g>
		<g>
			<path d="M-162.2,650.7c-1.8-1.2-4.2-1.3-7.2-0.8c-17.3,3.3-41.9,23.6-56.4,48.5c-3.6,1.4-4.6,1.8-8.7,3.4
				c-4.7,1.9-9.7,3.8-14.9,5.9c9.1-15.9,14.3-27.9,14.4-28.2l1.7-4l-7.2,3.3c-0.3,0.2-22,20.3-38.1,19.4l-0.1,0.8
				c10.7,2,22.9-5.2,31.3-10.8c-2.4,5.2-3.4,11.2-10.2,22.8c-40.1,16.2-84.2,35.4-94.4,52.3c-4.8,7.9-5.6,17.1-0.8,21.9
				c1.7,1.7,6.4,4.1,12.9,4.1c6.6,0,15.9-3.4,29.7-11.6c25-14.9,45.6-43.9,58.9-66.5c6.2-2.5,12.1-4.8,17.7-7c3-1.2,4.3-2.1,7-3.2
				c-11.8,20.5-31.8,63-33.4,66.3c-0.5,0-0.9,0-1,0h-6.7c-0.4,0-0.6,0.1-0.6,0.5v1.8c0,0.3,0.2,0.5,0.5,0.5c0.6,0,6.8-0.2,10-0.2
				c2.4,0,9.6,0.2,10,0.2c0.4,0,0.5-0.2,0.5-0.6v-1.6c0-0.3-0.1-0.5-0.6-0.5h-7.2c-0.1,0-0.4,0-0.8,0c3.2-6.9,22.9-48.5,34-67.2
				c0.2-0.3,0.3-0.6,0.5-0.8c13.2-5.3,29.7-10.7,42.8-20c13.5-9.7,19.1-16,19.1-23.7C-159.4,653.5-160.3,651.9-162.2,650.7z
				 M-311.5,775.6c-17.9,10.7-30.6,12.4-37,6c-3.9-4-1.4-13.7,2.7-20.7c9.5-15.9,46.9-30.6,86.2-46.4
				C-272.8,736.5-287.9,761.6-311.5,775.6z M-218,694.4c16.7-24.2,45.7-46.9,52-39.8C-158.1,663.3-178.4,679.2-218,694.4z"/>
		</g>
	</g>
	<g>
		<path d="M-222.4,751.3c-0.4,0-0.7-0.2-0.7-0.7c0-0.4,0.3-0.7,1-1c1.4-0.5,5.9-4.3,7.1-6.5c0.2-0.4,0.5-0.5,0.8-0.5
			c0.4,0,0.6,0.3,0.6,0.7l-0.2,5.1h6.8c0.3,0,0.4,0.2,0.4,0.4l-0.5,2.2c-0.1,0.2-0.2,0.3-0.5,0.3h-6.2c-0.1,2.2-0.2,4.6-0.2,6.9v4.6
			c0,4,1.7,4.8,2.7,4.8c1.1,0,2.3-0.3,3-0.6c0.4-0.2,0.5-0.2,0.6,0.1l0.3,0.6c0.1,0.3,0,0.5-0.2,0.7c-0.7,0.5-2.9,2.1-6.5,2.1
			c-3.1,0-5.4-2.5-5.4-4.6c0-1.9,0.2-6,0.2-7.9v-6.7H-222.4z"/>
		<path d="M-200.8,758.5c0,5.3,3.8,8.4,6.7,8.4c3.2,0,5.2-1.3,6.2-3c0.2-0.4,0.4-0.4,0.6-0.3l0.8,0.5c0.3,0.2,0.4,0.4,0,1
			c-1.1,2-3.7,5.5-9.4,5.5c-3.3,0-5.6-0.7-7.4-2.8c-2.4-2.7-2.9-5.3-2.9-8.5c0-2.8,0.3-4.7,2.5-7.6c2.2-2.8,4.5-3.8,9-3.8
			c5.9,0,7.8,6.1,7.8,8.2c0,0.8-0.5,0.8-1.4,0.8h-12.5L-200.8,758.5L-200.8,758.5z M-194.4,755c1.1,0,1.7-0.3,1.7-0.7
			c0-1.5-0.5-4.6-3.2-4.6c-2.5,0-4.1,1.9-4.7,5.3C-200.6,755-194.4,755-194.4,755z"/>
		<path d="M-178.2,748.2c0.4-0.2,0.7-0.4,1-0.4s0.5,0.2,0.6,0.6l0.4,2.7h0.3c0.6-0.7,1.5-1.5,2.6-2.1c1.2-0.7,2.6-1.2,4.1-1.2
			c1.8,0,3.4,0.3,4.5,1.2c2.3,1.7,2.8,3.2,2.8,5.3v7.4c0,1.6-0.1,3.9-0.1,4.9c0,1.1,0.6,1.4,1.2,1.4h1.4c0.5,0,0.6,0.1,0.6,0.4v1.2
			c0,0.3-0.1,0.4-0.4,0.4c-0.4,0-2-0.2-5.6-0.2c-3.1,0-4.7,0.2-5.1,0.2c-0.3,0-0.4-0.2-0.4-0.6v-0.8c0-0.3,0.1-0.4,0.6-0.4h1
			c0.4,0,0.8-0.3,0.9-1.2c0.2-1.3,0.2-2.8,0.2-4.8v-5.9c0-2.1-0.1-3.4-1.3-4.4c-1-0.9-2-0.9-3.1-0.9c-0.8,0-2.1,0.2-3.3,1.3
			c-0.8,0.8-1.1,2.3-1.1,3.7v10.6c0,1.1,0.3,1.8,1,1.8h0.9c0.4,0,0.5,0.1,0.5,0.5v0.9c0,0.3-0.1,0.5-0.4,0.5c-0.3,0-1.8-0.2-4.8-0.2
			c-3.2,0-4.8,0.2-5.2,0.2c-0.2,0-0.3-0.2-0.3-0.5v-1c0-0.3,0.1-0.4,0.5-0.4h1c0.6,0,1.3-0.2,1.3-1v-11.6c0-1.5-0.9-2.4-2.2-3
			l-0.4-0.2c-0.3-0.1-0.4-0.3-0.4-0.5v-0.4c0-0.2,0.2-0.4,0.5-0.5L-178.2,748.2z"/>
	</g>
</g>
</svg>
