<?xml version="1.0" encoding="utf-8"?>
<!-- Generator: Adobe Illustrator 19.0.0, SVG Export Plug-In . SVG Version: 6.00 Build 0)  -->
<svg version="1.1" id="Layer_1" xmlns="http://www.w3.org/2000/svg" xmlns:xlink="http://www.w3.org/1999/xlink" x="0px" y="0px"
	 viewBox="-279.9 530.7 329.6 262.8" style="enable-background:new -279.9 530.7 329.6 262.8;" xml:space="preserve">
<g>
	<polygon points="-188.7,772.5 -192.1,766.8 -194.5,772.9 -200.9,774.4 -195.9,778.6 -196.5,785.2 -190.9,781.7 -184.8,784.2 
		-186.5,777.8 -182.1,772.9 	"/>
	<polygon points="-150.2,778.7 -153.6,773 -156,779.1 -162.5,780.6 -157.4,784.8 -158,791.4 -152.4,787.8 -146.4,790.4 -148,784 
		-143.6,779.1 	"/>
	<polygon points="-113.8,780.7 -117.2,775.1 -119.6,781.2 -126,782.7 -120.9,786.9 -121.5,793.5 -116,789.9 -109.9,792.5 
		-111.5,786.1 -107.2,781.2 	"/>
	<polygon points="-79.2,772.2 -82.6,766.5 -85,772.6 -91.4,774.1 -86.4,778.3 -87,784.9 -81.4,781.4 -75.3,784 -76.9,777.6 
		-72.6,772.6 	"/>
	<polygon points="-44.6,757.1 -48,751.4 -50.4,757.6 -56.9,759 -51.8,763.2 -52.4,769.8 -46.8,766.3 -40.8,768.9 -42.4,762.5 
		-38,757.5 	"/>
	<path d="M-242.8,613.5c-6.2-0.7-12.3-1.7-18.5-3c-1.4-0.3-2.4-0.4-2.9-0.2c-0.5,0.2-0.8,0.6-0.8,1.2c0,0.6,0.2,1.1,0.6,1.5
		c0.4,0.4,1.3,0.8,2.8,1.1c5.7,1.2,11.4,2.1,17.1,2.8c1.8,0.2,2.9,0.6,3.5,1.1c0.5,0.5,0.8,1.2,0.8,2c0.1,7.8,0.1,9.6,0.2,17.4
		c0,1.8-0.3,2.9-0.8,3.4c-0.6,0.5-1.3,0.7-2.2,0.8c-0.9,0-1.5,0.1-1.8,0.3c-0.3,0.2-0.5,0.6-0.5,1.2c0,1.1,0.9,1.8,2.8,2
		c0.6,0.1,1.5,0.1,2.9,0c1.4-0.1,4.7,0.2,6.2,0.6s2.6,0.6,3.2,0.6c0.8,0.1,1.5-0.1,2.1-0.4c0.5-0.3,0.8-0.6,0.8-1s-0.1-0.8-0.4-1.1
		c-0.3-0.3-1.1-0.7-2.4-1.1c-1.3-0.4-2.2-1-2.7-1.8c-0.4-0.7-0.7-1.5-0.7-2.4c-0.1-13.6-0.2-27.2-0.3-40.8c0-1.9,0.3-3.1,0.9-3.6
		s1.3-0.9,2.2-0.9c0.9-0.1,1.5-0.2,1.8-0.4c0.3-0.2,0.5-0.6,0.5-1.3c0-1-0.6-1.6-1.9-1.7c-1.2-0.1-2.4-0.1-3.7,0
		c-1.3,0.1-5.2-0.3-6.7-0.7c-1.5-0.4-2.7-0.6-3.7-0.8c-0.5-0.1-1,0-1.4,0.3s-0.6,0.5-0.6,0.9c0,0.5,0.1,0.9,0.4,1.3
		c0.2,0.4,0.9,0.8,2,1.2c2,0.8,3.1,1.8,3.3,3c0.1,1.2,0.2,10.7,0.3,16.4c0,0.9-0.1,1.5-0.4,1.8
		C-241.2,613.5-241.8,613.6-242.8,613.5z"/>
	<path d="M-276.9,585.4c1.3,0.7,2.1,1.5,2.5,2.3s0.6,1.7,0.6,2.6c0.1,13.7,0.2,27.4,0.3,41c0,1.8-0.3,2.8-0.8,3.2
		c-0.6,0.4-1.3,0.5-2.1,0.4c-0.9-0.1-2.2,1.5-2.2,2.2c0,1.1,0.9,2,2.8,2.5c0.6,0.2,1.5,0.3,2.9,0.5c1.4,0.1,5,0.3,6.2,0.6
		c1.6,0.4,2.6,1,3.2,1.1c0.8,0.2,1.5,0.2,2.1-0.1c0.5-0.2,0.8-0.5,0.8-0.9s-0.1-0.8-0.4-1.2s-1.1-0.9-2.4-1.6
		c-1.3-0.7-2.2-1.5-2.6-2.2c-0.4-0.7-0.6-1.5-0.7-2.3c-0.1-13.6-0.2-27.3-0.3-40.9c0-1.8,0.3-2.9,0.8-3.3c0.6-0.5,1.3-0.7,2.2-0.7
		s1.5-0.1,1.8-0.2c0.3-0.2,0.5-0.6,0.5-1.2c0-1-0.6-1.7-1.9-1.9c-1.2-0.3-2.4-0.4-3.7-0.5c-1.3-0.2-5.3-1.2-6.7-1.8
		s-2.7-1.1-3.7-1.4c-0.5-0.2-1-0.1-1.4,0c-0.4,0.2-0.6,0.4-0.6,0.8c0,0.5,0.1,0.9,0.4,1.3C-279,584.1-278.2,584.7-276.9,585.4z"/>
	<path d="M-222.4,643c-1.3,0.2-2,0.4-2.2,0.6c-0.2,0.3-0.3,0.6-0.3,0.9c0,1.2,1,1.9,2.9,2c0.7,0,1.7,0,3.1-0.2
		c1.4-0.2,4.9-0.1,6.3,0.1c1.4,0.2,2.5,0.4,3.2,0.4c1.6,0,2.4-0.5,2.4-1.5c0-0.5-0.1-0.9-0.4-1.2c-0.3-0.4-1-0.7-2.2-1
		c-1.2-0.3-2-0.8-2.3-1.3c-0.4-0.6-0.5-1.2-0.5-2c-0.1-13.4-0.2-26.9-0.3-40.3c0-1.7,0.2-3,0.7-3.9s1.2-1.4,2.2-1.6
		c1-0.2,1.7-0.4,2.1-0.7c0.3-0.2,0.5-0.7,0.5-1.3c0-1.1-0.7-1.6-2-1.6c-0.8,0-1.9,0.1-3.4,0.4c-1.5,0.2-5.5,0.2-7.2-0.1
		c-1.6-0.3-2.9-0.5-3.7-0.5c-0.5,0-0.9,0.1-1.2,0.3c-0.3,0.2-0.5,0.6-0.5,1c0,0.7,0.2,1.2,0.5,1.4c0.4,0.3,1,0.6,1.9,0.9
		s1.7,0.7,2.3,1.3s0.9,1.6,0.9,3.1c0.1,13.4,0.2,26.8,0.3,40.3c0,1.1-0.2,2.1-0.6,3C-220.3,642.3-221.1,642.8-222.4,643z"/>
	<path d="M-203.7,641.3c0,1.5,1.7,2.8,5.1,4c3.4,1.2,6.7,1.7,9.9,1.4c4.5-0.3,8.7-2.1,12.5-5.2c3.8-3.1,5.7-7.2,5.6-12.1
		c0-3.5-1.2-6.6-3.6-9.4c-2.4-2.8-7.1-6.4-14.2-10.8c-3.7-2.4-6-4.2-6.9-5.5c-0.9-1.3-1.4-2.6-1.4-3.9c0-1.9,1-3.6,3-5.3
		c2-1.7,4.4-2.6,7.2-2.8c2.5-0.2,4.6,0.3,6.3,1.5c1.7,1.2,2.6,3,2.6,5.6c0,0.5,0.2,0.9,0.6,1.2c0.4,0.4,0.8,0.5,1.2,0.5
		c1.2-0.1,1.8-1,1.7-2.7c-0.1-0.7-0.2-1.2-0.2-1.5c0-1,0-1.7,0-2.2s0-0.9,0-1.1c0-1.7-1.4-2.9-4.3-3.9s-5.5-1.3-8-1.2
		c-4.4,0.3-8.2,1.8-11.6,4.4c-3.3,2.6-5,5.7-5,9.4c0,2.3,0.5,4.3,1.6,6.1c1,1.8,2.3,3.2,3.9,4.5c1.5,1.2,3.6,2.7,6.3,4.4
		c6.5,4.1,10.4,7.1,12,9c1.5,2,2.3,3.9,2.3,5.7c0,3.1-1.1,5.7-3.3,7.9c-2.2,2.1-5.1,3.3-8.5,3.6c-3.4,0.2-6.1-0.5-8-2.2
		c-1.9-1.7-3.1-4.1-3.4-7.2c-0.2-1.9-0.9-2.8-2.1-2.8c-1.1,0-1.7,0.5-1.7,1.5c0,0.2,0.1,0.7,0.1,1.5c0.1,0.7,0.1,1.4,0.2,1.9
		c0,1.5,0,2.8-0.1,3.8C-203.7,640.3-203.7,641-203.7,641.3z"/>
	<path d="M-142.9,587.5c1.2-0.2,2.4-0.1,3.4,0.2c1.1,0.3,1.9,1.2,2.4,2.5c0.5,1.3,1,2.1,1.3,2.3c0.3,0.2,0.6,0.2,1,0.2
		c1-0.2,1.5-1,1.5-2.6s-0.3-3.3-0.9-5c-0.6-1.8-1.3-2.6-2.2-2.4c-9.1,1.4-18.3,2.8-27.4,3.9c-1,0.1-1.9,0.2-2.9,0.3
		c-0.9,0.1-1.6,1-2.1,2.6c-0.5,1.7-0.7,3.9-0.7,6.7c0,0.3,0.2,0.6,0.6,0.8c0.4,0.2,0.8,0.2,1.2,0.2c0.4,0,0.7-0.2,1-0.5
		c0.3-0.3,0.5-1,0.8-2.2c0.2-1.2,0.7-2.2,1.2-2.8c0.9-1.1,2.5-1.8,4.7-2.1c3.4-0.4,5.1,0.6,5.1,3.1c0.1,13.9,0.2,27.8,0.3,41.6
		c0,0.9-0.2,1.8-0.6,2.5c-0.4,0.8-1.2,1.4-2.3,1.9c-1.2,0.5-1.8,0.9-2,1.2c-0.2,0.3-0.3,0.6-0.3,0.9c0,0.7,0.3,1.1,0.9,1.4
		c0.6,0.3,1.3,0.4,2.1,0.3c0.7-0.1,7.7-1.5,9.2-1.5s2.6,0,3.4-0.2c1.4-0.2,2.1-1,2.1-2.3c0-0.3-0.1-0.6-0.4-0.8
		c-0.3-0.2-1-0.4-2.2-0.6s-2-0.5-2.4-0.9c-0.4-0.4-0.6-0.9-0.6-1.6c-0.1-13.7-0.2-27.5-0.3-41.2c0-1.8,0.4-3.2,1.2-4.2
		C-145.9,588.4-144.6,587.8-142.9,587.5z"/>
	<path d="M-103,576.1c-5.8,0.9-10.9,3.1-15.4,6.4c-4.4,3.3-7.8,7.5-10.2,12.4c-2.4,4.9-3.6,9.7-3.6,14.3c0.1,8.9,2.9,15.7,8.4,20.6
		c5.5,4.9,12.4,6.6,20.7,5.2c5.1-0.8,9.9-2.6,14.4-5.2c4.5-2.6,8.2-6.5,10.9-11.6c2.8-5.1,4.1-10.6,4.1-16.3
		c-0.1-7.7-2.7-14.4-7.9-19.9C-86.7,576.7-93.9,574.6-103,576.1z M-83.6,617.2c-1.4,3.4-3.7,6.4-6.9,9c-3.2,2.7-7.3,4.4-12.2,5.2
		c-14.1,2.3-21.2-5.5-21.3-23.4c-0.1-6.7,1.8-12.9,5.5-18.4s8.9-8.9,15.6-9.9c6.5-1,11.6,0.5,15.5,4.8c3.8,4.2,5.8,10.9,5.8,19.9
		C-81.6,609.5-82.3,613.8-83.6,617.2z"/>
	<path d="M-52.2,594.2c-0.6,0.1-1.2,0.1-1.7,0c-0.6,0-1,0-1.1,0c-1.3,0.1-2,0.8-2,1.9c0,0.5,0.1,0.8,0.2,0.9
		c0.1,0.1,0.3,0.2,0.7,0.3c1.4,0.4,2.7,1.6,4.2,3.5c0.4,0.5,1.9,2.8,4.6,6.9c5.7,8.8,11.7,16.5,13.5,17.3c1.7,0.8,3.2,1.2,4.4,1.2
		c0.5,0,1.1-0.3,1.9-0.7s1.2-1,1.2-1.6c0-0.5-0.2-0.9-0.5-1.2c-0.3-0.4-1-0.7-2.1-1.1c-1.1-0.3-4.5-4.7-8.5-11.2s-6.7-10.6-8.2-12.6
		c-0.3-0.4-0.5-0.8-0.5-1c0-0.3,0.4-0.6,1.1-1c4-1.9,6.8-3.7,8.5-5.7s2.4-4.3,2.4-7.1c0-4.4-1.7-7.9-5.1-10.4s-7.7-3.6-13-3.1
		c-1.4,0.1-3.4,0.5-6,1.2c-2.6,0.6-4.2,1-4.7,1.1c-0.9,0.1-1.9,0.1-3.1,0.1s-2.3,0-3.3,0.1c-2.1,0.3-3.2,1-3.2,2.2
		c0,1.1,0.9,1.6,2.8,1.5c2.7-0.2,4.1,0.7,4.1,2.7c0.1,14.8,0.2,29.5,0.3,44.3c0,0.6-0.3,1.1-0.9,1.6s-1.4,0.8-2.3,0.9
		c-1.6,0.2-2.5,0.5-2.9,0.8c-0.4,0.3-0.6,0.8-0.6,1.3c0,1.5,1.2,2.1,3.6,1.8c0.8-0.1,12.9-1.4,13.9-1.5c1.1-0.1,1.9-0.4,2.5-0.9
		s0.8-1,0.8-1.6c0-0.6-0.2-1.1-0.7-1.4c-0.4-0.3-1.3-0.4-2.6-0.2c-1.2,0.1-2.2,0-2.9-0.5s-1.1-1.1-1.1-2c-0.1-14.5-0.2-29-0.3-43.6
		c0-0.8,0.1-1.4,0.2-1.9c0.2-0.5,0.6-0.9,1.2-1.3c0.7-0.4,1.7-0.7,3.1-0.8c3.8-0.4,6.8,0.5,9,2.6c2.2,2.1,3.3,4.4,3.3,6.7
		c0,3.3-0.9,5.9-2.8,7.9C-46.9,592.8-49.3,594-52.2,594.2z"/>
	<path d="M-23,621.9c-1.3,0.2-2,0.5-2.2,0.8s-0.3,0.6-0.3,0.9c0,1.2,1,1.8,2.9,1.8c0.7,0,11.8,0.2,12.6,0.2c1.6,0,2.4-0.4,2.4-1.3
		c0-0.5-0.1-0.9-0.4-1.3c-0.3-0.4-1-0.7-2.2-1.1s-2-0.8-2.3-1.4c-0.4-0.6-0.5-1.3-0.5-2c-0.1-13.4-0.2-26.9-0.3-40.3
		c0-1.7,0.2-3,0.7-3.9s1.2-1.4,2.2-1.6c1-0.2,1.7-0.4,2.1-0.6c0.3-0.2,0.5-0.7,0.5-1.3c0-1.1-0.7-1.6-2-1.7c-0.8,0-1.9,0.1-3.4,0.3
		c-1.5,0.2-5.5,0.2-7.2-0.1c-1.6-0.2-2.8-0.4-3.7-0.3c-0.5,0-0.9,0.1-1.2,0.4c-0.3,0.3-0.5,0.6-0.5,1c0,0.7,0.2,1.2,0.5,1.4
		c0.4,0.3,1,0.5,1.9,0.8c0.9,0.3,1.7,0.7,2.3,1.2c0.6,0.5,0.9,1.6,0.9,3.1c0.1,13.4,0.2,26.8,0.3,40.3c0,1.1-0.2,2.1-0.6,3
		C-21,621.1-21.8,621.7-23,621.9z"/>
	<path d="M-1.6,611.3c2.4,4.9,5.9,8.8,10.4,11.9s9.8,5.1,15.8,6.1c3.8,0.7,7.3,0.7,10.7,0c3.4-0.6,6.1-1.6,8.1-3.1
		c2.1-1.4,3.1-2.6,3.1-3.5c0-0.2-0.1-0.5-0.4-0.9c-0.3-0.4-0.6-0.6-1-0.7c-0.4-0.1-1,0.1-1.8,0.6c-3.5,2.3-7.1,3.6-10.7,4
		c-3.6,0.4-6.3,0.4-7.9,0.1c-6.6-1.1-11.8-4.1-15.7-9.2c-3.9-5.1-5.9-11.5-5.9-19.6c-0.1-7.4,1.7-13.3,5.2-17.6
		c3.5-4.3,8.5-6.1,14.9-5c5,0.8,8.9,2.9,11.7,5.9c1.6,1.7,3.1,4.3,4.5,7.7c0.7,1.6,1.2,2.6,1.5,3s0.7,0.6,1,0.7
		c1.1,0.3,1.6,0,1.6-0.9c0-0.5-0.1-1.2-0.3-1.8c-0.2-0.7-0.3-1.2-0.3-1.5c0-0.2,0-0.7,0.1-1.6c0-0.9,0.1-1.9,0.1-2.9
		c0-0.7-0.9-2-2.7-3.8c-1.8-1.8-4.2-3.5-7.3-5.2c-3.1-1.6-6.4-2.7-10.1-3.3c-5.7-0.9-10.7-0.3-15,1.8c-4.3,2.1-7.6,5.3-9.9,9.6
		c-2.3,4.3-3.4,9-3.4,14.1C-5.3,601.5-4,606.5-1.6,611.3z"/>
	<path d="M-190,757.4c0.9-0.7,1.4-1.3,1.4-2s-0.2-1.3-0.7-1.8s-1.8-0.9-4.2-1.4c-2.3-0.5-3.9-1.4-4.7-2.6s-1.2-2.6-1.2-4.1
		c-0.2-23.8-0.4-47.6-0.5-71.4c0-3.3,0.5-5.4,1.5-6.5s2.3-1.8,3.9-2.1c1.5-0.4,2.6-0.7,3.1-1.1s0.8-1.2,0.8-2.3
		c0-1.8-1.1-2.6-3.3-2.5c-2,0.1-4.2,0.4-6.4,0.8s-9.2,0.5-11.7,0.2c-2.5-0.4-4.7-0.6-6.5-0.6c-1,0-1.8,0.2-2.4,0.7
		c-0.7,0.5-1,1-1,1.6c0,0.8,0.2,1.5,0.7,2.1c0.4,0.6,1.6,1.2,3.4,1.8c3.5,1,5.4,2.5,5.7,4.6c0.3,2.1,0.4,19.2,0.5,29.2
		c0,1.6-0.2,2.7-0.7,3.2c-0.5,0.6-1.6,0.9-3.4,0.8c-10.8-0.1-21.5-0.8-32.3-2.3c-2.5-0.3-4.1-0.4-5.1,0c-0.9,0.3-1.4,1-1.4,2.1
		c0,1.1,0.4,1.9,1.1,2.6c0.7,0.7,2.3,1.2,4.9,1.6c10,1.4,19.9,2.2,29.9,2.4c3.1,0.1,5.1,0.5,6,1.3c0.9,0.8,1.3,1.9,1.4,3.4
		c0.1,13.6,0.2,16.3,0.3,29.9c0,3.1-0.5,5.1-1.4,6c-1,0.9-2.2,1.5-3.8,1.8c-1.5,0.2-2.6,0.5-3.1,0.9c-0.6,0.4-0.8,1.1-0.8,2.3
		c0,2,1.7,3,4.9,3.1c1,0,20.4-0.3,21.5-0.4C-192.1,758.5-190.9,758.1-190,757.4z"/>
	<path d="M-251.7,749.5c-2.3-1.1-3.9-2.3-4.6-3.6c-0.8-1.3-1.1-2.6-1.1-4c-0.2-23.8-0.4-47.7-0.5-71.5c0-3.1,0.5-5.1,1.5-5.9
		c1-0.8,2.3-1.3,3.8-1.4s2.6-0.3,3.2-0.6c0.6-0.3,0.8-1,0.8-2.1c0-1.8-1.1-2.8-3.3-3.1c-2-0.3-4.2-0.5-6.4-0.6s-9.2-1.6-11.7-2.7
		c-2.5-1-4.7-1.8-6.5-2.3c-1-0.3-1.8-0.3-2.4,0.1c-0.7,0.3-1,0.8-1,1.3c0,0.8,0.2,1.6,0.7,2.3c0.5,0.7,1.8,1.7,4.1,3
		c2.2,1.2,3.7,2.5,4.4,4c0.7,1.4,1,2.9,1,4.5c0.2,23.9,0.4,47.9,0.5,71.8c0,3.1-0.5,7-1.4,7.7c-1,0.7-2.2,1-3.7,0.8
		c-1.5-0.2-3.9,1-3.9,2.1c0,2,1.6,3.7,4.9,4.4c9.9,2,20.4,2.5,21.5,2.7c1.5,0.2,2.6,0.1,3.6-0.4c0.9-0.5,1.4-1,1.4-1.7
		s-0.3-1.4-0.7-2C-248,751.5-249.4,750.6-251.7,749.5z"/>
	<path d="M-16.5,719.8c-0.7-0.7-1.4-1.1-2.1-1.1c-1,0-1.8,0.3-2.4,0.9c-0.7,0.6-1.3,2.2-1.8,4.9c-0.5,2.7-1.4,4.5-2.6,5.3
		s-2.7,1.3-4.4,1.3c-8.4,0.3-16.9,1-25.3,1.8c-2,0.2-3.6-0.3-4.7-1.5s-1.6-3.5-1.7-6.9c-0.2-22.7-0.3-45.4-0.5-68
		c0-3.6,0.8-6.2,2.6-7.9c1-1,2.8-1.9,5.4-2.6c2-0.6,3.2-1.2,3.7-1.7c0.5-0.6,0.7-1.2,0.7-2c0-0.9-0.4-1.7-1.2-2.4
		c-0.8-0.7-1.7-1-2.8-0.8c-1,0.1-3.1,0.8-6.3,2c-3.3,1.3-16.1,3-18.5,2.5s-4-0.7-4.6-0.6c-1,0.1-1.8,0.5-2.4,1.1
		c-0.7,0.6-1,1.2-1,1.8c0,1,0.3,1.8,0.9,2.4c0.6,0.7,2.2,1.2,5,1.7s4.6,1.3,5.4,2.5c0.8,1.2,1.3,2.7,1.3,4.4
		c0.2,23.8,0.4,47.5,0.5,71.3c0,1.8-0.3,3.4-1.1,4.9c-0.7,1.5-2.6,2.5-5.5,3.1c-1.5,0.3-2.7,0.7-3.4,1.1c-0.6,0.4-0.9,1-1,1.9
		c-0.1-0.3-0.3-0.5-0.6-0.7c-0.6-0.4-1.7-0.7-3.3-1c-1.6-0.3-3-0.8-4.2-1.7s-2.7-3-4.5-6.4s-6.3-12.3-13.2-26.7
		c-6.4-13.2-12.8-26.3-19.2-39.5c-2.4-5-4.3-8.4-5.7-10.1c-1.4-1.7-3.3-2.4-5.6-2.1c-1.4,0.2-2.1,1-2.1,2.3c0,0.6,0.2,1.6,0.6,3
		c0.4,1.4,0.6,2.3,0.6,2.9c0,1.6-0.5,3.9-1.7,7c-1.1,3.1-3.7,9.3-7.7,18.7c-5.4,13-10.8,26-16.2,38.9c-5.4,13.2-8.8,20.9-10.1,23.1
		c-1.3,2.2-3.7,3.8-7.2,4.6c-1.2,0.3-2,0.6-2.5,1c-0.4,0.4-0.7,1.2-0.7,2.3c0,0.8,0.4,1.5,1.1,2.1c0.7,0.6,1.7,0.8,2.8,0.7
		c0.8-0.1,12.9-0.6,19.9-2c2.7-0.6,4.1-1.6,4.1-3.7c0-0.7-0.3-1.3-0.8-1.7c-0.5-0.5-1.7-0.9-3.7-1.2c-2-0.3-3.2-0.7-3.7-1.2
		s-0.8-1.1-0.8-1.7c0-0.6,0.2-1.4,0.5-2.3c4.1-9.8,8.2-19.7,12.3-29.6c4.8-11.7,9.5-23.5,14.3-35.3c1.1-3.1,1.9-4.6,2.4-4.7
		s1.1,0.9,2.1,2.8c5.1,10.5,10.2,21,15.3,31.5c0.6,1.3,1,2.1,1,2.5c0,0.6-0.8,1-2.4,1.3c-9.7,1.6-19.5,3.1-29.2,4.5
		c-1,0.1-1.8,0.6-2.5,1.2c-0.7,0.7-1.1,1.4-1.1,2.2c0,1,0.5,1.8,1.4,2.4c1,0.6,2,0.9,3.2,0.7c10.1-1.4,20.3-3.1,30.4-4.7
		c1.8-0.3,3-0.3,3.7-0.1c0.6,0.3,2.3,3,4.9,8.4c2.6,5.3,4,8.6,4,9.9c0,1.2-0.3,2.2-1,3.1c-0.7,0.9-2.2,1.7-4.6,2.3
		c-2.4,0.6-3.9,1.2-4.4,1.8s-0.8,1.3-0.8,2.1c0,0.9,0.5,1.6,1.4,1.9c0.9,0.4,2.1,0.4,3.7,0.2c1-0.2,2.9-0.6,5.6-1.4
		c2.7-0.8,5.3-1.4,7.8-1.8c2.5-0.4,58.3-6.8,76-7.2c3.2-0.1,5.6,0,7.2,0.2c2.4,0.2,3.5-0.9,3.5-3.3c-0.6-4-0.9-7.9-0.9-11.9
		C-15.4,721.5-15.7,720.5-16.5,719.8z"/>
	<path d="M49.1,655.5c-0.3-1.5-0.5-3-0.7-4.6s-0.6-2.7-1-3.3s-1.5-1.2-3.3-1.6c-17.5-4.8-35-7.1-52.4-7.7c-1.2,0-2.2,0.2-2.9,0.8
		c-0.8,0.6-1.1,1.3-1.1,2.1c0,0.9,0.5,1.6,1.3,2.2c0.9,0.6,2.2,0.9,3.8,1c2.4,0.1,4.1,0.5,5,1.2s1.5,2.2,1.8,4.6
		c0.3,2.4,0.5,6.8,0.5,13.1c0.2,20.7,0.3,41.5,0.5,62.2c0,1.4-0.4,2.6-1.2,3.6s-2.4,1.7-4.8,2.2s-3.8,0.9-4.3,1.4
		c-0.5,0.4-0.7,1-0.7,1.6c0,2.4,1.3,3.2,4.1,3.3c0.8,0,3.3-0.2,6.2-0.2c5.2-0.1,11.3,0.7,14,1c2.7,0.3,11.3,2,11.4,0
		c0-0.9-0.3-1.3-0.8-2.1c-0.6-0.8-2.2-1.8-5-3s-4.6-2.5-5.5-4s-1.4-3.1-1.4-4.8c-0.1-13.5-0.2-22.1-0.3-35.6c0-1.3,0.4-2.3,1.1-2.9
		c0.8-0.6,2.3-0.7,4.6-0.4c6,0.9,7,1,13,2.4c3.9,0.9,5.9,3.1,5.9,6.3c0,1.4,0.3,2.5,0.9,3.5c0.6,0.9,1.3,1.5,2.1,1.8
		c0.8,0.2,1.4,0.1,1.9-0.4s0.8-1.2,0.8-2.2c0-0.4-0.1-1.6-0.4-3.6c-0.2-2-0.3-8.1-0.2-9.9c0.1-1.8,0.2-3.1,0.2-4.1s-0.3-1.9-0.8-2.6
		c-0.6-0.7-1.2-1.2-2-1.4c-0.7-0.2-1.3-0.1-1.8,0.2s-0.7,0.9-0.7,1.7c0,1.6-0.4,2.9-1.1,3.9c-0.8,1-1.9,1.3-3.3,1
		c-6-1.4-7.1-1.6-13.1-2.5c-3.3-0.5-5.4-1.4-6.3-2.8c-0.9-1.4-1.3-8.6-1.3-11.6c0-4.8-0.1-9.6-0.1-14.4c0-1.8,0.5-3,1.5-3.8
		c1-0.8,3.1-1,6.3-0.5c6.2,0.9,12.4,2.1,18.7,3.6c0.9,0.2,1.7,0.7,2.5,1.6c0.8,0.8,1.5,2.4,2.3,4.7c0.8,2.3,1.4,3.8,1.9,4.4
		s1,1,1.5,1.1c2.2,0.6,3.3-0.4,3.3-3.1C49.5,658.1,49.4,656.9,49.1,655.5z"/>
	<path d="M-239.4,546.9c0.6,0.2,1,0.5,1.3,0.9c0.3,0.4,0.5,0.8,0.5,1.3c0.3,6.2,0.5,12.3,0.8,18.5c0.1,1.4-0.5,1.9-1.6,1.7
		c-0.4-0.1-0.7,0-0.9,0.1c-0.3,0.1-0.4,0.3-0.4,0.5s0.1,0.4,0.4,0.7c0.2,0.2,0.6,0.4,0.9,0.5c0.3,0,0.7,0,1.3,0c0.6,0,1.1,0,1.4,0
		c0.3,0,0.7,0.2,1.4,0.4c0.7,0.2,1.1,0.3,1.2,0.4c0.9,0.1,1.3-0.1,1.2-0.6c0-0.6-0.5-0.9-1.5-1.1c-0.4,0-0.7-0.2-1.1-0.6
		c-0.4-0.3-0.6-0.7-0.6-1.2c-0.2-5-0.4-10-0.6-15c0-0.6,0-0.9,0-0.9c0.1,0,0.3,0.3,0.6,1c2.4,4.7,4.8,9.3,7.1,14
		c0.3,0.5,0.5,0.7,0.8,0.8c0.2,0,0.3,0,0.4-0.1c0.1-0.1,0.1-0.2,0.2-0.3c0.1-0.1,0.5-1,1.4-2.6c0.9-1.6,1.8-3.5,2.8-5.7
		c0.8-1.7,1.7-3.4,2.5-5.1c0.3-0.6,0.5-0.9,0.6-0.9s0.1,0.3,0.1,1c0.2,5,0.4,10.1,0.7,15.1c0,0.8,0,1.4-0.3,1.6
		c-0.2,0.2-0.7,0.3-1.6,0.4c-0.4,0-0.6,0.1-0.8,0.1c-0.2,0.1-0.2,0.3-0.2,0.5c0,0.6,0.4,0.9,1.2,0.9c0.4,0,1,0,1.8,0
		c0.8-0.1,1.4-0.1,1.7-0.1c0.5,0,1.1,0.1,1.8,0.3c0.7,0.2,1.2,0.2,1.5,0.2s0.6,0,0.8-0.2c0.1,0,0.1-0.1,0.1-0.1
		c0,0.1,0.1,0.1,0.2,0.2c0.2,0.2,0.4,0.3,0.7,0.3c0.2,0,0.5,0,1-0.1s0.9-0.1,1.3-0.1c0.4,0,1,0.1,1.6,0.2c0.6,0.1,1,0.2,1.2,0.2
		c0.7,0,1-0.3,1-0.8c0-0.2-0.1-0.3-0.2-0.5c-0.1-0.1-0.5-0.3-1-0.4s-0.8-0.3-1-0.4c-0.1-0.1-0.2-0.3-0.2-0.5c0-0.2,0-0.4,0.1-0.6
		c1-2.4,1.9-4.8,2.9-7.2c1.1-2.9,2.2-5.7,3.4-8.6c0.3-0.8,0.5-1.1,0.6-1.1s0.3,0.3,0.6,0.8c1.4,2.9,2.8,5.8,4.3,8.7
		c0.2,0.4,0.3,0.6,0.3,0.7c0,0.2-0.2,0.2-0.6,0.2c-2.5,0.1-5,0.1-7.6,0.1c-0.2,0-0.5,0.1-0.6,0.2c-0.2,0.2-0.3,0.3-0.3,0.5
		c0,0.3,0.1,0.5,0.4,0.7c0.3,0.2,0.5,0.3,0.8,0.3c2.6,0,5.2,0,7.8-0.1c0.5,0,0.8,0,1,0.1c0.2,0.1,0.6,0.9,1.3,2.3
		c0.7,1.4,1.1,2.3,1.1,2.7c0,0.3-0.1,0.6-0.2,0.8c-0.2,0.2-0.6,0.4-1.2,0.4c-0.6,0.1-1,0.2-1.1,0.3c-0.1,0-0.1,0.2-0.1,0.4
		c0,0.2,0.1,0.4,0.4,0.6c0.2,0.1,0.6,0.2,1,0.2c0.3,0,0.7-0.1,1.4-0.2s1.4-0.2,2-0.2c0.6,0,1.3,0,2,0s3.1,0.1,3.9,0
		c0.4,0,2.8-0.4,3.1-0.5c0.4,0,2.7,0.1,3.1,0.1c0.5,0,0.9-0.2,1.1-0.4c0.2-0.2,0.4-0.5,0.3-0.7c0-0.3-0.1-0.5-0.3-0.6
		c-0.2-0.1-0.6-0.2-1.2-0.1c-0.5,0-1,0-1.3-0.3c-0.3-0.2-0.5-0.5-0.5-0.9c-0.3-6.6-0.6-13.1-0.9-19.7c0-0.4,0-0.6,0.1-0.9
		c0.1-0.2,0.2-0.4,0.5-0.6c0.3-0.2,0.8-0.3,1.4-0.3c1.7-0.1,3.1,0.3,4.1,1.2c1,1,1.5,2,1.6,3c0.1,1.5-0.3,2.7-1.1,3.6
		s-1.9,1.4-3.2,1.5c-0.3,0-0.5,0-0.8,0s-0.4,0-0.5,0c-0.6,0-0.9,0.3-0.9,0.8c0,0.2,0,0.4,0.1,0.4c0,0.1,0.2,0.1,0.3,0.2
		c0.6,0.2,1.3,0.7,1.9,1.6c0.2,0.2,0.9,1.3,2.2,3.1c2.7,3.9,4.3,6.2,4.8,6.7c0.3,0.3,0.8,0.6,1.6,0.9s1.5,0.5,2,0.4
		c0.2,0,0.5-0.1,0.8-0.4c0.3-0.2,0.5-0.5,0.5-0.7s-0.1-0.4-0.2-0.5c-0.1-0.2-0.5-0.3-1-0.4c-0.5-0.1-0.8-0.2-1-0.4
		c-0.1-0.1-1.1-1.6-3.1-4.4c-1.9-2.8-3.2-4.7-3.9-5.6c-0.2-0.2-0.2-0.3-0.2-0.4c0-0.1,0.2-0.3,0.5-0.5c1.8-0.9,3-1.8,3.7-2.7
		c0.7-0.9,1-2,1-3.3c-0.1-2-0.9-3.5-2.5-4.6c-1.6-1.1-3.5-1.5-5.9-1.3c-0.6,0.1-1.5,0.2-2.7,0.5s-1.9,0.4-2.1,0.4
		c-0.4,0-0.9,0-1.4,0c-0.6,0-1.1-0.1-1.5,0c-1,0.1-1.4,0.3-1.4,0.9c0,0.5,0.5,0.7,1.3,0.7c1.2,0,1.8,0.4,1.9,1.3
		c0.3,6.7,0.6,13.3,0.9,20c0,0.3-0.1,0.5-0.4,0.7c-0.5,0.4-1.7,0.6-2.3,0.7c-0.6,0.1-2-0.5-2.3-0.8s-0.7-0.9-1.2-1.8
		s-1.7-3.3-3.7-7.3c-1.8-3.6-3.6-7.2-5.3-10.9c-0.7-1.4-1.2-2.3-1.6-2.8c-0.4-0.5-0.9-0.7-1.5-0.7c-0.4,0-0.5,0.2-0.5,0.5
		c0,0.2,0.1,0.4,0.2,0.8c0.1,0.4,0.2,0.6,0.2,0.8c0,0.4-0.1,1-0.4,1.7c-0.3,0.7-0.9,2.3-1.8,4.5c-1.3,3.2-2.6,6.3-3.8,9.5
		c-1.3,3.2-2.1,5.1-2.4,5.6s-0.9,0.8-1.8,1c-0.3,0-0.5,0.1-0.6,0.2c0,0,0,0.1-0.1,0.1c0,0,0,0,0-0.1c-0.1-0.1-0.5-0.3-1.2-0.5
		s-1.1-0.4-1.4-0.8c-0.2-0.4-0.4-0.8-0.4-1.3c-0.3-6-0.5-12-0.8-18.1c0-0.6,0-1,0.1-1.1c0.1-0.2,0.3-0.4,0.6-0.7
		c0.4-0.3,0.8-0.5,1.3-0.5c0.6,0,0.9-0.2,0.9-0.6c0-0.5-0.4-0.8-1-0.8c-0.1,0-0.2,0-0.5,0.1c-0.3,0-0.5,0.1-0.7,0.1
		c-0.2,0-0.5-0.1-0.9-0.1c-0.4-0.1-0.7-0.1-0.8-0.1c-0.4,0-0.7,0.1-1,0.3c-0.3,0.2-0.6,0.7-1,1.5c-1.3,2.8-3.6,7.4-7,13.9
		c-0.1,0.2-0.2,0.4-0.3,0.4s-0.2-0.2-0.3-0.5c-1.2-2.4-2.4-4.7-3.6-7.1c-1.4-2.9-2.9-5.8-4.3-8.7c-0.3-0.7-0.6-1.2-0.8-1.5
		c-0.2-0.3-0.4-0.4-0.7-0.4c-0.2,0-0.5,0-0.8,0c-0.3,0-0.6,0.1-0.8,0c-0.2,0-0.5-0.1-0.9-0.3c-0.4-0.2-0.7-0.3-0.9-0.3
		c-0.2,0-0.5,0-0.7,0.1c-0.2,0.1-0.3,0.2-0.3,0.4c0,0.3,0.1,0.5,0.3,0.7C-240.4,546.5-240,546.7-239.4,546.9z"/>
	<path d="M-164.9,547.6c0.4,0.1,0.8,0.2,1,0.4c0.3,0.2,0.4,0.7,0.5,1.3c0.3,6,0.5,12.1,0.8,18.1c0,0.5-0.1,1-0.2,1.4
		c-0.2,0.4-0.5,0.7-1.1,0.9c-0.6,0.2-0.9,0.3-1,0.4c-0.1,0.1-0.1,0.3-0.1,0.4c0,0.6,0.5,0.8,1.3,0.7c0.3,0,0.8-0.1,1.4-0.3
		c0.6-0.2,1.1-0.3,1.4-0.3c0.3,0,0.8,0,1.4,0c0.6,0,1.1,0,1.4,0c0.7-0.1,1.1-0.3,1.1-0.8c0-0.2-0.1-0.4-0.2-0.5
		c-0.1-0.1-0.5-0.3-1-0.3c-0.6-0.1-0.9-0.2-1.1-0.5c-0.2-0.2-0.3-0.5-0.3-0.9c-0.3-6-0.5-12.1-0.8-18.1c0-0.8,0-1.4,0.2-1.8
		c0.2-0.4,0.5-0.7,1-0.9c0.5-0.1,0.8-0.3,0.9-0.4s0.2-0.3,0.2-0.6c0-0.5-0.3-0.7-0.9-0.6c-0.3,0-0.8,0.2-1.5,0.3
		c-0.7,0.2-1.2,0.3-1.5,0.3c-0.4,0-0.9,0.1-1.7,0c-0.7,0-1.3,0-1.6,0c-0.2,0-0.4,0.1-0.5,0.2c-0.2,0.1-0.2,0.3-0.2,0.5
		c0,0.3,0.1,0.5,0.3,0.6C-165.6,547.4-165.3,547.5-164.9,547.6z"/>
	<path d="M-156.9,546.4c0.2,0.1,0.6,0.1,1.2,0c0.4-0.1,0.8,0.1,1.1,0.4c0.3,0.3,0.5,0.7,0.5,1.3c0.3,6.2,0.5,12.4,0.8,18.6
		c0,0.6-0.1,1.1-0.5,1.4c-0.3,0.4-0.8,0.6-1.4,0.7c-0.7,0.1-1,0.4-1,0.8c0,0.6,0.3,0.8,0.9,0.7c0.2,0,0.6-0.1,1.4-0.3
		c0.7-0.2,1.2-0.3,1.5-0.4c0.2,0,0.7,0,1.5,0c0.8,0,1.3,0,1.7-0.1c0.4-0.1,0.6-0.1,0.7-0.3c0.1-0.1,0.1-0.3,0.1-0.5
		c0-0.6-0.5-0.9-1.4-0.7c-0.4,0.1-0.8,0-1.2-0.3c-0.4-0.2-0.7-0.6-0.7-1.1c-0.2-5.4-0.5-10.8-0.7-16.1c0-0.4,0.1-0.7,0.2-0.7
		c0.1,0,0.3,0.1,0.4,0.2c5.2,5.8,10.3,11.5,15.5,17.1c0.2,0.3,0.4,0.5,0.6,0.5c0.1,0.1,0.3,0.1,0.5,0.1c0.3,0,0.5-0.3,0.4-0.6
		c0-0.4-0.2-0.9-0.5-1.5s-0.5-1.5-0.5-2.6c-0.3-5.8-0.5-11.6-0.8-17.4c0-0.4,0-0.7,0.1-1s0.2-0.5,0.5-0.8c0.3-0.2,0.7-0.4,1.3-0.5
		c0.7-0.1,1-0.4,1-0.8c0-0.6-0.4-0.8-1.1-0.7c-0.3,0-0.7,0.2-1.2,0.3c-0.6,0.2-1,0.3-1.4,0.4c-0.3,0-0.8,0.1-1.6,0
		c-0.8,0-1.3,0-1.4,0c-0.3,0-0.5,0.2-0.7,0.3c-0.2,0.2-0.3,0.4-0.3,0.7c0,0.2,0.1,0.4,0.4,0.5c0.3,0.1,0.6,0.1,1,0.1
		c0.5-0.1,0.9,0,1.3,0.2c0.3,0.2,0.5,0.6,0.6,1.1c0.2,4.7,0.4,9.3,0.6,14c0,0.6-0.1,1-0.3,1c-0.1,0-0.2-0.1-0.4-0.2
		c-2.7-3-5.5-6.1-8.2-9.2c-3.1-3.5-4.9-5.4-5.4-5.9s-1-0.7-1.3-0.7c-0.2,0-0.4,0.1-0.7,0.2s-0.5,0.2-0.7,0.2c-0.3,0-0.6,0.1-1.1,0
		c-0.4,0-0.7,0-0.8,0c-0.6,0.1-0.9,0.4-0.9,0.8C-157.2,546.1-157.1,546.3-156.9,546.4z"/>
	<path d="M-132.8,542.7c0.2,0.1,0.6,0.2,1,0.1c0.7-0.1,1.2-0.1,1.4,0c0.2,0.1,0.4,0.5,0.5,1c0.1,0.6,0.2,1.7,0.2,3.4
		c0.2,5.3,0.5,10.7,0.7,16c0,0.6-0.1,1-0.3,1.4c-0.2,0.3-0.8,0.5-1.7,0.7c-0.7,0.1-1,0.4-1,0.9c0,0.3,0.2,0.5,0.6,0.6
		c0.4,0.1,1.1,0.1,2.1-0.1c4.7-0.7,9.5-1.5,14.2-2.2c0.6-0.1,0.9-0.2,1-0.4c0.1-0.2,0.2-0.5,0.2-1c0-0.2,0-0.5-0.1-1
		c-0.1-0.5-0.1-0.9-0.1-1.3s-0.1-0.7-0.3-0.9c-0.2-0.2-0.4-0.3-0.7-0.3c-0.3,0-0.5,0.2-0.7,0.5c-0.2,0.3-0.3,0.7-0.2,1.1
		c0,0.5-0.1,0.9-0.4,1.3c-0.3,0.4-0.7,0.6-1.3,0.7c-2,0.3-4,0.6-6.1,1c-0.7,0.1-1.2,0.1-1.6-0.1c-0.3-0.2-0.5-0.5-0.5-1.1
		c-0.2-3.7-0.3-7.4-0.5-11.2c0-0.3,0.1-0.6,0.4-0.8c0.3-0.2,0.6-0.4,1-0.4c1.6-0.2,3.1-0.5,4.7-0.7c0.5-0.1,0.9-0.1,1.2,0.1
		c0.2,0.1,0.4,0.4,0.4,0.9c0,0.4,0.1,0.7,0.3,0.8c0.2,0.2,0.4,0.3,0.6,0.2c0.2,0,0.4-0.2,0.6-0.4c0.2-0.2,0.2-0.4,0.2-0.7
		c0-0.1-0.1-0.4-0.2-0.9s-0.2-0.9-0.2-1.4c0-0.3,0-0.7,0.1-1.1c0.1-0.5,0.1-0.8,0.1-1.1c0-0.3-0.1-0.5-0.3-0.6
		c-0.2-0.1-0.4-0.2-0.6-0.1c-0.2,0-0.4,0.1-0.6,0.3c-0.2,0.2-0.2,0.3-0.2,0.5c0,0.4-0.1,0.7-0.3,1.1c-0.2,0.3-0.5,0.5-0.9,0.6
		c-1.6,0.2-3.1,0.5-4.7,0.7c-0.7,0.1-1.2,0.1-1.5-0.2c-0.2-0.2-0.4-0.8-0.4-1.7c-0.1-1.2-0.1-2.5-0.2-3.7c0-0.5,0.1-0.8,0.3-1.1
		c0.2-0.3,0.7-0.5,1.5-0.6c1.6-0.3,3.2-0.5,4.8-0.8c0.3,0,0.5,0,0.8,0.1c0.2,0.1,0.5,0.4,0.7,1c0.2,0.5,0.4,0.8,0.6,0.9
		c0.2,0.1,0.4,0.1,0.6,0.1c0.4-0.1,0.6-0.3,0.6-0.8c0-1-0.1-1.7-0.2-2.1c-0.1-0.4-0.2-0.7-0.4-0.9c-0.1,0-0.5,0-1,0
		c-4.5,0.7-9,1.4-13.5,2.1c-0.3,0-0.6,0.2-0.7,0.4c-0.2,0.2-0.3,0.4-0.3,0.6C-133.1,542.4-133,542.6-132.8,542.7z"/>
	<path d="M-101.3,560.6c2.1,0.9,4.5,1.1,7.2,0.8c1.7-0.2,3.3-0.8,4.8-1.6c1.5-0.8,2.7-1.8,3.6-2.8c0.9-1,1.3-1.7,1.3-2.1
		c0-0.1-0.1-0.2-0.2-0.3c-0.1-0.1-0.3-0.2-0.5-0.1c-0.2,0-0.5,0.2-0.8,0.6c-1.5,1.7-3.1,2.9-4.7,3.6c-1.6,0.7-2.8,1.1-3.6,1.3
		c-3,0.4-5.4-0.3-7.2-2.1c-1.8-1.8-2.8-4.6-3-8.2c-0.1-3.3,0.5-6.1,2.1-8.5c1.5-2.3,3.7-3.7,6.6-4.1c2.3-0.3,4,0,5.3,0.9
		c0.7,0.5,1.5,1.4,2.1,2.7c0.3,0.6,0.6,1,0.7,1.1c0.2,0.1,0.3,0.2,0.5,0.2c0.5-0.1,0.7-0.3,0.7-0.7c0-0.2-0.1-0.5-0.2-0.8
		c-0.1-0.3-0.2-0.5-0.2-0.6s0-0.3,0-0.7c0-0.4,0-0.8,0-1.3c0-0.3-0.4-0.7-1.3-1.2c-0.8-0.5-1.9-0.9-3.3-1.1c-1.4-0.2-2.9-0.2-4.6,0
		c-2.6,0.4-4.8,1.3-6.7,2.7c-1.9,1.4-3.3,3.2-4.3,5.4s-1.4,4.4-1.3,6.7c0.1,2.3,0.7,4.4,1.9,6.4C-105,558.3-103.4,559.7-101.3,560.6
		z"/>
	<path d="M-79.9,555.9c2.6,2.3,5.8,3.3,9.5,2.9c2.3-0.2,4.4-0.8,6.5-1.9c2-1,3.6-2.7,4.8-4.9c1.2-2.2,1.7-4.6,1.6-7.2
		c-0.2-3.5-1.5-6.6-3.9-9.2c-2.5-2.6-5.7-3.8-9.8-3.4c-2.6,0.3-4.9,1.1-6.9,2.5s-3.4,3.2-4.5,5.4c-1,2.2-1.5,4.3-1.4,6.4
		C-83.9,550.4-82.5,553.6-79.9,555.9z M-78.2,537.9c1.6-2.4,3.9-3.8,6.9-4.1c2.9-0.3,5.3,0.6,7.1,2.6s2.8,5.1,3,9.2
		c0.1,2.4-0.1,4.3-0.7,5.8s-1.6,2.7-3,3.8c-1.4,1.1-3.3,1.7-5.5,1.9c-6.4,0.6-9.7-3-10.1-11.1C-80.6,543-79.8,540.3-78.2,537.9z"/>
	<path d="M-56.4,533.2c1.2,0,1.8,0.5,1.9,1.4c0.3,6.7,0.6,13.4,0.9,20c0,0.3-0.1,0.5-0.4,0.7s-0.6,0.3-1,0.3c-0.7,0-1.1,0.1-1.3,0.2
		c-0.2,0.1-0.2,0.3-0.2,0.6c0,0.7,0.6,1,1.7,0.9c0.4,0,0.9-0.2,1.5-0.4c0.6-0.3,1.1-0.4,1.5-0.4s0.9,0.1,1.6,0.3
		c0.7,0.2,1.2,0.4,1.7,0.3c0.5,0,0.9-0.1,1.1-0.3c0.2-0.2,0.4-0.4,0.3-0.7c0-0.3-0.1-0.5-0.3-0.7c-0.2-0.1-0.6-0.2-1.2-0.2
		c-0.5,0-1-0.1-1.3-0.3c-0.3-0.2-0.5-0.5-0.5-0.9c-0.3-6.6-0.6-13.1-0.9-19.7c0-0.4,0-0.6,0.1-0.9c0.1-0.2,0.2-0.4,0.5-0.6
		c0.3-0.2,0.8-0.2,1.4-0.3c1.7-0.1,3.1,0.4,4.1,1.5c1,1,1.5,2.1,1.6,3.1c0.1,1.5-0.3,2.7-1.1,3.5c-0.8,0.8-1.9,1.3-3.2,1.3
		c-0.3,0-0.5,0-0.8,0s-0.4,0-0.5,0c-0.6,0-0.9,0.3-0.9,0.8c0,0.2,0,0.4,0.1,0.4c0,0.1,0.2,0.1,0.3,0.2c0.6,0.2,1.3,0.8,1.9,1.7
		c0.2,0.2,0.9,1.3,2.2,3.3c2.7,4.1,4.3,6.5,4.8,7.1c0.3,0.3,0.8,0.6,1.6,1.1c0.8,0.4,1.5,0.6,2,0.6c0.2,0,0.5-0.1,0.8-0.3
		c0.3-0.2,0.5-0.4,0.5-0.7c0-0.2-0.1-0.4-0.2-0.6c-0.1-0.2-0.5-0.3-1-0.5c-0.5-0.2-0.8-0.3-1-0.5c-0.1-0.1-1.1-1.7-3.1-4.8
		c-1.9-3-3.2-5-3.9-5.9c-0.2-0.2-0.2-0.4-0.2-0.5s0.2-0.3,0.5-0.4c1.8-0.7,3-1.5,3.7-2.3c0.7-0.8,1-1.9,1-3.2
		c-0.1-2-0.9-3.6-2.5-4.9c-1.6-1.2-3.5-1.8-5.9-1.8c-0.6,0-1.5,0.1-2.7,0.4c-1.2,0.2-1.9,0.3-2.1,0.4c-0.4,0-0.9,0-1.4-0.1
		c-0.6-0.1-1.1-0.1-1.5,0c-1,0.1-1.4,0.3-1.4,0.9C-57.6,533-57.2,533.2-56.4,533.2z"/>
	<path d="M-35.8,532.9c1.3,0,1.9,0.5,2,1.5c0.3,6.4,0.6,12.7,0.8,19.1c0,0.5-0.1,1-0.3,1.3c-0.2,0.4-0.6,0.6-1.3,0.6s-1,0.1-1.1,0.2
		s-0.2,0.2-0.1,0.4c0,0.6,0.5,0.9,1.5,0.9c0.3,0,0.7-0.1,1.4-0.3c0.7-0.2,1.2-0.3,1.5-0.3c0.2,0,0.8,0.1,1.6,0.4
		c0.8,0.3,1.4,0.4,1.7,0.4c1,0.1,1.4-0.2,1.4-0.6c0-0.3-0.1-0.5-0.3-0.7c-0.2-0.2-0.6-0.3-1.2-0.3c-1.2-0.1-1.8-0.5-1.8-1.5
		c-0.3-6.2-0.5-12.5-0.8-18.7c0-0.7,0-1.2,0-1.6c0-0.3,0.2-0.6,0.5-0.7c0.3,0,0.7-0.1,1.3,0c1.7,0.1,3.1,0.7,4.2,1.8
		c1.1,1.1,1.6,2.3,1.7,3.6c0.1,1.4-0.3,2.5-1.1,3.2c-0.8,0.7-1.8,1-3.1,1c-0.3,0-0.6,0-0.9-0.1c-0.3,0-0.5-0.1-0.6-0.1
		c-0.3,0-0.5,0-0.6,0.1c-0.2,0.1-0.2,0.2-0.2,0.4c0,0.7,0.6,1,1.8,1.1c2,0.1,3.5-0.1,4.7-0.5c1.2-0.5,2.1-1.1,2.8-1.7
		c0.7-0.7,1-1.7,0.9-3.1c-0.1-1.8-0.9-3.4-2.4-4.8c-1.5-1.4-3.7-2.2-6.5-2.4c-1.1-0.1-2.1,0-2.9,0.1c-0.8,0.1-1.4,0.2-1.7,0.1
		c-0.4,0-0.9-0.1-1.4-0.2c-0.6-0.1-1.1-0.2-1.5-0.2c-0.8,0-1.2,0.2-1.2,0.7C-37.1,532.6-36.7,532.9-35.8,532.9z"/>
	<path d="M-15.5,542.9c0.7,0.7,1.7,1.5,2.9,2.5c3,2.5,4.8,4.3,5.6,5.3c0.7,1.1,1.1,2,1.1,2.9c0.1,1.4-0.4,2.5-1.4,3.2
		c-1,0.7-2.2,1-3.8,0.7c-1.5-0.2-2.8-0.8-3.6-1.7c-0.9-0.9-1.5-2.1-1.7-3.5c-0.1-0.9-0.4-1.4-1-1.4c-0.5-0.1-0.8,0.1-0.7,0.6
		c0,0.1,0,0.3,0.1,0.7c0.1,0.3,0.1,0.6,0.1,0.9c0,0.7,0,1.2,0,1.7s0,0.8,0,0.9c0,0.7,0.8,1.4,2.4,2.2c1.6,0.8,3.1,1.3,4.5,1.5
		c2,0.3,3.9,0,5.6-1c1.7-0.9,2.5-2.5,2.4-4.8c-0.1-1.6-0.7-3.2-1.8-4.8s-3.3-3.8-6.6-6.5c-1.7-1.4-2.8-2.4-3.2-3.1
		c-0.4-0.7-0.7-1.3-0.7-1.9c0-0.8,0.4-1.6,1.3-2.2c0.9-0.6,2-0.8,3.2-0.6c1.1,0.2,2.1,0.6,2.9,1.3c0.8,0.7,1.2,1.7,1.3,2.8
		c0,0.2,0.1,0.4,0.3,0.6c0.2,0.2,0.4,0.3,0.6,0.4c0.5,0.1,0.8-0.3,0.7-1c-0.1-0.4-0.1-0.6-0.1-0.7c0-0.4,0-0.8,0-1s0-0.4,0-0.5
		c0-0.8-0.7-1.5-2-2.3s-2.5-1.2-3.6-1.4c-2-0.3-3.7,0.1-5.2,1c-1.5,0.9-2.2,2.3-2.1,3.9c0,1,0.3,2,0.8,2.8
		C-16.8,541.4-16.2,542.2-15.5,542.9z"/>
</g>
</svg>
