<?xml version="1.0" encoding="utf-8"?>
<!-- Generator: Adobe Illustrator 19.0.0, SVG Export Plug-In . SVG Version: 6.00 Build 0)  -->
<svg version="1.1" id="Layer_1" xmlns="http://www.w3.org/2000/svg" xmlns:xlink="http://www.w3.org/1999/xlink" x="0px" y="0px"
	 viewBox="-412 650.2 198.3 143.9" style="enable-background:new -412 650.2 198.3 143.9;" xml:space="preserve">
<path d="M-214.4,777.2h-2.5v9.2c0,0.3,0.1,0.7,0.2,1.2l-4-10.4h-2.2v16.9h2.5v-9.4c0-0.3-0.1-0.7-0.2-1.2l4,10.6h2.2V777.2z
	 M-230.9,779.4h3.5v12.5h-3.5V779.4z M-224.9,778.8c0-1-0.5-1.6-1.5-1.6h-5.5c-1,0-1.5,0.5-1.5,1.6v13.8c0,1,0.5,1.5,1.5,1.5h5.5
	c1,0,1.5-0.5,1.5-1.5V778.8z M-235.3,777.2h-2.5v6.9h-3.4v-6.9h-2.5v16.9h2.5v-7.6h3.4v7.6h2.5
	C-235.3,794.1-235.3,777.2-235.3,777.2z M-245.4,777.2h-8.1v2.2h2.8V794h2.5v-14.6h2.8V777.2z M-259.2,788.7l1.2-7.6l1.2,7.6H-259.2
	z M-256.6,777.2h-2.6l-3.3,16.8l0,0h2.5l0.5-3.2h3.2l0.5,3.2h2.5L-256.6,777.2z M-266.7,786.4c0.8,0,1.4-0.1,1.6-0.2
	c0.5-0.2,0.7-0.7,0.7-1.4v-6.1c0-1-0.5-1.6-1.5-1.6h-6.7V794h2.5v-14.7h3.2v5.3h-2.5v1.5l2.8,7.8h2.6L-266.7,786.4z M-280,788.7
	l1.2-7.6l1.2,7.6H-280z M-277.4,777.2h-2.7l-3.3,16.8l0,0h2.5l0.5-3.2h3.2l0.5,3.2h2.5L-277.4,777.2z M-285,777.2h-2.4l-2.6,9.3
	c0,0.3-0.1,0.6-0.1,0.8c0-0.4,0-0.7-0.1-0.8l-2.6-9.3h-2.4v16.9h2.4v-8.3c0-0.4,0-1-0.2-1.8l2.2,8.6h1.3l2.2-8.6
	c-0.1,0.8-0.2,1.4-0.2,1.8v8.3h2.4L-285,777.2L-285,777.2z M-301.7,788.5c0-0.6-0.2-1-0.5-1.4l-5-4.8v-3h3.1v3.2h2.5v-3.8
	c0-1-0.5-1.5-1.5-1.5h-5.1c-1,0-1.5,0.5-1.5,1.6v3.7c0,0.5,0.2,1,0.5,1.3l5,4.8v3.3h-3.1v-3.4h-2.5v4c0,1,0.5,1.5,1.5,1.5h5.1
	c1,0,1.5-0.5,1.5-1.5V788.5z M-317.2,779.4h3.1v6.4h-3.1V779.4z M-311.6,778.8c0-1-0.5-1.6-1.5-1.6h-6.6v16.9h2.5V788h4.1
	c1,0,1.5-0.5,1.5-1.6V778.8z M-324.3,786.4c0.8,0,1.4-0.1,1.6-0.2c0.5-0.2,0.7-0.7,0.7-1.4v-6.1c0-1-0.5-1.6-1.5-1.6h-6.7V794h2.5
	v-14.7h3.2v5.3h-2.5v1.5l2.8,7.8h2.6L-324.3,786.4z M-338,779.4h3.5v12.5h-3.5V779.4z M-332.1,778.8c0-1-0.5-1.6-1.5-1.6h-5.5
	c-1,0-1.5,0.5-1.5,1.6v13.8c0,1,0.5,1.5,1.5,1.5h5.5c1,0,1.5-0.5,1.5-1.5C-332.1,792.6-332.1,778.8-332.1,778.8z M-342.5,788.4h-2.5
	v3.5h-3.3v-12.5h3.3v3.3h2.5v-3.9c0-1-0.5-1.6-1.5-1.6h-5.3c-1,0-1.5,0.5-1.5,1.6v13.8c0,1,0.5,1.5,1.5,1.5h5.3c1,0,1.5-0.5,1.5-1.5
	V788.4z M-357,791.8h-4.5v-5.3h3.8v-2.2h-3.8v-4.9h4.4v-2.2h-6.9v16.9h7V791.8z M-366,777.2h-2.5v9.2c0,0.3,0.1,0.7,0.2,1.2l-4-10.4
	h-2.2v16.9h2.5v-9.4c0-0.3-0.1-0.7-0.2-1.2l4,10.6h2.2V777.2z M-376.5,777.2h-2.5v16.9h2.5V777.2z M-383.5,786.4
	c0.8,0,1.4-0.1,1.6-0.2c0.5-0.2,0.7-0.7,0.7-1.4v-6.1c0-1-0.5-1.6-1.5-1.6h-6.7V794h2.5v-14.7h3.2v5.3h-2.5v1.5l2.8,7.8h2.6
	L-383.5,786.4z M-396.9,788.7l1.2-7.6l1.2,7.6H-396.9z M-394.3,777.2h-2.6l-3.3,16.8l0,0h2.5l0.5-3.2h3.2l0.5,3.2h2.5L-394.3,777.2z
	 M-401.8,777.2h-2.4l-2.6,9.3c0,0.3-0.1,0.6-0.1,0.8c0-0.4,0-0.7-0.1-0.8l-2.6-9.3h-2.4v16.9h2.4v-8.3c0-0.4-0.1-1-0.2-1.8l2.2,8.6
	h1.3l2.2-8.6c-0.1,0.8-0.2,1.4-0.2,1.8v8.3h2.4L-401.8,777.2L-401.8,777.2z"/>
<path d="M-331.2,650.2c-2.2,0-18.7,0-18.7,0l25.9,26c0,0,7-7,8-8c1.5-1.5,4.1-1.5,4.1-1.5l-14.6-14.8
	C-326.5,651.9-328.1,650.2-331.2,650.2"/>
<path d="M-309.6,665c0,0,1.8,1.8,3.3,0.3c2.3-2.3,6.7-6.6,6.7-6.6l-5.2-5.2c0,0-10,0-11.8,0c-2.5,0-5.4-0.9-5.4-0.9L-309.6,665z"/>
<g>
	<path d="M-283,766.3h41.7l-115.9-116h-12.1l61.4,61.4l-26.8,26.7c0,0,4-0.8,6.6,1.9c1.2,1.2,14.6,14.6,14.6,14.6s2.9,2.3,0,5.3
		c-3.2,3.2-6.1,6.1-6.1,6.1h17.2c0,0,4-3.9,7.1-7c2.9-2.9,0-5.3,0-5.3s-12.6-12.5-13.7-13.7c-2.7-2.7-7.1-1.9-7.1-1.9l17.4-17.5
		l9.5,9.5l-8.5,8.5c0,0,4-0.8,6.6,1.9c1.2,1.2,10,9.9,10,9.9l4.3,4.2c0,0,2.9,2.3,0,5.3L-283,766.3z"/>
	<path d="M-331.6,754.3c0,0-12.8-12.8-14-14c-2.4-2.4-6-2-6.5-1.9l30.3-30.3l-8.8-8.8l-67,66.9h17.6l18.1-18c0,0,2.6-3.1,5.7,0
		c3.3,3.3,6.6,6.6,6.6,6.6s2.9,2.3,0,5.3c-3.2,3.2-6.2,6.2-6.2,6.2h17.6c0,0,3.6-3.6,6.7-6.6C-328.6,756.6-331.6,754.3-331.6,754.3z
		"/>
</g>
<path d="M-282.8,702.1l-3.6-3.6l-4.3,4.3l-3.3-3.3l14.4-14.4l3.3,3.3l-4,4l3.6,3.6l5.3-5.3c1.2-1.2,1.2-2.5,0-3.7l-6.9-6.9
	c-1.2-1.2-2.4-1.2-3.7,0.1l-17,17c-1.2,1.2-1.3,2.5-0.1,3.6l6.9,6.9c1.2,1.2,2.5,1.2,3.7,0L-282.8,702.1z M-281.6,676.5l-3.4-3.4
	c0,0-13.8,7.8-13.7,7.6l7.6-13.6l-3.4-3.4l-20.8,20.8l3.5,3.5l9.2-9.3l-5.5,9.3l2,2l9.3-5.5l-9.3,9.3l3.6,3.6L-281.6,676.5z"/>
<path d="M-254.9,703.2l-3.4-3.4c0,0-13.8,7.8-13.7,7.6l7.6-13.6l-3.4-3.4l-20.8,20.8l3.5,3.5l9.2-9.3l-5.5,9.3l2,2l9.3-5.5l-9.3,9.3
	l3.6,3.6L-254.9,703.2z"/>
<path d="M-214.7,747.2c1.3-1.3,1.3-2.5,0-3.8l-6.1-6.1c-1.3-1.3-2.5-1.3-3.8,0l-4.6,4.6l3.1,3.1l3.9-3.9l3.8,3.8l-3.9,3.9l-19.5,5.4
	l-1.9,1.9l10.1,10.1l2.7-2.7l-6.4-6.4l15.8-4.3c1.3-0.3,2.2-0.9,2.9-1.5L-214.7,747.2z M-242.2,751.3l-3-3l-3.2,3.2l3,3
	L-242.2,751.3z M-254.4,740.2l6.6-6.6l4,4l-6.6,6.6L-254.4,740.2z M-240,739.9c1.3-1.3,1.3-2.5,0-3.8l-5.2-5.2l6.3-6.3l3.9,3.9
	l-3.7,3.7l3.1,3.1l4.4-4.4c1.3-1.3,1.3-2.6,0-3.8l-6.3-6.3c-1.2-1.2-2.5-1.2-3.8,0.1l-17.1,17.1c-1.3,1.3-1.3,2.5,0,3.8l6.3,6.3
	c1.3,1.3,2.5,1.2,3.8,0L-240,739.9z M-242.8,719.2c1.3-1.3,1.3-2.5,0-3.8l-6.1-6.1c-1.3-1.3-2.5-1.3-3.8,0l-4.6,4.6l3.1,3.1l3.9-3.9
	l3.8,3.8l-3.9,3.9l-19.6,5.3l-1.9,1.9l10.1,10.1l2.7-2.7l-6.4-6.4l15.8-4.3c1.3-0.3,2.2-0.8,2.9-1.5L-242.8,719.2z"/>
</svg>
