<?xml version="1.0" encoding="utf-8"?>
<!-- Generator: Adobe Illustrator 19.0.0, SVG Export Plug-In . SVG Version: 6.00 Build 0)  -->
<svg version="1.1" id="Layer_1" xmlns="http://www.w3.org/2000/svg" xmlns:xlink="http://www.w3.org/1999/xlink" x="0px" y="0px"
	 viewBox="-480 686.6 129.1 106.8" style="enable-background:new -480 686.6 129.1 106.8;" xml:space="preserve">
<g>
	<path d="M-411.3,686.6h-4.5c0,0-4,14.2-4,14l-4-14h-4.5v27.5h4.7v-12.2l2.5,9.7h2.7l2.5-9.8V714h4.7L-411.3,686.6z M-395.9,704.3
		h-4.8v5.6h-4.3v-19h4.3v5.3h4.8v-7c0-1.6-0.8-2.5-2.4-2.5h-9.1c-1.6,0-2.4,0.8-2.4,2.5v22.6c0,1.6,0.8,2.4,2.4,2.4h9.1
		c1.6,0,2.4-0.8,2.4-2.4V704.3z"/>
	<path d="M-377.8,686.6h-4.5c0,0-4,14.2-4,14l-4-14h-4.5v27.5h4.7v-12.2l2.5,9.7h2.7l2.5-9.8V714h4.7L-377.8,686.6z"/>
</g>
<path d="M-434.1,755.1v-35.2h10.4V755L-434.1,755.1L-434.1,755.1z"/>
<path d="M-398,755.1h-20.8v-35.2h20.8c6.9,0,11.1,3.8,11.1,10.8v13.8C-386.9,751.5-391.1,755.1-398,755.1z M-397.4,731.8
	c0-2.7-1.5-3.6-4.2-3.6h-6.9v18.5h6.9c2.7,0,4.2-0.9,4.2-3.6V731.8z"/>
<path d="M-357,755.1h-22.3c-2.7,0-4.2-1.6-4.2-4.4v-7.8h10.5v4.5h9.8v-3.3l-18.4-7.7c-1.5-0.6-1.9-1.6-1.9-3.3v-8.9
	c0-2.8,1.5-4.4,4.2-4.4h22.3c2.7,0,4.2,1.5,4.2,4.3v7.3h-10.4v-3.9h-9.8v3.2l18.3,7.7c1.5,0.6,2,1.6,2,3.3v8.9
	C-352.7,753.5-354.3,755.1-357,755.1z"/>
<path d="M-433.4,793.3l-8.9-13.1v-5.9h8.4v-8h-9.8v27.1h-10.4v-35.3h26.4c2.7,0,4.2,1.6,4.2,4.4v13.9c0,2.8-1.5,4.3-4.2,4.3h-2.2
	l8.1,12.2v0.4C-421.8,793.3-433.4,793.3-433.4,793.3z"/>
<path d="M-391.1,793.3h-23.5c-2.7,0-4.2-1.6-4.2-4.4v-30.8h10.4v26.8h11v-26.8h10.4v30.8C-386.9,791.6-388.4,793.3-391.1,793.3z"/>
<path d="M-361.1,793.3l-11.5-17.5v17.5h-10.5v-35.2h10.3l11.5,17.5v-17.5h10.4v35.1h-10.2V793.3z"/>
<polygon points="-449.6,736.8 -438.8,720.2 -438.8,719.9 -451.7,719.9 -462.4,736.8 -449.7,755.1 -436.9,755.1 -436.9,754.7 "/>
<polygon points="-467.1,736.8 -436,686.6 -449.9,686.6 -480,736.8 -467.2,755.1 -454.5,755.1 -454.5,754.7 "/>
</svg>
