<?xml version="1.0" encoding="utf-8"?>
<!-- Generator: Adobe Illustrator 19.0.0, SVG Export Plug-In . SVG Version: 6.00 Build 0)  -->
<svg version="1.1" id="Layer_2" xmlns="http://www.w3.org/2000/svg" xmlns:xlink="http://www.w3.org/1999/xlink" x="0px" y="0px"
	 viewBox="-274.1 562.6 336.1 231.7" style="enable-background:new -274.1 562.6 336.1 231.7;" xml:space="preserve">
<g>
	<g>
		<path d="M-89.7,590.6c2.8-6.1,22.2-31.1,38.8-21.4c6.2,3.6,5.6,10.2,7.3,10.1c1.4-0.1,3.3-7.7,1.3-11.7
			c-1.6-3.3-10.1-5.5-16.5-4.9c0,0-18-0.1-32.2,16.6c-10.8,12.8-25.1,49.9-28.6,58.4s-18.7,50.6-18.7,50.6s-17.3,43.3-23.7,53.9
			c-6.7,11.3-28.9,46.7-69.9,47c-14.2,0.2-37.5-11.4-38.1-32.4c-0.7-25.7,23.4-35.9,40.5-25.1c4.6,2.9,4.2,5.8,5.7,5.1
			c-7.5-18.8-43.3-11.5-49,9.9c0,0-9.6,31.8,23.5,43.8c38.4,13.9,78.8-10.7,104.3-66.6c15.9-35,30.5-80.3,37.1-96.5
			C-101.1,611.3-89.7,590.6-89.7,590.6z"/>
		<path d="M-89.5,698.1c0,0,4.4-5.5,3.9-7.7c-0.6-2.2-5-3.2-7.2-2.8c-6.2,1.2-13.2,8.5-19,26.7c-6.1,19.1,6.5-27.7,5.6-28.4
			c-1-0.8-42.7,4.9-45.9,5.4c-9.8,1.5-13.6,13.2-6.1,18.1c7.6,4.9,13-6.1,11.7-8c-1.4-1.9-1.1,6.1-6.9,5.3c-5.8-0.8-5.2-8-1.2-9.9
			c4-1.9,43.4-7.7,43.4-7.7s-8.3,40.8-10.6,43.5c1.1,1,5.7,0.1,6.8-0.8c0,0,5.2-21.3,10.3-29.3c4-6.3,8.7-8.6,11.9-7.5
			C-89.7,696.2-89.5,698.1-89.5,698.1z"/>
	</g>
	<g>
		<path d="M42.9,621.2c-0.9-2.6-3.1-3.9-6.4-3.9c-4.3,0-8.6,1.4-12.8,4.2c-12.1,8-21.1,18.8-28.4,33.8c-1.3,2.7-12.7,26.1-15.4,33.8
			c-0.7-0.5-1.5-0.8-2.3-1.1c-1.1-0.4-2.3-0.6-3.7-0.6c-4.1,0-8,1-11.6,3s-6.7,4.6-9.4,7.9c-2.7,3.2-4.9,7.1-6.4,11.3
			c-1.6,4.3-2.4,8.7-2.4,13.3c0,3.9,1,6.9,2.9,8.7c1.9,1.8,4,2.7,6.1,2.7h0.1h0.1c1.4-0.4,3-1.2,4.9-2.5s3.8-2.9,5.7-4.8
			c1.9-1.9,3.8-4.1,5.6-6.4c0.9-1.2,1.8-2.5,2.5-3.7c-0.1,0.6-0.3,1.2-0.4,1.8c-0.4,1.8-0.6,3.8-0.7,5.8c-0.2,2.8,0,5.1,0.8,6.9
			c0.9,1.9,2.4,2.9,4.7,2.9c1.2,0,2.4-0.4,3.8-1.2c1.3-0.8,2.6-1.8,3.9-2.9c1.3-1.1,2.4-2.4,3.5-3.7c0,0,2.9-3.6,2.7-4.7
			c0-0.2-0.1-0.3-0.3-0.4c-0.3-0.2-0.6-0.2-0.8-0.2c-0.3,0-0.6,0.1-0.8,0.3l0,0l0,0c-1,1.5-1.6,2.1-2.7,3.3l-0.2,0.3
			c-1.2,1.3-3.5,2.5-4.6,2.5c-0.7,0-1.7-0.3-2-2.7c-0.2-2-0.1-4.4,0.4-7.1c1.7-9.1,3.8-18.3,6.5-27.4c2.5-8.6,7.5-21.2,11.2-29.2
			c6.6-14.7,14.3-25.1,23.3-32c3.8-2.9,8.1-4.4,12.7-4.4c2,0,3.6,0.4,4.7,1.3c1,0.8,1.5,2,1.2,3.5v0.1v0.1c0.3,1.2,0.9,1.4,1.3,1.4
			s0.8-0.2,1.3-0.5l0.1-0.1l0.1-0.1C43.3,626.8,43.8,623.7,42.9,621.2z M-28.8,691.2c1.6,0,3,0.3,4.2,0.9c1.2,0.6,1.9,1.5,2.4,2.7
			c-0.2,1-0.5,2-0.9,3c-0.4,1.1-0.7,2.3-1.1,3.4c-1.2,3.3-2.6,6.5-4.3,9.6c-1.7,3.1-3.5,5.9-5.3,8.2c-1.8,2.3-3.6,4.3-5.5,5.7
			c-1.8,1.4-3.2,2.1-4.4,2.1s-2.2-0.5-3.1-1.6c-0.9-1.1-1.4-2.8-1.4-5.2c0-4.2,0.6-8.1,1.7-11.6s2.6-6.6,4.4-9.2
			c1.8-2.5,3.9-4.6,6.2-6C-33.5,691.9-31.1,691.2-28.8,691.2z M-10.7,721.6c0.2,0,0.4,0.1,0.6,0.2c-0.4-0.2-0.7-0.2-1,0
			C-11,721.6-10.9,721.6-10.7,721.6z M39.7,630.4C39.7,630.5,39.7,630.5,39.7,630.4C39.7,630.5,39.7,630.5,39.7,630.4z M39.5,630.1
			c0,0,0,0.1,0.1,0.1C39.5,630.2,39.5,630.2,39.5,630.1z M40.1,630.7C40.2,630.7,40.2,630.7,40.1,630.7
			C40.2,630.7,40.2,630.7,40.1,630.7C40.2,630.7,40.2,630.7,40.1,630.7z M39.9,630.6C39.9,630.6,39.9,630.7,39.9,630.6
			C39.9,630.7,39.9,630.6,39.9,630.6z M40.7,630.6C40.7,630.6,40.6,630.6,40.7,630.6C40.6,630.6,40.7,630.6,40.7,630.6z"/>
		<path d="M-59.1,690.1c-1.7-1.7-3.6-2.5-5.9-2.5c-3.2,0-6.2,1.1-9.1,3.3c-2.8,2.2-5.4,5-7.6,8.4c-2.2,3.4-4,7.2-5.3,11.2
			c-1.3,4.1-2,8-2,11.6c0,4,1,7.1,3,9.2c2,2.1,4.6,3.1,7.8,3.1c3.6,0,8.6-1.3,11.3-3.8c4.5-4.1,6.5-7.9,7.8-11.1
			c0.3-0.5,0.3-1,0-1.4c-0.2-0.2-0.4-0.4-0.6-0.4s-0.4,0.1-0.6,0.2l0,0l0,0c-0.3,0.4-0.7,0.9-1.2,1.7c-2.2,3.4-6.3,9.6-12.3,9.6
			c-0.2,0-0.3,0-0.5,0c-2.5-0.1-4.3-1.1-5.6-3c-1.2-1.9-1.9-4.3-2-7.6c-0.1-2.9,0.3-5.3,0.6-6.8c0.1-0.3,0.1-0.6,0.1-0.8
			c2-0.5,4-1.3,5.9-2c1.2-0.4,2.3-0.9,3.4-1.2c3-1,5.6-2,7.9-3.2c0,0,4-1.5,8-5.2l0,0l0,0C-55.9,699.1-56.7,692.5-59.1,690.1z
			 M-68.3,703.7c-2.7,1.6-6.9,2.9-12.6,3.7c1-5.1,2.5-8.9,4.7-11.3c2.1-2.4,3.8-3.6,6.5-3.6c1.4,0,2.5,0.5,3.4,1.6
			c0.8,1.1,1.3,2.5,1.3,4.1C-65.1,700.4-65.6,702.1-68.3,703.7z M-73.8,729.4c0.4,0,0.8,0,1.2-0.1
			C-72.9,729.3-73.4,729.4-73.8,729.4z M-72.4,729.3c0.4-0.1,0.8-0.2,1.1-0.3C-71.6,729.1-72,729.2-72.4,729.3z M-71.1,728.9
			c0.4-0.1,0.7-0.3,1.1-0.4C-70.4,728.7-70.7,728.8-71.1,728.9z M-69.9,728.5c0.3-0.2,0.7-0.3,1-0.5
			C-69.2,728.1-69.5,728.3-69.9,728.5z M-68.7,727.8c0.3-0.2,0.6-0.4,1-0.6C-68.1,727.4-68.4,727.6-68.7,727.8z M-67.7,727.1
			c0.3-0.2,0.6-0.5,0.9-0.7C-67,726.6-67.3,726.9-67.7,727.1z M-65.7,725.4c0.3-0.3,0.5-0.6,0.8-0.9
			C-65.2,724.8-65.4,725.1-65.7,725.4z M-59.4,718L-59.4,718L-59.4,718z M-59.7,717.9c-0.1,0-0.1,0-0.2,0
			C-59.8,717.9-59.8,717.9-59.7,717.9L-59.7,717.9z M-59.9,717.9c-0.1,0-0.2,0.1-0.3,0.1C-60.1,718-60,718-59.9,717.9z M-61.5,719.8
			c-0.2,0.3-0.4,0.5-0.5,0.8C-61.8,720.4-61.6,720.1-61.5,719.8z M-60.6,718.5L-60.6,718.5L-60.6,718.5z M-61,719.1L-61,719.1
			L-61,719.1z M-64.8,724.4c0.3-0.3,0.5-0.6,0.7-0.9C-64.3,723.8-64.6,724.1-64.8,724.4z M-64,723.4c0.2-0.3,0.5-0.6,0.7-0.9
			C-63.5,722.8-63.8,723.1-64,723.4z M-63.3,722.5c0.2-0.3,0.4-0.6,0.6-0.9C-62.8,721.9-63.1,722.2-63.3,722.5z M-62.6,721.5
			c0.2-0.3,0.4-0.6,0.6-0.8C-62.2,721-62.4,721.2-62.6,721.5z M-65.8,725.5c-0.3,0.3-0.6,0.5-0.8,0.8
			C-66.3,726-66.1,725.7-65.8,725.5z"/>
	</g>
</g>
<g>
	<g>
		<path d="M-80.7,656.2H-90v-1.9c0-1.6-0.1-2.6-0.3-3c-0.2-0.4-0.6-0.6-1.4-0.6c-0.6,0-1,0.2-1.3,0.6c-0.3,0.4-0.4,1-0.4,1.8
			c0,1.1,0.1,1.8,0.2,2.3c0.1,0.5,0.6,1,1.3,1.6c0.7,0.6,2.3,1.5,4.6,2.6c3.1,1.5,5.1,2.9,6,4.2c1,1.3,1.4,3.2,1.4,5.8
			c0,2.8-0.4,4.9-1.1,6.4c-0.7,1.4-2,2.5-3.7,3.3c-1.7,0.8-3.8,1.2-6.2,1.2c-2.7,0-5-0.4-6.9-1.3c-1.9-0.8-3.2-2-3.9-3.4
			c-0.7-1.4-1.1-3.6-1.1-6.5v-1.7h9.3v2.2c0,1.9,0.1,3.1,0.4,3.6c0.2,0.6,0.7,0.8,1.4,0.8c0.7,0,1.3-0.2,1.6-0.6
			c0.3-0.4,0.4-1.2,0.4-2.4c0-1.7-0.2-2.7-0.6-3.1c-0.4-0.4-2.4-1.7-6.1-3.7c-3.1-1.7-5-3.3-5.7-4.7c-0.7-1.4-1-3.1-1-5.1
			c0-2.8,0.4-4.8,1.1-6.1c0.7-1.3,2-2.3,3.7-3c1.7-0.7,3.8-1.1,6.1-1.1c2.3,0,4.3,0.3,5.9,0.9c1.6,0.6,2.8,1.4,3.7,2.3
			c0.9,1,1.4,1.8,1.6,2.7c0.2,0.8,0.3,2.1,0.3,3.8V656.2z"/>
		<path d="M-53.3,663.1H-67v7.5c0,1.6,0.1,2.6,0.3,3c0.2,0.5,0.7,0.7,1.3,0.7c0.8,0,1.3-0.3,1.6-0.9c0.3-0.6,0.4-1.8,0.4-3.5v-3h10
			v2.6c0,2.1-0.1,2.2-0.4,3.4c-0.3,1.1-0.9,2.4-1.9,3.7c-1,1.3-2.2,2.3-3.8,2.9c-1.5,0.7-3.4,1-5.7,1c-2.2,0-4.2-0.3-5.9-1
			c-1.7-0.6-3-1.5-4-2.7c-0.9-1.1-1.6-2.4-2-3.7c-0.4-1.3-0.5-3.3-0.5-5.9v-10.1c0-3,0.4-5.4,1.2-7.2c0.8-1.7,2.2-3.1,4-4
			c1.9-0.9,4-1.4,6.4-1.4c3,0,5.4,0.6,7.3,1.7c1.9,1.1,3.3,2.6,4,4.5c0.8,1.9,1.2,4.5,1.2,7.8v4.6H-53.3z M-63.9,657.4v-2.5
			c0-1.8-0.1-3-0.3-3.5c-0.2-0.5-0.6-0.8-1.2-0.8c-0.7,0-1.2,0.2-1.4,0.7c-0.2,0.4-0.3,1.6-0.3,3.6v2.5
			C-67.1,657.4-63.9,657.4-63.9,657.4z"/>
		<path d="M-39.8,645.1l-0.2,3.3c0.8-1.3,1.8-2.3,2.9-2.9c1.1-0.7,2.4-1,3.9-1c2.8,0,5,1.3,6.7,3.9c0.9-1.3,1.9-2.3,3-2.9
			c1.1-0.7,2.4-1,3.7-1c1.8,0,3.3,0.4,4.5,1.3c1.2,0.9,1.9,1.9,2.3,3.2c0.3,1.3,0.5,3.3,0.5,6.2v24.6h-10.2v-22.6
			c0-3-0.1-4.8-0.3-5.5c-0.2-0.7-0.7-1.1-1.4-1.1s-1.2,0.4-1.5,1c-0.2,0.7-0.3,2.5-0.3,5.5v22.6h-10.2v-22c0-3.4-0.1-5.4-0.2-6.1
			c-0.2-0.7-0.6-1-1.4-1c-0.5,0-0.9,0.2-1.2,0.5c-0.3,0.4-0.5,0.8-0.5,1.3s-0.1,1.6-0.1,3.3v24H-50v-34.6H-39.8L-39.8,645.1z"/>
		<path d="M1.5,645.1l-0.2,3.1c0.9-1.2,2-2.2,3.1-2.8c1.1-0.6,2.4-0.9,3.7-0.9c1.6,0,3,0.4,4.2,1.3c1.2,0.9,1.9,1.9,2.2,3
			c0.3,1.1,0.4,3.1,0.4,5.9v14.6c0,3.2-0.2,5.4-0.6,6.7c-0.4,1.3-1.1,2.4-2.3,3.2s-2.6,1.2-4.2,1.2c-1.3,0-2.5-0.3-3.6-0.9
			c-1.1-0.6-2.1-1.5-3.1-2.7v7.9H-9.5v-39.6L1.5,645.1L1.5,645.1z M4.5,655.2c0-2.1-0.1-3.4-0.2-3.9c-0.2-0.5-0.6-0.7-1.3-0.7
			s-1.1,0.3-1.3,0.8s-0.3,1.8-0.3,3.8v14.4c0,2.1,0.1,3.4,0.3,3.9s0.7,0.8,1.4,0.8s1.1-0.2,1.3-0.7s0.3-1.6,0.3-3.5v-14.9L4.5,655.2
			L4.5,655.2z"/>
		<path d="M42.1,663.1H28.4v7.5c0,1.6,0.1,2.6,0.3,3c0.2,0.5,0.7,0.7,1.3,0.7c0.8,0,1.3-0.3,1.6-0.9c0.3-0.6,0.4-1.8,0.4-3.5v-3h10
			v2.6c0,2.1-0.1,2.2-0.4,3.4c-0.3,1.1-0.9,2.4-1.9,3.7c-1,1.3-2.2,2.3-3.8,2.9c-1.5,0.7-3.4,1-5.7,1c-2.2,0-4.2-0.3-5.9-1
			c-1.7-0.6-3-1.5-4-2.7c-0.9-1.1-1.6-2.4-2-3.7c-0.4-1.3-0.5-3.3-0.5-5.9v-10.1c0-3,0.4-5.4,1.2-7.2c0.8-1.7,2.2-3.1,4-4
			c1.9-0.9,4-1.4,6.4-1.4c3,0,5.4,0.6,7.3,1.7c1.9,1.1,3.3,2.6,4.1,4.5c0.8,1.9,1.2,4.5,1.2,7.8L42.1,663.1L42.1,663.1z M31.5,657.4
			v-2.5c0-1.8-0.1-3-0.3-3.5s-0.6-0.8-1.2-0.8c-0.7,0-1.2,0.2-1.4,0.7c-0.2,0.4-0.3,1.6-0.3,3.6v2.5
			C28.3,657.4,31.5,657.4,31.5,657.4z"/>
		<path d="M55.7,645.1l-0.4,4.6c1.5-3.3,3.8-5,6.7-5.2v12.2c-1.9,0-3.4,0.3-4.3,0.8s-1.5,1.2-1.7,2.2c-0.2,0.9-0.3,3.1-0.3,6.4v13.7
			H45.1v-34.7H55.7z"/>
	</g>
</g>
<g>
	<g>
		<path d="M27.2,688.1v7.1H13.4v7.6c1.7-2,3.9-3.1,6.7-3.1c3.1,0,5.4,0.9,7,2.6s2.4,5,2.4,9.9v6.4c0,3.2-0.2,5.5-0.5,7
			s-1,2.8-1.9,4.1c-1,1.3-2.4,2.2-4.1,2.9c-1.8,0.7-3.9,1-6.5,1c-2.9,0-5.4-0.5-7.6-1.5s-3.7-2.5-4.7-4.5c-0.9-2-1.4-3.1-1.4-7.2
			V718h11.1v2.8c0,2.9,0.1,2.9,0.3,4.1s0.9,1.8,2.1,1.8c0.5,0,1-0.2,1.3-0.5s0.5-0.7,0.6-1.1c0-0.4,0.1-2.2,0.1-5.3V711
			c0-1.7-0.2-2.8-0.5-3.4c-0.3-0.6-0.9-0.9-1.7-0.9c-0.5,0-0.9,0.2-1.3,0.5c-0.3,0.3-0.6,0.6-0.7,1c-0.1,0.4-0.2,1.2-0.2,2.5h-11
			l0.5-22.5h23.8L27.2,688.1L27.2,688.1z"/>
	</g>
	<g>
		<path d="M61.1,688.1l-6.7,20.1l7.3,24.5h-12L45,713.6v19.1H33.4v-44.6H45v17.3l5.2-17.3H61.1z"/>
	</g>
</g>
</svg>
