<?xml version="1.0" encoding="utf-8"?>
<!-- Generator: Adobe Illustrator 19.0.0, SVG Export Plug-In . SVG Version: 6.00 Build 0)  -->
<svg version="1.1" id="tower" xmlns="http://www.w3.org/2000/svg" xmlns:xlink="http://www.w3.org/1999/xlink" x="0px" y="0px"
	 viewBox="8 341.7 620.3 453.3" style="enable-background:new 8 341.7 620.3 453.3;" xml:space="preserve">
<g id="text">
	<path d="M100.2,734.1c0,6.1,1.2,11.2,3.6,15.4c2.4,4.3,7.8,7.3,16.1,9.2s13.4,4.1,15.2,6.5s2.7,5.3,2.7,8.7c0,3.2-1.3,6-4,8.4
		s-6.3,3.6-11,3.6c-2.7,0-8.6-0.7-17.7-2.1c-9.2-1.4-18-2.1-26.4-2.1c-13.6,0-23.9,0.7-30.9,2.1c-7,1.4-11.2,2.1-12.6,2.1
		c-10.2,0-15.3-5.5-15.3-16.5c0-2.8,0.8-5.1,2.4-7s6.5-3.4,14.7-4.6c8.2-1.2,13.7-4.3,16.5-9.2c2.7-4.9,4.1-10.9,4.1-17.9l0.5-266.5
		c0-6.4-1.3-11.3-3.9-14.7c-2.6-3.4-5-5.1-7.2-5.1c-3.3,0-8,2.7-14.2,8.1c-6.2,5.4-10.8,8.1-13.8,8.1c-7.3-0.2-11-4.8-11-14
		c0-3.4,2.5-7.6,7.5-12.5c5-4.9,14.1-12.7,27.4-23.5l27.6-23.2c12.6-10.4,20.9-16.9,24.7-19.6c3.9-2.6,7.4-4,10.6-4
		c5.2,0,7.8,3.2,7.8,9.6c0,4.5-1.6,9.8-4.9,15.9c-6,11-8.9,23.3-8.9,37.1l1.4,228.2L100.2,734.1z"/>
	<path d="M285.5,481.4c-1.1,2.1-1.6,3.6-1.6,4.5c0,0.9,1,1.4,3.1,1.4c8-0.8,12.9-1.1,14.6-1.1c29,0,52.6,13.2,70.8,39.6
		c18.2,26.4,27.3,57.3,27.3,92.6c0,30.8-9.2,61-27.5,90.6c-18.4,29.6-39.8,51.4-64.4,65.2c-24.6,13.9-49.1,20.8-73.5,20.8
		c-11,0-23.5-2.5-37.6-7.6s-26.7-13.5-37.8-25.3s-16.6-22-16.6-30.7c0-3.3,1-6,2.9-8.1s4-3.2,6.2-3.2c3.7,0,8.6,4.2,14.7,12.5
		c10.7,14.4,21.5,23.7,32.6,27.9c11,4.2,22.3,6.3,33.7,6.3c17.9,0,36.2-6.4,54.7-19.1c18.6-12.8,33.2-30.9,44-54.5
		s16.2-51.3,16.2-83c0-10-2.6-23-7.8-38.8c-5.2-15.9-12.6-28.8-22.3-38.7c-9.7-9.9-21-14.9-34.1-14.9c-9.6,0-18.6,2.5-27,7.4
		c-8.4,4.9-13.6,7.4-15.4,7.4c-3.8,0-5.7-2.4-5.7-7.3c0-4.3,1.7-9.4,5.2-15.2l42.8-75.2c1.7-3,2.6-6.3,2.6-9.9
		c0-3.8-1.5-5.6-4.5-5.6h-68c-4.2,0-8.4,3.2-12.6,9.5c-4.2,6.3-7.8,9.5-10.9,9.5c-5.8,0-8.7-7.4-8.7-22.1c0-6.2,0.5-12,1.4-17.4
		c0.9-5.4,1.4-9.3,1.4-11.7c0-11.1,5.2-16.7,15.5-16.7h139.3c12.4,0,18.6,3.1,18.6,9.4c0,2.8-0.7,5.4-2.1,7.7s-6.2,5.5-14.4,9.8
		c-8.2,4.3-14.1,9.9-17.9,16.9L285.5,481.4z"/>
	<path d="M415.9,727.9c6.7,0,12.5,2.7,17.3,8.2s7.3,12.6,7.3,21.2c0,8.9-2.3,15.8-7,20.8s-10.2,7.5-16.6,7.5
		c-5.6,0-11.2-2.9-16.9-8.6c-5.6-5.8-8.4-12.3-8.4-19.7c0-7.9,2.4-14.8,7.3-20.7C403.7,730.8,409.4,727.9,415.9,727.9z"/>
</g>
<path d="M528,409c0,0.6,0,1.3,0,1.9c-1,0.4-1.8,1.1-2.8,0.6c0-0.8-0.2-1.5-0.6-1.9C525.3,408,526.3,408.7,528,409z"/>
<path d="M522.7,413.7c1.1-0.2,1.5,0.4,2.2,0.6c0.3,1.7-0.6,2.3-1.9,2.5C522.5,416.2,522,414.5,522.7,413.7z"/>
<path d="M516.7,435.9c1.2-0.2,1.2,1.5,0,1.3C516.7,436.8,516.7,436.4,516.7,435.9z"/>
<path d="M532.1,521c0,0.7-0.8,0.7-1.6,0.6C530.3,520.5,531.6,520.5,532.1,521z"/>
<path d="M511.4,537.3c0.5,0,1,0,1.6,0c-0.8,0.8-1.9,0.6-1.3,2.2c-0.6,0-0.7,0.4-1.3,0.3C510.8,539,511.2,538.3,511.4,537.3z"/>
<path d="M502.9,546.4c0.2,0.7,0.5-0.4,0.9,0.3c0.1,0.7-1.1,0.1-1.6,0.3c0-0.3,0-0.6,0-0.9c0.3,0,0.6,0,0.9,0
	C503.3,546.3,503.1,546.3,502.9,546.4z"/>
<path d="M576.3,566.4c0.5-0.5,1.6,0,1.6,0.9C577.1,567.3,576.2,567.3,576.3,566.4z"/>
<path d="M516.1,575.5c-0.1,0.4-0.6,0.3-0.9,0.3c0.2,0.3,0.3,0.5,0.3,0.9C513.9,576.8,515.3,574.3,516.1,575.5z"/>
<path d="M517.9,605c-0.2,0.9-0.6,1.7-0.9,2.5c-1.2-0.5,0.9-2.7-0.6-2.5C516.6,603.9,517.5,604.7,517.9,605z"/>
<path d="M519.5,607.2c0,0.1-0.4,1.7-1.3,0.6c-1.3,0,0.2,2.9-1.6,2.5c-0.1-1.5,0.5-2.5,1.3-3.8c0.5,1,1,0.2,2.2,0.3c0,0.5,0,1,0,1.6
	c-0.4-0.1-0.6,0.1-0.6,0.3C518.3,608.4,520.9,607.7,519.5,607.2z"/>
<path d="M582.6,634.5c-0.6-0.1-0.6-0.9-1.6-0.6c0.6-0.3,0.3-1.6,1.3-1.6C581.9,633.7,582.3,633.3,582.6,634.5z"/>
<path d="M587.9,639.2c0.8,0.4,0.6,1.1,0.3,1.9C587.6,640.8,587.4,639.7,587.9,639.2z"/>
<path d="M505.1,647.1c0.9,0.5-0.3,1.4,0,2.2c-0.6,0-0.7-0.4-1.3-0.3C504.2,648.3,505.4,648.4,505.1,647.1z"/>
<path d="M550.3,648.9c-0.3,0.9-0.3,2.2-0.6,3.1c-0.8-1-1.3-0.2-2.8-0.3c0-0.8,0-1.7,0-2.5C547.8,648.6,548.9,648.6,550.3,648.9z"/>
<path d="M502.3,652.1c1,0.3-0.1,1.1-0.3,1.3c0,0.3,0.4,0.2,0.6,0.3C501.4,654.9,501.4,652.3,502.3,652.1z"/>
<path d="M505.1,658.7c0.6-0.1,0.6,0.3,0.3,0.3c0.1,0.4,0.4,0.6,0.9,0.6c-0.5,1.4-0.8-0.3-1.9,0C504.7,659.3,505.2,659.3,505.1,658.7
	z"/>
<path d="M505.1,664.6c-0.5-0.3-0.8-1.1-0.3-1.6c0.6,0.3,0.9,0.8,1.6,0.9C506.1,664.9,505.2,663.4,505.1,664.6z"/>
<path d="M548.7,667.1c0.8,1.4,0.1,2,0.3,3.5c-1.6,0-3.1,0-4.7,0c-0.4-0.8-0.2-2.1-1.3-2.2C543.9,665.9,546.8,668.4,548.7,667.1z"/>
<path d="M580.7,667.1c0,1-1.1,0.8-1.9,0.9C579,667.3,579.5,667.5,580.7,667.1z"/>
<path d="M539.3,671.2c0.8,0.2,1,0.8,1.9,0.9C540.9,672.7,539.1,672.2,539.3,671.2z"/>
<path d="M539.3,676.5c0.4,0.3,0.8,0.4,1.6,0.3c-0.1,0.5-1,0.3-0.6,1.3C539.7,677.8,539.1,677.5,539.3,676.5z"/>
<path d="M506,678.7c-0.7,0.1-0.8-0.2-1.3-0.3c0.2-0.3,0.3-0.5,0.3-0.9C505.5,677.8,506.3,677.7,506,678.7z"/>
<path d="M508.2,678.4c-0.3,0.6-0.9,0.8-0.6,1.9C506,680.5,507,678.2,508.2,678.4z"/>
<path d="M481.2,765.6c0.2,1.6-1.8-0.6-1.9,0.3c-0.5-0.1-1.3-2.1,0-1.9C478.5,765.1,480,765.8,481.2,765.6z"/>
<path d="M488.1,765.6c0.3-0.4,0.4-0.8,0.3-1.6c0.7-0.1,0.8,0.2,1.3,0.3c-0.7,0.1-0.7,1.5,0,0.6c1.1,0.5-0.7,0.5-0.3,1.3
	C488.9,766.1,488.6,765.8,488.1,765.6z"/>
<path d="M496,764.7c1-0.3,0.8-0.1,1.6,0.3c-0.1,0.4-0.6,0.3-0.6,0c-0.3,0.3-0.6,0.6-0.9,0.9C495,765.7,496.3,765.3,496,764.7z"/>
<path d="M507.3,765.3c-0.1,0.5,0.2,0.6,0.6,0.6c-0.6,0.8-1.7,1-2.8,1.3C505.5,766.2,506.5,765.9,507.3,765.3z"/>
<path d="M531.4,344.4c0.7-0.4,0.6-1.7,0.9-2.5c9.2-0.7,11.6,8.1,11.3,16c-0.6,0.5-0.8,1.3-1.6,1.6c-0.2,2.8-0.1,5.2-1.6,7.2
	c2.7,5,12.1,3.2,17.6,3.8c1.3,2.1,4.4,2.9,4.4,6.6c0,2.7,1,6.5,2.2,9.7c1.7,4.6,4.8,8.4,6.6,11.9c1.6,3.2-0.2,7-1.9,9.7
	c-5.8,2-10.2-2.2-15.1-3.1c-3.7,8,1.2,16.8,2.2,24.2c-0.9,7.6,2.3,16.2,3.8,24.2c-0.3-0.1-0.3-0.3-0.6-0.3c0.5,8.8,1,17.6,3.8,24.2
	c1.4-4.9,2.8-9.8,3.5-15.4c1.3,0.4,1-0.7,1.9-0.6c0.7,0.5-0.4,0.8,0.3,0.9c-1.1-2.5-1-5-0.3-9.4c1.2,0.6,2.9,0.6,4.4,0.9
	c-0.5,3.4-1.7,5.7-1.3,9.1c-2.3,5.3-3,12.9-5,19.4c-1,3.3-2.9,6.4-3.1,8.8c-0.8,6.7,2.5,14.1,2.2,22.3c1.5,1.5,1.4,4.4,3.5,5.3
	c-1.8,0.8-3-0.8-5-1.3c0.2-0.3,0.6-0.5,0.9-0.6c-0.3-0.8-0.8-1.5-1.6-1.9c-1,0.5-2.2,0.7-3.1,1.3c-1.1,2.3,1.4,3.2,0.6,5
	c1.4,0,2.7,0,3.5,0.6c-0.3,1.2-1.6,1.5-3.1,1.6c0,0.4,0.1,0.9-0.3,0.9c0,0.7,0.8-0.4,1.6,0c0.2-0.7,2.1-1.6,3.5-2.2
	c-0.1-0.4-0.4-0.6-0.9-0.6c1.3-1,2.5-1.1,3.5-1.9c1.5,0.3,2.6,1.2,3.8,1.9c-0.2,1.2,0.5,1.3,0.3,2.5c0.7,0,1.5,0,2.2,0
	c1.9,3.1,5.4,3.5,4.4,7.8c-0.4,1.6-0.3,4.1,0.3,6.9c0.8,0.8,1.9,1.4,2.2,2.8c-3.2-0.4-2.5-3.8-5.6-5c-0.2,2,0.6,1.1,0.6,1.9
	c-0.9,0.8-1.5-0.8-0.9-1.9c-9.2-0.8-16.1,0-23.8,0c-0.7,0.9,0.4,1.5-0.3,2.2c-1.1,0,0-0.8-1.3-0.9c-0.7,0.2,0.4,0.5-0.3,0.9
	c-4.8,0.2-10.5,0.7-14.1-0.3c-0.9,0,0.7,0.9-0.6,0.6c0.1-1-2.1,0.5-1.3-1.3c-1.2,1-0.9,1.4-3.1,1.3c0.4-1.9-0.2-0.3-1.3,0
	c-2.2,0.6-5.2-1-7.8,0.3c-0.2-0.3-0.3-0.7-0.3-1.3c-0.5,1-2.9,2-3.1,0.3c-2.8,1-2.6-0.7-5.6-0.3c1.5-3,0.2-7.9,0.6-12.5
	c3.2,0.1,7.1-0.2,9.4,0c1.9-2.3,5.2-3.2,9.4-3.1c0.5-1.4-0.8-2.4,0.9-3.8c-1-0.5-2.1-0.3-2.5,0.6c-0.7-1.3,1.9-2.4,3.5-1.6
	c-0.3-0.8-1.8-0.3-1.6-1.6c1-0.4,0.8,0.5,1.3,0.6c0.5-0.4,0.5-1.2,0.9-1.6c0.1-0.8-0.5-1-0.9-1.3c-1.3-0.1-0.7,1.8-1.9,1.9
	c-1.2-10.9-6.6-21-5-32.6c-2.6-0.6-5.8,0.8-9.1,0.6c1.2-7.4-1-14.8-2.2-20.7c-0.7,0.1-1.2,0.5-2.2,0.3c-0.5-0.5-0.3-1.6-0.3-2.5
	c-6.4,6.2-11.7,13.4-22,15.7c-0.7-0.5-1.9-2.1-1.6-2.5c1.3-2.2,4-1.3,6-1.9c8.1-2.3,13.2-9.5,17.9-15.4c-1-0.1-1.5,0.4-1.6,1.3
	c-1-0.6-1.2-1.9-1.9-2.8c0.3-0.6,0.4-1.3,0.9-1.6c0.2-1.7-2.2-2-1.3-3.5c0.2,0,0.4,0,0.6,0c1.5-0.3-0.2,1,0.6,0.9
	c1.1,0.1,0.5-1.4,0.9-1.9c0.7,0,1.5,0,2.2,0c0.1-1-1-0.7-1.6-0.9c0.2-1.8,0.6-2.8-0.6-3.1c0-0.7,0-1.5,0-2.2c1.1-0.1,1.5-0.5,2.5,0
	c-0.3-0.5-1-0.7-1.9-0.6c0-4.6,0.1-7.5-0.6-11c0-1.5,0.5,0.3,1.3,0c0.3-1-0.4-1-1.3-0.9c0.2-1.6-0.4-2.3-0.3-3.8
	c1-0.1,1.2,1,1.9,0.3c-0.3-0.6-1.4-0.5-0.6-1.3c-0.5-0.1-0.6,0.2-0.6,0.6c-0.6-0.3-0.7-1.2-0.6-2.2c0.5,0,1,0,1.6,0
	c0-0.6-0.4-0.7-0.3-1.3c0.1-1-0.9,0.8-0.9-0.3c0-2.3,2.2-1.8,3.5-2.2c-0.4-0.8-2-0.5-2.5-1.3c-1.1,0.2,1.4,1,0.3,1.3
	c-2.5-0.6-0.7-4,0.6-3.8c-0.9-2-0.9-4.5-0.6-6.3c0.4-3.1,1.2-6.3,2.8-8.5c0.1-2,0.4-3-0.6-4.4c-0.3,1.2-0.5,1.3-0.9,2.8
	c-0.8-3.3-1.3-5.4-1.3-9.1c-0.4-0.1-1.3-0.3-1.9-0.9c-0.4-1.8,0.2-3.5,0.9-5c0.4,0.1,0.3,0.6,0.3,0.9c0.7-1.4,0.1-3.3,2.8-4.4
	c-1.7,1.5-1.7,3.1-1.9,5.6c0.9-1.8,1.4-4,2.2-6c2.4,0,3.1-1.7,5-2.2c0-4.1,4.5-3.6,6.3-6c-1.4-1.5,0.4-2,0.3-3.8
	c1.4,0.4,0.3,3.9,2.5,3.1c-0.4,0.9-0.1,1.1,0.3,1.9c0.9,0.1-0.3-1.9,0.6-1.9c-3-0.9-1.2-4.9-3.8-6c-0.5,0.2,0.8,1.2,0.3,2.5
	c-2.2-0.3-3-2-4.4-3.1c-0.1-0.5,0.2-0.6,0.6-0.6c-0.9-0.4-1.4-1.3-2.2-1.9c2.2-2.9-1.4-3.6-1.3-6.9c1.6,0.3,3.4-0.7,4.4-1.9
	c-0.3-0.7-0.8,0.9-1.9,0.3c0.5-2.4,2.3-2.6,3.1-4.1c0.8,2-0.5,3.4-0.9,6.3c0.5-1.4,3,1.9,4.1,2.8c1-1.1,0-2.2,0.6-3.5
	c0.9,0.1,1.6-0.1,1.9-0.6c0.8,0.4,1,1,0.6,1.9c1.2-0.4,1.8-1.3,3.1-1.6c-0.7-0.7-0.5-2.3-1.3-2.8c-0.8,1.4-2.2,2.2-3.8,2.8
	c-1,0.1-0.7-1.2-1.6-1.3c0.1,0.4-0.1,0.6-0.3,0.6c-1.2,0.4,1.8,0.9,0.6,1.3c-1.2-0.3-1.7-1.2-2.8-1.6c0.4-3.7,5.2-2,6.6-4.1
	c-0.1-0.5-0.4,0.1-0.9,0c-0.1-0.7,0.9-0.3,0.9-0.9c0.2-1.2-1.7-0.2-1.3-1.6c1.5,1.2,0.3-1.6,2.2-1.6c-3.1-1.5-7.9,0-8.8,2.8
	c-1.6,0.4-0.3-2.2-1.6-2.2c1-1,1.7-2.3,3.1-2.8c0.1-0.7-0.4-0.6-0.9-0.6c0.3-0.9,1.3-0.4,1.9-0.3c-0.2-1.6,1.4,0.3,1.3-1.9
	C530.2,342.9,531.7,341.3,531.4,344.4z M534.3,352.2c-0.3-0.9,0.5-2.2,0-2.2C533.7,350,533,352.3,534.3,352.2z M534.9,350.9
	c-0.1,0.8,0.5,1,0.9,1.3c-0.3-1-0.1-0.8,0.3-1.6C535.6,350.6,535.2,350.7,534.9,350.9z M530.8,361c1.1-0.7,3.7,0.2,3.1-2.2
	C531.9,358.3,530.6,360.3,530.8,361z M524.8,360.7c0.1-0.9,0-1.7-0.9-1.6C523.8,360,523.9,360.8,524.8,360.7z M525.5,361
	c0.4,0,0.7,0.1,0.9,0.3c-0.2-0.6,0.5-2.2-0.6-1.9C525.9,360.2,525.2,360.1,525.5,361z M530.5,364.1c1.5,1.4,3.1-0.3,4.1-1.3
	c-0.7-0.7-1.4,0.4-1.9-0.6c0.2-0.3,1.6-1.4,0.3-1.3C531.6,361.5,530.5,362.3,530.5,364.1z M523.6,363.2c1,0.3,2.6-0.5,1.6-1.3
	C525.3,363,523.3,361.9,523.6,363.2z M530.5,370.4c0.9,0.4,1.3-1.3,0.6-1.6C531,369.4,530.2,369.4,530.5,370.4z M539.6,371.6
	c2,0.1,3.5-0.3,4.1-1.6C542.1,370.4,540.3,370.4,539.6,371.6z M554.6,372c-0.2,0-0.4,0-0.6,0c0.1-0.4,0.4-0.6,0.3-1.3
	C552.8,370.6,554.1,374,554.6,372z M535.5,372.9c0.3-0.8,1.2-1.1,1.6-1.9C536.1,371,535,372.5,535.5,372.9z M546.2,373.2
	c-0.5-0.7-1.6-0.6-2.2-0.3c2.1,1.7,5.1,1.9,8.2,1.9c-0.4-1.6,0.8-1.5,0.6-2.8c-1,0.4-2.3,0.4-3.1,0.9c0.2,0.3,1.3,1.2,0.6,1.3
	c-0.9-0.4-2.3-3.4-2.5-2.5C548.5,372.2,546.3,372.5,546.2,373.2z M542.1,376c-1.2-1.3,0.1-2.2,0.3-3.1c-0.6,0-1.3,0-1.9,0
	c-0.3,3-1.7,5-3.8,6.3c1,0.4,1.3-0.2,2.2,0.6c-0.5,1.2-0.5,0.4,0,1.6c-0.5,0-2.6-0.1-1.6,0.3c2,0-0.3,1.5-0.9,0.3
	c0.8,1.7-1,2.8-0.6,3.8c0.2-0.4,0.7-0.6,1.3-0.6c-0.4,1.4,1.9,0,1.9,0.9c0.4,2.3-3.3,0.5-2.8,2.8c3.3,0.6,3.5-1.9,4.7-3.5
	c3-0.1,2.6-3.5,4.1-5c0.8-0.1-0.3,1.8,0.9,1.3c0.1-2,0.3-4.1,0.6-6c-1.1,0.4-2.1,0.8-3.8,0.6c-0.7,2-1.7,3.7-2.2,6
	c0.9,0,0.8,2,0.3,2.8c-0.6-0.2-1.3-0.2-1.6-0.6c1.4-3.4-0.6-7.1,2.5-8.5C541.8,376.2,542,376.4,542.1,376z M533.6,376.3
	c0.2-0.7,0.9-0.9,1.6-1.3c-0.2-0.6,0.4-1.8-0.3-1.9C534.9,374.5,532.7,375.2,533.6,376.3z M534.6,378.2c1.1,0.3,0.7-2.4,0.3-2.5
	C535,376.8,534.8,377.5,534.6,378.2z M551.5,379.8c1-0.2,0.9,0.5,1.9,0.3c0.1-0.4,0.3-0.5,0.6-0.6c-0.1-1-0.2-1.9-1.3-1.9
	c0.1,0.7-0.1,1.2-0.6,1.3c0.1-1.1-0.6-1.5-0.6-2.5c-0.5,0-1-0.1-1.3-0.3c-0.3,0.4-0.3,1.2-0.9,1.3c-1.1-1.1-2.1-0.2-2.5-1.3
	c0.2,1-0.3,1.1-0.3,1.9C548.7,378.5,551.4,378.9,551.5,379.8z M527.4,388c0.5-1,0.9,0.8,0.9,1.3c2.4-0.4,1.9-1.7,1.6-3.5
	c0-0.2-1.2-3.8-2.5-3.1c-1-2-2.7-5-5-4.7c0.5,0.8-0.5,0.5-0.6-0.3c-0.1,1.4,0.4,2.3,1.3,2.8c-0.9,1.7-2.1,3.1-2.8,5
	c1.8-0.1,2.6,0.7,3.1,1.9c-1.9-0.8-3.6-2.5-5-2.8c0.9-1.5,3.3-1.5,2.8-4.4c-5.6,2.9-7.8,9.6-5.6,16.6c0.6-0.2-0.1-1.8,0.6-1.9
	c1.4,0.7,1.8-0.5,2.8-0.9c0.2,0.5-0.4,1.6,0.3,1.6c0.8-1.9,2.1,1.4,3.5-0.3c0.9,0,0.6,1.3,0.6,2.2c-1.4,0.6-2.3-0.5-4.7-0.3
	c-0.5,4.3,3.9,2.5,6.3,4.1c-1.9,0.9-5.4,0.3-5.3,3.1c1.7,0-0.6,2.1,0.6,2.5c0.6-0.4,1.2-0.9,0.9-2.2c0.6,0.1,0.7-0.4,1.3-0.3
	c1.8,2.3-5.2,5.4-1.3,6.9c-2.9,3.1-2.2,10.3-3.8,14.1c0.5-1.1,6.7-6,3.5-3.8c-0.2-0.6-0.5-1.1-0.6-1.9c0.7-1.6,2.8,0.1,3.1,0
	c2-0.6,2.3-3.3,4.1-4.4c0,0.4-0.5,0.5,0,0.6c0.5-0.6,1.3-0.8,1.6-1.6c-1-2.2,2.6-4.1,1.9-6c-1,1.5-1.6,3.4-2.8,4.7
	c0.1-0.8-0.6-0.7-0.3-1.6c2,0.6,1.7-3.9,0.3-4.7c-0.3,1.3-0.9,0.5-2.2,0.9c-0.3-2.2,0.1-3.8,1.3-4.7c0.1,0.9,1.5,2,1.9,1.6
	c-1.2-0.7-1.8-2-2.8-2.8c-0.2,1-0.5,2-1.9,1.9c1.8-2.1,1.7-6.2,6-6c0.5-1.2-0.9-0.6-0.6-1.6c0.6,0,0.4,0.9,1.3,0.6
	c0.2-0.4,0.3-0.7,0.6-0.9c-2-2.9-4.2-5.5-7.8-6c0.9,0.3,0.8-0.4,1.6-0.3c0-1-1.9-1.6-1.3-2.2c1.5,1.5,2.9,3.2,5,4.1
	c0-1.2-0.4-0.9,0-1.9c-1.2-0.3-1,0.7-1.6,0.9c-1.5-1.8,0-3.7-0.6-5.3c-0.3,0.5-1.1,2-1.6,1.3c0.5-0.9,1.3-3,2.2-2.5
	C527,384.8,527.4,387.3,527.4,388z M526.7,379.2c0.1-0.2,0-0.6,0.3-0.6c0.3,0.9-0.4,0.8-0.3,1.6c0.3,0,0.6,0,0.9,0
	c-1.3-1.8,1.6-0.7,1.6-2.2C528,378,525.2,377.4,526.7,379.2z M528,381.7c1.2,0.1,1.7-0.6,1.6-1.9C528.3,379.7,527.9,380.4,528,381.7
	z M530.8,383.9c0.9-0.5-1.4-2.6-1.6-0.9c0.4,0,0.7-0.1,0.9-0.3C530.2,383.2,530.4,383.7,530.8,383.9z M533,383.6c0.6,0,1.3,0,1.9,0
	c-0.2,0.2-0.7,1.5,0,1.6C535.9,382.2,534.5,382.1,533,383.6z M545.9,387.3c1.1-0.2,1.1,0.5,1.3,1.3c-1.3,0.5-1.5,0.6-2.8,0.3
	c0.9,1.4,1.1,3.5,2.5,4.4c0.2-1,1.4-2.2,2.5-1.3c0.1-1-0.7-1-1.6-0.9c-0.6,0-0.2,1-0.9,0.9c-1.2-1.5,0.2-2.3,1.3-3.1
	c0.3-1.7-1.3-2.1,0-3.1C547.1,385.4,545.5,385.5,545.9,387.3z M529.2,390.1c2.1-0.2-0.7,1.6,1.3,0.6c0.6,1.2-1.5,1.2-0.6,1.6
	c1-1,1.1,0.7,2.2,0.6c-0.2-0.6,0.9-1.3,0-1.6c-0.1,0.3-0.6-1.9-1.6-2.5c0.4,0,0.7-0.1,0.6-0.6C530.2,388.6,529.9,389.5,529.2,390.1z
	 M536.5,390.5c0,1,0.8,1.1,1.6,1.3c-0.3-1.7,1.3,0.1,0.9-1.9C537.7,389.6,537.9,390.8,536.5,390.5z M551.5,398.9
	c-0.3-2.4,2.7-4.8,1.3-6.3C552.3,394.5,550.8,397,551.5,398.9z M554,391.1c-0.7-0.4-1.6-1.4-2.5-0.6c-0.5,1.4,1.7,1.1,0.6,2.2
	C553.2,392.5,553.5,391.7,554,391.1z M530.5,397.4c1.9-0.5,6.3-0.1,6-1.9C534.8,396.5,532,396.3,530.5,397.4z M549.3,401.4
	c1-0.2,1.3-1.2,1.9-1.9C550,399.7,549.8,400.6,549.3,401.4z M531.7,400.8c-0.3,1.2,0.8,0.9,0.6,1.9c-1.1,0.9-1.5,0.5-2.2,0.6
	c0.7,0.2-0.8,0.8-0.9,1.3c0.9-0.2,0.6,0.6,1.3,0.6c0.9-0.6,1.6-1.5,2.8-1.9c0,0.3,0.3,0.4,0.3,0.6c-0.7,0.4-1.2,0.9-1.6,1.6
	c1.6,0.1,0,0.3,0.6,1.3c0.1-1.1,1.2,0.8,1.3-0.3c-0.4,0-0.7-0.1-0.6-0.6c1.1-0.2,1.4,0.3,1.6,0.9c0.6,0.1,1.6-0.8,0.9-0.9
	C534.4,405.5,533.5,401.9,531.7,400.8z M535.2,404c0.4-1.5,0.3-2.4,0.6-3.5c-1.3,0.1-1.7-0.6-3.1-0.3C533,402,533.9,403.1,535.2,404
	z M529.6,403.3c0.5-0.8,1.9-0.8,1.6-2.5c-1,0-1.4,1.1-2.2,0.3c0.1,1-0.8,0.8-0.9,1.6c0.6-0.1,0.7,0.4,1.3,0.3c0-0.5,0-1.1,0.6-0.9
	C530,402.6,528.9,404.1,529.6,403.3z M548.7,405.8c1.1,0,1.6-1.1,0.6-1.6C549.2,404.9,548.6,405.1,548.7,405.8z M533.9,410.5
	c0-0.5,0.2-0.8,0.6-0.9c0.1,0.2,0.3,0.4,0.6,0.3c-0.1-1.1-1-1.3-1.9-1.6C533.4,409.2,533.5,410.1,533.9,410.5z M521.7,422.8
	c1.3,0.4,0,1.8,0.6,2.5c-0.6,0.3-1.7,0.2-1.3,1.6c0.7-0.5,2.3-1.3,1.6-2.2c2.2-1,3.4-3.1,4.4-5.3c-1.6,0.7-1.6-1.9-2.2-0.3
	C525.8,419.8,522.4,421.5,521.7,422.8z M528,419.9c1.1-2.2,2.7-4,4.1-6c-2.3,1.2-3.7,3.2-5.6,4.7C527.4,418.6,527.1,419.9,528,419.9
	z M528.9,424.3c1.1-0.3,1.5-1.4,2.2-2.2C529.9,422.4,529.5,423.4,528.9,424.3z M520.8,432.5c0.4,0.4,2.5,0.6,2.8,0
	c-0.5-0.1-0.3-0.8-0.3-1.3c2.3-1.7,5.3-2.6,6.3-5.6c-0.8-0.2-1.1-0.4-1.6,0.3c0.5,0.1,1.2-0.1,1.3,0.3
	C525.3,427.2,523.3,430.1,520.8,432.5z M517,425.9c0.2,2.5-2,4.3-1.9,5.6c1-0.8,0.9-2.6,2.2-3.1c-0.7,3.8-1,6.1-1.3,10.4
	c1-0.4,0.8-2.1,1.6-0.3c0.2-2.6,2.3-4.7,1.9-6.9c0.3,0,0.4,0.3,0.6,0.3c0.1-0.6-0.4-0.6-0.6-0.9c0.9,0,1.3-1.2,0.6-1.9
	c-2,0-0.7,3.2-2.5,3.5c0-2.4,1-4.3,3.1-5.6c-0.7,0.1-1.3,0.4-1.9,0.6C518.4,426.8,518,426,517,425.9z M523.3,436.6
	c0.7-0.2,1.5-0.4,1.6-1.3c-0.5,0-1-0.1-1.3-0.3C523.9,435.9,523.1,435.8,523.3,436.6z M549.3,445.7c-0.1,0.5,0.4,0.8,0.6,0.3
	c-0.5-0.1-0.2-0.7,0-0.9c-1.6,0.3-2.4,1.9-1.3,2.5c-0.4,0-0.4,0.4-0.9,0.3c-0.2-1.2-1-2.4,0-3.1c-1.6-0.3,0-0.7-1.3-1.9
	c0.6-0.7,1.2-1.3,1.6-2.2c-1.1,0.4-1.5,1.4-2.2,2.2c0-0.5,0-1.1-0.6-0.9c-0.3,0.6,0.9,1,0,1.3c-1.5-0.5-2.4,2.1-4.7,1.9
	c0,0.4-0.1,0.7-0.3,0.9c1.3,1,4.2-0.2,4.7,2.2c-1.2,0-0.9-0.4-1.9,0c0.6,1.1-0.4,1.2-0.6,2.2c1.1,0.4,1.4,1.6,2.5,1.9
	c-1.1-0.3-0.5,1-0.3,1.3c-1.2-0.2-1.2,1.6-2.2,0.6c0,1.3,2.1,0.4,2.5,1.3c-0.6,0.2,0.1,0.3,0.3,0.6c-0.4,0.4-1.5,0.4-1.9,0
	c0.3,1.2,1,0.8,0.9,1.9c1.1-0.2,2.4,1.1,1.6,1.9c-0.5-0.1-0.9-2-1.3-1.3c0.8,1,0.4,1.1,0,2.2c0.6,1.4,2.7,1.3,2.8,3.1
	c-0.4-0.1-0.5-0.4-0.9,0c0.1,1.5,2,5.4,0.6,6c0.3,1.3,2,1.3,1.9,3.1c1.4,0.2,0.9-2.6,1.9-0.9c-0.4-1.6,0.7-0.9,0.9-1.3
	c-0.7-0.8-1.4-1.5-2.2-2.2c0-0.4,0-0.8,0-1.3c1.8,0.5,1.2-1.3,2.2-1.6c0.1-0.8-1.1-1.8-0.3-2.2c0.1,0.8,0.6,1.3,1.3,1.6
	c0.7,1.2-0.1,2,0,3.5c1.5-0.3,0.5,1.5,0.9,1.6c0.8-0.9,0.5-1.6,1.9-1.6c0.8-2.1-1-5.5-1.3-3.5c-0.2,0-0.4,0-0.6,0
	c0.1-2.2-0.2-4-1.6-4.7c0.6,0,0.2-1.1,0.6-1.3c-1.5-0.5-1.2-3.5-1.3-6.9c-0.5-0.7-0.8,0.4-0.9-0.3c0.6-0.2-0.1-0.3-0.3-0.6
	c0.4,0,0.9,0.1,0.9-0.3c-0.8,0-0.1-1.1,0-1.3c-1.2-0.1-0.7,2.8-2.2,0.9c2.1,0-0.9-0.6,0-2.2c0.4,0,0.4,0.4,0.9,0.3
	c0.5-1.1-1.1-0.2-0.9-0.9c0.1-0.4,1.7-0.8,0.6-1.3c-0.1,0.4-0.3,0.5-0.6,0.6C549.2,446.3,548.3,446,549.3,445.7z M515.4,453.2
	c0.2-3.2,2-6.5,1.3-9.7C516.3,446.5,514.8,450.1,515.4,453.2z M515.1,462.3c1,0.4,0.8-2.1,0.3-2.2
	C515,460.5,515.1,461.5,515.1,462.3z M549.3,477.4c0.8-0.1,1.1-0.8,1.3-1.6c-0.3,0-0.6,0-0.9,0C549.9,476.7,549.2,476.6,549.3,477.4
	z M542.4,516.9c-0.4,1.1-0.7,2.2-0.6,3.8c1.5,0-0.2-3.1,1.6-2.8c0.4,0.9,0.1,1.1,0.3,2.5c4.4-4.9,7.5-11.1,10.7-17.3
	c-2.6-6-5.3-12.1-5.3-20.7c0.4-0.5,1.2-0.5,1.6-0.9c-4,0.2-7.8,0.6-11.6,0.9c0.2,3.4,2.2,8.1,1.6,11.9c-1.1,6.6,0.6,17.1,0.6,21
	c0-0.2-1-1-0.9-0.3C540.9,515.6,542.3,515.7,542.4,516.9z M558.4,508.7c-1.5-0.5-2.3,2-3.8,2.5c-1.5,5.2-5.6,7.8-7.2,12.9
	c1.5-0.3-0.2,1,0.6,0.9c2.2-0.1,6.3-0.5,9.7-0.3c-0.6-4.9-0.9-9.1-0.9-13.2c1.4-1,3.1-4.6,1.9-5.3c0.3-0.1,0.8-0.5,0.3-0.6
	C557.6,506.5,558.9,507.4,558.4,508.7z M560.6,507.8c1,0.3,0.4-1,0.9-1.3c-0.4,0-0.7-0.1-0.9-0.3
	C560.6,506.7,560.6,507.3,560.6,507.8z M559.4,514.1c-0.1,0.7-1.4,1.7-0.6,2.2c0.9-1.4,0.1,0.3,0.6,0.6c1-1.8,3.1-2.6,5-3.5
	c-0.9-0.2-0.8-1.3-1.9-1.3C560.8,512.7,560.8,514.7,559.4,514.1z M535.8,524.1c0.6,0.2,1.2,1,1.9,0.3
	C537,522.6,536.6,524.2,535.8,524.1z"/>
<path d="M531.1,347.2c0.4,1.4-1.9,0-1.9,0.9C528.5,347.7,530,346.9,531.1,347.2z"/>
<path d="M520.1,356.3c-1.6-0.7,0.3-1.8,0-3.1c1.9-0.2,2.5-2.6,4.4-1.9c-1.4,0.7-1.2,3-2.8,3.5c0-0.5,0-1,0-1.6
	c-1,0.6,0.2,1.6-0.9,1.9c0.1,0.6,1.2,0.2,0.9,1.3C521,356.3,520.2,354.2,520.1,356.3z"/>
<path d="M524.5,373.2c0.4,0.6-0.9,2.1-1.9,2.2C523,374.4,523.9,374,524.5,373.2z"/>
<path d="M523.9,382c-0.3,1.2-0.7,2.2-1.9,2.5C522.1,384.3,523.1,382.5,523.9,382z"/>
<path d="M524.8,396.1c1.9,0.3,2.6-1.1,1.9-2.5c1.3-0.1,1,1.5,1.9,1.9C527.9,396.4,523.9,399.1,524.8,396.1z"/>
<path d="M560.9,454.5c1.1,1.5,4.6,3.3,4.4,7.5C563.2,460.1,562,457.4,560.9,454.5z"/>
<path d="M534.3,578c1-0.6-0.5-1.3,1.6-0.6c-0.8-0.7-2.1-0.8-2.8-1.6c-0.3-0.6,0.9-1,0-1.3c0.9-1.7,5.3,0.5,6.3-2.5
	c1.5-0.6,1.3,0.6,3.1,0.3c0.6,0.6-0.4,0.9,0.3,1.6c3.1,0.3,6.1-2.1,7.8-0.3c0.3-0.1,0.3-0.3,0.6-0.3c0.5-0.1-0.1-0.4,0-0.9
	c0.8,0,1.3-0.2,1.6-0.6c0.9,1.5,2.7,0,3.8-0.9c1.2,1.6,2.8-0.9,3.8-1.6c0.9-0.1,1,0.7,1.9,0.6c-0.1-1,0.9-2.6,3.1-2.2
	c-0.7-1.6,0.6,0.1,0.3-1.9c-1.6,0.3-1,0-1.9-1.3c-0.6,0.4,0.4,1.4-0.3,2.2c-0.6-0.3-1-1-1.3,0c-0.7,0.1-0.1-1.1-0.3-1.6
	c-0.5,0.3-0.7,0.8-0.6,1.6c-0.4-0.3-0.8-0.4-1.6-0.3c0-0.8,1.2-0.5,1.6-0.9c-0.1,0-1.7-0.4-1.9,0c-0.8-0.3,0.7-0.8,0.9-0.9
	c-1.4-0.3-1.9-0.8-1.6,0.3c-0.7,0.6-0.3-0.1-0.9-0.3c-0.5,0.1,0.1,0.4,0,0.9c-0.4-0.4-0.6-0.3-0.6,0.3c-0.8-0.5-0.5-1,0-1.6
	c-1.4,0.8-0.6,2.3-0.3,3.5c-0.4,0.6-0.8-1.3-1.3-1.6c-0.6,0.2-0.7,1-1.3,1.3c0.3-0.6-4.4-1.2-2.8-1.9c-0.5-0.9-1.5-0.1-1.9-1.6
	c-0.3,0.1-0.2,0.6-0.6,0.6c0.8,0.2-0.1,0.3-0.9,0.3c-1,1.1-4.4,1.5-4.4,0.9c-0.6-0.6-1.7,0.8-2.8,0.6c0.7-0.7-0.2-0.9,0-1.9
	c-0.5-0.1-0.5,0.3-0.9,0.3c0.3,0.3-2.2,0.2-0.6,0.3c-0.3-0.6-2.2,0.7-2.2-0.9c-0.7,0.7-2.7,0.7-3.1,0c-0.9-0.2-1.2,0.1-1.9,0
	c-0.6-0.1-1.2,0.8-1.3,0.3c-0.4,1.7-0.7,0.2-1.6-0.6c-0.3,0.3-0.4,1.1-0.6,1.6c-0.7-0.7-0.6-1.2-1.6,0.3c-0.4-0.1-0.3-0.8-0.3-1.3
	c-1.3,0.9-1.5-0.1-3.1-0.3c0.9,1.1-5.1-0.3-5.3-0.3c-0.4,0.3-1.6-0.9-3.5-0.6c0.1,0.5-4.7,1.4-4.7,0.9c-0.2,0.5-1.5,0-1.6,0.6
	c0.5-5.9-6.1-9.4-11.6-11.3c15.7-1.2,32.2-0.6,47.4-0.9c0.5-0.3,1.2-0.7,0.6-1.3c-0.4,0.1-0.3,0.6-0.3,0.9c-0.7-0.2-0.7-0.5-0.3-0.9
	c-1.2-0.3-2,0.8-2.2-0.3c-0.4,0.1-9.3,0.6-10.4,0.3c-0.5,0.1-4.8,0.1-5.3-0.3c-0.9-0.1-5.3,0.9-6.6,0.3c-0.5,0.1-6.8-0.2-8.2,0.3
	c-1.4-0.8-3.4,1.7-3.8-0.3c-0.2,0.5-1.6,0.9-2.2,0.9c0.1-0.3-2.5-0.6-3.5-0.9c-0.7,0.1-0.9,0.6-0.9,0c-0.6,0.4-1.9,0.7-1.9,0.3
	c-0.3-0.5-0.8-0.7-1.3-0.3c-0.5,0.1,0.1,0.4,0,0.9c-0.6,0-0.4-0.9-1.3-0.6c0.3-2-0.4-3-1.6-3.5c3.8-1.2,4.9-0.1,9.4-0.6
	c1-0.2,0.4-0.8,0.3-1.6c8.6,0.2,16.1-0.4,23.8-0.3c-0.1,0.5-0.9,0.1-0.9,0.6c0.4,0.9,1.6,0,1.6-0.6c19.1-0.3,41-0.8,60.5-0.6
	c1,2.3,7.9,4,7.2,7.2c0.1-0.5-1.7,4.9-1.9,5c-1.3,1-2.9-0.1-4.7,0.3c-1.8,2.3-5,3.2-4.7,7.5c-0.4,0.4-0.5,0.1-0.9,0
	c0.7,3.1,0.6,11.6-0.3,16c-1.8-1.2-3.2-1.5-5-3.1c-16.2,1.1-34.1-0.2-51.8,0.6c-6.2,0.3-13,1-18.8-0.3
	C511.2,578.5,533.8,577,534.3,578z M554.3,565.8c-0.5-1.2,1.4-0.1,0.9-1.3c-0.5,0-1-0.1-1.3-0.3C553.9,565,553.6,565.3,554.3,565.8z
	 M567.2,551.7c-0.7,0.1-1.2-1.7-1.9-0.6c0.7,0.3-0.9-0.1-0.9,0.9c-0.6,0-0.4-0.9-1.3-0.6c0,0.4-0.1,0.7-0.3,0.9
	c0.6,0.1,0.6-0.4,0.9-0.6C564.4,553,566.2,551.6,567.2,551.7z M583.8,552c0.9-0.1,2.2,0.3,2.2-0.6c-1,0.9-1.6-0.8-2.2,0
	C584.2,551.4,584,551.7,583.8,552z M588.2,551.7c-0.4,0-0.3-0.5-0.6-0.6c0.1,1.3-0.8,0-1.3,0C585.7,552.4,588,552.2,588.2,551.7z
	 M583.2,552.3c-0.9-1.3-2.6-0.8-3.8-0.3C581.2,552.2,581.9,551.8,583.2,552.3z M575.3,566.8c-2.1,0.4,0.2,1.5,0.9,2.2
	c0.2,0.2-0.7,0.8,0.3,0.6c-0.8-1.5,2.8-0.3,2.8-1.9c-0.8-0.4-1,1.2-1.3,0.3c0.2-1.2-0.4-1.5-0.3-2.5c-0.5,0-1,0-1.6,0
	c-0.1,1.1-0.6,1.7-0.9,2.5C575,567.5,575,567.2,575.3,566.8z M576.3,572.1c0.4,0.1,0.5,0.5,0.9,0.6c0-0.8,0.2-1.8-0.6-1.9
	C576.9,571.8,576.9,571.5,576.3,572.1z M577.5,570.8c0,0.6,0.2,1,0.6,1.3c0.1-0.7,0.8,0.4,1.3,0.3c-0.1-0.5,0.5-0.8,0-0.9
	C579,572.3,578.1,571,577.5,570.8z M578.2,575.5c0.5-0.2,1.7-2.4,0.9-1.9C578.9,574.2,577.5,575.1,578.2,575.5z M576.3,577.1
	c0.8,0,1.8-1.3,0.9-1.9c-0.5,0.1-2.1,1.5-1.3,0.9c0.5-0.4,0.8-0.3,0.9,0.3C576.6,576.5,576.4,576.8,576.3,577.1z M556.8,576.8
	c0.5,0.5,2,1.7,2.5,0.3c-3.3-1-5.2-1.5-7.2,0.6c1.5-0.9,1.4-0.2,2.2,0.3c-0.3-1.2,0.7-1.2,1.3-1.6
	C555.7,577.8,557,577.9,556.8,576.8z M548.1,577.1c0.7,1.3,2.3,0,3.5,0.3c0-0.4,0.1-0.9-0.3-0.9
	C550.8,577.2,549.2,577.3,548.1,577.1z M537.4,578c1.4-0.8,3.1-0.4,5,0c-1-1.9-4.6-0.9-6.3-0.9C536.7,577.2,536.4,578.3,537.4,578z
	 M544.3,577.7c-0.4-0.1-0.2-0.3,0-0.6c-0.4,0-0.7-0.1-0.9-0.3C542.1,577,543.7,578.6,544.3,577.7z M546.5,577.7
	c-0.2,0-0.4,0-0.3,0.3c0.7-0.1,1.4-0.3,1.6-0.9c-0.8,0-1.5,0-1.9-0.3C545.8,577.4,546.3,577.4,546.5,577.7z"/>
<path d="M528.6,576.5c-0.2-0.4-1.3-1.6-1.9-0.6c-0.8-1,0.5-0.7,1.3-0.9C527.7,576.1,529.5,575.6,528.6,576.5z"/>
<path d="M536.1,567.1c-0.4-0.1-0.3-0.6-0.3-0.9c0.9,0.1,1.5,0.3,1.9,0C539,567.5,535.5,565.8,536.1,567.1z"/>
<path d="M532.1,576.2c0.9-0.2,0.6,0.6,1.3,0.6c1,1-1.9-1-0.9,0c-0.1,0.4-0.8,0.3-1.3,0.3C530.6,576,532.2,576.9,532.1,576.2z"/>
<path d="M570.6,581.8c-2.1,0.7-4.1,1.3-5.6,0c-1.3,1.1-4.3-0.4-6.6,1.3c0-0.9-0.5-0.6,0-1.3c-1,0-3.5,1.3-3.1,0
	c-5.9,1.8-8.3-0.8-13.8,1.6c0.8-1.3-1.6,0.4-1.6-1.3c-0.9,0.7-2.8,0.5-3.5,0.6c-1,0.2-1.8,1-1.9-0.3c-7.3,0.3-13.8,0.4-20.7,0
	c-0.4,0.1-0.3,0.6-0.3,0.9c-1.1-1.6-4.7,0.3-5.6-1.9c21.2-1.8,47.3,0,69-1.6c2.6-0.2,5.6,1.8,7.8,3.1c0.2,1-0.2,1.5-0.3,2.2
	c-1.6-1.2-3.5-2.1-5-3.5c-0.7-0.2-0.4,0.6-0.9,0.6c-1.4-1-3.6,0.9-2.8,0C573.5,581.2,572.2,583.5,570.6,581.8z"/>
<path d="M522.7,598.1"/>
<path d="M520.1,604.4c-0.7,0.8,0.6,1.8,0,2.2C519.6,606.8,519.1,604.4,520.1,604.4z"/>
<path d="M582.6,626.7c1.5,0.1,0.1,1.9,1.9,2.2c-1.4,0.8-0.3,1.7,0,2.8c-1.4-0.2,0.8,4.9-0.3,5c0.3,0.6,0.5,1.3,1.3,1.6
	c-1.5,0.2,0.9,2-0.3,3.8c0.5,0.3,1.3,1.8,1.6,1.3c1.2,0.9-2.1,1.2-0.9,0.3c-0.5-0.1-0.6,0.2-0.6,0.6c0.3,0.5,1.3,0.3,1.9,0.6
	c-0.1,0.7-1.4,0.2-1.6,0c1,1,0.6,0.4,0.3,1.9c1.6-1.3-0.2,1.1,0.9,1.6c0.2-0.5,0.6-1.9-0.3-2.2c0.3-0.8,1.4-0.5,2.2-0.3
	c0.2-0.1,0.6-1.1-0.3-0.9c-0.4,0.4-0.1,0,0-0.3c1.7-0.1-0.1,1.3,1.6,0.9c-0.5,1.5-2.6-0.1-2.5,1.6c0.3,0,0.2-0.4,0.3-0.6
	c0.6-0.1,0.6,1.8-0.3,1.3c0.3,0.4,0.8,0.6,1.3,0.9c-0.5-0.8,0.4-1.1-0.3-1.6c-0.2-0.4,1.4,0,1.6,0.3c0.1,1.2-0.3,0.1-0.9,0.3
	c0.5,0.7,1.3,0.6,1.6,0.3c1-0.3-1.4,1.3-0.3,1.6c-0.7,0.3-0.9,0.2-1.6,0.9c1-0.2,0.8-0.2,0.6,1.9c0.4-0.4,1.1-0.4,1.9-0.3
	c0,1.3-0.7,0.7-1.3,0.3c0.7,1.2,0.2,0.4,0,1.9c0.3-0.2,0.5-0.6,0.6-0.9c0.9,0.2-0.3,0.7,0,1.3c0.9,0.5,0.9-1.4,0.3-1.3
	c0.8-0.1,1.1,2.2,1.3,3.1c1.9,11.4,3.4,30.3,5,43c0.2,1.4,0.1,5.2,0.9,6.3c0.9,1.3,5.9,3.1,2.2,2.2c-1.3-0.3-0.8-1.7-2.5-0.6
	c1,0.7,2.6,0.8,3.8,1.3c-3.3,0.6-9-0.5-11.6-3.1l-7.2,0.3c-19.4,0.1-83,1-85.6,0c0.5-1.2,0.5-1,0-2.2c0.7,0.7,1,0,1.6-0.3
	c0-0.6-0.9-0.4-0.6-1.3c1.3-0.3,1.2,0.8,1.9,1.3c1.1-0.1-1.1-0.8,0-0.9c-0.1-0.6-0.5-0.7-1.3-0.6c0-0.7,0-1.5,0-2.2
	c0.4,0.5,0.9,1,1.3,1.6c1-0.7,0.6,0,0.9,0.3c0.8-0.3-0.1-1.3-0.9-0.9c0.3-0.5,0.5-1,1.3-0.9c0,0.3,0,0.6,0,0.9
	c0.8,0.1,0.2-1.2,1.3-0.9c-0.1,0.4-0.6,0.5-0.6,0.9c0.9,0.2,0.6-0.6,1.3-0.6c-0.8-1.7-1.9-0.1-2.8-1.3c-0.2,0-1,1-0.3,0.9
	c-0.3,0.9-1.2-0.3-1.3-0.6c0.1-0.6,2.6-33.6,2.8-35.1c0.7-0.1,1,0.3,0.9,0.9c0.6,0,0.2-1.1,0.6-1.3c0.4,0.1,0.3,0.6,0.3,0.9
	c0.4-0.1,0.6-0.4,0.6-0.9c-0.3-0.9-0.5-0.4-1.3-0.3c-0.4-1.6,1.1-1.2,1.3-2.2c0.3,0,0.6,1.4,0.9,0.3c0.5,0.9-1.7,3.5-0.3,3.8
	c-0.1,0.7-0.8,0.7-1.3,0.3c0.4,0.5,0.5,1.2-0.6,0.9c0.3,0.5,1.3,0.3,1.9,0.6c0.1,0.7-0.4,0.6-0.9,0.6c0.1,0.9,1.3,0.4,1.6,0.3
	c0.7,0.6-0.8,2.7,0.9,2.5c-0.3,0.7-1.8,0.1-1.9,0.9c0.1,1.1,0.8-1.1,0.9,0c-0.2,0.7-2.3,1.4-0.6,2.2c-0.5,0.3-0.5,1.2-1.6,0.9
	c0.3,0.4,0.3,1.2,0.6,1.6c0.9,0.3,0.8-0.4,1.6-0.3c-0.1,1-1.1,1-1.6,1.6c-0.3-0.2-0.5-0.6-0.6-0.9c-1,0.2-2,0.5-1.9,1.9
	c0.5-0.5,1-0.8,1.3-1.6c0.7,1,1.2,0.6,2.2,0.9c-0.2,0.3-0.6,0.5-0.9,0.6c0.4,0.9,2.5,1.4,3.1,0.3c0.7,0.6-0.9,1.5-1.6,0.9
	c0.6,0.7,1.8,0.8,1.9,1.9c0.3-0.1,0.6-0.3,0.6-0.6c0.4,0.2,0.6,0.7,0.6,1.3c-0.4,0-0.9-0.1-0.9,0.3c-0.5-0.4-0.5-1.2-0.9-1.6
	c-1.1,0.7,0.6,2.4-1.6,2.2c0.6-1.4-1.2-0.4-0.9-1.6c0.6-0.6,0.6,0.2,1.6,0c-0.2-0.3-0.3-0.7-0.3-1.3c-0.3,0.8-1.5,0.6-1.9,1.3
	c0.9,1,0.8,1.4,1.9,1.9c0.2,1.5-0.7,1.8-1.3,2.5c0.4,0.2,0.6,0.3,1.6,0.6c0-0.3-0.4-0.2-0.6-0.3c0.3-0.5,0.5-1,1.3-0.9
	c-1.1-0.3-0.7-0.1-0.6-1.9c1.5,1.3,1.4-1.1,3.1-1.3c0.3,0.2,0.3,0.7,0.9,0.6c0,0.6-0.4,0.7-0.3,1.3c0.6-0.2,0.9-1.5,0-1.6
	c0.2-0.8,1.2-0.7,1.9-0.9c-1.6-0.6-3.2,1.2-2.8-2.2c0.4,0.1,0.6-0.1,0.6-0.3c0.5,0-0.2,1.5-0.3,1.9c0.3-0.3,2.2-0.5,1.3-0.9
	c-0.1-1,0.9,0.8,0.9-0.3c1.2,0.2,0,1.1,0.6,1.6c0.9-0.2,0.8-1.3,1.9-1.3c0,1,1,1.1,0.9,2.2c-0.4,0.4-0.5,0.1-0.9,0
	c-0.1,1.3,1.6,0.3,1.9,0c1.1,1.1-1.9,1.1-2.5,0.6c-0.1,0.5,0.2,0.6,0.6,0.6c-0.2,0.4-0.7,0.6-1.3,0.6c0.1-0.3,0.3-0.3,0.3-0.6
	c-0.1-0.4-0.8-0.3-1.3-0.3c0.1,0.9,1,0.9,1.3,1.6c0.3-1.3,1.8,0.6,1.6-1.3c0.6,0,1.3,0,1.9,0c0,0.3-0.4,0.2-0.6,0.3
	c-0.1,0.8,0.4,1,1.3,0.9c0.4,1-0.5,0.8-0.6,1.3c0.2,0.9,0.7-0.3,1.3,0c0-0.6,0-1.3,0-1.9c0.9,1.1,1.1,0.2,0.9-1.3
	c0.6,0.1,0.6-0.3,0.3-0.3c0.1-0.5,0.4,0.1,0.9,0c0.5,1.1-1.1,0.2-0.9,0.9c0.5,1,0.8-0.7,1.6-0.3c0,0.9,0.5,0.6,0,1.3
	c0.6-0.6,0.8,0,1.6,0c0.1-1-1.1-0.8-1.6-1.3c0.2-0.9,0.7,0.3,1.3,0c0.4-1-1-0.2-0.6-1.3c0.7-0.6,2.1-0.5,2.2-1.6
	c0.4,0.1-0.1,2-0.3,2.8c1.2-0.5,0.6-1,1.9-1.3c0.3,1.4-1.6,0.7-1.3,2.2c-1.2-0.8-0.7-1.5-1.6-2.2c-0.8,0.9,1.4,1.8,0.6,2.8
	c0.7-0.1,2.8-1.3,1.6-1.3c0.6-1.1,1.8,0.8,0.9,1.3c0.9,0.5,0.9-1.4,0.3-1.3c0.5-0.1,1.5,0.2,1.9,0c0.1,1.3-0.8-0.3-0.9,0.9
	c0.4,0.9,1.1-0.6,1.9-0.3c-0.5-1,0.2-1.6,1.3-1.9c-0.1,0.6-0.8,0.6-0.9,1.3c0.9-0.9,0.3,0.5,0.9,0.6c-0.2,0.6-0.6,0-0.9,0
	c0,1,1.1,0.8,1.9,0.9c0-0.8-1-0.7-0.9-1.6c1,0.2,0.7-1,1.9-0.6c-0.3-0.6-0.7-1-1.3-1.3c-1.7-0.1-2.8,1.1-4.1,0
	c1.6,0.5-0.1-2.6,0.9-0.9c0.8-0.3-0.6-1.4,0.9-1.3c0.1-0.8-1.4,0.2-0.9-0.9c0.7,0.2,1.2,0.7,2.2,0.6c-0.3-1-2.1-0.4-1.9-1.9
	c0.8,1.2,1.2,0.1,0.6-0.9c-0.6,0.6-0.8-0.3-1.9,0c0.7-0.7-0.3-1,0.3-1.6c-0.4,0-0.8,0-1.3,0c0.9,1.4-0.6,0-0.3,1.6
	c-0.9,0.2-2.5-0.4-2.8,0.3c-0.8-0.9,0.2-1.7-0.3-2.8c2.3,0,1.8-1,3.5,0.3c0.8-1.3,2.7-0.8,4.1-0.3c0.1-1.5,2.9,0.5,6-0.3
	c0.2-0.1,0.5-1,0-1.3c0.1-0.8,0.5,0.4,1.3,0c-0.2,0.3-0.6,0.5-0.9,0.6c0.2,0.3,0.3,0.5,0.3,0.9c0.5,0.1,0.5-0.3,0.9-0.3
	c0-0.3-0.4-0.2-0.6-0.3c0.1-0.3,0.3-0.6,0.6-0.6c0.2,0,0.4,0,0.6,0c-0.7,1.5,3.1,0.6,3.1,0.3c0.4,0.1,0.3,0.6,0.3,0.9
	c0.2-0.8,1.9-0.2,1.9-1.3c2.3,1.8,2.8-0.9,4.7,1.6c-0.1,0.4-1.8,0.9-0.3,0.9c0.1,0.4-1.8,0.4-0.6,0.9c-0.5,0.7-2.4,0.1-3.5,0.3
	c0.2,0.3,0.7,0.3,0.6,0.9c-1.3-0.7-0.9-2.6-0.3-3.5c-0.1-0.3-0.3-0.3-0.3-0.6c-0.6,0.8-1.1,1.8-1.9,3.1c-1.4,0,0.1-0.9-0.6-1.3
	c-0.4,0.1-0.3,0.8-0.3,1.3c-1.3-0.3-1.5,0.6-2.5,0.6c1.4-1.5-4.9,0.6-5-1.3c-0.9,1.2-3.2,1-4.1,0.6c-0.6,0.4,0.7,1.6,0.6,2.5
	c1.9,0.5,1.8-2.2,3.1-1.3c-1.9,0.4,0,1.3-1.6,1.3c0.3,0.7,1.6,0,1.9-0.3c0.3,0.2,0.5,0.9,0.6,0.3c0.8,0.3-0.4,1.2,0,2.2
	c0.4,0.7,1.3,1,1.6,1.9c1.3-0.4,2.4-0.1,3.1,0.9c0.8-1.3,2.2,0.3,1.9-1.3c0.9,0,0.6,1.3-0.3,1.3c0.2,1.1,1.6-0.8,1.3,0.6
	c0.6-0.6,0.1-1.2,1.3-0.6c0.2-0.8-0.6-0.6-0.9-0.9c0.7-1,1.4,0.7,2.5,0.3c0.7-1.1,1.2-1.7,2.8-0.6c0.3-0.2,0.5-0.6,0.6-0.9
	c-0.8,0.3-2,0.5-2.2-0.6c-0.8-0.4-0.8,1.5-1.3,0.3c-0.6,0,0.5,1.2-0.3,1.6c-0.9-0.3,0.5-0.8-0.3-1.3c-1.3,1.1-2.5-0.8-4.1,0.9
	c0.1-0.4,0.6-0.5,0.6-0.9c-1.8,1.2-2.3,0.1-4.7,0c0.2,0.3,0.7,0.3,0.6,0.9c-1.7-0.6,0.5-2.1-1.3-3.1c1.3-1.2,2.7-0.3,3.5-1.9
	c-0.8,0.8,0.6,0.4,0.6,1.3c0.4-0.3,0.4-1.1,0.9-1.3c1,0.3-0.4,0.8-0.3,1.3c0.7,0,1.5,0,2.2,0c0.7-0.2-0.4-0.5,0.3-0.9
	c0.5,0,1.2,0.2,1.3-0.3c0.3,0.3,0.2,0.7,0,1.3c0.7,0.1,0.6-0.4,0.6-0.9c0.3,0.6,0.8,0.9,0.9,1.6c-0.8-0.2-0.6,0.6-0.9,0.9
	c0.1,0.3,0.3,0.3,0.3,0.6c0.6-0.1,1.4-0.1,1.3-0.9c-1.8,0.7,0.1-1.5,1.3-2.2c-0.7,0.7,0,1.1,0.6,1.3c-0.2-0.7-0.8-2.3,0.6-2.2
	c-1.5,0.5,0.5,1.7,0.9,0.9c0.6,0.2,0,0.6,0,0.9c1.2-0.2,0.8-0.5,0.6,0.6c0.8,0.2,0.6-0.6,0.9-0.9c0.5,0.8,2.8,0.5,1.9-0.6
	c0.9,0.9,2.5,0.7,3.5,0c-0.1,0.5,0.3,0.5,0.3,0.9c1.4,0,2.3-0.5,2.8-1.3c2,0.1,1.3,1,2.8,1.3c0,0.8-0.5,1-0.6,1.6
	c0.1,0.7,1.7,0,1.9,0.6c-0.4,0.5-0.6,1.2-1.6,1.3c-1.5-0.9-3.4,0-6-0.6c-0.1,0.4,0.1,0.6,0.3,0.6c-2.7-0.6-7.7-1.3-8.8,0.6
	c0.6,0.2,4.3-1,4.4,1.3c0.4-0.4,1.2-0.4,1.3,0.3c0.2-0.5,0.4-1.8,0.6,0c0.5,0.1,0.5-0.3,0.9-0.3c-1-0.8-0.4-1.4-1.3-1.9
	c0.1-0.5,0.4,0.1,0.9,0c0.1,0.5-0.3,0.5-0.3,0.9c1.1-0.4,2.3,1.4,4.1,1.3c-0.3-0.4-0.3-1.2-0.9-1.3c-0.4-1.1,1.4,1.6,1.9,0
	c0.1-0.8-1.8,0.3-1.3-0.9c1.1,0.4,2.6,0.6,2.8,1.9c0.2-0.5,0.9-0.5,1.3-0.9c0.7,0.2,0.7,0.5,0.3,0.9c0.7,0.1,0.6-0.4,0.6-0.9
	c0.4,0.2,0.6,0.7,0.6,1.3c2.8,0.3,5.4-0.7,7.2,0c0.4-0.1,0-0.6-0.3-0.6c0.3-0.4,1.5-0.1,2.5,0.3c-0.2-0.4-0.2-1.6,1.6-0.9
	c0,0.3,0,0.6,0,0.9c0.9-0.5,2.7-0.2,3.8-0.6c-0.1-1.2-1.1,0.4-0.9-0.9c2.9,0.8,3-0.3,4.4-1.3c-1.4,1.2,0.1,2.7,0.9,4.1
	c-0.9-0.1-1.2-0.8-1.6-1.6c-0.9,0.3,0.5,0.8-0.3,1.3c1.5,0.8,1.2,1.6,2.8,2.2c0.5-0.1-0.3-0.6,0.3-0.6c-0.1-0.4-0.9-0.4-0.9,0
	c-0.1-0.2-0.2-2.6,0.3-1.6c1.2-0.8-1-0.9-0.6-1.9c0.9,0.2,1.8,1.5,1.3,2.2c0.5,0.1,0.5-0.3,0.9-0.3c-0.6-0.7-0.9-1.6-1.3-2.5
	c-0.8-0.1-0.7,0.6-1.6,0.3c-0.1-0.9,1.1-0.6,0.6-1.9c1.7,1,0.1-1.2,1.3-1.6c-0.2-0.7-0.5,0.4-0.9-0.3c0.5-1.1,1-1.5,0.9-2.5
	c0-0.3-0.4-0.2-0.6-0.3c0.4-0.9,1.4,0,0.9,0.9c0.2,0,0.4,0,0.6,0c0.5-0.7,0.1-1.5,0-2.8c-0.4,0.4-0.6,0.3-0.6-0.3
	c-0.6,0.1-0.6,0.8-0.9,1.3c-0.8,0.6,0.4-1,0.3-1.6c1.3,0.1,1.3-1,2.5-0.3c-0.5-0.4-0.9-0.8-1.3-1.3c-1.1,0.8-1.3,1.3-3.1,0.3
	c0.7-0.4,2.6,0.2,2.5-0.9c0.4,0.5,1.9,0,1.9,0.9c0.7-0.1-0.3-0.8-0.6-0.9c0.1-0.4,0.6-0.3,0.9-0.3c-0.9-0.8,0.4-2.2-0.3-2.8
	c-0.8-0.1,0.8,1.2-0.6,0.9c0.1-0.9,0-1.7-0.9-1.6c0.8-0.6,0.7-3.3,2.2-2.2c0-0.8-0.9-0.8-1.3-1.3c-0.1-1.2,0.3-0.1,0.9-0.3
	c-0.9-1-1.6-2.4-2.5-1.9c-0.6-0.3-0.5-1.2-1.3-1.3c0.2-0.8,1.6-0.2,1.3,0.6c1-0.1,2.3-0.7,1.6-1.6c-1.1,1.6-2.4-0.8-1.9-1.6
	c1.4,0,0,0.8,0.3,1.6c0.9-0.1,1.6-0.5,2.2-0.9c-0.3-0.7-1-0.9-0.9-1.9c-1.2-0.5-0.1,1.4-1.3,0.9c0-0.6,0.4-0.7,0.3-1.3
	c-0.6-0.1-1,0.1-0.9,0.6c-1.1,0,0.7-1-0.3-0.9c0.9-0.6,2,0.7,3.5,0c-0.3-1.4-1.3-0.2-2.2-0.9c0.4-1.7,1.8-1.8,1.6-3.5
	c-0.2,0-0.4,0-0.6,0c-0.8,0.1,0.4,0.5,0,1.3c-0.6-0.1-0.6,0.3-0.3,0.3c-0.1,0.4-0.3,0.2-0.3,0c-0.2,0-0.4,0-0.6,0
	c-0.1-0.7,0.9-0.3,0.9-0.9c-0.1-0.3-0.3-0.3-0.3-0.6c-0.4,0.1-0.2,0.3,0,0.3c-0.4,0.9-1-0.4-0.9-0.9c0.4-0.4,1.4-0.3,2.2-0.3
	c-0.4-0.9,0.1-1.1,0-2.5c-0.2,0.9-1.6,0.4-2.2,0.9c0.2,0.3,1.6,1.1,1.3,0c0.8,0.2,0.2,1.6-0.6,1.3c-0.1-0.8-1-0.9-1.6-1.3
	c0.3-0.5,2.4-1.9,1.6-0.6c0.9-0.1,1.3-0.5,1.3-1.6c-0.5,0-0.8,0.2-0.9,0.6c-0.3-0.2-0.4-0.9,0-1.6c0.4,0.1,0.2,0.3,0,0.3
	c-0.1,0.7,1.1,0.1,1.6,0.3c0.3-2.4-0.8-2.1-0.3-3.8c-0.5-0.5-1.8-0.3-1.6-1.6c0.6,0.6,0.8,0,1.6,0c-0.2-0.6-0.9-0.6-0.3-1.3
	c-1.1-0.2-0.9,1-1.9,0.9c0-0.3,0-0.6,0-0.9c1,0.2,1.1-0.3,1.9-0.3c-0.2-1.3-2.1-0.8-2.2-2.2c0.4,0.3,0.8,0.4,1.6,0.3
	c-0.1,0.7,0.2,0.8,0.3,1.3c0.8-0.9,0.6-3.4-1.3-4.1c0-0.6,1.1-0.2,1.3-0.6c-0.1-0.6-1.2-0.2-0.9-1.3c1.1,0.2,1.1-1.1,0-0.9
	c0.9-1.3,0.9-4.7-0.6-5c-0.7-0.2,0.6-1,0.9-1.3 M588.5,650.2c-0.3-0.3-0.7-2.2-0.9-1.6c-0.1,0.2,0,0.6-0.3,0.6c0-0.5-0.9-0.2-0.3,0
	C587.8,649.3,587.3,650.6,588.5,650.2z M511,681.9c0.8-0.4,1.3,0.9,1.6,0c-1.4-0.9,1.5-0.2,0.9-1.3
	C512.3,680.6,511.7,681.3,511,681.9z M532.1,682.2c0.9-0.1,1.7,0,1.6,0.9c-1.2-0.5-0.6-0.3-0.3,0.6c-1.1,0.2-2.1-0.1-1.3-0.9
	c-0.8-0.1-1,0.4-0.9,1.3c2.1-0.2,3.1,0.4,3.1-0.9c0.6,0.1,0.1,1.4,0.9,1.3c1.6-1.6,1.9,1.7,2.5,2.5c-0.5-0.8,0.4-1.6-0.3-2.5
	c0.7,0.1,1.2-0.1,1.3-0.6c-0.3-0.1-0.8-0.4-0.3,0c0,0.7-1.3,0.1-1.9,0.3c0.8-0.8-0.5-0.2-0.3-1.3c-1-0.3-0.4,1-1.3,0.9
	C534.7,682.6,532.7,680.9,532.1,682.2z M559,684.4c1.1,0.3,0.2,0.6,0.3,1.6c0.6,0,1-0.2,1.3-0.6c-1.3-0.4,0.4-1.4-0.9-1.9
	C559.6,683.9,559.1,684,559,684.4z M581.6,678.4c1.2-0.5,0.6,0.9,1.6,0.6c0-0.8,0.1-1.5-0.6-1.6
	C582.5,678.1,581.5,677.7,581.6,678.4z M585.1,654.9c0.1-0.8-0.6-0.7-0.3-1.6c-0.9,0-1.8,1.5-1.3,1.9c0.3-0.5,0.5-1,1.3-0.9
	C584.8,654.5,584.8,654.9,585.1,654.9z M501.3,679.7c1-0.5,1.7,0.4,2.8,0.6C503.9,679.5,501.7,678.4,501.3,679.7z M554.6,685.6
	c0.1-0.2,0.3-0.4,0.6-0.3c0-0.6-0.2-1-0.6-1.3c-0.7,2.4-0.6,2.1-1.6,4.1c0.9-0.2,0.9-1.4,2.2-1.3c0.4,1,0.2,1.1,0.9,1.9
	c-1-0.5-1.1,1.6-0.6,0.6c0.5-0.4,2.4-0.9,1.6-1.6C555.5,689.1,555.6,685,554.6,685.6z M564.1,685.9c0-0.8,1.1-0.1,1.3,0
	c-0.1-0.5,0.1-1.2-0.3-1.3C564.8,685.5,563.3,685,564.1,685.9z M583.5,685.6c0.5,0.8,2.7-0.2,1.6-0.9
	C584.8,685.9,584,685.1,583.5,685.6z M563.1,687.2c-0.3,0.8,1,1.5,0,1.9c-0.3-0.6-0.9-1.6-1.3-0.3c0.6,0,0.7,0.3,0.6,0.9
	c0.9,0.1,1-0.7,1.9-0.6c-0.2,0.5-0.5,0.8-0.6,1.3c1.3,0,0.1,0.2,0,0.6c1.1,0,1.7,0.6,2.2-0.3c-0.4,0-0.7,0.1-0.9,0.3
	c0.1-0.5-0.9-1.6,0-1.9c0.2,1.4,0.9,1.3,1.6,0.3c-0.1,0.9-0.4,1.2,0,1.6c0-0.4,0.5-0.3,0.6-0.6c-1.4-0.6,1.7-0.7,0.3-1.3
	c-0.3,0.6-2.4-0.4-1.6-0.9c-0.6-0.1-0.6,0.4-0.9,0.6c0.4-1.2-1.2-1.1-0.3-0.3c-0.4,0-0.7,0.1-0.9,0.3c0.4-0.7-0.2-1.2,0.6-1.9
	c-1.5,0.3-2.3-0.1-3.1,0.3c1.1-0.3,0.5,1,0,0.9c-0.1-0.9-0.5-1.5-1.3-1.9c0,0.6-1,0.2-0.9,0.9c0.8,0.5,1.1-0.4,1.6,0.3
	c-0.7,0.6-0.9,1.1-1.9,0.6c0.5,1.2-1.4,0.1-0.9,1.3c0.8,0,1-0.6,1.3,0.3c-0.7-0.1-1.2,0.1-1.3,0.6c1.1,0.1-0.1,2.3,1.3,1.3
	c-1.1-1.1,0.8,0.2,0.9-0.6c-0.7-0.4-1.2,0.1-1.6-0.9c1.1-0.8,1,1,1.6-0.3c-0.5,0-0.8-0.2-0.9-0.6c0.6-0.5,1.1-0.8,1.6,0
	c-1,0.1,0.5,1.8-0.3,2.5c1.1-0.4,2,0.9,2.5,0c-1.5-0.3,0.6-1.1,0.6-0.9c-0.6-0.1,0.2-0.5-0.3-0.6c-1.4,0-1,0.7-2.2,1.3
	c0-0.4-0.1-0.7-0.3-0.9c1,0.2,0.4-1.1,1.6-0.6c0.1-0.6-0.4-0.6-0.6-0.9C561.8,687.9,562.5,687.6,563.1,687.2z M571.6,686.9
	c-0.9,0.2-1.6,0.7-2.2,1.3c-0.1-0.7-1.7,0-1.6-0.9c0.5-0.1,1.2,0.1,1.3-0.3c-1-0.8-3,1-3.8-0.3c0.1,0.6-0.4,0.6-0.6,0.9
	c1.6,0.6,3.1-0.2,4.4,0.9c-0.8,0.4-1-0.2-1.3,0.3c1.3,0.1-0.2,1.3,0.6,1.6c0.1-0.6,1.4-0.1,1.3-0.9c-0.4-0.2-0.7-0.3-0.9-0.6
	c0.4,0,0.4-0.4,0.9-0.3c0.4,1.2-0.1,1.5,0.6,2.5c0.6,0,1-0.2,1.3-0.6c-0.4-0.8-0.9,0.6-1.3-0.3c0.9,0.2,0.6-0.6,1.3-0.6
	c0.1,0.6,0.7,0.8,0.6,1.6c-2.5,1.3-1.9,1.4,0,0.6c0,0.6,0.2,1,0.6,1.3c0.7-0.5-0.6-1,0.6-0.9c-0.6,1.2,0.5,1.8,0.9,2.8
	c0-0.4,0.5-0.3,0.6-0.6c-0.8,0.1-0.8-0.7-1.3-0.9c-0.6-2.2,3.1-0.3,2.2-2.2c0.9-0.3,1.5-0.5,1.9,0.3c0-0.2,0-0.4,0.3-0.3
	c0.8-0.2-1.1-0.7,0.3-0.9c0.9,0.7,1.8,0.1,1.3,0.3c-0.6-0.3-1-0.7-1.3-1.3c0.4,0,0.3-0.5,0.6-0.6c0.2,0.6,1.8,1,1.9,0
	c-1.8,0.1-0.7-0.6-1.6-0.6c-0.2-0.9,1.5,0.2,1.3-0.6c-2-0.7-2.3,0.7-3.1,0.3c0.3,0.1,1.1,1.2,0.3,1.3c-0.1-0.6-0.8-2.1-1.3-1.3
	c0.6,0.7,0.9,1.6,1.6,2.2c-0.4,0-0.3,0.5-0.6,0.6c-1-0.2-1.5,0.2-2.2,0.3c0-0.3-0.3-0.4-0.3-0.6c0.8-0.8,0.5-1-0.3-1.6
	c1.4-0.1,1.4,0.6,1.6,0.9c0-1.1,1,0.7,0.9-0.3c-0.6-0.6-1.8-0.5-1.9-1.6c0.5,0,1.1,0,0.9-0.6c-1-0.3-1,0.5-1.6,0.6
	c0-0.4,0.6-0.7,0-0.9c-0.8,0.6-1.6-0.2-2.2,0.9c0.4,0,0.9-0.1,0.9,0.3c-0.4,0-0.9-0.1-0.9,0.3c0.4-0.1,1.1,0.9,0.3,0.9
	c0-1.6-1.8,1.3-2.5,0C571,688.4,570.6,687.7,571.6,686.9z M531.1,687.5c1.2-0.5,3.2,0.9,4.7-0.3C534.6,687.8,533,686.5,531.1,687.5z
	 M545.5,687.5c0,1,1.3,0.6,1.6,1.3c-0.1-1.1-0.8-0.4-0.3-1.6c-0.4,0-0.9-0.1-0.9,0.3C546.3,687.6,545.9,687.9,545.5,687.5z
	 M534.6,689.4c0.6,0.1,0.8,0.6,1.3,0.9c-0.3-0.8,1.1-1.8,0.3-2.8C536.7,689.2,535.2,688.9,534.6,689.4z M514.8,689.7
	c-0.2-0.7-0.2-1.7-0.9-1.9c0,0.4-0.1,0.7-0.3,0.9C514.4,688.5,515.2,690.7,514.8,689.7z M546.8,689.7c-0.3-0.5-0.5-1-1.3-0.9
	c-0.3,1.2,1.5,0.7,0.6,1.6c0.5,0,1,0.1,1.3,0.3c0.4-1.4,0.4-1.2,0.9-2.5C547.2,688,547.8,689.7,546.8,689.7z M550.9,688.8
	c-0.1,0.9,0.1,1.6,0.6,1.9c0.6-0.6-0.3-0.8,0-1.9c0.4,0,0.7-0.1,0.9-0.3c0,0.4,0.1,0.7,0.6,0.6C553.1,687.5,551.6,688.5,550.9,688.8
	z M510.7,690.7c0.9,1.2,1.8-2.7,1.3-1.9C511.7,689.5,511.3,690.2,510.7,690.7z M550.9,691c-0.3-0.7-0.7-1.4-1.3-1.9
	C549.4,690.2,550.7,691.4,550.9,691z M530.5,689.4c-0.5,0.6-1.9,0.9-2.2,0c-0.3,1.3-1.5,0.6-2.5,0.6c0.5,1.2,1.8,0.2,3.5,0.3
	c0,0.4,0.1,0.7,0.3,0.9c-0.2,0.1-0.6,0-0.6,0.3c0.3,0,0.6,0,0.9,0c-1.2-1.9,2.6,0.1,1.3-1.6c-0.1,0.2,0,0.6-0.3,0.6
	c0-0.4-0.4-0.4-0.3-0.9C530.7,689.7,530.8,689.5,530.5,689.4z M543.7,691.3c0.7-0.7-0.2-1.4-0.6-1.9c0.3,0.7-1.6-0.5-0.6,0.3
	C543.3,689.8,543,691,543.7,691.3z M549,690.3c-1.3-0.1-0.4,1.8,0.6,1.3c0-0.3,0-0.6,0-0.9c-0.5-0.1-0.8,0.5-0.9,0
	C548.9,690.6,549.1,690.6,549,690.3z M534.9,691c-0.2,1.4-0.7,1.5-1.6,1.6c0.8,0.4,2.1,0.2,2.2,1.3c0.1-0.7,1.4-0.2,1.6,0
	c0.3-1.1-1-0.5-1.6-0.6c-0.8-1.3,0.3-1.7,0.9-2.5C535.6,690.4,535.6,691.1,534.9,691z M523,692.2c-0.2-1.1,1.2-0.5,1.3-1.3
	c-0.5,0-1,0-1.6,0C522.7,691.4,522.5,692.1,523,692.2z M507.9,692.8c-1.2-0.3,2,0.7,1.3,0c-0.9,0.2-0.9-2-1.3-1.3
	C507.6,692.2,508.8,692.6,507.9,692.8z M543,693.2c1-0.5,0.9-1.5,1.6,0c0.7-0.6,0-1.3-0.6-1.6C543.6,692.1,543,692.2,543,693.2z
	 M539.6,692.5c-0.4-0.1-1.2-1.3-1.6-0.3c0.9,0.5-0.8,1.7,0.9,1.6C539.3,692.7,538.4,692.6,539.6,692.5z M562.5,693.2
	c-1.4,0.6-2.6-2-2.5-0.9C560.4,692.8,561.7,694.7,562.5,693.2z M529.6,693.5c0.1-0.2,0.3-0.4,0.6-0.3c0.1-0.8-0.4-1-1.3-0.9
	c-0.1,0.6,0.4,0.6,0.6,0.9C529.4,693.2,529.2,693.4,529.6,693.5z M549.6,695c-1,0.5-1.2,0.3-1.9,0.6c1.1,0.6,1.1-0.1,2.2-0.3
	c-0.1,0.4-0.5,0.5-0.6,0.9c0.4,0.4,1.9,0.5,1.9-0.3c-1.7,0.7-0.7-0.6-1.6-1.6c0.3-0.2,1.6-1,0.9-1.3c0,0.4-0.9,0.4-0.9,0
	c0.4-0.1,0.6-0.4,0.6-0.9c-1.7-0.2-0.2,1.6-0.9,1.9c-1.2-0.4,0.2-1.4-0.6-1.9c0.2,0.9-0.6,0.6-0.6,1.3
	C548.9,693.7,549,694.6,549.6,695z M576.3,693.2c0.2-0.9,0.7,0.3,1.3,0c0.1-0.8-0.4-1-1.3-0.9C576.4,692.8,575.8,693,576.3,693.2z
	 M503.8,693.2c0.2,1.1-0.3,1.3-0.6,1.9c0.9-0.3,1.4-0.6,0.9-1.6c0.3-0.1,0.8-0.5,0.3-0.6C504.4,693.1,504.2,693.2,503.8,693.2z
	 M519.8,694.1c-0.4-0.1-0.3-0.5-0.3-0.9c-0.8,0-1-0.6-1.3,0.3C519,693.3,519.4,695,519.8,694.1z M563.4,695.4c0-1.7,1.5,1.2,1.9-0.6
	c-1.1,0.6-1-0.2-1.9-0.6C563.3,694.5,562.8,696.2,563.4,695.4z M563.1,692.8c0.2,0.8-1.4,1.3-0.3,1.9
	C563.1,694.1,564.5,693.3,563.1,692.8z M509.5,694.4c0.2,0.1,0.4,0.3,0.3,0.6c1-0.9,1.5,1.1,2.5,0c-0.2-0.1-0.6,0-0.6-0.3
	c0.2,0,0.4,0,0.3-0.3c-0.9,0.2-1.5,0.4-1.9,0c0-0.4,0.5-0.3,0.6-0.6c-0.4,0-1.7-0.6-0.9,0C510.3,693.9,509.7,694.1,509.5,694.4z
	 M543.7,694.4c0.1,0.4,1.5,0.4,0.6,0c-0.2,0-0.4,0-0.3-0.3c0.5,0,1-0.1,1.3-0.3c0.1,0.2,0,0.6,0.3,0.6c0-0.3,0-0.6,0-0.9
	c-0.9-0.3-0.8,0.4-1.6,0.3c0-0.2-0.3-0.4-0.3,0C544,693.9,543.9,694.1,543.7,694.4z M512.9,695c0.9-0.9,0.7,0.6,1.9,0.3
	c0.1-0.9-1.2-0.7-0.3-1.6C513.4,693.4,512.4,695.8,512.9,695z M535.2,694.1c0,0.2,0,0.4-0.3,0.3c-0.1-0.2,0-0.6-0.3-0.6
	c-0.5,0.7-0.9,0.6-1.3,0c-0.7,0.7-0.3,0.8-0.6,1.6C534.7,695.1,535,694.5,535.2,694.1z M580.7,695.4c-1.2,0.5-1.4-1.5-1.9-0.6
	C579.1,695.3,580.1,696.9,580.7,695.4z M535.8,697.6c1.2,0.2,1.8,0.5,2.2-0.6c-0.8-0.4-0.8,1.5-1.3,0.3c-0.1-0.7,0.9-0.3,0.9-0.9
	c-0.5-0.1-1.2,0.1-1.3-0.3c0.2-0.5,1.5,0.1,1.3-0.9C535.5,695,536.9,696.8,535.8,697.6z M543.7,699.4c0.7-0.1,1,0.3,0.9,0.9
	c-0.4,0-0.7,0.6-0.9,0c0.4,0,0.7-0.1,0.6-0.6c-0.8,0.1-1.4,0.4-1.9,0.9c0.8,0.3,1.5,0.6,1.9,1.3c-0.6,0-1.8-0.8-2.2,0
	c0.4,0.1,0.3,0.5,0.3,0.9c1.9,0.1,1.4-0.3,3.1,0.3c-0.5-1.9-0.1-0.4,0.6-0.9c-0.1-0.7-1.4-0.3-1.3-1.3c0.4,0,0.7,0.1,0.9,0.3
	c-1.4-1.5-1.4-3.8-0.3-4.1c0.5-1.2-1.4-0.1-1.3-0.9c0.4-0.1,0.5-0.4,0.9,0c0.4-1-0.9-1.8-1.3-0.9
	C544.5,696.7,544.1,698.2,543.7,699.4z M530.2,696.3c0-0.6-0.7-1.3-1.3,0c0.3,0,0.4,0.5,0,0.6c0-0.2,0-0.4-0.3-0.3
	c-0.3,0.6,1,1.2,0.9,0.6c-0.6,0.1,0.1-0.9,0.3-0.9C529.9,696.5,530.1,696.7,530.2,696.3z M518.3,697.6c0.6,0,1-0.2,1.3-0.6
	c-0.4,0-0.7,0.1-0.9,0.3c0.6-1.5-0.3-0.4-0.6-0.9c0-0.4,0.5-0.5,0-0.6C517.3,696.3,517.9,697.1,518.3,697.6z M533,695.7
	c-0.8-0.1-1,0.5-1.3,0.9c0.7-0.1,1.5-0.8,1.3,0.6c0.7,0,1.6-1.3,0.9-1.6C533.9,697,533.1,696.5,533,695.7z M512.9,697.2
	c0.5-1.1-1.1-0.2-0.9-0.9c0.4,0,2.3,0,1.3-0.3C511.4,695.6,511.5,697.2,512.9,697.2z M504.1,699.4c-0.1-0.9,1.7,0.2,1.6-0.6
	c-1.1,0.1-1.4-2.1-2.5-0.9C505.2,697.9,503.6,698.9,504.1,699.4z M546.8,698.8c0.8-0.4,1,1.2,1.3,0.3c-0.4-0.5,0.9,0.2,0.6-0.6
	c0.6,0.3,0.5,1.4,1.3,0.6c0,0.5,0.1,1,0.3,1.3c-1,0.3-1-0.5-1.6-0.6c0.1,0.9,0.8,1.2,1.6,1.6c0-0.9,0.9-0.8,1.3-1.3
	c-0.2,1,2.1,0.6,0.9,0c-0.7,1.1-1.1-1.7-2.2-0.3c1.2-1.7-1.5-0.5,0-1.9c-0.8,0.4-1.5-0.7-1.6,0C549.2,698.8,547.1,697.8,546.8,698.8
	z M549,703.2c1.3-0.8,1.1-1,2.2,0c-1-1.5,0.7-1.2,0.9-2.2c-0.5,0-1-0.1-1.3-0.3C550.5,701.7,549.5,702.2,549,703.2z M516.7,699.4
	c0.6,0.3,1.1,0.5,1.9,0.6c0.5-1.1,0-2.7-0.9-1.9c0.5,0.2,0.8,0.5,0.9,0.9C517.5,699.2,517,699.1,516.7,699.4z M524.8,698.8
	c0.2,0.2,1.5,0.7,1.6,0c-0.4-0.1-0.2-0.3,0-0.6C525.9,698.4,525.1,698.3,524.8,698.8z M530.2,700.1c-1.3,0.1-0.3-1.1,0-1.3
	c-0.4,0-0.7-0.1-0.9-0.3c-0.1,0.2,0,0.6-0.3,0.6c0,0.8,0.5,1,0.6,1.6c-0.4-0.1-0.5-0.5-0.9-0.6c-0.4,1.4,0.7,1.1,0.9,1.9
	c-0.2,0-0.4,0.3,0,0.3c0.1-0.4,0.5-0.3,0.9-0.3c0-0.3,0-0.6,0-0.9c-1.4-0.2,0.3,0.6-0.6,0.6C529,701.3,530.2,700.5,530.2,700.1z
	 M555.3,700.4c-0.1-1,0.8-1.6-0.3-1.9c0.1,0.7-0.1,1.2-0.6,1.3c0-0.2-0.3-0.4-0.3,0C554.6,699.8,554.4,700.6,555.3,700.4z
	 M506.7,700.7c0.9,0.2,2.2-0.7,1.3-1.3c-0.3,0.3-0.6,0.6-0.9,0.9c0-0.5-0.9-1.6-1.3-0.6C506.4,699.7,506.7,700,506.7,700.7z
	 M539.9,700.7c1.4,0-0.1,0.9,0.6,1.3c0.4,0,0.9,0.1,0.9-0.3c-0.6,0-0.7-0.3-0.6-0.9c0.4,0,0.8,0,1.3,0c0.6-1.1-1.5-1.6-0.6-0.9
	C542.6,701.1,539.8,699.3,539.9,700.7z M565.9,701c-1.3,0.1-0.4-0.8-0.9-0.9c-0.8,1,0.6-0.7-0.3-0.6c-0.2,0.7-1.1,0.8-1.6,1.3
	c0-0.5-0.9-0.2-0.3,0C564.1,700.8,564.8,701.2,565.9,701z M504.8,701.3c0-0.8,1.2-0.4,1.3-1.3c-0.5,0-1-0.1-1.3-0.3
	C505,700.3,503.9,701.1,504.8,701.3z M546.2,701.6c1.4,0.4,1.1-0.7,1.9-0.9c0.1,0.6,0.1,1.4,0.9,1.3c0.4-1.3-1.6-1.9-1.9-1.6
	C548.2,701,545.7,700.6,546.2,701.6z M570,701.6c0-0.5,0.9-0.2,0.9-0.6c-0.2-0.1-0.4-0.3-0.3-0.6c0.2-0.1,0.6,0,0.6-0.3
	C570.4,699.9,569.2,701.1,570,701.6z M536.8,702.3c0.2-1,1.8-0.2,1.9-0.6c-1.1-0.3,0.9-0.1,0.3-0.9c-1,0.4-1.2,0.2-1.9-0.3
	C538.6,701.6,535.8,701.1,536.8,702.3z M557.8,700.7c-0.2,0.8,0.6,0.6,0.9,0.9c0.1-0.2,0.8-1.2,0-1.3
	C558.7,700.7,558.2,700.7,557.8,700.7z M575,700.4c-0.5,0.5-2.4-0.4-1.9,0.3c0.2,0.1,0.6,0,0.6,0.3c-0.2,0.1-0.4,0.3-0.3,0.6
	c0.7,0.2,2.1-0.3,1.3-0.6C574.1,701.8,574.6,700.4,575,700.4z M534.6,702.3c0.6-1.1-1.6-2.2-2.2-0.9c0.5,0.2,0.8,0.5,1.3,0.6
	c0-0.4,0.1-0.7,0.6-0.6C534.3,701.7,534.2,702.2,534.6,702.3z M562.8,701.3c0,0.4,0,0.8,0,1.3c1,0.1,0.8-0.8,1.6-0.9
	c0,0.3,0.1,0.8,0.3,0.3C564.5,700.7,563.5,702.2,562.8,701.3z M545.2,705.1c0.2-0.5,0.5-0.8,0.6-1.3c-1,0.6-0.8,0.6-1.6-0.3
	c0.1,0.7-0.9,0.3-0.9,0.9C544.1,705.1,544.8,704,545.2,705.1z M508.8,705.1c1.2-0.2,3.1,0.4,3.8-0.3
	C511.3,704.6,508.9,704.5,508.8,705.1z"/>
<path d="M581,669.3c0.6,0.1,1.5-0.4,2.2-0.9c-0.3,1,0.5,1,0.9,1.3c-0.1,0.3-0.6,0.2-0.6,0.6c-0.4-0.1-0.6-0.4-0.6-0.9
	c-1,0.4,0.4,1.5-0.3,1.9C582,670,581.8,669.8,581,669.3z"/>
<path d="M519.5,680.3c1.3,0.5,1-0.5,2.5,0C521.5,680.9,519.8,681.4,519.5,680.3z"/>
<path d="M505.4,664.3c0.6,0.9,0,1.3,0.9,2.8c-0.2,0-0.4,0-0.6,0c0.1-0.3-0.1-0.3-0.3-0.3c0-0.3,0.4-0.2,0.6-0.3
	c-0.5-0.9-1.4,0.3-2.2,0C504.7,665.5,505,665.8,505.4,664.3z"/>
<path d="M503.2,659c0.2,0.3,0,1.3,1.6,0.9c-0.8,0.9-1.7,1.7-3.1,1.9c0.1,0.6,0.9,0.6,0.6,1.6c-0.5,0-1.2-0.2-1.3,0.3
	c-0.2-1.8,1-3,0.3-4.4C501.7,659.7,503.2,659.8,503.2,659z"/>
<path d="M544,624.8c-0.8,1.2-0.4,2.1-1.6,2.5c0.2,1.2,1.8-1,1.6,0.6c0.5-0.8,0.5-2,0.6-3.1c2.6-0.7,2.5,2.3,1.9,3.8
	c-2.1-0.3-3,0.3-4.7-0.3c0.5-0.9-0.1-1.6,0.3-2.2c-0.1-0.8-0.5,0.4-1.3,0c-0.1,1.5,0.6,1.8-0.3,2.5c-1.3-0.3,0.1-1.5-0.3-2.8
	c-1.7-0.1-0.2,2.9-1.9,2.8c0-0.7,0-1.5,0-2.2c-0.7,0.1-0.1,1.5-0.3,2.2c-1.2-0.5-1.2-0.7-2.2,0c-0.6-0.6,0.3-0.8,0-1.9
	c-1.1-0.3-0.4,1.2-0.6,1.9c-1.1,0.1-1.8-0.1-2.5-0.3c0.5-1.1-0.1-2.6,0.3-3.1c1.3-0.1,0.3,2,0.6,2.8c1.5-0.4,0.5-2.2,0.9-2.8
	c0.9-0.3,0.6,0.7,0.6,1.3c0.7,0,0.7-0.8,0.6-1.6C536.6,626.1,540.1,624.4,544,624.8z M545.2,626c0.2,0.5-0.4,1.6,0.3,1.6
	c0.1-0.6,0.6-0.8,0.9-1.3c-0.5,0-0.2-0.9-0.6-0.9C545.8,625.8,545.8,626.2,545.2,626z"/>
<path d="M571.6,633.6c-1.2-1-1.2,1.9-2.5,1.9c-1.1-0.7,0.7-1.1,0.6-1.9c-0.5-1.1-2.1,1-1.3,1.3c-1.4,0.7-3.1,0-4.7,0.6
	c-0.6-0.2,0.2-1.9-0.9-1.6c-0.9,0.2,0.3,0.7,0,1.3c-0.5,0.1-0.6-0.2-0.6-0.6c-2.4,1.9-6.9,0-11,0.9c-0.2-0.7-0.9-1-0.3-1.6
	c0.7-0.2,0.4,0.6,0.9,0.6c1-0.2-0.4-2,0.3-1.9c0.6-1,1.3,1.9,1.3-0.3c1-0.1,1.4,1.1,0.9,1.6c1.1,0.3,0.5-1,0.6-1.6
	c1.6,0.2,1.2,0.2,2.8,0c0,0.4,0,0.8,0,1.3c0.6,0,0.2-1.1,0.6-1.3c0.4,0.2,0.6,0.7,0.6,1.3c0.5-0.1,0.1-0.9,0.6-0.9
	c1.2-0.3,0.6,1.1,1.3,1.3c0.5,0.1,0-1.2-0.3-1.3c1.4-0.4,2.2,0.2,4.1-0.3c0.2,1.1-0.3,1.3-0.6,1.9c0.1,0.7,1.7,0,1.9,0.6
	c0.7-0.2,0.1-1.8,0.3-2.5c2.2,0,4.4,0,6.6,0c0.1,1.7-1.1,1.7,0,2.8c-0.5,0.6-1.1-0.3-2.2,0c0,0.2,0,0.4,0,0.6
	C569.8,635.1,571.4,634.2,571.6,633.6z M566.9,634.5c0.8,0.1,1-0.4,0.9-1.3C567,633.2,566.8,633.7,566.9,634.5z"/>
<path d="M526.1,632.6c0.5,0.4,0.2,1.7,0.6,2.5c-2.6,1.2-4.1,0-7.2,0.6c0.6-0.7,0.8-1.8,0.3-2.8C521.7,632.7,523.9,633.3,526.1,632.6
	z"/>
<path d="M547.1,632.3c0.3-0.1,0.3,0.1,0.3,0.3c1,0.7,1.8-0.8,2.8,0c0,1.3-1,1.5-0.9,2.8c-1-0.5-1.2,0.1-2.5,0
	C546.2,634.7,546.4,632.7,547.1,632.3z"/>
<path d="M504.5,634.5c0.8-0.1,0.8,0.7,0.9,1.3c-0.6,0.6-1.5,0.2-2.2,0c0.3-0.9,1,0.2,1.6,0c0.3,0.1,0.3-0.1,0.3-0.3
	C504.9,635.1,504.4,635.1,504.5,634.5z"/>
<path d="M547.1,637.3c0.4,0.3,0,0.7,0.6,1.3c0.3-0.8,2.4-0.9,2.8-0.6c-0.6,1.5-0.6,1.4,0,2.8c-2.4,0.3-2.7-0.8-4.1,0
	C547.6,640,546.3,638.5,547.1,637.3z"/>
<path d="M566.9,638.9c-0.5,1.4-1.7,2.3-4.1,1.9c-0.4-0.4-0.1-0.5,0-0.9c-1.1,0.6-2,1.5-1.6-0.6c-0.8,0-0.5,1.2-0.9,1.6
	c-2.2-0.1-6.3-0.2-8.5,0c0.1-0.4-0.1-0.6-0.3-0.6c0.7-0.9,0.9-0.8,0.3-2.2c2.2,0.7,4.4-0.7,6-0.6c0.5,0,1.2,0.9,1.9,0.9
	C561.2,638.4,565.8,636.5,566.9,638.9z"/>
<path d="M524.5,643.6c0.1-0.4,0.3-0.2,0.3,0c3-0.2,3.4,0.1,5.6,0c-0.6,1.1-0.7,1.7,0.3,2.5c-0.4,0.6-4.2,0.7-2.8-0.6
	c-0.8,0-0.3,1.3-1.6,0.9c0.6-0.6,0.1-1.1,0-1.9c-0.8,0.6,0.9,2-1.3,1.9C525.6,645.1,525.4,644.7,524.5,643.6z"/>
<path d="M523.9,643.9c0.4,1-0.8,1.9,0,2.2c-0.8,0.7-3,0.1-4.4,0.3C518.7,643.6,521.9,643.1,523.9,643.9z"/>
<path d="M555.6,645.2c0.1,0.5,1.1-0.4,0.9,0.9c-1.8,0.1-3.8,0.7-5-0.3c-0.7,0.5-1.5,0.8-2.8,0.6c-0.3-0.3-0.2-0.9-0.6-0.9
	c0.8-0.6,0.3-0.4,0.3-1.6c0.6-0.1,0.8-0.7,1.6-0.6c0.2,0.3,0.3,0.7,0.3,1.3c0.4-0.2,0.6-0.7,0.6-1.3c1,0.7,2.2-0.7,2.5,0.6
	c0.7-1.1,2.4-1,3.5-0.3C555.9,644.3,556.4,644.6,555.6,645.2z"/>
<path d="M502.9,645.2c0.5-0.1,0.5,0.3,0.9,0.3c-0.2,0.6-0.6,0-0.9,0c1.1,1.6,1,0.6-0.6,0.9C502.4,646,502.7,645.6,502.9,645.2z"/>
<path d="M570.3,651.1c-0.5,1.3-3.2,0.9-4.1,0.3c-2.5,0.5-4.7,0.1-7.8,0.3c0.1-0.5-0.2-0.6-0.6-0.6c0.1-1.4,1.9-1,1.9-2.5
	c1.9,0.7,2.9-1.1,4.1,0.6c0.2-1,2.5,0,2.5-1.3c0.7,0.9,3.1,1.1,3.8,0.3C570.8,649,568.3,650.9,570.3,651.1z M567.5,650.8
	c0.1-0.2,0.3-0.4,0.6-0.3c0.1,0.5-0.1,1.2,0.3,1.3c-0.3-0.9,0.4-0.8,0.3-1.6C568,649.9,566.7,650.5,567.5,650.8z"/>
<path d="M503.5,649.6c0.6,0.2-0.2,0.3-0.6,0.3c0,0.4,0.6,0.3,0.9,0.3c0,0.5-0.2,1.2,0.3,1.3c-0.1,0.5-0.9,0.1-0.9,0.6
	c-1-0.3,0.1-1.1,0.3-1.3c-0.5-0.7-0.8-0.5-1.6-0.3C502.4,650.1,502.7,649.6,503.5,649.6z"/>
<path d="M504.8,652.7c0.1,0.6-0.3,0.6-0.3,0.3c-0.4,0.1-0.3,0.6,0,0.6c-0.5,0.3-1.1,1.2,0.3,0.9c-0.3,0.5-0.8,0.7-1.6,0.6
	c0.2-1-0.3-1.1-0.3-1.9C503.8,653.4,503.9,652.6,504.8,652.7z"/>
<path d="M563.7,657.4c0.5,0-0.3,1.3-0.9,1.3c-0.3-2.2-4.2-1.2-5-1.3c-0.6-0.7,0.1-2.6-1.3-2.5c0.3-0.7,1.6-0.5,1.6-1.6
	c1.6,1.7,3.6,0.1,5,1.3C562.1,655.3,563,657.9,563.7,657.4z"/>
<path d="M556.2,656.8c-4,0.8-8.1,0.5-11.9,0.3c0.2-0.6,0.5-1.1,0.6-1.9c-0.9,0.4-0.9,1.6-1.6,2.2c-1.9-0.2-2.6,0.1-4.4-0.3
	c0.5-1.1-0.3-2.1,0.6-3.1c1.8,0.7,4.8,0,6.3,0.3c0.8,0.3-0.6,1.4,0.3,1.9c1.1-0.3,0-0.8,0.3-1.9c4.1-0.8,5,0.4,8.8-0.3
	c0.8,1.2,0,2.1,1.3,2.8C556.5,657.1,556.2,657,556.2,656.8z"/>
<path d="M532.7,656.5c-2.5,1.6-4.5,0.4-7.8,0.9c-0.7-1.1,0.1-1.1-0.3-2.8c1,0.3,3.8-1.3,4.1,0.6c0.6-0.4,2.2-1.8,2.8-0.3
	c1.7-1.4,3.8-0.5,6.3-0.3c0,1.8-0.7,1.1-0.6,2.8C534.8,656.4,533.6,658.7,532.7,656.5z"/>
<path d="M502.6,655.5c0.7,0.2-0.5,1.2-0.3,1.9c-1.2-0.1,0.4-1.1-0.9-0.9c0.6-0.4-0.2-2,1.3-1.6C502.2,655,502.2,656.4,502.6,655.5z"
	/>
<path d="M502.3,658.7c-0.4,1-0.9-0.3-0.6-0.9c0.8,0,1.5,0,1.9,0.3C503.4,658.5,501.6,657.7,502.3,658.7z"/>
<path d="M504.1,659.6c-0.4-0.1-0.3-0.8-0.3-1.3c0.2-0.4,1.2,0,1.3-0.6C505.7,659,503.8,657.9,504.1,659.6z"/>
<path d="M523,659.3c0.4,0.1,0.2,0.3,0,0.3c1.7,1,1.3-1.2,2.8,0.6c-0.1-0.6,0.7-0.3,0.9-1.3c0,0.9,1.7,0.2,1.6,1.3
	c0.4-0.2,0.6-0.7,0.6-1.3c1.1,1.8,4.7-0.3,5.3,1.3c0.3-0.2,0.7-0.3,1.3-0.3c0.1-0.5-0.5-0.8,0-0.9c0.7,0.1,1.1,0.6,1.3,1.3
	c0.7-0.4,1.4-0.9,2.8-0.6c-0.3,1.4,0.7,2-0.3,3.8c-2-0.5-5.2,1.2-4.4-0.9c-0.8,0-0.3,1.3-1.6,0.9c0.4-1-0.2-1.4,0.3-1.9
	c-0.1-0.3-0.6-0.2-0.6-0.6c-0.9,0.7,0.8,2.6-1.3,2.5c0.5-0.9-0.1-1.6,0.3-2.2c-0.2,0-0.4,0-0.6,0c-0.9,0,0.7,0.9-0.6,0.6
	c-0.3,0.9,0.4,0.8,0.3,1.6c-0.8,0.1-1.6,0.1-1.3-0.9c-0.4,0.1-0.3,0.8-0.3,1.3c-2.2-0.1-4.1-0.2-5.6,0.3c-0.5-0.1,0-0.3,0-0.6
	c-2.2,0.1-2.2,1.1-3.8,0c0.3-1-0.8-3.5,0.9-3.1c-0.4,1.6,0.8,1.7,1.3,2.5C522.8,662,521.4,659.7,523,659.3z M527.7,662.1
	c0.8-0.4,0.8,1.5,1.3,0.3c-0.8-0.4-0.1-1.5-0.6-1.6C528.1,661.3,527.8,661.6,527.7,662.1z M535.8,662.4c0.5,0,1,0,1.6,0
	c0.2-0.7-0.8-1.9-1.3-0.9C537.2,661.8,535.8,662.1,535.8,662.4z"/>
<path d="M559,659c0.9,1.3,4.7,0.9,7.2,0.6c0.2,2.3,1.2,1.8,2.2,3.8c-1.2,0.3-2.2,0.1-3.1-0.6c-0.4,0.1-0.6,0.4-0.6,0.9
	c-5.1-0.8-10.9-0.3-15.4-0.3c0-2.1,0.6-1.7,0.6-3.5c0.4,0.1,0.6-0.1,0.6-0.3c1.1-0.1,0.9,0.9,1.6,1.3c0.9-0.3-0.5-0.8,0.3-1.3
	c0.4,0,0.8,0,1.3,0c-0.1,0.3-0.3,0.3-0.3,0.6c0.8-0.8,2.6-0.5,3.5-1.3C556.2,660,558.6,659.2,559,659z"/>
<path d="M547.1,659.3c0.3,0.3,0.1,0.6,0.3,1.6c-1.4-0.1-0.4,1.8-1.6,2.5c-1.2-0.1-3,0.3-3.8-0.3c0.2-0.7,1-2.4,0-2.5
	c0.3-0.8,1.3-0.8,1.9-1.3c0.4,0.3,0.6,0.8,0.9,1.3c0.5-0.1-0.1-0.4,0-0.9C545.6,659.4,547,660,547.1,659.3z"/>
<path d="M582.6,665.6c0.1-0.5-0.2-0.6-0.6-0.6c0.1-0.4,0.8-0.3,1.3-0.3c-0.2,0.3-0.4,0.6,0,0.6c-0.5,0.2-0.5,1-1.3,0.9
	C581.8,665.7,582.2,665.6,582.6,665.6z"/>
<path d="M561.2,667.4c1,0-1.4,1.3,0.3,1.3c-0.1,0.4-1.3,0.6,0,0.6c0.1,0.8-1.2,0.2-0.9,1.3c-2.8,0.1-4.5-0.3-6.6-0.3
	c-1.6,0-4.3,1.2-4.1-2.2c2.3-2,8.6,0.7,9.7-1.9c0.5-0.2,0.5,1.5,0,1.3C559.8,667.5,561,667.9,561.2,667.4z"/>
<path d="M528.9,666.5c0.7,0.1-0.3,0.8-0.6,0.9c1.9,0.7,3.8-0.2,6.3-0.3c0,0.3,0,0.6,0,0.9c2.5-2.1,2.8,1.2,3.1,1.9
	c-1,1.5-5.3-0.3-6.3,1.3c-2.7-1-4.5-0.6-6.6,0c-1.4-0.7-1.8-0.5-3.8-0.6c0-1.8-0.3-2,0.3-3.1c0.7,0.1,1.4,0.7,1.6-0.3
	c0.5,0.1-0.1,0.4,0,0.9c0.6-1,1.9-0.9,1.6,0c0.9-0.3,2.2-1,2.5,0C527.6,667,527.9,667.3,528.9,666.5z"/>
<path d="M571.3,670c-2.6,0.9-6.7,0.3-9.1,0.3c-0.3-0.6,0.4-1.1,0-2.5c2.1-1.1,6.5,0.6,7.8-1.3c0.8,1,2.4,0.9,3.5,0.6
	c0.5,0.4-0.8,1.6-0.3,3.1c-1.4-0.4-1.1,0.7-1.9,0.9C570.4,671.9,572.2,670.4,571.3,670z"/>
<path d="M540.5,667.1c1.5-0.8,1.5,1.4,2.2,1.9c-0.7,1.1-1.7,1.8-3.8,1.6c-0.9-0.7-0.1-1.3-0.9-2.2
	C538.2,667.5,541,667.6,540.5,667.1z"/>
<path d="M519.5,667.4c0,0.8,0.2,1.3,0.6,1.6c-0.2,0.9-0.5-0.5-0.9-0.3c0.2,0.6,0.2,1.3,0.6,1.6c-0.3,1.2-3.4-0.6-3.5,0.9
	c-0.9-0.6-1.1-0.4-1.9-0.6c0.2-1.2,0.5-1.8-0.9-1.9c-0.2-0.9,0.6-0.6,0.6-1.3C517.5,668.1,517.1,667.8,519.5,667.4z"/>
<path d="M577.2,667.8c-1.1-0.6,1.1,0.1,0,0.3c0.2,0.4,0.7,0.6,1.3,0.6c-0.5,1.2-1.8-0.8-1.9,0C575.8,669.3,576.8,667.8,577.2,667.8z
	"/>
<path d="M506.3,668.4c0.3,0.2,0.7,0.3,1.3,0.3c-0.8,0.9-0.5,0.7,0.3,1.3c0,0.2,0,0.4,0,0.6C507,670.2,506.4,669.6,506.3,668.4z"/>
<path d="M577.5,670.3c0.4-0.5,1.1-0.6,1.9-0.6c0,0.3-0.4,0.2-0.6,0.3c0,0.3,0.4,0.2,0.6,0.3C579,670.7,578.1,670.4,577.5,670.3z"/>
<path d="M557.5,672.1c0.2,0.7,4.9,1,5,0c1.5,1.5,2,0,3.8,0.9c-0.4,2.5,1,1.2,1.3,3.1c-0.2-0.2-1.5-0.8-1.3,0.3
	c-4.5-2.5-11.3,1.9-13.5-2.8c-0.3,0.1-0.3,0.3-0.6,0.3c1.6-0.2-0.1,1.1,1.3,1.6c-1.4,0.7-4.1,0.1-6,0.3c-0.4-1.1,0.2-1.3-0.3-1.9
	c0.7-1.8,3.3-0.7,4.4-1.6c0.1,0.6,0.8,0.6,1.3,0.9c0.6-0.8-0.2-0.7,0.6-0.9C554.2,673.7,556.1,672.9,557.5,672.1z"/>
<path d="M507,673.7c-0.1,0.4-0.8,0.3-1.3,0.3c0-0.3,0.4-0.2,0.6-0.3c-0.1-0.4-0.9-0.4-0.9,0c-0.5-0.1-0.1-0.9-0.6-0.9
	c0.5-0.2,1.8-0.3,2.5,0C506.8,673.1,505.7,672.9,507,673.7z"/>
<path d="M504.8,675c0.2-0.3,0.4-0.6,0-0.6c0.5-0.2,3.1,0.3,3.1,1.6C506.7,675.1,506.6,675,504.8,675z"/>
<path d="M578.5,675.9c-0.9-0.4,0.5-0.4,0.6,0c-0.4,0.4-0.3,0.6,0.3,0.6c0,0.2,0,0.4,0,0.6c-0.3-0.1-0.3,0.1-0.3,0.3
	c-0.4-0.1-0.2-0.3,0-0.3c-0.5-1-1.4-0.1-1.9-0.6C577,675.3,579.2,676.8,578.5,675.9z"/>
<path d="M511,676.9c0,0.6-0.9,0.4-0.6,1.3c-0.5,0-1-0.9,0-0.6c0-0.6-0.9-0.4-0.6-1.3C510.6,676,510.4,676.8,511,676.9z"/>
<path d="M508.5,678.4c-0.2-0.9,0.6-0.6,0.6-1.3c0.5,0.4,0.5,1.2,0.9,1.6c0.6,0,0.4-0.9,1.3-0.6c0,0.9-0.8,0.9-1.6,0.9
	C510.1,678.1,509.1,678.5,508.5,678.4z"/>
<path d="M580.7,678.1c0.6,0.5-0.1,2.7-1.3,1.9c0.1-0.4,0.6-0.3,0.9-0.3C579.8,678.5,580.6,679.2,580.7,678.1z"/>
<path d="M523.3,679.4c0.1-0.4,0.8-0.3,1.3-0.3c0.2,1.4-1,0.7-0.3,1.9c-0.3,0-0.6,0-0.9,0c0-0.3,0.4-0.2,0.6-0.3
	C523.3,680.1,523.6,679.6,523.3,679.4z"/>
<path d="M516.4,680c0.3,0.2,0.3,0.7,0.9,0.6c-0.5,1.2,0.2,0.5,0.3,1.6c-0.5-0.9-1.3,0.5-1.6-0.3c-0.8-0.5,0.9,0.3,0.9-0.6
	C517,680.6,516.1,680.8,516.4,680z"/>
<path d="M573.5,690c-0.2,0-0.4,0-0.6,0c-0.8-0.6,0.9-0.1,1.3,0c-0.1,0.3-0.3,0.3-0.3,0.6c0.2,0.6,0.9,0.2,0.3,0.9
	C573.6,691.3,573.4,690.8,573.5,690z"/>
<path d="M491.9,744.3c-0.2-0.7-1.5-1-0.6-1.9c0.3,0.5,1,1,1.3,0c-0.2-0.5-0.3,0-0.3,0.3c-0.6,0.3-0.2-1.8-0.6-0.6
	c0.4-3.4,2.6-9.8,2.5-15.7c-1.3-1.9-3.1-3.4-3.8-6c-0.8-1.1-2.6-1.1-4.1-1.6c0.2-1.3-0.8-7.8-2.2-7.5c3.3-2.3,12.4-0.9,19.1-0.9
	c39.4,0,71.8-1.4,106-0.6c-0.1,2.8-0.7,4.9-0.9,7.5c-1.6-0.2-1.6,1.3-3.5,0.9c-4.2,5.7-6.3,13.1-3.5,21.6c1.8,5.5,5.2,11.4,8.5,15.7
	c4.3,5.8,12.3,10.2,18.2,15.4c0.1,6.6,0.1,10.5,0.3,17.9c-0.3,0-0.2,0.4-0.3,0.6c-6.9,6.6-21.8,5.3-36.4,4.7
	c-15.6-0.7-34.9,0.5-51.8,0c-23.3-0.7-52.5,0.5-74.7,0.3c0.4-5.7-1-11.3,0-14.4c0.2-0.7,0-0.4,0.6-0.3c-0.7-1.6-0.7-2.7-1.3-3.8
	c2-2.9,4-5.4,7.5-5.3c-0.1-0.4-0.8-0.3-1.3-0.3c1.2-3,6.6-2.8,11.3-2.8c5.7,0,11.6,0.8,17.3,0.3c-0.3-0.8-0.5-1.8-1.9-1.6
	c0.9-1.3,2.2,0.6,3.1,0.3c1-1,1.7-1.7,3.1-1.6c0-0.6-1.1-0.2-1.3-0.6c0.3-0.4,0.5,0.1,0.9-0.6c-0.1-0.8-0.5,0.4-1.3,0
	c-0.2,1.9-1.5,0.7-1.6,2.5c-1.6-0.7,0.6-1.7,0.6-2.8c-0.9-0.2-0.9,0.4-1.9-0.6c1.3-0.5,2.7-0.3,3.5,0.6c0-1.1,0.4-3.3-2.5-3.5
	c0,0.9,1.8,0.3,1.9,1.9c-0.4-0.1-0.6,0.1-0.6,0.3c-1.6,0.1,1-1.1-0.6-1.3c-0.1,0.8-0.5,0-0.9,1.3c-0.8-0.4-3.7-0.1-3.5-1.3
	c0.2-0.5,0.7-0.2,0.6,0.3c0.3-0.2,0.3-0.7,0.9-0.6c-0.6-0.6-1.1-0.5-1.9-0.3c0.8-0.9-0.4-1.4-1.3-0.9c0.1,0.9,1,0.9,1.3,1.6
	c-0.4,0.3-2-0.9-2.2-1.9c-0.5,0.1,0.5,1.5-0.9,1.3c0.2,0.3,0.6,0.5,0.9,0.6c-1.9,0.4-1.9,0.2-4.1,0.9c1.7-0.7,2.8,1.5,3.8,0.6
	c0.9,1.2-1.1,1-1.3,0.9c-0.3-0.2,0.2-1.2-0.9-1.3c-0.6,0.5,0.2,1-0.6,1.6c-0.7-0.4-0.7,0.2-1.3-0.6c-1.7-0.2-1.4,2.4-2.8,1.6
	c-0.2,0.8,0.6,0.6,0.9,0.9c-0.2,0.8-2.1-0.5-0.9,0.6c-1.2,0.1-3.3,0.4-4.1,0.6c-0.1-0.9,0.5-1.1,0.9-0.6c-0.7-0.6-0.8-1.6-0.9-1.9
	c-1.1,0.3,0.7,1.8-0.3,1.9c-1-0.4-1.5-1.2-2.8-1.3c0.4-0.8,1.6,0.2,2.2,0.3c0.8-0.2-2.2-2.1-0.6-2.2c0.7,0.3,0.3,0,0.6,1.3
	c1.3-1.2-0.9-1.6-0.9-2.5c0.4-0.1,0.6-0.4,0.6-0.9c0.7-0.2,0.4,0.6,0.9,0.6c0.7-0.5,1.1-2.4,2.2-1.6c-0.2-1.2-0.9,0.1-1.6-0.6
	c0.8-1.3,0.5-1.2,0.9-2.5c0.5,0.1-0.3,0.6,0.3,0.6c0.9-0.1,0.2-1.3,1.3-1.9c0-0.7-0.9,0.1-0.6,0.6c-0.9-0.5,0.7-1.2,0.6-1.9
	c0.5,0.1,0.3,1,1.3,0.6c-1.3-0.6,0.6-1.1,1.3-1.6c-1-0.1,0-1.9-0.9-0.9c-0.7-0.7,0.6-2.1,1.6-1.3c-1.6-0.5-0.3-2.1,0-3.5
	C491.2,748.1,489.7,744.9,491.9,744.3z M489.7,762.2c0.5-0.4,0.5-1.2,0.9-1.6c0.2,0,0.4,0,0.3-0.3c-1.7,0.3,0-0.8-1.3-0.9
	c-0.7,1.1,0.9,1.4-0.3,2.2c0-0.5-0.9-0.2-0.3,0C489.5,761.5,489.4,762.1,489.7,762.2z M492.9,759c-0.1-0.7,0.1-1.2,0.3-1.6
	c-1.5-0.2-0.4,1.2-0.9,1.3c-0.4,0-0.5-0.5-0.6,0C492,758.8,492.2,759.2,492.9,759z M494.7,758.7c0-0.2-0.3-0.4-0.3,0
	c0.8,0.6,1.8-0.9,2.5,0.3c-0.1-0.9-0.5-1.3-1.6-1.3C495.2,758.2,495,758.5,494.7,758.7z M496.9,759.7c0.7-0.1,1.2,0,1.6,0.3
	c0-0.4,0.6-1.7,0-0.9C498.5,759.6,496.9,758.4,496.9,759.7z M510.1,760c0.4-0.5,1.6,0.3,1.9-0.9C511,759.2,509.5,759,510.1,760z
	 M505.1,760.9c-1.1,0.2-0.4-1.3-1.6-0.9C502.6,761.1,504.4,762,505.1,760.9z M508.2,762.5c-0.5,0.1-1.2-0.1-1.3,0.3
	c1.7-0.1-0.7,1.2,0.3,1.3c1.1-0.6,1.4-2.3,0.9-3.1C507.6,761.5,508.4,761.5,508.2,762.5z M510.1,763.7c0.3-0.4,0.4-0.8,0.3-1.6
	c-1,0.6-1.4,0.1-1.9,0.9c0.6,0.1,1.6-0.3,1.3,0.6c-1-0.4-0.7,0-1.9,0c-0.4,0.9,0.9,1.5,0.9,0.9c-0.3,0-0.4-0.5,0-0.6
	c0.4,1.4,1.3,0.5,2.2,1.6c-1.5,0-0.8,1.1,0,1.3c-1-0.3-1.2,0.3-1.6,0.6c0.1-0.7-0.9-0.3-0.9-0.9c0.8,0,1,0.6,1.3-0.3
	c-1.1,0,0.7-1-0.3-0.9c-0.8,1-2-1.3-2.8-0.3c-0.4-1-0.2-1.2,0.3-1.9c-0.8,0.3-1.3,0.8-1.6,1.6c0.9,0.2,0.4,0.4,0.9,1.3
	c-1.7,0.2-2,0.8-3.5,0.6c0,0.4,0.1,0.9-0.3,0.9c0.5-0.8-1.1-0.9-0.9-0.3c0.4,0.1,0.2,0.3,0,0.6c2.9-0.3,6.4,0.6,7.2-0.6
	c1.1,0.7,1.8,0.4,4.4,0.6c-0.3-1.4,0.7-1.4,1.3-1.9c0.1-1-0.7-1.5,0-2.2c-1-0.3-0.4,1-1.3,0.9c0.3-0.9-0.4-0.8-0.3-1.6
	c0.4,0,0.4,0.4,0.9,0.3c0-0.3,0-0.6,0-0.9C512.4,762.9,511.7,763.2,510.1,763.7z M593.5,763.4c0.7,0,0.9-0.5,1.9-0.3
	c-0.2-0.8-1.6-0.2-0.3-1.6c-1.9-0.2-0.4,1-1.6,1.3c0-0.5-0.9-0.2-0.3,0C593.5,762.9,593.6,763.1,593.5,763.4z M580.1,763.1
	C576.6,762.7,577.4,764.5,580.1,763.1L580.1,763.1z M584.8,763.1c-0.6-0.1-0.6,0.4-0.9,0.6c0.2-0.6-1.6-1.1-1.3,0
	C583.7,763.1,584.1,764.7,584.8,763.1z M485,765c-0.3-0.4-1.1-0.4-1.3-0.9c0,0.4,0,0.8,0,1.3c0.8,0.4,1-0.2,1.3,0.3
	c-0.2,0-0.4,0-0.3,0.3c0.6-0.2,1.3-0.2,1.6-0.6c-1.3-1.7,0.6,0.4,0.6-1.6c-0.9,0-0.6,0.5-1.3,0C485.6,764.3,485.4,764.8,485,765z
	 M593.2,763.7c-0.6,0.6,0.3,1.1,0.6,1.6c0.5-0.3,1.6-1.2,0.3-1.6C594.8,765.3,593.6,764.4,593.2,763.7z M514.5,764.7
	c0.8,0.1,0.5,1.4,1.3,1.6c-0.3,0.7-1.2,0.7-2.2,0.6c0.1,1.7,5.4,1.2,3.5,0c1,0.5,1,0.9,1.9,0.9c0-0.6-0.2-1-0.6-1.3
	c-0.6,1.1-0.9-0.6-1.6-0.3c-0.6,0.1-0.1,1.4-0.9,1.3c0.1-1.1,0.6-2,1.3-2.5c0,1.3,1.8-0.2,1.9-0.9c-1.1,0.5-2.2,0.9-3.8,0.9
	C515,764.7,514.6,764.2,514.5,764.7z M535.2,767.5c-1.2,0.2-0.4-1.7-1.9-1.3c-0.1,0.6,0.4,0.6,0.6,0.9c-0.9-0.3-1.5-0.4-1.9-0.6
	c0.5-0.7,1.9-0.1,0.6-0.9c0.4,0,0.7,0.1,0.9,0.3c-0.1-0.5,0.5-0.8,0-0.9c-0.7,1.1-1.4-0.5-1.9-0.6c0.1,0.6-0.4,0.6-0.6,0.9
	c1.5-0.1-0.3,1.1,0.6,1.6c-0.6-0.1-0.6,0.4-0.9,0.6c-0.1-0.4-0.7-0.4-0.9-0.6c0,0.4-0.1,0.7-0.3,0.9c2.3-0.5,4.7,0.8,6.3-0.6
	c-0.5,0.1-0.8-0.5-0.9,0C535.1,767.2,535.3,767.2,535.2,767.5z M591,767.2c1,0.5,0.7-2,0.9-0.3c0.3-0.2,2.4-0.3,1.6-0.6
	c-1.1,0.3-1.1-0.5-0.6-0.9c-1.4-0.2-2.5,0.7-3.5-0.9C589.6,765.7,591.1,765.7,591,767.2z M588.2,765.3c0.6,1.5-0.7,1.1,0.3,1.9
	c-4.6-0.2,1.4,2.1,1.9-0.9c-0.4,0-0.8,0-1.3,0c-0.3,0.6,0.9,1,0,1.3c-1.3-0.7,0.7-3.2-0.6-2.5c0.2,0,0.4,0,0.3,0.3
	C588.6,765.3,588.4,765.3,588.2,765.3z M550.9,767.2c0-0.2,0-0.4,0.3-0.3c0,0.4,0.1,0.7,0.6,0.6c0.5-1-0.1-1.2-0.6-1.9
	C552.3,766.8,549.9,766.4,550.9,767.2z M552.5,765.9c-0.1,1.5,1.7,0.8,1.6-0.3C552.9,765.8,553.6,766.5,552.5,765.9z M600.1,767.8
	c0.5-1.2-0.8-0.6-0.9-1.3c1,0-0.7-1.3-0.6-0.3c1.4,1.1-1.7,0-0.6,0.6C598.8,767.1,599.2,767.7,600.1,767.8z M576,766.9
	c0.6-0.1,1,1.5,1.3,0.6c-0.2,0-1-1-0.3-0.9c0.5,0.2,0.8,0.5,1.3,0.6C578.4,765.8,576.2,766.2,576,766.9z M587.3,766.2
	c0,0.8-1.1,0.1-1.3,0c-0.1,0.4-0.9,1.5-0.3,1.6c0.2-0.4,0.3-0.7,0.6-0.9C587,767.1,588.1,766.4,587.3,766.2z M520.1,767.2
	c-0.1,1.3,2,0.4,2.5,0.3c0.2-0.5-0.6-1.4-0.6-0.6C523,767.4,520.4,767.8,520.1,767.2z M525.5,767.8c1.2-0.3,0.8-0.7,2.2-0.3
	c0-0.4,0.1-0.9-0.3-0.9c-0.1,0.2,0,0.6-0.3,0.6c-0.1-0.4-0.5-0.3-0.9-0.3C526.2,767.5,525.7,767.5,525.5,767.8z M555.3,767.5
	c-1,0.2-0.4-1.1-1.6-0.6c0,0.4-0.1,0.7-0.3,0.9C554.2,767.2,554.8,768.1,555.3,767.5z M472.8,771.9c-1.9-0.1-1.9-0.2-3.1,0.9
	c1.6-0.6,4,0.6,5.3-0.6c-0.3-1.1-1,0.2-1.6-0.6c1.3-0.3,2.7-0.6,3.1-1.9C476,771,470.4,770.7,472.8,771.9z M525.8,770.3
	c0,0.9,0.5,0.6,0,1.3c1.5-0.6,1.1-0.9,2.2-0.6c-0.4-0.1-0.3-0.5-0.3-0.9c0.4,0,1.2-0.1,0.6-0.3C527.2,769.6,526.6,771,525.8,770.3z
	 M477.8,771c0.2,1.2-1.2,0.7-1.3,1.6c0.5-0.1,1.2,0.1,1.3-0.3c-0.2,0-0.4,0-0.3-0.3c0.8-0.2,1.1-0.4,1.6,0.3c-0.4,0-0.7-0.1-0.9-0.3
	c0.3,1.2,0.2,1.8-0.6,2.5c1.4,0,2.3-0.5,2.8-1.3c-0.7,0.1-1.2-0.1-1.3-0.6c0.6-0.3,1.3-0.5,1.6-1.3c-0.5-0.1-0.8,0.5-0.9,0
	c0-0.5,2-0.6,0.9-1.3C480.3,770.9,479.1,771,477.8,771z M482.8,771.9c0.8,0.4,1.8-0.6,1.9,0c-1.1,1.3-2.7,0.5-3.5,1.9
	c1.8-0.4,4.4,0,5.3-1.9c-0.5-0.1-1.2,0.1-1.3-0.3c0.7-0.4,1.8-0.9,0.6-1.6C486.5,771.6,483.3,770.5,482.8,771.9z M490.3,773.8
	c0-0.2,0-0.4,0-0.6c0.6,0,1.3,0,1.9,0c0.5-1.1-1.1-0.2-0.9-0.9c0.6-0.3,1.3-0.5,1.6-1.3c-0.5-0.1-0.2-0.7,0-0.9
	c-1.9,0.2-0.2,1.2-2.2,0.6c0.3,1.2-1.2,0.9-2.2,1.6c1,0.4,0.7,0,1.9,0c0,0.3,0.3,0.4,0.3,0.6C490.3,772.7,489.6,773.7,490.3,773.8z
	 M494.4,770.6c0,0.3,0,0.6,0,0.9c1.8-0.3,2.8,0.2,4.1-0.9c-0.4,0-0.7-0.1-0.6-0.6C495.5,770.2,497,771.1,494.4,770.6z M505.4,772.8
	c-0.3-1,1-0.4,0.9-1.3c-1-0.2-0.7,1-1.9,0.6c-0.9-0.5,0.5-1.3-0.3-1.6c-0.5,1.8-1.7-0.9-2.5,0.3
	C503.4,771.1,503.9,772.5,505.4,772.8z M513.9,772.2c0.3-0.2,1.7-0.1,2.2-0.9C515.5,770.5,513.1,771.7,513.9,772.2z M495.7,773.5
	c1.1-0.1,1.7-0.6,2.2-1.3c-0.9,0.3-2.2-0.5-2.2,0C496.5,772.3,495.8,773.3,495.7,773.5z M509.5,773.2c0-0.4,0.1-0.9-0.3-0.9
	c-0.1,0.4-0.5,0.3-0.9,0.3c0,0.4-0.1,0.7-0.3,0.9C509.6,773.6,507.8,772.5,509.5,773.2z M473.7,773.8c0.1-0.5-1.7-0.5-1.6,0
	C472.2,774.2,473.9,775.1,473.7,773.8z M482.5,774.1c-0.1,1.5,2.9,0,1.9-0.3C483.8,774.4,483.3,774.3,482.5,774.1z M495.7,774.7
	c-0.1-0.7,1.7,0.7,1.9-0.3C497.3,773.7,494.7,774.2,495.7,774.7z"/>
<path d="M497.6,764.7c-0.2-1,0.6-0.5,0.6,0c0.4-0.1,0.3-0.8,0.3-1.3c0.7,0.2,0.9,0.8,1.9,0.6c-0.1,0.6-0.1,1.4-0.9,1.3
	c0.8-0.5-0.5-1.1-0.3,0C498.2,765.5,498.5,764.4,497.6,764.7z"/>
<path d="M521.7,610c1.2-1.2-1.4-4.2,0.9-5.6"/>
<path d="M561.9,625.7c0.8,1.2,0.9-1,1.9-0.6c-0.7,1.2-0.6,1.9,0.9,1.3c-0.2,0.6,0.4,2.1-0.3,2.2c-1.3,0.1,0-0.5,0-0.9
	c-0.1-0.3-0.3-0.6-0.6-0.6c-0.1,1.8-3.3,1-5,1.3c0.6-1.7-0.4-1.2,0-2.8c-1.3,0.2-0.9,2.3-0.6,2.5c-0.7,0.8-3,0.5-2.2-0.6
	c-1.2,0.9-1.6,1.2-3.1,1.3c0.1-1.5,0.3-1.5,0-2.8c-0.6,0-0.7,0.4-1.3,0.3c-0.2,1,0.9,0.6,0.6,1.6c-1.1,0.8-1.8,1.2-2.8,0.3
	c0.7-1.1,0.3-1.3,0.3-3.1c1.7,1.1,4.3-1.2,4.7,0.6c2.1-1.6,4.8,0.1,6.6-0.9c0.1,0.8,0.1,1.6-0.9,1.3c0.4,0.4,0.4,1.2-0.3,1.3
	c0,0.7,1.3,0.1,1.9,0.3c0.3-1.1-0.5-1.2-0.3-2.2c0.4-0.4,1.1-0.4,1.9-0.3C562.8,625.2,562.6,625.8,561.9,625.7z"/>
<path d="M527,627.3c-0.8-1-0.7,1.6-1.9,1.3c0.5-1.1-0.2-1.4,0.3-2.5c-1.6-0.4-1.2,1.3-1.3,2.5c-1.6-0.7-0.5-2.4,0-3.5
	c0.6,0,1.3,0,1.9,0c0,0.4,0,0.8,0,1.3c0.6-0.1,0.7-0.5,0.6-1.3c0.8-0.1,1,0.4,0.9,1.3c0.4-0.1,0.3-0.8,0.3-1.3c0.7,0,1.5,0,2.2,0
	c0.1,1-0.7,1-1.6,0.9c1.4,0.4,0.6,1.1,0,1.9c0.8,0.1,0.7-0.6,1.6-0.3c-0.2,1.9-2.5,0.3-3.5,0.9C526.8,628,526.6,627.3,527,627.3z"/>
<path d="M538.3,632.6c-0.4,1.4-0.2,1.8,0.3,2.8c-1.9,0.2-2.8-0.3-4.1,0c0.1-0.2,0.8-1.2,0-1.3c-0.5,0.1,0.3,1-0.6,1.3
	c-0.7-0.4,0.2-1.7-1.3-2.5C534.7,632.4,535.9,632.9,538.3,632.6z"/>
<path d="M545.2,632.9c0,1.4-0.5,2.3-1.6,2.5c-0.4-0.2,0-1.2-0.6-1.3c-0.9,0.3,0.5,0.8-0.3,1.3c-0.9,0-1.9,0-2.8,0
	c-0.5-0.7,0.7-1.6,0-2.2C541.5,632.3,543.3,632.2,545.2,632.9z"/>
<path d="M528.3,632.6c1.2,0.7,2.8-0.1,3.8,0.3c-0.6,1,0.1,1.3-0.3,2.5c-2.3-0.3-2.3,0.8-3.8,0C528,634.5,527.8,633.1,528.3,632.6z"
	/>
<path d="M514.8,632.9c0.7-0.1,1,0.3,0.9,0.9c0.4-1.2,1.6-1.1,2.8-0.6c-0.2,0.7-1.3,1.5,0,1.9c-0.2,1-2.6,1.3-2.5-0.3
	c-1.1-0.5-0.2,1.1-0.9,0.9C514.1,635.7,515.7,634.1,514.8,632.9z"/>
<path d="M531.7,638.6c-0.7,0.7-0.7,0.8,0,2.2c-1.6,1.1-2.8-0.6-4.1,0c0.3-0.4,0.4-0.8,0.3-1.6c-0.7,0.3-0.5,1.4-0.9,1.9
	c-0.3-1.1-0.7-2-1.3-2.8C528.1,638.9,529.7,637.5,531.7,638.6z"/>
<path d="M533,638c1.1,0.3,2.8,0.4,5,0.3c0,0.6,0,1.3,0,1.9c0.6-0.6,0.6-1.4,0.3-2.2c2,0.3,4.2,0.2,6.3,0c1,0.2,0,2.5,1.3,2.5
	c-4.8,0.7-9.1,0.2-12.5,0.3C533.6,639.5,532.8,639.2,533,638z"/>
<path d="M524.2,637.6c1.3,0.8-0.3,2.1-0.3,3.5c-1.1,0.1-2,0-2.8-0.3c0-0.8,0-1.7,0-2.5C522.6,637.9,523.9,639.3,524.2,637.6z"/>
<path d="M532.1,643.3c1.1,0.2,2.4,0,3.5,0.9c0,0.7-0.5,0.9-0.3,1.9c-1.4-0.2-2.4,0.8-3.5,0C532.1,644.7,531.7,644.5,532.1,643.3z"/>
<path d="M536.5,643.6c1.5-0.1,3-0.6,4.1,0.3c-0.8,0.4-0.8,1.7-1.3,2.5c-0.9,0-1.9,0-2.8,0C536.2,645.4,536.8,643.7,536.5,643.6z"/>
<path d="M547.1,643.6c-0.8,1.3,0.2,1.7,0.3,2.8c-2.6,0.1-3.6-0.5-5.3,0c0-0.9-0.1-2-0.9-2.8C543.8,643.2,544.7,643.4,547.1,643.6z"
	/>
<path d="M567.8,643c-0.4,1.9,0.8,2.1,0.9,3.5c-1.5,0.2-2-0.5-3.5-0.3c0.1-0.4,0.6-0.5,0.6-0.9c-0.9,0.8-2-0.2-1.9,1.3
	c-2-0.4-4.2,0.2-6.9-0.6c0.5-0.1,1.1-1.5,0.3-1.9C559.5,642.5,564.2,643.9,567.8,643z"/>
<path d="M529.2,650.8c-0.7-0.7-1,1.5-2.5,0.9c0.2-1.6,0.2-1.5,0-3.1c8.2,0.4,9.4,0.1,18.5,0.3c0,0.5,0.2,0.8,0.6,0.9
	c-1.3,0.7,0.2,0.9,0.6,1.6c-2.1,0.7-5.5,0.1-8.5,0.3c-0.2-0.5,0.4-1.6-0.3-1.6c-0.9,0.3,0.6,1.1-0.3,1.6c-3.7-0.2-5.4,0.4-8.8,0
	C528.9,651.5,528.8,650.9,529.2,650.8z"/>
<path d="M551.2,648.6c3,0.2,3.5,0.3,6.3,0c0.1,1.3-0.7,1.8-0.3,3.1c-1.8-0.3-4.6,0.5-6-0.3C551.2,650.5,551.2,649.6,551.2,648.6z"/>
<path d="M523.3,650.2c0.6,0.1-0.1-0.9-0.3-0.9c1-0.8,1.8-0.4,2.5,0.3c0.3,0.8-1,1.5,0,1.9c-2,1-5.7,0-7.8,0.6
	c-0.3-0.7,0.2-2.3-0.3-3.5c1.2,0.7,2.3,0.1,3.5,0.3c1.2,0.8-0.4,1.1,0.3,2.2c0.6-0.4,0.7-1.4,0.9-2.2
	C522.9,648.9,522.8,649.8,523.3,650.2z"/>
</svg>
