<?xml version="1.0" encoding="utf-8"?>
<!-- Generator: Adobe Illustrator 19.0.0, SVG Export Plug-In . SVG Version: 6.00 Build 0)  -->
<svg version="1.1" id="Layer_1" xmlns="http://www.w3.org/2000/svg" xmlns:xlink="http://www.w3.org/1999/xlink" x="0px" y="0px"
	 viewBox="-476 626.6 133.9 166.7" style="enable-background:new -476 626.6 133.9 166.7;" xml:space="preserve">
<g id="Layer_5_copy">
</g>
<g id="Layer_2">
	<g>
		<g>
			<path d="M-438.8,631.8v25h90.2v18.3h-90.2V719c0,11.2,4.7,14,9.6,14c2.6,0,4.5-0.2,6.9-0.6l0.2,20.1c-3.5,1-9,1.8-15.7,1.8
				c-7.5,0-14-1.8-18.7-6.1c-5.1-5.1-8.1-12.4-8.1-27.5v-45.6H-476v-18.3h11.4v-16.9L-438.8,631.8z"/>
			<g>
				<path d="M-413.1,751.9v-47.5c0-6.7-0.3-14-0.6-20.4v-0.1h17.4l1.1,9.8h0.4c3.4-7.7,9.8-11.1,14.6-11.1c2.2,0,3.3,0.2,4.3,0.4
					h0.1v18.1h-0.1c-1.2-0.1-2.5-0.1-4.2-0.1c-4.1,0-9.7,2.5-11.9,9.5c-0.6,1.5-0.9,3.9-0.9,6.8v34.6
					C-392.9,751.9-413.1,751.9-413.1,751.9z"/>
				<path d="M-380.3,682.8c2.1,0,3.2,0.1,4.2,0.4v17.9c-1.2-0.1-2.6-0.1-4.2-0.1c-4.2,0-9.9,2.6-12,9.6c-0.6,1.5-0.9,4-0.9,6.8v34.5
					H-413v-47.5c0-6.7-0.3-14-0.6-20.4h17.1l1.1,9.8h0.6C-391.6,686.7-385.6,682.8-380.3,682.8 M-380.3,682.5
					c-5.8,0-11.7,4.5-14.7,11.1h-0.2l-1-9.6v-0.2h-0.2h-17.2h-0.3v0.3c0.3,6.3,0.6,13.7,0.6,20.4v47.4v0.2h0.3h19.9h0.2v-0.2v-34.6
					c0-2.9,0.3-5.3,0.9-6.7c2.1-6.9,7.7-9.4,11.7-9.4c1.7,0,3,0,4.2,0.1h0.3V701v-17.8V683h-0.2C-377,682.7-378,682.5-380.3,682.5
					L-380.3,682.5z"/>
			</g>
			<g>
				<polygon points="-367.3,751.9 -368.6,683.9 -348.5,683.9 -349.8,751.9 				"/>
				<path d="M-348.6,684l-1.3,67.8h-17.2l-1.3-67.8H-348.6 M-348.3,683.8h-0.3h-19.9h-0.3v0.3l1.3,67.8v0.2h0.2h17.2h0.2v-0.2
					l1.3-67.8L-348.3,683.8L-348.3,683.8z"/>
			</g>
		</g>
		<g>
			<path d="M-423.1,653.2h-3.4v-5.6h-3.6c-1,0-1.7-0.3-2.3-0.8c-0.6-0.5-0.9-1.3-0.9-2.3v-9.4c0-0.9,0.2-1.6,0.7-2.1s1.2-0.8,2-0.8
				c0.4,0,1.7,0.2,3.9,0.6v-0.4h3.4v20.8L-423.1,653.2L-423.1,653.2z M-426.6,644.8v-9.4c-1.3-0.1-2-0.2-2.2-0.2
				c-0.7,0-1.1,0.4-1.1,1.1v7.3c0,0.8,0.4,1.1,1.1,1.1h2.2V644.8z"/>
			<path d="M-410.9,647.6h-3.4v-0.5c-0.8,0.1-1.6,0.3-2.4,0.4c-1,0.2-1.8,0.2-2.4,0.2c-1.3,0-1.9-0.6-1.9-1.9v-13.4h3.4v12.4
				l3.3-0.1v-12.3h3.4C-410.9,632.4-410.9,647.6-410.9,647.6z"/>
			<path d="M-399,647.6h-3.3v-0.5c-0.8,0.1-1.6,0.2-2.4,0.4c-1,0.2-1.8,0.2-2.3,0.2c-1.3,0-1.9-0.6-1.9-1.9v-5.5
				c0-1.3,0.7-1.9,2-1.9h4.7v-3.5h-3.3v2.2h-3.1v-2.8c0-1.3,0.7-1.9,2-1.9h5.6c1.3,0,1.9,0.6,1.9,1.9v13.3H-399z M-402.3,644.9v-4.1
				h-3.3v4.2L-402.3,644.9z"/>
			<path d="M-386.9,647.6h-3.5v-12.3l-3.2,0.1v12.2h-3.4v-15.2h3.5v0.6c0.8-0.1,1.6-0.3,2.4-0.4c1-0.2,1.8-0.2,2.4-0.2
				c1.3,0,1.9,0.6,1.9,1.9v13.3H-386.9z"/>
			<path d="M-377.8,647.6h-3.8c-1.3,0-1.9-0.6-1.9-1.9v-10.4h-1.6v-2.9h1.6v-4.2h3.4v4.1h2.2v2.9h-2.2v9.4h2.3V647.6z"/>
			<path d="M-372.6,630.2h-3.5v-3.6h3.5V630.2z M-372.7,647.6h-3.4v-15.2h3.4V647.6z"/>
			<path d="M-360.8,645.7c0,1.3-0.6,1.9-1.9,1.9h-6c-1.3,0-1.9-0.6-1.9-1.9v-11.4c0-1.3,0.6-1.9,1.9-1.9h6c1.3,0,1.9,0.6,1.9,1.9
				v3.6h-3.4v-2.6h-3.1v9.5h3.1v-2.9h3.4L-360.8,645.7L-360.8,645.7z"/>
			<path d="M-348.7,645.7c0,1.3-0.6,1.9-1.9,1.9h-6.2c-1.3,0-2-0.6-2-1.9v-11.4c0-1.3,0.6-1.9,2-1.9h6.2c1.3,0,1.9,0.6,1.9,1.9
				V645.7z M-352.1,644.8v-9.5h-3.3v9.5H-352.1z"/>
		</g>
		<path d="M-430.8,776c0,4.8-1.7,8.8-5,12.2c-3.3,3.4-7.3,5.1-12,5.1c-4.7,0-8.8-1.7-12.1-5.1c-3.3-3.4-5-7.4-5-12.2
			c0-4.9,1.7-9,5.1-12.4c3.4-3.3,7.4-5,12.1-5c4.6,0,8.6,1.7,12,5C-432.5,767-430.8,771.1-430.8,776z"/>
		<path d="M-386.4,776c0,4.8-1.7,8.8-5,12.2c-3.3,3.4-7.3,5.1-12,5.1s-8.8-1.7-12.1-5.1s-5-7.4-5-12.2c0-4.9,1.7-9,5.1-12.4
			c3.4-3.3,7.4-5,12.1-5c4.6,0,8.6,1.7,12,5C-388.1,767-386.4,771.1-386.4,776z"/>
		<path d="M-342.1,776c0,4.8-1.7,8.8-5,12.2c-3.3,3.4-7.3,5.1-12,5.1c-4.8,0-8.8-1.7-12.1-5.1c-3.3-3.4-5-7.4-5-12.2
			c0-4.9,1.7-9,5.1-12.4c3.4-3.3,7.4-5,12.1-5c4.6,0,8.6,1.7,12,5C-343.8,767-342.1,771.1-342.1,776z"/>
	</g>
</g>
</svg>
