<?xml version="1.0" encoding="utf-8"?>
<!-- Generator: Adobe Illustrator 19.0.0, SVG Export Plug-In . SVG Version: 6.00 Build 0)  -->
<svg version="1.1" id="Layer_1" xmlns="http://www.w3.org/2000/svg" xmlns:xlink="http://www.w3.org/1999/xlink" x="0px" y="0px"
	 viewBox="-140 265.5 329.5 262.5" style="enable-background:new -140 265.5 329.5 262.5;" xml:space="preserve">
<style type="text/css">
	.st0{fill:#FFFFFF;}
</style>
<g>
	<polygon class="st0" points="-48.7,507 -52.1,501.3 -54.5,507.4 -60.9,508.9 -55.9,513.1 -56.5,519.7 -50.9,516.2 -44.8,518.7 
		-46.5,512.3 -42.1,507.4 	"/>
	<polygon class="st0" points="-10.2,513.2 -13.6,507.5 -16,513.6 -22.5,515.1 -17.4,519.3 -18,525.9 -12.4,522.3 -6.4,524.9 
		-8,518.5 -3.6,513.6 	"/>
	<polygon class="st0" points="26.2,515.2 22.8,509.6 20.4,515.7 14,517.2 19.1,521.4 18.5,528 24,524.4 30.1,527 28.5,520.6 
		32.8,515.7 	"/>
	<polygon class="st0" points="60.8,506.7 57.4,501 55,507.1 48.6,508.6 53.6,512.8 53,519.4 58.6,515.9 64.7,518.5 63.1,512.1 
		67.4,507.1 	"/>
	<polygon class="st0" points="95.4,491.6 92,485.9 89.6,492.1 83.1,493.5 88.2,497.7 87.6,504.3 93.2,500.8 99.2,503.4 97.6,497 
		102,492 	"/>
	<path class="st0" d="M-102.8,348c-6.2-0.7-12.3-1.7-18.5-3c-1.4-0.3-2.4-0.4-2.9-0.2c-0.5,0.2-0.8,0.6-0.8,1.2s0.2,1.1,0.6,1.5
		s1.3,0.8,2.8,1.1c5.7,1.2,11.4,2.1,17.1,2.8c1.8,0.2,2.9,0.6,3.5,1.1c0.5,0.5,0.8,1.2,0.8,2c0.1,7.8,0.1,9.6,0.2,17.4
		c0,1.8-0.3,2.9-0.8,3.4c-0.6,0.5-1.3,0.7-2.2,0.8c-0.9,0-1.5,0.1-1.8,0.3c-0.3,0.2-0.5,0.6-0.5,1.2c0,1.1,0.9,1.8,2.8,2
		c0.6,0.1,1.5,0.1,2.9,0s4.7,0.2,6.2,0.6c1.5,0.4,2.6,0.6,3.2,0.6c0.8,0.1,1.5-0.1,2.1-0.4c0.5-0.3,0.8-0.6,0.8-1s-0.1-0.8-0.4-1.1
		c-0.3-0.3-1.1-0.7-2.4-1.1c-1.3-0.4-2.2-1-2.7-1.8c-0.4-0.7-0.7-1.5-0.7-2.4c-0.1-13.6-0.2-27.2-0.3-40.8c0-1.9,0.3-3.1,0.9-3.6
		s1.3-0.9,2.2-0.9c0.9-0.1,1.5-0.2,1.8-0.4c0.3-0.2,0.5-0.6,0.5-1.3c0-1-0.6-1.6-1.9-1.7c-1.2-0.1-2.4-0.1-3.7,0
		c-1.3,0.1-5.2-0.3-6.7-0.7c-1.5-0.4-2.7-0.6-3.7-0.8c-0.5-0.1-1,0-1.4,0.3c-0.4,0.3-0.6,0.5-0.6,0.9c0,0.5,0.1,0.9,0.4,1.3
		c0.2,0.4,0.9,0.8,2,1.2c2,0.8,3.1,1.8,3.3,3c0.1,1.2,0.2,10.7,0.3,16.4c0,0.9-0.1,1.5-0.4,1.8C-101.2,348-101.8,348.1-102.8,348z"
		/>
	<path class="st0" d="M-136.9,319.9c1.3,0.7,2.1,1.5,2.5,2.3c0.4,0.8,0.6,1.7,0.6,2.6c0.1,13.7,0.2,27.4,0.3,41
		c0,1.8-0.3,2.8-0.8,3.2c-0.6,0.4-1.3,0.5-2.1,0.4c-0.9-0.1-2.2,1.5-2.2,2.2c0,1.1,0.9,2,2.8,2.5c0.6,0.2,1.5,0.3,2.9,0.5
		c1.4,0.1,5,0.3,6.2,0.6c1.6,0.4,2.6,1,3.2,1.1c0.8,0.2,1.5,0.2,2.1-0.1c0.5-0.2,0.8-0.5,0.8-0.9c0-0.4-0.1-0.8-0.4-1.2
		s-1.1-0.9-2.4-1.6c-1.3-0.7-2.2-1.5-2.6-2.2c-0.4-0.7-0.6-1.5-0.7-2.3c-0.1-13.6-0.2-27.3-0.3-40.9c0-1.8,0.3-2.9,0.8-3.3
		c0.6-0.5,1.3-0.7,2.2-0.7s1.5-0.1,1.8-0.2c0.3-0.2,0.5-0.6,0.5-1.2c0-1-0.6-1.7-1.9-1.9c-1.2-0.3-2.4-0.4-3.7-0.5
		c-1.3-0.2-5.3-1.2-6.7-1.8s-2.7-1.1-3.7-1.4c-0.5-0.2-1-0.1-1.4,0c-0.4,0.2-0.6,0.4-0.6,0.8c0,0.5,0.1,0.9,0.4,1.3
		C-139,318.6-138.2,319.2-136.9,319.9z"/>
	<path class="st0" d="M-82.4,377.5c-1.3,0.2-2,0.4-2.2,0.6c-0.2,0.3-0.3,0.6-0.3,0.9c0,1.2,1,1.9,2.9,2c0.7,0,1.7,0,3.1-0.2
		c1.4-0.2,4.9-0.1,6.3,0.1c1.4,0.2,2.5,0.4,3.2,0.4c1.6,0,2.4-0.5,2.4-1.5c0-0.5-0.1-0.9-0.4-1.2c-0.3-0.4-1-0.7-2.2-1
		s-2-0.8-2.3-1.3c-0.4-0.6-0.5-1.2-0.5-2c-0.1-13.4-0.2-26.9-0.3-40.3c0-1.7,0.2-3,0.7-3.9s1.2-1.4,2.2-1.6s1.7-0.4,2.1-0.7
		c0.3-0.2,0.5-0.7,0.5-1.3c0-1.1-0.7-1.6-2-1.6c-0.8,0-1.9,0.1-3.4,0.4c-1.5,0.2-5.5,0.2-7.2-0.1c-1.6-0.3-2.9-0.5-3.7-0.5
		c-0.5,0-0.9,0.1-1.2,0.3c-0.3,0.2-0.5,0.6-0.5,1c0,0.7,0.2,1.2,0.5,1.4c0.4,0.3,1,0.6,1.9,0.9c0.9,0.3,1.7,0.7,2.3,1.3
		s0.9,1.6,0.9,3.1c0.1,13.4,0.2,26.8,0.3,40.3c0,1.1-0.2,2.1-0.6,3C-80.3,376.8-81.1,377.3-82.4,377.5z"/>
	<path class="st0" d="M-63.7,375.8c0,1.5,1.7,2.8,5.1,4c3.4,1.2,6.7,1.7,9.9,1.4c4.5-0.3,8.7-2.1,12.5-5.2c3.8-3.1,5.7-7.2,5.6-12.1
		c0-3.5-1.2-6.6-3.6-9.4c-2.4-2.8-7.1-6.4-14.2-10.8c-3.7-2.4-6-4.2-6.9-5.5c-0.9-1.3-1.4-2.6-1.4-3.9c0-1.9,1-3.6,3-5.3
		s4.4-2.6,7.2-2.8c2.5-0.2,4.6,0.3,6.3,1.5c1.7,1.2,2.6,3,2.6,5.6c0,0.5,0.2,0.9,0.6,1.2c0.4,0.4,0.8,0.5,1.2,0.5
		c1.2-0.1,1.8-1,1.7-2.7c-0.1-0.7-0.2-1.2-0.2-1.5c0-1,0-1.7,0-2.2s0-0.9,0-1.1c0-1.7-1.4-2.9-4.3-3.9s-5.5-1.3-8-1.2
		c-4.4,0.3-8.2,1.8-11.6,4.4c-3.3,2.6-5,5.7-5,9.4c0,2.3,0.5,4.3,1.6,6.1c1,1.8,2.3,3.2,3.9,4.5c1.5,1.2,3.6,2.7,6.3,4.4
		c6.5,4.1,10.4,7.1,12,9c1.5,2,2.3,3.9,2.3,5.7c0,3.1-1.1,5.7-3.3,7.9c-2.2,2.1-5.1,3.3-8.5,3.6c-3.4,0.2-6.1-0.5-8-2.2
		c-1.9-1.7-3.1-4.1-3.4-7.2c-0.2-1.9-0.9-2.8-2.1-2.8c-1.1,0-1.7,0.5-1.7,1.5c0,0.2,0.1,0.7,0.1,1.5c0.1,0.7,0.1,1.4,0.2,1.9
		c0,1.5,0,2.8-0.1,3.8C-63.7,374.8-63.7,375.5-63.7,375.8z"/>
	<path class="st0" d="M-2.9,322c1.2-0.2,2.4-0.1,3.4,0.2c1.1,0.3,1.9,1.2,2.4,2.5c0.5,1.3,1,2.1,1.3,2.3s0.6,0.2,1,0.2
		c1-0.2,1.5-1,1.5-2.6s-0.3-3.3-0.9-5c-0.6-1.8-1.3-2.6-2.2-2.4c-9.1,1.4-18.3,2.8-27.4,3.9c-1,0.1-1.9,0.2-2.9,0.3
		c-0.9,0.1-1.6,1-2.1,2.6c-0.5,1.7-0.7,3.9-0.7,6.7c0,0.3,0.2,0.6,0.6,0.8s0.8,0.2,1.2,0.2c0.4,0,0.7-0.2,1-0.5
		c0.3-0.3,0.5-1,0.8-2.2c0.2-1.2,0.7-2.2,1.2-2.8c0.9-1.1,2.5-1.8,4.7-2.1c3.4-0.4,5.1,0.6,5.1,3.1c0.1,13.9,0.2,27.8,0.3,41.6
		c0,0.9-0.2,1.8-0.6,2.5c-0.4,0.8-1.2,1.4-2.3,1.9c-1.2,0.5-1.8,0.9-2,1.2c-0.2,0.3-0.3,0.6-0.3,0.9c0,0.7,0.3,1.1,0.9,1.4
		c0.6,0.3,1.3,0.4,2.1,0.3c0.7-0.1,7.7-1.5,9.2-1.5s2.6,0,3.4-0.2c1.4-0.2,2.1-1,2.1-2.3c0-0.3-0.1-0.6-0.4-0.8
		c-0.3-0.2-1-0.4-2.2-0.6c-1.2-0.2-2-0.5-2.4-0.9c-0.4-0.4-0.6-0.9-0.6-1.6c-0.1-13.7-0.2-27.5-0.3-41.2c0-1.8,0.4-3.2,1.2-4.2
		C-5.9,322.9-4.6,322.3-2.9,322z"/>
	<path class="st0" d="M37,310.6c-5.8,0.9-10.9,3.1-15.4,6.4c-4.4,3.3-7.8,7.5-10.2,12.4s-3.6,9.7-3.6,14.3
		c0.1,8.9,2.9,15.7,8.4,20.6c5.5,4.9,12.4,6.6,20.7,5.2c5.1-0.8,9.9-2.6,14.4-5.2c4.5-2.6,8.2-6.5,10.9-11.6
		c2.8-5.1,4.1-10.6,4.1-16.3c-0.1-7.7-2.7-14.4-7.9-19.9C53.3,311.2,46.1,309.1,37,310.6z M56.4,351.7c-1.4,3.4-3.7,6.4-6.9,9
		c-3.2,2.7-7.3,4.4-12.2,5.2c-14.1,2.3-21.2-5.5-21.3-23.4c-0.1-6.7,1.8-12.9,5.5-18.4s8.9-8.9,15.6-9.9c6.5-1,11.6,0.5,15.5,4.8
		c3.8,4.2,5.8,10.9,5.8,19.9C58.4,344,57.7,348.3,56.4,351.7z"/>
	<path class="st0" d="M87.8,328.7c-0.6,0.1-1.2,0.1-1.7,0c-0.6,0-1,0-1.1,0c-1.3,0.1-2,0.8-2,1.9c0,0.5,0.1,0.8,0.2,0.9
		c0.1,0.1,0.3,0.2,0.7,0.3c1.4,0.4,2.7,1.6,4.2,3.5c0.4,0.5,1.9,2.8,4.6,6.9c5.7,8.8,11.7,16.5,13.5,17.3c1.7,0.8,3.2,1.2,4.4,1.2
		c0.5,0,1.1-0.3,1.9-0.7c0.8-0.4,1.2-1,1.2-1.6c0-0.5-0.2-0.9-0.5-1.2c-0.3-0.4-1-0.7-2.1-1.1c-1.1-0.3-4.5-4.7-8.5-11.2
		s-6.7-10.6-8.2-12.6c-0.3-0.4-0.5-0.8-0.5-1c0-0.3,0.4-0.6,1.1-1c4-1.9,6.8-3.7,8.5-5.7s2.4-4.3,2.4-7.1c0-4.4-1.7-7.9-5.1-10.4
		c-3.4-2.5-7.7-3.6-13-3.1c-1.4,0.1-3.4,0.5-6,1.2c-2.6,0.6-4.2,1-4.7,1.1c-0.9,0.1-1.9,0.1-3.1,0.1c-1.2,0-2.3,0-3.3,0.1
		c-2.1,0.3-3.2,1-3.2,2.2c0,1.1,0.9,1.6,2.8,1.5c2.7-0.2,4.1,0.7,4.1,2.7c0.1,14.8,0.2,29.5,0.3,44.3c0,0.6-0.3,1.1-0.9,1.6
		c-0.6,0.5-1.4,0.8-2.3,0.9c-1.6,0.2-2.5,0.5-2.9,0.8c-0.4,0.3-0.6,0.8-0.6,1.3c0,1.5,1.2,2.1,3.6,1.8c0.8-0.1,12.9-1.4,13.9-1.5
		c1.1-0.1,1.9-0.4,2.5-0.9s0.8-1,0.8-1.6c0-0.6-0.2-1.1-0.7-1.4c-0.4-0.3-1.3-0.4-2.6-0.2c-1.2,0.1-2.2,0-2.9-0.5s-1.1-1.1-1.1-2
		c-0.1-14.5-0.2-29-0.3-43.6c0-0.8,0.1-1.4,0.2-1.9c0.2-0.5,0.6-0.9,1.2-1.3c0.7-0.4,1.7-0.7,3.1-0.8c3.8-0.4,6.8,0.5,9,2.6
		s3.3,4.4,3.3,6.7c0,3.3-0.9,5.9-2.8,7.9C93.1,327.3,90.7,328.5,87.8,328.7z"/>
	<path class="st0" d="M117,356.4c-1.3,0.2-2,0.5-2.2,0.8c-0.2,0.3-0.3,0.6-0.3,0.9c0,1.2,1,1.8,2.9,1.8c0.7,0,11.8,0.2,12.6,0.2
		c1.6,0,2.4-0.4,2.4-1.3c0-0.5-0.1-0.9-0.4-1.3s-1-0.7-2.2-1.1s-2-0.8-2.3-1.4c-0.4-0.6-0.5-1.3-0.5-2c-0.1-13.4-0.2-26.9-0.3-40.3
		c0-1.7,0.2-3,0.7-3.9c0.5-0.9,1.2-1.4,2.2-1.6c1-0.2,1.7-0.4,2.1-0.6c0.3-0.2,0.5-0.7,0.5-1.3c0-1.1-0.7-1.6-2-1.7
		c-0.8,0-1.9,0.1-3.4,0.3c-1.5,0.2-5.5,0.2-7.2-0.1c-1.6-0.2-2.8-0.4-3.7-0.3c-0.5,0-0.9,0.1-1.2,0.4c-0.3,0.3-0.5,0.6-0.5,1
		c0,0.7,0.2,1.2,0.5,1.4c0.4,0.3,1,0.5,1.9,0.8s1.7,0.7,2.3,1.2c0.6,0.5,0.9,1.6,0.9,3.1c0.1,13.4,0.2,26.8,0.3,40.3
		c0,1.1-0.2,2.1-0.6,3C119,355.6,118.2,356.2,117,356.4z"/>
	<path class="st0" d="M138.4,345.8c2.4,4.9,5.9,8.8,10.4,11.9c4.5,3.1,9.8,5.1,15.8,6.1c3.8,0.7,7.3,0.7,10.7,0
		c3.4-0.6,6.1-1.6,8.1-3.1c2.1-1.4,3.1-2.6,3.1-3.5c0-0.2-0.1-0.5-0.4-0.9c-0.3-0.4-0.6-0.6-1-0.7s-1,0.1-1.8,0.6
		c-3.5,2.3-7.1,3.6-10.7,4c-3.6,0.4-6.3,0.4-7.9,0.1c-6.6-1.1-11.8-4.1-15.7-9.2c-3.9-5.1-5.9-11.5-5.9-19.6
		c-0.1-7.4,1.7-13.3,5.2-17.6c3.5-4.3,8.5-6.1,14.9-5c5,0.8,8.9,2.9,11.7,5.9c1.6,1.7,3.1,4.3,4.5,7.7c0.7,1.6,1.2,2.6,1.5,3
		c0.3,0.4,0.7,0.6,1,0.7c1.1,0.3,1.6,0,1.6-0.9c0-0.5-0.1-1.2-0.3-1.8c-0.2-0.7-0.3-1.2-0.3-1.5c0-0.2,0-0.7,0.1-1.6
		c0-0.9,0.1-1.9,0.1-2.9c0-0.7-0.9-2-2.7-3.8c-1.8-1.8-4.2-3.5-7.3-5.2c-3.1-1.6-6.4-2.7-10.1-3.3c-5.7-0.9-10.7-0.3-15,1.8
		c-4.3,2.1-7.6,5.3-9.9,9.6c-2.3,4.3-3.4,9-3.4,14.1C134.7,336,136,341,138.4,345.8z"/>
	<path class="st0" d="M-50,491.9c0.9-0.7,1.4-1.3,1.4-2s-0.2-1.3-0.7-1.8s-1.8-0.9-4.2-1.4c-2.3-0.5-3.9-1.4-4.7-2.6
		c-0.8-1.2-1.2-2.6-1.2-4.1c-0.2-23.8-0.4-47.6-0.5-71.4c0-3.3,0.5-5.4,1.5-6.5s2.3-1.8,3.9-2.1c1.5-0.4,2.6-0.7,3.1-1.1
		c0.5-0.4,0.8-1.2,0.8-2.3c0-1.8-1.1-2.6-3.3-2.5c-2,0.1-4.2,0.4-6.4,0.8c-2.2,0.4-9.2,0.5-11.7,0.2c-2.5-0.4-4.7-0.6-6.5-0.6
		c-1,0-1.8,0.2-2.4,0.7c-0.7,0.5-1,1-1,1.6c0,0.8,0.2,1.5,0.7,2.1c0.4,0.6,1.6,1.2,3.4,1.8c3.5,1,5.4,2.5,5.7,4.6
		c0.3,2.1,0.4,19.2,0.5,29.2c0,1.6-0.2,2.7-0.7,3.2c-0.5,0.6-1.6,0.9-3.4,0.8c-10.8-0.1-21.5-0.8-32.3-2.3c-2.5-0.3-4.1-0.4-5.1,0
		c-0.9,0.3-1.4,1-1.4,2.1c0,1.1,0.4,1.9,1.1,2.6c0.7,0.7,2.3,1.2,4.9,1.6c10,1.4,19.9,2.2,29.9,2.4c3.1,0.1,5.1,0.5,6,1.3
		s1.3,1.9,1.4,3.4c0.1,13.6,0.2,16.3,0.3,29.9c0,3.1-0.5,5.1-1.4,6c-1,0.9-2.2,1.5-3.8,1.8c-1.5,0.2-2.6,0.5-3.1,0.9
		c-0.6,0.4-0.8,1.1-0.8,2.3c0,2,1.7,3,4.9,3.1c1,0,20.4-0.3,21.5-0.4C-52.1,493-50.9,492.6-50,491.9z"/>
	<path class="st0" d="M-111.7,484c-2.3-1.1-3.9-2.3-4.6-3.6c-0.8-1.3-1.1-2.6-1.1-4c-0.2-23.8-0.4-47.7-0.5-71.5
		c0-3.1,0.5-5.1,1.5-5.9s2.3-1.3,3.8-1.4s2.6-0.3,3.2-0.6s0.8-1,0.8-2.1c0-1.8-1.1-2.8-3.3-3.1c-2-0.3-4.2-0.5-6.4-0.6
		c-2.2-0.1-9.2-1.6-11.7-2.7c-2.5-1-4.7-1.8-6.5-2.3c-1-0.3-1.8-0.3-2.4,0.1c-0.7,0.3-1,0.8-1,1.3c0,0.8,0.2,1.6,0.7,2.3
		c0.5,0.7,1.8,1.7,4.1,3c2.2,1.2,3.7,2.5,4.4,4c0.7,1.4,1,2.9,1,4.5c0.2,23.9,0.4,47.9,0.5,71.8c0,3.1-0.5,7-1.4,7.7
		c-1,0.7-2.2,1-3.7,0.8c-1.5-0.2-3.9,1-3.9,2.1c0,2,1.6,3.7,4.9,4.4c9.9,2,20.4,2.5,21.5,2.7c1.5,0.2,2.6,0.1,3.6-0.4
		c0.9-0.5,1.4-1,1.4-1.7c0-0.7-0.3-1.4-0.7-2C-108,486-109.4,485.1-111.7,484z"/>
	<path class="st0" d="M123.5,454.3c-0.7-0.7-1.4-1.1-2.1-1.1c-1,0-1.8,0.3-2.4,0.9c-0.7,0.6-1.3,2.2-1.8,4.9
		c-0.5,2.7-1.4,4.5-2.6,5.3c-1.2,0.8-2.7,1.3-4.4,1.3c-8.4,0.3-16.9,1-25.3,1.8c-2,0.2-3.6-0.3-4.7-1.5c-1.1-1.2-1.6-3.5-1.7-6.9
		c-0.2-22.7-0.3-45.4-0.5-68c0-3.6,0.8-6.2,2.6-7.9c1-1,2.8-1.9,5.4-2.6c2-0.6,3.2-1.2,3.7-1.7c0.5-0.6,0.7-1.2,0.7-2
		c0-0.9-0.4-1.7-1.2-2.4c-0.8-0.7-1.7-1-2.8-0.8c-1,0.1-3.1,0.8-6.3,2c-3.3,1.3-16.1,3-18.5,2.5s-4-0.7-4.6-0.6
		c-1,0.1-1.8,0.5-2.4,1.1c-0.7,0.6-1,1.2-1,1.8c0,1,0.3,1.8,0.9,2.4c0.6,0.7,2.2,1.2,5,1.7s4.6,1.3,5.4,2.5c0.8,1.2,1.3,2.7,1.3,4.4
		c0.2,23.8,0.4,47.5,0.5,71.3c0,1.8-0.3,3.4-1.1,4.9c-0.7,1.5-2.6,2.5-5.5,3.1c-1.5,0.3-2.7,0.7-3.4,1.1c-0.6,0.4-0.9,1-1,1.9
		c-0.1-0.3-0.3-0.5-0.6-0.7c-0.6-0.4-1.7-0.7-3.3-1c-1.6-0.3-3-0.8-4.2-1.7s-2.7-3-4.5-6.4s-6.3-12.3-13.2-26.7
		c-6.4-13.2-12.8-26.3-19.2-39.5c-2.4-5-4.3-8.4-5.7-10.1c-1.4-1.7-3.3-2.4-5.6-2.1c-1.4,0.2-2.1,1-2.1,2.3c0,0.6,0.2,1.6,0.6,3
		c0.4,1.4,0.6,2.3,0.6,2.9c0,1.6-0.5,3.9-1.7,7c-1.1,3.1-3.7,9.3-7.7,18.7c-5.4,13-10.8,26-16.2,38.9c-5.4,13.2-8.8,20.9-10.1,23.1
		c-1.3,2.2-3.7,3.8-7.2,4.6c-1.2,0.3-2,0.6-2.5,1c-0.4,0.4-0.7,1.2-0.7,2.3c0,0.8,0.4,1.5,1.1,2.1c0.7,0.6,1.7,0.8,2.8,0.7
		c0.8-0.1,12.9-0.6,19.9-2c2.7-0.6,4.1-1.6,4.1-3.7c0-0.7-0.3-1.3-0.8-1.7c-0.5-0.5-1.7-0.9-3.7-1.2c-2-0.3-3.2-0.7-3.7-1.2
		s-0.8-1.1-0.8-1.7c0-0.6,0.2-1.4,0.5-2.3c4.1-9.8,8.2-19.7,12.3-29.6c4.8-11.7,9.5-23.5,14.3-35.3c1.1-3.1,1.9-4.6,2.4-4.7
		s1.1,0.9,2.1,2.8C8,422,13.1,432.5,18.2,443c0.6,1.3,1,2.1,1,2.5c0,0.6-0.8,1-2.4,1.3c-9.7,1.6-19.5,3.1-29.2,4.5
		c-1,0.1-1.8,0.6-2.5,1.2c-0.7,0.7-1.1,1.4-1.1,2.2c0,1,0.5,1.8,1.4,2.4c1,0.6,2,0.9,3.2,0.7c10.1-1.4,20.3-3.1,30.4-4.7
		c1.8-0.3,3-0.3,3.7-0.1c0.6,0.3,2.3,3,4.9,8.4c2.6,5.3,4,8.6,4,9.9c0,1.2-0.3,2.2-1,3.1c-0.7,0.9-2.2,1.7-4.6,2.3
		c-2.4,0.6-3.9,1.2-4.4,1.8s-0.8,1.3-0.8,2.1c0,0.9,0.5,1.6,1.4,1.9c0.9,0.4,2.1,0.4,3.7,0.2c1-0.2,2.9-0.6,5.6-1.4
		c2.7-0.8,5.3-1.4,7.8-1.8s58.3-6.8,76-7.2c3.2-0.1,5.6,0,7.2,0.2c2.4,0.2,3.5-0.9,3.5-3.3c-0.6-4-0.9-7.9-0.9-11.9
		C124.6,456,124.3,455,123.5,454.3z"/>
	<path class="st0" d="M189.1,390c-0.3-1.5-0.5-3-0.7-4.6s-0.6-2.7-1-3.3s-1.5-1.2-3.3-1.6c-17.5-4.8-35-7.1-52.4-7.7
		c-1.2,0-2.2,0.2-2.9,0.8c-0.8,0.6-1.1,1.3-1.1,2.1c0,0.9,0.5,1.6,1.3,2.2c0.9,0.6,2.2,0.9,3.8,1c2.4,0.1,4.1,0.5,5,1.2
		c0.9,0.7,1.5,2.2,1.8,4.6c0.3,2.4,0.5,6.8,0.5,13.1c0.2,20.7,0.3,41.5,0.5,62.2c0,1.4-0.4,2.6-1.2,3.6c-0.8,1-2.4,1.7-4.8,2.2
		s-3.8,0.9-4.3,1.4c-0.5,0.4-0.7,1-0.7,1.6c0,2.4,1.3,3.2,4.1,3.3c0.8,0,3.3-0.2,6.2-0.2c5.2-0.1,11.3,0.7,14,1
		c2.7,0.3,11.3,2,11.4,0c0-0.9-0.3-1.3-0.8-2.1c-0.6-0.8-2.2-1.8-5-3c-2.8-1.2-4.6-2.5-5.5-4s-1.4-3.1-1.4-4.8
		c-0.1-13.5-0.2-22.1-0.3-35.6c0-1.3,0.4-2.3,1.1-2.9c0.8-0.6,2.3-0.7,4.6-0.4c6,0.9,7,1,13,2.4c3.9,0.9,5.9,3.1,5.9,6.3
		c0,1.4,0.3,2.5,0.9,3.5c0.6,0.9,1.3,1.5,2.1,1.8c0.8,0.2,1.4,0.1,1.9-0.4s0.8-1.2,0.8-2.2c0-0.4-0.1-1.6-0.4-3.6
		c-0.2-2-0.3-8.1-0.2-9.9c0.1-1.8,0.2-3.1,0.2-4.1s-0.3-1.9-0.8-2.6c-0.6-0.7-1.2-1.2-2-1.4c-0.7-0.2-1.3-0.1-1.8,0.2
		s-0.7,0.9-0.7,1.7c0,1.6-0.4,2.9-1.1,3.9c-0.8,1-1.9,1.3-3.3,1c-6-1.4-7.1-1.6-13.1-2.5c-3.3-0.5-5.4-1.4-6.3-2.8
		s-1.3-8.6-1.3-11.6c0-4.8-0.1-9.6-0.1-14.4c0-1.8,0.5-3,1.5-3.8c1-0.8,3.1-1,6.3-0.5c6.2,0.9,12.4,2.1,18.7,3.6
		c0.9,0.2,1.7,0.7,2.5,1.6c0.8,0.8,1.5,2.4,2.3,4.7c0.8,2.3,1.4,3.8,1.9,4.4c0.5,0.6,1,1,1.5,1.1c2.2,0.6,3.3-0.4,3.3-3.1
		C189.5,392.6,189.4,391.4,189.1,390z"/>
	<path class="st0" d="M-99.4,281.4c0.6,0.2,1,0.5,1.3,0.9c0.3,0.4,0.5,0.8,0.5,1.3c0.3,6.2,0.5,12.3,0.8,18.5
		c0.1,1.4-0.5,1.9-1.6,1.7c-0.4-0.1-0.7,0-0.9,0.1c-0.3,0.1-0.4,0.3-0.4,0.5c0,0.2,0.1,0.4,0.4,0.7c0.2,0.2,0.6,0.4,0.9,0.5
		c0.3,0,0.7,0,1.3,0c0.6,0,1.1,0,1.4,0c0.3,0,0.7,0.2,1.4,0.4c0.7,0.2,1.1,0.3,1.2,0.4c0.9,0.1,1.3-0.1,1.2-0.6
		c0-0.6-0.5-0.9-1.5-1.1c-0.4,0-0.7-0.2-1.1-0.6c-0.4-0.3-0.6-0.7-0.6-1.2c-0.2-5-0.4-10-0.6-15c0-0.6,0-0.9,0-0.9
		c0.1,0,0.3,0.3,0.6,1c2.4,4.7,4.8,9.3,7.1,14c0.3,0.5,0.5,0.7,0.8,0.8c0.2,0,0.3,0,0.4-0.1s0.1-0.2,0.2-0.3c0.1-0.1,0.5-1,1.4-2.6
		c0.9-1.6,1.8-3.5,2.8-5.7c0.8-1.7,1.7-3.4,2.5-5.1c0.3-0.6,0.5-0.9,0.6-0.9s0.1,0.3,0.1,1c0.2,5,0.4,10.1,0.7,15.1
		c0,0.8,0,1.4-0.3,1.6c-0.2,0.2-0.7,0.3-1.6,0.4c-0.4,0-0.6,0.1-0.8,0.1c-0.2,0.1-0.2,0.3-0.2,0.5c0,0.6,0.4,0.9,1.2,0.9
		c0.4,0,1,0,1.8,0c0.8-0.1,1.4-0.1,1.7-0.1c0.5,0,1.1,0.1,1.8,0.3c0.7,0.2,1.2,0.2,1.5,0.2s0.6,0,0.8-0.2c0.1,0,0.1-0.1,0.1-0.1
		c0,0.1,0.1,0.1,0.2,0.2c0.2,0.2,0.4,0.3,0.7,0.3c0.2,0,0.5,0,1-0.1s0.9-0.1,1.3-0.1s1,0.1,1.6,0.2s1,0.2,1.2,0.2c0.7,0,1-0.3,1-0.8
		c0-0.2-0.1-0.3-0.2-0.5c-0.1-0.1-0.5-0.3-1-0.4s-0.8-0.3-1-0.4c-0.1-0.1-0.2-0.3-0.2-0.5c0-0.2,0-0.4,0.1-0.6
		c1-2.4,1.9-4.8,2.9-7.2c1.1-2.9,2.2-5.7,3.4-8.6c0.3-0.8,0.5-1.1,0.6-1.1s0.3,0.3,0.6,0.8c1.4,2.9,2.8,5.8,4.3,8.7
		c0.2,0.4,0.3,0.6,0.3,0.7c0,0.2-0.2,0.2-0.6,0.2c-2.5,0.1-5,0.1-7.6,0.1c-0.2,0-0.5,0.1-0.6,0.2c-0.2,0.2-0.3,0.3-0.3,0.5
		c0,0.3,0.1,0.5,0.4,0.7s0.5,0.3,0.8,0.3c2.6,0,5.2,0,7.8-0.1c0.5,0,0.8,0,1,0.1c0.2,0.1,0.6,0.9,1.3,2.3c0.7,1.4,1.1,2.3,1.1,2.7
		c0,0.3-0.1,0.6-0.2,0.8c-0.2,0.2-0.6,0.4-1.2,0.4c-0.6,0.1-1,0.2-1.1,0.3c-0.1,0-0.1,0.2-0.1,0.4s0.1,0.4,0.4,0.6
		c0.2,0.1,0.6,0.2,1,0.2c0.3,0,0.7-0.1,1.4-0.2c0.7-0.1,1.4-0.2,2-0.2s1.3,0,2,0s3.1,0.1,3.9,0c0.4,0,2.8-0.4,3.1-0.5
		c0.4,0,2.7,0.1,3.1,0.1c0.5,0,0.9-0.2,1.1-0.4c0.2-0.2,0.4-0.5,0.3-0.7c0-0.3-0.1-0.5-0.3-0.6c-0.2-0.1-0.6-0.2-1.2-0.1
		c-0.5,0-1,0-1.3-0.3c-0.3-0.2-0.5-0.5-0.5-0.9c-0.3-6.6-0.6-13.1-0.9-19.7c0-0.4,0-0.6,0.1-0.9c0.1-0.2,0.2-0.4,0.5-0.6
		c0.3-0.2,0.8-0.3,1.4-0.3c1.7-0.1,3.1,0.3,4.1,1.2c1,1,1.5,2,1.6,3c0.1,1.5-0.3,2.7-1.1,3.6c-0.8,0.9-1.9,1.4-3.2,1.5
		c-0.3,0-0.5,0-0.8,0s-0.4,0-0.5,0c-0.6,0-0.9,0.3-0.9,0.8c0,0.2,0,0.4,0.1,0.4c0,0.1,0.2,0.1,0.3,0.2c0.6,0.2,1.3,0.7,1.9,1.6
		c0.2,0.2,0.9,1.3,2.2,3.1c2.7,3.9,4.3,6.2,4.8,6.7c0.3,0.3,0.8,0.6,1.6,0.9c0.8,0.3,1.5,0.5,2,0.4c0.2,0,0.5-0.1,0.8-0.4
		c0.3-0.2,0.5-0.5,0.5-0.7c0-0.2-0.1-0.4-0.2-0.5c-0.1-0.2-0.5-0.3-1-0.4s-0.8-0.2-1-0.4c-0.1-0.1-1.1-1.6-3.1-4.4
		c-1.9-2.8-3.2-4.7-3.9-5.6c-0.2-0.2-0.2-0.3-0.2-0.4c0-0.1,0.2-0.3,0.5-0.5c1.8-0.9,3-1.8,3.7-2.7s1-2,1-3.3
		c-0.1-2-0.9-3.5-2.5-4.6s-3.5-1.5-5.9-1.3c-0.6,0.1-1.5,0.2-2.7,0.5c-1.2,0.3-1.9,0.4-2.1,0.4c-0.4,0-0.9,0-1.4,0
		c-0.6,0-1.1-0.1-1.5,0c-1,0.1-1.4,0.3-1.4,0.9c0,0.5,0.5,0.7,1.3,0.7c1.2,0,1.8,0.4,1.9,1.3c0.3,6.7,0.6,13.3,0.9,20
		c0,0.3-0.1,0.5-0.4,0.7c-0.5,0.4-1.7,0.6-2.3,0.7c-0.6,0.1-2-0.5-2.3-0.8c-0.3-0.3-0.7-0.9-1.2-1.8s-1.7-3.3-3.7-7.3
		c-1.8-3.6-3.6-7.2-5.3-10.9c-0.7-1.4-1.2-2.3-1.6-2.8s-0.9-0.7-1.5-0.7c-0.4,0-0.5,0.2-0.5,0.5c0,0.2,0.1,0.4,0.2,0.8
		s0.2,0.6,0.2,0.8c0,0.4-0.1,1-0.4,1.7s-0.9,2.3-1.8,4.5c-1.3,3.2-2.6,6.3-3.8,9.5c-1.3,3.2-2.1,5.1-2.4,5.6s-0.9,0.8-1.8,1
		c-0.3,0-0.5,0.1-0.6,0.2c0,0,0,0.1-0.1,0.1c0,0,0,0,0-0.1c-0.1-0.1-0.5-0.3-1.2-0.5c-0.7-0.2-1.1-0.4-1.4-0.8
		c-0.2-0.4-0.4-0.8-0.4-1.3c-0.3-6-0.5-12-0.8-18.1c0-0.6,0-1,0.1-1.1c0.1-0.2,0.3-0.4,0.6-0.7c0.4-0.3,0.8-0.5,1.3-0.5
		c0.6,0,0.9-0.2,0.9-0.6c0-0.5-0.4-0.8-1-0.8c-0.1,0-0.2,0-0.5,0.1c-0.3,0-0.5,0.1-0.7,0.1s-0.5-0.1-0.9-0.1
		c-0.4-0.1-0.7-0.1-0.8-0.1c-0.4,0-0.7,0.1-1,0.3c-0.3,0.2-0.6,0.7-1,1.5c-1.3,2.8-3.6,7.4-7,13.9c-0.1,0.2-0.2,0.4-0.3,0.4
		s-0.2-0.2-0.3-0.5c-1.2-2.4-2.4-4.7-3.6-7.1c-1.4-2.9-2.9-5.8-4.3-8.7c-0.3-0.7-0.6-1.2-0.8-1.5c-0.2-0.3-0.4-0.4-0.7-0.4
		c-0.2,0-0.5,0-0.8,0c-0.3,0-0.6,0.1-0.8,0c-0.2,0-0.5-0.1-0.9-0.3s-0.7-0.3-0.9-0.3s-0.5,0-0.7,0.1c-0.2,0.1-0.3,0.2-0.3,0.4
		c0,0.3,0.1,0.5,0.3,0.7C-100.4,281-100,281.2-99.4,281.4z"/>
	<path class="st0" d="M-24.9,282.1c0.4,0.1,0.8,0.2,1,0.4c0.3,0.2,0.4,0.7,0.5,1.3c0.3,6,0.5,12.1,0.8,18.1c0,0.5-0.1,1-0.2,1.4
		c-0.2,0.4-0.5,0.7-1.1,0.9c-0.6,0.2-0.9,0.3-1,0.4s-0.1,0.3-0.1,0.4c0,0.6,0.5,0.8,1.3,0.7c0.3,0,0.8-0.1,1.4-0.3
		c0.6-0.2,1.1-0.3,1.4-0.3s0.8,0,1.4,0s1.1,0,1.4,0c0.7-0.1,1.1-0.3,1.1-0.8c0-0.2-0.1-0.4-0.2-0.5s-0.5-0.3-1-0.3
		c-0.6-0.1-0.9-0.2-1.1-0.5c-0.2-0.2-0.3-0.5-0.3-0.9c-0.3-6-0.5-12.1-0.8-18.1c0-0.8,0-1.4,0.2-1.8s0.5-0.7,1-0.9
		c0.5-0.1,0.8-0.3,0.9-0.4c0.1-0.1,0.2-0.3,0.2-0.6c0-0.5-0.3-0.7-0.9-0.6c-0.3,0-0.8,0.2-1.5,0.3c-0.7,0.2-1.2,0.3-1.5,0.3
		c-0.4,0-0.9,0.1-1.7,0c-0.7,0-1.3,0-1.6,0c-0.2,0-0.4,0.1-0.5,0.2c-0.2,0.1-0.2,0.3-0.2,0.5c0,0.3,0.1,0.5,0.3,0.6
		C-25.6,281.9-25.3,282-24.9,282.1z"/>
	<path class="st0" d="M-16.9,280.9c0.2,0.1,0.6,0.1,1.2,0c0.4-0.1,0.8,0.1,1.1,0.4c0.3,0.3,0.5,0.7,0.5,1.3
		c0.3,6.2,0.5,12.4,0.8,18.6c0,0.6-0.1,1.1-0.5,1.4c-0.3,0.4-0.8,0.6-1.4,0.7c-0.7,0.1-1,0.4-1,0.8c0,0.6,0.3,0.8,0.9,0.7
		c0.2,0,0.6-0.1,1.4-0.3c0.7-0.2,1.2-0.3,1.5-0.4c0.2,0,0.7,0,1.5,0s1.3,0,1.7-0.1s0.6-0.1,0.7-0.3c0.1-0.1,0.1-0.3,0.1-0.5
		c0-0.6-0.5-0.9-1.4-0.7c-0.4,0.1-0.8,0-1.2-0.3c-0.4-0.2-0.7-0.6-0.7-1.1c-0.2-5.4-0.5-10.8-0.7-16.1c0-0.4,0.1-0.7,0.2-0.7
		s0.3,0.1,0.4,0.2c5.2,5.8,10.3,11.5,15.5,17.1c0.2,0.3,0.4,0.5,0.6,0.5c0.1,0.1,0.3,0.1,0.5,0.1c0.3,0,0.5-0.3,0.4-0.6
		c0-0.4-0.2-0.9-0.5-1.5s-0.5-1.5-0.5-2.6c-0.3-5.8-0.5-11.6-0.8-17.4c0-0.4,0-0.7,0.1-1s0.2-0.5,0.5-0.8c0.3-0.2,0.7-0.4,1.3-0.5
		c0.7-0.1,1-0.4,1-0.8c0-0.6-0.4-0.8-1.1-0.7c-0.3,0-0.7,0.2-1.2,0.3c-0.6,0.2-1,0.3-1.4,0.4c-0.3,0-0.8,0.1-1.6,0
		c-0.8,0-1.3,0-1.4,0c-0.3,0-0.5,0.2-0.7,0.3c-0.2,0.2-0.3,0.4-0.3,0.7c0,0.2,0.1,0.4,0.4,0.5c0.3,0.1,0.6,0.1,1,0.1
		c0.5-0.1,0.9,0,1.3,0.2c0.3,0.2,0.5,0.6,0.6,1.1c0.2,4.7,0.4,9.3,0.6,14c0,0.6-0.1,1-0.3,1c-0.1,0-0.2-0.1-0.4-0.2
		c-2.7-3-5.5-6.1-8.2-9.2c-3.1-3.5-4.9-5.4-5.4-5.9s-1-0.7-1.3-0.7c-0.2,0-0.4,0.1-0.7,0.2c-0.3,0.1-0.5,0.2-0.7,0.2
		c-0.3,0-0.6,0.1-1.1,0c-0.4,0-0.7,0-0.8,0c-0.6,0.1-0.9,0.4-0.9,0.8C-17.2,280.6-17.1,280.8-16.9,280.9z"/>
	<path class="st0" d="M7.2,277.2c0.2,0.1,0.6,0.2,1,0.1c0.7-0.1,1.2-0.1,1.4,0c0.2,0.1,0.4,0.5,0.5,1c0.1,0.6,0.2,1.7,0.2,3.4
		c0.2,5.3,0.5,10.7,0.7,16c0,0.6-0.1,1-0.3,1.4c-0.2,0.3-0.8,0.5-1.7,0.7c-0.7,0.1-1,0.4-1,0.9c0,0.3,0.2,0.5,0.6,0.6
		c0.4,0.1,1.1,0.1,2.1-0.1c4.7-0.7,9.5-1.5,14.2-2.2c0.6-0.1,0.9-0.2,1-0.4c0.1-0.2,0.2-0.5,0.2-1c0-0.2,0-0.5-0.1-1
		s-0.1-0.9-0.1-1.3c0-0.4-0.1-0.7-0.3-0.9c-0.2-0.2-0.4-0.3-0.7-0.3s-0.5,0.2-0.7,0.5s-0.3,0.7-0.2,1.1c0,0.5-0.1,0.9-0.4,1.3
		c-0.3,0.4-0.7,0.6-1.3,0.7c-2,0.3-4,0.6-6.1,1c-0.7,0.1-1.2,0.1-1.6-0.1c-0.3-0.2-0.5-0.5-0.5-1.1c-0.2-3.7-0.3-7.4-0.5-11.2
		c0-0.3,0.1-0.6,0.4-0.8c0.3-0.2,0.6-0.4,1-0.4c1.6-0.2,3.1-0.5,4.7-0.7c0.5-0.1,0.9-0.1,1.2,0.1c0.2,0.1,0.4,0.4,0.4,0.9
		c0,0.4,0.1,0.7,0.3,0.8c0.2,0.2,0.4,0.3,0.6,0.2c0.2,0,0.4-0.2,0.6-0.4c0.2-0.2,0.2-0.4,0.2-0.7c0-0.1-0.1-0.4-0.2-0.9
		c-0.1-0.5-0.2-0.9-0.2-1.4c0-0.3,0-0.7,0.1-1.1c0.1-0.5,0.1-0.8,0.1-1.1c0-0.3-0.1-0.5-0.3-0.6s-0.4-0.2-0.6-0.1
		c-0.2,0-0.4,0.1-0.6,0.3c-0.2,0.2-0.2,0.3-0.2,0.5c0,0.4-0.1,0.7-0.3,1.1c-0.2,0.3-0.5,0.5-0.9,0.6c-1.6,0.2-3.1,0.5-4.7,0.7
		c-0.7,0.1-1.2,0.1-1.5-0.2c-0.2-0.2-0.4-0.8-0.4-1.7c-0.1-1.2-0.1-2.5-0.2-3.7c0-0.5,0.1-0.8,0.3-1.1s0.7-0.5,1.5-0.6
		c1.6-0.3,3.2-0.5,4.8-0.8c0.3,0,0.5,0,0.8,0.1c0.2,0.1,0.5,0.4,0.7,1c0.2,0.5,0.4,0.8,0.6,0.9c0.2,0.1,0.4,0.1,0.6,0.1
		c0.4-0.1,0.6-0.3,0.6-0.8c0-1-0.1-1.7-0.2-2.1c-0.1-0.4-0.2-0.7-0.4-0.9c-0.1,0-0.5,0-1,0c-4.5,0.7-9,1.4-13.5,2.1
		c-0.3,0-0.6,0.2-0.7,0.4c-0.2,0.2-0.3,0.4-0.3,0.6C6.9,276.9,7,277.1,7.2,277.2z"/>
	<path class="st0" d="M38.7,295.1c2.1,0.9,4.5,1.1,7.2,0.8c1.7-0.2,3.3-0.8,4.8-1.6c1.5-0.8,2.7-1.8,3.6-2.8c0.9-1,1.3-1.7,1.3-2.1
		c0-0.1-0.1-0.2-0.2-0.3c-0.1-0.1-0.3-0.2-0.5-0.1c-0.2,0-0.5,0.2-0.8,0.6c-1.5,1.7-3.1,2.9-4.7,3.6c-1.6,0.7-2.8,1.1-3.6,1.3
		c-3,0.4-5.4-0.3-7.2-2.1c-1.8-1.8-2.8-4.6-3-8.2c-0.1-3.3,0.5-6.1,2.1-8.5c1.5-2.3,3.7-3.7,6.6-4.1c2.3-0.3,4,0,5.3,0.9
		c0.7,0.5,1.5,1.4,2.1,2.7c0.3,0.6,0.6,1,0.7,1.1c0.2,0.1,0.3,0.2,0.5,0.2c0.5-0.1,0.7-0.3,0.7-0.7c0-0.2-0.1-0.5-0.2-0.8
		c-0.1-0.3-0.2-0.5-0.2-0.6s0-0.3,0-0.7c0-0.4,0-0.8,0-1.3c0-0.3-0.4-0.7-1.3-1.2c-0.8-0.5-1.9-0.9-3.3-1.1c-1.4-0.2-2.9-0.2-4.6,0
		c-2.6,0.4-4.8,1.3-6.7,2.7c-1.9,1.4-3.3,3.2-4.3,5.4c-1,2.2-1.4,4.4-1.3,6.7c0.1,2.3,0.7,4.4,1.9,6.4
		C35,292.8,36.6,294.2,38.7,295.1z"/>
	<path class="st0" d="M60.1,290.4c2.6,2.3,5.8,3.3,9.5,2.9c2.3-0.2,4.4-0.8,6.5-1.9c2-1,3.6-2.7,4.8-4.9s1.7-4.6,1.6-7.2
		c-0.2-3.5-1.5-6.6-3.9-9.2c-2.5-2.6-5.7-3.8-9.8-3.4c-2.6,0.3-4.9,1.1-6.9,2.5c-2,1.4-3.4,3.2-4.5,5.4c-1,2.2-1.5,4.3-1.4,6.4
		C56.1,284.9,57.5,288.1,60.1,290.4z M61.8,272.4c1.6-2.4,3.9-3.8,6.9-4.1c2.9-0.3,5.3,0.6,7.1,2.6s2.8,5.1,3,9.2
		c0.1,2.4-0.1,4.3-0.7,5.8c-0.6,1.5-1.6,2.7-3,3.8c-1.4,1.1-3.3,1.7-5.5,1.9c-6.4,0.6-9.7-3-10.1-11.1
		C59.4,277.5,60.2,274.8,61.8,272.4z"/>
	<path class="st0" d="M83.6,267.7c1.2,0,1.8,0.5,1.9,1.4c0.3,6.7,0.6,13.4,0.9,20c0,0.3-0.1,0.5-0.4,0.7c-0.3,0.2-0.6,0.3-1,0.3
		c-0.7,0-1.1,0.1-1.3,0.2c-0.2,0.1-0.2,0.3-0.2,0.6c0,0.7,0.6,1,1.7,0.9c0.4,0,0.9-0.2,1.5-0.4c0.6-0.3,1.1-0.4,1.5-0.4
		s0.9,0.1,1.6,0.3c0.7,0.2,1.2,0.4,1.7,0.3c0.5,0,0.9-0.1,1.1-0.3c0.2-0.2,0.4-0.4,0.3-0.7c0-0.3-0.1-0.5-0.3-0.7
		c-0.2-0.1-0.6-0.2-1.2-0.2c-0.5,0-1-0.1-1.3-0.3c-0.3-0.2-0.5-0.5-0.5-0.9c-0.3-6.6-0.6-13.1-0.9-19.7c0-0.4,0-0.6,0.1-0.9
		c0.1-0.2,0.2-0.4,0.5-0.6c0.3-0.2,0.8-0.2,1.4-0.3c1.7-0.1,3.1,0.4,4.1,1.5c1,1,1.5,2.1,1.6,3.1c0.1,1.5-0.3,2.7-1.1,3.5
		c-0.8,0.8-1.9,1.3-3.2,1.3c-0.3,0-0.5,0-0.8,0s-0.4,0-0.5,0c-0.6,0-0.9,0.3-0.9,0.8c0,0.2,0,0.4,0.1,0.4c0,0.1,0.2,0.1,0.3,0.2
		c0.6,0.2,1.3,0.8,1.9,1.7c0.2,0.2,0.9,1.3,2.2,3.3c2.7,4.1,4.3,6.5,4.8,7.1c0.3,0.3,0.8,0.6,1.6,1.1c0.8,0.4,1.5,0.6,2,0.6
		c0.2,0,0.5-0.1,0.8-0.3c0.3-0.2,0.5-0.4,0.5-0.7c0-0.2-0.1-0.4-0.2-0.6c-0.1-0.2-0.5-0.3-1-0.5s-0.8-0.3-1-0.5
		c-0.1-0.1-1.1-1.7-3.1-4.8c-1.9-3-3.2-5-3.9-5.9c-0.2-0.2-0.2-0.4-0.2-0.5c0-0.1,0.2-0.3,0.5-0.4c1.8-0.7,3-1.5,3.7-2.3
		c0.7-0.8,1-1.9,1-3.2c-0.1-2-0.9-3.6-2.5-4.9c-1.6-1.2-3.5-1.8-5.9-1.8c-0.6,0-1.5,0.1-2.7,0.4c-1.2,0.2-1.9,0.3-2.1,0.4
		c-0.4,0-0.9,0-1.4-0.1c-0.6-0.1-1.1-0.1-1.5,0c-1,0.1-1.4,0.3-1.4,0.9C82.4,267.5,82.8,267.7,83.6,267.7z"/>
	<path class="st0" d="M104.2,267.4c1.3,0,1.9,0.5,2,1.5c0.3,6.4,0.6,12.7,0.8,19.1c0,0.5-0.1,1-0.3,1.3c-0.2,0.4-0.6,0.6-1.3,0.6
		s-1,0.1-1.1,0.2s-0.2,0.2-0.1,0.4c0,0.6,0.5,0.9,1.5,0.9c0.3,0,0.7-0.1,1.4-0.3c0.7-0.2,1.2-0.3,1.5-0.3c0.2,0,0.8,0.1,1.6,0.4
		c0.8,0.3,1.4,0.4,1.7,0.4c1,0.1,1.4-0.2,1.4-0.6c0-0.3-0.1-0.5-0.3-0.7c-0.2-0.2-0.6-0.3-1.2-0.3c-1.2-0.1-1.8-0.5-1.8-1.5
		c-0.3-6.2-0.5-12.5-0.8-18.7c0-0.7,0-1.2,0-1.6c0-0.3,0.2-0.6,0.5-0.7c0.3,0,0.7-0.1,1.3,0c1.7,0.1,3.1,0.7,4.2,1.8
		c1.1,1.1,1.6,2.3,1.7,3.6c0.1,1.4-0.3,2.5-1.1,3.2c-0.8,0.7-1.8,1-3.1,1c-0.3,0-0.6,0-0.9-0.1c-0.3,0-0.5-0.1-0.6-0.1
		c-0.3,0-0.5,0-0.6,0.1c-0.2,0.1-0.2,0.2-0.2,0.4c0,0.7,0.6,1,1.8,1.1c2,0.1,3.5-0.1,4.7-0.5c1.2-0.5,2.1-1.1,2.8-1.7
		c0.7-0.7,1-1.7,0.9-3.1c-0.1-1.8-0.9-3.4-2.4-4.8s-3.7-2.2-6.5-2.4c-1.1-0.1-2.1,0-2.9,0.1c-0.8,0.1-1.4,0.2-1.7,0.1
		c-0.4,0-0.9-0.1-1.4-0.2c-0.6-0.1-1.1-0.2-1.5-0.2c-0.8,0-1.2,0.2-1.2,0.7C102.9,267.1,103.3,267.4,104.2,267.4z"/>
	<path class="st0" d="M124.5,277.4c0.7,0.7,1.7,1.5,2.9,2.5c3,2.5,4.8,4.3,5.6,5.3c0.7,1.1,1.1,2,1.1,2.9c0.1,1.4-0.4,2.5-1.4,3.2
		c-1,0.7-2.2,1-3.8,0.7c-1.5-0.2-2.8-0.8-3.6-1.7c-0.9-0.9-1.5-2.1-1.7-3.5c-0.1-0.9-0.4-1.4-1-1.4c-0.5-0.1-0.8,0.1-0.7,0.6
		c0,0.1,0,0.3,0.1,0.7c0.1,0.3,0.1,0.6,0.1,0.9c0,0.7,0,1.2,0,1.7s0,0.8,0,0.9c0,0.7,0.8,1.4,2.4,2.2c1.6,0.8,3.1,1.3,4.5,1.5
		c2,0.3,3.9,0,5.6-1c1.7-0.9,2.5-2.5,2.4-4.8c-0.1-1.6-0.7-3.2-1.8-4.8c-1.1-1.6-3.3-3.8-6.6-6.5c-1.7-1.4-2.8-2.4-3.2-3.1
		c-0.4-0.7-0.7-1.3-0.7-1.9c0-0.8,0.4-1.6,1.3-2.2s2-0.8,3.2-0.6c1.1,0.2,2.1,0.6,2.9,1.3c0.8,0.7,1.2,1.7,1.3,2.8
		c0,0.2,0.1,0.4,0.3,0.6c0.2,0.2,0.4,0.3,0.6,0.4c0.5,0.1,0.8-0.3,0.7-1c-0.1-0.4-0.1-0.6-0.1-0.7c0-0.4,0-0.8,0-1
		c0-0.2,0-0.4,0-0.5c0-0.8-0.7-1.5-2-2.3c-1.3-0.8-2.5-1.2-3.6-1.4c-2-0.3-3.7,0.1-5.2,1c-1.5,0.9-2.2,2.3-2.1,3.9
		c0,1,0.3,2,0.8,2.8C123.2,275.9,123.8,276.7,124.5,277.4z"/>
</g>
</svg>
