<?xml version="1.0" encoding="utf-8"?>
<!-- Generator: Adobe Illustrator 19.0.0, SVG Export Plug-In . SVG Version: 6.00 Build 0)  -->
<svg version="1.1" id="Layer_1" xmlns="http://www.w3.org/2000/svg" xmlns:xlink="http://www.w3.org/1999/xlink" x="0px" y="0px"
	 viewBox="-206 325.1 198.2 143.9" style="enable-background:new -206 325.1 198.2 143.9;" xml:space="preserve">
<style type="text/css">
	.st0{fill:#FFFFFF;}
</style>
<path class="st0" d="M-8.4,452.1h-2.5v9.2c0,0.3,0.1,0.7,0.2,1.2l-4-10.4h-2.2V469h2.5v-9.4c0-0.3-0.1-0.7-0.2-1.2l4,10.6h2.2V452.1
	z M-24.9,454.3h3.5v12.5h-3.5V454.3z M-18.9,453.7c0-1-0.5-1.6-1.5-1.6h-5.5c-1,0-1.5,0.5-1.5,1.6v13.8c0,1,0.5,1.5,1.5,1.5h5.5
	c1,0,1.5-0.5,1.5-1.5V453.7z M-29.3,452.1h-2.5v6.9h-3.4v-6.9h-2.5V469h2.5v-7.6h3.4v7.6h2.5V452.1z M-39.4,452.1h-8.1v2.2h2.8v14.6
	h2.5v-14.6h2.8V452.1z M-53.2,463.6l1.2-7.6l1.2,7.6H-53.2z M-50.6,452.1h-2.6l-3.3,16.8l0,0h2.5l0.5-3.2h3.2l0.5,3.2h2.5
	L-50.6,452.1z M-60.7,461.3c0.8,0,1.4-0.1,1.6-0.2c0.5-0.2,0.7-0.7,0.7-1.4v-6.1c0-1-0.5-1.6-1.5-1.6h-6.7v16.9h2.5v-14.7h3.2v5.3
	h-2.5v1.5l2.8,7.8h2.6L-60.7,461.3z M-74,463.6l1.2-7.6l1.2,7.6H-74z M-71.4,452.1h-2.7l-3.3,16.8l0,0h2.5l0.5-3.2h3.2l0.5,3.2h2.5
	L-71.4,452.1z M-79,452.1h-2.4l-2.6,9.3c0,0.3-0.1,0.6-0.1,0.8c0-0.4,0-0.7-0.1-0.8l-2.6-9.3h-2.4V469h2.4v-8.3c0-0.4,0-1-0.2-1.8
	l2.2,8.6h1.3l2.2-8.6c-0.1,0.8-0.2,1.4-0.2,1.8v8.3h2.4L-79,452.1L-79,452.1z M-95.7,463.4c0-0.6-0.2-1-0.5-1.4l-5-4.8v-3h3.1v3.2
	h2.5v-3.8c0-1-0.5-1.5-1.5-1.5h-5.1c-1,0-1.5,0.5-1.5,1.6v3.7c0,0.5,0.2,1,0.5,1.3l5,4.8v3.3h-3.1v-3.4h-2.5v4c0,1,0.5,1.5,1.5,1.5
	h5.1c1,0,1.5-0.5,1.5-1.5V463.4z M-111.2,454.3h3.1v6.4h-3.1V454.3z M-105.6,453.7c0-1-0.5-1.6-1.5-1.6h-6.6V469h2.5v-6.1h4.1
	c1,0,1.5-0.5,1.5-1.6V453.7z M-118.3,461.3c0.8,0,1.4-0.1,1.6-0.2c0.5-0.2,0.7-0.7,0.7-1.4v-6.1c0-1-0.5-1.6-1.5-1.6h-6.7v16.9h2.5
	v-14.7h3.2v5.3h-2.5v1.5l2.8,7.8h2.6L-118.3,461.3z M-132,454.3h3.5v12.5h-3.5V454.3z M-126.1,453.7c0-1-0.5-1.6-1.5-1.6h-5.5
	c-1,0-1.5,0.5-1.5,1.6v13.8c0,1,0.5,1.5,1.5,1.5h5.5c1,0,1.5-0.5,1.5-1.5V453.7z M-136.5,463.3h-2.5v3.5h-3.3v-12.5h3.3v3.3h2.5
	v-3.9c0-1-0.5-1.6-1.5-1.6h-5.3c-1,0-1.5,0.5-1.5,1.6v13.8c0,1,0.5,1.5,1.5,1.5h5.3c1,0,1.5-0.5,1.5-1.5V463.3z M-151,466.7h-4.5
	v-5.3h3.8v-2.2h-3.8v-4.9h4.4v-2.2h-6.9V469h7V466.7z M-160,452.1h-2.5v9.2c0,0.3,0.1,0.7,0.2,1.2l-4-10.4h-2.2V469h2.5v-9.4
	c0-0.3-0.1-0.7-0.2-1.2l4,10.6h2.2V452.1z M-170.5,452.1h-2.5V469h2.5V452.1z M-177.5,461.3c0.8,0,1.4-0.1,1.6-0.2
	c0.5-0.2,0.7-0.7,0.7-1.4v-6.1c0-1-0.5-1.6-1.5-1.6h-6.7v16.9h2.5v-14.7h3.2v5.3h-2.5v1.5l2.8,7.8h2.6L-177.5,461.3z M-190.9,463.6
	l1.2-7.6l1.2,7.6H-190.9z M-188.3,452.1h-2.6l-3.3,16.8l0,0h2.5l0.5-3.2h3.2l0.5,3.2h2.5L-188.3,452.1z M-195.8,452.1h-2.4l-2.6,9.3
	c0,0.3-0.1,0.6-0.1,0.8c0-0.4,0-0.7-0.1-0.8l-2.6-9.3h-2.4V469h2.4v-8.3c0-0.4-0.1-1-0.2-1.8l2.2,8.6h1.3l2.2-8.6
	c-0.1,0.8-0.2,1.4-0.2,1.8v8.3h2.4L-195.8,452.1L-195.8,452.1z"/>
<path class="st0" d="M-125.2,325.1c-2.2,0-18.7,0-18.7,0l25.9,26c0,0,7-7,8-8c1.5-1.5,4.1-1.5,4.1-1.5l-14.6-14.8
	C-120.5,326.8-122.1,325.1-125.2,325.1"/>
<path class="st0" d="M-103.6,339.9c0,0,1.8,1.8,3.3,0.3c2.3-2.3,6.7-6.6,6.7-6.6l-5.2-5.2c0,0-10,0-11.8,0c-2.5,0-5.4-0.9-5.4-0.9
	L-103.6,339.9z"/>
<g>
	<path class="st0" d="M-77,441.2h41.7l-115.9-116h-12.1l61.4,61.4l-26.8,26.7c0,0,4-0.8,6.6,1.9c1.2,1.2,14.6,14.6,14.6,14.6
		s2.9,2.3,0,5.3c-3.2,3.2-6.1,6.1-6.1,6.1h17.2c0,0,4-3.9,7.1-7c2.9-2.9,0-5.3,0-5.3s-12.6-12.5-13.7-13.7c-2.7-2.7-7.1-1.9-7.1-1.9
		l17.4-17.5l9.5,9.5l-8.5,8.5c0,0,4-0.8,6.6,1.9c1.2,1.2,10,9.9,10,9.9l4.3,4.2c0,0,2.9,2.3,0,5.3L-77,441.2z"/>
	<path class="st0" d="M-125.6,429.2c0,0-12.8-12.8-14-14c-2.4-2.4-6-2-6.5-1.9l30.3-30.3l-8.8-8.8l-67,66.9h17.6l18.1-18
		c0,0,2.6-3.1,5.7,0c3.3,3.3,6.6,6.6,6.6,6.6s2.9,2.3,0,5.3c-3.2,3.2-6.2,6.2-6.2,6.2h17.6c0,0,3.6-3.6,6.7-6.6
		C-122.6,431.5-125.6,429.2-125.6,429.2z"/>
</g>
<path class="st0" d="M-76.8,377l-3.6-3.6l-4.3,4.3l-3.3-3.3l14.4-14.4l3.3,3.3l-4,4l3.6,3.6l5.3-5.3c1.2-1.2,1.2-2.5,0-3.7l-6.9-6.9
	c-1.2-1.2-2.4-1.2-3.7,0.1l-17,17c-1.2,1.2-1.3,2.5-0.1,3.6l6.9,6.9c1.2,1.2,2.5,1.2,3.7,0L-76.8,377z M-75.6,351.4L-79,348
	c0,0-13.8,7.8-13.7,7.6l7.6-13.6l-3.4-3.4l-20.8,20.8l3.5,3.5l9.2-9.3l-5.5,9.3l2,2l9.3-5.5l-9.3,9.3l3.6,3.6L-75.6,351.4z"/>
<path class="st0" d="M-48.9,378.1l-3.4-3.4c0,0-13.8,7.8-13.7,7.6l7.6-13.6l-3.4-3.4l-20.8,20.8l3.5,3.5l9.2-9.3l-5.5,9.3l2,2
	l9.3-5.5l-9.3,9.3l3.6,3.6L-48.9,378.1z"/>
<path class="st0" d="M-8.7,422.1c1.3-1.3,1.3-2.5,0-3.8l-6.1-6.1c-1.3-1.3-2.5-1.3-3.8,0l-4.6,4.6l3.1,3.1l3.9-3.9l3.8,3.8l-3.9,3.9
	l-19.5,5.4l-1.9,1.9l10.1,10.1l2.7-2.7l-6.4-6.4l15.8-4.3c1.3-0.3,2.2-0.9,2.9-1.5L-8.7,422.1z M-36.2,426.2l-3-3l-3.2,3.2l3,3
	L-36.2,426.2z M-48.4,415.1l6.6-6.6l4,4l-6.6,6.6L-48.4,415.1z M-34,414.8c1.3-1.3,1.3-2.5,0-3.8l-5.2-5.2l6.3-6.3l3.9,3.9l-3.7,3.7
	l3.1,3.1l4.4-4.4c1.3-1.3,1.3-2.6,0-3.8l-6.3-6.3c-1.2-1.2-2.5-1.2-3.8,0.1l-17.1,17.1c-1.3,1.3-1.3,2.5,0,3.8l6.3,6.3
	c1.3,1.3,2.5,1.2,3.8,0L-34,414.8z M-36.8,394.1c1.3-1.3,1.3-2.5,0-3.8l-6.1-6.1c-1.3-1.3-2.5-1.3-3.8,0l-4.6,4.6l3.1,3.1l3.9-3.9
	l3.8,3.8l-3.9,3.9L-64,401l-1.9,1.9l10.1,10.1l2.7-2.7l-6.4-6.4l15.8-4.3c1.3-0.3,2.2-0.8,2.9-1.5L-36.8,394.1z"/>
</svg>
