<?xml version="1.0" encoding="utf-8"?>
<!-- Generator: Adobe Illustrator 19.0.0, SVG Export Plug-In . SVG Version: 6.00 Build 0)  -->
<svg version="1.1" id="Layer_1" xmlns="http://www.w3.org/2000/svg" xmlns:xlink="http://www.w3.org/1999/xlink" x="0px" y="0px"
	 viewBox="-240 343.3 129.1 106.7" style="enable-background:new -240 343.3 129.1 106.7;" xml:space="preserve">
<style type="text/css">
	.st0{fill:#FFFFFF;}
</style>
<g>
	<path class="st0" d="M-171.3,343.3h-4.5c0,0-4,14.2-4,14l-4-14h-4.5v27.5h4.7v-12.2l2.5,9.7h2.7l2.5-9.8v12.2h4.7L-171.3,343.3z
		 M-155.9,361h-4.8v5.6h-4.3v-19h4.3v5.3h4.8v-7c0-1.6-0.8-2.5-2.4-2.5h-9.1c-1.6,0-2.4,0.8-2.4,2.5v22.6c0,1.6,0.8,2.4,2.4,2.4h9.1
		c1.6,0,2.4-0.8,2.4-2.4V361z"/>
	<path class="st0" d="M-137.8,343.3h-4.5c0,0-4,14.2-4,14l-4-14h-4.5v27.5h4.7v-12.2l2.5,9.7h2.7l2.5-9.8v12.2h4.7L-137.8,343.3z"/>
</g>
<path class="st0" d="M-194.1,411.8v-35.2h10.4v35.1h-10.4V411.8z"/>
<path class="st0" d="M-158,411.8h-20.8v-35.2h20.8c6.9,0,11.1,3.8,11.1,10.8v13.8C-146.9,408.2-151.1,411.8-158,411.8z
	 M-157.4,388.5c0-2.7-1.5-3.6-4.2-3.6h-6.9v18.5h6.9c2.7,0,4.2-0.9,4.2-3.6V388.5z"/>
<path class="st0" d="M-117,411.8h-22.3c-2.7,0-4.2-1.6-4.2-4.4v-7.8h10.5v4.5h9.8v-3.3l-18.4-7.7c-1.5-0.6-1.9-1.6-1.9-3.3v-8.9
	c0-2.8,1.5-4.4,4.2-4.4h22.3c2.7,0,4.2,1.5,4.2,4.3v7.3h-10.4v-3.9h-9.8v3.2l18.3,7.7c1.5,0.6,2,1.6,2,3.3v8.9
	C-112.7,410.2-114.3,411.8-117,411.8z"/>
<path class="st0" d="M-193.4,450l-8.9-13.1V431h8.4v-8h-9.8v27.1h-10.4v-35.3h26.4c2.7,0,4.2,1.6,4.2,4.4v13.9
	c0,2.8-1.5,4.3-4.2,4.3h-2.2l8.1,12.2v0.4C-181.8,450-193.4,450-193.4,450z"/>
<path class="st0" d="M-151.1,450h-23.5c-2.7,0-4.2-1.6-4.2-4.4v-30.8h10.4v26.8h11v-26.8h10.4v30.8
	C-146.9,448.3-148.4,450-151.1,450z"/>
<path class="st0" d="M-121.1,450l-11.5-17.5V450h-10.5v-35.2h10.3l11.5,17.5v-17.5h10.4v35.1h-10.2V450z"/>
<polygon class="st0" points="-209.6,393.5 -198.8,376.9 -198.8,376.6 -211.7,376.6 -222.4,393.5 -209.7,411.8 -196.9,411.8 
	-196.9,411.4 "/>
<polygon class="st0" points="-227.1,393.5 -196,343.3 -209.9,343.3 -240,393.5 -227.2,411.8 -214.5,411.8 -214.5,411.4 "/>
</svg>
