<?xml version="1.0" encoding="utf-8"?>
<!-- Generator: Adobe Illustrator 19.0.0, SVG Export Plug-In . SVG Version: 6.00 Build 0)  -->
<svg version="1.1" id="Layer_1" xmlns="http://www.w3.org/2000/svg" xmlns:xlink="http://www.w3.org/1999/xlink" x="0px" y="0px"
	 viewBox="-60 241.5 490.2 310.5" style="enable-background:new -60 241.5 490.2 310.5;" xml:space="preserve">
<style type="text/css">
	.st0{fill:#FFFFFF;}
</style>
<g>
	<path class="st0" d="M427.8,502.7c-0.5-1.3-1.6-2.6-3.1-3.9c-8-6.8-20.4-9.4-30.3-11.6c-11.2-2.6-22.7-3.8-34.1-5.6
		c0.3-0.6,0.7-1.4,0.9-2.2c1-3.2,1.5-7.4,1.6-12.4c0-2,0-4.1-0.1-6.3c5.4-1.1,10.9-1.9,16.3-2.7c2.2,2.4,4.3,4.4,6.3,6.1
		c3.1,2.6,6,3.7,8.7,3.3c9.6-1.5,10.2-7.5,9.6-11c0-0.3-0.1-0.6-0.3-1.1c3-0.5,5.7-1.4,7.4-3.1c2.5-2.4,1.8-4.5-0.5-6.2
		c-0.7-5-15.2-8-18.1-8.4c-0.6-0.1-1.1-0.1-1.7-0.2c-3-3.2-6.5-6.4-10.4-9.6c-2-1.6-4.1-3.2-6.2-4.6c5.6,0.2,11.2,0.1,17-0.6
		c5.5-0.7,11.6-1.9,16.9-3.5c4.4-1.3,9.2-5.7,4.4-8.8c0-1.2-0.9-2.4-3-3.4c-7.7-3.6-17.7-3.4-27.2-1.6c2.1-2.4,3.9-4.8,5.5-7.1
		c4.9-7.7,6.9-15.1,5.8-21.9c-0.3-2.1-0.9-3.6-1.7-4.6c-1.1-1.5-3.1-1.9-6.5-1.4c-1,0.1-2,0.6-3.2,1.4s-2.2,2-2.8,3.5v0.1
		c-1.2,3.4-2.5,6.5-3.7,9.2s-2.8,5.3-4.5,7.7c-1.7,2.4-3.9,4.6-6.4,6.7c-1.8,1.5-4,3-6.5,4.4c0-8.7-0.3-18.2-0.9-28.3
		c-0.7-11.4-1.9-22.4-3.4-32.5c-0.4-2.9-1.4-5.6-2.8-8c-1-1.7-3-3.7-6.9-3.7c-0.7,0-1.3,0.1-2.1,0.2c-4.4,0.7-6.2,5.2-5.4,13.4
		c0,1.1,0.2,3.8,0.4,7.8c0.2,4.1,0.5,9.3,0.9,15.3c0.3,6.1,0.7,12.9,1.2,20.5c0.4,7.6,0.9,15.4,1.3,23c0.4,7.8,0.8,15.4,1.1,22.8
		c0.1,2.6,0.2,5,0.4,7.4c-3.2,0.4-6.5,0.7-9.7,1c-8.9,0.7-21.2,2.9-30.2,1.1c-1.4-0.3-2.6-0.8-3.5-1.5c-0.5-1.8,0-3.8,1.6-6
		c2-2.7,5.5-4.6,9.5-6.2c0.7,0.4,1.4,0.8,2.3,1.1l0.5,0.2l0.4,0.1l0.8,0.2l0.2,0.1h0.1c0,0,0.4,0.1,0.3,0.1l0.5,0.1l0.9,0.1
		c0.6,0.1,1.3,0.1,1.9,0.1s1.3,0,2-0.1l0.9-0.1h0.4h0.2h0.3c0.6-0.1,1.2-0.2,1.8-0.3c2.4-0.5,4.8-1.2,7-3c1.1-0.9,2.1-2.1,2.6-3.6
		c0.2-0.7,0.4-1.4,0.4-2.2v-0.6v-0.3v-0.2v-0.4v-0.2c0,0,0-0.3,0-0.2v-0.1c-0.2-0.6-0.3-1.3-0.5-1.9s-0.5-1.2-0.8-1.8
		c-0.2-0.6-0.7-1.1-1-1.7c-0.2-0.3-0.4-0.6-0.6-0.8l-0.5-0.6L329,413l-0.1-0.1l-0.1-0.1c-0.2-0.2-0.1-0.1-0.2-0.2l-0.3-0.3l-1.3-1.1
		c-0.9-0.7-1.8-1.4-2.9-1.9c-0.5-0.3-1-0.6-1.5-0.8s-0.9-0.4-1.4-0.7l-0.3-0.2l-0.2-0.1l-0.2-0.1h-0.1l-0.8-0.3
		c-0.5-0.2-1-0.4-1.5-0.6c-1-0.3-2-0.6-3.1-0.9c-1-0.2-2.1-0.5-3.1-0.6c-0.5-0.1-1-0.2-1.4-0.2c-0.6-0.1-1-0.1-1.6-0.2
		c-0.5,0-1-0.1-1.5-0.1s-1,0-1.5,0c-1-0.1-2,0-3,0h-0.8l-0.7,0.1c-0.5,0.1-0.9,0.1-1.4,0.2l-0.4,0.1l-0.4,0.1l-0.7,0.1
		c-0.5,0.1-0.9,0.2-1.4,0.3c-0.9,0.2-1.8,0.4-2.7,0.7c-1.8,0.4-3.6,1.3-5.1,2.1c-0.7,0.5-1.4,0.9-2,1.4l-0.3,0.2l-0.2,0.2l-0.5,0.4
		c-0.3,0.3-0.6,0.5-1,0.8c-0.7,0.5-1.2,1.1-1.8,1.7c-0.6,0.6-1.1,1.1-1.6,1.8c-0.5,0.6-1,1.2-1.4,1.9c-0.4,0.6-0.7,1.2-1.1,1.8
		l-0.3,0.4L279,419c-0.1,0.2-0.1,0.2-0.2,0.3c-0.1,0.3-0.3,0.5-0.4,0.8c-4.1-0.9-8.2-2.2-10.7-4.3c-0.7-2.3,0.1-5.4,3.4-9.3
		c2.4-2.9,5.9-4.7,9-6.7l4.6-2.4c-2.8,0.2-5.6,0.5-8.5,0.8c0.1-0.1,0.1-0.2,0.2-0.2c0.6-0.4,1.2-0.7,1.7-1.1l4.6-2.4
		c-1.5,0.1-3,0.3-4.5,0.4c0.8-1.8,1.4-4,1.6-6.6c0.8-7.8,0.2-17-1.8-27.6c-4.2-21.4-8.3-39.9-12.5-55.6c-4.2-15.7-9-28.5-14.5-38.4
		c-5.6-10.2-11.9-17.2-19.1-21.2s-15.8-5-25.8-3.1c-5.3,1-9.8,3.8-13.3,8.4c-3.6,4.6-6.6,9.7-8.9,15.3c-2.4,5.7-4.2,11.3-5.4,16.9
		s-2.2,10.1-2.7,13.5c-2-7.1-3.7-13.6-5-19.4c-1.3-5.8-2.7-10.5-4.2-14.3c-1.4-3.8-3.1-6.6-5-8.4c-1.9-1.8-4.3-2.4-7.2-1.8
		c-4.9,1-7.2,5.4-6.9,13.3c0.2,3,1.4,11,3.7,24s5.8,31.4,10.4,55.1c1.2,6.1,2.3,11.5,3.3,16.1c-3.2,0.7-6.4,1.5-9.5,2.6
		c-1.4-4.2-3-8.4-4.7-12.4c-5.2-12.3-9.8-24.8-13.9-37.5c-1.1-3.5-2.2-6.7-3.4-9.9c-1.2-3.1-2.6-5.8-4-8.1c-1.5-2.3-3.1-4-5-5.1
		c-1.9-1.2-4.1-1.5-6.6-1c-4.3,0.8-6.7,4-7,9.5c-0.4,5.5,0.4,13,2.3,22.6c0.8,3.9,1.7,8.4,2.8,13.5c1.1,5.1,2.4,11,3.9,17.9
		c0.2,4.2,0,8.6-0.5,13.1c-0.6,4.5-1.5,8.6-2.8,12.3c-1.3,3.7-3,6.9-5.2,9.6c-2.1,2.7-4.7,4.3-7.6,4.8c-2.9,0.6-5.6,0.6-7.9,0
		c-2.4-0.6-4.5-2-6.5-4.4s-3.8-5.8-5.5-10.2c-1.7-4.5-3.2-10.4-4.7-17.9c-1.9-9.6-3.4-18.4-4.5-26.3s-2.1-13.9-2.8-17.8
		c-1.5-7.7-3.3-12.9-5.5-15.7s-5.1-3.9-8.9-3.2c-4.5,0.9-7,3.2-7.3,7.1c-0.4,3.8-0.1,8,0.8,12.5c0.8,3.9,1.4,9.2,2,15.8
		c0.6,6.6,1.7,14.4,3.5,23.5c1.3,6.9,3.3,14.4,5.8,22.7s6,15.8,10.3,22.6c1.6,2.4,3.3,4.6,5.1,6.7c-7.7-1.3-15.3-2.9-23.2-3.9
		c-6.1-0.8-11.6-0.7-17.3,1.9c-5.6,2.5-8,7.9-5,13.4c0.5,1,1.2,1.8,1.9,2.6c0,0.1,0.1,0.2,0.1,0.3c3.6,6.5,11.4,8.7,18.1,10.1
		c5,1.1,10.4,1.8,15,4.3c1,0.5,3,1.5,4.5,2.6c0.1,1.6,0.1,4.4-0.6,4.4c-0.3,0.2-0.7,0.3-1,0.5c-0.4,0-0.8-0.1-1.2-0.1
		c-5.4-0.5-10.8-0.4-15.9,0.4c-3.4,0.5-6.3,1.6-8.8,3.1c-13.7-1.4-27.9-5.5-41.1-2.7c1.1-2.6,1.6-5.5,1.7-8.7
		c0.1-3.9-0.3-7.9-1.1-12.2c-0.8-4.2-1.2-8-1.3-11.2c-1.3-10.8-2.3-20.8-3-30.3c-0.7-9.4-1-17.7-0.8-24.7c0.2-7.1,0.7-12.7,1.8-16.8
		c1-4.2,2.7-6.5,5.1-6.9c2.5-0.5,4.9,0.2,7,2.2c2.1,1.9,4.2,4.2,6.2,6.7c2,2.6,4.2,4.8,6.6,6.7s5.3,2.5,8.6,1.8
		c3.7-0.7,7.1-2.3,10.2-4.7s4.2-5.8,3.4-10.1c-0.4-2-2.3-5.1-5.8-9.4c-3.5-4.3-7.5-8.6-12.1-12.8s-9.3-7.8-14-10.7
		s-8.6-4.1-11.5-3.6c-2.8,0.5-5.1,1.7-7,3.3c-1.9,1.7-4.2,5.6-6.9,11.6c-1.3-6.7-2.8-10.9-4.6-12.6c-1.8-1.7-4.2-2.2-7.3-1.6
		c-2.8,0.5-4.8,3.2-6.1,7.9c-1.3,4.7-2.2,10.7-2.6,17.9c-0.4,7.2-0.5,15.3-0.2,24.3s0.9,18,1.7,26.9c0.8,8.9,1.8,17.4,2.8,25.6
		c1.1,8.1,2.2,15.1,3.3,20.8c1.4,7.1,2.5,12.6,3.5,16.6s2,6.9,2.9,8.9c0.8,1.6,1.8,2.6,3,3.1c-3.1,2.5-5.6,5.7-4.3,9.7
		c0.4,1.3,1.1,2.2,2,3c2,5.6,9.6,5.2,14.3,6.2c5.6,1.2,11.2,2,16.9,2.6c5.1,0.6,10.3,1,15.5,1.5c0,0.6,0,1.1-0.1,1.7
		c-0.1,4.8,0.2,9.2,0.8,13c0.4,2.5,1,5.1,1.8,7.8c-4.9,2.5-9.2,5.8-12.1,10c-4.4,6.3-3.2,11.6,0.5,15.8c2.4,4.6,7.9,8.2,13.2,10.7
		c6.4,3.1,13.6,4.3,20.6,4.6c13.6,0.7,28.7-1.8,40.2-9.5c12.4-8.4,16.8-26.4,35.3-20.5c3,1,5.4,2.9,7.4,5.3c0.9,1.5,1.7,3.2,2.3,4.8
		c1.8,5,0.2,12.7,2.8,16.9c0.4,0.7,0.9,1.2,1.4,1.7c0.2,0.4,0.4,0.9,0.6,1.2c2,3.1,5.3,3.9,8.8,4.2c7.6,0.5,16.1-2.5,23.1-5.4
		c11.5-4.8,20-12.8,30.4-19.1c29-17.6,56.4,14.4,81.3,25.7c12.3,5.6,50.5,14.5,55.2-5.4c0.9-4-0.4-7.4-2.9-10.2
		c-2.8-5.5-10.2-9.2-15.6-11.4c-5.8-2.3-18.2-4.1-23.1-7.1c0.6-4.9,14.5-4.7,21.2-4.4c8.6,0.3,17,1.7,25.5,2.3
		c19.7,1.4,39.5,3.4,59.2,4.4c4.5,0.2,9.4,0.6,13.9,0.2C429.9,512.6,432.7,507.7,427.8,502.7z M280.4,420.2L280.4,420.2
		c0.1-0.1,0.2-0.3,0.2-0.2l0.2-0.2l0.3-0.4c0.4-0.5,0.9-1.1,1.4-1.6s1-0.9,1.5-1.4s1.1-0.9,1.6-1.4c0.6-0.5,1.1-0.9,1.8-1.3
		c0.3-0.2,0.6-0.4,0.9-0.6l0.5-0.3l0.2-0.1l0,0h0.1l0.1-0.1c0.7-0.4,1.4-0.8,2.2-1.1c0.7-0.4,1.4-0.6,2.1-0.9s1.4-0.6,2.2-0.8
		c0.8-0.3,1.5-0.5,2.4-0.7c0.4-0.1,0.8-0.2,1.2-0.3l0.6-0.1l0.3-0.1h0.3c0.5-0.1,0.9-0.1,1.4-0.2l0.7-0.1h0.6c0.8,0,1.7-0.1,2.6,0
		c0.4,0,0.9,0,1.3,0c0.5,0,0.9,0.1,1.4,0.1c0.4,0,1,0.1,1.3,0.1c0.5,0.1,1,0.2,1.4,0.2c1,0.1,1.9,0.4,2.8,0.6s1.8,0.5,2.7,0.8
		c0.4,0.2,0.9,0.3,1.3,0.5l0.7,0.3h0.1l0,0l0,0l0.2,0.1l0.3,0.2c0.5,0.2,0.9,0.4,1.4,0.7c0.4,0.2,0.8,0.5,1.2,0.7
		c0.8,0.4,1.6,1,2.4,1.6l1.1,0.9l0.3,0.2l0,0l0,0l0.1,0.1l0.5,0.6l0.5,0.6c0.2,0.2,0.2,0.4,0.4,0.5c0.2,0.4,0.5,0.6,0.6,1.1
		c0.2,0.4,0.4,0.8,0.5,1.2l0.3,1.3v0.1c0,0.1,0,0,0,0v0.2v0.4v0.2v0.1v0.2c0,0.3-0.1,0.7-0.2,1c-0.1,0.3-0.3,0.6-0.5,0.9l0,0
		c-0.2,0.3-0.5,0.6-0.8,0.8c-1.3,1.1-3.3,1.7-5.4,2.2c-0.5,0.1-1,0.2-1.6,0.3H320l0,0l0,0h-0.2h-0.4l-0.9,0.1H317
		c-0.5,0-1,0-1.6-0.1h-0.2l-0.5-0.1h-0.4l0,0l0,0l-0.2-0.1l-0.8-0.2l-0.4-0.1l-0.3-0.1l-0.6-0.3l-0.3-0.1l-0.3-0.2
		c-0.4-0.2-0.8-0.5-1.1-0.7l-0.1-0.1l-0.6-0.5l-0.7-0.5l-1.5-1.2l-1.4-1.1l-0.1-0.1l-0.6-0.4l-0.4-0.3c-0.1-0.1,0.2,0.1-0.3-0.2
		l-0.1-0.1l-0.2-0.1c-0.3-0.1-0.5-0.3-0.8-0.4c-0.4-0.2-0.8-0.3-1.2-0.5c-0.4-0.2-0.8-0.2-1.2-0.2c-0.4-0.1-0.8-0.1-1.2,0h-0.6
		c-0.1,0,0,0-0.2,0H299h-0.2l-0.9,0.2c-0.6,0.2-1.4,0.4-2,0.6c-0.8,0.3-1.6,0.7-2.3,1.2c-0.5,0.3-0.9,0.6-1.4,1
		c-0.5,0.5-1,1-1.5,1.5c-0.5,0.6-0.9,1.2-1.3,1.9l-0.4,0.8c-0.1,0.3-0.3,0.6-0.4,0.9c-0.3,0.7-0.5,1.3-0.7,2
		c-0.4,1.3-0.6,2.8-0.5,4.2c0,0.4,0.1,0.7,0.1,1.1c0,0.2,0,0.3,0.1,0.6l0.1,0.4l0.3,1.8l0.7,3.6l0.7,3.6l0.4,1.9l0.5,1.8
		c0.3,1.1,0.7,2.4,1.1,3.7c0.2,0.6,0.5,1.2,0.7,1.8c0.3,0.6,0.5,1.2,0.8,1.8l0.9,1.7l0.1,0.2l0.1,0.1c0,0,0.2,0.3,0.1,0.2l0.2,0.4
		l0.5,0.8c0.6,1,1.6,2.1,2.4,3.2c0.5,0.5,1,0.9,1.5,1.4l0.7,0.7l0.8,0.6l0.8,0.6l0.4,0.3l0.2,0.1c0.1,0,0,0,0.2,0.1l0.1,0.1
		c0.5,0.3,1,0.6,1.8,0.8c2.7,1.1,5.4,1.3,8,1.1c0.6,0,1.3-0.1,1.9-0.2l0.9-0.1h0.2c-0.1,0,0.2,0,0.2,0h0.1l0.4-0.1l0.4-0.1
		c0.1,0,0.4-0.1,0.6-0.2c0.4-0.2,0.8-0.3,1.2-0.5c0.4-0.2,0.8-0.5,1.1-0.8c0.2-0.2,0.3-0.4,0.5-0.5c0,0,0.2-0.3,0.2-0.2l0.1-0.1
		l0.1-0.2c0.3-0.5,0.6-0.9,0.9-1.7l0.7-1.7l0.2-0.4c0.1-0.1,0.1-0.3,0.2-0.3c0.1-0.2,0.2-0.3,0.3-0.5l0.1-0.3l0.1-0.1
		c0,0,0.1-0.1,0.1-0.2l0,0l0.2-0.1c0.3-0.2,0.7-0.3,1.1-0.4c0.2-0.1,0.5-0.1,0.7-0.1l0.8-0.1c0.6-0.1,1.1-0.1,1.6-0.1s1,0,1.4,0.1
		c0.9,0.1,1.7,0.4,2.2,0.8c0.1,0.1,0.1,0.1,0.2,0.1l0.1,0.2l0.1,0.1l0,0l0,0l0.2,0.3l0.4,0.7c0.1,0.2,0.3,0.5,0.4,0.7
		c0.6,1.3,1.1,3.2,1.4,4.9c0.1,0.3,0.1,0.6,0.2,0.8l0.2,1.7c0,0.4,0,0.9,0,1.3c-0.1,0.4-0.1,0.9-0.2,1.3l-0.2,0.6v0.1v0.1l0,0
		l-0.1,0.2v0.1l-0.4,0.7l-0.3,0.4c-0.2,0.3-0.6,0.6-0.8,0.9c-0.3,0.2-0.7,0.5-1,0.7c-0.5,0.3-1,0.6-1.3,0.7l-0.6,0.3l-0.7,0.2
		c-0.4,0.2-0.9,0.3-1.4,0.4l-0.3,0.1h-0.2l0,0h-0.1L325,478c-0.5,0.1-1,0.2-1.5,0.3c-1,0.2-2,0.4-3,0.6l-0.8,0.2l-0.6,0.1
		c-0.5,0.1-1,0.1-1.5,0.2c-1,0.1-1.9,0.2-2.9,0.3c-1,0-1.9,0.1-2.9,0.1c-3.8,0-7.4-0.3-10.6-1.3c-0.9-0.3-1.7-0.5-2.4-0.8
		c-0.8-0.3-1.5-0.6-2.2-1c-0.7-0.4-1.4-0.8-2.1-1.2s-1.3-0.8-2-1.2c-1.3-0.9-2.5-1.8-3.5-2.8c-0.6-0.5-1.1-1.1-1.7-1.6
		c-0.3-0.3-0.5-0.5-0.7-0.8c-0.2-0.3-0.4-0.5-0.7-0.8c-0.5-0.5-0.9-1.1-1.3-1.6c-0.4-0.6-0.8-1.1-1.2-1.7c-0.4-0.6-0.8-1.1-1.1-1.7
		c-0.3-0.6-0.6-1.1-0.9-1.7c-0.3-0.6-0.6-1.1-0.9-1.6c-0.2-0.6-0.5-1.1-0.7-1.6c-0.5-1.1-1-2.1-1.3-3.1c-0.4-1-0.7-1.9-1-2.8
		s-0.5-1.8-0.7-2.5c-0.2-0.8-0.4-1.5-0.6-2.2c-0.2-0.7-0.3-1.3-0.4-1.9c-0.4-2.2-0.7-3.4-0.7-3.4s0-0.3-0.1-0.9
		c0-0.6-0.2-1.5-0.2-2.6c0-0.6,0-1.2,0-1.9c0-0.7,0.1-1.5,0.2-2.3c0-0.4,0.1-0.8,0.1-1.3c0.1-0.4,0.2-0.9,0.3-1.3
		c0.1-0.5,0.2-0.9,0.3-1.4c0.1-0.5,0.3-1,0.5-1.5s0.3-1,0.5-1.6c0.2-0.5,0.4-1,0.7-1.5c0.4-1.1,1.1-2.1,1.7-3.2
		c0-0.1,0.1-0.1,0.1-0.1c0.3-0.5,0.6-1,1-1.4C280,420.7,280.2,420.5,280.4,420.2z M345.2,433.3c-0.2-4.9-0.5-9.9-0.7-15
		c0-0.2,0-0.4,0-0.6c-0.1-2.4-0.2-4.8-0.4-7.2c-0.4-7.6-0.8-15.3-1.3-23c-0.4-7.6-0.8-14.4-1.2-20.5c-0.3-6.1-0.6-11.2-0.9-15.3
		c-0.2-4.1-0.4-6.7-0.4-7.8v-0.1c-0.3-3.2-0.5-8.7,2-9.1c0.5-0.1,1-0.1,1.4-0.1c2.1,0,3,0.9,3.4,1.7c1.2,2,1.9,4.2,2.3,6.6
		c1.6,10,2.7,20.8,3.4,32.2c0.7,11.3,1,21.9,0.9,31.4v3.3l2.9-1.5c4-2,7.4-4.2,10.2-6.4c2.7-2.3,5.1-4.7,7-7.4
		c1.9-2.6,3.6-5.4,4.9-8.4c1.3-2.9,2.6-6,3.8-9.5c0.3-0.8,0.8-1.3,1.4-1.7c0.9-0.6,1.4-0.7,1.6-0.8c0.7-0.1,1.4-0.2,1.9-0.2
		c0.6,0,0.8,0.1,0.9,0.1c0.2,0.4,0.6,1.1,0.8,2.7c0.9,5.8-0.9,12.2-5.2,19.1c-2.3,3.6-5.4,7.3-9.3,10.9c-2,1.9-4.1,3.7-6.5,5.6
		c-2,1.6-4.2,3.2-6.6,4.8l-2.8,1.9l0.5,0.3l2.5,1.3c1.2,0.6,2.4,1.3,3.5,1.9c4.4,2.5,8.4,5.2,12.1,8.2c2.5,2.1,4.8,4.1,6.9,6.1
		c1,1,2,1.9,2.9,2.9c0.7,0.7,1.4,1.5,2,2.2c3.2,3.6,5.7,6.9,7.6,9.8c0.2,0.3,0.4,0.7,0.6,1c0.8,1.4,1.4,2.3,1.7,2.9
		c0.4,0.8,0.5,1.1,0.5,1.2c0.4,2.6,0,5.5-6.3,6.4c-1.5,0.2-3.4-0.6-5.5-2.4c-1.3-1.1-2.6-2.3-4-3.7c-0.9-0.9-1.7-1.8-2.6-2.8
		c-0.5-0.6-1.1-1.2-1.6-1.8c-3-3.5-6.3-7.3-9.6-11.3c-0.1-0.2-0.3-0.3-0.4-0.5c-0.8-1-1.6-1.9-2.5-2.8c-2.5-2.8-5.1-5.5-7.6-8
		l-4-3.8l0.6,5.5c0.3,2.5,0.5,4.9,0.8,7.4c0.1,1,0.2,2.1,0.3,3.1c0.3,2.9,0.6,5.7,0.8,8.4c0.2,2.7,0.4,5.2,0.5,7.6
		c0.1,1.1,0.1,2.2,0.1,3.3c0.1,1.9,0.1,3.7,0.1,5.4c-0.1,4.6-0.5,8.4-1.4,11.3c-0.4,1.3-0.9,2.2-1.4,2.7c-0.7,0.7-1.4,0.9-1.9,1
		s-1.1,0.1-1.5,0.1c-1.9,0-2.6-0.8-3-1.3c-0.2-0.4-0.4-0.8-0.6-1.2c-0.7-1.5-1.2-3.3-1.6-5.3c0-0.2-0.1-1.2-0.4-6.3
		c-0.1-1.3-0.1-2.7-0.2-4.2c-0.1-1-0.1-2.1-0.2-3.3c-0.1-2.2-0.2-4.5-0.4-7.1c-0.2-3-0.3-6.3-0.5-9.8c-0.1-1-0.1-2.1-0.2-3.1
		C345.5,438.1,345.3,435.8,345.2,433.3z M210.7,411.2c1,0.4,1.9,1.2,2.5,2.2c1.2,1.9,1.7,4.2,2.2,6.4c0.4,2.2,0.7,4.5,0.8,6.7
		l0.5,6.8c0.3,4.5,0.6,9.1,1,13.6l0.6,6.9c0.3,2.2,0.7,4.5,1.2,6.7l1,3.4l0.5,1.7c0,0.2,0.1,0.2,0.1,0.5l0.1,0.4l0.3,0.8l0.3,0.8
		c0.1,0.3,0.2,0.6,0.4,0.9c0.3,0.6,0.5,1.2,0.8,1.7c0.6,1.1,1.2,2.1,2.1,3.3c0.4,0.4,0.7,0.8,1.3,1.4c0.3,0.2,0.6,0.5,0.9,0.7
		l0.9,0.6c0.3,0.2,0.6,0.3,1,0.5l0.5,0.2l0.3,0.1h0.1h0.2h0.1c0.6,0.1,1.1,0.3,1.8,0.3c1.5,0.2,2.7,0,3.9-0.1h0.1h0.2l0,0h0.1
		l0.2-0.1l0.4-0.1c0.3-0.1,0.5-0.1,0.9-0.2s0.7-0.3,1.1-0.5l0.5-0.3c0.2-0.1,0.3-0.2,0.4-0.3c0.6-0.4,1.2-0.8,1.6-1.3l0.7-0.7
		l0.2-0.2l0,0l0.1-0.1l0,0l0.1-0.1l0.3-0.3c0.7-0.8,1.5-2,2.1-3.1c0.3-0.5,0.6-1.1,0.8-1.6l0.4-0.8l0.2-0.4l0.1-0.2v-0.1l0.1-0.2
		V467l1.1-3.2c0.2-0.5,0.3-1.1,0.4-1.7l0.4-1.8l0.2-0.9l0.1-0.4v-0.1v-0.1l0,0v-0.1v-0.2l0.2-1.7l0.2-1.7l0.1-0.8v-0.9l0.1-3.6v-0.1
		v-0.2l-1.7-9.1c-0.6-3-1-6.1-1.6-9.1l-0.4-2.3l-0.1-0.5l-0.1-0.6l-0.2-1.2c-0.2-1.5-0.4-3.1-0.5-4.6c-0.1-0.7-0.1-1.5-0.2-2.2
		l-0.1-2.2c0-0.4,0-0.7,0-1.1l0.1-1.1l0.1-1.1v-0.3V414v-0.1l0,0l0.1-0.5l0.1-0.6c0-0.2,0.1-0.3,0.1-0.4c0.1-0.3,0.1-0.5,0.3-0.8
		l0.2-0.4c0.1-0.1,0.1-0.2,0.2-0.3c0.1-0.2,0.3-0.4,0.5-0.5c0.1-0.2,0.4-0.3,0.5-0.4c0.2-0.1,0.4-0.2,0.7-0.3l0.4-0.1l0.2-0.1l0,0
		h0.1h0.6h0.3c0.1,0,0.2,0,0.2,0c0.2,0.1,0.4,0,0.6,0.1c0.2,0.1,0.5,0.1,0.7,0.2c0.1,0.1,0.2,0.1,0.3,0.2h0.1l0,0l0,0l0.2,0.1
		c0.3,0.2,0.7,0.5,0.8,0.7c0.4,0.3,0.8,0.9,1.2,1.4l0.3,0.4l0.1,0.2v0.1l0,0v0.1l0.5,1c0.8,1.4,1.2,2.7,1.7,4l1.4,4.4l2.7,8.9
		c0.9,3,1.7,5.9,2.8,8.9l3.1,8.9l1.5,4.4c0.5,1.5,1.1,2.9,1.4,4.4l1.3,4.4c0.4,1.5,0.7,3,1.1,4.5c0.8,3,1.2,6,1.8,9v0.1v0.1l0,0l0,0
		v0.3l0.1,0.6c0,0.3,0,0.6,0,0.9c0,0.6-0.1,1.2-0.2,1.7c-0.3,1-0.9,1.7-2,2.1c-0.5,0.2-1.1,0.4-1.7,0.5h-0.2l0,0h-0.1l-0.6,0.1
		c-0.2,0-0.4,0-0.7,0c-0.5,0-1.1-0.2-1.6-0.5c-0.3-0.1-0.5-0.3-0.7-0.4c-0.1-0.1-0.2-0.2-0.3-0.3l-0.2-0.1l0,0l-0.1-0.1l-0.8-0.8
		c-0.1-0.1-0.3-0.3-0.4-0.4l-0.3-0.4c-0.4-0.5-0.8-1-1.2-1.7c-0.8-1.2-1.5-2.5-2.3-3.8l-2.8-5l-1,5.6l-0.3,1.6
		c-0.1,0.5-0.2,1.1-0.3,1.6c-0.1,0.5-0.3,1.1-0.4,1.6s-0.3,1-0.5,1.5s-0.3,1-0.6,1.5c-0.2,0.5-0.4,1-0.7,1.4
		c-0.3,0.5-0.5,0.9-0.8,1.4c-0.3,0.4-0.5,0.9-0.9,1.3l-0.5,0.6l-0.1,0.1l0,0l0,0l-0.1,0.2l-0.3,0.3l-0.6,0.6l-0.5,0.5
		c-0.3,0.3-0.7,0.7-1.1,1s-0.8,0.6-1.3,0.9c-0.4,0.3-0.9,0.5-1.3,0.8c-0.5,0.2-0.9,0.4-1.4,0.7c-0.5,0.2-1,0.4-1.5,0.5l-1.4,0.4
		c-2.1,0.3-4.1,0.5-6.1,0.3c-2-0.1-4.1-0.5-5.9-1.2l-1.4-0.6l-1.3-0.7l-0.2-0.1h-0.1l-0.3-0.2l-0.7-0.5l-1.4-1
		c-0.2-0.2-0.5-0.3-0.7-0.5l-0.6-0.5l-1.1-1c-0.8-0.6-1.4-1.5-2.1-2.3l-1-1.2l-0.9-1.3l-0.9-1.3l-0.2-0.3l-0.1-0.2l0,0l0,0v-0.1
		l-0.4-0.7c-0.5-1-1.1-2-1.6-2.9l-1.3-2.9c-0.4-1-0.8-2-1.2-3c-0.4-1-0.7-2-1-3.1l-0.5-1.5l-0.1-0.4v-0.1c0,0,0-0.1,0,0v-0.1v-0.2
		l-0.2-0.8l-0.8-3.3c-0.3-1.1-0.5-2.2-0.8-3.2l-0.7-3.2l-0.7-3.2l-0.2-0.8l-0.1-0.4l-0.1-0.4l-0.3-1.6l-1.2-6.6l-0.9-6.5l-0.8-6.7
		l-1.1-6.6c-0.2-2.2-0.3-4.4,0.1-6.6c0.2-1.1,0.9-2.1,1.8-2.7c0.9-0.6,2-1,3.1-1.2C208.5,410.7,209.6,410.7,210.7,411.2z
		 M138.9,415.1c0.4,0,0.9,0,1.3,0l0.7,0.1l0.7,0.1c0.4,0.1,0.9,0.2,1.3,0.4c0.4,0.2,0.8,0.4,1.2,0.6c0.4,0.2,0.8,0.4,1.1,0.7
		c0.4,0.3,0.7,0.5,1,0.9l0.5,0.5l0.4,0.5c0.3,0.3,0.5,0.7,0.8,1.1c0.3,0.4,0.5,0.8,0.7,1.2s0.4,0.8,0.6,1.2c0.2,0.4,0.4,0.8,0.5,1.2
		c0.3,0.8,0.6,1.7,0.8,2.6c0.3,0.9,0.4,1.7,0.6,2.6h0.4c1-3.7,2.2-7.4,4.1-10.7c0.9-1.6,2-3.2,3.3-4.5c0.2-0.2,0.3-0.4,0.5-0.5
		l0.5-0.5c0.4-0.3,0.7-0.6,1.1-0.9c0.7-0.6,1.5-1.1,2.3-1.6c1.6-0.9,3.3-1.6,5.1-2l1.3-0.2l1.4-0.1h1.3c0.5,0,0.9,0,1.4,0.1
		c1.8,0.2,3.5,0.6,5,1.4l0.1,0.1h0.1l0.3,0.2l0.6,0.4l0.6,0.4c0.2,0.1,0.4,0.3,0.6,0.4l0.9,0.8c0.2,0.1,0.3,0.3,0.5,0.4l0.4,0.5
		l0.9,1c0.3,0.3,0.5,0.7,0.8,1.1l0.8,1.1l0.7,1.2l0.7,1.3l0.6,1.2l0.6,1.2l0.5,1.3c0.3,0.9,0.7,1.7,0.9,2.6l0.4,1.3l0.2,0.6l0.2,0.7
		l1.5,5.6c0.4,1.9,0.7,3.7,1.1,5.6l0.3,1.4l0.1,0.7l0.1,0.3v0.1l0,0l0,0v0.2l0.3,2.9l0.3,2.9c0.1,1,0.3,1.9,0.2,2.9l0.2,5.6
		c0.1,3.9,0,7.7,0,11.6v5.8l0.1,5.8c0,1.9,0.2,3.9,0.3,5.9l0.3,5.8c0.1,2,0.1,3.8,0.1,5.7v0.7v0.4v0.3l-0.1,1.4
		c0,0.5-0.1,0.8-0.2,1.3c0,0.4-0.1,0.8-0.3,1.2c-0.1,0.4-0.2,0.8-0.4,1.1l-0.2,0.5v0.1l-0.1,0.1l-0.2,0.3c-0.1,0.1-0.1,0.1-0.2,0.2
		c-0.1,0.1-0.2,0.2-0.3,0.3c-0.2,0.2-0.5,0.3-0.8,0.5c-1.2,0.5-3.2,0.7-4.2,0.3c-0.1-0.1-0.2-0.1-0.4-0.2h-0.1l0,0l-0.3-0.2
		c-0.5-0.3-0.6-0.5-0.8-0.7c-0.5-0.6-1-1.2-1.4-1.9c-0.3-0.5-0.4-0.8-0.5-1.1c-0.2-0.3-0.3-0.8-0.4-1.2l-0.3-1.2l-0.3-1.4l-0.6-2.9
		l-0.1-0.7v-0.2l0,0v-0.3l-0.1-1.4c-0.1-1-0.2-1.9-0.3-2.9v-2.8v-2.8v-2.9V474v-5.8l-0.1-5.9l-0.2-11.6l-0.2-6.2
		c-0.1-1.9-0.2-3.9-0.5-5.8l-0.7-5.9l-0.1-0.7v-0.4v-0.2c0,0-0.1-0.4,0-0.3v-0.1l-0.2-0.7c0-0.1-0.1-0.2-0.1-0.4l-0.2-0.5l-0.4-0.9
		c-0.1-0.3-0.3-0.5-0.4-0.8c-0.2-0.2-0.3-0.5-0.5-0.7l-0.5-0.7c-0.2-0.2-0.3-0.4-0.6-0.7c-0.2-0.2-0.3-0.3-0.5-0.5
		c-0.5-0.4-0.9-0.8-1.6-1.2c-0.6-0.3-1.3-0.7-2.3-0.7c-0.2,0-0.5,0-0.7,0c0.1,0-0.4,0.1-0.3,0.1h-0.1h-0.2c-0.3,0.1-0.4,0.1-0.8,0.2
		c-0.3,0.1-0.7,0.3-1,0.5l-0.8,0.5c-0.5,0.4-1,0.8-1.3,1.2l-0.6,0.6l-0.5,0.6c-0.4,0.4-0.6,0.9-0.9,1.3c-0.3,0.4-0.5,0.9-0.8,1.4
		l-0.1,0.2l-0.1,0.2l-0.2,0.3l-0.3,0.6c-0.4,0.9-0.9,1.7-1.3,2.7c-0.9,1.9-1.6,3.7-2.3,5.6l-1,2.8l-0.1,0.4l-0.1,0.3l-0.2,0.7
		l-0.4,1.4l-0.8,2.8c-0.3,0.9-0.6,1.8-0.8,2.8l-1.3,5.8c-0.4,2-0.7,3.8-1.1,5.8l-0.3,1.4l-0.2,1.5l-0.4,3c-0.1,0.5-0.1,1-0.2,1.5
		l-0.1,1.4l-0.3,2.9c-0.1,1,0,2-0.1,3v3c0,1.9,0.1,3.9-0.1,5.7l-0.1,1.4v0.3v0.2v0.1v0.1l-0.1,0.7l-0.1,0.7v0.4l-0.1,0.3l-0.3,1.2
		l-0.4,1.2l-0.5,1.1v0.1l0,0l-0.1,0.1l-0.2,0.3c-0.1,0.1-0.1,0.2-0.2,0.2l-0.1,0.1c-0.2,0.2-0.5,0.4-0.7,0.6c-0.6,0.4-1.3,0.6-2,0.8
		l-0.5,0.1l-0.7,0.1c-0.4,0-0.7,0-1,0c-0.7-0.1-1.4-0.3-2-0.6c-0.1-0.1-0.3-0.2-0.5-0.3l-0.3-0.2l-0.5-0.5c-0.1-0.1-0.2-0.2-0.2-0.3
		c-0.8-1.1-1.4-2.8-1.8-4.5l-0.1-0.7l-0.1-0.3V488v-0.1l-0.2-1.4l-0.3-2.9v-2.7v-1.3l0.1-1.4l0.3-2.9l0.4-2.8l0.2-1.4v-0.2l0,0l0,0
		v-0.1l0.1-0.4l0.2-0.7l0.6-2.8l1.2-5.7l2.8-11.2l0.1-0.5l-0.1-0.4c-0.5-2.1-1-4.2-2-6.4c-0.2-0.5-0.6-1.1-0.9-1.7l-0.1-0.2
		l-0.1-0.1l-0.3-0.2l-0.2-0.3c-0.2-0.2-0.5-0.6-0.8-0.8c-0.5-0.5-1.3-1-2.3-1.3c-0.5-0.1-1-0.1-1.5-0.1h-0.1c-0.6,0.1-0.2,0-0.3,0.1
		h-0.1l-0.2,0.1h-0.1l-0.2,0.1c-0.1,0.1-0.3,0.1-0.4,0.2c-1,0.6-1.3,1-1.7,1.5s-0.7,1-1.1,1.5c-0.3,0.5-0.6,1-0.9,1.5
		c-0.1,0.3-0.3,0.4-0.4,0.8l-0.3,0.7c-0.9,1.9-1.9,3.7-2.7,5.7l-1.3,3l-0.6,1.5l-0.6,1.5l-2.3,5.9l-4.6,11.7l-2.3,5.7l-1.1,2.8
		l-1.3,2.9l-1.3,2.9l-1.4,2.7l-0.7,1.4l-0.3,0.6l-0.4,0.7c-0.3,0.5-0.5,0.8-0.7,1.2l-0.4,0.6l-0.4,0.5c-0.3,0.3-0.5,0.5-0.7,0.6
		h-0.1l0,0l0,0l0,0l-0.7,0.1c-0.2,0-0.2,0-0.3,0s-0.1,0-0.2,0c-0.1,0-0.2-0.1-0.3-0.1s-0.1-0.1-0.2-0.1l0,0l0,0l-0.2-0.1
		c-0.1-0.1-0.2-0.2-0.3-0.2c-0.1-0.2-0.4-0.4-0.6-0.7l-0.1-0.1v-0.1l0,0l-0.1-0.3l-0.3-0.7c-0.1-0.3-0.1-0.4-0.2-0.6l-0.1-0.5
		c0-0.1-0.1-0.2-0.1-0.2l-0.1-0.4l-0.1-0.8l-0.3-1.5l-0.1-0.4v-0.2v-0.1l-0.1-0.8l-0.3-3.1c-0.1-2-0.2-4.1-0.3-6.1l-0.2-12.6V466
		v-0.7v-1.6l0.1-3.1l0.2-6.3l0.1-3.1v-0.8V450v-0.1l0,0v-0.2l0.1-1.6l0.5-6.3l0.5-6.3l0.1-0.7l0.1-0.8l0.2-1.6l0.4-3.1
		c0.1-1.1,0.3-2,0.5-3s0.3-2,0.6-2.9c0.1-0.5,0.3-0.9,0.4-1.4l0.2-0.6l0.1-0.1c0.6,0,1.1-0.1,1.7-0.2c0.1,0.1,0.2,0.2,0.3,0.3
		c0.4,0.5,0.8,1.3,1,2.1c0.1,0.4,0.2,0.9,0.3,1.3l0.1,0.3l0.1,0.4l0.1,0.8l0.5,3.1l0.1,0.8l0.1,0.4l0,0l0,0v0.1v0.2l0.2,1.6l0.3,3.1
		l0.6,6.2l1.1,12.5l1.9,0.2l1.3-5.7c0.2-0.9,0.4-1.9,0.7-2.8l0.8-2.8l0.8-2.8l0.4-1.4l0.5-1.4l1-2.8c0.3-0.9,0.6-1.8,1-2.7l2.4-5.3
		l1.4-2.6c0.5-0.8,1-1.7,1.6-2.4c0.6-0.8,1.2-1.6,1.9-2.2c0.3-0.3,0.7-0.7,1-1l1.1-0.9c0.4-0.3,0.8-0.5,1.2-0.8l0.6-0.4l0.7-0.3
		c0.5-0.2,0.9-0.4,1.4-0.5l1.4-0.4C138,415.2,138.5,415.2,138.9,415.1z M35.3,490.1c-0.6-3.6-0.8-7.7-0.7-12.3c0-0.5,0-0.9,0-1.4
		c0-0.9,0.1-1.8,0.2-2.7c0.3-3.1,0.9-6.1,1.8-9c1.3-4,3.2-7.6,5.9-10.6c1.2-1.3,2.6-2.4,4.3-3.3c1.9-1,4.1-1.7,6.6-2.1
		c4.8-0.8,9.8-0.9,14.9-0.4c0.4,0,0.8,0.1,1.2,0.1c4.4,0.5,8.2,1.4,11.5,2.7c0.9,0.9,2.2,2.9,4,6.8c1.6,3.6,3.2,7.8,4.7,12.5
		c1.5,4.7,2.9,9.7,4.1,14.9c1.2,5.2,2.2,10.1,2.9,14.5c0.6,3.6,0.9,7.1,1.1,10.4c0.2,3.2,0.1,6.1-0.2,8.5c-0.3,2.3-0.9,4.2-1.6,5.6
		c-0.6,1.1-1.4,1.7-2.5,1.8c-1.7,0.3-3-0.1-4-1.1c-0.9-0.9-2.4-3.3-4.8-9.5l-0.6-1.4l-1.5,0.2c-10.5,1.2-18.8,1.2-24.9,0
		c-5.9-1.2-10.5-3.2-13.7-5.7c-3-2.5-5.1-5.3-6.1-8.4c0-0.1-0.1-0.1-0.1-0.2c-0.3-1.1-0.6-2.1-0.9-3.1
		C36.2,494.5,35.7,492.3,35.3,490.1z M200.3,385c0.6-6.9,2.5-11.3-1.7-15.4c-0.8-1.9-2.4-3.7-5.5-5.4c-1.2-0.7-2.5-1.3-3.8-1.8
		c0.4-6.2,1.1-12.8,2.1-19.9c1-7.7,2.4-15.6,4-23.5c1.6-8,3.5-15.2,5.5-21.9c2.1-6.6,4.5-12.2,7.3-16.7s5.8-7.1,8.9-7.7
		c4.3-0.8,8.1,0.3,11.2,3.5c3.2,3.2,5.9,7.4,8.1,12.8c2.3,5.4,4.2,11.3,5.7,17.7c1.6,6.4,2.9,12.5,4,18.2c0.9,4.7,2,12.6,3.2,23.7
		c1.2,11.1,3.3,24,6.1,38.7c0.7,3.5,1.6,6.3,2.8,8.3c0.3,0.4,0.5,0.8,0.8,1.2c0.8,1.2,1.7,2.1,2.6,2.8c-16,1.6-32.5,2.5-47-1.6
		c-5.5-1.5-11.8-3.4-13.8-8.3C200.4,388.3,200.1,386.8,200.3,385z"/>
	<path class="st0" d="M15.5,498.9l-4.8-3.7c-10-8.3-18.9-12.4-31.3-14.3c-9.1-1.4-23.3-4.5-32.7-0.5c-1.1,0.5-2.2,1.1-3.2,1.8
		c-4.8,3.5-4.3,8.3-0.8,12c0.9,1.9,2.6,3.8,4.8,5.1c7.1,4.4,18.2,3.2,27.8,2.2c-4,4.2-7.2,11.1-4.9,14.2c0.4,0.5,0.8,0.9,1.3,1.2
		c0.1,0.6,0.3,1.2,0.7,1.7c3.3,4.3,13.8,3.4,18.2,1.7c3.1-1.2,20.1-12.6,23.1-15.3c1.2-1.1,3.8-3.2,3.8-3.2l-2.8-2.2
		C15.2,499.1,15.5,498.9,15.5,498.9z"/>
	<path class="st0" d="M46,493.7c0.5,1,1.1,2,1.8,2.9c0.4,0.5,0.8,0.9,1.2,1.4c2.2,2.2,4.8,4.1,7.8,5.5c3,1.5,6.4,2.5,9.9,3
		c1.8,0.3,3.5,0.4,5.2,0.4s3.5-0.1,5.2-0.4c1.8-0.3,3.7-0.8,5.7-1.5l1.5-0.6l-0.2-1.6c-0.6-3.7-1.3-7.4-2-11.1
		c-0.2-0.8-0.4-1.7-0.5-2.5c-0.3-1.4-0.6-2.8-0.9-4.2c-0.3-1.3-0.5-2.5-0.8-3.7c-0.7-3.3-1.4-6.4-2.2-9.2c-0.7-2.8-1.5-5.3-2.2-7.3
		l-0.3-0.7l-0.7-0.4c-5.5-3-11.6-4.1-18.1-3.1c-3,0.5-5.5,2-7.3,4.5c-1.6,2.3-2.8,4.9-3.6,7.9c-0.2,0.7-0.3,1.4-0.4,2.1
		c-0.2,0.8-0.3,1.7-0.4,2.6c-0.2,1.4-0.3,2.8-0.3,4.2c-0.1,3,0,5.7,0.4,7.9C45,491.1,45.4,492.4,46,493.7z"/>
	<path class="st0" d="M109.2,496.4L109.2,496.4L109.2,496.4L109.2,496.4z"/>
</g>
</svg>
