<?xml version="1.0" encoding="utf-8"?>
<!-- Generator: Adobe Illustrator 19.0.0, SVG Export Plug-In . SVG Version: 6.00 Build 0)  -->
<svg version="1.1" id="Layer_2" xmlns="http://www.w3.org/2000/svg" xmlns:xlink="http://www.w3.org/1999/xlink" x="0px" y="0px"
	 viewBox="-137 281.3 335.9 231.7" style="enable-background:new -137 281.3 335.9 231.7;" xml:space="preserve">
<style type="text/css">
	.st0{fill:#FFFFFF;}
</style>
<g>
	<g>
		<path class="st0" d="M47.3,309.3c2.8-6.1,22.2-31.1,38.8-21.4c6.2,3.6,5.6,10.2,7.3,10.1c1.4-0.1,3.3-7.7,1.3-11.7
			c-1.6-3.3-10.1-5.5-16.5-4.9c0,0-18-0.1-32.2,16.6c-10.8,12.8-25.1,49.9-28.6,58.4S-1.3,407-1.3,407s-17.3,43.3-23.7,53.9
			c-6.7,11.3-28.9,46.7-69.9,47c-14.2,0.2-37.5-11.4-38.1-32.4c-0.7-25.7,23.4-35.9,40.5-25.1c4.6,2.9,4.2,5.8,5.7,5.1
			c-7.5-18.8-43.3-11.5-49,9.9c0,0-9.6,31.8,23.5,43.8c38.4,13.9,78.8-10.7,104.3-66.6c15.9-35,30.5-80.3,37.1-96.5
			C35.9,330,47.3,309.3,47.3,309.3z"/>
		<path class="st0" d="M47.5,416.8c0,0,4.4-5.5,3.9-7.7c-0.6-2.2-5-3.2-7.2-2.8c-6.2,1.2-13.2,8.5-19,26.7
			c-6.1,19.1,6.5-27.7,5.6-28.4c-1-0.8-42.7,4.9-45.9,5.4c-9.8,1.5-13.6,13.2-6.1,18.1c7.6,4.9,13-6.1,11.7-8
			c-1.4-1.9-1.1,6.1-6.9,5.3s-5.2-8-1.2-9.9s43.4-7.7,43.4-7.7s-8.3,40.8-10.6,43.5c1.1,1,5.7,0.1,6.8-0.8c0,0,5.2-21.3,10.3-29.3
			c4-6.3,8.7-8.6,11.9-7.5C47.3,414.9,47.5,416.8,47.5,416.8z"/>
	</g>
	<g>
		<path class="st0" d="M179.9,339.9c-0.9-2.6-3.1-3.9-6.4-3.9c-4.3,0-8.6,1.4-12.8,4.2c-12.1,8-21.1,18.8-28.4,33.8
			c-1.3,2.7-12.7,26.1-15.4,33.8c-0.7-0.5-1.5-0.8-2.3-1.1c-1.1-0.4-2.3-0.6-3.7-0.6c-4.1,0-8,1-11.6,3s-6.7,4.6-9.4,7.9
			c-2.7,3.2-4.9,7.1-6.4,11.3c-1.6,4.3-2.4,8.7-2.4,13.3c0,3.9,1,6.9,2.9,8.7s4,2.7,6.1,2.7h0.1h0.1c1.4-0.4,3-1.2,4.9-2.5
			c1.9-1.3,3.8-2.9,5.7-4.8s3.8-4.1,5.6-6.4c0.9-1.2,1.8-2.5,2.5-3.7c-0.1,0.6-0.3,1.2-0.4,1.8c-0.4,1.8-0.6,3.8-0.7,5.8
			c-0.2,2.8,0,5.1,0.8,6.9c0.9,1.9,2.4,2.9,4.7,2.9c1.2,0,2.4-0.4,3.8-1.2c1.3-0.8,2.6-1.8,3.9-2.9c1.3-1.1,2.4-2.4,3.5-3.7
			c0,0,2.9-3.6,2.7-4.7c0-0.2-0.1-0.3-0.3-0.4c-0.3-0.2-0.6-0.2-0.8-0.2c-0.3,0-0.6,0.1-0.8,0.3l0,0l0,0c-1,1.5-1.6,2.1-2.7,3.3
			l-0.2,0.3c-1.2,1.3-3.5,2.5-4.6,2.5c-0.7,0-1.7-0.3-2-2.7c-0.2-2-0.1-4.4,0.4-7.1c1.7-9.1,3.8-18.3,6.5-27.4
			c2.5-8.6,7.5-21.2,11.2-29.2c6.6-14.7,14.3-25.1,23.3-32c3.8-2.9,8.1-4.4,12.7-4.4c2,0,3.6,0.4,4.7,1.3c1,0.8,1.5,2,1.2,3.5v0.1
			v0.1c0.3,1.2,0.9,1.4,1.3,1.4s0.8-0.2,1.3-0.5l0.1-0.1l0.1-0.1C180.3,345.5,180.8,342.4,179.9,339.9z M108.2,409.9
			c1.6,0,3,0.3,4.2,0.9c1.2,0.6,1.9,1.5,2.4,2.7c-0.2,1-0.5,2-0.9,3c-0.4,1.1-0.7,2.3-1.1,3.4c-1.2,3.3-2.6,6.5-4.3,9.6
			c-1.7,3.1-3.5,5.9-5.3,8.2s-3.6,4.3-5.5,5.7c-1.8,1.4-3.2,2.1-4.4,2.1s-2.2-0.5-3.1-1.6c-0.9-1.1-1.4-2.8-1.4-5.2
			c0-4.2,0.6-8.1,1.7-11.6c1.1-3.5,2.6-6.6,4.4-9.2c1.8-2.5,3.9-4.6,6.2-6C103.5,410.6,105.9,409.9,108.2,409.9z M126.3,440.3
			c0.2,0,0.4,0.1,0.6,0.2c-0.4-0.2-0.7-0.2-1,0C126,440.3,126.1,440.3,126.3,440.3z M176.7,349.1
			C176.7,349.2,176.7,349.2,176.7,349.1C176.7,349.2,176.7,349.2,176.7,349.1z M176.5,348.8c0,0,0,0.1,0.1,0.1
			C176.5,348.9,176.5,348.9,176.5,348.8z M177.1,349.4C177.2,349.4,177.2,349.4,177.1,349.4C177.2,349.4,177.2,349.4,177.1,349.4
			C177.2,349.4,177.2,349.4,177.1,349.4z M176.9,349.3C176.9,349.3,176.9,349.4,176.9,349.3C176.9,349.4,176.9,349.3,176.9,349.3z
			 M177.7,349.3C177.7,349.3,177.6,349.3,177.7,349.3C177.6,349.3,177.7,349.3,177.7,349.3z"/>
		<path class="st0" d="M77.9,408.8c-1.7-1.7-3.6-2.5-5.9-2.5c-3.2,0-6.2,1.1-9.1,3.3c-2.8,2.2-5.4,5-7.6,8.4
			c-2.2,3.4-4,7.2-5.3,11.2c-1.3,4.1-2,8-2,11.6c0,4,1,7.1,3,9.2c2,2.1,4.6,3.1,7.8,3.1c3.6,0,8.6-1.3,11.3-3.8
			c4.5-4.1,6.5-7.9,7.8-11.1c0.3-0.5,0.3-1,0-1.4c-0.2-0.2-0.4-0.4-0.6-0.4c-0.2,0-0.4,0.1-0.6,0.2l0,0l0,0
			c-0.3,0.4-0.7,0.9-1.2,1.7c-2.2,3.4-6.3,9.6-12.3,9.6c-0.2,0-0.3,0-0.5,0c-2.5-0.1-4.3-1.1-5.6-3c-1.2-1.9-1.9-4.3-2-7.6
			c-0.1-2.9,0.3-5.3,0.6-6.8c0.1-0.3,0.1-0.6,0.1-0.8c2-0.5,4-1.3,5.9-2c1.2-0.4,2.3-0.9,3.4-1.2c3-1,5.6-2,7.9-3.2c0,0,4-1.5,8-5.2
			l0,0l0,0C81.1,417.8,80.3,411.2,77.9,408.8z M68.7,422.4c-2.7,1.6-6.9,2.9-12.6,3.7c1-5.1,2.5-8.9,4.7-11.3
			c2.1-2.4,3.8-3.6,6.5-3.6c1.4,0,2.5,0.5,3.4,1.6c0.8,1.1,1.3,2.5,1.3,4.1C71.9,419.1,71.4,420.8,68.7,422.4z M63.2,448.1
			c0.4,0,0.8,0,1.2-0.1C64.1,448,63.6,448.1,63.2,448.1z M64.6,448c0.4-0.1,0.8-0.2,1.1-0.3C65.4,447.8,65,447.9,64.6,448z
			 M65.9,447.6c0.4-0.1,0.7-0.3,1.1-0.4C66.6,447.4,66.3,447.5,65.9,447.6z M67.1,447.2c0.3-0.2,0.7-0.3,1-0.5
			C67.8,446.8,67.5,447,67.1,447.2z M68.3,446.5c0.3-0.2,0.6-0.4,1-0.6C68.9,446.1,68.6,446.3,68.3,446.5z M69.3,445.8
			c0.3-0.2,0.6-0.5,0.9-0.7C70,445.3,69.7,445.6,69.3,445.8z M71.3,444.1c0.3-0.3,0.5-0.6,0.8-0.9C71.8,443.5,71.6,443.8,71.3,444.1
			z M77.6,436.7L77.6,436.7L77.6,436.7z M77.3,436.6c-0.1,0-0.1,0-0.2,0C77.2,436.6,77.2,436.6,77.3,436.6L77.3,436.6z M77.1,436.6
			c-0.1,0-0.2,0.1-0.3,0.1C76.9,436.7,77,436.7,77.1,436.6z M75.5,438.5c-0.2,0.3-0.4,0.5-0.5,0.8C75.2,439.1,75.4,438.8,75.5,438.5
			z M76.4,437.2L76.4,437.2L76.4,437.2z M76,437.8L76,437.8L76,437.8z M72.2,443.1c0.3-0.3,0.5-0.6,0.7-0.9
			C72.7,442.5,72.4,442.8,72.2,443.1z M73,442.1c0.2-0.3,0.5-0.6,0.7-0.9C73.5,441.5,73.2,441.8,73,442.1z M73.7,441.2
			c0.2-0.3,0.4-0.6,0.6-0.9C74.2,440.6,73.9,440.9,73.7,441.2z M74.4,440.2c0.2-0.3,0.4-0.6,0.6-0.8
			C74.8,439.7,74.6,439.9,74.4,440.2z M71.2,444.2c-0.3,0.3-0.6,0.5-0.8,0.8C70.7,444.7,70.9,444.4,71.2,444.2z"/>
	</g>
</g>
<g>
	<g>
		<path class="st0" d="M56.3,374.9H47V373c0-1.6-0.1-2.6-0.3-3c-0.2-0.4-0.6-0.6-1.4-0.6c-0.6,0-1,0.2-1.3,0.6
			c-0.3,0.4-0.4,1-0.4,1.8c0,1.1,0.1,1.8,0.2,2.3c0.1,0.5,0.6,1,1.3,1.6s2.3,1.5,4.6,2.6c3.1,1.5,5.1,2.9,6,4.2
			c1,1.3,1.4,3.2,1.4,5.8c0,2.8-0.4,4.9-1.1,6.4c-0.7,1.4-2,2.5-3.7,3.3c-1.7,0.8-3.8,1.2-6.2,1.2c-2.7,0-5-0.4-6.9-1.3
			c-1.9-0.8-3.2-2-3.9-3.4c-0.7-1.4-1.1-3.6-1.1-6.5v-1.7h9.3v2.2c0,1.9,0.1,3.1,0.4,3.6c0.2,0.6,0.7,0.8,1.4,0.8s1.3-0.2,1.6-0.6
			s0.4-1.2,0.4-2.4c0-1.7-0.2-2.7-0.6-3.1c-0.4-0.4-2.4-1.7-6.1-3.7c-3.1-1.7-5-3.3-5.7-4.7s-1-3.1-1-5.1c0-2.8,0.4-4.8,1.1-6.1
			c0.7-1.3,2-2.3,3.7-3c1.7-0.7,3.8-1.1,6.1-1.1s4.3,0.3,5.9,0.9c1.6,0.6,2.8,1.4,3.7,2.3c0.9,1,1.4,1.8,1.6,2.7
			c0.2,0.8,0.3,2.1,0.3,3.8V374.9z"/>
		<path class="st0" d="M83.7,381.8H70v7.5c0,1.6,0.1,2.6,0.3,3c0.2,0.5,0.7,0.7,1.3,0.7c0.8,0,1.3-0.3,1.6-0.9
			c0.3-0.6,0.4-1.8,0.4-3.5v-3h10v2.6c0,2.1-0.1,2.2-0.4,3.4c-0.3,1.1-0.9,2.4-1.9,3.7s-2.2,2.3-3.8,2.9c-1.5,0.7-3.4,1-5.7,1
			c-2.2,0-4.2-0.3-5.9-1c-1.7-0.6-3-1.5-4-2.7c-0.9-1.1-1.6-2.4-2-3.7s-0.5-3.3-0.5-5.9v-10.1c0-3,0.4-5.4,1.2-7.2
			c0.8-1.7,2.2-3.1,4-4c1.9-0.9,4-1.4,6.4-1.4c3,0,5.4,0.6,7.3,1.7c1.9,1.1,3.3,2.6,4,4.5c0.8,1.9,1.2,4.5,1.2,7.8v4.6H83.7z
			 M73.1,376.1v-2.5c0-1.8-0.1-3-0.3-3.5s-0.6-0.8-1.2-0.8c-0.7,0-1.2,0.2-1.4,0.7c-0.2,0.4-0.3,1.6-0.3,3.6v2.5
			C69.9,376.1,73.1,376.1,73.1,376.1z"/>
		<path class="st0" d="M97.2,363.8l-0.2,3.3c0.8-1.3,1.8-2.3,2.9-2.9c1.1-0.7,2.4-1,3.9-1c2.8,0,5,1.3,6.7,3.9
			c0.9-1.3,1.9-2.3,3-2.9c1.1-0.7,2.4-1,3.7-1c1.8,0,3.3,0.4,4.5,1.3c1.2,0.9,1.9,1.9,2.3,3.2c0.3,1.3,0.5,3.3,0.5,6.2v24.6h-10.2
			v-22.6c0-3-0.1-4.8-0.3-5.5c-0.2-0.7-0.7-1.1-1.4-1.1s-1.2,0.4-1.5,1c-0.2,0.7-0.3,2.5-0.3,5.5v22.6h-10.2v-22
			c0-3.4-0.1-5.4-0.2-6.1c-0.2-0.7-0.6-1-1.4-1c-0.5,0-0.9,0.2-1.2,0.5c-0.3,0.4-0.5,0.8-0.5,1.3s-0.1,1.6-0.1,3.3v24H87v-34.6H97.2
			z"/>
		<path class="st0" d="M138.5,363.8l-0.2,3.1c0.9-1.2,2-2.2,3.1-2.8c1.1-0.6,2.4-0.9,3.7-0.9c1.6,0,3,0.4,4.2,1.3
			c1.2,0.9,1.9,1.9,2.2,3c0.3,1.1,0.4,3.1,0.4,5.9V388c0,3.2-0.2,5.4-0.6,6.7c-0.4,1.3-1.1,2.4-2.3,3.2c-1.2,0.8-2.6,1.2-4.2,1.2
			c-1.3,0-2.5-0.3-3.6-0.9s-2.1-1.5-3.1-2.7v7.9h-10.6v-39.6H138.5z M141.5,373.9c0-2.1-0.1-3.4-0.2-3.9c-0.2-0.5-0.6-0.7-1.3-0.7
			c-0.7,0-1.1,0.3-1.3,0.8c-0.2,0.5-0.3,1.8-0.3,3.8v14.4c0,2.1,0.1,3.4,0.3,3.9c0.2,0.5,0.7,0.8,1.4,0.8c0.7,0,1.1-0.2,1.3-0.7
			c0.2-0.5,0.3-1.6,0.3-3.5v-14.9H141.5z"/>
		<path class="st0" d="M179.1,381.8h-13.7v7.5c0,1.6,0.1,2.6,0.3,3c0.2,0.5,0.7,0.7,1.3,0.7c0.8,0,1.3-0.3,1.6-0.9
			c0.3-0.6,0.4-1.8,0.4-3.5v-3h10v2.6c0,2.1-0.1,2.2-0.4,3.4c-0.3,1.1-0.9,2.4-1.9,3.7s-2.2,2.3-3.8,2.9c-1.5,0.7-3.4,1-5.7,1
			c-2.2,0-4.2-0.3-5.9-1c-1.7-0.6-3-1.5-4-2.7c-0.9-1.1-1.6-2.4-2-3.7s-0.5-3.3-0.5-5.9v-10.1c0-3,0.4-5.4,1.2-7.2
			c0.8-1.7,2.2-3.1,4-4c1.9-0.9,4-1.4,6.4-1.4c3,0,5.4,0.6,7.3,1.7s3.3,2.6,4.1,4.5c0.8,1.9,1.2,4.5,1.2,7.8v4.6H179.1z
			 M168.5,376.1v-2.5c0-1.8-0.1-3-0.3-3.5c-0.2-0.5-0.6-0.8-1.2-0.8c-0.7,0-1.2,0.2-1.4,0.7c-0.2,0.4-0.3,1.6-0.3,3.6v2.5
			C165.3,376.1,168.5,376.1,168.5,376.1z"/>
		<path class="st0" d="M192.7,363.8l-0.4,4.6c1.5-3.3,3.8-5,6.7-5.2v12.2c-1.9,0-3.4,0.3-4.3,0.8s-1.5,1.2-1.7,2.2
			c-0.2,0.9-0.3,3.1-0.3,6.4v13.7h-10.6v-34.7H192.7z"/>
	</g>
</g>
<g>
	<g>
		<path class="st0" d="M164.2,406.8v7.1h-13.8v7.6c1.7-2,3.9-3.1,6.7-3.1c3.1,0,5.4,0.9,7,2.6s2.4,5,2.4,9.9v6.4
			c0,3.2-0.2,5.5-0.5,7s-1,2.8-1.9,4.1c-1,1.3-2.4,2.2-4.1,2.9c-1.8,0.7-3.9,1-6.5,1c-2.9,0-5.4-0.5-7.6-1.5s-3.7-2.5-4.7-4.5
			c-0.9-2-1.4-3.1-1.4-7.2v-2.4h11.1v2.8c0,2.9,0.1,2.9,0.3,4.1c0.2,1.2,0.9,1.8,2.1,1.8c0.5,0,1-0.2,1.3-0.5
			c0.3-0.3,0.5-0.7,0.6-1.1c0-0.4,0.1-2.2,0.1-5.3v-8.8c0-1.7-0.2-2.8-0.5-3.4c-0.3-0.6-0.9-0.9-1.7-0.9c-0.5,0-0.9,0.2-1.3,0.5
			c-0.3,0.3-0.6,0.6-0.7,1c-0.1,0.4-0.2,1.2-0.2,2.5h-11l0.5-22.5h23.8V406.8z"/>
	</g>
	<g>
		<path class="st0" d="M198.1,406.8l-6.7,20.1l7.3,24.5h-12l-4.7-19.1v19.1h-11.6v-44.6H182v17.3l5.2-17.3H198.1z"/>
	</g>
</g>
</svg>
