<?xml version="1.0" encoding="utf-8"?>
<!-- Generator: Adobe Illustrator 19.0.0, SVG Export Plug-In . SVG Version: 6.00 Build 0)  -->
<svg version="1.1" id="tower" xmlns="http://www.w3.org/2000/svg" xmlns:xlink="http://www.w3.org/1999/xlink" x="0px" y="0px"
	 viewBox="4 170.9 620.4 453.1" style="enable-background:new 4 170.9 620.4 453.1;" xml:space="preserve">
<style type="text/css">
	.st0{fill:#FFFFFF;}
</style>
<g id="text">
	<path class="st0" d="M96.2,563.2c0,6.1,1.2,11.2,3.6,15.4c2.4,4.3,7.8,7.3,16.1,9.2c8.3,1.9,13.4,4.1,15.2,6.5s2.7,5.3,2.7,8.7
		c0,3.2-1.3,6-4,8.4c-2.7,2.4-6.3,3.6-11,3.6c-2.7,0-8.6-0.7-17.7-2.1c-9.2-1.4-18-2.1-26.4-2.1c-13.6,0-23.9,0.7-30.9,2.1
		c-7,1.4-11.2,2.1-12.6,2.1c-10.2,0-15.3-5.5-15.3-16.5c0-2.8,0.8-5.1,2.4-7s6.5-3.4,14.7-4.6c8.2-1.2,13.7-4.3,16.5-9.2
		c2.7-4.9,4.1-10.9,4.1-17.9l0.5-266.5c0-6.4-1.3-11.3-3.9-14.7c-2.6-3.4-5-5.1-7.2-5.1c-3.3,0-8,2.7-14.2,8.1
		c-6.2,5.4-10.8,8.1-13.8,8.1c-7.3-0.2-11-4.8-11-14c0-3.4,2.5-7.6,7.5-12.5c5-4.9,14.1-12.7,27.4-23.5l27.6-23.2
		c12.6-10.4,20.9-16.9,24.7-19.6c3.9-2.6,7.4-4,10.6-4c5.2,0,7.8,3.2,7.8,9.6c0,4.5-1.6,9.8-4.9,15.9c-6,11-8.9,23.3-8.9,37.1
		l1.4,228.2L96.2,563.2z"/>
	<path class="st0" d="M281.5,310.5c-1.1,2.1-1.6,3.6-1.6,4.5s1,1.4,3.1,1.4c8-0.8,12.9-1.1,14.6-1.1c29,0,52.6,13.2,70.8,39.6
		s27.3,57.3,27.3,92.6c0,30.8-9.2,61-27.5,90.6c-18.4,29.6-39.8,51.4-64.4,65.2c-24.6,13.9-49.1,20.8-73.5,20.8
		c-11,0-23.5-2.5-37.6-7.6S166,603,154.9,591.2s-16.6-22-16.6-30.7c0-3.3,1-6,2.9-8.1c1.9-2.1,4-3.2,6.2-3.2
		c3.7,0,8.6,4.2,14.7,12.5c10.7,14.4,21.5,23.7,32.6,27.9c11,4.2,22.3,6.3,33.7,6.3c17.9,0,36.2-6.4,54.7-19.1
		c18.6-12.8,33.2-30.9,44-54.5c10.8-23.6,16.2-51.3,16.2-83c0-10-2.6-23-7.8-38.8c-5.2-15.9-12.6-28.8-22.3-38.7
		c-9.7-9.9-21-14.9-34.1-14.9c-9.6,0-18.6,2.5-27,7.4s-13.6,7.4-15.4,7.4c-3.8,0-5.7-2.4-5.7-7.3c0-4.3,1.7-9.4,5.2-15.2L279,264
		c1.7-3,2.6-6.3,2.6-9.9c0-3.8-1.5-5.6-4.5-5.6h-68c-4.2,0-8.4,3.2-12.6,9.5c-4.2,6.3-7.8,9.5-10.9,9.5c-5.8,0-8.7-7.4-8.7-22.1
		c0-6.2,0.5-12,1.4-17.4s1.4-9.3,1.4-11.7c0-11.1,5.2-16.7,15.5-16.7h139.3c12.4,0,18.6,3.1,18.6,9.4c0,2.8-0.7,5.4-2.1,7.7
		c-1.4,2.3-6.2,5.5-14.4,9.8c-8.2,4.3-14.1,9.9-17.9,16.9L281.5,310.5z"/>
	<path class="st0" d="M411.9,557c6.7,0,12.5,2.7,17.3,8.2s7.3,12.6,7.3,21.2c0,8.9-2.3,15.8-7,20.8s-10.2,7.5-16.6,7.5
		c-5.6,0-11.2-2.9-16.9-8.6c-5.6-5.8-8.4-12.3-8.4-19.7c0-7.9,2.4-14.8,7.3-20.7C399.7,559.9,405.4,557,411.9,557z"/>
</g>
<path class="st0" d="M524,238.1c0,0.6,0,1.3,0,1.9c-1,0.4-1.8,1.1-2.8,0.6c0-0.8-0.2-1.5-0.6-1.9C521.3,237.1,522.3,237.8,524,238.1
	z"/>
<path class="st0" d="M518.7,242.8c1.1-0.2,1.5,0.4,2.2,0.6c0.3,1.7-0.6,2.3-1.9,2.5C518.5,245.3,518,243.6,518.7,242.8z"/>
<path class="st0" d="M512.7,265c1.2-0.2,1.2,1.5,0,1.3C512.7,265.9,512.7,265.5,512.7,265z"/>
<path class="st0" d="M528.1,350.1c0,0.7-0.8,0.7-1.6,0.6C526.3,349.6,527.6,349.6,528.1,350.1z"/>
<path class="st0" d="M507.4,366.4c0.5,0,1,0,1.6,0c-0.8,0.8-1.9,0.6-1.3,2.2c-0.6,0-0.7,0.4-1.3,0.3
	C506.8,368.1,507.2,367.4,507.4,366.4z"/>
<path class="st0" d="M498.9,375.5c0.2,0.7,0.5-0.4,0.9,0.3c0.1,0.7-1.1,0.1-1.6,0.3c0-0.3,0-0.6,0-0.9c0.3,0,0.6,0,0.9,0
	C499.3,375.4,499.1,375.4,498.9,375.5z"/>
<path class="st0" d="M572.3,395.5c0.5-0.5,1.6,0,1.6,0.9C573.1,396.4,572.2,396.4,572.3,395.5z"/>
<path class="st0" d="M512.1,404.6c-0.1,0.4-0.6,0.3-0.9,0.3c0.2,0.3,0.3,0.5,0.3,0.9C509.9,405.9,511.3,403.4,512.1,404.6z"/>
<path class="st0" d="M513.9,434.1c-0.2,0.9-0.6,1.7-0.9,2.5c-1.2-0.5,0.9-2.7-0.6-2.5C512.6,433,513.5,433.8,513.9,434.1z"/>
<path class="st0" d="M515.5,436.3c0,0.1-0.4,1.7-1.3,0.6c-1.3,0,0.2,2.9-1.6,2.5c-0.1-1.5,0.5-2.5,1.3-3.8c0.5,1,1,0.2,2.2,0.3
	c0,0.5,0,1,0,1.6c-0.4-0.1-0.6,0.1-0.6,0.3C514.3,437.5,516.9,436.8,515.5,436.3z"/>
<path class="st0" d="M578.6,463.6c-0.6-0.1-0.6-0.9-1.6-0.6c0.6-0.3,0.3-1.6,1.3-1.6C577.9,462.8,578.3,462.4,578.6,463.6z"/>
<path class="st0" d="M583.9,468.3c0.8,0.4,0.6,1.1,0.3,1.9C583.6,469.9,583.4,468.8,583.9,468.3z"/>
<path class="st0" d="M501.1,476.2c0.9,0.5-0.3,1.4,0,2.2c-0.6,0-0.7-0.4-1.3-0.3C500.2,477.4,501.4,477.5,501.1,476.2z"/>
<path class="st0" d="M546.3,478c-0.3,0.9-0.3,2.2-0.6,3.1c-0.8-1-1.3-0.2-2.8-0.3c0-0.8,0-1.7,0-2.5
	C543.8,477.7,544.9,477.7,546.3,478z"/>
<path class="st0" d="M498.3,481.2c1,0.3-0.1,1.1-0.3,1.3c0,0.3,0.4,0.2,0.6,0.3C497.4,484,497.4,481.4,498.3,481.2z"/>
<path class="st0" d="M501.1,487.8c0.6-0.1,0.6,0.3,0.3,0.3c0.1,0.4,0.4,0.6,0.9,0.6c-0.5,1.4-0.8-0.3-1.9,0
	C500.7,488.4,501.2,488.4,501.1,487.8z"/>
<path class="st0" d="M501.1,493.7c-0.5-0.3-0.8-1.1-0.3-1.6c0.6,0.3,0.9,0.8,1.6,0.9C502.1,494,501.2,492.5,501.1,493.7z"/>
<path class="st0" d="M544.7,496.2c0.8,1.4,0.1,2,0.3,3.5c-1.6,0-3.1,0-4.7,0c-0.4-0.8-0.2-2.1-1.3-2.2
	C539.9,495,542.8,497.5,544.7,496.2z"/>
<path class="st0" d="M576.7,496.2c0,1-1.1,0.8-1.9,0.9C575,496.4,575.5,496.6,576.7,496.2z"/>
<path class="st0" d="M535.3,500.3c0.8,0.2,1,0.8,1.9,0.9C536.9,501.8,535.1,501.3,535.3,500.3z"/>
<path class="st0" d="M535.3,505.6c0.4,0.3,0.8,0.4,1.6,0.3c-0.1,0.5-1,0.3-0.6,1.3C535.7,506.9,535.1,506.6,535.3,505.6z"/>
<path class="st0" d="M502,507.8c-0.7,0.1-0.8-0.2-1.3-0.3c0.2-0.3,0.3-0.5,0.3-0.9C501.5,506.9,502.3,506.8,502,507.8z"/>
<path class="st0" d="M504.2,507.5c-0.3,0.6-0.9,0.8-0.6,1.9C502,509.6,503,507.3,504.2,507.5z"/>
<path class="st0" d="M477.2,594.7c0.2,1.6-1.8-0.6-1.9,0.3c-0.5-0.1-1.3-2.1,0-1.9C474.5,594.2,476,594.9,477.2,594.7z"/>
<path class="st0" d="M484.1,594.7c0.3-0.4,0.4-0.8,0.3-1.6c0.7-0.1,0.8,0.2,1.3,0.3c-0.7,0.1-0.7,1.5,0,0.6c1.1,0.5-0.7,0.5-0.3,1.3
	C484.9,595.2,484.6,594.9,484.1,594.7z"/>
<path class="st0" d="M492,593.8c1-0.3,0.8-0.1,1.6,0.3c-0.1,0.4-0.6,0.3-0.6,0c-0.3,0.3-0.6,0.6-0.9,0.9
	C491,594.8,492.3,594.4,492,593.8z"/>
<path class="st0" d="M503.3,594.4c-0.1,0.5,0.2,0.6,0.6,0.6c-0.6,0.8-1.7,1-2.8,1.3C501.5,595.3,502.5,595,503.3,594.4z"/>
<path class="st0" d="M527.4,173.5c0.7-0.4,0.6-1.7,0.9-2.5c9.2-0.7,11.6,8.1,11.3,16c-0.6,0.5-0.8,1.3-1.6,1.6
	c-0.2,2.8-0.1,5.2-1.6,7.2c2.7,5,12.1,3.2,17.6,3.8c1.3,2.1,4.4,2.9,4.4,6.6c0,2.7,1,6.5,2.2,9.7c1.7,4.6,4.8,8.4,6.6,11.9
	c1.6,3.2-0.2,7-1.9,9.7c-5.8,2-10.2-2.2-15.1-3.1c-3.7,8,1.2,16.8,2.2,24.2c-0.9,7.6,2.3,16.2,3.8,24.2c-0.3-0.1-0.3-0.3-0.6-0.3
	c0.5,8.8,1,17.6,3.8,24.2c1.4-4.9,2.8-9.8,3.5-15.4c1.3,0.4,1-0.7,1.9-0.6c0.7,0.5-0.4,0.8,0.3,0.9c-1.1-2.5-1-5-0.3-9.4
	c1.2,0.6,2.9,0.6,4.4,0.9c-0.5,3.4-1.7,5.7-1.3,9.1c-2.3,5.3-3,12.9-5,19.4c-1,3.3-2.9,6.4-3.1,8.8c-0.8,6.7,2.5,14.1,2.2,22.3
	c1.5,1.5,1.4,4.4,3.5,5.3c-1.8,0.8-3-0.8-5-1.3c0.2-0.3,0.6-0.5,0.9-0.6c-0.3-0.8-0.8-1.5-1.6-1.9c-1,0.5-2.2,0.7-3.1,1.3
	c-1.1,2.3,1.4,3.2,0.6,5c1.4,0,2.7,0,3.5,0.6c-0.3,1.2-1.6,1.5-3.1,1.6c0,0.4,0.1,0.9-0.3,0.9c0,0.7,0.8-0.4,1.6,0
	c0.2-0.7,2.1-1.6,3.5-2.2c-0.1-0.4-0.4-0.6-0.9-0.6c1.3-1,2.5-1.1,3.5-1.9c1.5,0.3,2.6,1.2,3.8,1.9c-0.2,1.2,0.5,1.3,0.3,2.5
	c0.7,0,1.5,0,2.2,0c1.9,3.1,5.4,3.5,4.4,7.8c-0.4,1.6-0.3,4.1,0.3,6.9c0.8,0.8,1.9,1.4,2.2,2.8c-3.2-0.4-2.5-3.8-5.6-5
	c-0.2,2,0.6,1.1,0.6,1.9c-0.9,0.8-1.5-0.8-0.9-1.9c-9.2-0.8-16.1,0-23.8,0c-0.7,0.9,0.4,1.5-0.3,2.2c-1.1,0,0-0.8-1.3-0.9
	c-0.7,0.2,0.4,0.5-0.3,0.9c-4.8,0.2-10.5,0.7-14.1-0.3c-0.9,0,0.7,0.9-0.6,0.6c0.1-1-2.1,0.5-1.3-1.3c-1.2,1-0.9,1.4-3.1,1.3
	c0.4-1.9-0.2-0.3-1.3,0c-2.2,0.6-5.2-1-7.8,0.3c-0.2-0.3-0.3-0.7-0.3-1.3c-0.5,1-2.9,2-3.1,0.3c-2.8,1-2.6-0.7-5.6-0.3
	c1.5-3,0.2-7.9,0.6-12.5c3.2,0.1,7.1-0.2,9.4,0c1.9-2.3,5.2-3.2,9.4-3.1c0.5-1.4-0.8-2.4,0.9-3.8c-1-0.5-2.1-0.3-2.5,0.6
	c-0.7-1.3,1.9-2.4,3.5-1.6c-0.3-0.8-1.8-0.3-1.6-1.6c1-0.4,0.8,0.5,1.3,0.6c0.5-0.4,0.5-1.2,0.9-1.6c0.1-0.8-0.5-1-0.9-1.3
	c-1.3-0.1-0.7,1.8-1.9,1.9c-1.2-10.9-6.6-21-5-32.6c-2.6-0.6-5.8,0.8-9.1,0.6c1.2-7.4-1-14.8-2.2-20.7c-0.7,0.1-1.2,0.5-2.2,0.3
	c-0.5-0.5-0.3-1.6-0.3-2.5c-6.4,6.2-11.7,13.4-22,15.7c-0.7-0.5-1.9-2.1-1.6-2.5c1.3-2.2,4-1.3,6-1.9c8.1-2.3,13.2-9.5,17.9-15.4
	c-1-0.1-1.5,0.4-1.6,1.3c-1-0.6-1.2-1.9-1.9-2.8c0.3-0.6,0.4-1.3,0.9-1.6c0.2-1.7-2.2-2-1.3-3.5c0.2,0,0.4,0,0.6,0
	c1.5-0.3-0.2,1,0.6,0.9c1.1,0.1,0.5-1.4,0.9-1.9c0.7,0,1.5,0,2.2,0c0.1-1-1-0.7-1.6-0.9c0.2-1.8,0.6-2.8-0.6-3.1c0-0.7,0-1.5,0-2.2
	c1.1-0.1,1.5-0.5,2.5,0c-0.3-0.5-1-0.7-1.9-0.6c0-4.6,0.1-7.5-0.6-11c0-1.5,0.5,0.3,1.3,0c0.3-1-0.4-1-1.3-0.9
	c0.2-1.6-0.4-2.3-0.3-3.8c1-0.1,1.2,1,1.9,0.3c-0.3-0.6-1.4-0.5-0.6-1.3c-0.5-0.1-0.6,0.2-0.6,0.6c-0.6-0.3-0.7-1.2-0.6-2.2
	c0.5,0,1,0,1.6,0c0-0.6-0.4-0.7-0.3-1.3c0.1-1-0.9,0.8-0.9-0.3c0-2.3,2.2-1.8,3.5-2.2c-0.4-0.8-2-0.5-2.5-1.3
	c-1.1,0.2,1.4,1,0.3,1.3c-2.5-0.6-0.7-4,0.6-3.8c-0.9-2-0.9-4.5-0.6-6.3c0.4-3.1,1.2-6.3,2.8-8.5c0.1-2,0.4-3-0.6-4.4
	c-0.3,1.2-0.5,1.3-0.9,2.8c-0.8-3.3-1.3-5.4-1.3-9.1c-0.4-0.1-1.3-0.3-1.9-0.9c-0.4-1.8,0.2-3.5,0.9-5c0.4,0.1,0.3,0.6,0.3,0.9
	c0.7-1.4,0.1-3.3,2.8-4.4c-1.7,1.5-1.7,3.1-1.9,5.6c0.9-1.8,1.4-4,2.2-6c2.4,0,3.1-1.7,5-2.2c0-4.1,4.5-3.6,6.3-6
	c-1.4-1.5,0.4-2,0.3-3.8c1.4,0.4,0.3,3.9,2.5,3.1c-0.4,0.9-0.1,1.1,0.3,1.9c0.9,0.1-0.3-1.9,0.6-1.9c-3-0.9-1.2-4.9-3.8-6
	c-0.5,0.2,0.8,1.2,0.3,2.5c-2.2-0.3-3-2-4.4-3.1c-0.1-0.5,0.2-0.6,0.6-0.6c-0.9-0.4-1.4-1.3-2.2-1.9c2.2-2.9-1.4-3.6-1.3-6.9
	c1.6,0.3,3.4-0.7,4.4-1.9c-0.3-0.7-0.8,0.9-1.9,0.3c0.5-2.4,2.3-2.6,3.1-4.1c0.8,2-0.5,3.4-0.9,6.3c0.5-1.4,3,1.9,4.1,2.8
	c1-1.1,0-2.2,0.6-3.5c0.9,0.1,1.6-0.1,1.9-0.6c0.8,0.4,1,1,0.6,1.9c1.2-0.4,1.8-1.3,3.1-1.6c-0.7-0.7-0.5-2.3-1.3-2.8
	c-0.8,1.4-2.2,2.2-3.8,2.8c-1,0.1-0.7-1.2-1.6-1.3c0.1,0.4-0.1,0.6-0.3,0.6c-1.2,0.4,1.8,0.9,0.6,1.3c-1.2-0.3-1.7-1.2-2.8-1.6
	c0.4-3.7,5.2-2,6.6-4.1c-0.1-0.5-0.4,0.1-0.9,0c-0.1-0.7,0.9-0.3,0.9-0.9c0.2-1.2-1.7-0.2-1.3-1.6c1.5,1.2,0.3-1.6,2.2-1.6
	c-3.1-1.5-7.9,0-8.8,2.8c-1.6,0.4-0.3-2.2-1.6-2.2c1-1,1.7-2.3,3.1-2.8c0.1-0.7-0.4-0.6-0.9-0.6c0.3-0.9,1.3-0.4,1.9-0.3
	c-0.2-1.6,1.4,0.3,1.3-1.9C526.2,172,527.7,170.4,527.4,173.5z M530.3,181.3c-0.3-0.9,0.5-2.2,0-2.2
	C529.7,179.1,529,181.4,530.3,181.3z M530.9,180c-0.1,0.8,0.5,1,0.9,1.3c-0.3-1-0.1-0.8,0.3-1.6C531.6,179.7,531.2,179.8,530.9,180z
	 M526.8,190.1c1.1-0.7,3.7,0.2,3.1-2.2C527.9,187.4,526.6,189.4,526.8,190.1z M520.8,189.8c0.1-0.9,0-1.7-0.9-1.6
	C519.8,189.1,519.9,189.9,520.8,189.8z M521.5,190.1c0.4,0,0.7,0.1,0.9,0.3c-0.2-0.6,0.5-2.2-0.6-1.9
	C521.9,189.3,521.2,189.2,521.5,190.1z M526.5,193.2c1.5,1.4,3.1-0.3,4.1-1.3c-0.7-0.7-1.4,0.4-1.9-0.6c0.2-0.3,1.6-1.4,0.3-1.3
	C527.6,190.6,526.5,191.4,526.5,193.2z M519.6,192.3c1,0.3,2.6-0.5,1.6-1.3C521.3,192.1,519.3,191,519.6,192.3z M526.5,199.5
	c0.9,0.4,1.3-1.3,0.6-1.6C527,198.5,526.2,198.5,526.5,199.5z M535.6,200.7c2,0.1,3.5-0.3,4.1-1.6
	C538.1,199.5,536.3,199.5,535.6,200.7z M550.6,201.1c-0.2,0-0.4,0-0.6,0c0.1-0.4,0.4-0.6,0.3-1.3
	C548.8,199.7,550.1,203.1,550.6,201.1z M531.5,202c0.3-0.8,1.2-1.1,1.6-1.9C532.1,200.1,531,201.6,531.5,202z M542.2,202.3
	c-0.5-0.7-1.6-0.6-2.2-0.3c2.1,1.7,5.1,1.9,8.2,1.9c-0.4-1.6,0.8-1.5,0.6-2.8c-1,0.4-2.3,0.4-3.1,0.9c0.2,0.3,1.3,1.2,0.6,1.3
	c-0.9-0.4-2.3-3.4-2.5-2.5C544.5,201.3,542.3,201.6,542.2,202.3z M538.1,205.1c-1.2-1.3,0.1-2.2,0.3-3.1c-0.6,0-1.3,0-1.9,0
	c-0.3,3-1.7,5-3.8,6.3c1,0.4,1.3-0.2,2.2,0.6c-0.5,1.2-0.5,0.4,0,1.6c-0.5,0-2.6-0.1-1.6,0.3c2,0-0.3,1.5-0.9,0.3
	c0.8,1.7-1,2.8-0.6,3.8c0.2-0.4,0.7-0.6,1.3-0.6c-0.4,1.4,1.9,0,1.9,0.9c0.4,2.3-3.3,0.5-2.8,2.8c3.3,0.6,3.5-1.9,4.7-3.5
	c3-0.1,2.6-3.5,4.1-5c0.8-0.1-0.3,1.8,0.9,1.3c0.1-2,0.3-4.1,0.6-6c-1.1,0.4-2.1,0.8-3.8,0.6c-0.7,2-1.7,3.7-2.2,6
	c0.9,0,0.8,2,0.3,2.8c-0.6-0.2-1.3-0.2-1.6-0.6c1.4-3.4-0.6-7.1,2.5-8.5C537.8,205.3,538,205.5,538.1,205.1z M529.6,205.4
	c0.2-0.7,0.9-0.9,1.6-1.3c-0.2-0.6,0.4-1.8-0.3-1.9C530.9,203.6,528.7,204.3,529.6,205.4z M530.6,207.3c1.1,0.3,0.7-2.4,0.3-2.5
	C531,205.9,530.8,206.6,530.6,207.3z M547.5,208.9c1-0.2,0.9,0.5,1.9,0.3c0.1-0.4,0.3-0.5,0.6-0.6c-0.1-1-0.2-1.9-1.3-1.9
	c0.1,0.7-0.1,1.2-0.6,1.3c0.1-1.1-0.6-1.5-0.6-2.5c-0.5,0-1-0.1-1.3-0.3c-0.3,0.4-0.3,1.2-0.9,1.3c-1.1-1.1-2.1-0.2-2.5-1.3
	c0.2,1-0.3,1.1-0.3,1.9C544.7,207.6,547.4,208,547.5,208.9z M523.4,217.1c0.5-1,0.9,0.8,0.9,1.3c2.4-0.4,1.9-1.7,1.6-3.5
	c0-0.2-1.2-3.8-2.5-3.1c-1-2-2.7-5-5-4.7c0.5,0.8-0.5,0.5-0.6-0.3c-0.1,1.4,0.4,2.3,1.3,2.8c-0.9,1.7-2.1,3.1-2.8,5
	c1.8-0.1,2.6,0.7,3.1,1.9c-1.9-0.8-3.6-2.5-5-2.8c0.9-1.5,3.3-1.5,2.8-4.4c-5.6,2.9-7.8,9.6-5.6,16.6c0.6-0.2-0.1-1.8,0.6-1.9
	c1.4,0.7,1.8-0.5,2.8-0.9c0.2,0.5-0.4,1.6,0.3,1.6c0.8-1.9,2.1,1.4,3.5-0.3c0.9,0,0.6,1.3,0.6,2.2c-1.4,0.6-2.3-0.5-4.7-0.3
	c-0.5,4.3,3.9,2.5,6.3,4.1c-1.9,0.9-5.4,0.3-5.3,3.1c1.7,0-0.6,2.1,0.6,2.5c0.6-0.4,1.2-0.9,0.9-2.2c0.6,0.1,0.7-0.4,1.3-0.3
	c1.8,2.3-5.2,5.4-1.3,6.9c-2.9,3.1-2.2,10.3-3.8,14.1c0.5-1.1,6.7-6,3.5-3.8c-0.2-0.6-0.5-1.1-0.6-1.9c0.7-1.6,2.8,0.1,3.1,0
	c2-0.6,2.3-3.3,4.1-4.4c0,0.4-0.5,0.5,0,0.6c0.5-0.6,1.3-0.8,1.6-1.6c-1-2.2,2.6-4.1,1.9-6c-1,1.5-1.6,3.4-2.8,4.7
	c0.1-0.8-0.6-0.7-0.3-1.6c2,0.6,1.7-3.9,0.3-4.7c-0.3,1.3-0.9,0.5-2.2,0.9c-0.3-2.2,0.1-3.8,1.3-4.7c0.1,0.9,1.5,2,1.9,1.6
	c-1.2-0.7-1.8-2-2.8-2.8c-0.2,1-0.5,2-1.9,1.9c1.8-2.1,1.7-6.2,6-6c0.5-1.2-0.9-0.6-0.6-1.6c0.6,0,0.4,0.9,1.3,0.6
	c0.2-0.4,0.3-0.7,0.6-0.9c-2-2.9-4.2-5.5-7.8-6c0.9,0.3,0.8-0.4,1.6-0.3c0-1-1.9-1.6-1.3-2.2c1.5,1.5,2.9,3.2,5,4.1
	c0-1.2-0.4-0.9,0-1.9c-1.2-0.3-1,0.7-1.6,0.9c-1.5-1.8,0-3.7-0.6-5.3c-0.3,0.5-1.1,2-1.6,1.3c0.5-0.9,1.3-3,2.2-2.5
	C523,213.9,523.4,216.4,523.4,217.1z M522.7,208.3c0.1-0.2,0-0.6,0.3-0.6c0.3,0.9-0.4,0.8-0.3,1.6c0.3,0,0.6,0,0.9,0
	c-1.3-1.8,1.6-0.7,1.6-2.2C524,207.1,521.2,206.5,522.7,208.3z M524,210.8c1.2,0.1,1.7-0.6,1.6-1.9
	C524.3,208.8,523.9,209.5,524,210.8z M526.8,213c0.9-0.5-1.4-2.6-1.6-0.9c0.4,0,0.7-0.1,0.9-0.3C526.2,212.3,526.4,212.8,526.8,213z
	 M529,212.7c0.6,0,1.3,0,1.9,0c-0.2,0.2-0.7,1.5,0,1.6C531.9,211.3,530.5,211.2,529,212.7z M541.9,216.4c1.1-0.2,1.1,0.5,1.3,1.3
	c-1.3,0.5-1.5,0.6-2.8,0.3c0.9,1.4,1.1,3.5,2.5,4.4c0.2-1,1.4-2.2,2.5-1.3c0.1-1-0.7-1-1.6-0.9c-0.6,0-0.2,1-0.9,0.9
	c-1.2-1.5,0.2-2.3,1.3-3.1c0.3-1.7-1.3-2.1,0-3.1C543.1,214.5,541.5,214.6,541.9,216.4z M525.2,219.2c2.1-0.2-0.7,1.6,1.3,0.6
	c0.6,1.2-1.5,1.2-0.6,1.6c1-1,1.1,0.7,2.2,0.6c-0.2-0.6,0.9-1.3,0-1.6c-0.1,0.3-0.6-1.9-1.6-2.5c0.4,0,0.7-0.1,0.6-0.6
	C526.2,217.7,525.9,218.6,525.2,219.2z M532.5,219.6c0,1,0.8,1.1,1.6,1.3c-0.3-1.7,1.3,0.1,0.9-1.9
	C533.7,218.7,533.9,219.9,532.5,219.6z M547.5,228c-0.3-2.4,2.7-4.8,1.3-6.3C548.3,223.6,546.8,226.1,547.5,228z M550,220.2
	c-0.7-0.4-1.6-1.4-2.5-0.6c-0.5,1.4,1.7,1.1,0.6,2.2C549.2,221.6,549.5,220.8,550,220.2z M526.5,226.5c1.9-0.5,6.3-0.1,6-1.9
	C530.8,225.6,528,225.4,526.5,226.5z M545.3,230.5c1-0.2,1.3-1.2,1.9-1.9C546,228.8,545.8,229.7,545.3,230.5z M527.7,229.9
	c-0.3,1.2,0.8,0.9,0.6,1.9c-1.1,0.9-1.5,0.5-2.2,0.6c0.7,0.2-0.8,0.8-0.9,1.3c0.9-0.2,0.6,0.6,1.3,0.6c0.9-0.6,1.6-1.5,2.8-1.9
	c0,0.3,0.3,0.4,0.3,0.6c-0.7,0.4-1.2,0.9-1.6,1.6c1.6,0.1,0,0.3,0.6,1.3c0.1-1.1,1.2,0.8,1.3-0.3c-0.4,0-0.7-0.1-0.6-0.6
	c1.1-0.2,1.4,0.3,1.6,0.9c0.6,0.1,1.6-0.8,0.9-0.9C530.4,234.6,529.5,231,527.7,229.9z M531.2,233.1c0.4-1.5,0.3-2.4,0.6-3.5
	c-1.3,0.1-1.7-0.6-3.1-0.3C529,231.1,529.9,232.2,531.2,233.1z M525.6,232.4c0.5-0.8,1.9-0.8,1.6-2.5c-1,0-1.4,1.1-2.2,0.3
	c0.1,1-0.8,0.8-0.9,1.6c0.6-0.1,0.7,0.4,1.3,0.3c0-0.5,0-1.1,0.6-0.9C526,231.7,524.9,233.2,525.6,232.4z M544.7,234.9
	c1.1,0,1.6-1.1,0.6-1.6C545.2,234,544.6,234.2,544.7,234.9z M529.9,239.6c0-0.5,0.2-0.8,0.6-0.9c0.1,0.2,0.3,0.4,0.6,0.3
	c-0.1-1.1-1-1.3-1.9-1.6C529.4,238.3,529.5,239.2,529.9,239.6z M517.7,251.9c1.3,0.4,0,1.8,0.6,2.5c-0.6,0.3-1.7,0.2-1.3,1.6
	c0.7-0.5,2.3-1.3,1.6-2.2c2.2-1,3.4-3.1,4.4-5.3c-1.6,0.7-1.6-1.9-2.2-0.3C521.8,248.9,518.4,250.6,517.7,251.9z M524,249
	c1.1-2.2,2.7-4,4.1-6c-2.3,1.2-3.7,3.2-5.6,4.7C523.4,247.7,523.1,249,524,249z M524.9,253.4c1.1-0.3,1.5-1.4,2.2-2.2
	C525.9,251.5,525.5,252.5,524.9,253.4z M516.8,261.6c0.4,0.4,2.5,0.6,2.8,0c-0.5-0.1-0.3-0.8-0.3-1.3c2.3-1.7,5.3-2.6,6.3-5.6
	c-0.8-0.2-1.1-0.4-1.6,0.3c0.5,0.1,1.2-0.1,1.3,0.3C521.3,256.3,519.3,259.2,516.8,261.6z M513,255c0.2,2.5-2,4.3-1.9,5.6
	c1-0.8,0.9-2.6,2.2-3.1c-0.7,3.8-1,6.1-1.3,10.4c1-0.4,0.8-2.1,1.6-0.3c0.2-2.6,2.3-4.7,1.9-6.9c0.3,0,0.4,0.3,0.6,0.3
	c0.1-0.6-0.4-0.6-0.6-0.9c0.9,0,1.3-1.2,0.6-1.9c-2,0-0.7,3.2-2.5,3.5c0-2.4,1-4.3,3.1-5.6c-0.7,0.1-1.3,0.4-1.9,0.6
	C514.4,255.9,514,255.1,513,255z M519.3,265.7c0.7-0.2,1.5-0.4,1.6-1.3c-0.5,0-1-0.1-1.3-0.3C519.9,265,519.1,264.9,519.3,265.7z
	 M545.3,274.8c-0.1,0.5,0.4,0.8,0.6,0.3c-0.5-0.1-0.2-0.7,0-0.9c-1.6,0.3-2.4,1.9-1.3,2.5c-0.4,0-0.4,0.4-0.9,0.3
	c-0.2-1.2-1-2.4,0-3.1c-1.6-0.3,0-0.7-1.3-1.9c0.6-0.7,1.2-1.3,1.6-2.2c-1.1,0.4-1.5,1.4-2.2,2.2c0-0.5,0-1.1-0.6-0.9
	c-0.3,0.6,0.9,1,0,1.3c-1.5-0.5-2.4,2.1-4.7,1.9c0,0.4-0.1,0.7-0.3,0.9c1.3,1,4.2-0.2,4.7,2.2c-1.2,0-0.9-0.4-1.9,0
	c0.6,1.1-0.4,1.2-0.6,2.2c1.1,0.4,1.4,1.6,2.5,1.9c-1.1-0.3-0.5,1-0.3,1.3c-1.2-0.2-1.2,1.6-2.2,0.6c0,1.3,2.1,0.4,2.5,1.3
	c-0.6,0.2,0.1,0.3,0.3,0.6c-0.4,0.4-1.5,0.4-1.9,0c0.3,1.2,1,0.8,0.9,1.9c1.1-0.2,2.4,1.1,1.6,1.9c-0.5-0.1-0.9-2-1.3-1.3
	c0.8,1,0.4,1.1,0,2.2c0.6,1.4,2.7,1.3,2.8,3.1c-0.4-0.1-0.5-0.4-0.9,0c0.1,1.5,2,5.4,0.6,6c0.3,1.3,2,1.3,1.9,3.1
	c1.4,0.2,0.9-2.6,1.9-0.9c-0.4-1.6,0.7-0.9,0.9-1.3c-0.7-0.8-1.4-1.5-2.2-2.2c0-0.4,0-0.8,0-1.3c1.8,0.5,1.2-1.3,2.2-1.6
	c0.1-0.8-1.1-1.8-0.3-2.2c0.1,0.8,0.6,1.3,1.3,1.6c0.7,1.2-0.1,2,0,3.5c1.5-0.3,0.5,1.5,0.9,1.6c0.8-0.9,0.5-1.6,1.9-1.6
	c0.8-2.1-1-5.5-1.3-3.5c-0.2,0-0.4,0-0.6,0c0.1-2.2-0.2-4-1.6-4.7c0.6,0,0.2-1.1,0.6-1.3c-1.5-0.5-1.2-3.5-1.3-6.9
	c-0.5-0.7-0.8,0.4-0.9-0.3c0.6-0.2-0.1-0.3-0.3-0.6c0.4,0,0.9,0.1,0.9-0.3c-0.8,0-0.1-1.1,0-1.3c-1.2-0.1-0.7,2.8-2.2,0.9
	c2.1,0-0.9-0.6,0-2.2c0.4,0,0.4,0.4,0.9,0.3c0.5-1.1-1.1-0.2-0.9-0.9c0.1-0.4,1.7-0.8,0.6-1.3c-0.1,0.4-0.3,0.5-0.6,0.6
	C545.2,275.4,544.3,275.1,545.3,274.8z M511.4,282.3c0.2-3.2,2-6.5,1.3-9.7C512.3,275.6,510.8,279.2,511.4,282.3z M511.1,291.4
	c1,0.4,0.8-2.1,0.3-2.2C511,289.6,511.1,290.6,511.1,291.4z M545.3,306.5c0.8-0.1,1.1-0.8,1.3-1.6c-0.3,0-0.6,0-0.9,0
	C545.9,305.8,545.2,305.7,545.3,306.5z M538.4,346c-0.4,1.1-0.7,2.2-0.6,3.8c1.5,0-0.2-3.1,1.6-2.8c0.4,0.9,0.1,1.1,0.3,2.5
	c4.4-4.9,7.5-11.1,10.7-17.3c-2.6-6-5.3-12.1-5.3-20.7c0.4-0.5,1.2-0.5,1.6-0.9c-4,0.2-7.8,0.6-11.6,0.9c0.2,3.4,2.2,8.1,1.6,11.9
	c-1.1,6.6,0.6,17.1,0.6,21c0-0.2-1-1-0.9-0.3C536.9,344.7,538.3,344.8,538.4,346z M554.4,337.8c-1.5-0.5-2.3,2-3.8,2.5
	c-1.5,5.2-5.6,7.8-7.2,12.9c1.5-0.3-0.2,1,0.6,0.9c2.2-0.1,6.3-0.5,9.7-0.3c-0.6-4.9-0.9-9.1-0.9-13.2c1.4-1,3.1-4.6,1.9-5.3
	c0.3-0.1,0.8-0.5,0.3-0.6C553.6,335.6,554.9,336.5,554.4,337.8z M556.6,336.9c1,0.3,0.4-1,0.9-1.3c-0.4,0-0.7-0.1-0.9-0.3
	C556.6,335.8,556.6,336.4,556.6,336.9z M555.4,343.2c-0.1,0.7-1.4,1.7-0.6,2.2c0.9-1.4,0.1,0.3,0.6,0.6c1-1.8,3.1-2.6,5-3.5
	c-0.9-0.2-0.8-1.3-1.9-1.3C556.8,341.8,556.8,343.8,555.4,343.2z M531.8,353.2c0.6,0.2,1.2,1,1.9,0.3
	C533,351.7,532.6,353.3,531.8,353.2z"/>
<path class="st0" d="M527.1,176.3c0.4,1.4-1.9,0-1.9,0.9C524.5,176.8,526,176,527.1,176.3z"/>
<path class="st0" d="M516.1,185.4c-1.6-0.7,0.3-1.8,0-3.1c1.9-0.2,2.5-2.6,4.4-1.9c-1.4,0.7-1.2,3-2.8,3.5c0-0.5,0-1,0-1.6
	c-1,0.6,0.2,1.6-0.9,1.9c0.1,0.6,1.2,0.2,0.9,1.3C517,185.4,516.2,183.3,516.1,185.4z"/>
<path class="st0" d="M520.5,202.3c0.4,0.6-0.9,2.1-1.9,2.2C519,203.5,519.9,203.1,520.5,202.3z"/>
<path class="st0" d="M519.9,211.1c-0.3,1.2-0.7,2.2-1.9,2.5C518.1,213.4,519.1,211.6,519.9,211.1z"/>
<path class="st0" d="M520.8,225.2c1.9,0.3,2.6-1.1,1.9-2.5c1.3-0.1,1,1.5,1.9,1.9C523.9,225.5,519.9,228.2,520.8,225.2z"/>
<path class="st0" d="M556.9,283.6c1.1,1.5,4.6,3.3,4.4,7.5C559.2,289.2,558,286.5,556.9,283.6z"/>
<path class="st0" d="M530.3,407.1c1-0.6-0.5-1.3,1.6-0.6c-0.8-0.7-2.1-0.8-2.8-1.6c-0.3-0.6,0.9-1,0-1.3c0.9-1.7,5.3,0.5,6.3-2.5
	c1.5-0.6,1.3,0.6,3.1,0.3c0.6,0.6-0.4,0.9,0.3,1.6c3.1,0.3,6.1-2.1,7.8-0.3c0.3-0.1,0.3-0.3,0.6-0.3c0.5-0.1-0.1-0.4,0-0.9
	c0.8,0,1.3-0.2,1.6-0.6c0.9,1.5,2.7,0,3.8-0.9c1.2,1.6,2.8-0.9,3.8-1.6c0.9-0.1,1,0.7,1.9,0.6c-0.1-1,0.9-2.6,3.1-2.2
	c-0.7-1.6,0.6,0.1,0.3-1.9c-1.6,0.3-1,0-1.9-1.3c-0.6,0.4,0.4,1.4-0.3,2.2c-0.6-0.3-1-1-1.3,0c-0.7,0.1-0.1-1.1-0.3-1.6
	c-0.5,0.3-0.7,0.8-0.6,1.6c-0.4-0.3-0.8-0.4-1.6-0.3c0-0.8,1.2-0.5,1.6-0.9c-0.1,0-1.7-0.4-1.9,0c-0.8-0.3,0.7-0.8,0.9-0.9
	c-1.4-0.3-1.9-0.8-1.6,0.3c-0.7,0.6-0.3-0.1-0.9-0.3c-0.5,0.1,0.1,0.4,0,0.9c-0.4-0.4-0.6-0.3-0.6,0.3c-0.8-0.5-0.5-1,0-1.6
	c-1.4,0.8-0.6,2.3-0.3,3.5c-0.4,0.6-0.8-1.3-1.3-1.6c-0.6,0.2-0.7,1-1.3,1.3c0.3-0.6-4.4-1.2-2.8-1.9c-0.5-0.9-1.5-0.1-1.9-1.6
	c-0.3,0.1-0.2,0.6-0.6,0.6c0.8,0.2-0.1,0.3-0.9,0.3c-1,1.1-4.4,1.5-4.4,0.9c-0.6-0.6-1.7,0.8-2.8,0.6c0.7-0.7-0.2-0.9,0-1.9
	c-0.5-0.1-0.5,0.3-0.9,0.3c0.3,0.3-2.2,0.2-0.6,0.3c-0.3-0.6-2.2,0.7-2.2-0.9c-0.7,0.7-2.7,0.7-3.1,0c-0.9-0.2-1.2,0.1-1.9,0
	c-0.6-0.1-1.2,0.8-1.3,0.3c-0.4,1.7-0.7,0.2-1.6-0.6c-0.3,0.3-0.4,1.1-0.6,1.6c-0.7-0.7-0.6-1.2-1.6,0.3c-0.4-0.1-0.3-0.8-0.3-1.3
	c-1.3,0.9-1.5-0.1-3.1-0.3c0.9,1.1-5.1-0.3-5.3-0.3c-0.4,0.3-1.6-0.9-3.5-0.6c0.1,0.5-4.7,1.4-4.7,0.9c-0.2,0.5-1.5,0-1.6,0.6
	c0.5-5.9-6.1-9.4-11.6-11.3c15.7-1.2,32.2-0.6,47.4-0.9c0.5-0.3,1.2-0.7,0.6-1.3c-0.4,0.1-0.3,0.6-0.3,0.9c-0.7-0.2-0.7-0.5-0.3-0.9
	c-1.2-0.3-2,0.8-2.2-0.3c-0.4,0.1-9.3,0.6-10.4,0.3c-0.5,0.1-4.8,0.1-5.3-0.3c-0.9-0.1-5.3,0.9-6.6,0.3c-0.5,0.1-6.8-0.2-8.2,0.3
	c-1.4-0.8-3.4,1.7-3.8-0.3c-0.2,0.5-1.6,0.9-2.2,0.9c0.1-0.3-2.5-0.6-3.5-0.9c-0.7,0.1-0.9,0.6-0.9,0c-0.6,0.4-1.9,0.7-1.9,0.3
	c-0.3-0.5-0.8-0.7-1.3-0.3c-0.5,0.1,0.1,0.4,0,0.9c-0.6,0-0.4-0.9-1.3-0.6c0.3-2-0.4-3-1.6-3.5c3.8-1.2,4.9-0.1,9.4-0.6
	c1-0.2,0.4-0.8,0.3-1.6c8.6,0.2,16.1-0.4,23.8-0.3c-0.1,0.5-0.9,0.1-0.9,0.6c0.4,0.9,1.6,0,1.6-0.6c19.1-0.3,41-0.8,60.5-0.6
	c1,2.3,7.9,4,7.2,7.2c0.1-0.5-1.7,4.9-1.9,5c-1.3,1-2.9-0.1-4.7,0.3c-1.8,2.3-5,3.2-4.7,7.5c-0.4,0.4-0.5,0.1-0.9,0
	c0.7,3.1,0.6,11.6-0.3,16c-1.8-1.2-3.2-1.5-5-3.1c-16.2,1.1-34.1-0.2-51.8,0.6c-6.2,0.3-13,1-18.8-0.3
	C507.2,407.6,529.8,406.1,530.3,407.1z M550.3,394.9c-0.5-1.2,1.4-0.1,0.9-1.3c-0.5,0-1-0.1-1.3-0.3
	C549.9,394.1,549.6,394.4,550.3,394.9z M563.2,380.8c-0.7,0.1-1.2-1.7-1.9-0.6c0.7,0.3-0.9-0.1-0.9,0.9c-0.6,0-0.4-0.9-1.3-0.6
	c0,0.4-0.1,0.7-0.3,0.9c0.6,0.1,0.6-0.4,0.9-0.6C560.4,382.1,562.2,380.7,563.2,380.8z M579.8,381.1c0.9-0.1,2.2,0.3,2.2-0.6
	c-1,0.9-1.6-0.8-2.2,0C580.2,380.5,580,380.8,579.8,381.1z M584.2,380.8c-0.4,0-0.3-0.5-0.6-0.6c0.1,1.3-0.8,0-1.3,0
	C581.7,381.5,584,381.3,584.2,380.8z M579.2,381.4c-0.9-1.3-2.6-0.8-3.8-0.3C577.2,381.3,577.9,380.9,579.2,381.4z M571.3,395.9
	c-2.1,0.4,0.2,1.5,0.9,2.2c0.2,0.2-0.7,0.8,0.3,0.6c-0.8-1.5,2.8-0.3,2.8-1.9c-0.8-0.4-1,1.2-1.3,0.3c0.2-1.2-0.4-1.5-0.3-2.5
	c-0.5,0-1,0-1.6,0c-0.1,1.1-0.6,1.7-0.9,2.5C571,396.6,571,396.3,571.3,395.9z M572.3,401.2c0.4,0.1,0.5,0.5,0.9,0.6
	c0-0.8,0.2-1.8-0.6-1.9C572.9,400.9,572.9,400.6,572.3,401.2z M573.5,399.9c0,0.6,0.2,1,0.6,1.3c0.1-0.7,0.8,0.4,1.3,0.3
	c-0.1-0.5,0.5-0.8,0-0.9C575,401.4,574.1,400.1,573.5,399.9z M574.2,404.6c0.5-0.2,1.7-2.4,0.9-1.9
	C574.9,403.3,573.5,404.2,574.2,404.6z M572.3,406.2c0.8,0,1.8-1.3,0.9-1.9c-0.5,0.1-2.1,1.5-1.3,0.9c0.5-0.4,0.8-0.3,0.9,0.3
	C572.6,405.6,572.4,405.9,572.3,406.2z M552.8,405.9c0.5,0.5,2,1.7,2.5,0.3c-3.3-1-5.2-1.5-7.2,0.6c1.5-0.9,1.4-0.2,2.2,0.3
	c-0.3-1.2,0.7-1.2,1.3-1.6C551.7,406.9,553,407,552.8,405.9z M544.1,406.2c0.7,1.3,2.3,0,3.5,0.3c0-0.4,0.1-0.9-0.3-0.9
	C546.8,406.3,545.2,406.4,544.1,406.2z M533.4,407.1c1.4-0.8,3.1-0.4,5,0c-1-1.9-4.6-0.9-6.3-0.9
	C532.7,406.3,532.4,407.4,533.4,407.1z M540.3,406.8c-0.4-0.1-0.2-0.3,0-0.6c-0.4,0-0.7-0.1-0.9-0.3
	C538.1,406.1,539.7,407.7,540.3,406.8z M542.5,406.8c-0.2,0-0.4,0-0.3,0.3c0.7-0.1,1.4-0.3,1.6-0.9c-0.8,0-1.5,0-1.9-0.3
	C541.8,406.5,542.3,406.5,542.5,406.8z"/>
<path class="st0" d="M524.6,405.6c-0.2-0.4-1.3-1.6-1.9-0.6c-0.8-1,0.5-0.7,1.3-0.9C523.7,405.2,525.5,404.7,524.6,405.6z"/>
<path class="st0" d="M532.1,396.2c-0.4-0.1-0.3-0.6-0.3-0.9c0.9,0.1,1.5,0.3,1.9,0C535,396.6,531.5,394.9,532.1,396.2z"/>
<path class="st0" d="M528.1,405.3c0.9-0.2,0.6,0.6,1.3,0.6c1,1-1.9-1-0.9,0c-0.1,0.4-0.8,0.3-1.3,0.3
	C526.6,405.1,528.2,406,528.1,405.3z"/>
<path class="st0" d="M566.6,410.9c-2.1,0.7-4.1,1.3-5.6,0c-1.3,1.1-4.3-0.4-6.6,1.3c0-0.9-0.5-0.6,0-1.3c-1,0-3.5,1.3-3.1,0
	c-5.9,1.8-8.3-0.8-13.8,1.6c0.8-1.3-1.6,0.4-1.6-1.3c-0.9,0.7-2.8,0.5-3.5,0.6c-1,0.2-1.8,1-1.9-0.3c-7.3,0.3-13.8,0.4-20.7,0
	c-0.4,0.1-0.3,0.6-0.3,0.9c-1.1-1.6-4.7,0.3-5.6-1.9c21.2-1.8,47.3,0,69-1.6c2.6-0.2,5.6,1.8,7.8,3.1c0.2,1-0.2,1.5-0.3,2.2
	c-1.6-1.2-3.5-2.1-5-3.5c-0.7-0.2-0.4,0.6-0.9,0.6c-1.4-1-3.6,0.9-2.8,0C569.5,410.3,568.2,412.6,566.6,410.9z"/>
<path class="st0" d="M518.7,427.2"/>
<path class="st0" d="M516.1,433.5c-0.7,0.8,0.6,1.8,0,2.2C515.6,435.9,515.1,433.5,516.1,433.5z"/>
<path class="st0" d="M578.6,455.8c1.5,0.1,0.1,1.9,1.9,2.2c-1.4,0.8-0.3,1.7,0,2.8c-1.4-0.2,0.8,4.9-0.3,5c0.3,0.6,0.5,1.3,1.3,1.6
	c-1.5,0.2,0.9,2-0.3,3.8c0.5,0.3,1.3,1.8,1.6,1.3c1.2,0.9-2.1,1.2-0.9,0.3c-0.5-0.1-0.6,0.2-0.6,0.6c0.3,0.5,1.3,0.3,1.9,0.6
	c-0.1,0.7-1.4,0.2-1.6,0c1,1,0.6,0.4,0.3,1.9c1.6-1.3-0.2,1.1,0.9,1.6c0.2-0.5,0.6-1.9-0.3-2.2c0.3-0.8,1.4-0.5,2.2-0.3
	c0.2-0.1,0.6-1.1-0.3-0.9c-0.4,0.4-0.1,0,0-0.3c1.7-0.1-0.1,1.3,1.6,0.9c-0.5,1.5-2.6-0.1-2.5,1.6c0.3,0,0.2-0.4,0.3-0.6
	c0.6-0.1,0.6,1.8-0.3,1.3c0.3,0.4,0.8,0.6,1.3,0.9c-0.5-0.8,0.4-1.1-0.3-1.6c-0.2-0.4,1.4,0,1.6,0.3c0.1,1.2-0.3,0.1-0.9,0.3
	c0.5,0.7,1.3,0.6,1.6,0.3c1-0.3-1.4,1.3-0.3,1.6c-0.7,0.3-0.9,0.2-1.6,0.9c1-0.2,0.8-0.2,0.6,1.9c0.4-0.4,1.1-0.4,1.9-0.3
	c0,1.3-0.7,0.7-1.3,0.3c0.7,1.2,0.2,0.4,0,1.9c0.3-0.2,0.5-0.6,0.6-0.9c0.9,0.2-0.3,0.7,0,1.3c0.9,0.5,0.9-1.4,0.3-1.3
	c0.8-0.1,1.1,2.2,1.3,3.1c1.9,11.4,3.4,30.3,5,43c0.2,1.4,0.1,5.2,0.9,6.3c0.9,1.3,5.9,3.1,2.2,2.2c-1.3-0.3-0.8-1.7-2.5-0.6
	c1,0.7,2.6,0.8,3.8,1.3c-3.3,0.6-9-0.5-11.6-3.1l-7.2,0.3c-19.4,0.1-83,1-85.6,0c0.5-1.2,0.5-1,0-2.2c0.7,0.7,1,0,1.6-0.3
	c0-0.6-0.9-0.4-0.6-1.3c1.3-0.3,1.2,0.8,1.9,1.3c1.1-0.1-1.1-0.8,0-0.9c-0.1-0.6-0.5-0.7-1.3-0.6c0-0.7,0-1.5,0-2.2
	c0.4,0.5,0.9,1,1.3,1.6c1-0.7,0.6,0,0.9,0.3c0.8-0.3-0.1-1.3-0.9-0.9c0.3-0.5,0.5-1,1.3-0.9c0,0.3,0,0.6,0,0.9
	c0.8,0.1,0.2-1.2,1.3-0.9c-0.1,0.4-0.6,0.5-0.6,0.9c0.9,0.2,0.6-0.6,1.3-0.6c-0.8-1.7-1.9-0.1-2.8-1.3c-0.2,0-1,1-0.3,0.9
	c-0.3,0.9-1.2-0.3-1.3-0.6c0.1-0.6,2.6-33.6,2.8-35.1c0.7-0.1,1,0.3,0.9,0.9c0.6,0,0.2-1.1,0.6-1.3c0.4,0.1,0.3,0.6,0.3,0.9
	c0.4-0.1,0.6-0.4,0.6-0.9c-0.3-0.9-0.5-0.4-1.3-0.3c-0.4-1.6,1.1-1.2,1.3-2.2c0.3,0,0.6,1.4,0.9,0.3c0.5,0.9-1.7,3.5-0.3,3.8
	c-0.1,0.7-0.8,0.7-1.3,0.3c0.4,0.5,0.5,1.2-0.6,0.9c0.3,0.5,1.3,0.3,1.9,0.6c0.1,0.7-0.4,0.6-0.9,0.6c0.1,0.9,1.3,0.4,1.6,0.3
	c0.7,0.6-0.8,2.7,0.9,2.5c-0.3,0.7-1.8,0.1-1.9,0.9c0.1,1.1,0.8-1.1,0.9,0c-0.2,0.7-2.3,1.4-0.6,2.2c-0.5,0.3-0.5,1.2-1.6,0.9
	c0.3,0.4,0.3,1.2,0.6,1.6c0.9,0.3,0.8-0.4,1.6-0.3c-0.1,1-1.1,1-1.6,1.6c-0.3-0.2-0.5-0.6-0.6-0.9c-1,0.2-2,0.5-1.9,1.9
	c0.5-0.5,1-0.8,1.3-1.6c0.7,1,1.2,0.6,2.2,0.9c-0.2,0.3-0.6,0.5-0.9,0.6c0.4,0.9,2.5,1.4,3.1,0.3c0.7,0.6-0.9,1.5-1.6,0.9
	c0.6,0.7,1.8,0.8,1.9,1.9c0.3-0.1,0.6-0.3,0.6-0.6c0.4,0.2,0.6,0.7,0.6,1.3c-0.4,0-0.9-0.1-0.9,0.3c-0.5-0.4-0.5-1.2-0.9-1.6
	c-1.1,0.7,0.6,2.4-1.6,2.2c0.6-1.4-1.2-0.4-0.9-1.6c0.6-0.6,0.6,0.2,1.6,0c-0.2-0.3-0.3-0.7-0.3-1.3c-0.3,0.8-1.5,0.6-1.9,1.3
	c0.9,1,0.8,1.4,1.9,1.9c0.2,1.5-0.7,1.8-1.3,2.5c0.4,0.2,0.6,0.3,1.6,0.6c0-0.3-0.4-0.2-0.6-0.3c0.3-0.5,0.5-1,1.3-0.9
	c-1.1-0.3-0.7-0.1-0.6-1.9c1.5,1.3,1.4-1.1,3.1-1.3c0.3,0.2,0.3,0.7,0.9,0.6c0,0.6-0.4,0.7-0.3,1.3c0.6-0.2,0.9-1.5,0-1.6
	c0.2-0.8,1.2-0.7,1.9-0.9c-1.6-0.6-3.2,1.2-2.8-2.2c0.4,0.1,0.6-0.1,0.6-0.3c0.5,0-0.2,1.5-0.3,1.9c0.3-0.3,2.2-0.5,1.3-0.9
	c-0.1-1,0.9,0.8,0.9-0.3c1.2,0.2,0,1.1,0.6,1.6c0.9-0.2,0.8-1.3,1.9-1.3c0,1,1,1.1,0.9,2.2c-0.4,0.4-0.5,0.1-0.9,0
	c-0.1,1.3,1.6,0.3,1.9,0c1.1,1.1-1.9,1.1-2.5,0.6c-0.1,0.5,0.2,0.6,0.6,0.6c-0.2,0.4-0.7,0.6-1.3,0.6c0.1-0.3,0.3-0.3,0.3-0.6
	c-0.1-0.4-0.8-0.3-1.3-0.3c0.1,0.9,1,0.9,1.3,1.6c0.3-1.3,1.8,0.6,1.6-1.3c0.6,0,1.3,0,1.9,0c0,0.3-0.4,0.2-0.6,0.3
	c-0.1,0.8,0.4,1,1.3,0.9c0.4,1-0.5,0.8-0.6,1.3c0.2,0.9,0.7-0.3,1.3,0c0-0.6,0-1.3,0-1.9c0.9,1.1,1.1,0.2,0.9-1.3
	c0.6,0.1,0.6-0.3,0.3-0.3c0.1-0.5,0.4,0.1,0.9,0c0.5,1.1-1.1,0.2-0.9,0.9c0.5,1,0.8-0.7,1.6-0.3c0,0.9,0.5,0.6,0,1.3
	c0.6-0.6,0.8,0,1.6,0c0.1-1-1.1-0.8-1.6-1.3c0.2-0.9,0.7,0.3,1.3,0c0.4-1-1-0.2-0.6-1.3c0.7-0.6,2.1-0.5,2.2-1.6
	c0.4,0.1-0.1,2-0.3,2.8c1.2-0.5,0.6-1,1.9-1.3c0.3,1.4-1.6,0.7-1.3,2.2c-1.2-0.8-0.7-1.5-1.6-2.2c-0.8,0.9,1.4,1.8,0.6,2.8
	c0.7-0.1,2.8-1.3,1.6-1.3c0.6-1.1,1.8,0.8,0.9,1.3c0.9,0.5,0.9-1.4,0.3-1.3c0.5-0.1,1.5,0.2,1.9,0c0.1,1.3-0.8-0.3-0.9,0.9
	c0.4,0.9,1.1-0.6,1.9-0.3c-0.5-1,0.2-1.6,1.3-1.9c-0.1,0.6-0.8,0.6-0.9,1.3c0.9-0.9,0.3,0.5,0.9,0.6c-0.2,0.6-0.6,0-0.9,0
	c0,1,1.1,0.8,1.9,0.9c0-0.8-1-0.7-0.9-1.6c1,0.2,0.7-1,1.9-0.6c-0.3-0.6-0.7-1-1.3-1.3c-1.7-0.1-2.8,1.1-4.1,0
	c1.6,0.5-0.1-2.6,0.9-0.9c0.8-0.3-0.6-1.4,0.9-1.3c0.1-0.8-1.4,0.2-0.9-0.9c0.7,0.2,1.2,0.7,2.2,0.6c-0.3-1-2.1-0.4-1.9-1.9
	c0.8,1.2,1.2,0.1,0.6-0.9c-0.6,0.6-0.8-0.3-1.9,0c0.7-0.7-0.3-1,0.3-1.6c-0.4,0-0.8,0-1.3,0c0.9,1.4-0.6,0-0.3,1.6
	c-0.9,0.2-2.5-0.4-2.8,0.3c-0.8-0.9,0.2-1.7-0.3-2.8c2.3,0,1.8-1,3.5,0.3c0.8-1.3,2.7-0.8,4.1-0.3c0.1-1.5,2.9,0.5,6-0.3
	c0.2-0.1,0.5-1,0-1.3c0.1-0.8,0.5,0.4,1.3,0c-0.2,0.3-0.6,0.5-0.9,0.6c0.2,0.3,0.3,0.5,0.3,0.9c0.5,0.1,0.5-0.3,0.9-0.3
	c0-0.3-0.4-0.2-0.6-0.3c0.1-0.3,0.3-0.6,0.6-0.6c0.2,0,0.4,0,0.6,0c-0.7,1.5,3.1,0.6,3.1,0.3c0.4,0.1,0.3,0.6,0.3,0.9
	c0.2-0.8,1.9-0.2,1.9-1.3c2.3,1.8,2.8-0.9,4.7,1.6c-0.1,0.4-1.8,0.9-0.3,0.9c0.1,0.4-1.8,0.4-0.6,0.9c-0.5,0.7-2.4,0.1-3.5,0.3
	c0.2,0.3,0.7,0.3,0.6,0.9c-1.3-0.7-0.9-2.6-0.3-3.5c-0.1-0.3-0.3-0.3-0.3-0.6c-0.6,0.8-1.1,1.8-1.9,3.1c-1.4,0,0.1-0.9-0.6-1.3
	c-0.4,0.1-0.3,0.8-0.3,1.3c-1.3-0.3-1.5,0.6-2.5,0.6c1.4-1.5-4.9,0.6-5-1.3c-0.9,1.2-3.2,1-4.1,0.6c-0.6,0.4,0.7,1.6,0.6,2.5
	c1.9,0.5,1.8-2.2,3.1-1.3c-1.9,0.4,0,1.3-1.6,1.3c0.3,0.7,1.6,0,1.9-0.3c0.3,0.2,0.5,0.9,0.6,0.3c0.8,0.3-0.4,1.2,0,2.2
	c0.4,0.7,1.3,1,1.6,1.9c1.3-0.4,2.4-0.1,3.1,0.9c0.8-1.3,2.2,0.3,1.9-1.3c0.9,0,0.6,1.3-0.3,1.3c0.2,1.1,1.6-0.8,1.3,0.6
	c0.6-0.6,0.1-1.2,1.3-0.6c0.2-0.8-0.6-0.6-0.9-0.9c0.7-1,1.4,0.7,2.5,0.3c0.7-1.1,1.2-1.7,2.8-0.6c0.3-0.2,0.5-0.6,0.6-0.9
	c-0.8,0.3-2,0.5-2.2-0.6c-0.8-0.4-0.8,1.5-1.3,0.3c-0.6,0,0.5,1.2-0.3,1.6c-0.9-0.3,0.5-0.8-0.3-1.3c-1.3,1.1-2.5-0.8-4.1,0.9
	c0.1-0.4,0.6-0.5,0.6-0.9c-1.8,1.2-2.3,0.1-4.7,0c0.2,0.3,0.7,0.3,0.6,0.9c-1.7-0.6,0.5-2.1-1.3-3.1c1.3-1.2,2.7-0.3,3.5-1.9
	c-0.8,0.8,0.6,0.4,0.6,1.3c0.4-0.3,0.4-1.1,0.9-1.3c1,0.3-0.4,0.8-0.3,1.3c0.7,0,1.5,0,2.2,0c0.7-0.2-0.4-0.5,0.3-0.9
	c0.5,0,1.2,0.2,1.3-0.3c0.3,0.3,0.2,0.7,0,1.3c0.7,0.1,0.6-0.4,0.6-0.9c0.3,0.6,0.8,0.9,0.9,1.6c-0.8-0.2-0.6,0.6-0.9,0.9
	c0.1,0.3,0.3,0.3,0.3,0.6c0.6-0.1,1.4-0.1,1.3-0.9c-1.8,0.7,0.1-1.5,1.3-2.2c-0.7,0.7,0,1.1,0.6,1.3c-0.2-0.7-0.8-2.3,0.6-2.2
	c-1.5,0.5,0.5,1.7,0.9,0.9c0.6,0.2,0,0.6,0,0.9c1.2-0.2,0.8-0.5,0.6,0.6c0.8,0.2,0.6-0.6,0.9-0.9c0.5,0.8,2.8,0.5,1.9-0.6
	c0.9,0.9,2.5,0.7,3.5,0c-0.1,0.5,0.3,0.5,0.3,0.9c1.4,0,2.3-0.5,2.8-1.3c2,0.1,1.3,1,2.8,1.3c0,0.8-0.5,1-0.6,1.6
	c0.1,0.7,1.7,0,1.9,0.6c-0.4,0.5-0.6,1.2-1.6,1.3c-1.5-0.9-3.4,0-6-0.6c-0.1,0.4,0.1,0.6,0.3,0.6c-2.7-0.6-7.7-1.3-8.8,0.6
	c0.6,0.2,4.3-1,4.4,1.3c0.4-0.4,1.2-0.4,1.3,0.3c0.2-0.5,0.4-1.8,0.6,0c0.5,0.1,0.5-0.3,0.9-0.3c-1-0.8-0.4-1.4-1.3-1.9
	c0.1-0.5,0.4,0.1,0.9,0c0.1,0.5-0.3,0.5-0.3,0.9c1.1-0.4,2.3,1.4,4.1,1.3c-0.3-0.4-0.3-1.2-0.9-1.3c-0.4-1.1,1.4,1.6,1.9,0
	c0.1-0.8-1.8,0.3-1.3-0.9c1.1,0.4,2.6,0.6,2.8,1.9c0.2-0.5,0.9-0.5,1.3-0.9c0.7,0.2,0.7,0.5,0.3,0.9c0.7,0.1,0.6-0.4,0.6-0.9
	c0.4,0.2,0.6,0.7,0.6,1.3c2.8,0.3,5.4-0.7,7.2,0c0.4-0.1,0-0.6-0.3-0.6c0.3-0.4,1.5-0.1,2.5,0.3c-0.2-0.4-0.2-1.6,1.6-0.9
	c0,0.3,0,0.6,0,0.9c0.9-0.5,2.7-0.2,3.8-0.6c-0.1-1.2-1.1,0.4-0.9-0.9c2.9,0.8,3-0.3,4.4-1.3c-1.4,1.2,0.1,2.7,0.9,4.1
	c-0.9-0.1-1.2-0.8-1.6-1.6c-0.9,0.3,0.5,0.8-0.3,1.3c1.5,0.8,1.2,1.6,2.8,2.2c0.5-0.1-0.3-0.6,0.3-0.6c-0.1-0.4-0.9-0.4-0.9,0
	c-0.1-0.2-0.2-2.6,0.3-1.6c1.2-0.8-1-0.9-0.6-1.9c0.9,0.2,1.8,1.5,1.3,2.2c0.5,0.1,0.5-0.3,0.9-0.3c-0.6-0.7-0.9-1.6-1.3-2.5
	c-0.8-0.1-0.7,0.6-1.6,0.3c-0.1-0.9,1.1-0.6,0.6-1.9c1.7,1,0.1-1.2,1.3-1.6c-0.2-0.7-0.5,0.4-0.9-0.3c0.5-1.1,1-1.5,0.9-2.5
	c0-0.3-0.4-0.2-0.6-0.3c0.4-0.9,1.4,0,0.9,0.9c0.2,0,0.4,0,0.6,0c0.5-0.7,0.1-1.5,0-2.8c-0.4,0.4-0.6,0.3-0.6-0.3
	c-0.6,0.1-0.6,0.8-0.9,1.3c-0.8,0.6,0.4-1,0.3-1.6c1.3,0.1,1.3-1,2.5-0.3c-0.5-0.4-0.9-0.8-1.3-1.3c-1.1,0.8-1.3,1.3-3.1,0.3
	c0.7-0.4,2.6,0.2,2.5-0.9c0.4,0.5,1.9,0,1.9,0.9c0.7-0.1-0.3-0.8-0.6-0.9c0.1-0.4,0.6-0.3,0.9-0.3c-0.9-0.8,0.4-2.2-0.3-2.8
	c-0.8-0.1,0.8,1.2-0.6,0.9c0.1-0.9,0-1.7-0.9-1.6c0.8-0.6,0.7-3.3,2.2-2.2c0-0.8-0.9-0.8-1.3-1.3c-0.1-1.2,0.3-0.1,0.9-0.3
	c-0.9-1-1.6-2.4-2.5-1.9c-0.6-0.3-0.5-1.2-1.3-1.3c0.2-0.8,1.6-0.2,1.3,0.6c1-0.1,2.3-0.7,1.6-1.6c-1.1,1.6-2.4-0.8-1.9-1.6
	c1.4,0,0,0.8,0.3,1.6c0.9-0.1,1.6-0.5,2.2-0.9c-0.3-0.7-1-0.9-0.9-1.9c-1.2-0.5-0.1,1.4-1.3,0.9c0-0.6,0.4-0.7,0.3-1.3
	c-0.6-0.1-1,0.1-0.9,0.6c-1.1,0,0.7-1-0.3-0.9c0.9-0.6,2,0.7,3.5,0c-0.3-1.4-1.3-0.2-2.2-0.9c0.4-1.7,1.8-1.8,1.6-3.5
	c-0.2,0-0.4,0-0.6,0c-0.8,0.1,0.4,0.5,0,1.3c-0.6-0.1-0.6,0.3-0.3,0.3c-0.1,0.4-0.3,0.2-0.3,0c-0.2,0-0.4,0-0.6,0
	c-0.1-0.7,0.9-0.3,0.9-0.9c-0.1-0.3-0.3-0.3-0.3-0.6c-0.4,0.1-0.2,0.3,0,0.3c-0.4,0.9-1-0.4-0.9-0.9c0.4-0.4,1.4-0.3,2.2-0.3
	c-0.4-0.9,0.1-1.1,0-2.5c-0.2,0.9-1.6,0.4-2.2,0.9c0.2,0.3,1.6,1.1,1.3,0c0.8,0.2,0.2,1.6-0.6,1.3c-0.1-0.8-1-0.9-1.6-1.3
	c0.3-0.5,2.4-1.9,1.6-0.6c0.9-0.1,1.3-0.5,1.3-1.6c-0.5,0-0.8,0.2-0.9,0.6c-0.3-0.2-0.4-0.9,0-1.6c0.4,0.1,0.2,0.3,0,0.3
	c-0.1,0.7,1.1,0.1,1.6,0.3c0.3-2.4-0.8-2.1-0.3-3.8c-0.5-0.5-1.8-0.3-1.6-1.6c0.6,0.6,0.8,0,1.6,0c-0.2-0.6-0.9-0.6-0.3-1.3
	c-1.1-0.2-0.9,1-1.9,0.9c0-0.3,0-0.6,0-0.9c1,0.2,1.1-0.3,1.9-0.3c-0.2-1.3-2.1-0.8-2.2-2.2c0.4,0.3,0.8,0.4,1.6,0.3
	c-0.1,0.7,0.2,0.8,0.3,1.3c0.8-0.9,0.6-3.4-1.3-4.1c0-0.6,1.1-0.2,1.3-0.6c-0.1-0.6-1.2-0.2-0.9-1.3c1.1,0.2,1.1-1.1,0-0.9
	c0.9-1.3,0.9-4.7-0.6-5c-0.7-0.2,0.6-1,0.9-1.3 M584.5,479.3c-0.3-0.3-0.7-2.2-0.9-1.6c-0.1,0.2,0,0.6-0.3,0.6c0-0.5-0.9-0.2-0.3,0
	C583.8,478.4,583.3,479.7,584.5,479.3z M507,511c0.8-0.4,1.3,0.9,1.6,0c-1.4-0.9,1.5-0.2,0.9-1.3C508.3,509.7,507.7,510.4,507,511z
	 M528.1,511.3c0.9-0.1,1.7,0,1.6,0.9c-1.2-0.5-0.6-0.3-0.3,0.6c-1.1,0.2-2.1-0.1-1.3-0.9c-0.8-0.1-1,0.4-0.9,1.3
	c2.1-0.2,3.1,0.4,3.1-0.9c0.6,0.1,0.1,1.4,0.9,1.3c1.6-1.6,1.9,1.7,2.5,2.5c-0.5-0.8,0.4-1.6-0.3-2.5c0.7,0.1,1.2-0.1,1.3-0.6
	c-0.3-0.1-0.8-0.4-0.3,0c0,0.7-1.3,0.1-1.9,0.3c0.8-0.8-0.5-0.2-0.3-1.3c-1-0.3-0.4,1-1.3,0.9C530.7,511.7,528.7,510,528.1,511.3z
	 M555,513.5c1.1,0.3,0.2,0.6,0.3,1.6c0.6,0,1-0.2,1.3-0.6c-1.3-0.4,0.4-1.4-0.9-1.9C555.6,513,555.1,513.1,555,513.5z M577.6,507.5
	c1.2-0.5,0.6,0.9,1.6,0.6c0-0.8,0.1-1.5-0.6-1.6C578.5,507.2,577.5,506.8,577.6,507.5z M581.1,484c0.1-0.8-0.6-0.7-0.3-1.6
	c-0.9,0-1.8,1.5-1.3,1.9c0.3-0.5,0.5-1,1.3-0.9C580.8,483.6,580.8,484,581.1,484z M497.3,508.8c1-0.5,1.7,0.4,2.8,0.6
	C499.9,508.6,497.7,507.5,497.3,508.8z M550.6,514.7c0.1-0.2,0.3-0.4,0.6-0.3c0-0.6-0.2-1-0.6-1.3c-0.7,2.4-0.6,2.1-1.6,4.1
	c0.9-0.2,0.9-1.4,2.2-1.3c0.4,1,0.2,1.1,0.9,1.9c-1-0.5-1.1,1.6-0.6,0.6c0.5-0.4,2.4-0.9,1.6-1.6
	C551.5,518.2,551.6,514.1,550.6,514.7z M560.1,515c0-0.8,1.1-0.1,1.3,0c-0.1-0.5,0.1-1.2-0.3-1.3C560.8,514.6,559.3,514.1,560.1,515
	z M579.5,514.7c0.5,0.8,2.7-0.2,1.6-0.9C580.8,515,580,514.2,579.5,514.7z M559.1,516.3c-0.3,0.8,1,1.5,0,1.9
	c-0.3-0.6-0.9-1.6-1.3-0.3c0.6,0,0.7,0.3,0.6,0.9c0.9,0.1,1-0.7,1.9-0.6c-0.2,0.5-0.5,0.8-0.6,1.3c1.3,0,0.1,0.2,0,0.6
	c1.1,0,1.7,0.6,2.2-0.3c-0.4,0-0.7,0.1-0.9,0.3c0.1-0.5-0.9-1.6,0-1.9c0.2,1.4,0.9,1.3,1.6,0.3c-0.1,0.9-0.4,1.2,0,1.6
	c0-0.4,0.5-0.3,0.6-0.6c-1.4-0.6,1.7-0.7,0.3-1.3c-0.3,0.6-2.4-0.4-1.6-0.9c-0.6-0.1-0.6,0.4-0.9,0.6c0.4-1.2-1.2-1.1-0.3-0.3
	c-0.4,0-0.7,0.1-0.9,0.3c0.4-0.7-0.2-1.2,0.6-1.9c-1.5,0.3-2.3-0.1-3.1,0.3c1.1-0.3,0.5,1,0,0.9c-0.1-0.9-0.5-1.5-1.3-1.9
	c0,0.6-1,0.2-0.9,0.9c0.8,0.5,1.1-0.4,1.6,0.3c-0.7,0.6-0.9,1.1-1.9,0.6c0.5,1.2-1.4,0.1-0.9,1.3c0.8,0,1-0.6,1.3,0.3
	c-0.7-0.1-1.2,0.1-1.3,0.6c1.1,0.1-0.1,2.3,1.3,1.3c-1.1-1.1,0.8,0.2,0.9-0.6c-0.7-0.4-1.2,0.1-1.6-0.9c1.1-0.8,1,1,1.6-0.3
	c-0.5,0-0.8-0.2-0.9-0.6c0.6-0.5,1.1-0.8,1.6,0c-1,0.1,0.5,1.8-0.3,2.5c1.1-0.4,2,0.9,2.5,0c-1.5-0.3,0.6-1.1,0.6-0.9
	c-0.6-0.1,0.2-0.5-0.3-0.6c-1.4,0-1,0.7-2.2,1.3c0-0.4-0.1-0.7-0.3-0.9c1,0.2,0.4-1.1,1.6-0.6c0.1-0.6-0.4-0.6-0.6-0.9
	C557.8,517,558.5,516.7,559.1,516.3z M567.6,516c-0.9,0.2-1.6,0.7-2.2,1.3c-0.1-0.7-1.7,0-1.6-0.9c0.5-0.1,1.2,0.1,1.3-0.3
	c-1-0.8-3,1-3.8-0.3c0.1,0.6-0.4,0.6-0.6,0.9c1.6,0.6,3.1-0.2,4.4,0.9c-0.8,0.4-1-0.2-1.3,0.3c1.3,0.1-0.2,1.3,0.6,1.6
	c0.1-0.6,1.4-0.1,1.3-0.9c-0.4-0.2-0.7-0.3-0.9-0.6c0.4,0,0.4-0.4,0.9-0.3c0.4,1.2-0.1,1.5,0.6,2.5c0.6,0,1-0.2,1.3-0.6
	c-0.4-0.8-0.9,0.6-1.3-0.3c0.9,0.2,0.6-0.6,1.3-0.6c0.1,0.6,0.7,0.8,0.6,1.6c-2.5,1.3-1.9,1.4,0,0.6c0,0.6,0.2,1,0.6,1.3
	c0.7-0.5-0.6-1,0.6-0.9c-0.6,1.2,0.5,1.8,0.9,2.8c0-0.4,0.5-0.3,0.6-0.6c-0.8,0.1-0.8-0.7-1.3-0.9c-0.6-2.2,3.1-0.3,2.2-2.2
	c0.9-0.3,1.5-0.5,1.9,0.3c0-0.2,0-0.4,0.3-0.3c0.8-0.2-1.1-0.7,0.3-0.9c0.9,0.7,1.8,0.1,1.3,0.3c-0.6-0.3-1-0.7-1.3-1.3
	c0.4,0,0.3-0.5,0.6-0.6c0.2,0.6,1.8,1,1.9,0c-1.8,0.1-0.7-0.6-1.6-0.6c-0.2-0.9,1.5,0.2,1.3-0.6c-2-0.7-2.3,0.7-3.1,0.3
	c0.3,0.1,1.1,1.2,0.3,1.3c-0.1-0.6-0.8-2.1-1.3-1.3c0.6,0.7,0.9,1.6,1.6,2.2c-0.4,0-0.3,0.5-0.6,0.6c-1-0.2-1.5,0.2-2.2,0.3
	c0-0.3-0.3-0.4-0.3-0.6c0.8-0.8,0.5-1-0.3-1.6c1.4-0.1,1.4,0.6,1.6,0.9c0-1.1,1,0.7,0.9-0.3c-0.6-0.6-1.8-0.5-1.9-1.6
	c0.5,0,1.1,0,0.9-0.6c-1-0.3-1,0.5-1.6,0.6c0-0.4,0.6-0.7,0-0.9c-0.8,0.6-1.6-0.2-2.2,0.9c0.4,0,0.9-0.1,0.9,0.3
	c-0.4,0-0.9-0.1-0.9,0.3c0.4-0.1,1.1,0.9,0.3,0.9c0-1.6-1.8,1.3-2.5,0C567,517.5,566.6,516.8,567.6,516z M527.1,516.6
	c1.2-0.5,3.2,0.9,4.7-0.3C530.6,516.9,529,515.6,527.1,516.6z M541.5,516.6c0,1,1.3,0.6,1.6,1.3c-0.1-1.1-0.8-0.4-0.3-1.6
	c-0.4,0-0.9-0.1-0.9,0.3C542.3,516.7,541.9,517,541.5,516.6z M530.6,518.5c0.6,0.1,0.8,0.6,1.3,0.9c-0.3-0.8,1.1-1.8,0.3-2.8
	C532.7,518.3,531.2,518,530.6,518.5z M510.8,518.8c-0.2-0.7-0.2-1.7-0.9-1.9c0,0.4-0.1,0.7-0.3,0.9
	C510.4,517.6,511.2,519.8,510.8,518.8z M542.8,518.8c-0.3-0.5-0.5-1-1.3-0.9c-0.3,1.2,1.5,0.7,0.6,1.6c0.5,0,1,0.1,1.3,0.3
	c0.4-1.4,0.4-1.2,0.9-2.5C543.2,517.1,543.8,518.8,542.8,518.8z M546.9,517.9c-0.1,0.9,0.1,1.6,0.6,1.9c0.6-0.6-0.3-0.8,0-1.9
	c0.4,0,0.7-0.1,0.9-0.3c0,0.4,0.1,0.7,0.6,0.6C549.1,516.6,547.6,517.6,546.9,517.9z M506.7,519.8c0.9,1.2,1.8-2.7,1.3-1.9
	C507.7,518.6,507.3,519.3,506.7,519.8z M546.9,520.1c-0.3-0.7-0.7-1.4-1.3-1.9C545.4,519.3,546.7,520.5,546.9,520.1z M526.5,518.5
	c-0.5,0.6-1.9,0.9-2.2,0c-0.3,1.3-1.5,0.6-2.5,0.6c0.5,1.2,1.8,0.2,3.5,0.3c0,0.4,0.1,0.7,0.3,0.9c-0.2,0.1-0.6,0-0.6,0.3
	c0.3,0,0.6,0,0.9,0c-1.2-1.9,2.6,0.1,1.3-1.6c-0.1,0.2,0,0.6-0.3,0.6c0-0.4-0.4-0.4-0.3-0.9C526.7,518.8,526.8,518.6,526.5,518.5z
	 M539.7,520.4c0.7-0.7-0.2-1.4-0.6-1.9c0.3,0.7-1.6-0.5-0.6,0.3C539.3,518.9,539,520.1,539.7,520.4z M545,519.4
	c-1.3-0.1-0.4,1.8,0.6,1.3c0-0.3,0-0.6,0-0.9c-0.5-0.1-0.8,0.5-0.9,0C544.9,519.7,545.1,519.7,545,519.4z M530.9,520.1
	c-0.2,1.4-0.7,1.5-1.6,1.6c0.8,0.4,2.1,0.2,2.2,1.3c0.1-0.7,1.4-0.2,1.6,0c0.3-1.1-1-0.5-1.6-0.6c-0.8-1.3,0.3-1.7,0.9-2.5
	C531.6,519.5,531.6,520.2,530.9,520.1z M519,521.3c-0.2-1.1,1.2-0.5,1.3-1.3c-0.5,0-1,0-1.6,0C518.7,520.5,518.5,521.2,519,521.3z
	 M503.9,521.9c-1.2-0.3,2,0.7,1.3,0c-0.9,0.2-0.9-2-1.3-1.3C503.6,521.3,504.8,521.7,503.9,521.9z M539,522.3c1-0.5,0.9-1.5,1.6,0
	c0.7-0.6,0-1.3-0.6-1.6C539.6,521.2,539,521.3,539,522.3z M535.6,521.6c-0.4-0.1-1.2-1.3-1.6-0.3c0.9,0.5-0.8,1.7,0.9,1.6
	C535.3,521.8,534.4,521.7,535.6,521.6z M558.5,522.3c-1.4,0.6-2.6-2-2.5-0.9C556.4,521.9,557.7,523.8,558.5,522.3z M525.6,522.6
	c0.1-0.2,0.3-0.4,0.6-0.3c0.1-0.8-0.4-1-1.3-0.9c-0.1,0.6,0.4,0.6,0.6,0.9C525.4,522.3,525.2,522.5,525.6,522.6z M545.6,524.1
	c-1,0.5-1.2,0.3-1.9,0.6c1.1,0.6,1.1-0.1,2.2-0.3c-0.1,0.4-0.5,0.5-0.6,0.9c0.4,0.4,1.9,0.5,1.9-0.3c-1.7,0.7-0.7-0.6-1.6-1.6
	c0.3-0.2,1.6-1,0.9-1.3c0,0.4-0.9,0.4-0.9,0c0.4-0.1,0.6-0.4,0.6-0.9c-1.7-0.2-0.2,1.6-0.9,1.9c-1.2-0.4,0.2-1.4-0.6-1.9
	c0.2,0.9-0.6,0.6-0.6,1.3C544.9,522.8,545,523.7,545.6,524.1z M572.3,522.3c0.2-0.9,0.7,0.3,1.3,0c0.1-0.8-0.4-1-1.3-0.9
	C572.4,521.9,571.8,522.1,572.3,522.3z M499.8,522.3c0.2,1.1-0.3,1.3-0.6,1.9c0.9-0.3,1.4-0.6,0.9-1.6c0.3-0.1,0.8-0.5,0.3-0.6
	C500.4,522.2,500.2,522.3,499.8,522.3z M515.8,523.2c-0.4-0.1-0.3-0.5-0.3-0.9c-0.8,0-1-0.6-1.3,0.3
	C515,522.4,515.4,524.1,515.8,523.2z M559.4,524.5c0-1.7,1.5,1.2,1.9-0.6c-1.1,0.6-1-0.2-1.9-0.6
	C559.3,523.6,558.8,525.3,559.4,524.5z M559.1,521.9c0.2,0.8-1.4,1.3-0.3,1.9C559.1,523.2,560.5,522.4,559.1,521.9z M505.5,523.5
	c0.2,0.1,0.4,0.3,0.3,0.6c1-0.9,1.5,1.1,2.5,0c-0.2-0.1-0.6,0-0.6-0.3c0.2,0,0.4,0,0.3-0.3c-0.9,0.2-1.5,0.4-1.9,0
	c0-0.4,0.5-0.3,0.6-0.6c-0.4,0-1.7-0.6-0.9,0C506.3,523,505.7,523.2,505.5,523.5z M539.7,523.5c0.1,0.4,1.5,0.4,0.6,0
	c-0.2,0-0.4,0-0.3-0.3c0.5,0,1-0.1,1.3-0.3c0.1,0.2,0,0.6,0.3,0.6c0-0.3,0-0.6,0-0.9c-0.9-0.3-0.8,0.4-1.6,0.3c0-0.2-0.3-0.4-0.3,0
	C540,523,539.9,523.2,539.7,523.5z M508.9,524.1c0.9-0.9,0.7,0.6,1.9,0.3c0.1-0.9-1.2-0.7-0.3-1.6
	C509.4,522.5,508.4,524.9,508.9,524.1z M531.2,523.2c0,0.2,0,0.4-0.3,0.3c-0.1-0.2,0-0.6-0.3-0.6c-0.5,0.7-0.9,0.6-1.3,0
	c-0.7,0.7-0.3,0.8-0.6,1.6C530.7,524.2,531,523.6,531.2,523.2z M576.7,524.5c-1.2,0.5-1.4-1.5-1.9-0.6
	C575.1,524.4,576.1,526,576.7,524.5z M531.8,526.7c1.2,0.2,1.8,0.5,2.2-0.6c-0.8-0.4-0.8,1.5-1.3,0.3c-0.1-0.7,0.9-0.3,0.9-0.9
	c-0.5-0.1-1.2,0.1-1.3-0.3c0.2-0.5,1.5,0.1,1.3-0.9C531.5,524.1,532.9,525.9,531.8,526.7z M539.7,528.5c0.7-0.1,1,0.3,0.9,0.9
	c-0.4,0-0.7,0.6-0.9,0c0.4,0,0.7-0.1,0.6-0.6c-0.8,0.1-1.4,0.4-1.9,0.9c0.8,0.3,1.5,0.6,1.9,1.3c-0.6,0-1.8-0.8-2.2,0
	c0.4,0.1,0.3,0.5,0.3,0.9c1.9,0.1,1.4-0.3,3.1,0.3c-0.5-1.9-0.1-0.4,0.6-0.9c-0.1-0.7-1.4-0.3-1.3-1.3c0.4,0,0.7,0.1,0.9,0.3
	c-1.4-1.5-1.4-3.8-0.3-4.1c0.5-1.2-1.4-0.1-1.3-0.9c0.4-0.1,0.5-0.4,0.9,0c0.4-1-0.9-1.8-1.3-0.9
	C540.5,525.8,540.1,527.3,539.7,528.5z M526.2,525.4c0-0.6-0.7-1.3-1.3,0c0.3,0,0.4,0.5,0,0.6c0-0.2,0-0.4-0.3-0.3
	c-0.3,0.6,1,1.2,0.9,0.6c-0.6,0.1,0.1-0.9,0.3-0.9C525.9,525.6,526.1,525.8,526.2,525.4z M514.3,526.7c0.6,0,1-0.2,1.3-0.6
	c-0.4,0-0.7,0.1-0.9,0.3c0.6-1.5-0.3-0.4-0.6-0.9c0-0.4,0.5-0.5,0-0.6C513.3,525.4,513.9,526.2,514.3,526.7z M529,524.8
	c-0.8-0.1-1,0.5-1.3,0.9c0.7-0.1,1.5-0.8,1.3,0.6c0.7,0,1.6-1.3,0.9-1.6C529.9,526.1,529.1,525.6,529,524.8z M508.9,526.3
	c0.5-1.1-1.1-0.2-0.9-0.9c0.4,0,2.3,0,1.3-0.3C507.4,524.7,507.5,526.3,508.9,526.3z M500.1,528.5c-0.1-0.9,1.7,0.2,1.6-0.6
	c-1.1,0.1-1.4-2.1-2.5-0.9C501.2,527,499.6,528,500.1,528.5z M542.8,527.9c0.8-0.4,1,1.2,1.3,0.3c-0.4-0.5,0.9,0.2,0.6-0.6
	c0.6,0.3,0.5,1.4,1.3,0.6c0,0.5,0.1,1,0.3,1.3c-1,0.3-1-0.5-1.6-0.6c0.1,0.9,0.8,1.2,1.6,1.6c0-0.9,0.9-0.8,1.3-1.3
	c-0.2,1,2.1,0.6,0.9,0c-0.7,1.1-1.1-1.7-2.2-0.3c1.2-1.7-1.5-0.5,0-1.9c-0.8,0.4-1.5-0.7-1.6,0C545.2,527.9,543.1,526.9,542.8,527.9
	z M545,532.3c1.3-0.8,1.1-1,2.2,0c-1-1.5,0.7-1.2,0.9-2.2c-0.5,0-1-0.1-1.3-0.3C546.5,530.8,545.5,531.3,545,532.3z M512.7,528.5
	c0.6,0.3,1.1,0.5,1.9,0.6c0.5-1.1,0-2.7-0.9-1.9c0.5,0.2,0.8,0.5,0.9,0.9C513.5,528.3,513,528.2,512.7,528.5z M520.8,527.9
	c0.2,0.2,1.5,0.7,1.6,0c-0.4-0.1-0.2-0.3,0-0.6C521.9,527.5,521.1,527.4,520.8,527.9z M526.2,529.2c-1.3,0.1-0.3-1.1,0-1.3
	c-0.4,0-0.7-0.1-0.9-0.3c-0.1,0.2,0,0.6-0.3,0.6c0,0.8,0.5,1,0.6,1.6c-0.4-0.1-0.5-0.5-0.9-0.6c-0.4,1.4,0.7,1.1,0.9,1.9
	c-0.2,0-0.4,0.3,0,0.3c0.1-0.4,0.5-0.3,0.9-0.3c0-0.3,0-0.6,0-0.9c-1.4-0.2,0.3,0.6-0.6,0.6C525,530.4,526.2,529.6,526.2,529.2z
	 M551.3,529.5c-0.1-1,0.8-1.6-0.3-1.9c0.1,0.7-0.1,1.2-0.6,1.3c0-0.2-0.3-0.4-0.3,0C550.6,528.9,550.4,529.7,551.3,529.5z
	 M502.7,529.8c0.9,0.2,2.2-0.7,1.3-1.3c-0.3,0.3-0.6,0.6-0.9,0.9c0-0.5-0.9-1.6-1.3-0.6C502.4,528.8,502.7,529.1,502.7,529.8z
	 M535.9,529.8c1.4,0-0.1,0.9,0.6,1.3c0.4,0,0.9,0.1,0.9-0.3c-0.6,0-0.7-0.3-0.6-0.9c0.4,0,0.8,0,1.3,0c0.6-1.1-1.5-1.6-0.6-0.9
	C538.6,530.2,535.8,528.4,535.9,529.8z M561.9,530.1c-1.3,0.1-0.4-0.8-0.9-0.9c-0.8,1,0.6-0.7-0.3-0.6c-0.2,0.7-1.1,0.8-1.6,1.3
	c0-0.5-0.9-0.2-0.3,0C560.1,529.9,560.8,530.3,561.9,530.1z M500.8,530.4c0-0.8,1.2-0.4,1.3-1.3c-0.5,0-1-0.1-1.3-0.3
	C501,529.4,499.9,530.2,500.8,530.4z M542.2,530.7c1.4,0.4,1.1-0.7,1.9-0.9c0.1,0.6,0.1,1.4,0.9,1.3c0.4-1.3-1.6-1.9-1.9-1.6
	C544.2,530.1,541.7,529.7,542.2,530.7z M566,530.7c0-0.5,0.9-0.2,0.9-0.6c-0.2-0.1-0.4-0.3-0.3-0.6c0.2-0.1,0.6,0,0.6-0.3
	C566.4,529,565.2,530.2,566,530.7z M532.8,531.4c0.2-1,1.8-0.2,1.9-0.6c-1.1-0.3,0.9-0.1,0.3-0.9c-1,0.4-1.2,0.2-1.9-0.3
	C534.6,530.7,531.8,530.2,532.8,531.4z M553.8,529.8c-0.2,0.8,0.6,0.6,0.9,0.9c0.1-0.2,0.8-1.2,0-1.3
	C554.7,529.8,554.2,529.8,553.8,529.8z M571,529.5c-0.5,0.5-2.4-0.4-1.9,0.3c0.2,0.1,0.6,0,0.6,0.3c-0.2,0.1-0.4,0.3-0.3,0.6
	c0.7,0.2,2.1-0.3,1.3-0.6C570.1,530.9,570.6,529.5,571,529.5z M530.6,531.4c0.6-1.1-1.6-2.2-2.2-0.9c0.5,0.2,0.8,0.5,1.3,0.6
	c0-0.4,0.1-0.7,0.6-0.6C530.3,530.8,530.2,531.3,530.6,531.4z M558.8,530.4c0,0.4,0,0.8,0,1.3c1,0.1,0.8-0.8,1.6-0.9
	c0,0.3,0.1,0.8,0.3,0.3C560.5,529.8,559.5,531.3,558.8,530.4z M541.2,534.2c0.2-0.5,0.5-0.8,0.6-1.3c-1,0.6-0.8,0.6-1.6-0.3
	c0.1,0.7-0.9,0.3-0.9,0.9C540.1,534.2,540.8,533.1,541.2,534.2z M504.8,534.2c1.2-0.2,3.1,0.4,3.8-0.3
	C507.3,533.7,504.9,533.6,504.8,534.2z"/>
<path class="st0" d="M577,498.4c0.6,0.1,1.5-0.4,2.2-0.9c-0.3,1,0.5,1,0.9,1.3c-0.1,0.3-0.6,0.2-0.6,0.6c-0.4-0.1-0.6-0.4-0.6-0.9
	c-1,0.4,0.4,1.5-0.3,1.9C578,499.1,577.8,498.9,577,498.4z"/>
<path class="st0" d="M515.5,509.4c1.3,0.5,1-0.5,2.5,0C517.5,510,515.8,510.5,515.5,509.4z"/>
<path class="st0" d="M501.4,493.4c0.6,0.9,0,1.3,0.9,2.8c-0.2,0-0.4,0-0.6,0c0.1-0.3-0.1-0.3-0.3-0.3c0-0.3,0.4-0.2,0.6-0.3
	c-0.5-0.9-1.4,0.3-2.2,0C500.7,494.6,501,494.9,501.4,493.4z"/>
<path class="st0" d="M499.2,488.1c0.2,0.3,0,1.3,1.6,0.9c-0.8,0.9-1.7,1.7-3.1,1.9c0.1,0.6,0.9,0.6,0.6,1.6c-0.5,0-1.2-0.2-1.3,0.3
	c-0.2-1.8,1-3,0.3-4.4C497.7,488.8,499.2,488.9,499.2,488.1z"/>
<path class="st0" d="M540,453.9c-0.8,1.2-0.4,2.1-1.6,2.5c0.2,1.2,1.8-1,1.6,0.6c0.5-0.8,0.5-2,0.6-3.1c2.6-0.7,2.5,2.3,1.9,3.8
	c-2.1-0.3-3,0.3-4.7-0.3c0.5-0.9-0.1-1.6,0.3-2.2c-0.1-0.8-0.5,0.4-1.3,0c-0.1,1.5,0.6,1.8-0.3,2.5c-1.3-0.3,0.1-1.5-0.3-2.8
	c-1.7-0.1-0.2,2.9-1.9,2.8c0-0.7,0-1.5,0-2.2c-0.7,0.1-0.1,1.5-0.3,2.2c-1.2-0.5-1.2-0.7-2.2,0c-0.6-0.6,0.3-0.8,0-1.9
	c-1.1-0.3-0.4,1.2-0.6,1.9c-1.1,0.1-1.8-0.1-2.5-0.3c0.5-1.1-0.1-2.6,0.3-3.1c1.3-0.1,0.3,2,0.6,2.8c1.5-0.4,0.5-2.2,0.9-2.8
	c0.9-0.3,0.6,0.7,0.6,1.3c0.7,0,0.7-0.8,0.6-1.6C532.6,455.2,536.1,453.5,540,453.9z M541.2,455.1c0.2,0.5-0.4,1.6,0.3,1.6
	c0.1-0.6,0.6-0.8,0.9-1.3c-0.5,0-0.2-0.9-0.6-0.9C541.8,454.9,541.8,455.3,541.2,455.1z"/>
<path class="st0" d="M567.6,462.7c-1.2-1-1.2,1.9-2.5,1.9c-1.1-0.7,0.7-1.1,0.6-1.9c-0.5-1.1-2.1,1-1.3,1.3c-1.4,0.7-3.1,0-4.7,0.6
	c-0.6-0.2,0.2-1.9-0.9-1.6c-0.9,0.2,0.3,0.7,0,1.3c-0.5,0.1-0.6-0.2-0.6-0.6c-2.4,1.9-6.9,0-11,0.9c-0.2-0.7-0.9-1-0.3-1.6
	c0.7-0.2,0.4,0.6,0.9,0.6c1-0.2-0.4-2,0.3-1.9c0.6-1,1.3,1.9,1.3-0.3c1-0.1,1.4,1.1,0.9,1.6c1.1,0.3,0.5-1,0.6-1.6
	c1.6,0.2,1.2,0.2,2.8,0c0,0.4,0,0.8,0,1.3c0.6,0,0.2-1.1,0.6-1.3c0.4,0.2,0.6,0.7,0.6,1.3c0.5-0.1,0.1-0.9,0.6-0.9
	c1.2-0.3,0.6,1.1,1.3,1.3c0.5,0.1,0-1.2-0.3-1.3c1.4-0.4,2.2,0.2,4.1-0.3c0.2,1.1-0.3,1.3-0.6,1.9c0.1,0.7,1.7,0,1.9,0.6
	c0.7-0.2,0.1-1.8,0.3-2.5c2.2,0,4.4,0,6.6,0c0.1,1.7-1.1,1.7,0,2.8c-0.5,0.6-1.1-0.3-2.2,0c0,0.2,0,0.4,0,0.6
	C565.8,464.2,567.4,463.3,567.6,462.7z M562.9,463.6c0.8,0.1,1-0.4,0.9-1.3C563,462.3,562.8,462.8,562.9,463.6z"/>
<path class="st0" d="M522.1,461.7c0.5,0.4,0.2,1.7,0.6,2.5c-2.6,1.2-4.1,0-7.2,0.6c0.6-0.7,0.8-1.8,0.3-2.8
	C517.7,461.8,519.9,462.4,522.1,461.7z"/>
<path class="st0" d="M543.1,461.4c0.3-0.1,0.3,0.1,0.3,0.3c1,0.7,1.8-0.8,2.8,0c0,1.3-1,1.5-0.9,2.8c-1-0.5-1.2,0.1-2.5,0
	C542.2,463.8,542.4,461.8,543.1,461.4z"/>
<path class="st0" d="M500.5,463.6c0.8-0.1,0.8,0.7,0.9,1.3c-0.6,0.6-1.5,0.2-2.2,0c0.3-0.9,1,0.2,1.6,0c0.3,0.1,0.3-0.1,0.3-0.3
	C500.9,464.2,500.4,464.2,500.5,463.6z"/>
<path class="st0" d="M543.1,466.4c0.4,0.3,0,0.7,0.6,1.3c0.3-0.8,2.4-0.9,2.8-0.6c-0.6,1.5-0.6,1.4,0,2.8c-2.4,0.3-2.7-0.8-4.1,0
	C543.6,469.1,542.3,467.6,543.1,466.4z"/>
<path class="st0" d="M562.9,468c-0.5,1.4-1.7,2.3-4.1,1.9c-0.4-0.4-0.1-0.5,0-0.9c-1.1,0.6-2,1.5-1.6-0.6c-0.8,0-0.5,1.2-0.9,1.6
	c-2.2-0.1-6.3-0.2-8.5,0c0.1-0.4-0.1-0.6-0.3-0.6c0.7-0.9,0.9-0.8,0.3-2.2c2.2,0.7,4.4-0.7,6-0.6c0.5,0,1.2,0.9,1.9,0.9
	C557.2,467.5,561.8,465.6,562.9,468z"/>
<path class="st0" d="M520.5,472.7c0.1-0.4,0.3-0.2,0.3,0c3-0.2,3.4,0.1,5.6,0c-0.6,1.1-0.7,1.7,0.3,2.5c-0.4,0.6-4.2,0.7-2.8-0.6
	c-0.8,0-0.3,1.3-1.6,0.9c0.6-0.6,0.1-1.1,0-1.9c-0.8,0.6,0.9,2-1.3,1.9C521.6,474.2,521.4,473.8,520.5,472.7z"/>
<path class="st0" d="M519.9,473c0.4,1-0.8,1.9,0,2.2c-0.8,0.7-3,0.1-4.4,0.3C514.7,472.7,517.9,472.2,519.9,473z"/>
<path class="st0" d="M551.6,474.3c0.1,0.5,1.1-0.4,0.9,0.9c-1.8,0.1-3.8,0.7-5-0.3c-0.7,0.5-1.5,0.8-2.8,0.6
	c-0.3-0.3-0.2-0.9-0.6-0.9c0.8-0.6,0.3-0.4,0.3-1.6c0.6-0.1,0.8-0.7,1.6-0.6c0.2,0.3,0.3,0.7,0.3,1.3c0.4-0.2,0.6-0.7,0.6-1.3
	c1,0.7,2.2-0.7,2.5,0.6c0.7-1.1,2.4-1,3.5-0.3C551.9,473.4,552.4,473.7,551.6,474.3z"/>
<path class="st0" d="M498.9,474.3c0.5-0.1,0.5,0.3,0.9,0.3c-0.2,0.6-0.6,0-0.9,0c1.1,1.6,1,0.6-0.6,0.9
	C498.4,475.1,498.7,474.7,498.9,474.3z"/>
<path class="st0" d="M566.3,480.2c-0.5,1.3-3.2,0.9-4.1,0.3c-2.5,0.5-4.7,0.1-7.8,0.3c0.1-0.5-0.2-0.6-0.6-0.6
	c0.1-1.4,1.9-1,1.9-2.5c1.9,0.7,2.9-1.1,4.1,0.6c0.2-1,2.5,0,2.5-1.3c0.7,0.9,3.1,1.1,3.8,0.3C566.8,478.1,564.3,480,566.3,480.2z
	 M563.5,479.9c0.1-0.2,0.3-0.4,0.6-0.3c0.1,0.5-0.1,1.2,0.3,1.3c-0.3-0.9,0.4-0.8,0.3-1.6C564,479,562.7,479.6,563.5,479.9z"/>
<path class="st0" d="M499.5,478.7c0.6,0.2-0.2,0.3-0.6,0.3c0,0.4,0.6,0.3,0.9,0.3c0,0.5-0.2,1.2,0.3,1.3c-0.1,0.5-0.9,0.1-0.9,0.6
	c-1-0.3,0.1-1.1,0.3-1.3c-0.5-0.7-0.8-0.5-1.6-0.3C498.4,479.2,498.7,478.7,499.5,478.7z"/>
<path class="st0" d="M500.8,481.8c0.1,0.6-0.3,0.6-0.3,0.3c-0.4,0.1-0.3,0.6,0,0.6c-0.5,0.3-1.1,1.2,0.3,0.9
	c-0.3,0.5-0.8,0.7-1.6,0.6c0.2-1-0.3-1.1-0.3-1.9C499.8,482.5,499.9,481.7,500.8,481.8z"/>
<path class="st0" d="M559.7,486.5c0.5,0-0.3,1.3-0.9,1.3c-0.3-2.2-4.2-1.2-5-1.3c-0.6-0.7,0.1-2.6-1.3-2.5c0.3-0.7,1.6-0.5,1.6-1.6
	c1.6,1.7,3.6,0.1,5,1.3C558.1,484.4,559,487,559.7,486.5z"/>
<path class="st0" d="M552.2,485.9c-4,0.8-8.1,0.5-11.9,0.3c0.2-0.6,0.5-1.1,0.6-1.9c-0.9,0.4-0.9,1.6-1.6,2.2
	c-1.9-0.2-2.6,0.1-4.4-0.3c0.5-1.1-0.3-2.1,0.6-3.1c1.8,0.7,4.8,0,6.3,0.3c0.8,0.3-0.6,1.4,0.3,1.9c1.1-0.3,0-0.8,0.3-1.9
	c4.1-0.8,5,0.4,8.8-0.3c0.8,1.2,0,2.1,1.3,2.8C552.5,486.2,552.2,486.1,552.2,485.9z"/>
<path class="st0" d="M528.7,485.6c-2.5,1.6-4.5,0.4-7.8,0.9c-0.7-1.1,0.1-1.1-0.3-2.8c1,0.3,3.8-1.3,4.1,0.6
	c0.6-0.4,2.2-1.8,2.8-0.3c1.7-1.4,3.8-0.5,6.3-0.3c0,1.8-0.7,1.1-0.6,2.8C530.8,485.5,529.6,487.8,528.7,485.6z"/>
<path class="st0" d="M498.6,484.6c0.7,0.2-0.5,1.2-0.3,1.9c-1.2-0.1,0.4-1.1-0.9-0.9c0.6-0.4-0.2-2,1.3-1.6
	C498.2,484.1,498.2,485.5,498.6,484.6z"/>
<path class="st0" d="M498.3,487.8c-0.4,1-0.9-0.3-0.6-0.9c0.8,0,1.5,0,1.9,0.3C499.4,487.6,497.6,486.8,498.3,487.8z"/>
<path class="st0" d="M500.1,488.7c-0.4-0.1-0.3-0.8-0.3-1.3c0.2-0.4,1.2,0,1.3-0.6C501.7,488.1,499.8,487,500.1,488.7z"/>
<path class="st0" d="M519,488.4c0.4,0.1,0.2,0.3,0,0.3c1.7,1,1.3-1.2,2.8,0.6c-0.1-0.6,0.7-0.3,0.9-1.3c0,0.9,1.7,0.2,1.6,1.3
	c0.4-0.2,0.6-0.7,0.6-1.3c1.1,1.8,4.7-0.3,5.3,1.3c0.3-0.2,0.7-0.3,1.3-0.3c0.1-0.5-0.5-0.8,0-0.9c0.7,0.1,1.1,0.6,1.3,1.3
	c0.7-0.4,1.4-0.9,2.8-0.6c-0.3,1.4,0.7,2-0.3,3.8c-2-0.5-5.2,1.2-4.4-0.9c-0.8,0-0.3,1.3-1.6,0.9c0.4-1-0.2-1.4,0.3-1.9
	c-0.1-0.3-0.6-0.2-0.6-0.6c-0.9,0.7,0.8,2.6-1.3,2.5c0.5-0.9-0.1-1.6,0.3-2.2c-0.2,0-0.4,0-0.6,0c-0.9,0,0.7,0.9-0.6,0.6
	c-0.3,0.9,0.4,0.8,0.3,1.6c-0.8,0.1-1.6,0.1-1.3-0.9c-0.4,0.1-0.3,0.8-0.3,1.3c-2.2-0.1-4.1-0.2-5.6,0.3c-0.5-0.1,0-0.3,0-0.6
	c-2.2,0.1-2.2,1.1-3.8,0c0.3-1-0.8-3.5,0.9-3.1c-0.4,1.6,0.8,1.7,1.3,2.5C518.8,491.1,517.4,488.8,519,488.4z M523.7,491.2
	c0.8-0.4,0.8,1.5,1.3,0.3c-0.8-0.4-0.1-1.5-0.6-1.6C524.1,490.4,523.8,490.7,523.7,491.2z M531.8,491.5c0.5,0,1,0,1.6,0
	c0.2-0.7-0.8-1.9-1.3-0.9C533.2,490.9,531.8,491.2,531.8,491.5z"/>
<path class="st0" d="M555,488.1c0.9,1.3,4.7,0.9,7.2,0.6c0.2,2.3,1.2,1.8,2.2,3.8c-1.2,0.3-2.2,0.1-3.1-0.6
	c-0.4,0.1-0.6,0.4-0.6,0.9c-5.1-0.8-10.9-0.3-15.4-0.3c0-2.1,0.6-1.7,0.6-3.5c0.4,0.1,0.6-0.1,0.6-0.3c1.1-0.1,0.9,0.9,1.6,1.3
	c0.9-0.3-0.5-0.8,0.3-1.3c0.4,0,0.8,0,1.3,0c-0.1,0.3-0.3,0.3-0.3,0.6c0.8-0.8,2.6-0.5,3.5-1.3C552.2,489.1,554.6,488.3,555,488.1z"
	/>
<path class="st0" d="M543.1,488.4c0.3,0.3,0.1,0.6,0.3,1.6c-1.4-0.1-0.4,1.8-1.6,2.5c-1.2-0.1-3,0.3-3.8-0.3c0.2-0.7,1-2.4,0-2.5
	c0.3-0.8,1.3-0.8,1.9-1.3c0.4,0.3,0.6,0.8,0.9,1.3c0.5-0.1-0.1-0.4,0-0.9C541.6,488.5,543,489.1,543.1,488.4z"/>
<path class="st0" d="M578.6,494.7c0.1-0.5-0.2-0.6-0.6-0.6c0.1-0.4,0.8-0.3,1.3-0.3c-0.2,0.3-0.4,0.6,0,0.6c-0.5,0.2-0.5,1-1.3,0.9
	C577.8,494.8,578.2,494.7,578.6,494.7z"/>
<path class="st0" d="M557.2,496.5c1,0-1.4,1.3,0.3,1.3c-0.1,0.4-1.3,0.6,0,0.6c0.1,0.8-1.2,0.2-0.9,1.3c-2.8,0.1-4.5-0.3-6.6-0.3
	c-1.6,0-4.3,1.2-4.1-2.2c2.3-2,8.6,0.7,9.7-1.9c0.5-0.2,0.5,1.5,0,1.3C555.8,496.6,557,497,557.2,496.5z"/>
<path class="st0" d="M524.9,495.6c0.7,0.1-0.3,0.8-0.6,0.9c1.9,0.7,3.8-0.2,6.3-0.3c0,0.3,0,0.6,0,0.9c2.5-2.1,2.8,1.2,3.1,1.9
	c-1,1.5-5.3-0.3-6.3,1.3c-2.7-1-4.5-0.6-6.6,0c-1.4-0.7-1.8-0.5-3.8-0.6c0-1.8-0.3-2,0.3-3.1c0.7,0.1,1.4,0.7,1.6-0.3
	c0.5,0.1-0.1,0.4,0,0.9c0.6-1,1.9-0.9,1.6,0c0.9-0.3,2.2-1,2.5,0C523.6,496.1,523.9,496.4,524.9,495.6z"/>
<path class="st0" d="M567.3,499.1c-2.6,0.9-6.7,0.3-9.1,0.3c-0.3-0.6,0.4-1.1,0-2.5c2.1-1.1,6.5,0.6,7.8-1.3c0.8,1,2.4,0.9,3.5,0.6
	c0.5,0.4-0.8,1.6-0.3,3.1c-1.4-0.4-1.1,0.7-1.9,0.9C566.4,501,568.2,499.5,567.3,499.1z"/>
<path class="st0" d="M536.5,496.2c1.5-0.8,1.5,1.4,2.2,1.9c-0.7,1.1-1.7,1.8-3.8,1.6c-0.9-0.7-0.1-1.3-0.9-2.2
	C534.2,496.6,537,496.7,536.5,496.2z"/>
<path class="st0" d="M515.5,496.5c0,0.8,0.2,1.3,0.6,1.6c-0.2,0.9-0.5-0.5-0.9-0.3c0.2,0.6,0.2,1.3,0.6,1.6
	c-0.3,1.2-3.4-0.6-3.5,0.9c-0.9-0.6-1.1-0.4-1.9-0.6c0.2-1.2,0.5-1.8-0.9-1.9c-0.2-0.9,0.6-0.6,0.6-1.3
	C513.5,497.2,513.1,496.9,515.5,496.5z"/>
<path class="st0" d="M573.2,496.9c-1.1-0.6,1.1,0.1,0,0.3c0.2,0.4,0.7,0.6,1.3,0.6c-0.5,1.2-1.8-0.8-1.9,0
	C571.8,498.4,572.8,496.9,573.2,496.9z"/>
<path class="st0" d="M502.3,497.5c0.3,0.2,0.7,0.3,1.3,0.3c-0.8,0.9-0.5,0.7,0.3,1.3c0,0.2,0,0.4,0,0.6
	C503,499.3,502.4,498.7,502.3,497.5z"/>
<path class="st0" d="M573.5,499.4c0.4-0.5,1.1-0.6,1.9-0.6c0,0.3-0.4,0.2-0.6,0.3c0,0.3,0.4,0.2,0.6,0.3
	C575,499.8,574.1,499.5,573.5,499.4z"/>
<path class="st0" d="M553.5,501.2c0.2,0.7,4.9,1,5,0c1.5,1.5,2,0,3.8,0.9c-0.4,2.5,1,1.2,1.3,3.1c-0.2-0.2-1.5-0.8-1.3,0.3
	c-4.5-2.5-11.3,1.9-13.5-2.8c-0.3,0.1-0.3,0.3-0.6,0.3c1.6-0.2-0.1,1.1,1.3,1.6c-1.4,0.7-4.1,0.1-6,0.3c-0.4-1.1,0.2-1.3-0.3-1.9
	c0.7-1.8,3.3-0.7,4.4-1.6c0.1,0.6,0.8,0.6,1.3,0.9c0.6-0.8-0.2-0.7,0.6-0.9C550.2,502.8,552.1,502,553.5,501.2z"/>
<path class="st0" d="M503,502.8c-0.1,0.4-0.8,0.3-1.3,0.3c0-0.3,0.4-0.2,0.6-0.3c-0.1-0.4-0.9-0.4-0.9,0c-0.5-0.1-0.1-0.9-0.6-0.9
	c0.5-0.2,1.8-0.3,2.5,0C502.8,502.2,501.7,502,503,502.8z"/>
<path class="st0" d="M500.8,504.1c0.2-0.3,0.4-0.6,0-0.6c0.5-0.2,3.1,0.3,3.1,1.6C502.7,504.2,502.6,504.1,500.8,504.1z"/>
<path class="st0" d="M574.5,505c-0.9-0.4,0.5-0.4,0.6,0c-0.4,0.4-0.3,0.6,0.3,0.6c0,0.2,0,0.4,0,0.6c-0.3-0.1-0.3,0.1-0.3,0.3
	c-0.4-0.1-0.2-0.3,0-0.3c-0.5-1-1.4-0.1-1.9-0.6C573,504.4,575.2,505.9,574.5,505z"/>
<path class="st0" d="M507,506c0,0.6-0.9,0.4-0.6,1.3c-0.5,0-1-0.9,0-0.6c0-0.6-0.9-0.4-0.6-1.3C506.6,505.1,506.4,505.9,507,506z"/>
<path class="st0" d="M504.5,507.5c-0.2-0.9,0.6-0.6,0.6-1.3c0.5,0.4,0.5,1.2,0.9,1.6c0.6,0,0.4-0.9,1.3-0.6c0,0.9-0.8,0.9-1.6,0.9
	C506.1,507.2,505.1,507.6,504.5,507.5z"/>
<path class="st0" d="M576.7,507.2c0.6,0.5-0.1,2.7-1.3,1.9c0.1-0.4,0.6-0.3,0.9-0.3C575.8,507.6,576.6,508.3,576.7,507.2z"/>
<path class="st0" d="M519.3,508.5c0.1-0.4,0.8-0.3,1.3-0.3c0.2,1.4-1,0.7-0.3,1.9c-0.3,0-0.6,0-0.9,0c0-0.3,0.4-0.2,0.6-0.3
	C519.3,509.2,519.6,508.7,519.3,508.5z"/>
<path class="st0" d="M512.4,509.1c0.3,0.2,0.3,0.7,0.9,0.6c-0.5,1.2,0.2,0.5,0.3,1.6c-0.5-0.9-1.3,0.5-1.6-0.3
	c-0.8-0.5,0.9,0.3,0.9-0.6C513,509.7,512.1,509.9,512.4,509.1z"/>
<path class="st0" d="M569.5,519.1c-0.2,0-0.4,0-0.6,0c-0.8-0.6,0.9-0.1,1.3,0c-0.1,0.3-0.3,0.3-0.3,0.6c0.2,0.6,0.9,0.2,0.3,0.9
	C569.6,520.4,569.4,519.9,569.5,519.1z"/>
<path class="st0" d="M487.9,573.4c-0.2-0.7-1.5-1-0.6-1.9c0.3,0.5,1,1,1.3,0c-0.2-0.5-0.3,0-0.3,0.3c-0.6,0.3-0.2-1.8-0.6-0.6
	c0.4-3.4,2.6-9.8,2.5-15.7c-1.3-1.9-3.1-3.4-3.8-6c-0.8-1.1-2.6-1.1-4.1-1.6c0.2-1.3-0.8-7.8-2.2-7.5c3.3-2.3,12.4-0.9,19.1-0.9
	c39.4,0,71.8-1.4,106-0.6c-0.1,2.8-0.7,4.9-0.9,7.5c-1.6-0.2-1.6,1.3-3.5,0.9c-4.2,5.7-6.3,13.1-3.5,21.6c1.8,5.5,5.2,11.4,8.5,15.7
	c4.3,5.8,12.3,10.2,18.2,15.4c0.1,6.6,0.1,10.5,0.3,17.9c-0.3,0-0.2,0.4-0.3,0.6c-6.9,6.6-21.8,5.3-36.4,4.7
	c-15.6-0.7-34.9,0.5-51.8,0c-23.3-0.7-52.5,0.5-74.7,0.3c0.4-5.7-1-11.3,0-14.4c0.2-0.7,0-0.4,0.6-0.3c-0.7-1.6-0.7-2.7-1.3-3.8
	c2-2.9,4-5.4,7.5-5.3c-0.1-0.4-0.8-0.3-1.3-0.3c1.2-3,6.6-2.8,11.3-2.8c5.7,0,11.6,0.8,17.3,0.3c-0.3-0.8-0.5-1.8-1.9-1.6
	c0.9-1.3,2.2,0.6,3.1,0.3c1-1,1.7-1.7,3.1-1.6c0-0.6-1.1-0.2-1.3-0.6c0.3-0.4,0.5,0.1,0.9-0.6c-0.1-0.8-0.5,0.4-1.3,0
	c-0.2,1.9-1.5,0.7-1.6,2.5c-1.6-0.7,0.6-1.7,0.6-2.8c-0.9-0.2-0.9,0.4-1.9-0.6c1.3-0.5,2.7-0.3,3.5,0.6c0-1.1,0.4-3.3-2.5-3.5
	c0,0.9,1.8,0.3,1.9,1.9c-0.4-0.1-0.6,0.1-0.6,0.3c-1.6,0.1,1-1.1-0.6-1.3c-0.1,0.8-0.5,0-0.9,1.3c-0.8-0.4-3.7-0.1-3.5-1.3
	c0.2-0.5,0.7-0.2,0.6,0.3c0.3-0.2,0.3-0.7,0.9-0.6c-0.6-0.6-1.1-0.5-1.9-0.3c0.8-0.9-0.4-1.4-1.3-0.9c0.1,0.9,1,0.9,1.3,1.6
	c-0.4,0.3-2-0.9-2.2-1.9c-0.5,0.1,0.5,1.5-0.9,1.3c0.2,0.3,0.6,0.5,0.9,0.6c-1.9,0.4-1.9,0.2-4.1,0.9c1.7-0.7,2.8,1.5,3.8,0.6
	c0.9,1.2-1.1,1-1.3,0.9c-0.3-0.2,0.2-1.2-0.9-1.3c-0.6,0.5,0.2,1-0.6,1.6c-0.7-0.4-0.7,0.2-1.3-0.6c-1.7-0.2-1.4,2.4-2.8,1.6
	c-0.2,0.8,0.6,0.6,0.9,0.9c-0.2,0.8-2.1-0.5-0.9,0.6c-1.2,0.1-3.3,0.4-4.1,0.6c-0.1-0.9,0.5-1.1,0.9-0.6c-0.7-0.6-0.8-1.6-0.9-1.9
	c-1.1,0.3,0.7,1.8-0.3,1.9c-1-0.4-1.5-1.2-2.8-1.3c0.4-0.8,1.6,0.2,2.2,0.3c0.8-0.2-2.2-2.1-0.6-2.2c0.7,0.3,0.3,0,0.6,1.3
	c1.3-1.2-0.9-1.6-0.9-2.5c0.4-0.1,0.6-0.4,0.6-0.9c0.7-0.2,0.4,0.6,0.9,0.6c0.7-0.5,1.1-2.4,2.2-1.6c-0.2-1.2-0.9,0.1-1.6-0.6
	c0.8-1.3,0.5-1.2,0.9-2.5c0.5,0.1-0.3,0.6,0.3,0.6c0.9-0.1,0.2-1.3,1.3-1.9c0-0.7-0.9,0.1-0.6,0.6c-0.9-0.5,0.7-1.2,0.6-1.9
	c0.5,0.1,0.3,1,1.3,0.6c-1.3-0.6,0.6-1.1,1.3-1.6c-1-0.1,0-1.9-0.9-0.9c-0.7-0.7,0.6-2.1,1.6-1.3c-1.6-0.5-0.3-2.1,0-3.5
	C487.2,577.2,485.7,574,487.9,573.4z M485.7,591.3c0.5-0.4,0.5-1.2,0.9-1.6c0.2,0,0.4,0,0.3-0.3c-1.7,0.3,0-0.8-1.3-0.9
	c-0.7,1.1,0.9,1.4-0.3,2.2c0-0.5-0.9-0.2-0.3,0C485.5,590.6,485.4,591.2,485.7,591.3z M488.9,588.1c-0.1-0.7,0.1-1.2,0.3-1.6
	c-1.5-0.2-0.4,1.2-0.9,1.3c-0.4,0-0.5-0.5-0.6,0C488,587.9,488.2,588.3,488.9,588.1z M490.7,587.8c0-0.2-0.3-0.4-0.3,0
	c0.8,0.6,1.8-0.9,2.5,0.3c-0.1-0.9-0.5-1.3-1.6-1.3C491.2,587.3,491,587.6,490.7,587.8z M492.9,588.8c0.7-0.1,1.2,0,1.6,0.3
	c0-0.4,0.6-1.7,0-0.9C494.5,588.7,492.9,587.5,492.9,588.8z M506.1,589.1c0.4-0.5,1.6,0.3,1.9-0.9
	C507,588.3,505.5,588.1,506.1,589.1z M501.1,590c-1.1,0.2-0.4-1.3-1.6-0.9C498.6,590.2,500.4,591.1,501.1,590z M504.2,591.6
	c-0.5,0.1-1.2-0.1-1.3,0.3c1.7-0.1-0.7,1.2,0.3,1.3c1.1-0.6,1.4-2.3,0.9-3.1C503.6,590.6,504.4,590.6,504.2,591.6z M506.1,592.8
	c0.3-0.4,0.4-0.8,0.3-1.6c-1,0.6-1.4,0.1-1.9,0.9c0.6,0.1,1.6-0.3,1.3,0.6c-1-0.4-0.7,0-1.9,0c-0.4,0.9,0.9,1.5,0.9,0.9
	c-0.3,0-0.4-0.5,0-0.6c0.4,1.4,1.3,0.5,2.2,1.6c-1.5,0-0.8,1.1,0,1.3c-1-0.3-1.2,0.3-1.6,0.6c0.1-0.7-0.9-0.3-0.9-0.9
	c0.8,0,1,0.6,1.3-0.3c-1.1,0,0.7-1-0.3-0.9c-0.8,1-2-1.3-2.8-0.3c-0.4-1-0.2-1.2,0.3-1.9c-0.8,0.3-1.3,0.8-1.6,1.6
	c0.9,0.2,0.4,0.4,0.9,1.3c-1.7,0.2-2,0.8-3.5,0.6c0,0.4,0.1,0.9-0.3,0.9c0.5-0.8-1.1-0.9-0.9-0.3c0.4,0.1,0.2,0.3,0,0.6
	c2.9-0.3,6.4,0.6,7.2-0.6c1.1,0.7,1.8,0.4,4.4,0.6c-0.3-1.4,0.7-1.4,1.3-1.9c0.1-1-0.7-1.5,0-2.2c-1-0.3-0.4,1-1.3,0.9
	c0.3-0.9-0.4-0.8-0.3-1.6c0.4,0,0.4,0.4,0.9,0.3c0-0.3,0-0.6,0-0.9C508.4,592,507.7,592.3,506.1,592.8z M589.5,592.5
	c0.7,0,0.9-0.5,1.9-0.3c-0.2-0.8-1.6-0.2-0.3-1.6c-1.9-0.2-0.4,1-1.6,1.3c0-0.5-0.9-0.2-0.3,0C589.5,592,589.6,592.2,589.5,592.5z
	 M576.1,592.2C572.6,591.8,573.4,593.6,576.1,592.2L576.1,592.2z M580.8,592.2c-0.6-0.1-0.6,0.4-0.9,0.6c0.2-0.6-1.6-1.1-1.3,0
	C579.7,592.2,580.1,593.8,580.8,592.2z M481,594.1c-0.3-0.4-1.1-0.4-1.3-0.9c0,0.4,0,0.8,0,1.3c0.8,0.4,1-0.2,1.3,0.3
	c-0.2,0-0.4,0-0.3,0.3c0.6-0.2,1.3-0.2,1.6-0.6c-1.3-1.7,0.6,0.4,0.6-1.6c-0.9,0-0.6,0.5-1.3,0C481.6,593.4,481.4,593.9,481,594.1z
	 M589.2,592.8c-0.6,0.6,0.3,1.1,0.6,1.6c0.5-0.3,1.6-1.2,0.3-1.6C590.8,594.4,589.6,593.5,589.2,592.8z M510.5,593.8
	c0.8,0.1,0.5,1.4,1.3,1.6c-0.3,0.7-1.2,0.7-2.2,0.6c0.1,1.7,5.4,1.2,3.5,0c1,0.5,1,0.9,1.9,0.9c0-0.6-0.2-1-0.6-1.3
	c-0.6,1.1-0.9-0.6-1.6-0.3c-0.6,0.1-0.1,1.4-0.9,1.3c0.1-1.1,0.6-2,1.3-2.5c0,1.3,1.8-0.2,1.9-0.9c-1.1,0.5-2.2,0.9-3.8,0.9
	C511,593.8,510.6,593.3,510.5,593.8z M531.2,596.6c-1.2,0.2-0.4-1.7-1.9-1.3c-0.1,0.6,0.4,0.6,0.6,0.9c-0.9-0.3-1.5-0.4-1.9-0.6
	c0.5-0.7,1.9-0.1,0.6-0.9c0.4,0,0.7,0.1,0.9,0.3c-0.1-0.5,0.5-0.8,0-0.9c-0.7,1.1-1.4-0.5-1.9-0.6c0.1,0.6-0.4,0.6-0.6,0.9
	c1.5-0.1-0.3,1.1,0.6,1.6c-0.6-0.1-0.6,0.4-0.9,0.6c-0.1-0.4-0.7-0.4-0.9-0.6c0,0.4-0.1,0.7-0.3,0.9c2.3-0.5,4.7,0.8,6.3-0.6
	c-0.5,0.1-0.8-0.5-0.9,0C531.1,596.3,531.3,596.3,531.2,596.6z M587,596.3c1,0.5,0.7-2,0.9-0.3c0.3-0.2,2.4-0.3,1.6-0.6
	c-1.1,0.3-1.1-0.5-0.6-0.9c-1.4-0.2-2.5,0.7-3.5-0.9C585.6,594.8,587.1,594.8,587,596.3z M584.2,594.4c0.6,1.5-0.7,1.1,0.3,1.9
	c-4.6-0.2,1.4,2.1,1.9-0.9c-0.4,0-0.8,0-1.3,0c-0.3,0.6,0.9,1,0,1.3c-1.3-0.7,0.7-3.2-0.6-2.5c0.2,0,0.4,0,0.3,0.3
	C584.6,594.4,584.4,594.4,584.2,594.4z M546.9,596.3c0-0.2,0-0.4,0.3-0.3c0,0.4,0.1,0.7,0.6,0.6c0.5-1-0.1-1.2-0.6-1.9
	C548.3,595.9,545.9,595.5,546.9,596.3z M548.5,595c-0.1,1.5,1.7,0.8,1.6-0.3C548.9,594.9,549.6,595.6,548.5,595z M596.1,596.9
	c0.5-1.2-0.8-0.6-0.9-1.3c1,0-0.7-1.3-0.6-0.3c1.4,1.1-1.7,0-0.6,0.6C594.8,596.2,595.2,596.8,596.1,596.9z M572,596
	c0.6-0.1,1,1.5,1.3,0.6c-0.2,0-1-1-0.3-0.9c0.5,0.2,0.8,0.5,1.3,0.6C574.4,594.9,572.2,595.3,572,596z M583.3,595.3
	c0,0.8-1.1,0.1-1.3,0c-0.1,0.4-0.9,1.5-0.3,1.6c0.2-0.4,0.3-0.7,0.6-0.9C583,596.2,584.1,595.5,583.3,595.3z M516.1,596.3
	c-0.1,1.3,2,0.4,2.5,0.3c0.2-0.5-0.6-1.4-0.6-0.6C519,596.5,516.4,596.9,516.1,596.3z M521.5,596.9c1.2-0.3,0.8-0.7,2.2-0.3
	c0-0.4,0.1-0.9-0.3-0.9c-0.1,0.2,0,0.6-0.3,0.6c-0.1-0.4-0.5-0.3-0.9-0.3C522.2,596.6,521.7,596.6,521.5,596.9z M551.3,596.6
	c-1,0.2-0.4-1.1-1.6-0.6c0,0.4-0.1,0.7-0.3,0.9C550.2,596.3,550.8,597.2,551.3,596.6z M468.8,601c-1.9-0.1-1.9-0.2-3.1,0.9
	c1.6-0.6,4,0.6,5.3-0.6c-0.3-1.1-1,0.2-1.6-0.6c1.3-0.3,2.7-0.6,3.1-1.9C472,600.1,466.4,599.8,468.8,601z M521.8,599.4
	c0,0.9,0.5,0.6,0,1.3c1.5-0.6,1.1-0.9,2.2-0.6c-0.4-0.1-0.3-0.5-0.3-0.9c0.4,0,1.2-0.1,0.6-0.3C523.2,598.7,522.6,600.1,521.8,599.4
	z M473.8,600.1c0.2,1.2-1.2,0.7-1.3,1.6c0.5-0.1,1.2,0.1,1.3-0.3c-0.2,0-0.4,0-0.3-0.3c0.8-0.2,1.1-0.4,1.6,0.3
	c-0.4,0-0.7-0.1-0.9-0.3c0.3,1.2,0.2,1.8-0.6,2.5c1.4,0,2.3-0.5,2.8-1.3c-0.7,0.1-1.2-0.1-1.3-0.6c0.6-0.3,1.3-0.5,1.6-1.3
	c-0.5-0.1-0.8,0.5-0.9,0c0-0.5,2-0.6,0.9-1.3C476.3,600,475.1,600.1,473.8,600.1z M478.8,601c0.8,0.4,1.8-0.6,1.9,0
	c-1.1,1.3-2.7,0.5-3.5,1.9c1.8-0.4,4.4,0,5.3-1.9c-0.5-0.1-1.2,0.1-1.3-0.3c0.7-0.4,1.8-0.9,0.6-1.6
	C482.5,600.7,479.3,599.6,478.8,601z M486.3,602.9c0-0.2,0-0.4,0-0.6c0.6,0,1.3,0,1.9,0c0.5-1.1-1.1-0.2-0.9-0.9
	c0.6-0.3,1.3-0.5,1.6-1.3c-0.5-0.1-0.2-0.7,0-0.9c-1.9,0.2-0.2,1.2-2.2,0.6c0.3,1.2-1.2,0.9-2.2,1.6c1,0.4,0.7,0,1.9,0
	c0,0.3,0.3,0.4,0.3,0.6C486.3,601.8,485.6,602.8,486.3,602.9z M490.4,599.7c0,0.3,0,0.6,0,0.9c1.8-0.3,2.8,0.2,4.1-0.9
	c-0.4,0-0.7-0.1-0.6-0.6C491.5,599.3,493,600.2,490.4,599.7z M501.4,601.9c-0.3-1,1-0.4,0.9-1.3c-1-0.2-0.7,1-1.9,0.6
	c-0.9-0.5,0.5-1.3-0.3-1.6c-0.5,1.8-1.7-0.9-2.5,0.3C499.4,600.2,499.9,601.6,501.4,601.9z M509.9,601.3c0.3-0.2,1.7-0.1,2.2-0.9
	C511.5,599.6,509.1,600.8,509.9,601.3z M491.7,602.6c1.1-0.1,1.7-0.6,2.2-1.3c-0.9,0.3-2.2-0.5-2.2,0
	C492.5,601.4,491.8,602.4,491.7,602.6z M505.5,602.3c0-0.4,0.1-0.9-0.3-0.9c-0.1,0.4-0.5,0.3-0.9,0.3c0,0.4-0.1,0.7-0.3,0.9
	C505.6,602.7,503.8,601.6,505.5,602.3z M469.7,602.9c0.1-0.5-1.7-0.5-1.6,0C468.2,603.3,469.9,604.2,469.7,602.9z M478.5,603.2
	c-0.1,1.5,2.9,0,1.9-0.3C479.8,603.5,479.3,603.4,478.5,603.2z M491.7,603.8c-0.1-0.7,1.7,0.7,1.9-0.3
	C493.3,602.8,490.7,603.3,491.7,603.8z"/>
<path class="st0" d="M493.6,593.8c-0.2-1,0.6-0.5,0.6,0c0.4-0.1,0.3-0.8,0.3-1.3c0.7,0.2,0.9,0.8,1.9,0.6c-0.1,0.6-0.1,1.4-0.9,1.3
	c0.8-0.5-0.5-1.1-0.3,0C494.2,594.6,494.5,593.5,493.6,593.8z"/>
<path class="st0" d="M517.7,439.1c1.2-1.2-1.4-4.2,0.9-5.6"/>
<path class="st0" d="M557.9,454.8c0.8,1.2,0.9-1,1.9-0.6c-0.7,1.2-0.6,1.9,0.9,1.3c-0.2,0.6,0.4,2.1-0.3,2.2c-1.3,0.1,0-0.5,0-0.9
	c-0.1-0.3-0.3-0.6-0.6-0.6c-0.1,1.8-3.3,1-5,1.3c0.6-1.7-0.4-1.2,0-2.8c-1.3,0.2-0.9,2.3-0.6,2.5c-0.7,0.8-3,0.5-2.2-0.6
	c-1.2,0.9-1.6,1.2-3.1,1.3c0.1-1.5,0.3-1.5,0-2.8c-0.6,0-0.7,0.4-1.3,0.3c-0.2,1,0.9,0.6,0.6,1.6c-1.1,0.8-1.8,1.2-2.8,0.3
	c0.7-1.1,0.3-1.3,0.3-3.1c1.7,1.1,4.3-1.2,4.7,0.6c2.1-1.6,4.8,0.1,6.6-0.9c0.1,0.8,0.1,1.6-0.9,1.3c0.4,0.4,0.4,1.2-0.3,1.3
	c0,0.7,1.3,0.1,1.9,0.3c0.3-1.1-0.5-1.2-0.3-2.2c0.4-0.4,1.1-0.4,1.9-0.3C558.8,454.3,558.6,454.9,557.9,454.8z"/>
<path class="st0" d="M523,456.4c-0.8-1-0.7,1.6-1.9,1.3c0.5-1.1-0.2-1.4,0.3-2.5c-1.6-0.4-1.2,1.3-1.3,2.5c-1.6-0.7-0.5-2.4,0-3.5
	c0.6,0,1.3,0,1.9,0c0,0.4,0,0.8,0,1.3c0.6-0.1,0.7-0.5,0.6-1.3c0.8-0.1,1,0.4,0.9,1.3c0.4-0.1,0.3-0.8,0.3-1.3c0.7,0,1.5,0,2.2,0
	c0.1,1-0.7,1-1.6,0.9c1.4,0.4,0.6,1.1,0,1.9c0.8,0.1,0.7-0.6,1.6-0.3c-0.2,1.9-2.5,0.3-3.5,0.9C522.8,457.1,522.6,456.4,523,456.4z"
	/>
<path class="st0" d="M534.3,461.7c-0.4,1.4-0.2,1.8,0.3,2.8c-1.9,0.2-2.8-0.3-4.1,0c0.1-0.2,0.8-1.2,0-1.3c-0.5,0.1,0.3,1-0.6,1.3
	c-0.7-0.4,0.2-1.7-1.3-2.5C530.7,461.5,531.9,462,534.3,461.7z"/>
<path class="st0" d="M541.2,462c0,1.4-0.5,2.3-1.6,2.5c-0.4-0.2,0-1.2-0.6-1.3c-0.9,0.3,0.5,0.8-0.3,1.3c-0.9,0-1.9,0-2.8,0
	c-0.5-0.7,0.7-1.6,0-2.2C537.5,461.4,539.3,461.3,541.2,462z"/>
<path class="st0" d="M524.3,461.7c1.2,0.7,2.8-0.1,3.8,0.3c-0.6,1,0.1,1.3-0.3,2.5c-2.3-0.3-2.3,0.8-3.8,0
	C524,463.6,523.8,462.2,524.3,461.7z"/>
<path class="st0" d="M510.8,462c0.7-0.1,1,0.3,0.9,0.9c0.4-1.2,1.6-1.1,2.8-0.6c-0.2,0.7-1.3,1.5,0,1.9c-0.2,1-2.6,1.3-2.5-0.3
	c-1.1-0.5-0.2,1.1-0.9,0.9C510.1,464.8,511.7,463.2,510.8,462z"/>
<path class="st0" d="M527.7,467.7c-0.7,0.7-0.7,0.8,0,2.2c-1.6,1.1-2.8-0.6-4.1,0c0.3-0.4,0.4-0.8,0.3-1.6c-0.7,0.3-0.5,1.4-0.9,1.9
	c-0.3-1.1-0.7-2-1.3-2.8C524.1,468,525.7,466.6,527.7,467.7z"/>
<path class="st0" d="M529,467.1c1.1,0.3,2.8,0.4,5,0.3c0,0.6,0,1.3,0,1.9c0.6-0.6,0.6-1.4,0.3-2.2c2,0.3,4.2,0.2,6.3,0
	c1,0.2,0,2.5,1.3,2.5c-4.8,0.7-9.1,0.2-12.5,0.3C529.6,468.6,528.8,468.3,529,467.1z"/>
<path class="st0" d="M520.2,466.7c1.3,0.8-0.3,2.1-0.3,3.5c-1.1,0.1-2,0-2.8-0.3c0-0.8,0-1.7,0-2.5
	C518.6,467,519.9,468.4,520.2,466.7z"/>
<path class="st0" d="M528.1,472.4c1.1,0.2,2.4,0,3.5,0.9c0,0.7-0.5,0.9-0.3,1.9c-1.4-0.2-2.4,0.8-3.5,0
	C528.1,473.8,527.7,473.6,528.1,472.4z"/>
<path class="st0" d="M532.5,472.7c1.5-0.1,3-0.6,4.1,0.3c-0.8,0.4-0.8,1.7-1.3,2.5c-0.9,0-1.9,0-2.8,0
	C532.2,474.5,532.8,472.8,532.5,472.7z"/>
<path class="st0" d="M543.1,472.7c-0.8,1.3,0.2,1.7,0.3,2.8c-2.6,0.1-3.6-0.5-5.3,0c0-0.9-0.1-2-0.9-2.8
	C539.8,472.3,540.7,472.5,543.1,472.7z"/>
<path class="st0" d="M563.8,472.1c-0.4,1.9,0.8,2.1,0.9,3.5c-1.5,0.2-2-0.5-3.5-0.3c0.1-0.4,0.6-0.5,0.6-0.9c-0.9,0.8-2-0.2-1.9,1.3
	c-2-0.4-4.2,0.2-6.9-0.6c0.5-0.1,1.1-1.5,0.3-1.9C555.5,471.6,560.2,473,563.8,472.1z"/>
<path class="st0" d="M525.2,479.9c-0.7-0.7-1,1.5-2.5,0.9c0.2-1.6,0.2-1.5,0-3.1c8.2,0.4,9.4,0.1,18.5,0.3c0,0.5,0.2,0.8,0.6,0.9
	c-1.3,0.7,0.2,0.9,0.6,1.6c-2.1,0.7-5.5,0.1-8.5,0.3c-0.2-0.5,0.4-1.6-0.3-1.6c-0.9,0.3,0.6,1.1-0.3,1.6c-3.7-0.2-5.4,0.4-8.8,0
	C524.9,480.6,524.8,480,525.2,479.9z"/>
<path class="st0" d="M547.2,477.7c3,0.2,3.5,0.3,6.3,0c0.1,1.3-0.7,1.8-0.3,3.1c-1.8-0.3-4.6,0.5-6-0.3
	C547.2,479.6,547.2,478.7,547.2,477.7z"/>
<path class="st0" d="M519.3,479.3c0.6,0.1-0.1-0.9-0.3-0.9c1-0.8,1.8-0.4,2.5,0.3c0.3,0.8-1,1.5,0,1.9c-2,1-5.7,0-7.8,0.6
	c-0.3-0.7,0.2-2.3-0.3-3.5c1.2,0.7,2.3,0.1,3.5,0.3c1.2,0.8-0.4,1.1,0.3,2.2c0.6-0.4,0.7-1.4,0.9-2.2
	C518.9,478,518.8,478.9,519.3,479.3z"/>
</svg>
