<?xml version="1.0" encoding="utf-8"?>
<!-- Generator: Adobe Illustrator 18.1.1, SVG Export Plug-In . SVG Version: 6.00 Build 0)  -->
<svg version="1.1" id="Masthead" xmlns="http://www.w3.org/2000/svg" xmlns:xlink="http://www.w3.org/1999/xlink" x="0px" y="0px"
	 viewBox="0 0 176 128" enable-background="new 0 0 176 128" xml:space="preserve">
<g id="MCM_Logo__x28_Color_x29_">
	<path fill="#E31B23" d="M175.5,113h-2.2v8.2c0,0.3,0,0.6,0.1,1.1l-3.6-9.2h-2v15h2.2v-8.4c0-0.3,0-0.6-0.1-1.1l3.6,9.4h2V113z
		 M160.8,114.9h3.1v11.1h-3.1V114.9z M166.1,114.4c0-0.9-0.5-1.4-1.4-1.4h-4.9c-0.9,0-1.3,0.5-1.3,1.4v12.2c0,0.9,0.4,1.4,1.3,1.4
		h4.9c0.9,0,1.4-0.5,1.4-1.4V114.4z M156.9,113h-2.3v6.2h-3V113h-2.2v15h2.2v-6.7h3v6.7h2.3V113z M147.9,113h-7.2v2h2.5v13h2.2v-13
		h2.5V113z M135.7,123.2l1.1-6.8l1.1,6.8H135.7z M138,113h-2.4l-2.9,15v0h2.2l0.4-2.8h2.8l0.5,2.8h2.2L138,113z M129,121.2
		c0.7,0,1.2-0.1,1.5-0.1c0.4-0.2,0.6-0.6,0.6-1.2v-5.5c0-0.9-0.4-1.4-1.3-1.4h-5.9v15h2.2v-13.1h2.8v4.7h-2.2v1.4l2.5,7h2.3
		L129,121.2z M117.2,123.2l1.1-6.8l1.1,6.8H117.2z M119.5,113h-2.4l-2.9,15v0h2.2l0.4-2.8h2.8l0.4,2.8h2.2L119.5,113z M112.8,113
		h-2.1l-2.4,8.3c0,0.3-0.1,0.5-0.1,0.7c0-0.4,0-0.6-0.1-0.7l-2.3-8.3h-2.1v15h2.2v-7.4c0-0.4,0-0.9-0.1-1.6l1.9,7.7h1.1l1.9-7.7
		c-0.1,0.7-0.1,1.2-0.1,1.6v7.4h2.1V113z M98,123.1c0-0.5-0.2-0.9-0.5-1.2l-4.5-4.2v-2.7h2.7v2.8H98v-3.4c0-0.9-0.5-1.4-1.4-1.4
		h-4.5c-0.9,0-1.3,0.5-1.3,1.4v3.3c0,0.5,0.2,0.9,0.5,1.2l4.5,4.3v2.9H93v-3.1h-2.2v3.6c0,0.9,0.4,1.4,1.3,1.4h4.5
		c0.9,0,1.4-0.5,1.4-1.4V123.1z M84.1,114.9h2.7v5.7h-2.7V114.9z M89.1,114.4c0-0.9-0.5-1.4-1.4-1.4h-5.9v15h2.2v-5.4h3.6
		c0.9,0,1.4-0.5,1.4-1.4V114.4z M77.9,121.2c0.7,0,1.2-0.1,1.5-0.1c0.4-0.2,0.6-0.6,0.6-1.2v-5.5c0-0.9-0.4-1.4-1.3-1.4h-5.9v15H75
		v-13.1h2.8v4.7h-2.2v1.4l2.5,7h2.3L77.9,121.2z M65.7,114.9h3.1v11.1h-3.1V114.9z M71,114.4c0-0.9-0.5-1.4-1.4-1.4h-4.9
		c-0.9,0-1.3,0.5-1.3,1.4v12.2c0,0.9,0.4,1.4,1.3,1.4h4.9c0.9,0,1.4-0.5,1.4-1.4V114.4z M61.7,122.9h-2.2v3.2h-2.9v-11.1h2.9v3h2.2
		v-3.5c0-0.9-0.5-1.4-1.4-1.4h-4.7c-0.9,0-1.3,0.5-1.3,1.4v12.2c0,0.9,0.4,1.4,1.3,1.4h4.7c0.9,0,1.4-0.5,1.4-1.4V122.9z M48.8,126
		h-4v-4.7h3.4v-1.9h-3.4V115h3.9v-2h-6.1v15h6.2V126z M40.9,113h-2.2v8.2c0,0.3,0,0.6,0.1,1.1l-3.6-9.2h-2v15h2.2v-8.4
		c0-0.3,0-0.6-0.1-1.1l3.6,9.4h2V113z M31.5,113h-2.2v15h2.2V113z M25.3,121.2c0.7,0,1.2-0.1,1.5-0.1c0.4-0.2,0.6-0.6,0.6-1.2v-5.5
		c0-0.9-0.5-1.4-1.4-1.4h-5.9v15h2.2v-13.1h2.8v4.7h-2.2v1.4l2.5,7h2.3L25.3,121.2z M13.4,123.2l1.1-6.8l1.1,6.8H13.4z M15.7,113
		h-2.4l-2.9,15v0h2.2l0.4-2.8H16l0.4,2.8h2.2L15.7,113z M9,113H6.9l-2.4,8.3c0,0.3-0.1,0.5-0.1,0.7c0-0.4,0-0.6-0.1-0.7L2.1,113H0
		v15h2.2v-7.4c0-0.4,0-0.9-0.1-1.6l1.9,7.7h1.1L7,119c-0.1,0.7-0.1,1.2-0.1,1.6v7.4H9V113z"/>
	<path fill="#E31B23" d="M71.7,0c-1.9,0-16.6,0-16.6,0l23,23.1c0,0,6.2-6.3,7.1-7.2c1.3-1.3,3.6-1.3,3.6-1.3l-13-13.1
		C75.9,1.6,74.5,0,71.7,0L71.7,0z"/>
	<path fill="#E31B23" d="M90.9,13.2c0,0,1.6,1.6,2.9,0.2c2-2,5.9-5.9,5.9-5.9l-4.6-4.6c0,0-8.9,0-10.4,0c-2.2,0-4.8-0.8-4.8-0.8
		L90.9,13.2z"/>
	<g>
		<path fill="#231F20" d="M114.6,103.3l37,0L48.6,0.1l-10.7,0l54.5,54.6L68.7,78.5c0,0,3.5-0.7,5.9,1.7c1,1,13,13,13,13
			s2.6,2.1,0,4.7c-2.8,2.8-5.4,5.4-5.4,5.4l15.3,0c0,0,3.6-3.5,6.3-6.2c2.6-2.6,0-4.7,0-4.7S92.5,81.2,91.5,80.2
			c-2.4-2.4-6.3-1.7-6.3-1.7l15.5-15.6l8.4,8.4l-7.6,7.5c0,0,3.5-0.7,5.9,1.7c1,1,8.8,8.8,8.8,8.8l3.8,3.7c0,0,2.6,2.1,0,4.7
			L114.6,103.3z"/>
		<path fill="#231F20" d="M71.4,92.6c0,0-11.4-11.4-12.4-12.4c-2.2-2.2-5.3-1.8-5.8-1.7L80,51.5l-7.8-7.8l-59.5,59.5h15.7l16-16.1
			c0,0,2.3-2.8,5,0c2.9,2.9,5.8,5.9,5.8,5.9s2.6,2.1,0,4.7c-2.8,2.8-5.5,5.5-5.5,5.5l15.6,0c0,0,3.2-3.2,5.9-5.9
			C74,94.7,71.4,92.6,71.4,92.6z"/>
	</g>
	<path fill="#E31B23" d="M114.8,46.2l-3.2-3.2l-3.8,3.8l-2.9-2.9L117.7,31l2.9,2.9l-3.6,3.6l3.2,3.2l4.7-4.8c1.1-1.1,1.1-2.2,0-3.3
		l-6.1-6.2c-1.1-1.1-2.1-1-3.3,0.1l-15.2,15.3c-1.1,1.1-1.1,2.2,0,3.2l6.1,6.2c1.1,1.1,2.2,1.1,3.3,0L114.8,46.2z M115.8,23.4l-3-3
		c0,0-12.2,6.9-12.2,6.8l6.8-12.1l-3-3L85.8,30.5l3.1,3.1l8.2-8.2l-4.9,8.2l1.8,1.8l8.3-4.9l-8.3,8.2l3.2,3.2L115.8,23.4z"/>
	<path fill="#E31B23" d="M139.5,47.2l-3-3c0,0-12.2,6.9-12.2,6.8l6.8-12.1l-3-3l-18.5,18.6l3.1,3.1l8.2-8.2l-4.9,8.2l1.8,1.8
		l8.3-4.9l-8.3,8.2l3.2,3.2L139.5,47.2z"/>
	<path fill="#231F20" d="M175.2,86.3c1.1-1.1,1.1-2.3,0-3.4l-5.4-5.5c-1.1-1.1-2.3-1.1-3.4,0l-4.1,4.1l2.7,2.7l3.5-3.5l3.4,3.4
		l-3.4,3.4L151,92.4l-1.7,1.7l9,9l2.4-2.4l-5.7-5.7l14-3.8c1.1-0.3,2-0.8,2.5-1.3L175.2,86.3z M150.8,90l-2.7-2.7l-2.9,2.9l2.7,2.7
		L150.8,90z M140,80.1l5.8-5.9l3.5,3.6l-5.8,5.9L140,80.1z M152.7,79.8c1.1-1.1,1.1-2.2,0-3.4l-4.6-4.6l5.6-5.6l3.5,3.5L154,73
		l2.7,2.7l3.9-3.9c1.1-1.1,1.2-2.3,0-3.4l-5.6-5.6c-1.1-1.1-2.2-1.1-3.4,0.1L136.5,78c-1.1,1.1-1.1,2.3,0,3.4l5.6,5.6
		c1.1,1.1,2.2,1.1,3.4,0L152.7,79.8z M150.3,61.3c1.1-1.1,1.1-2.3,0-3.4l-5.4-5.4c-1.1-1.1-2.3-1.1-3.4,0l-4.1,4.1l2.7,2.7l3.4-3.5
		l3.4,3.4l-3.4,3.4l-17.3,4.8l-1.7,1.7l9,9l2.4-2.4l-5.7-5.7l14-3.8c1.1-0.3,2-0.8,2.6-1.3L150.3,61.3z"/>
</g>
</svg>
