<?xml version="1.0" encoding="utf-8"?>
<!-- Generator: Adobe Illustrator 18.1.1, SVG Export Plug-In . SVG Version: 6.00 Build 0)  -->
<svg version="1.1" id="Masthead" xmlns="http://www.w3.org/2000/svg" xmlns:xlink="http://www.w3.org/1999/xlink" x="0px" y="0px"
	 viewBox="0 173.5 612.1 445.4" enable-background="new 0 173.5 612.1 445.4" xml:space="preserve">
<g id="MCM_Logo__x28_Color_x29_">
	<path fill="#E31B23" d="M610.3,566.4h-7.6v28.5c0,1,0,2.1,0.3,3.8l-12.5-32h-7v52.2h7.6v-29.2c0-1,0-2.1-0.3-3.8l12.5,32.7h7V566.4
		z M559.1,573h10.8v38.6h-10.8V573z M577.6,571.3c0-3.1-1.7-4.9-4.9-4.9h-17c-3.1,0-4.5,1.7-4.5,4.9v42.4c0,3.1,1.4,4.9,4.5,4.9h17
		c3.1,0,4.9-1.7,4.9-4.9V571.3z M545.6,566.4h-8v21.6h-10.4v-21.6h-7.7v52.2h7.7v-23.3h10.4v23.3h8V566.4z M514.3,566.4h-25v7h8.7
		v45.2h7.6v-45.2h8.7V566.4z M471.9,601.9l3.8-23.6l3.8,23.6H471.9z M479.9,566.4h-8.3l-10.1,52.2l0,0h7.6l1.4-9.7h9.7l1.7,9.7h7.6
		L479.9,566.4z M448.6,594.9c2.4,0,4.2-0.3,5.2-0.3c1.4-0.7,2.1-2.1,2.1-4.2v-19.1c0-3.1-1.4-4.9-4.5-4.9h-20.5v52.2h7.6V573h9.7
		v16.3h-7.6v4.9l8.7,24.3h8L448.6,594.9z M407.5,601.9l3.8-23.6l3.8,23.6H407.5z M415.5,566.4h-8.3l-10.1,52.2l0,0h7.6l1.4-9.7h9.7
		l1.4,9.7h7.6L415.5,566.4z M392.2,566.4h-7.3l-8.3,28.9c0,1-0.3,1.7-0.3,2.4c0-1.4,0-2.1-0.3-2.4l-8-28.9h-7.3v52.2h7.6v-25.7
		c0-1.4,0-3.1-0.3-5.6l6.6,26.8h3.8l6.6-26.8c-0.3,2.4-0.3,4.2-0.3,5.6v25.7h7.3v-52.2H392.2z M340.8,601.5c0-1.7-0.7-3.1-1.7-4.2
		l-15.6-14.6v-9.4h9.4v9.7h8v-11.8c0-3.1-1.7-4.9-4.9-4.9h-15.6c-3.1,0-4.5,1.7-4.5,4.9v11.5c0,1.7,0.7,3.1,1.7,4.2l15.6,15v10.1
		h-9.7v-10.8h-7.6v12.5c0,3.1,1.4,4.9,4.5,4.9h15.6c3.1,0,4.9-1.7,4.9-4.9L340.8,601.5L340.8,601.5z M292.4,573h9.4v19.8h-9.4V573z
		 M309.8,571.3c0-3.1-1.7-4.9-4.9-4.9h-20.5v52.2h7.6v-18.8h12.5c3.1,0,4.9-1.7,4.9-4.9v-23.6H309.8z M270.9,594.9
		c2.4,0,4.2-0.3,5.2-0.3c1.4-0.7,2.1-2.1,2.1-4.2v-19.1c0-3.1-1.4-4.9-4.5-4.9h-20.5v52.2h7.7V573h9.7v16.3h-7.6v4.9l8.7,24.3h8
		L270.9,594.9z M228.5,573h10.8v38.6h-10.8V573z M246.9,571.3c0-3.1-1.7-4.9-4.9-4.9h-17c-3.1,0-4.5,1.7-4.5,4.9v42.4
		c0,3.1,1.4,4.9,4.5,4.9h17c3.1,0,4.9-1.7,4.9-4.9V571.3z M214.5,600.8h-7.6v11.1h-10.1v-38.6h10.1v10.4h7.6v-12.2
		c0-3.1-1.7-4.9-4.9-4.9h-16.3c-3.1,0-4.5,1.7-4.5,4.9V614c0,3.1,1.4,4.9,4.5,4.9h16.3c3.1,0,4.9-1.7,4.9-4.9V600.8z M169.7,611.6
		h-13.9v-16.3h11.8v-6.6h-11.8v-15.3h13.6v-7h-21.2v52.2h21.6L169.7,611.6L169.7,611.6z M142.2,566.4h-7.6v28.5c0,1,0,2.1,0.3,3.8
		l-12.5-32h-7v52.2h7.7v-29.2c0-1,0-2.1-0.3-3.8l12.5,32.7h7V566.4z M109.5,566.4h-7.7v52.2h7.7V566.4z M88,594.9
		c2.4,0,4.2-0.3,5.2-0.3c1.4-0.7,2.1-2.1,2.1-4.2v-19.1c0-3.1-1.7-4.9-4.9-4.9H69.9v52.2h7.7V573h9.7v16.3h-7.7v4.9l8.7,24.3h8
		L88,594.9z M46.6,601.9l3.8-23.6l3.8,23.6H46.6z M54.6,566.4h-8.3l-10.1,52.2l0,0h7.6l1.4-9.7h10.4l1.4,9.7h7.7L54.6,566.4z
		 M31.3,566.4H24l-8.3,28.9c0,1-0.3,1.7-0.3,2.4c0-1.4,0-2.1-0.3-2.4l-7.7-28.9H0v52.2h7.7v-25.7c0-1.4,0-3.1-0.3-5.6l6.6,26.8h3.8
		l6.6-26.8c-0.3,2.4-0.3,4.2-0.3,5.6v25.7h7.3V566.4z"/>
	<path fill="#E31B23" d="M249.3,173.5c-6.6,0-57.7,0-57.7,0l80,80.3c0,0,21.6-21.9,24.7-25c4.5-4.5,12.5-4.5,12.5-4.5l-45.2-45.6
		C263.9,179,259.1,173.5,249.3,173.5L249.3,173.5z"/>
	<path fill="#E31B23" d="M316.1,219.4c0,0,5.6,5.6,10.1,0.7c7-7,20.5-20.5,20.5-20.5l-16-16c0,0-30.9,0-36.2,0
		c-7.6,0-16.7-2.8-16.7-2.8L316.1,219.4z"/>
	<g>
		<path fill="#FFFFFF" d="M398.5,532.7h128.7L169,173.8h-37.2l189.5,189.9l-82.4,82.8c0,0,12.2-2.4,20.5,5.9
			c3.5,3.5,45.2,45.2,45.2,45.2s9,7.3,0,16.3c-9.7,9.7-18.8,18.8-18.8,18.8H339c0,0,12.5-12.2,21.9-21.6c9-9,0-16.3,0-16.3
			s-39.3-38.9-42.8-42.4c-8.3-8.3-21.9-5.9-21.9-5.9l53.9-54.2l29.2,29.2l-26.4,26.1c0,0,12.2-2.4,20.5,5.9
			c3.5,3.5,30.6,30.6,30.6,30.6l13.2,12.9c0,0,9,7.3,0,16.3L398.5,532.7z"/>
		<path fill="#FFFFFF" d="M248.3,495.4c0,0-39.6-39.6-43.1-43.1c-7.6-7.6-18.4-6.3-20.2-5.9l93.2-93.9l-27.1-27.1L44.2,532.3h54.6
			l55.6-56c0,0,8-9.7,17.4,0c10.1,10.1,20.2,20.5,20.2,20.5s9,7.3,0,16.3c-9.7,9.7-19.1,19.1-19.1,19.1h54.2
			c0,0,11.1-11.1,20.5-20.5C257.3,502.8,248.3,495.4,248.3,495.4z"/>
	</g>
	<path fill="#E31B23" d="M399.2,334.1L388.1,323l-13.2,13.2l-10.1-10.1l44.5-44.9l10.1,10.1l-12.5,12.5L418,315l16.3-16.7
		c3.8-3.8,3.8-7.6,0-11.5l-21.2-21.6c-3.8-3.8-7.3-3.5-11.5,0.3l-52.9,53.2c-3.8,3.8-3.8,7.6,0,11.1l21.2,21.6
		c3.8,3.8,7.6,3.8,11.5,0L399.2,334.1z M402.7,254.8l-10.4-10.4c0,0-42.4,24-42.4,23.6l23.6-42.1L363,215.5l-64.7,64l10.8,10.8
		l28.5-28.5l-17,28.5l6.3,6.3l28.9-17L326.9,308l11.1,11.1L402.7,254.8z"/>
	<path fill="#E31B23" d="M485.1,337.6l-10.4-10.4c0,0-42.4,24-42.4,23.6l23.6-42.1l-10.4-10.4L381.1,363l10.8,10.8l28.5-28.5
		l-17,28.5l6.3,6.3l28.9-17l-28.9,28.5l11.1,11.1L485.1,337.6z"/>
	<path fill="#FFFFFF" d="M609.2,473.5c3.8-3.8,3.8-8,0-11.8l-18.8-19.1c-3.8-3.8-8-3.8-11.8,0l-14.3,14.3l9.4,9.4l12.2-12.2
		l11.8,11.8l-11.8,11.8l-60.9,17l-5.9,5.9l31.3,31.3l8.3-8.3L539,503.8l48.7-13.2c3.8-1,7-2.8,8.7-4.5L609.2,473.5z M524.4,486.4
		L515,477l-10.1,10.1l9.4,9.4L524.4,486.4z M486.8,452l20.2-20.5l12.2,12.5L499,464.5L486.8,452z M531,450.9c3.8-3.8,3.8-7.6,0-11.8
		l-16-16l19.5-19.5l12.2,12.2l-11.1,11.5l9.4,9.4l13.6-13.6c3.8-3.8,4.2-8,0-11.8L539,391.8c-3.8-3.8-7.7-3.8-11.8,0.3l-52.5,52.5
		c-3.8,3.8-3.8,8,0,11.8l19.5,19.5c3.8,3.8,7.6,3.8,11.8,0L531,450.9z M522.6,386.6c3.8-3.8,3.8-8,0-11.8L503.9,356
		c-3.8-3.8-8-3.8-11.8,0l-14.3,14.3l9.4,9.4l11.8-12.2l11.8,11.8L499,391.1l-60.2,16.7l-5.9,5.9l31.3,31.3l8.3-8.3l-19.8-19.8
		l48.7-13.2c3.8-1,7-2.8,9-4.5L522.6,386.6z"/>
</g>
</svg>
