<?xml version="1.0" encoding="utf-8"?>
<!-- Generator: Adobe Illustrator 18.1.1, SVG Export Plug-In . SVG Version: 6.00 Build 0)  -->
<svg version="1.1" id="Masthead" xmlns="http://www.w3.org/2000/svg" xmlns:xlink="http://www.w3.org/1999/xlink" x="0px" y="0px"
	 viewBox="44.2 346.8 567.8 359.1" enable-background="new 44.2 346.8 567.8 359.1" xml:space="preserve">
<path fill="#E31B23" d="M249.3,346.8c-6.6,0-57.7,0-57.7,0l80,80.3c0,0,21.6-21.9,24.7-25c4.5-4.5,12.5-4.5,12.5-4.5L263.6,352
	C263.9,352.3,259.1,346.8,249.3,346.8L249.3,346.8z"/>
<path fill="#E31B23" d="M316,392.7c0,0,5.6,5.6,10.1,0.7c7-7,20.5-20.5,20.5-20.5l-16-16c0,0-30.9,0-36.2,0
	c-7.6,0-16.7-2.8-16.7-2.8L316,392.7z"/>
<g>
	<path fill="#FFFFFF" d="M398.4,706h128.7L169,347.1h-37.2L321.2,537l-82.4,82.8c0,0,12.2-2.4,20.5,5.9c3.5,3.5,45.2,45.2,45.2,45.2
		s9,7.3,0,16.3c-9.7,9.7-18.8,18.8-18.8,18.8h53.2c0,0,12.5-12.2,21.9-21.6c9-9,0-16.3,0-16.3s-39.3-38.9-42.8-42.4
		c-8.3-8.3-21.9-5.9-21.9-5.9l53.9-54.2l29.2,29.2l-26.4,26.1c0,0,12.2-2.4,20.5,5.9c3.5,3.5,30.6,30.6,30.6,30.6l13.2,12.9
		c0,0,9,7.3,0,16.3L398.4,706z"/>
	<path fill="#FFFFFF" d="M248.3,668.7c0,0-39.6-39.6-43.1-43.1c-7.6-7.6-18.4-6.3-20.2-5.9l93.2-93.9l-27.1-27.1L44.2,705.6h54.6
		l55.6-56c0,0,8-9.7,17.4,0c10.1,10.1,20.2,20.5,20.2,20.5s9,7.3,0,16.3c-9.7,9.7-19.1,19.1-19.1,19.1h54.2c0,0,11.1-11.1,20.5-20.5
		C257.3,676.1,248.3,668.7,248.3,668.7z"/>
</g>
<path fill="#E31B23" d="M399.1,507.4L388,496.3l-13.2,13.2l-10.1-10.1l44.5-44.9l10.1,10.1l-12.5,12.5l11.1,11.2l16.3-16.7
	c3.8-3.8,3.8-7.6,0-11.5L413,438.5c-3.8-3.8-7.3-3.5-11.5,0.3L348.6,492c-3.8,3.8-3.8,7.6,0,11.1l21.2,21.6c3.8,3.8,7.6,3.8,11.5,0
	L399.1,507.4z M402.6,428.1l-10.4-10.4c0,0-42.4,24-42.4,23.6l23.6-42.1l-10.5-10.4l-64.7,64l10.8,10.8l28.5-28.5l-17,28.5l6.3,6.3
	l28.9-17l-28.9,28.4l11.1,11.1L402.6,428.1z"/>
<path fill="#E31B23" d="M485,510.9l-10.4-10.4c0,0-42.4,24-42.4,23.6l23.6-42.1l-10.4-10.4L381,536.3l10.8,10.8l28.5-28.5l-17,28.5
	l6.3,6.3l28.9-17l-28.9,28.5l11.1,11.1L485,510.9z"/>
<path fill="#FFFFFF" d="M609.1,646.8c3.8-3.8,3.8-8,0-11.8l-18.8-19.1c-3.8-3.8-8-3.8-11.8,0l-14.3,14.3l9.4,9.4l12.2-12.2
	l11.8,11.8L585.8,651l-60.9,17l-5.9,5.9l31.3,31.3l8.3-8.3l-19.7-19.8l48.7-13.2c3.8-1,7-2.8,8.7-4.5L609.1,646.8z M524.3,659.7
	l-9.4-9.4l-10.1,10.1l9.4,9.4L524.3,659.7z M486.7,625.3l20.2-20.5l12.2,12.5l-20.2,20.5L486.7,625.3z M530.9,624.2
	c3.8-3.8,3.8-7.6,0-11.8l-16-16l19.5-19.5l12.2,12.2l-11.1,11.5l9.4,9.4l13.6-13.6c3.8-3.8,4.2-8,0-11.8l-19.6-19.5
	c-3.8-3.8-7.7-3.8-11.8,0.3l-52.5,52.5c-3.8,3.8-3.8,8,0,11.8l19.5,19.5c3.8,3.8,7.6,3.8,11.8,0L530.9,624.2z M522.5,559.9
	c3.8-3.8,3.8-8,0-11.8l-18.7-18.8c-3.8-3.8-8-3.8-11.8,0l-14.3,14.3l9.4,9.4l11.8-12.2l11.8,11.8l-11.8,11.8l-60.2,16.7l-5.9,5.9
	l31.3,31.3l8.3-8.3l-19.8-19.8l48.7-13.2c3.8-1,7-2.8,9-4.5L522.5,559.9z"/>
</svg>
